<?xml version="1.0" encoding="UTF-8" standalone="no"?>
<!DOCTYPE svg PUBLIC "-//W3C//DTD SVG 1.1//EN"
 "http://www.w3.org/Graphics/SVG/1.1/DTD/svg11.dtd">
<!-- Generated by graphviz version 2.40.1 (20161225.0304)
 -->
<!-- Title: structs Pages: 1 -->
<svg width="1227pt" height="548pt"
 viewBox="0.00 0.00 1227.00 548.00" xmlns="http://www.w3.org/2000/svg" xmlns:xlink="http://www.w3.org/1999/xlink">
<g id="graph0" class="graph" transform="scale(1 1) rotate(0) translate(4 544)">
<title>structs</title>
<polygon fill="#ffffff" stroke="transparent" points="-4,4 -4,-544 1223,-544 1223,4 -4,4"/>
<!-- magnitude_wfinputnode -->
<g id="node1" class="node">
<title>magnitude_wfinputnode</title>
<polygon fill="none" stroke="#000000" points="0,-470.5 0,-539.5 217,-539.5 217,-470.5 0,-470.5"/>
<text text-anchor="middle" x="17.5" y="-501.3" font-family="Times,serif" font-size="14.00" fill="#000000">IN</text>
<polyline fill="none" stroke="#000000" points="35,-470.5 35,-539.5 "/>
<text text-anchor="middle" x="79.5" y="-524.3" font-family="Times,serif" font-size="14.00" fill="#000000">inputnode</text>
<polyline fill="none" stroke="#000000" points="35,-516.5 124,-516.5 "/>
<text text-anchor="middle" x="79.5" y="-501.3" font-family="Times,serif" font-size="14.00" fill="#000000">utility</text>
<polyline fill="none" stroke="#000000" points="35,-493.5 124,-493.5 "/>
<text text-anchor="middle" x="79.5" y="-478.3" font-family="Times,serif" font-size="14.00" fill="#000000"> </text>
<polyline fill="none" stroke="#000000" points="124,-470.5 124,-539.5 "/>
<text text-anchor="middle" x="170.5" y="-518.8" font-family="Times,serif" font-size="14.00" fill="#000000">OUT</text>
<polyline fill="none" stroke="#000000" points="124,-505.5 217,-505.5 "/>
<text text-anchor="middle" x="170.5" y="-484.3" font-family="Times,serif" font-size="14.00" fill="#000000">magnitude</text>
</g>
<!-- magnitude_wfmagmrg -->
<g id="node2" class="node">
<title>magnitude_wfmagmrg</title>
<polygon fill="none" stroke="#000000" points="218,-364.5 218,-433.5 433,-433.5 433,-364.5 218,-364.5"/>
<text text-anchor="middle" x="252" y="-412.8" font-family="Times,serif" font-size="14.00" fill="#000000">IN</text>
<polyline fill="none" stroke="#000000" points="218,-399.5 286,-399.5 "/>
<text text-anchor="middle" x="252" y="-378.3" font-family="Times,serif" font-size="14.00" fill="#000000">in_files</text>
<polyline fill="none" stroke="#000000" points="286,-364.5 286,-433.5 "/>
<text text-anchor="middle" x="324.5" y="-418.3" font-family="Times,serif" font-size="14.00" fill="#000000">magmrg</text>
<polyline fill="none" stroke="#000000" points="286,-410.5 363,-410.5 "/>
<text text-anchor="middle" x="324.5" y="-395.3" font-family="Times,serif" font-size="14.00" fill="#000000">images</text>
<polyline fill="none" stroke="#000000" points="286,-387.5 363,-387.5 "/>
<text text-anchor="middle" x="324.5" y="-372.3" font-family="Times,serif" font-size="14.00" fill="#000000"> </text>
<polyline fill="none" stroke="#000000" points="363,-364.5 363,-433.5 "/>
<text text-anchor="middle" x="398" y="-412.8" font-family="Times,serif" font-size="14.00" fill="#000000">OUT</text>
<polyline fill="none" stroke="#000000" points="363,-399.5 433,-399.5 "/>
<text text-anchor="middle" x="398" y="-378.3" font-family="Times,serif" font-size="14.00" fill="#000000">out_file</text>
</g>
<!-- magnitude_wfinputnode&#45;&gt;magnitude_wfmagmrg -->
<g id="edge4" class="edge">
<title>magnitude_wfinputnode:e&#45;&gt;magnitude_wfmagmrg:w</title>
<path fill="none" stroke="#000000" d="M217.5,-488C260.1944,-488 186.8134,-400.9434 207.7437,-384.6202"/>
<polygon fill="#000000" stroke="#000000" points="208.7501,-387.9741 217.5,-382 206.9344,-381.2136 208.7501,-387.9741"/>
</g>
<!-- magnitude_wfn4_correct -->
<g id="node3" class="node">
<title>magnitude_wfn4_correct</title>
<polygon fill="none" stroke="#000000" points="434,-258.5 434,-327.5 749,-327.5 749,-258.5 434,-258.5"/>
<text text-anchor="middle" x="486.5" y="-306.8" font-family="Times,serif" font-size="14.00" fill="#000000">IN</text>
<polyline fill="none" stroke="#000000" points="434,-293.5 539,-293.5 "/>
<text text-anchor="middle" x="486.5" y="-272.3" font-family="Times,serif" font-size="14.00" fill="#000000">input_image</text>
<polyline fill="none" stroke="#000000" points="539,-258.5 539,-327.5 "/>
<text text-anchor="middle" x="586.5" y="-312.3" font-family="Times,serif" font-size="14.00" fill="#000000">n4_correct</text>
<polyline fill="none" stroke="#000000" points="539,-304.5 634,-304.5 "/>
<text text-anchor="middle" x="586.5" y="-289.3" font-family="Times,serif" font-size="14.00" fill="#000000">ants</text>
<polyline fill="none" stroke="#000000" points="539,-281.5 634,-281.5 "/>
<text text-anchor="middle" x="586.5" y="-266.3" font-family="Times,serif" font-size="14.00" fill="#000000"> </text>
<polyline fill="none" stroke="#000000" points="634,-258.5 634,-327.5 "/>
<text text-anchor="middle" x="691.5" y="-306.8" font-family="Times,serif" font-size="14.00" fill="#000000">OUT</text>
<polyline fill="none" stroke="#000000" points="634,-293.5 749,-293.5 "/>
<text text-anchor="middle" x="691.5" y="-272.3" font-family="Times,serif" font-size="14.00" fill="#000000">output_image</text>
</g>
<!-- magnitude_wfmagmrg&#45;&gt;magnitude_wfn4_correct -->
<g id="edge5" class="edge">
<title>magnitude_wfmagmrg:e&#45;&gt;magnitude_wfn4_correct:w</title>
<path fill="none" stroke="#000000" d="M433.5,-382C476.1944,-382 402.8134,-294.9434 423.7437,-278.6202"/>
<polygon fill="#000000" stroke="#000000" points="424.7501,-281.9741 433.5,-276 422.9344,-275.2136 424.7501,-281.9741"/>
</g>
<!-- magnitude_wfbet -->
<g id="node4" class="node">
<title>magnitude_wfbet</title>
<polygon fill="none" stroke="#000000" points="749.5,-129.5 749.5,-221.5 963.5,-221.5 963.5,-129.5 749.5,-129.5"/>
<text text-anchor="middle" x="779.5" y="-194.8" font-family="Times,serif" font-size="14.00" fill="#000000">IN</text>
<polyline fill="none" stroke="#000000" points="749.5,-175.5 809.5,-175.5 "/>
<text text-anchor="middle" x="779.5" y="-148.8" font-family="Times,serif" font-size="14.00" fill="#000000">in_file</text>
<polyline fill="none" stroke="#000000" points="809.5,-129.5 809.5,-221.5 "/>
<text text-anchor="middle" x="840.5" y="-202.8" font-family="Times,serif" font-size="14.00" fill="#000000">bet</text>
<polyline fill="none" stroke="#000000" points="809.5,-191.5 871.5,-191.5 "/>
<text text-anchor="middle" x="840.5" y="-172.3" font-family="Times,serif" font-size="14.00" fill="#000000">masks</text>
<polyline fill="none" stroke="#000000" points="809.5,-160.5 871.5,-160.5 "/>
<text text-anchor="middle" x="840.5" y="-141.3" font-family="Times,serif" font-size="14.00" fill="#000000"> </text>
<polyline fill="none" stroke="#000000" points="871.5,-129.5 871.5,-221.5 "/>
<text text-anchor="middle" x="917.5" y="-206.3" font-family="Times,serif" font-size="14.00" fill="#000000">OUT</text>
<polyline fill="none" stroke="#000000" points="871.5,-198.5 963.5,-198.5 "/>
<text text-anchor="middle" x="917.5" y="-183.3" font-family="Times,serif" font-size="14.00" fill="#000000">mask_file</text>
<polyline fill="none" stroke="#000000" points="871.5,-175.5 963.5,-175.5 "/>
<text text-anchor="middle" x="917.5" y="-160.3" font-family="Times,serif" font-size="14.00" fill="#000000">out_file</text>
<polyline fill="none" stroke="#000000" points="871.5,-152.5 963.5,-152.5 "/>
<text text-anchor="middle" x="917.5" y="-137.3" font-family="Times,serif" font-size="14.00" fill="#000000">out_report</text>
</g>
<!-- magnitude_wfn4_correct&#45;&gt;magnitude_wfbet -->
<g id="edge6" class="edge">
<title>magnitude_wfn4_correct:e&#45;&gt;magnitude_wfbet:w</title>
<path fill="none" stroke="#000000" d="M749.5,-276C749.5,-276 749.5,-192.1019 749.5,-162.6065"/>
<polygon fill="#000000" stroke="#000000" points="753.0001,-162.5 749.5,-152.5 746.0001,-162.5 753.0001,-162.5"/>
</g>
<!-- magnitude_wfoutputnode -->
<g id="node5" class="node">
<title>magnitude_wfoutputnode</title>
<polygon fill="none" stroke="#000000" points="964,-.5 964,-92.5 1219,-92.5 1219,-.5 964,-.5"/>
<text text-anchor="middle" x="1017.5" y="-77.3" font-family="Times,serif" font-size="14.00" fill="#000000">IN</text>
<polyline fill="none" stroke="#000000" points="964,-69.5 1071,-69.5 "/>
<text text-anchor="middle" x="1017.5" y="-54.3" font-family="Times,serif" font-size="14.00" fill="#000000">fmap_mask</text>
<polyline fill="none" stroke="#000000" points="964,-46.5 1071,-46.5 "/>
<text text-anchor="middle" x="1017.5" y="-31.3" font-family="Times,serif" font-size="14.00" fill="#000000">fmap_ref</text>
<polyline fill="none" stroke="#000000" points="964,-23.5 1071,-23.5 "/>
<text text-anchor="middle" x="1017.5" y="-8.3" font-family="Times,serif" font-size="14.00" fill="#000000">mask_report</text>
<polyline fill="none" stroke="#000000" points="1071,-.5 1071,-92.5 "/>
<text text-anchor="middle" x="1120" y="-73.8" font-family="Times,serif" font-size="14.00" fill="#000000">outputnode</text>
<polyline fill="none" stroke="#000000" points="1071,-62.5 1169,-62.5 "/>
<text text-anchor="middle" x="1120" y="-43.3" font-family="Times,serif" font-size="14.00" fill="#000000">utility</text>
<polyline fill="none" stroke="#000000" points="1071,-31.5 1169,-31.5 "/>
<text text-anchor="middle" x="1120" y="-12.3" font-family="Times,serif" font-size="14.00" fill="#000000"> </text>
<polyline fill="none" stroke="#000000" points="1169,-.5 1169,-92.5 "/>
<text text-anchor="middle" x="1194" y="-42.8" font-family="Times,serif" font-size="14.00" fill="#000000">OUT</text>
</g>
<!-- magnitude_wfbet&#45;&gt;magnitude_wfoutputnode -->
<g id="edge1" class="edge">
<title>magnitude_wfbet:e&#45;&gt;magnitude_wfoutputnode:w</title>
<path fill="none" stroke="#000000" d="M963.5,-187.5C1016.5781,-187.5 922.2401,-76.9379 953.4361,-60.5263"/>
<polygon fill="#000000" stroke="#000000" points="954.3876,-63.905 963.5,-58.5 953.0059,-57.0427 954.3876,-63.905"/>
</g>
<!-- magnitude_wfbet&#45;&gt;magnitude_wfoutputnode -->
<g id="edge2" class="edge">
<title>magnitude_wfbet:e&#45;&gt;magnitude_wfoutputnode:w</title>
<path fill="none" stroke="#000000" d="M963.5,-163.5C1016.5781,-163.5 922.2401,-52.9379 953.4361,-36.5263"/>
<polygon fill="#000000" stroke="#000000" points="954.3876,-39.905 963.5,-34.5 953.0059,-33.0427 954.3876,-39.905"/>
</g>
<!-- magnitude_wfbet&#45;&gt;magnitude_wfoutputnode -->
<g id="edge3" class="edge">
<title>magnitude_wfbet:e&#45;&gt;magnitude_wfoutputnode:w</title>
<path fill="none" stroke="#000000" d="M963.5,-140.5C963.5,-140.5 963.5,-52.033 963.5,-21.6224"/>
<polygon fill="#000000" stroke="#000000" points="967.0001,-21.5 963.5,-11.5 960.0001,-21.5 967.0001,-21.5"/>
</g>
</g>
</svg>
