<?xml version="1.0" encoding="UTF-8" standalone="no"?>
<!DOCTYPE svg PUBLIC "-//W3C//DTD SVG 1.1//EN"
 "http://www.w3.org/Graphics/SVG/1.1/DTD/svg11.dtd">
<!-- Generated by graphviz version 2.40.1 (20161225.0304)
 -->
<!-- Title: structs Pages: 1 -->
<svg width="1412pt" height="1156pt"
 viewBox="0.00 0.00 1411.82 1156.00" xmlns="http://www.w3.org/2000/svg" xmlns:xlink="http://www.w3.org/1999/xlink">
<g id="graph0" class="graph" transform="scale(1 1) rotate(0) translate(4 1152)">
<title>structs</title>
<polygon fill="#ffffff" stroke="transparent" points="-4,4 -4,-1152 1407.8156,-1152 1407.8156,4 -4,4"/>
<!-- syn_sdc_wfinputnode -->
<g id="node1" class="node">
<title>syn_sdc_wfinputnode</title>
<polygon fill="none" stroke="#000000" points="170.8156,-1009.5 170.8156,-1147.5 408.8156,-1147.5 408.8156,-1009.5 170.8156,-1009.5"/>
<text text-anchor="middle" x="188.3156" y="-1074.8" font-family="Times,serif" font-size="14.00" fill="#000000">IN</text>
<polyline fill="none" stroke="#000000" points="205.8156,-1009.5 205.8156,-1147.5 "/>
<text text-anchor="middle" x="250.3156" y="-1120.8" font-family="Times,serif" font-size="14.00" fill="#000000">inputnode</text>
<polyline fill="none" stroke="#000000" points="205.8156,-1101.5 294.8156,-1101.5 "/>
<text text-anchor="middle" x="250.3156" y="-1074.8" font-family="Times,serif" font-size="14.00" fill="#000000">utility</text>
<polyline fill="none" stroke="#000000" points="205.8156,-1055.5 294.8156,-1055.5 "/>
<text text-anchor="middle" x="250.3156" y="-1028.8" font-family="Times,serif" font-size="14.00" fill="#000000"> </text>
<polyline fill="none" stroke="#000000" points="294.8156,-1009.5 294.8156,-1147.5 "/>
<text text-anchor="middle" x="351.8156" y="-1132.3" font-family="Times,serif" font-size="14.00" fill="#000000">OUT</text>
<polyline fill="none" stroke="#000000" points="294.8156,-1124.5 408.8156,-1124.5 "/>
<text text-anchor="middle" x="351.8156" y="-1109.3" font-family="Times,serif" font-size="14.00" fill="#000000">anat2epi_xfm</text>
<polyline fill="none" stroke="#000000" points="294.8156,-1101.5 408.8156,-1101.5 "/>
<text text-anchor="middle" x="351.8156" y="-1086.3" font-family="Times,serif" font-size="14.00" fill="#000000">anat_brain</text>
<polyline fill="none" stroke="#000000" points="294.8156,-1078.5 408.8156,-1078.5 "/>
<text text-anchor="middle" x="351.8156" y="-1063.3" font-family="Times,serif" font-size="14.00" fill="#000000">epi_mask</text>
<polyline fill="none" stroke="#000000" points="294.8156,-1055.5 408.8156,-1055.5 "/>
<text text-anchor="middle" x="351.8156" y="-1040.3" font-family="Times,serif" font-size="14.00" fill="#000000">epi_ref</text>
<polyline fill="none" stroke="#000000" points="294.8156,-1032.5 408.8156,-1032.5 "/>
<text text-anchor="middle" x="351.8156" y="-1017.3" font-family="Times,serif" font-size="14.00" fill="#000000">std2anat_xfm</text>
</g>
<!-- syn_sdc_wfinvert_t1w -->
<g id="node2" class="node">
<title>syn_sdc_wfinvert_t1w</title>
<polygon fill="none" stroke="#000000" points="45.3156,-903.5 45.3156,-972.5 276.3156,-972.5 276.3156,-903.5 45.3156,-903.5"/>
<text text-anchor="middle" x="78.8156" y="-957.3" font-family="Times,serif" font-size="14.00" fill="#000000">IN</text>
<polyline fill="none" stroke="#000000" points="45.3156,-949.5 112.3156,-949.5 "/>
<text text-anchor="middle" x="78.8156" y="-934.3" font-family="Times,serif" font-size="14.00" fill="#000000">in_file</text>
<polyline fill="none" stroke="#000000" points="45.3156,-926.5 112.3156,-926.5 "/>
<text text-anchor="middle" x="78.8156" y="-911.3" font-family="Times,serif" font-size="14.00" fill="#000000">ref_file</text>
<polyline fill="none" stroke="#000000" points="112.3156,-903.5 112.3156,-972.5 "/>
<text text-anchor="middle" x="159.3156" y="-957.3" font-family="Times,serif" font-size="14.00" fill="#000000">invert_t1w</text>
<polyline fill="none" stroke="#000000" points="112.3156,-949.5 206.3156,-949.5 "/>
<text text-anchor="middle" x="159.3156" y="-934.3" font-family="Times,serif" font-size="14.00" fill="#000000">image</text>
<polyline fill="none" stroke="#000000" points="112.3156,-926.5 206.3156,-926.5 "/>
<text text-anchor="middle" x="159.3156" y="-911.3" font-family="Times,serif" font-size="14.00" fill="#000000"> </text>
<polyline fill="none" stroke="#000000" points="206.3156,-903.5 206.3156,-972.5 "/>
<text text-anchor="middle" x="241.3156" y="-951.8" font-family="Times,serif" font-size="14.00" fill="#000000">OUT</text>
<polyline fill="none" stroke="#000000" points="206.3156,-938.5 276.3156,-938.5 "/>
<text text-anchor="middle" x="241.3156" y="-917.3" font-family="Times,serif" font-size="14.00" fill="#000000">out_file</text>
</g>
<!-- syn_sdc_wfinputnode&#45;&gt;syn_sdc_wfinvert_t1w -->
<g id="edge10" class="edge">
<title>syn_sdc_wfinputnode:e&#45;&gt;syn_sdc_wfinvert_t1w:w</title>
<path fill="none" stroke="#000000" d="M408.8156,-1090.5C445.0378,-1090.5 433.1355,-1035.8438 408.8156,-1009 354.2412,-948.7618 99.3901,-1033.2382 44.8156,-973 37.4721,-964.8944 32.765,-950.8838 36.0247,-943.2794"/>
<polygon fill="#000000" stroke="#000000" points="38.0447,-946.149 44.8156,-938 34.4408,-940.148 38.0447,-946.149"/>
</g>
<!-- syn_sdc_wfinputnode&#45;&gt;syn_sdc_wfinvert_t1w -->
<g id="edge14" class="edge">
<title>syn_sdc_wfinputnode:e&#45;&gt;syn_sdc_wfinvert_t1w:w</title>
<path fill="none" stroke="#000000" d="M408.8156,-1043.5C424.149,-1043.5 419.1106,-1020.3633 408.8156,-1009 354.2412,-948.7618 99.3901,-1033.2382 44.8156,-973 30.2125,-956.8814 21.9006,-926.6719 35.1438,-917.625"/>
<polygon fill="#000000" stroke="#000000" points="36.0815,-920.9972 44.8156,-915 34.248,-914.2415 36.0815,-920.9972"/>
</g>
<!-- syn_sdc_wfanat2epi -->
<g id="node3" class="node">
<title>syn_sdc_wfanat2epi</title>
<polygon fill="none" stroke="#000000" points="32.3156,-774.5 32.3156,-866.5 363.3156,-866.5 363.3156,-774.5 32.3156,-774.5"/>
<text text-anchor="middle" x="100.8156" y="-851.3" font-family="Times,serif" font-size="14.00" fill="#000000">IN</text>
<polyline fill="none" stroke="#000000" points="32.3156,-843.5 169.3156,-843.5 "/>
<text text-anchor="middle" x="100.8156" y="-828.3" font-family="Times,serif" font-size="14.00" fill="#000000">input_image</text>
<polyline fill="none" stroke="#000000" points="32.3156,-820.5 169.3156,-820.5 "/>
<text text-anchor="middle" x="100.8156" y="-805.3" font-family="Times,serif" font-size="14.00" fill="#000000">reference_image</text>
<polyline fill="none" stroke="#000000" points="32.3156,-797.5 169.3156,-797.5 "/>
<text text-anchor="middle" x="100.8156" y="-782.3" font-family="Times,serif" font-size="14.00" fill="#000000">transforms</text>
<polyline fill="none" stroke="#000000" points="169.3156,-774.5 169.3156,-866.5 "/>
<text text-anchor="middle" x="208.8156" y="-847.8" font-family="Times,serif" font-size="14.00" fill="#000000">anat2epi</text>
<polyline fill="none" stroke="#000000" points="169.3156,-836.5 248.3156,-836.5 "/>
<text text-anchor="middle" x="208.8156" y="-817.3" font-family="Times,serif" font-size="14.00" fill="#000000">fixes</text>
<polyline fill="none" stroke="#000000" points="169.3156,-805.5 248.3156,-805.5 "/>
<text text-anchor="middle" x="208.8156" y="-786.3" font-family="Times,serif" font-size="14.00" fill="#000000"> </text>
<polyline fill="none" stroke="#000000" points="248.3156,-774.5 248.3156,-866.5 "/>
<text text-anchor="middle" x="305.8156" y="-839.8" font-family="Times,serif" font-size="14.00" fill="#000000">OUT</text>
<polyline fill="none" stroke="#000000" points="248.3156,-820.5 363.3156,-820.5 "/>
<text text-anchor="middle" x="305.8156" y="-793.8" font-family="Times,serif" font-size="14.00" fill="#000000">output_image</text>
</g>
<!-- syn_sdc_wfinputnode&#45;&gt;syn_sdc_wfanat2epi -->
<g id="edge8" class="edge">
<title>syn_sdc_wfinputnode:e&#45;&gt;syn_sdc_wfanat2epi:w</title>
<path fill="none" stroke="#000000" d="M408.8156,-1113.5C455.2601,-1113.5 428.2228,-1051.1954 408.8156,-1009 398.5424,-986.6638 383.2406,-991.2938 366.8156,-973 341.6139,-944.9307 351.0293,-922.6288 318.8156,-903 263.9254,-869.5536 74.3443,-915.1966 31.8156,-867 22.0794,-855.9662 16.2084,-809.0596 24.0634,-791.8575"/>
<polygon fill="#000000" stroke="#000000" points="26.3027,-794.5476 31.8156,-785.5 21.8638,-789.1349 26.3027,-794.5476"/>
</g>
<!-- syn_sdc_wfinputnode&#45;&gt;syn_sdc_wfanat2epi -->
<g id="edge12" class="edge">
<title>syn_sdc_wfinputnode:e&#45;&gt;syn_sdc_wfanat2epi:w</title>
<path fill="none" stroke="#000000" d="M408.8156,-1043.5C424.149,-1043.5 417.4119,-1021.697 408.8156,-1009 384.663,-973.3258 350.1791,-1002.5353 318.8156,-973 293.7759,-949.4199 313.4952,-923.417 285.8156,-903 194.0596,-835.319 106.5673,-953.0935 31.8156,-867 25.4233,-859.6378 21.307,-830.4127 25.1327,-816.2602"/>
<polygon fill="#000000" stroke="#000000" points="27.9422,-818.3614 31.8156,-808.5 22.638,-813.7935 27.9422,-818.3614"/>
</g>
<!-- syn_sdc_wftransform_list -->
<g id="node4" class="node">
<title>syn_sdc_wftransform_list</title>
<polygon fill="none" stroke="#000000" points="409.3156,-903.5 409.3156,-972.5 616.3156,-972.5 616.3156,-903.5 409.3156,-903.5"/>
<text text-anchor="middle" x="428.8156" y="-957.3" font-family="Times,serif" font-size="14.00" fill="#000000">IN</text>
<polyline fill="none" stroke="#000000" points="409.3156,-949.5 448.3156,-949.5 "/>
<text text-anchor="middle" x="428.8156" y="-934.3" font-family="Times,serif" font-size="14.00" fill="#000000">in1</text>
<polyline fill="none" stroke="#000000" points="409.3156,-926.5 448.3156,-926.5 "/>
<text text-anchor="middle" x="428.8156" y="-911.3" font-family="Times,serif" font-size="14.00" fill="#000000">in2</text>
<polyline fill="none" stroke="#000000" points="448.3156,-903.5 448.3156,-972.5 "/>
<text text-anchor="middle" x="507.3156" y="-957.3" font-family="Times,serif" font-size="14.00" fill="#000000">transform_list</text>
<polyline fill="none" stroke="#000000" points="448.3156,-949.5 566.3156,-949.5 "/>
<text text-anchor="middle" x="507.3156" y="-934.3" font-family="Times,serif" font-size="14.00" fill="#000000">utility</text>
<polyline fill="none" stroke="#000000" points="448.3156,-926.5 566.3156,-926.5 "/>
<text text-anchor="middle" x="507.3156" y="-911.3" font-family="Times,serif" font-size="14.00" fill="#000000"> </text>
<polyline fill="none" stroke="#000000" points="566.3156,-903.5 566.3156,-972.5 "/>
<text text-anchor="middle" x="591.3156" y="-951.8" font-family="Times,serif" font-size="14.00" fill="#000000">OUT</text>
<polyline fill="none" stroke="#000000" points="566.3156,-938.5 616.3156,-938.5 "/>
<text text-anchor="middle" x="591.3156" y="-917.3" font-family="Times,serif" font-size="14.00" fill="#000000">out</text>
</g>
<!-- syn_sdc_wfinputnode&#45;&gt;syn_sdc_wftransform_list -->
<g id="edge9" class="edge">
<title>syn_sdc_wfinputnode:e&#45;&gt;syn_sdc_wftransform_list:w</title>
<path fill="none" stroke="#000000" d="M408.8156,-1113.5C408.8156,-1113.5 408.8156,-985.6502 408.8156,-948.1942"/>
<polygon fill="#000000" stroke="#000000" points="412.3157,-948 408.8156,-938 405.3157,-948 412.3157,-948"/>
</g>
<!-- syn_sdc_wfinputnode&#45;&gt;syn_sdc_wftransform_list -->
<g id="edge20" class="edge">
<title>syn_sdc_wfinputnode:e&#45;&gt;syn_sdc_wftransform_list:w</title>
<path fill="none" stroke="#000000" d="M408.8156,-1020.5C408.8156,-1020.5 408.8156,-951.5216 408.8156,-925.1158"/>
<polygon fill="#000000" stroke="#000000" points="412.3157,-925 408.8156,-915 405.3157,-925 412.3157,-925"/>
</g>
<!-- syn_sdc_wfprior2epi -->
<g id="node5" class="node">
<title>syn_sdc_wfprior2epi</title>
<polygon fill="none" stroke="#000000" points="381.3156,-786 381.3156,-855 716.3156,-855 716.3156,-786 381.3156,-786"/>
<text text-anchor="middle" x="449.8156" y="-839.8" font-family="Times,serif" font-size="14.00" fill="#000000">IN</text>
<polyline fill="none" stroke="#000000" points="381.3156,-832 518.3156,-832 "/>
<text text-anchor="middle" x="449.8156" y="-816.8" font-family="Times,serif" font-size="14.00" fill="#000000">reference_image</text>
<polyline fill="none" stroke="#000000" points="381.3156,-809 518.3156,-809 "/>
<text text-anchor="middle" x="449.8156" y="-793.8" font-family="Times,serif" font-size="14.00" fill="#000000">transforms</text>
<polyline fill="none" stroke="#000000" points="518.3156,-786 518.3156,-855 "/>
<text text-anchor="middle" x="559.8156" y="-839.8" font-family="Times,serif" font-size="14.00" fill="#000000">prior2epi</text>
<polyline fill="none" stroke="#000000" points="518.3156,-832 601.3156,-832 "/>
<text text-anchor="middle" x="559.8156" y="-816.8" font-family="Times,serif" font-size="14.00" fill="#000000">fixes</text>
<polyline fill="none" stroke="#000000" points="518.3156,-809 601.3156,-809 "/>
<text text-anchor="middle" x="559.8156" y="-793.8" font-family="Times,serif" font-size="14.00" fill="#000000"> </text>
<polyline fill="none" stroke="#000000" points="601.3156,-786 601.3156,-855 "/>
<text text-anchor="middle" x="658.8156" y="-834.3" font-family="Times,serif" font-size="14.00" fill="#000000">OUT</text>
<polyline fill="none" stroke="#000000" points="601.3156,-821 716.3156,-821 "/>
<text text-anchor="middle" x="658.8156" y="-799.8" font-family="Times,serif" font-size="14.00" fill="#000000">output_image</text>
</g>
<!-- syn_sdc_wfinputnode&#45;&gt;syn_sdc_wfprior2epi -->
<g id="edge15" class="edge">
<title>syn_sdc_wfinputnode:e&#45;&gt;syn_sdc_wfprior2epi:w</title>
<path fill="none" stroke="#000000" d="M408.8156,-1043.5C424.149,-1043.5 410.4887,-1024.2418 408.8156,-1009 407.0272,-992.7076 403.9695,-989.084 400.8156,-973 390.6222,-921.0167 385.2759,-908.2852 380.8156,-855.5 379.997,-845.8123 374.1253,-834.5624 373.6343,-827.4872"/>
<polygon fill="#000000" stroke="#000000" points="376.0891,-829.9821 380.8156,-820.5 371.2076,-824.965 376.0891,-829.9821"/>
</g>
<!-- syn_sdc_wfsyn -->
<g id="node7" class="node">
<title>syn_sdc_wfsyn</title>
<polygon fill="none" stroke="#000000" points="449.8156,-493.5 449.8156,-631.5 831.8156,-631.5 831.8156,-493.5 449.8156,-493.5"/>
<text text-anchor="middle" x="536.3156" y="-616.3" font-family="Times,serif" font-size="14.00" fill="#000000">IN</text>
<polyline fill="none" stroke="#000000" points="449.8156,-608.5 622.8156,-608.5 "/>
<text text-anchor="middle" x="536.3156" y="-593.3" font-family="Times,serif" font-size="14.00" fill="#000000">fixed_image</text>
<polyline fill="none" stroke="#000000" points="449.8156,-585.5 622.8156,-585.5 "/>
<text text-anchor="middle" x="536.3156" y="-570.3" font-family="Times,serif" font-size="14.00" fill="#000000">fixed_image_masks</text>
<polyline fill="none" stroke="#000000" points="449.8156,-562.5 622.8156,-562.5 "/>
<text text-anchor="middle" x="536.3156" y="-547.3" font-family="Times,serif" font-size="14.00" fill="#000000">moving_image</text>
<polyline fill="none" stroke="#000000" points="449.8156,-539.5 622.8156,-539.5 "/>
<text text-anchor="middle" x="536.3156" y="-524.3" font-family="Times,serif" font-size="14.00" fill="#000000">moving_image_masks</text>
<polyline fill="none" stroke="#000000" points="449.8156,-516.5 622.8156,-516.5 "/>
<text text-anchor="middle" x="536.3156" y="-501.3" font-family="Times,serif" font-size="14.00" fill="#000000">restrict_deformation</text>
<polyline fill="none" stroke="#000000" points="622.8156,-493.5 622.8156,-631.5 "/>
<text text-anchor="middle" x="647.8156" y="-604.8" font-family="Times,serif" font-size="14.00" fill="#000000">syn</text>
<polyline fill="none" stroke="#000000" points="622.8156,-585.5 672.8156,-585.5 "/>
<text text-anchor="middle" x="647.8156" y="-558.8" font-family="Times,serif" font-size="14.00" fill="#000000">fixes</text>
<polyline fill="none" stroke="#000000" points="622.8156,-539.5 672.8156,-539.5 "/>
<text text-anchor="middle" x="647.8156" y="-512.8" font-family="Times,serif" font-size="14.00" fill="#000000"> </text>
<polyline fill="none" stroke="#000000" points="672.8156,-493.5 672.8156,-631.5 "/>
<text text-anchor="middle" x="752.3156" y="-593.3" font-family="Times,serif" font-size="14.00" fill="#000000">OUT</text>
<polyline fill="none" stroke="#000000" points="672.8156,-562.5 831.8156,-562.5 "/>
<text text-anchor="middle" x="752.3156" y="-524.3" font-family="Times,serif" font-size="14.00" fill="#000000">forward_transforms</text>
</g>
<!-- syn_sdc_wfinputnode&#45;&gt;syn_sdc_wfsyn -->
<g id="edge11" class="edge">
<title>syn_sdc_wfinputnode:e&#45;&gt;syn_sdc_wfsyn:w</title>
<path fill="none" stroke="#000000" d="M408.8156,-1066.5C489.3209,-1066.5 709.7831,-1036.8507 758.8156,-973 800.0964,-919.2438 803.8835,-718.6233 758.8156,-668 666.8802,-564.7318 541.7511,-735.2682 449.8156,-632 421.4664,-600.1562 406.0274,-538.717 439.6119,-528.8514"/>
<polygon fill="#000000" stroke="#000000" points="440.3617,-532.2827 449.8156,-527.5 439.4426,-525.3433 440.3617,-532.2827"/>
</g>
<!-- syn_sdc_wfinputnode&#45;&gt;syn_sdc_wfsyn -->
<g id="edge16" class="edge">
<title>syn_sdc_wfinputnode:e&#45;&gt;syn_sdc_wfsyn:w</title>
<path fill="none" stroke="#000000" d="M408.8156,-1043.5C570.0707,-1043.5 666.2814,-1016.8629 725.8156,-867 729.741,-857.1188 724.8441,-669.1504 723.8156,-668 641.9525,-576.4344 530.8114,-724.3337 449.8156,-632 428.4484,-607.6417 416.324,-561.6468 439.9317,-552.2156"/>
<polygon fill="#000000" stroke="#000000" points="440.5616,-555.6587 449.8156,-550.5 439.3643,-548.7619 440.5616,-555.6587"/>
</g>
<!-- syn_sdc_wfinputnode&#45;&gt;syn_sdc_wfsyn -->
<g id="edge17" class="edge">
<title>syn_sdc_wfinputnode:e&#45;&gt;syn_sdc_wfsyn:w</title>
<path fill="none" stroke="#000000" d="M408.8156,-1043.5C493.8272,-1043.5 724.9438,-1033.3518 784.8156,-973 832.55,-924.8829 834.3966,-714.212 784.8156,-668 730.0443,-616.9503 499.8506,-687.6999 449.8156,-632 414.3881,-592.5613 395.6514,-515.322 439.784,-505.5292"/>
<polygon fill="#000000" stroke="#000000" points="440.2251,-509.0024 449.8156,-504.5 439.5106,-502.039 440.2251,-509.0024"/>
</g>
<!-- syn_sdc_wfunwarp_ref -->
<g id="node8" class="node">
<title>syn_sdc_wfunwarp_ref</title>
<polygon fill="none" stroke="#000000" points="859.8156,-364.5 859.8156,-456.5 1209.8156,-456.5 1209.8156,-364.5 859.8156,-364.5"/>
<text text-anchor="middle" x="928.3156" y="-441.3" font-family="Times,serif" font-size="14.00" fill="#000000">IN</text>
<polyline fill="none" stroke="#000000" points="859.8156,-433.5 996.8156,-433.5 "/>
<text text-anchor="middle" x="928.3156" y="-418.3" font-family="Times,serif" font-size="14.00" fill="#000000">input_image</text>
<polyline fill="none" stroke="#000000" points="859.8156,-410.5 996.8156,-410.5 "/>
<text text-anchor="middle" x="928.3156" y="-395.3" font-family="Times,serif" font-size="14.00" fill="#000000">reference_image</text>
<polyline fill="none" stroke="#000000" points="859.8156,-387.5 996.8156,-387.5 "/>
<text text-anchor="middle" x="928.3156" y="-372.3" font-family="Times,serif" font-size="14.00" fill="#000000">transforms</text>
<polyline fill="none" stroke="#000000" points="996.8156,-364.5 996.8156,-456.5 "/>
<text text-anchor="middle" x="1045.8156" y="-437.8" font-family="Times,serif" font-size="14.00" fill="#000000">unwarp_ref</text>
<polyline fill="none" stroke="#000000" points="996.8156,-426.5 1094.8156,-426.5 "/>
<text text-anchor="middle" x="1045.8156" y="-407.3" font-family="Times,serif" font-size="14.00" fill="#000000">fixes</text>
<polyline fill="none" stroke="#000000" points="996.8156,-395.5 1094.8156,-395.5 "/>
<text text-anchor="middle" x="1045.8156" y="-376.3" font-family="Times,serif" font-size="14.00" fill="#000000"> </text>
<polyline fill="none" stroke="#000000" points="1094.8156,-364.5 1094.8156,-456.5 "/>
<text text-anchor="middle" x="1152.3156" y="-429.8" font-family="Times,serif" font-size="14.00" fill="#000000">OUT</text>
<polyline fill="none" stroke="#000000" points="1094.8156,-410.5 1209.8156,-410.5 "/>
<text text-anchor="middle" x="1152.3156" y="-383.8" font-family="Times,serif" font-size="14.00" fill="#000000">output_image</text>
</g>
<!-- syn_sdc_wfinputnode&#45;&gt;syn_sdc_wfunwarp_ref -->
<g id="edge18" class="edge">
<title>syn_sdc_wfinputnode:e&#45;&gt;syn_sdc_wfunwarp_ref:w</title>
<path fill="none" stroke="#000000" d="M408.8156,-1043.5C499.9501,-1043.5 744.4387,-1033.2502 812.8156,-973 866.0287,-926.1114 859.8156,-891.4237 859.8156,-820.5 859.8156,-820.5 859.8156,-820.5 859.8156,-703 859.8156,-689.1515 847.5089,-478.3951 855.7054,-431.6405"/>
<polygon fill="#000000" stroke="#000000" points="858.9065,-433.0558 859.8156,-422.5 852.5223,-430.1849 858.9065,-433.0558"/>
</g>
<!-- syn_sdc_wfinputnode&#45;&gt;syn_sdc_wfunwarp_ref -->
<g id="edge19" class="edge">
<title>syn_sdc_wfinputnode:e&#45;&gt;syn_sdc_wfunwarp_ref:w</title>
<path fill="none" stroke="#000000" d="M408.8156,-1043.5C507.6211,-1043.5 772.6669,-1037.1498 847.8156,-973 902.0656,-926.6902 897.8156,-891.8278 897.8156,-820.5 897.8156,-820.5 897.8156,-820.5 897.8156,-703 897.8156,-608.7191 884.7209,-585.7529 867.8156,-493 864.7452,-476.154 847.4701,-424.298 852.4041,-405.4442"/>
<polygon fill="#000000" stroke="#000000" points="854.9113,-407.8914 859.8156,-398.5 850.1252,-402.7832 854.9113,-407.8914"/>
</g>
<!-- syn_sdc_wfextract_field -->
<g id="node10" class="node">
<title>syn_sdc_wfextract_field</title>
<polygon fill="none" stroke="#000000" points="602.3156,-376 602.3156,-445 841.3156,-445 841.3156,-376 602.3156,-376"/>
<text text-anchor="middle" x="643.3156" y="-429.8" font-family="Times,serif" font-size="14.00" fill="#000000">IN</text>
<polyline fill="none" stroke="#000000" points="602.3156,-422 684.3156,-422 "/>
<text text-anchor="middle" x="643.3156" y="-406.8" font-family="Times,serif" font-size="14.00" fill="#000000">epi_meta</text>
<polyline fill="none" stroke="#000000" points="602.3156,-399 684.3156,-399 "/>
<text text-anchor="middle" x="643.3156" y="-383.8" font-family="Times,serif" font-size="14.00" fill="#000000">in_file</text>
<polyline fill="none" stroke="#000000" points="684.3156,-376 684.3156,-445 "/>
<text text-anchor="middle" x="737.8156" y="-429.8" font-family="Times,serif" font-size="14.00" fill="#000000">extract_field</text>
<polyline fill="none" stroke="#000000" points="684.3156,-422 791.3156,-422 "/>
<text text-anchor="middle" x="737.8156" y="-406.8" font-family="Times,serif" font-size="14.00" fill="#000000">utility</text>
<polyline fill="none" stroke="#000000" points="684.3156,-399 791.3156,-399 "/>
<text text-anchor="middle" x="737.8156" y="-383.8" font-family="Times,serif" font-size="14.00" fill="#000000"> </text>
<polyline fill="none" stroke="#000000" points="791.3156,-376 791.3156,-445 "/>
<text text-anchor="middle" x="816.3156" y="-424.3" font-family="Times,serif" font-size="14.00" fill="#000000">OUT</text>
<polyline fill="none" stroke="#000000" points="791.3156,-411 841.3156,-411 "/>
<text text-anchor="middle" x="816.3156" y="-389.8" font-family="Times,serif" font-size="14.00" fill="#000000">out</text>
</g>
<!-- syn_sdc_wfinputnode&#45;&gt;syn_sdc_wfextract_field -->
<g id="edge13" class="edge">
<title>syn_sdc_wfinputnode:e&#45;&gt;syn_sdc_wfextract_field:w</title>
<path fill="none" stroke="#000000" d="M408.8156,-1043.5C424.149,-1043.5 419.1225,-1020.3525 408.8156,-1009 352.9884,-947.5093 98.8659,-1028.2046 36.8156,-973 -14.9944,-926.9059 3.8156,-889.8465 3.8156,-820.5 3.8156,-820.5 3.8156,-820.5 3.8156,-703 3.8156,-558.3888 433.8909,-416.9959 591.3987,-410.7172"/>
<polygon fill="#000000" stroke="#000000" points="591.8908,-414.2078 601.8156,-410.5 591.7448,-407.2093 591.8908,-414.2078"/>
</g>
<!-- syn_sdc_wfinvert_t1w&#45;&gt;syn_sdc_wfanat2epi -->
<g id="edge21" class="edge">
<title>syn_sdc_wfinvert_t1w:e&#45;&gt;syn_sdc_wfanat2epi:w</title>
<path fill="none" stroke="#000000" d="M276.8156,-921C284.8156,-921 282.0451,-909.0541 276.8156,-903 204.8717,-819.7122 103.7596,-950.2878 31.8156,-867 24.768,-858.8412 20.0505,-845.0994 23.2008,-837.6593"/>
<polygon fill="#000000" stroke="#000000" points="25.0348,-840.6407 31.8156,-832.5 21.4382,-834.6353 25.0348,-840.6407"/>
</g>
<!-- syn_sdc_wfanat2epi&#45;&gt;syn_sdc_wfsyn -->
<g id="edge1" class="edge">
<title>syn_sdc_wfanat2epi:e&#45;&gt;syn_sdc_wfsyn:w</title>
<path fill="none" stroke="#000000" d="M363.8156,-797.5C374.9998,-797.5 368.5784,-784.3505 372.8156,-774 403.8465,-698.1987 367.6198,-605.8279 439.4686,-598.0298"/>
<polygon fill="#000000" stroke="#000000" points="440.0077,-601.5068 449.8156,-597.5 439.6497,-594.516 440.0077,-601.5068"/>
</g>
<!-- syn_sdc_wftransform_list&#45;&gt;syn_sdc_wfprior2epi -->
<g id="edge25" class="edge">
<title>syn_sdc_wftransform_list:e&#45;&gt;syn_sdc_wfprior2epi:w</title>
<path fill="none" stroke="#000000" d="M616.8156,-921C624.8156,-921 621.8838,-909.1898 616.8156,-903 549.0342,-820.2169 448.597,-938.2831 380.8156,-855.5 374.6916,-848.0206 370.5036,-819.1353 374.2299,-805.1601"/>
<polygon fill="#000000" stroke="#000000" points="376.9503,-807.3646 380.8156,-797.5 371.6423,-802.8011 376.9503,-807.3646"/>
</g>
<!-- syn_sdc_wfatlas_msk -->
<g id="node6" class="node">
<title>syn_sdc_wfatlas_msk</title>
<polygon fill="none" stroke="#000000" points="479.3156,-668.5 479.3156,-737.5 714.3156,-737.5 714.3156,-668.5 479.3156,-668.5"/>
<text text-anchor="middle" x="509.3156" y="-716.8" font-family="Times,serif" font-size="14.00" fill="#000000">IN</text>
<polyline fill="none" stroke="#000000" points="479.3156,-703.5 539.3156,-703.5 "/>
<text text-anchor="middle" x="509.3156" y="-682.3" font-family="Times,serif" font-size="14.00" fill="#000000">in_file</text>
<polyline fill="none" stroke="#000000" points="539.3156,-668.5 539.3156,-737.5 "/>
<text text-anchor="middle" x="583.8156" y="-722.3" font-family="Times,serif" font-size="14.00" fill="#000000">atlas_msk</text>
<polyline fill="none" stroke="#000000" points="539.3156,-714.5 628.3156,-714.5 "/>
<text text-anchor="middle" x="583.8156" y="-699.3" font-family="Times,serif" font-size="14.00" fill="#000000">nibabel</text>
<polyline fill="none" stroke="#000000" points="539.3156,-691.5 628.3156,-691.5 "/>
<text text-anchor="middle" x="583.8156" y="-676.3" font-family="Times,serif" font-size="14.00" fill="#000000"> </text>
<polyline fill="none" stroke="#000000" points="628.3156,-668.5 628.3156,-737.5 "/>
<text text-anchor="middle" x="671.3156" y="-716.8" font-family="Times,serif" font-size="14.00" fill="#000000">OUT</text>
<polyline fill="none" stroke="#000000" points="628.3156,-703.5 714.3156,-703.5 "/>
<text text-anchor="middle" x="671.3156" y="-682.3" font-family="Times,serif" font-size="14.00" fill="#000000">out_mask</text>
</g>
<!-- syn_sdc_wfprior2epi&#45;&gt;syn_sdc_wfatlas_msk -->
<g id="edge22" class="edge">
<title>syn_sdc_wfprior2epi:e&#45;&gt;syn_sdc_wfatlas_msk:w</title>
<path fill="none" stroke="#000000" d="M716.8156,-803.5C724.8156,-803.5 721.8888,-791.6857 716.8156,-785.5 648.4143,-702.0981 547.217,-821.4019 478.8156,-738 466.7933,-723.3412 458.9433,-697.7405 469.2677,-689.0136"/>
<polygon fill="#000000" stroke="#000000" points="470.3329,-692.3477 478.8156,-686 468.2259,-685.6723 470.3329,-692.3477"/>
</g>
<!-- syn_sdc_wfatlas_msk&#45;&gt;syn_sdc_wfsyn -->
<g id="edge2" class="edge">
<title>syn_sdc_wfatlas_msk:e&#45;&gt;syn_sdc_wfsyn:w</title>
<path fill="none" stroke="#000000" d="M714.8156,-686C722.8156,-686 720.078,-674.0256 714.8156,-668 636.6304,-578.4753 528.0008,-721.5247 449.8156,-632 435.7633,-615.9096 427.3467,-586.5398 439.8914,-577.336"/>
<polygon fill="#000000" stroke="#000000" points="441.1622,-580.613 449.8156,-574.5 439.2388,-573.8824 441.1622,-580.613"/>
</g>
<!-- syn_sdc_wfsyn&#45;&gt;syn_sdc_wfunwarp_ref -->
<g id="edge24" class="edge">
<title>syn_sdc_wfsyn:e&#45;&gt;syn_sdc_wfunwarp_ref:w</title>
<path fill="none" stroke="#000000" d="M831.8156,-527.5C839.9284,-527.5 849.3104,-464.972 850.8156,-457 852.1362,-450.0059 851.3259,-404.1964 855.2524,-384.4895"/>
<polygon fill="#000000" stroke="#000000" points="858.4101,-386.0012 859.8156,-375.5 852.1683,-382.8327 858.4101,-386.0012"/>
</g>
<!-- syn_sdc_wfsyn&#45;&gt;syn_sdc_wfextract_field -->
<g id="edge23" class="edge">
<title>syn_sdc_wfsyn:e&#45;&gt;syn_sdc_wfextract_field:w</title>
<path fill="none" stroke="#000000" d="M831.8156,-527.5C847.149,-527.5 841.4996,-504.8883 831.8156,-493 765.8933,-412.0722 667.7379,-526.4278 601.8156,-445.5 588.2063,-428.7929 579.3368,-399.4881 591.8508,-390.3221"/>
<polygon fill="#000000" stroke="#000000" points="593.1478,-393.5925 601.8156,-387.5 591.2403,-386.8574 593.1478,-393.5925"/>
</g>
<!-- syn_sdc_wfepi_mask -->
<g id="node9" class="node">
<title>syn_sdc_wfepi_mask</title>
<polygon fill="none" stroke="#000000" points="957.8156,-258.5 957.8156,-327.5 1171.8156,-327.5 1171.8156,-258.5 957.8156,-258.5"/>
<text text-anchor="middle" x="987.8156" y="-306.8" font-family="Times,serif" font-size="14.00" fill="#000000">IN</text>
<polyline fill="none" stroke="#000000" points="957.8156,-293.5 1017.8156,-293.5 "/>
<text text-anchor="middle" x="987.8156" y="-272.3" font-family="Times,serif" font-size="14.00" fill="#000000">in_file</text>
<polyline fill="none" stroke="#000000" points="1017.8156,-258.5 1017.8156,-327.5 "/>
<text text-anchor="middle" x="1059.8156" y="-312.3" font-family="Times,serif" font-size="14.00" fill="#000000">epi_mask</text>
<polyline fill="none" stroke="#000000" points="1017.8156,-304.5 1101.8156,-304.5 "/>
<text text-anchor="middle" x="1059.8156" y="-289.3" font-family="Times,serif" font-size="14.00" fill="#000000">epi</text>
<polyline fill="none" stroke="#000000" points="1017.8156,-281.5 1101.8156,-281.5 "/>
<text text-anchor="middle" x="1059.8156" y="-266.3" font-family="Times,serif" font-size="14.00" fill="#000000"> </text>
<polyline fill="none" stroke="#000000" points="1101.8156,-258.5 1101.8156,-327.5 "/>
<text text-anchor="middle" x="1136.8156" y="-306.8" font-family="Times,serif" font-size="14.00" fill="#000000">OUT</text>
<polyline fill="none" stroke="#000000" points="1101.8156,-293.5 1171.8156,-293.5 "/>
<text text-anchor="middle" x="1136.8156" y="-272.3" font-family="Times,serif" font-size="14.00" fill="#000000">out_file</text>
</g>
<!-- syn_sdc_wfunwarp_ref&#45;&gt;syn_sdc_wfepi_mask -->
<g id="edge26" class="edge">
<title>syn_sdc_wfunwarp_ref:e&#45;&gt;syn_sdc_wfepi_mask:w</title>
<path fill="none" stroke="#000000" d="M1209.8156,-387.5C1220.2601,-387.5 1216.6588,-371.8903 1209.8156,-364 1135.688,-278.5301 1031.9432,-413.4699 957.8156,-328 945.3941,-313.6779 937.7999,-287.8615 948.2291,-279.0462"/>
<polygon fill="#000000" stroke="#000000" points="949.3452,-282.3641 957.8156,-276 947.2252,-275.6928 949.3452,-282.3641"/>
</g>
<!-- syn_sdc_wfoutputnode -->
<g id="node12" class="node">
<title>syn_sdc_wfoutputnode</title>
<polygon fill="none" stroke="#000000" points="1157.8156,-.5 1157.8156,-115.5 1403.8156,-115.5 1403.8156,-.5 1157.8156,-.5"/>
<text text-anchor="middle" x="1206.8156" y="-100.3" font-family="Times,serif" font-size="14.00" fill="#000000">IN</text>
<polyline fill="none" stroke="#000000" points="1157.8156,-92.5 1255.8156,-92.5 "/>
<text text-anchor="middle" x="1206.8156" y="-77.3" font-family="Times,serif" font-size="14.00" fill="#000000">fmap</text>
<polyline fill="none" stroke="#000000" points="1157.8156,-69.5 1255.8156,-69.5 "/>
<text text-anchor="middle" x="1206.8156" y="-54.3" font-family="Times,serif" font-size="14.00" fill="#000000">fmap_coeff</text>
<polyline fill="none" stroke="#000000" points="1157.8156,-46.5 1255.8156,-46.5 "/>
<text text-anchor="middle" x="1206.8156" y="-31.3" font-family="Times,serif" font-size="14.00" fill="#000000">fmap_mask</text>
<polyline fill="none" stroke="#000000" points="1157.8156,-23.5 1255.8156,-23.5 "/>
<text text-anchor="middle" x="1206.8156" y="-8.3" font-family="Times,serif" font-size="14.00" fill="#000000">fmap_ref</text>
<polyline fill="none" stroke="#000000" points="1255.8156,-.5 1255.8156,-115.5 "/>
<text text-anchor="middle" x="1304.8156" y="-92.8" font-family="Times,serif" font-size="14.00" fill="#000000">outputnode</text>
<polyline fill="none" stroke="#000000" points="1255.8156,-77.5 1353.8156,-77.5 "/>
<text text-anchor="middle" x="1304.8156" y="-54.8" font-family="Times,serif" font-size="14.00" fill="#000000">utility</text>
<polyline fill="none" stroke="#000000" points="1255.8156,-39.5 1353.8156,-39.5 "/>
<text text-anchor="middle" x="1304.8156" y="-16.3" font-family="Times,serif" font-size="14.00" fill="#000000"> </text>
<polyline fill="none" stroke="#000000" points="1353.8156,-.5 1353.8156,-115.5 "/>
<text text-anchor="middle" x="1378.8156" y="-54.3" font-family="Times,serif" font-size="14.00" fill="#000000">OUT</text>
</g>
<!-- syn_sdc_wfunwarp_ref&#45;&gt;syn_sdc_wfoutputnode -->
<g id="edge27" class="edge">
<title>syn_sdc_wfunwarp_ref:e&#45;&gt;syn_sdc_wfoutputnode:w</title>
<path fill="none" stroke="#000000" d="M1209.8156,-387.5C1220.4171,-387.5 1275.0674,-364.8211 1186.8156,-152 1178.9457,-133.0214 1164.6491,-135.3759 1157.8156,-116 1143.7633,-76.1554 1116.7812,-22.2586 1147.5478,-13.2894"/>
<polygon fill="#000000" stroke="#000000" points="1148.3297,-16.7188 1157.8156,-12 1147.4574,-9.7733 1148.3297,-16.7188"/>
</g>
<!-- syn_sdc_wfbs_filter -->
<g id="node11" class="node">
<title>syn_sdc_wfbs_filter</title>
<polygon fill="none" stroke="#000000" points="853.8156,-152.5 853.8156,-221.5 1143.8156,-221.5 1143.8156,-152.5 853.8156,-152.5"/>
<text text-anchor="middle" x="891.8156" y="-206.3" font-family="Times,serif" font-size="14.00" fill="#000000">IN</text>
<polyline fill="none" stroke="#000000" points="853.8156,-198.5 929.8156,-198.5 "/>
<text text-anchor="middle" x="891.8156" y="-183.3" font-family="Times,serif" font-size="14.00" fill="#000000">in_data</text>
<polyline fill="none" stroke="#000000" points="853.8156,-175.5 929.8156,-175.5 "/>
<text text-anchor="middle" x="891.8156" y="-160.3" font-family="Times,serif" font-size="14.00" fill="#000000">in_mask</text>
<polyline fill="none" stroke="#000000" points="929.8156,-152.5 929.8156,-221.5 "/>
<text text-anchor="middle" x="967.8156" y="-206.3" font-family="Times,serif" font-size="14.00" fill="#000000">bs_filter</text>
<polyline fill="none" stroke="#000000" points="929.8156,-198.5 1005.8156,-198.5 "/>
<text text-anchor="middle" x="967.8156" y="-183.3" font-family="Times,serif" font-size="14.00" fill="#000000">bspline</text>
<polyline fill="none" stroke="#000000" points="929.8156,-175.5 1005.8156,-175.5 "/>
<text text-anchor="middle" x="967.8156" y="-160.3" font-family="Times,serif" font-size="14.00" fill="#000000"> </text>
<polyline fill="none" stroke="#000000" points="1005.8156,-152.5 1005.8156,-221.5 "/>
<text text-anchor="middle" x="1074.8156" y="-206.3" font-family="Times,serif" font-size="14.00" fill="#000000">OUT</text>
<polyline fill="none" stroke="#000000" points="1005.8156,-198.5 1143.8156,-198.5 "/>
<text text-anchor="middle" x="1074.8156" y="-183.3" font-family="Times,serif" font-size="14.00" fill="#000000">out_coeff</text>
<polyline fill="none" stroke="#000000" points="1005.8156,-175.5 1143.8156,-175.5 "/>
<text text-anchor="middle" x="1074.8156" y="-160.3" font-family="Times,serif" font-size="14.00" fill="#000000">out_extrapolated</text>
</g>
<!-- syn_sdc_wfepi_mask&#45;&gt;syn_sdc_wfbs_filter -->
<g id="edge5" class="edge">
<title>syn_sdc_wfepi_mask:e&#45;&gt;syn_sdc_wfbs_filter:w</title>
<path fill="none" stroke="#000000" d="M1171.8156,-276C1179.8156,-276 1177.1448,-263.9665 1171.8156,-258 1077.0651,-151.9177 948.5662,-328.0823 853.8156,-222 839.3269,-205.7785 830.9363,-175.6398 844.1521,-166.6174"/>
<polygon fill="#000000" stroke="#000000" points="845.0785,-169.9927 853.8156,-164 843.2484,-163.2362 845.0785,-169.9927"/>
</g>
<!-- syn_sdc_wfepi_mask&#45;&gt;syn_sdc_wfoutputnode -->
<g id="edge6" class="edge">
<title>syn_sdc_wfepi_mask:e&#45;&gt;syn_sdc_wfoutputnode:w</title>
<path fill="none" stroke="#000000" d="M1171.8156,-276C1221.2704,-276 1122.0539,-71.1853 1148.2787,-39.183"/>
<polygon fill="#000000" stroke="#000000" points="1150.0637,-42.222 1157.8156,-35 1147.2519,-35.8116 1150.0637,-42.222"/>
</g>
<!-- syn_sdc_wfextract_field&#45;&gt;syn_sdc_wfbs_filter -->
<g id="edge7" class="edge">
<title>syn_sdc_wfextract_field:e&#45;&gt;syn_sdc_wfbs_filter:w</title>
<path fill="none" stroke="#000000" d="M841.8156,-393.5C862.0606,-393.5 838.1176,-233.2739 847.8334,-195.095"/>
<polygon fill="#000000" stroke="#000000" points="850.6872,-197.1224 853.8156,-187 845.0576,-192.9622 850.6872,-197.1224"/>
</g>
<!-- syn_sdc_wfbs_filter&#45;&gt;syn_sdc_wfoutputnode -->
<g id="edge3" class="edge">
<title>syn_sdc_wfbs_filter:e&#45;&gt;syn_sdc_wfoutputnode:w</title>
<path fill="none" stroke="#000000" d="M1143.8156,-187C1168.821,-187 1139.3015,-89.9902 1149.8237,-64.2219"/>
<polygon fill="#000000" stroke="#000000" points="1152.0751,-66.9049 1157.8156,-58 1147.7749,-61.3814 1152.0751,-66.9049"/>
</g>
<!-- syn_sdc_wfbs_filter&#45;&gt;syn_sdc_wfoutputnode -->
<g id="edge4" class="edge">
<title>syn_sdc_wfbs_filter:e&#45;&gt;syn_sdc_wfoutputnode:w</title>
<path fill="none" stroke="#000000" d="M1143.8156,-164C1176.5494,-164 1134.0758,-100.4531 1148.0077,-84.5664"/>
<polygon fill="#000000" stroke="#000000" points="1149.6137,-87.7067 1157.8156,-81 1147.2216,-81.1281 1149.6137,-87.7067"/>
</g>
</g>
</svg>
