<?xml version="1.0" encoding="UTF-8" standalone="no"?>
<!DOCTYPE svg PUBLIC "-//W3C//DTD SVG 1.1//EN"
 "http://www.w3.org/Graphics/SVG/1.1/DTD/svg11.dtd">
<!-- Generated by graphviz version 2.40.1 (20161225.0304)
 -->
<!-- Title: structs Pages: 1 -->
<svg width="1509pt" height="875pt"
 viewBox="0.00 0.00 1508.68 875.00" xmlns="http://www.w3.org/2000/svg" xmlns:xlink="http://www.w3.org/1999/xlink">
<g id="graph0" class="graph" transform="scale(1 1) rotate(0) translate(4 871)">
<title>structs</title>
<polygon fill="#ffffff" stroke="transparent" points="-4,4 -4,-871 1504.6778,-871 1504.6778,4 -4,4"/>
<!-- syn_sdc_wfinputnode -->
<g id="node1" class="node">
<title>syn_sdc_wfinputnode</title>
<polygon fill="none" stroke="#000000" points="445.6778,-728.5 445.6778,-866.5 691.6778,-866.5 691.6778,-728.5 445.6778,-728.5"/>
<text text-anchor="middle" x="463.1778" y="-793.8" font-family="Times,serif" font-size="14.00" fill="#000000">IN</text>
<polyline fill="none" stroke="#000000" points="480.6778,-728.5 480.6778,-866.5 "/>
<text text-anchor="middle" x="525.1778" y="-839.8" font-family="Times,serif" font-size="14.00" fill="#000000">inputnode</text>
<polyline fill="none" stroke="#000000" points="480.6778,-820.5 569.6778,-820.5 "/>
<text text-anchor="middle" x="525.1778" y="-793.8" font-family="Times,serif" font-size="14.00" fill="#000000">utility</text>
<polyline fill="none" stroke="#000000" points="480.6778,-774.5 569.6778,-774.5 "/>
<text text-anchor="middle" x="525.1778" y="-747.8" font-family="Times,serif" font-size="14.00" fill="#000000"> </text>
<polyline fill="none" stroke="#000000" points="569.6778,-728.5 569.6778,-866.5 "/>
<text text-anchor="middle" x="630.6778" y="-851.3" font-family="Times,serif" font-size="14.00" fill="#000000">OUT</text>
<polyline fill="none" stroke="#000000" points="569.6778,-843.5 691.6778,-843.5 "/>
<text text-anchor="middle" x="630.6778" y="-828.3" font-family="Times,serif" font-size="14.00" fill="#000000">anat2bold_xfm</text>
<polyline fill="none" stroke="#000000" points="569.6778,-820.5 691.6778,-820.5 "/>
<text text-anchor="middle" x="630.6778" y="-805.3" font-family="Times,serif" font-size="14.00" fill="#000000">anat_brain</text>
<polyline fill="none" stroke="#000000" points="569.6778,-797.5 691.6778,-797.5 "/>
<text text-anchor="middle" x="630.6778" y="-782.3" font-family="Times,serif" font-size="14.00" fill="#000000">epi_mask</text>
<polyline fill="none" stroke="#000000" points="569.6778,-774.5 691.6778,-774.5 "/>
<text text-anchor="middle" x="630.6778" y="-759.3" font-family="Times,serif" font-size="14.00" fill="#000000">epi_ref</text>
<polyline fill="none" stroke="#000000" points="569.6778,-751.5 691.6778,-751.5 "/>
<text text-anchor="middle" x="630.6778" y="-736.3" font-family="Times,serif" font-size="14.00" fill="#000000">std2anat_xfm</text>
</g>
<!-- syn_sdc_wfinvert_t1w -->
<g id="node2" class="node">
<title>syn_sdc_wfinvert_t1w</title>
<polygon fill="none" stroke="#000000" points="168.1778,-622.5 168.1778,-691.5 399.1778,-691.5 399.1778,-622.5 168.1778,-622.5"/>
<text text-anchor="middle" x="201.6778" y="-676.3" font-family="Times,serif" font-size="14.00" fill="#000000">IN</text>
<polyline fill="none" stroke="#000000" points="168.1778,-668.5 235.1778,-668.5 "/>
<text text-anchor="middle" x="201.6778" y="-653.3" font-family="Times,serif" font-size="14.00" fill="#000000">in_file</text>
<polyline fill="none" stroke="#000000" points="168.1778,-645.5 235.1778,-645.5 "/>
<text text-anchor="middle" x="201.6778" y="-630.3" font-family="Times,serif" font-size="14.00" fill="#000000">ref_file</text>
<polyline fill="none" stroke="#000000" points="235.1778,-622.5 235.1778,-691.5 "/>
<text text-anchor="middle" x="282.1778" y="-676.3" font-family="Times,serif" font-size="14.00" fill="#000000">invert_t1w</text>
<polyline fill="none" stroke="#000000" points="235.1778,-668.5 329.1778,-668.5 "/>
<text text-anchor="middle" x="282.1778" y="-653.3" font-family="Times,serif" font-size="14.00" fill="#000000">image</text>
<polyline fill="none" stroke="#000000" points="235.1778,-645.5 329.1778,-645.5 "/>
<text text-anchor="middle" x="282.1778" y="-630.3" font-family="Times,serif" font-size="14.00" fill="#000000"> </text>
<polyline fill="none" stroke="#000000" points="329.1778,-622.5 329.1778,-691.5 "/>
<text text-anchor="middle" x="364.1778" y="-670.8" font-family="Times,serif" font-size="14.00" fill="#000000">OUT</text>
<polyline fill="none" stroke="#000000" points="329.1778,-657.5 399.1778,-657.5 "/>
<text text-anchor="middle" x="364.1778" y="-636.3" font-family="Times,serif" font-size="14.00" fill="#000000">out_file</text>
</g>
<!-- syn_sdc_wfinputnode&#45;&gt;syn_sdc_wfinvert_t1w -->
<g id="edge4" class="edge">
<title>syn_sdc_wfinputnode:e&#45;&gt;syn_sdc_wfinvert_t1w:w</title>
<path fill="none" stroke="#000000" d="M691.6778,-809.5C727.9,-809.5 716.3974,-754.4762 691.6778,-728 612.0237,-642.6857 247.3319,-777.3143 167.6778,-692 160.2136,-684.0054 155.5555,-669.9497 158.8549,-662.3088"/>
<polygon fill="#000000" stroke="#000000" points="160.9138,-665.1547 167.6778,-657 157.3048,-659.1568 160.9138,-665.1547"/>
</g>
<!-- syn_sdc_wfinputnode&#45;&gt;syn_sdc_wfinvert_t1w -->
<g id="edge7" class="edge">
<title>syn_sdc_wfinputnode:e&#45;&gt;syn_sdc_wfinvert_t1w:w</title>
<path fill="none" stroke="#000000" d="M691.6778,-762.5C707.0111,-762.5 702.1419,-739.2077 691.6778,-728 612.0237,-642.6857 247.3319,-777.3143 167.6778,-692 152.8347,-676.1021 144.6878,-645.7409 157.9884,-636.6411"/>
<polygon fill="#000000" stroke="#000000" points="158.9503,-640.0067 167.6778,-634 157.1093,-633.2531 158.9503,-640.0067"/>
</g>
<!-- syn_sdc_wfanat2epi -->
<g id="node3" class="node">
<title>syn_sdc_wfanat2epi</title>
<polygon fill="none" stroke="#000000" points="17.1778,-516.5 17.1778,-585.5 348.1778,-585.5 348.1778,-516.5 17.1778,-516.5"/>
<text text-anchor="middle" x="85.6778" y="-570.3" font-family="Times,serif" font-size="14.00" fill="#000000">IN</text>
<polyline fill="none" stroke="#000000" points="17.1778,-562.5 154.1778,-562.5 "/>
<text text-anchor="middle" x="85.6778" y="-547.3" font-family="Times,serif" font-size="14.00" fill="#000000">input_image</text>
<polyline fill="none" stroke="#000000" points="17.1778,-539.5 154.1778,-539.5 "/>
<text text-anchor="middle" x="85.6778" y="-524.3" font-family="Times,serif" font-size="14.00" fill="#000000">reference_image</text>
<polyline fill="none" stroke="#000000" points="154.1778,-516.5 154.1778,-585.5 "/>
<text text-anchor="middle" x="193.6778" y="-570.3" font-family="Times,serif" font-size="14.00" fill="#000000">anat2epi</text>
<polyline fill="none" stroke="#000000" points="154.1778,-562.5 233.1778,-562.5 "/>
<text text-anchor="middle" x="193.6778" y="-547.3" font-family="Times,serif" font-size="14.00" fill="#000000">fixes</text>
<polyline fill="none" stroke="#000000" points="154.1778,-539.5 233.1778,-539.5 "/>
<text text-anchor="middle" x="193.6778" y="-524.3" font-family="Times,serif" font-size="14.00" fill="#000000"> </text>
<polyline fill="none" stroke="#000000" points="233.1778,-516.5 233.1778,-585.5 "/>
<text text-anchor="middle" x="290.6778" y="-564.8" font-family="Times,serif" font-size="14.00" fill="#000000">OUT</text>
<polyline fill="none" stroke="#000000" points="233.1778,-551.5 348.1778,-551.5 "/>
<text text-anchor="middle" x="290.6778" y="-530.3" font-family="Times,serif" font-size="14.00" fill="#000000">output_image</text>
</g>
<!-- syn_sdc_wfinputnode&#45;&gt;syn_sdc_wfanat2epi -->
<g id="edge6" class="edge">
<title>syn_sdc_wfinputnode:e&#45;&gt;syn_sdc_wfanat2epi:w</title>
<path fill="none" stroke="#000000" d="M691.6778,-762.5C707.0111,-762.5 701.6976,-739.6066 691.6778,-728 620.0458,-645.0238 537.8713,-754.3004 447.6778,-692 418.3749,-671.7593 438.5252,-641.4288 408.6778,-622 335.3641,-574.2775 75.6376,-650.6226 16.6778,-586 2.0183,-569.9326 -6.2548,-539.6879 7.0018,-530.6287"/>
<polygon fill="#000000" stroke="#000000" points="7.9452,-533.9994 16.6778,-528 6.11,-527.2442 7.9452,-533.9994"/>
</g>
<!-- syn_sdc_wftransform_list -->
<g id="node4" class="node">
<title>syn_sdc_wftransform_list</title>
<polygon fill="none" stroke="#000000" points="456.1778,-622.5 456.1778,-691.5 663.1778,-691.5 663.1778,-622.5 456.1778,-622.5"/>
<text text-anchor="middle" x="475.6778" y="-676.3" font-family="Times,serif" font-size="14.00" fill="#000000">IN</text>
<polyline fill="none" stroke="#000000" points="456.1778,-668.5 495.1778,-668.5 "/>
<text text-anchor="middle" x="475.6778" y="-653.3" font-family="Times,serif" font-size="14.00" fill="#000000">in1</text>
<polyline fill="none" stroke="#000000" points="456.1778,-645.5 495.1778,-645.5 "/>
<text text-anchor="middle" x="475.6778" y="-630.3" font-family="Times,serif" font-size="14.00" fill="#000000">in2</text>
<polyline fill="none" stroke="#000000" points="495.1778,-622.5 495.1778,-691.5 "/>
<text text-anchor="middle" x="554.1778" y="-676.3" font-family="Times,serif" font-size="14.00" fill="#000000">transform_list</text>
<polyline fill="none" stroke="#000000" points="495.1778,-668.5 613.1778,-668.5 "/>
<text text-anchor="middle" x="554.1778" y="-653.3" font-family="Times,serif" font-size="14.00" fill="#000000">utility</text>
<polyline fill="none" stroke="#000000" points="495.1778,-645.5 613.1778,-645.5 "/>
<text text-anchor="middle" x="554.1778" y="-630.3" font-family="Times,serif" font-size="14.00" fill="#000000"> </text>
<polyline fill="none" stroke="#000000" points="613.1778,-622.5 613.1778,-691.5 "/>
<text text-anchor="middle" x="638.1778" y="-670.8" font-family="Times,serif" font-size="14.00" fill="#000000">OUT</text>
<polyline fill="none" stroke="#000000" points="613.1778,-657.5 663.1778,-657.5 "/>
<text text-anchor="middle" x="638.1778" y="-636.3" font-family="Times,serif" font-size="14.00" fill="#000000">out</text>
</g>
<!-- syn_sdc_wfinputnode&#45;&gt;syn_sdc_wftransform_list -->
<g id="edge3" class="edge">
<title>syn_sdc_wfinputnode:e&#45;&gt;syn_sdc_wftransform_list:w</title>
<path fill="none" stroke="#000000" d="M691.6778,-832.5C738.1223,-832.5 721.9417,-763.2305 691.6778,-728 622.5401,-647.5161 524.8155,-772.4839 455.6778,-692 448.5508,-683.7034 443.7557,-669.7704 446.9441,-662.2289"/>
<polygon fill="#000000" stroke="#000000" points="448.8959,-665.1398 455.6778,-657 445.3001,-659.1339 448.8959,-665.1398"/>
</g>
<!-- syn_sdc_wfinputnode&#45;&gt;syn_sdc_wftransform_list -->
<g id="edge13" class="edge">
<title>syn_sdc_wfinputnode:e&#45;&gt;syn_sdc_wftransform_list:w</title>
<path fill="none" stroke="#000000" d="M691.6778,-739.5C696.7889,-739.5 695.0083,-731.877 691.6778,-728 622.5401,-647.5161 524.8155,-772.4839 455.6778,-692 449.3789,-684.6673 445.2783,-655.7087 449.0593,-641.6876"/>
<polygon fill="#000000" stroke="#000000" points="451.8057,-643.8619 455.6778,-634 446.5009,-639.2948 451.8057,-643.8619"/>
</g>
<!-- syn_sdc_wfprior2epi -->
<g id="node5" class="node">
<title>syn_sdc_wfprior2epi</title>
<polygon fill="none" stroke="#000000" points="366.1778,-516.5 366.1778,-585.5 701.1778,-585.5 701.1778,-516.5 366.1778,-516.5"/>
<text text-anchor="middle" x="434.6778" y="-570.3" font-family="Times,serif" font-size="14.00" fill="#000000">IN</text>
<polyline fill="none" stroke="#000000" points="366.1778,-562.5 503.1778,-562.5 "/>
<text text-anchor="middle" x="434.6778" y="-547.3" font-family="Times,serif" font-size="14.00" fill="#000000">reference_image</text>
<polyline fill="none" stroke="#000000" points="366.1778,-539.5 503.1778,-539.5 "/>
<text text-anchor="middle" x="434.6778" y="-524.3" font-family="Times,serif" font-size="14.00" fill="#000000">transforms</text>
<polyline fill="none" stroke="#000000" points="503.1778,-516.5 503.1778,-585.5 "/>
<text text-anchor="middle" x="544.6778" y="-570.3" font-family="Times,serif" font-size="14.00" fill="#000000">prior2epi</text>
<polyline fill="none" stroke="#000000" points="503.1778,-562.5 586.1778,-562.5 "/>
<text text-anchor="middle" x="544.6778" y="-547.3" font-family="Times,serif" font-size="14.00" fill="#000000">fixes</text>
<polyline fill="none" stroke="#000000" points="503.1778,-539.5 586.1778,-539.5 "/>
<text text-anchor="middle" x="544.6778" y="-524.3" font-family="Times,serif" font-size="14.00" fill="#000000"> </text>
<polyline fill="none" stroke="#000000" points="586.1778,-516.5 586.1778,-585.5 "/>
<text text-anchor="middle" x="643.6778" y="-564.8" font-family="Times,serif" font-size="14.00" fill="#000000">OUT</text>
<polyline fill="none" stroke="#000000" points="586.1778,-551.5 701.1778,-551.5 "/>
<text text-anchor="middle" x="643.6778" y="-530.3" font-family="Times,serif" font-size="14.00" fill="#000000">output_image</text>
</g>
<!-- syn_sdc_wfinputnode&#45;&gt;syn_sdc_wfprior2epi -->
<g id="edge8" class="edge">
<title>syn_sdc_wfinputnode:e&#45;&gt;syn_sdc_wfprior2epi:w</title>
<path fill="none" stroke="#000000" d="M691.6778,-762.5C705.5446,-762.5 708.9525,-656.1394 672.6778,-622 572.6361,-527.8472 456.9878,-688.643 365.6778,-586 362.3661,-582.2772 360.1055,-568.9602 360.9533,-559.8695"/>
<polygon fill="#000000" stroke="#000000" points="364.0655,-561.4714 365.6778,-551 357.8873,-558.1805 364.0655,-561.4714"/>
</g>
<!-- syn_sdc_wfsyn -->
<g id="node7" class="node">
<title>syn_sdc_wfsyn</title>
<polygon fill="none" stroke="#000000" points="701.6778,-235.5 701.6778,-373.5 1083.6778,-373.5 1083.6778,-235.5 701.6778,-235.5"/>
<text text-anchor="middle" x="788.1778" y="-358.3" font-family="Times,serif" font-size="14.00" fill="#000000">IN</text>
<polyline fill="none" stroke="#000000" points="701.6778,-350.5 874.6778,-350.5 "/>
<text text-anchor="middle" x="788.1778" y="-335.3" font-family="Times,serif" font-size="14.00" fill="#000000">fixed_image</text>
<polyline fill="none" stroke="#000000" points="701.6778,-327.5 874.6778,-327.5 "/>
<text text-anchor="middle" x="788.1778" y="-312.3" font-family="Times,serif" font-size="14.00" fill="#000000">fixed_image_masks</text>
<polyline fill="none" stroke="#000000" points="701.6778,-304.5 874.6778,-304.5 "/>
<text text-anchor="middle" x="788.1778" y="-289.3" font-family="Times,serif" font-size="14.00" fill="#000000">moving_image</text>
<polyline fill="none" stroke="#000000" points="701.6778,-281.5 874.6778,-281.5 "/>
<text text-anchor="middle" x="788.1778" y="-266.3" font-family="Times,serif" font-size="14.00" fill="#000000">moving_image_masks</text>
<polyline fill="none" stroke="#000000" points="701.6778,-258.5 874.6778,-258.5 "/>
<text text-anchor="middle" x="788.1778" y="-243.3" font-family="Times,serif" font-size="14.00" fill="#000000">restrict_deformation</text>
<polyline fill="none" stroke="#000000" points="874.6778,-235.5 874.6778,-373.5 "/>
<text text-anchor="middle" x="899.6778" y="-346.8" font-family="Times,serif" font-size="14.00" fill="#000000">syn</text>
<polyline fill="none" stroke="#000000" points="874.6778,-327.5 924.6778,-327.5 "/>
<text text-anchor="middle" x="899.6778" y="-300.8" font-family="Times,serif" font-size="14.00" fill="#000000">fixes</text>
<polyline fill="none" stroke="#000000" points="874.6778,-281.5 924.6778,-281.5 "/>
<text text-anchor="middle" x="899.6778" y="-254.8" font-family="Times,serif" font-size="14.00" fill="#000000"> </text>
<polyline fill="none" stroke="#000000" points="924.6778,-235.5 924.6778,-373.5 "/>
<text text-anchor="middle" x="1004.1778" y="-335.3" font-family="Times,serif" font-size="14.00" fill="#000000">OUT</text>
<polyline fill="none" stroke="#000000" points="924.6778,-304.5 1083.6778,-304.5 "/>
<text text-anchor="middle" x="1004.1778" y="-266.3" font-family="Times,serif" font-size="14.00" fill="#000000">forward_transforms</text>
</g>
<!-- syn_sdc_wfinputnode&#45;&gt;syn_sdc_wfsyn -->
<g id="edge5" class="edge">
<title>syn_sdc_wfinputnode:e&#45;&gt;syn_sdc_wfsyn:w</title>
<path fill="none" stroke="#000000" d="M691.6778,-785.5C780.7457,-785.5 706.4508,-674.9675 710.6778,-586 714.3901,-507.8659 720.2353,-487.6361 710.6778,-410 708.6627,-393.6311 703.6929,-390.3689 701.6778,-374 696.4907,-331.865 661.9815,-279.4472 691.5585,-270.7491"/>
<polygon fill="#000000" stroke="#000000" points="692.1819,-274.1988 701.6778,-269.5 691.3243,-267.2515 692.1819,-274.1988"/>
</g>
<!-- syn_sdc_wfinputnode&#45;&gt;syn_sdc_wfsyn -->
<g id="edge9" class="edge">
<title>syn_sdc_wfinputnode:e&#45;&gt;syn_sdc_wfsyn:w</title>
<path fill="none" stroke="#000000" d="M691.6778,-762.5C728.15,-762.5 723.9973,-727.164 733.6778,-692 747.8702,-640.4472 759.3237,-508.5132 726.6778,-410 720.5502,-391.5092 707.4994,-392.5894 701.6778,-374 692.0789,-343.349 671.0226,-302.9746 691.6294,-294.2206"/>
<polygon fill="#000000" stroke="#000000" points="692.412,-297.6376 701.6778,-292.5 691.2305,-290.7381 692.412,-297.6376"/>
</g>
<!-- syn_sdc_wfinputnode&#45;&gt;syn_sdc_wfsyn -->
<g id="edge10" class="edge">
<title>syn_sdc_wfinputnode:e&#45;&gt;syn_sdc_wfsyn:w</title>
<path fill="none" stroke="#000000" d="M691.6778,-762.5C850.3091,-762.5 825.7252,-548.1032 747.6778,-410 734.9049,-387.3985 713.0488,-397.3383 701.6778,-374 678.5059,-326.441 649.2098,-256.5549 691.5317,-247.4829"/>
<polygon fill="#000000" stroke="#000000" points="692.0619,-250.948 701.6778,-246.5 691.3869,-243.9806 692.0619,-250.948"/>
</g>
<!-- syn_sdc_wfunwarp_ref -->
<g id="node8" class="node">
<title>syn_sdc_wfunwarp_ref</title>
<polygon fill="none" stroke="#000000" points="1111.6778,-106.5 1111.6778,-198.5 1461.6778,-198.5 1461.6778,-106.5 1111.6778,-106.5"/>
<text text-anchor="middle" x="1180.1778" y="-183.3" font-family="Times,serif" font-size="14.00" fill="#000000">IN</text>
<polyline fill="none" stroke="#000000" points="1111.6778,-175.5 1248.6778,-175.5 "/>
<text text-anchor="middle" x="1180.1778" y="-160.3" font-family="Times,serif" font-size="14.00" fill="#000000">input_image</text>
<polyline fill="none" stroke="#000000" points="1111.6778,-152.5 1248.6778,-152.5 "/>
<text text-anchor="middle" x="1180.1778" y="-137.3" font-family="Times,serif" font-size="14.00" fill="#000000">reference_image</text>
<polyline fill="none" stroke="#000000" points="1111.6778,-129.5 1248.6778,-129.5 "/>
<text text-anchor="middle" x="1180.1778" y="-114.3" font-family="Times,serif" font-size="14.00" fill="#000000">transforms</text>
<polyline fill="none" stroke="#000000" points="1248.6778,-106.5 1248.6778,-198.5 "/>
<text text-anchor="middle" x="1297.6778" y="-179.8" font-family="Times,serif" font-size="14.00" fill="#000000">unwarp_ref</text>
<polyline fill="none" stroke="#000000" points="1248.6778,-168.5 1346.6778,-168.5 "/>
<text text-anchor="middle" x="1297.6778" y="-149.3" font-family="Times,serif" font-size="14.00" fill="#000000">fixes</text>
<polyline fill="none" stroke="#000000" points="1248.6778,-137.5 1346.6778,-137.5 "/>
<text text-anchor="middle" x="1297.6778" y="-118.3" font-family="Times,serif" font-size="14.00" fill="#000000"> </text>
<polyline fill="none" stroke="#000000" points="1346.6778,-106.5 1346.6778,-198.5 "/>
<text text-anchor="middle" x="1404.1778" y="-171.8" font-family="Times,serif" font-size="14.00" fill="#000000">OUT</text>
<polyline fill="none" stroke="#000000" points="1346.6778,-152.5 1461.6778,-152.5 "/>
<text text-anchor="middle" x="1404.1778" y="-125.8" font-family="Times,serif" font-size="14.00" fill="#000000">output_image</text>
</g>
<!-- syn_sdc_wfinputnode&#45;&gt;syn_sdc_wfunwarp_ref -->
<g id="edge11" class="edge">
<title>syn_sdc_wfinputnode:e&#45;&gt;syn_sdc_wfunwarp_ref:w</title>
<path fill="none" stroke="#000000" d="M691.6778,-762.5C900.6765,-762.5 1111.6778,-759.9987 1111.6778,-551 1111.6778,-551 1111.6778,-551 1111.6778,-445 1111.6778,-438.1062 1105.5784,-223.8329 1109.5692,-174.5412"/>
<polygon fill="#000000" stroke="#000000" points="1113.0479,-175.0059 1111.6778,-164.5 1106.1973,-173.5672 1113.0479,-175.0059"/>
</g>
<!-- syn_sdc_wfinputnode&#45;&gt;syn_sdc_wfunwarp_ref -->
<g id="edge12" class="edge">
<title>syn_sdc_wfinputnode:e&#45;&gt;syn_sdc_wfunwarp_ref:w</title>
<path fill="none" stroke="#000000" d="M691.6778,-762.5C782.3745,-762.5 1023.3358,-749.2529 1093.6778,-692 1145.9734,-649.4355 1149.6778,-618.4282 1149.6778,-551 1149.6778,-551 1149.6778,-551 1149.6778,-445 1149.6778,-350.8984 1142.4974,-326.9907 1122.6778,-235 1119.1541,-218.645 1114.1494,-215.5467 1111.6778,-199 1110.9801,-194.3292 1107.865,-165.5639 1108.7066,-150.1821"/>
<polygon fill="#000000" stroke="#000000" points="1112.09,-151.0868 1111.6778,-140.5 1105.398,-149.0331 1112.09,-151.0868"/>
</g>
<!-- syn_sdc_wfinvert_t1w&#45;&gt;syn_sdc_wfanat2epi -->
<g id="edge14" class="edge">
<title>syn_sdc_wfinvert_t1w:e&#45;&gt;syn_sdc_wfanat2epi:w</title>
<path fill="none" stroke="#000000" d="M399.6778,-640C407.6778,-640 405.0635,-627.9156 399.6778,-622 342.1278,-558.7869 74.2278,-649.2131 16.6778,-586 9.3146,-577.9122 4.6155,-563.8944 7.8817,-556.2842"/>
<polygon fill="#000000" stroke="#000000" points="9.908,-559.1499 16.6778,-551 6.3033,-553.1494 9.908,-559.1499"/>
</g>
<!-- syn_sdc_wfanat2epi&#45;&gt;syn_sdc_wfsyn -->
<g id="edge1" class="edge">
<title>syn_sdc_wfanat2epi:e&#45;&gt;syn_sdc_wfsyn:w</title>
<path fill="none" stroke="#000000" d="M348.6778,-534C357.6221,-534 352.5542,-523.3313 357.6778,-516 394.7788,-462.9125 402.3912,-443.7366 457.6778,-410 551.118,-352.9816 586.6362,-340.2517 691.6369,-339.5332"/>
<polygon fill="#000000" stroke="#000000" points="691.6895,-343.0331 701.6778,-339.5 691.6663,-336.0331 691.6895,-343.0331"/>
</g>
<!-- syn_sdc_wftransform_list&#45;&gt;syn_sdc_wfprior2epi -->
<g id="edge18" class="edge">
<title>syn_sdc_wftransform_list:e&#45;&gt;syn_sdc_wfprior2epi:w</title>
<path fill="none" stroke="#000000" d="M663.6778,-640C671.6778,-640 668.9846,-627.9865 663.6778,-622 575.182,-522.17 454.1736,-685.83 365.6778,-586 362.5718,-582.4962 360.5772,-553.4661 362.1904,-537.8522"/>
<polygon fill="#000000" stroke="#000000" points="365.6403,-538.5948 365.6778,-528 359.0415,-536.259 365.6403,-538.5948"/>
</g>
<!-- syn_sdc_wfatlas_msk -->
<g id="node6" class="node">
<title>syn_sdc_wfatlas_msk</title>
<polygon fill="none" stroke="#000000" points="466.1778,-410.5 466.1778,-479.5 701.1778,-479.5 701.1778,-410.5 466.1778,-410.5"/>
<text text-anchor="middle" x="496.1778" y="-458.8" font-family="Times,serif" font-size="14.00" fill="#000000">IN</text>
<polyline fill="none" stroke="#000000" points="466.1778,-445.5 526.1778,-445.5 "/>
<text text-anchor="middle" x="496.1778" y="-424.3" font-family="Times,serif" font-size="14.00" fill="#000000">in_file</text>
<polyline fill="none" stroke="#000000" points="526.1778,-410.5 526.1778,-479.5 "/>
<text text-anchor="middle" x="570.6778" y="-464.3" font-family="Times,serif" font-size="14.00" fill="#000000">atlas_msk</text>
<polyline fill="none" stroke="#000000" points="526.1778,-456.5 615.1778,-456.5 "/>
<text text-anchor="middle" x="570.6778" y="-441.3" font-family="Times,serif" font-size="14.00" fill="#000000">nibabel</text>
<polyline fill="none" stroke="#000000" points="526.1778,-433.5 615.1778,-433.5 "/>
<text text-anchor="middle" x="570.6778" y="-418.3" font-family="Times,serif" font-size="14.00" fill="#000000"> </text>
<polyline fill="none" stroke="#000000" points="615.1778,-410.5 615.1778,-479.5 "/>
<text text-anchor="middle" x="658.1778" y="-458.8" font-family="Times,serif" font-size="14.00" fill="#000000">OUT</text>
<polyline fill="none" stroke="#000000" points="615.1778,-445.5 701.1778,-445.5 "/>
<text text-anchor="middle" x="658.1778" y="-424.3" font-family="Times,serif" font-size="14.00" fill="#000000">out_mask</text>
</g>
<!-- syn_sdc_wfprior2epi&#45;&gt;syn_sdc_wfatlas_msk -->
<g id="edge15" class="edge">
<title>syn_sdc_wfprior2epi:e&#45;&gt;syn_sdc_wfatlas_msk:w</title>
<path fill="none" stroke="#000000" d="M701.6778,-534C709.6778,-534 706.8907,-522.0684 701.6778,-516 632.5401,-435.5161 534.8155,-560.4839 465.6778,-480 453.3243,-465.6191 445.6865,-439.8404 456.0978,-431.0405"/>
<polygon fill="#000000" stroke="#000000" points="457.2052,-434.3612 465.6778,-428 455.0875,-427.6892 457.2052,-434.3612"/>
</g>
<!-- syn_sdc_wfatlas_msk&#45;&gt;syn_sdc_wfsyn -->
<g id="edge2" class="edge">
<title>syn_sdc_wfatlas_msk:e&#45;&gt;syn_sdc_wfsyn:w</title>
<path fill="none" stroke="#000000" d="M701.6778,-428C701.6778,-428 701.6778,-354.3926 701.6778,-326.7898"/>
<polygon fill="#000000" stroke="#000000" points="705.1779,-326.5 701.6778,-316.5 698.1779,-326.5 705.1779,-326.5"/>
</g>
<!-- syn_sdc_wfsyn&#45;&gt;syn_sdc_wfunwarp_ref -->
<g id="edge17" class="edge">
<title>syn_sdc_wfsyn:e&#45;&gt;syn_sdc_wfunwarp_ref:w</title>
<path fill="none" stroke="#000000" d="M1083.6778,-269.5C1099.6504,-269.5 1094.7699,-214.7057 1097.6778,-199 1100.3699,-184.4599 1095.8956,-140.5472 1103.6202,-123.9485"/>
<polygon fill="#000000" stroke="#000000" points="1106.0572,-126.4811 1111.6778,-117.5 1101.6833,-121.0158 1106.0572,-126.4811"/>
</g>
<!-- syn_sdc_wfoutputnode -->
<g id="node9" class="node">
<title>syn_sdc_wfoutputnode</title>
<polygon fill="none" stroke="#000000" points="1272.6778,-.5 1272.6778,-69.5 1500.6778,-69.5 1500.6778,-.5 1272.6778,-.5"/>
<text text-anchor="middle" x="1312.6778" y="-54.3" font-family="Times,serif" font-size="14.00" fill="#000000">IN</text>
<polyline fill="none" stroke="#000000" points="1272.6778,-46.5 1352.6778,-46.5 "/>
<text text-anchor="middle" x="1312.6778" y="-31.3" font-family="Times,serif" font-size="14.00" fill="#000000">fmap</text>
<polyline fill="none" stroke="#000000" points="1272.6778,-23.5 1352.6778,-23.5 "/>
<text text-anchor="middle" x="1312.6778" y="-8.3" font-family="Times,serif" font-size="14.00" fill="#000000">fmap_ref</text>
<polyline fill="none" stroke="#000000" points="1352.6778,-.5 1352.6778,-69.5 "/>
<text text-anchor="middle" x="1401.6778" y="-54.3" font-family="Times,serif" font-size="14.00" fill="#000000">outputnode</text>
<polyline fill="none" stroke="#000000" points="1352.6778,-46.5 1450.6778,-46.5 "/>
<text text-anchor="middle" x="1401.6778" y="-31.3" font-family="Times,serif" font-size="14.00" fill="#000000">utility</text>
<polyline fill="none" stroke="#000000" points="1352.6778,-23.5 1450.6778,-23.5 "/>
<text text-anchor="middle" x="1401.6778" y="-8.3" font-family="Times,serif" font-size="14.00" fill="#000000"> </text>
<polyline fill="none" stroke="#000000" points="1450.6778,-.5 1450.6778,-69.5 "/>
<text text-anchor="middle" x="1475.6778" y="-31.3" font-family="Times,serif" font-size="14.00" fill="#000000">OUT</text>
</g>
<!-- syn_sdc_wfsyn&#45;&gt;syn_sdc_wfoutputnode -->
<g id="edge16" class="edge">
<title>syn_sdc_wfsyn:e&#45;&gt;syn_sdc_wfoutputnode:w</title>
<path fill="none" stroke="#000000" d="M1083.6778,-269.5C1101.9667,-269.5 1091.6763,-120.6099 1102.6778,-106 1149.8159,-43.4011 1187.4383,-35.5909 1262.3569,-35.0353"/>
<polygon fill="#000000" stroke="#000000" points="1262.6899,-38.5342 1272.6778,-35 1262.6659,-31.5343 1262.6899,-38.5342"/>
</g>
<!-- syn_sdc_wfunwarp_ref&#45;&gt;syn_sdc_wfoutputnode -->
<g id="edge19" class="edge">
<title>syn_sdc_wfunwarp_ref:e&#45;&gt;syn_sdc_wfoutputnode:w</title>
<path fill="none" stroke="#000000" d="M1461.6778,-129.5C1472.1223,-129.5 1468.3365,-114.0467 1461.6778,-106 1407.1625,-40.1207 1327.1931,-135.8793 1272.6778,-70 1258.9399,-53.3984 1250.1568,-24.0227 1262.7026,-14.8306"/>
<polygon fill="#000000" stroke="#000000" points="1264.0131,-18.097 1272.6778,-12 1262.1021,-11.3629 1264.0131,-18.097"/>
</g>
</g>
</svg>
