<?xml version="1.0" encoding="UTF-8" standalone="no"?>
<!DOCTYPE svg PUBLIC "-//W3C//DTD SVG 1.1//EN"
 "http://www.w3.org/Graphics/SVG/1.1/DTD/svg11.dtd">
<!-- Generated by graphviz version 2.40.1 (20161225.0304)
 -->
<!-- Title: %3 Pages: 1 -->
<svg width="461pt" height="404pt"
 viewBox="0.00 0.00 461.39 404.00" xmlns="http://www.w3.org/2000/svg" xmlns:xlink="http://www.w3.org/1999/xlink">
<g id="graph0" class="graph" transform="scale(1 1) rotate(0) translate(4 400)">
<title>%3</title>
<polygon fill="#ffffff" stroke="transparent" points="-4,4 -4,-400 457.388,-400 457.388,4 -4,4"/>
<!-- inputnode (utility) -->
<g id="node1" class="node">
<title>inputnode (utility)</title>
<ellipse fill="none" stroke="#000000" cx="324.8414" cy="-378" rx="94.7833" ry="18"/>
<text text-anchor="middle" x="324.8414" y="-374.3" font-family="Times,serif" font-size="14.00" fill="#000000">inputnode (utility)</text>
</g>
<!-- flatten (utils) -->
<g id="node2" class="node">
<title>flatten (utils)</title>
<ellipse fill="none" stroke="#000000" cx="324.8414" cy="-306" rx="71.4873" ry="18"/>
<text text-anchor="middle" x="324.8414" y="-302.3" font-family="Times,serif" font-size="14.00" fill="#000000">flatten (utils)</text>
</g>
<!-- inputnode (utility)&#45;&gt;flatten (utils) -->
<g id="edge1" class="edge">
<title>inputnode (utility)&#45;&gt;flatten (utils)</title>
<path fill="none" stroke="#000000" d="M324.8414,-359.8314C324.8414,-352.131 324.8414,-342.9743 324.8414,-334.4166"/>
<polygon fill="#000000" stroke="#000000" points="328.3415,-334.4132 324.8414,-324.4133 321.3415,-334.4133 328.3415,-334.4132"/>
</g>
<!-- readout_time (epi) -->
<g id="node3" class="node">
<title>readout_time (epi)</title>
<ellipse fill="none" stroke="#000000" cx="96.8414" cy="-234" rx="96.6831" ry="18"/>
<text text-anchor="middle" x="96.8414" y="-230.3" font-family="Times,serif" font-size="14.00" fill="#000000">readout_time (epi)</text>
</g>
<!-- flatten (utils)&#45;&gt;readout_time (epi) -->
<g id="edge2" class="edge">
<title>flatten (utils)&#45;&gt;readout_time (epi)</title>
<path fill="none" stroke="#000000" d="M280.068,-291.861C244.5601,-280.648 194.6317,-264.8811 155.8599,-252.6374"/>
<polygon fill="#000000" stroke="#000000" points="156.8484,-249.2793 146.2586,-249.6054 154.7404,-255.9544 156.8484,-249.2793"/>
</g>
<!-- concat_blips (nibabel) -->
<g id="node4" class="node">
<title>concat_blips (nibabel)</title>
<ellipse fill="none" stroke="#000000" cx="324.8414" cy="-234" rx="113.18" ry="18"/>
<text text-anchor="middle" x="324.8414" y="-230.3" font-family="Times,serif" font-size="14.00" fill="#000000">concat_blips (nibabel)</text>
</g>
<!-- flatten (utils)&#45;&gt;concat_blips (nibabel) -->
<g id="edge3" class="edge">
<title>flatten (utils)&#45;&gt;concat_blips (nibabel)</title>
<path fill="none" stroke="#000000" d="M324.8414,-287.8314C324.8414,-280.131 324.8414,-270.9743 324.8414,-262.4166"/>
<polygon fill="#000000" stroke="#000000" points="328.3415,-262.4132 324.8414,-252.4133 321.3415,-262.4133 328.3415,-262.4132"/>
</g>
<!-- topup (fsl) -->
<g id="node5" class="node">
<title>topup (fsl)</title>
<ellipse fill="none" stroke="#000000" cx="324.8414" cy="-162" rx="58.4896" ry="18"/>
<text text-anchor="middle" x="324.8414" y="-158.3" font-family="Times,serif" font-size="14.00" fill="#000000">topup (fsl)</text>
</g>
<!-- flatten (utils)&#45;&gt;topup (fsl) -->
<g id="edge4" class="edge">
<title>flatten (utils)&#45;&gt;topup (fsl)</title>
<path fill="none" stroke="#000000" d="M382.1948,-295.1162C406.4411,-287.3736 432.3727,-274.2268 446.8414,-252 455.5702,-238.5908 455.5702,-229.4092 446.8414,-216 433.0756,-194.853 408.9336,-181.9252 385.7389,-174.0509"/>
<polygon fill="#000000" stroke="#000000" points="386.4781,-170.6151 375.8894,-170.9763 384.3922,-177.2971 386.4781,-170.6151"/>
</g>
<!-- readout_time (epi)&#45;&gt;topup (fsl) -->
<g id="edge5" class="edge">
<title>readout_time (epi)&#45;&gt;topup (fsl)</title>
<path fill="none" stroke="#000000" d="M146.0333,-218.4657C183.767,-206.5498 235.6858,-190.1544 273.8587,-178.0998"/>
<polygon fill="#000000" stroke="#000000" points="275.2613,-181.3273 283.7431,-174.9784 273.1533,-174.6522 275.2613,-181.3273"/>
</g>
<!-- concat_blips (nibabel)&#45;&gt;topup (fsl) -->
<g id="edge6" class="edge">
<title>concat_blips (nibabel)&#45;&gt;topup (fsl)</title>
<path fill="none" stroke="#000000" d="M324.8414,-215.8314C324.8414,-208.131 324.8414,-198.9743 324.8414,-190.4166"/>
<polygon fill="#000000" stroke="#000000" points="328.3415,-190.4132 324.8414,-180.4133 321.3415,-190.4133 328.3415,-190.4132"/>
</g>
<!-- merge_corrected (images) -->
<g id="node6" class="node">
<title>merge_corrected (images)</title>
<ellipse fill="none" stroke="#000000" cx="243.8414" cy="-90" rx="133.7763" ry="18"/>
<text text-anchor="middle" x="243.8414" y="-86.3" font-family="Times,serif" font-size="14.00" fill="#000000">merge_corrected (images)</text>
</g>
<!-- topup (fsl)&#45;&gt;merge_corrected (images) -->
<g id="edge7" class="edge">
<title>topup (fsl)&#45;&gt;merge_corrected (images)</title>
<path fill="none" stroke="#000000" d="M305.6455,-144.937C295.4586,-135.8819 282.7577,-124.5923 271.5238,-114.6066"/>
<polygon fill="#000000" stroke="#000000" points="273.8292,-111.973 264.0298,-107.9453 269.1787,-117.2049 273.8292,-111.973"/>
</g>
<!-- outputnode (utility) -->
<g id="node7" class="node">
<title>outputnode (utility)</title>
<ellipse fill="none" stroke="#000000" cx="324.8414" cy="-18" rx="101.2821" ry="18"/>
<text text-anchor="middle" x="324.8414" y="-14.3" font-family="Times,serif" font-size="14.00" fill="#000000">outputnode (utility)</text>
</g>
<!-- topup (fsl)&#45;&gt;outputnode (utility) -->
<g id="edge8" class="edge">
<title>topup (fsl)&#45;&gt;outputnode (utility)</title>
<path fill="none" stroke="#000000" d="M352.4126,-145.9022C365.4441,-136.6435 379.6864,-123.72 386.8414,-108 393.4695,-93.4374 393.4695,-86.5626 386.8414,-72 381.429,-60.1085 371.961,-49.8172 362.0294,-41.502"/>
<polygon fill="#000000" stroke="#000000" points="364.0711,-38.6557 354.0337,-35.2643 359.7654,-44.1749 364.0711,-38.6557"/>
</g>
<!-- merge_corrected (images)&#45;&gt;outputnode (utility) -->
<g id="edge9" class="edge">
<title>merge_corrected (images)&#45;&gt;outputnode (utility)</title>
<path fill="none" stroke="#000000" d="M263.8639,-72.2022C273.8917,-63.2887 286.1923,-52.3548 297.1128,-42.6476"/>
<polygon fill="#000000" stroke="#000000" points="299.6197,-45.1022 304.7685,-35.8425 294.9691,-39.8703 299.6197,-45.1022"/>
</g>
</g>
</svg>
