<?xml version="1.0" encoding="UTF-8" standalone="no"?>
<!DOCTYPE svg PUBLIC "-//W3C//DTD SVG 1.1//EN"
 "http://www.w3.org/Graphics/SVG/1.1/DTD/svg11.dtd">
<!-- Generated by graphviz version 2.40.1 (20161225.0304)
 -->
<!-- Title: %3 Pages: 1 -->
<svg width="636pt" height="620pt"
 viewBox="0.00 0.00 636.25 620.00" xmlns="http://www.w3.org/2000/svg" xmlns:xlink="http://www.w3.org/1999/xlink">
<g id="graph0" class="graph" transform="scale(1 1) rotate(0) translate(4 616)">
<title>%3</title>
<polygon fill="#ffffff" stroke="transparent" points="-4,4 -4,-616 632.2522,-616 632.2522,4 -4,4"/>
<!-- inputnode (utility) -->
<g id="node1" class="node">
<title>inputnode (utility)</title>
<ellipse fill="none" stroke="#000000" cx="229.5415" cy="-594" rx="94.7833" ry="18"/>
<text text-anchor="middle" x="229.5415" y="-590.3" font-family="Times,serif" font-size="14.00" fill="#000000">inputnode (utility)</text>
</g>
<!-- transform_list (utility) -->
<g id="node2" class="node">
<title>transform_list (utility)</title>
<ellipse fill="none" stroke="#000000" cx="229.5415" cy="-522" rx="114.2798" ry="18"/>
<text text-anchor="middle" x="229.5415" y="-518.3" font-family="Times,serif" font-size="14.00" fill="#000000">transform_list (utility)</text>
</g>
<!-- inputnode (utility)&#45;&gt;transform_list (utility) -->
<g id="edge1" class="edge">
<title>inputnode (utility)&#45;&gt;transform_list (utility)</title>
<path fill="none" stroke="#000000" d="M229.5415,-575.8314C229.5415,-568.131 229.5415,-558.9743 229.5415,-550.4166"/>
<polygon fill="#000000" stroke="#000000" points="233.0416,-550.4132 229.5415,-540.4133 226.0416,-550.4133 233.0416,-550.4132"/>
</g>
<!-- invert_t1w (image) -->
<g id="node3" class="node">
<title>invert_t1w (image)</title>
<ellipse fill="none" stroke="#000000" cx="498.5415" cy="-522" rx="98.5829" ry="18"/>
<text text-anchor="middle" x="498.5415" y="-518.3" font-family="Times,serif" font-size="14.00" fill="#000000">invert_t1w (image)</text>
</g>
<!-- inputnode (utility)&#45;&gt;invert_t1w (image) -->
<g id="edge2" class="edge">
<title>inputnode (utility)&#45;&gt;invert_t1w (image)</title>
<path fill="none" stroke="#000000" d="M284.6268,-579.256C327.5875,-567.7572 387.3893,-551.7508 432.8438,-539.5845"/>
<polygon fill="#000000" stroke="#000000" points="433.8505,-542.9384 442.6055,-536.9717 432.0405,-536.1764 433.8505,-542.9384"/>
</g>
<!-- anat2epi (fixes) -->
<g id="node4" class="node">
<title>anat2epi (fixes)</title>
<ellipse fill="none" stroke="#000000" cx="371.5415" cy="-450" rx="83.3857" ry="18"/>
<text text-anchor="middle" x="371.5415" y="-446.3" font-family="Times,serif" font-size="14.00" fill="#000000">anat2epi (fixes)</text>
</g>
<!-- inputnode (utility)&#45;&gt;anat2epi (fixes) -->
<g id="edge3" class="edge">
<title>inputnode (utility)&#45;&gt;anat2epi (fixes)</title>
<path fill="none" stroke="#000000" d="M290.0433,-580.0933C312.7303,-571.9734 336.8006,-559.363 352.5415,-540 366.5657,-522.7488 370.9556,-497.6439 372.0424,-478.3293"/>
<polygon fill="#000000" stroke="#000000" points="375.5423,-478.3826 372.3466,-468.2813 368.5455,-478.1707 375.5423,-478.3826"/>
</g>
<!-- syn (fixes) -->
<g id="node5" class="node">
<title>syn (fixes)</title>
<ellipse fill="none" stroke="#000000" cx="182.5415" cy="-306" rx="58.4896" ry="18"/>
<text text-anchor="middle" x="182.5415" y="-302.3" font-family="Times,serif" font-size="14.00" fill="#000000">syn (fixes)</text>
</g>
<!-- inputnode (utility)&#45;&gt;syn (fixes) -->
<g id="edge4" class="edge">
<title>inputnode (utility)&#45;&gt;syn (fixes)</title>
<path fill="none" stroke="#000000" d="M162.3804,-581.1211C138.2089,-573.1813 112.8959,-560.4266 96.5415,-540 55.9897,-489.3509 77.8931,-460.6617 72.5415,-396 71.2218,-380.0545 64.0802,-373.5796 72.5415,-360 84.4392,-340.9054 105.2782,-328.3716 125.6411,-320.2366"/>
<polygon fill="#000000" stroke="#000000" points="127.0724,-323.4392 135.2426,-316.6939 124.6492,-316.872 127.0724,-323.4392"/>
</g>
<!-- unwarp_ref (fixes) -->
<g id="node6" class="node">
<title>unwarp_ref (fixes)</title>
<ellipse fill="none" stroke="#000000" cx="95.5415" cy="-234" rx="95.5831" ry="18"/>
<text text-anchor="middle" x="95.5415" y="-230.3" font-family="Times,serif" font-size="14.00" fill="#000000">unwarp_ref (fixes)</text>
</g>
<!-- inputnode (utility)&#45;&gt;unwarp_ref (fixes) -->
<g id="edge5" class="edge">
<title>inputnode (utility)&#45;&gt;unwarp_ref (fixes)</title>
<path fill="none" stroke="#000000" d="M165.9009,-580.5585C101.5552,-562.7967 11.5415,-524.6151 11.5415,-450 11.5415,-450 11.5415,-450 11.5415,-378 11.5415,-331.3742 44.8058,-286.406 69.4687,-259.4732"/>
<polygon fill="#000000" stroke="#000000" points="72.1644,-261.7162 76.4806,-252.0404 67.0726,-256.9127 72.1644,-261.7162"/>
</g>
<!-- prior2epi (fixes) -->
<g id="node7" class="node">
<title>prior2epi (fixes)</title>
<ellipse fill="none" stroke="#000000" cx="182.5415" cy="-450" rx="85.2851" ry="18"/>
<text text-anchor="middle" x="182.5415" y="-446.3" font-family="Times,serif" font-size="14.00" fill="#000000">prior2epi (fixes)</text>
</g>
<!-- inputnode (utility)&#45;&gt;prior2epi (fixes) -->
<g id="edge6" class="edge">
<title>inputnode (utility)&#45;&gt;prior2epi (fixes)</title>
<path fill="none" stroke="#000000" d="M164.6512,-580.8574C142.3718,-572.9042 119.7404,-560.2094 106.5415,-540 97.7925,-526.6039 99.2025,-518.2175 106.5415,-504 113.4183,-490.678 125.2681,-479.927 137.5919,-471.6306"/>
<polygon fill="#000000" stroke="#000000" points="139.5247,-474.55 146.1443,-466.2776 135.8108,-468.6164 139.5247,-474.55"/>
</g>
<!-- extract_field (utility) -->
<g id="node8" class="node">
<title>extract_field (utility)</title>
<ellipse fill="none" stroke="#000000" cx="316.5415" cy="-234" rx="107.4815" ry="18"/>
<text text-anchor="middle" x="316.5415" y="-230.3" font-family="Times,serif" font-size="14.00" fill="#000000">extract_field (utility)</text>
</g>
<!-- inputnode (utility)&#45;&gt;extract_field (utility) -->
<g id="edge7" class="edge">
<title>inputnode (utility)&#45;&gt;extract_field (utility)</title>
<path fill="none" stroke="#000000" d="M316.6038,-586.7741C421.313,-577.283 585.6967,-559.5167 606.5415,-540 636.3843,-512.0587 625.5415,-490.8816 625.5415,-450 625.5415,-450 625.5415,-450 625.5415,-378 625.5415,-325.5354 477.3419,-276.6744 386.2107,-251.5884"/>
<polygon fill="#000000" stroke="#000000" points="387.0544,-248.1908 376.4862,-248.9419 385.2161,-254.9451 387.0544,-248.1908"/>
</g>
<!-- transform_list (utility)&#45;&gt;prior2epi (fixes) -->
<g id="edge8" class="edge">
<title>transform_list (utility)&#45;&gt;prior2epi (fixes)</title>
<path fill="none" stroke="#000000" d="M217.6814,-503.8314C212.2409,-495.497 205.6869,-485.4567 199.7202,-476.3162"/>
<polygon fill="#000000" stroke="#000000" points="202.6321,-474.374 194.235,-467.9134 196.7704,-478.2004 202.6321,-474.374"/>
</g>
<!-- invert_t1w (image)&#45;&gt;anat2epi (fixes) -->
<g id="edge9" class="edge">
<title>invert_t1w (image)&#45;&gt;anat2epi (fixes)</title>
<path fill="none" stroke="#000000" d="M468.1219,-504.7542C450.7165,-494.8866 428.7106,-482.4108 410.102,-471.861"/>
<polygon fill="#000000" stroke="#000000" points="411.7002,-468.7438 401.2748,-466.8566 408.2479,-474.8333 411.7002,-468.7438"/>
</g>
<!-- anat2epi (fixes)&#45;&gt;syn (fixes) -->
<g id="edge10" class="edge">
<title>anat2epi (fixes)&#45;&gt;syn (fixes)</title>
<path fill="none" stroke="#000000" d="M359.0171,-431.8729C344.725,-412.2127 319.7806,-380.8526 292.5415,-360 273.3513,-345.3091 249.5315,-333.0229 228.9698,-323.9001"/>
<polygon fill="#000000" stroke="#000000" points="230.3485,-320.6832 219.7802,-319.9339 227.5746,-327.1101 230.3485,-320.6832"/>
</g>
<!-- syn (fixes)&#45;&gt;unwarp_ref (fixes) -->
<g id="edge12" class="edge">
<title>syn (fixes)&#45;&gt;unwarp_ref (fixes)</title>
<path fill="none" stroke="#000000" d="M161.9237,-288.937C150.7945,-279.7266 136.8718,-268.2044 124.6551,-258.094"/>
<polygon fill="#000000" stroke="#000000" points="126.8553,-255.3717 116.9199,-251.6924 122.3923,-260.7645 126.8553,-255.3717"/>
</g>
<!-- syn (fixes)&#45;&gt;extract_field (utility) -->
<g id="edge11" class="edge">
<title>syn (fixes)&#45;&gt;extract_field (utility)</title>
<path fill="none" stroke="#000000" d="M211.6175,-290.3771C230.2578,-280.3614 254.7374,-267.2082 275.3628,-256.1259"/>
<polygon fill="#000000" stroke="#000000" points="277.0823,-259.1753 284.2347,-251.3589 273.7691,-253.009 277.0823,-259.1753"/>
</g>
<!-- epi_mask (epi) -->
<g id="node9" class="node">
<title>epi_mask (epi)</title>
<ellipse fill="none" stroke="#000000" cx="202.5415" cy="-162" rx="78.7863" ry="18"/>
<text text-anchor="middle" x="202.5415" y="-158.3" font-family="Times,serif" font-size="14.00" fill="#000000">epi_mask (epi)</text>
</g>
<!-- unwarp_ref (fixes)&#45;&gt;epi_mask (epi) -->
<g id="edge13" class="edge">
<title>unwarp_ref (fixes)&#45;&gt;epi_mask (epi)</title>
<path fill="none" stroke="#000000" d="M121.4432,-216.5708C135.5063,-207.1078 153.0728,-195.2874 168.2575,-185.0696"/>
<polygon fill="#000000" stroke="#000000" points="170.5357,-187.7553 176.8783,-179.2687 166.6278,-181.9477 170.5357,-187.7553"/>
</g>
<!-- outputnode (utility) -->
<g id="node10" class="node">
<title>outputnode (utility)</title>
<ellipse fill="none" stroke="#000000" cx="160.5415" cy="-18" rx="101.2821" ry="18"/>
<text text-anchor="middle" x="160.5415" y="-14.3" font-family="Times,serif" font-size="14.00" fill="#000000">outputnode (utility)</text>
</g>
<!-- unwarp_ref (fixes)&#45;&gt;outputnode (utility) -->
<g id="edge14" class="edge">
<title>unwarp_ref (fixes)&#45;&gt;outputnode (utility)</title>
<path fill="none" stroke="#000000" d="M98.5841,-215.8858C101.8413,-197.5782 107.5037,-168.5626 114.5415,-144 124.4511,-109.4148 139.1531,-70.6844 149.2541,-45.4077"/>
<polygon fill="#000000" stroke="#000000" points="152.5159,-46.6774 153.0115,-36.0941 146.0243,-44.0584 152.5159,-46.6774"/>
</g>
<!-- atlas_msk (nibabel) -->
<g id="node11" class="node">
<title>atlas_msk (nibabel)</title>
<ellipse fill="none" stroke="#000000" cx="182.5415" cy="-378" rx="101.2821" ry="18"/>
<text text-anchor="middle" x="182.5415" y="-374.3" font-family="Times,serif" font-size="14.00" fill="#000000">atlas_msk (nibabel)</text>
</g>
<!-- prior2epi (fixes)&#45;&gt;atlas_msk (nibabel) -->
<g id="edge15" class="edge">
<title>prior2epi (fixes)&#45;&gt;atlas_msk (nibabel)</title>
<path fill="none" stroke="#000000" d="M182.5415,-431.8314C182.5415,-424.131 182.5415,-414.9743 182.5415,-406.4166"/>
<polygon fill="#000000" stroke="#000000" points="186.0416,-406.4132 182.5415,-396.4133 179.0416,-406.4133 186.0416,-406.4132"/>
</g>
<!-- bs_filter (bspline) -->
<g id="node12" class="node">
<title>bs_filter (bspline)</title>
<ellipse fill="none" stroke="#000000" cx="281.5415" cy="-90" rx="92.8835" ry="18"/>
<text text-anchor="middle" x="281.5415" y="-86.3" font-family="Times,serif" font-size="14.00" fill="#000000">bs_filter (bspline)</text>
</g>
<!-- extract_field (utility)&#45;&gt;bs_filter (bspline) -->
<g id="edge16" class="edge">
<title>extract_field (utility)&#45;&gt;bs_filter (bspline)</title>
<path fill="none" stroke="#000000" d="M312.1087,-215.7623C306.1127,-191.0928 295.3616,-146.8598 288.3405,-117.9731"/>
<polygon fill="#000000" stroke="#000000" points="291.7012,-116.9801 285.9383,-108.0896 284.8992,-118.6334 291.7012,-116.9801"/>
</g>
<!-- epi_mask (epi)&#45;&gt;outputnode (utility) -->
<g id="edge18" class="edge">
<title>epi_mask (epi)&#45;&gt;outputnode (utility)</title>
<path fill="none" stroke="#000000" d="M193.7581,-143.8405C189.0335,-133.5181 183.4014,-120.2454 179.5415,-108 173.1503,-87.7242 168.2682,-64.1982 165.054,-46.2853"/>
<polygon fill="#000000" stroke="#000000" points="168.4625,-45.4549 163.3126,-36.1959 161.5645,-46.6455 168.4625,-45.4549"/>
</g>
<!-- epi_mask (epi)&#45;&gt;bs_filter (bspline) -->
<g id="edge17" class="edge">
<title>epi_mask (epi)&#45;&gt;bs_filter (bspline)</title>
<path fill="none" stroke="#000000" d="M222.0696,-144.2022C231.8498,-135.2887 243.8467,-124.3548 254.4976,-114.6476"/>
<polygon fill="#000000" stroke="#000000" points="256.931,-117.1654 261.9643,-107.8425 252.2157,-111.9918 256.931,-117.1654"/>
</g>
<!-- atlas_msk (nibabel)&#45;&gt;syn (fixes) -->
<g id="edge19" class="edge">
<title>atlas_msk (nibabel)&#45;&gt;syn (fixes)</title>
<path fill="none" stroke="#000000" d="M182.5415,-359.8314C182.5415,-352.131 182.5415,-342.9743 182.5415,-334.4166"/>
<polygon fill="#000000" stroke="#000000" points="186.0416,-334.4132 182.5415,-324.4133 179.0416,-334.4133 186.0416,-334.4132"/>
</g>
<!-- bs_filter (bspline)&#45;&gt;outputnode (utility) -->
<g id="edge20" class="edge">
<title>bs_filter (bspline)&#45;&gt;outputnode (utility)</title>
<path fill="none" stroke="#000000" d="M252.559,-72.7542C236.3648,-63.118 215.9907,-50.9945 198.5328,-40.6064"/>
<polygon fill="#000000" stroke="#000000" points="200.0904,-37.4605 189.7069,-35.3546 196.5108,-43.476 200.0904,-37.4605"/>
</g>
</g>
</svg>
