<?xml version="1.0" encoding="UTF-8" standalone="no"?>
<!DOCTYPE svg PUBLIC "-//W3C//DTD SVG 1.1//EN"
 "http://www.w3.org/Graphics/SVG/1.1/DTD/svg11.dtd">
<!-- Generated by graphviz version 2.40.1 (20161225.0304)
 -->
<!-- Title: structs Pages: 1 -->
<svg width="1303pt" height="921pt"
 viewBox="0.00 0.00 1303.00 921.00" xmlns="http://www.w3.org/2000/svg" xmlns:xlink="http://www.w3.org/1999/xlink">
<g id="graph0" class="graph" transform="scale(1 1) rotate(0) translate(4 917)">
<title>structs</title>
<polygon fill="#ffffff" stroke="transparent" points="-4,4 -4,-917 1299,-917 1299,4 -4,4"/>
<!-- pepolar_estimate_wfinputnode -->
<g id="node1" class="node">
<title>pepolar_estimate_wfinputnode</title>
<polygon fill="none" stroke="#000000" points="0,-843.5 0,-912.5 208,-912.5 208,-843.5 0,-843.5"/>
<text text-anchor="middle" x="17.5" y="-874.3" font-family="Times,serif" font-size="14.00" fill="#000000">IN</text>
<polyline fill="none" stroke="#000000" points="35,-843.5 35,-912.5 "/>
<text text-anchor="middle" x="79.5" y="-897.3" font-family="Times,serif" font-size="14.00" fill="#000000">inputnode</text>
<polyline fill="none" stroke="#000000" points="35,-889.5 124,-889.5 "/>
<text text-anchor="middle" x="79.5" y="-874.3" font-family="Times,serif" font-size="14.00" fill="#000000">utility</text>
<polyline fill="none" stroke="#000000" points="35,-866.5 124,-866.5 "/>
<text text-anchor="middle" x="79.5" y="-851.3" font-family="Times,serif" font-size="14.00" fill="#000000"> </text>
<polyline fill="none" stroke="#000000" points="124,-843.5 124,-912.5 "/>
<text text-anchor="middle" x="166" y="-897.3" font-family="Times,serif" font-size="14.00" fill="#000000">OUT</text>
<polyline fill="none" stroke="#000000" points="124,-889.5 208,-889.5 "/>
<text text-anchor="middle" x="166" y="-874.3" font-family="Times,serif" font-size="14.00" fill="#000000">in_data</text>
<polyline fill="none" stroke="#000000" points="124,-866.5 208,-866.5 "/>
<text text-anchor="middle" x="166" y="-851.3" font-family="Times,serif" font-size="14.00" fill="#000000">metadata</text>
</g>
<!-- pepolar_estimate_wfflatten -->
<g id="node2" class="node">
<title>pepolar_estimate_wfflatten</title>
<polygon fill="none" stroke="#000000" points="208.5,-737.5 208.5,-806.5 429.5,-806.5 429.5,-737.5 208.5,-737.5"/>
<text text-anchor="middle" x="245.5" y="-791.3" font-family="Times,serif" font-size="14.00" fill="#000000">IN</text>
<polyline fill="none" stroke="#000000" points="208.5,-783.5 282.5,-783.5 "/>
<text text-anchor="middle" x="245.5" y="-768.3" font-family="Times,serif" font-size="14.00" fill="#000000">in_data</text>
<polyline fill="none" stroke="#000000" points="208.5,-760.5 282.5,-760.5 "/>
<text text-anchor="middle" x="245.5" y="-745.3" font-family="Times,serif" font-size="14.00" fill="#000000">in_meta</text>
<polyline fill="none" stroke="#000000" points="282.5,-737.5 282.5,-806.5 "/>
<text text-anchor="middle" x="314.5" y="-791.3" font-family="Times,serif" font-size="14.00" fill="#000000">flatten</text>
<polyline fill="none" stroke="#000000" points="282.5,-783.5 346.5,-783.5 "/>
<text text-anchor="middle" x="314.5" y="-768.3" font-family="Times,serif" font-size="14.00" fill="#000000">utils</text>
<polyline fill="none" stroke="#000000" points="282.5,-760.5 346.5,-760.5 "/>
<text text-anchor="middle" x="314.5" y="-745.3" font-family="Times,serif" font-size="14.00" fill="#000000"> </text>
<polyline fill="none" stroke="#000000" points="346.5,-737.5 346.5,-806.5 "/>
<text text-anchor="middle" x="388" y="-791.3" font-family="Times,serif" font-size="14.00" fill="#000000">OUT</text>
<polyline fill="none" stroke="#000000" points="346.5,-783.5 429.5,-783.5 "/>
<text text-anchor="middle" x="388" y="-768.3" font-family="Times,serif" font-size="14.00" fill="#000000">out_data</text>
<polyline fill="none" stroke="#000000" points="346.5,-760.5 429.5,-760.5 "/>
<text text-anchor="middle" x="388" y="-745.3" font-family="Times,serif" font-size="14.00" fill="#000000">out_meta</text>
</g>
<!-- pepolar_estimate_wfinputnode&#45;&gt;pepolar_estimate_wfflatten -->
<g id="edge7" class="edge">
<title>pepolar_estimate_wfinputnode:e&#45;&gt;pepolar_estimate_wfflatten:w</title>
<path fill="none" stroke="#000000" d="M208,-878C250.6944,-878 177.3134,-790.9434 198.2437,-774.6202"/>
<polygon fill="#000000" stroke="#000000" points="199.2501,-777.9741 208,-772 197.4344,-771.2136 199.2501,-777.9741"/>
</g>
<!-- pepolar_estimate_wfinputnode&#45;&gt;pepolar_estimate_wfflatten -->
<g id="edge8" class="edge">
<title>pepolar_estimate_wfinputnode:e&#45;&gt;pepolar_estimate_wfflatten:w</title>
<path fill="none" stroke="#000000" d="M208,-855C208,-855 208,-785.6947 208,-759.1637"/>
<polygon fill="#000000" stroke="#000000" points="211.5001,-759 208,-749 204.5001,-759 211.5001,-759"/>
</g>
<!-- pepolar_estimate_wfconcat_blips -->
<g id="node3" class="node">
<title>pepolar_estimate_wfconcat_blips</title>
<polygon fill="none" stroke="#000000" points="166.5,-631.5 166.5,-700.5 411.5,-700.5 411.5,-631.5 166.5,-631.5"/>
<text text-anchor="middle" x="200.5" y="-679.8" font-family="Times,serif" font-size="14.00" fill="#000000">IN</text>
<polyline fill="none" stroke="#000000" points="166.5,-666.5 234.5,-666.5 "/>
<text text-anchor="middle" x="200.5" y="-645.3" font-family="Times,serif" font-size="14.00" fill="#000000">in_files</text>
<polyline fill="none" stroke="#000000" points="234.5,-631.5 234.5,-700.5 "/>
<text text-anchor="middle" x="288" y="-685.3" font-family="Times,serif" font-size="14.00" fill="#000000">concat_blips</text>
<polyline fill="none" stroke="#000000" points="234.5,-677.5 341.5,-677.5 "/>
<text text-anchor="middle" x="288" y="-662.3" font-family="Times,serif" font-size="14.00" fill="#000000">nibabel</text>
<polyline fill="none" stroke="#000000" points="234.5,-654.5 341.5,-654.5 "/>
<text text-anchor="middle" x="288" y="-639.3" font-family="Times,serif" font-size="14.00" fill="#000000"> </text>
<polyline fill="none" stroke="#000000" points="341.5,-631.5 341.5,-700.5 "/>
<text text-anchor="middle" x="376.5" y="-679.8" font-family="Times,serif" font-size="14.00" fill="#000000">OUT</text>
<polyline fill="none" stroke="#000000" points="341.5,-666.5 411.5,-666.5 "/>
<text text-anchor="middle" x="376.5" y="-645.3" font-family="Times,serif" font-size="14.00" fill="#000000">out_file</text>
</g>
<!-- pepolar_estimate_wfflatten&#45;&gt;pepolar_estimate_wfconcat_blips -->
<g id="edge3" class="edge">
<title>pepolar_estimate_wfflatten:e&#45;&gt;pepolar_estimate_wfconcat_blips:w</title>
<path fill="none" stroke="#000000" d="M430,-772C445.5556,-772 440.2294,-748.719 430,-737 352.127,-647.7873 243.873,-790.2127 166,-701 153.5329,-686.7175 145.9679,-660.8758 156.409,-652.05"/>
<polygon fill="#000000" stroke="#000000" points="157.531,-655.366 166,-649 155.4095,-648.6952 157.531,-655.366"/>
</g>
<!-- pepolar_estimate_wfreadout_time -->
<g id="node4" class="node">
<title>pepolar_estimate_wfreadout_time</title>
<polygon fill="none" stroke="#000000" points="430,-631.5 430,-700.5 738,-700.5 738,-631.5 430,-631.5"/>
<text text-anchor="middle" x="472" y="-685.3" font-family="Times,serif" font-size="14.00" fill="#000000">IN</text>
<polyline fill="none" stroke="#000000" points="430,-677.5 514,-677.5 "/>
<text text-anchor="middle" x="472" y="-662.3" font-family="Times,serif" font-size="14.00" fill="#000000">in_file</text>
<polyline fill="none" stroke="#000000" points="430,-654.5 514,-654.5 "/>
<text text-anchor="middle" x="472" y="-639.3" font-family="Times,serif" font-size="14.00" fill="#000000">metadata</text>
<polyline fill="none" stroke="#000000" points="514,-631.5 514,-700.5 "/>
<text text-anchor="middle" x="570" y="-685.3" font-family="Times,serif" font-size="14.00" fill="#000000">readout_time</text>
<polyline fill="none" stroke="#000000" points="514,-677.5 626,-677.5 "/>
<text text-anchor="middle" x="570" y="-662.3" font-family="Times,serif" font-size="14.00" fill="#000000">epi</text>
<polyline fill="none" stroke="#000000" points="514,-654.5 626,-654.5 "/>
<text text-anchor="middle" x="570" y="-639.3" font-family="Times,serif" font-size="14.00" fill="#000000"> </text>
<polyline fill="none" stroke="#000000" points="626,-631.5 626,-700.5 "/>
<text text-anchor="middle" x="682" y="-679.8" font-family="Times,serif" font-size="14.00" fill="#000000">OUT</text>
<polyline fill="none" stroke="#000000" points="626,-666.5 738,-666.5 "/>
<text text-anchor="middle" x="682" y="-645.3" font-family="Times,serif" font-size="14.00" fill="#000000">readout_time</text>
</g>
<!-- pepolar_estimate_wfflatten&#45;&gt;pepolar_estimate_wfreadout_time -->
<g id="edge4" class="edge">
<title>pepolar_estimate_wfflatten:e&#45;&gt;pepolar_estimate_wfreadout_time:w</title>
<path fill="none" stroke="#000000" d="M430,-772C449.691,-772 420.0007,-697.9281 423.4884,-673.6233"/>
<polygon fill="#000000" stroke="#000000" points="426.1664,-675.877 430,-666 420.8438,-671.3305 426.1664,-675.877"/>
</g>
<!-- pepolar_estimate_wfflatten&#45;&gt;pepolar_estimate_wfreadout_time -->
<g id="edge5" class="edge">
<title>pepolar_estimate_wfflatten:e&#45;&gt;pepolar_estimate_wfreadout_time:w</title>
<path fill="none" stroke="#000000" d="M430,-749C430,-749 430,-679.6947 430,-653.1637"/>
<polygon fill="#000000" stroke="#000000" points="433.5001,-653 430,-643 426.5001,-653 433.5001,-653"/>
</g>
<!-- pepolar_estimate_wftopup -->
<g id="node5" class="node">
<title>pepolar_estimate_wftopup</title>
<polygon fill="none" stroke="#000000" points="738.5,-433.5 738.5,-594.5 1067.5,-594.5 1067.5,-433.5 738.5,-433.5"/>
<text text-anchor="middle" x="815.5" y="-570.8" font-family="Times,serif" font-size="14.00" fill="#000000">IN</text>
<polyline fill="none" stroke="#000000" points="738.5,-554.5 892.5,-554.5 "/>
<text text-anchor="middle" x="815.5" y="-530.8" font-family="Times,serif" font-size="14.00" fill="#000000">encoding_direction</text>
<polyline fill="none" stroke="#000000" points="738.5,-514.5 892.5,-514.5 "/>
<text text-anchor="middle" x="815.5" y="-490.8" font-family="Times,serif" font-size="14.00" fill="#000000">in_file</text>
<polyline fill="none" stroke="#000000" points="738.5,-474.5 892.5,-474.5 "/>
<text text-anchor="middle" x="815.5" y="-450.3" font-family="Times,serif" font-size="14.00" fill="#000000">readout_times</text>
<polyline fill="none" stroke="#000000" points="892.5,-433.5 892.5,-594.5 "/>
<text text-anchor="middle" x="921.5" y="-564.3" font-family="Times,serif" font-size="14.00" fill="#000000">topup</text>
<polyline fill="none" stroke="#000000" points="892.5,-541.5 950.5,-541.5 "/>
<text text-anchor="middle" x="921.5" y="-510.8" font-family="Times,serif" font-size="14.00" fill="#000000">fsl</text>
<polyline fill="none" stroke="#000000" points="892.5,-487.5 950.5,-487.5 "/>
<text text-anchor="middle" x="921.5" y="-456.8" font-family="Times,serif" font-size="14.00" fill="#000000"> </text>
<polyline fill="none" stroke="#000000" points="950.5,-433.5 950.5,-594.5 "/>
<text text-anchor="middle" x="1009" y="-579.3" font-family="Times,serif" font-size="14.00" fill="#000000">OUT</text>
<polyline fill="none" stroke="#000000" points="950.5,-571.5 1067.5,-571.5 "/>
<text text-anchor="middle" x="1009" y="-556.3" font-family="Times,serif" font-size="14.00" fill="#000000">out_corrected</text>
<polyline fill="none" stroke="#000000" points="950.5,-548.5 1067.5,-548.5 "/>
<text text-anchor="middle" x="1009" y="-533.3" font-family="Times,serif" font-size="14.00" fill="#000000">out_field</text>
<polyline fill="none" stroke="#000000" points="950.5,-525.5 1067.5,-525.5 "/>
<text text-anchor="middle" x="1009" y="-510.3" font-family="Times,serif" font-size="14.00" fill="#000000">out_fieldcoef</text>
<polyline fill="none" stroke="#000000" points="950.5,-502.5 1067.5,-502.5 "/>
<text text-anchor="middle" x="1009" y="-487.3" font-family="Times,serif" font-size="14.00" fill="#000000">out_jacs</text>
<polyline fill="none" stroke="#000000" points="950.5,-479.5 1067.5,-479.5 "/>
<text text-anchor="middle" x="1009" y="-464.3" font-family="Times,serif" font-size="14.00" fill="#000000">out_mats</text>
<polyline fill="none" stroke="#000000" points="950.5,-456.5 1067.5,-456.5 "/>
<text text-anchor="middle" x="1009" y="-441.3" font-family="Times,serif" font-size="14.00" fill="#000000">out_warps</text>
</g>
<!-- pepolar_estimate_wfflatten&#45;&gt;pepolar_estimate_wftopup -->
<g id="edge6" class="edge">
<title>pepolar_estimate_wfflatten:e&#45;&gt;pepolar_estimate_wftopup:w</title>
<path fill="none" stroke="#000000" d="M430,-749C465.6237,-749 723.7723,-728.0097 747,-701 792.6355,-647.9342 677.4384,-546.4494 727.9645,-535.8935"/>
<polygon fill="#000000" stroke="#000000" points="728.3498,-539.3731 738,-535 727.729,-532.4007 728.3498,-539.3731"/>
</g>
<!-- pepolar_estimate_wfconcat_blips&#45;&gt;pepolar_estimate_wftopup -->
<g id="edge1" class="edge">
<title>pepolar_estimate_wfconcat_blips:e&#45;&gt;pepolar_estimate_wftopup:w</title>
<path fill="none" stroke="#000000" d="M412,-649C420.9443,-649 414.5017,-637.1459 421,-631 530.0053,-527.9047 582.1504,-495.4539 727.8096,-494.0482"/>
<polygon fill="#000000" stroke="#000000" points="728.0167,-497.5474 738,-494 727.9835,-490.5474 728.0167,-497.5474"/>
</g>
<!-- pepolar_estimate_wfreadout_time&#45;&gt;pepolar_estimate_wftopup -->
<g id="edge11" class="edge">
<title>pepolar_estimate_wfreadout_time:e&#45;&gt;pepolar_estimate_wftopup:w</title>
<path fill="none" stroke="#000000" d="M738,-649C738,-649 738,-504.3322 738,-464.2095"/>
<polygon fill="#000000" stroke="#000000" points="741.5001,-464 738,-454 734.5001,-464 741.5001,-464"/>
</g>
<!-- pepolar_estimate_wfmerge_corrected -->
<g id="node6" class="node">
<title>pepolar_estimate_wfmerge_corrected</title>
<polygon fill="none" stroke="#000000" points="691.5,-327.5 691.5,-396.5 972.5,-396.5 972.5,-327.5 691.5,-327.5"/>
<text text-anchor="middle" x="725.5" y="-375.8" font-family="Times,serif" font-size="14.00" fill="#000000">IN</text>
<polyline fill="none" stroke="#000000" points="691.5,-362.5 759.5,-362.5 "/>
<text text-anchor="middle" x="725.5" y="-341.3" font-family="Times,serif" font-size="14.00" fill="#000000">in_files</text>
<polyline fill="none" stroke="#000000" points="759.5,-327.5 759.5,-396.5 "/>
<text text-anchor="middle" x="829.5" y="-381.3" font-family="Times,serif" font-size="14.00" fill="#000000">merge_corrected</text>
<polyline fill="none" stroke="#000000" points="759.5,-373.5 899.5,-373.5 "/>
<text text-anchor="middle" x="829.5" y="-358.3" font-family="Times,serif" font-size="14.00" fill="#000000">images</text>
<polyline fill="none" stroke="#000000" points="759.5,-350.5 899.5,-350.5 "/>
<text text-anchor="middle" x="829.5" y="-335.3" font-family="Times,serif" font-size="14.00" fill="#000000"> </text>
<polyline fill="none" stroke="#000000" points="899.5,-327.5 899.5,-396.5 "/>
<text text-anchor="middle" x="936" y="-375.8" font-family="Times,serif" font-size="14.00" fill="#000000">OUT</text>
<polyline fill="none" stroke="#000000" points="899.5,-362.5 972.5,-362.5 "/>
<text text-anchor="middle" x="936" y="-341.3" font-family="Times,serif" font-size="14.00" fill="#000000">out_avg</text>
</g>
<!-- pepolar_estimate_wftopup&#45;&gt;pepolar_estimate_wfmerge_corrected -->
<g id="edge12" class="edge">
<title>pepolar_estimate_wftopup:e&#45;&gt;pepolar_estimate_wfmerge_corrected:w</title>
<path fill="none" stroke="#000000" d="M1068,-560C1124.4444,-560 1105.9679,-474.7662 1068,-433 1011.3897,-370.7265 747.6103,-459.2735 691,-397 678.2475,-382.9717 670.8653,-356.9671 681.3814,-348.0747"/>
<polygon fill="#000000" stroke="#000000" points="682.5405,-351.3787 691,-345 680.4091,-344.7111 682.5405,-351.3787"/>
</g>
<!-- pepolar_estimate_wfoutputnode -->
<g id="node8" class="node">
<title>pepolar_estimate_wfoutputnode</title>
<polygon fill="none" stroke="#000000" points="1049,-.5 1049,-184.5 1295,-184.5 1295,-.5 1049,-.5"/>
<text text-anchor="middle" x="1098" y="-169.3" font-family="Times,serif" font-size="14.00" fill="#000000">IN</text>
<polyline fill="none" stroke="#000000" points="1049,-161.5 1147,-161.5 "/>
<text text-anchor="middle" x="1098" y="-146.3" font-family="Times,serif" font-size="14.00" fill="#000000">fmap</text>
<polyline fill="none" stroke="#000000" points="1049,-138.5 1147,-138.5 "/>
<text text-anchor="middle" x="1098" y="-123.3" font-family="Times,serif" font-size="14.00" fill="#000000">fmap_coeff</text>
<polyline fill="none" stroke="#000000" points="1049,-115.5 1147,-115.5 "/>
<text text-anchor="middle" x="1098" y="-100.3" font-family="Times,serif" font-size="14.00" fill="#000000">fmap_mask</text>
<polyline fill="none" stroke="#000000" points="1049,-92.5 1147,-92.5 "/>
<text text-anchor="middle" x="1098" y="-77.3" font-family="Times,serif" font-size="14.00" fill="#000000">fmap_ref</text>
<polyline fill="none" stroke="#000000" points="1049,-69.5 1147,-69.5 "/>
<text text-anchor="middle" x="1098" y="-54.3" font-family="Times,serif" font-size="14.00" fill="#000000">jacobians</text>
<polyline fill="none" stroke="#000000" points="1049,-46.5 1147,-46.5 "/>
<text text-anchor="middle" x="1098" y="-31.3" font-family="Times,serif" font-size="14.00" fill="#000000">out_warps</text>
<polyline fill="none" stroke="#000000" points="1049,-23.5 1147,-23.5 "/>
<text text-anchor="middle" x="1098" y="-8.3" font-family="Times,serif" font-size="14.00" fill="#000000">xfms</text>
<polyline fill="none" stroke="#000000" points="1147,-.5 1147,-184.5 "/>
<text text-anchor="middle" x="1196" y="-150.3" font-family="Times,serif" font-size="14.00" fill="#000000">outputnode</text>
<polyline fill="none" stroke="#000000" points="1147,-123.5 1245,-123.5 "/>
<text text-anchor="middle" x="1196" y="-89.3" font-family="Times,serif" font-size="14.00" fill="#000000">utility</text>
<polyline fill="none" stroke="#000000" points="1147,-62.5 1245,-62.5 "/>
<text text-anchor="middle" x="1196" y="-27.8" font-family="Times,serif" font-size="14.00" fill="#000000"> </text>
<polyline fill="none" stroke="#000000" points="1245,-.5 1245,-184.5 "/>
<text text-anchor="middle" x="1270" y="-88.8" font-family="Times,serif" font-size="14.00" fill="#000000">OUT</text>
</g>
<!-- pepolar_estimate_wftopup&#45;&gt;pepolar_estimate_wfoutputnode -->
<g id="edge13" class="edge">
<title>pepolar_estimate_wftopup:e&#45;&gt;pepolar_estimate_wfoutputnode:w</title>
<path fill="none" stroke="#000000" d="M1068,-537C1114.2222,-537 1084.7566,-476.0779 1068,-433 1060.1314,-412.7714 1042.8686,-417.2286 1035,-397 1006.6426,-324.0989 1027.3453,-298.8468 1035,-221 1037.7109,-193.4305 1022.2251,-160.6599 1038.8965,-152.4415"/>
<polygon fill="#000000" stroke="#000000" points="1039.8401,-155.8242 1049,-150.5 1038.5192,-148.95 1039.8401,-155.8242"/>
</g>
<!-- pepolar_estimate_wftopup&#45;&gt;pepolar_estimate_wfoutputnode -->
<g id="edge14" class="edge">
<title>pepolar_estimate_wftopup:e&#45;&gt;pepolar_estimate_wfoutputnode:w</title>
<path fill="none" stroke="#000000" d="M1068,-514C1107.6372,-514 1021.5055,-185.5316 1041.4914,-134.2084"/>
<polygon fill="#000000" stroke="#000000" points="1043.8746,-136.7726 1049,-127.5 1039.2108,-131.5525 1043.8746,-136.7726"/>
</g>
<!-- pepolar_estimate_wftopup&#45;&gt;pepolar_estimate_wfoutputnode -->
<g id="edge15" class="edge">
<title>pepolar_estimate_wftopup:e&#45;&gt;pepolar_estimate_wfoutputnode:w</title>
<path fill="none" stroke="#000000" d="M1068,-491C1109.8368,-491 1071.8885,-438.8221 1073,-397 1075.0822,-318.6528 1079.4837,-297.3998 1062,-221 1058.2052,-204.4174 1051.9328,-201.7565 1049,-185 1039.8792,-132.8885 998.3981,-66.9503 1039.0398,-58.4227"/>
<polygon fill="#000000" stroke="#000000" points="1039.3655,-61.9076 1049,-57.5 1038.7198,-54.9374 1039.3655,-61.9076"/>
</g>
<!-- pepolar_estimate_wftopup&#45;&gt;pepolar_estimate_wfoutputnode -->
<g id="edge16" class="edge">
<title>pepolar_estimate_wftopup:e&#45;&gt;pepolar_estimate_wfoutputnode:w</title>
<path fill="none" stroke="#000000" d="M1068,-468C1100.7836,-468 1083.5133,-429.4751 1088,-397 1098.7137,-319.4525 1111.2177,-293.2169 1081,-221 1072.7368,-201.2518 1056.6077,-205.0098 1049,-185 1022.8808,-116.3012 976.4999,-20.9439 1038.9769,-12.1551"/>
<polygon fill="#000000" stroke="#000000" points="1039.2496,-15.6448 1049,-11.5 1038.793,-8.6597 1039.2496,-15.6448"/>
</g>
<!-- pepolar_estimate_wftopup&#45;&gt;pepolar_estimate_wfoutputnode -->
<g id="edge17" class="edge">
<title>pepolar_estimate_wftopup:e&#45;&gt;pepolar_estimate_wfoutputnode:w</title>
<path fill="none" stroke="#000000" d="M1068,-445C1168.8331,-445 1153.2036,-309.0132 1104,-221 1089.7438,-195.4992 1062.894,-210.7 1049,-185 1018.929,-129.3773 985.938,-44.4271 1038.9237,-35.302"/>
<polygon fill="#000000" stroke="#000000" points="1039.3093,-38.7825 1049,-34.5 1038.7538,-31.8046 1039.3093,-38.7825"/>
</g>
<!-- pepolar_estimate_wfepi_mask -->
<g id="node7" class="node">
<title>pepolar_estimate_wfepi_mask</title>
<polygon fill="none" stroke="#000000" points="731,-221.5 731,-290.5 945,-290.5 945,-221.5 731,-221.5"/>
<text text-anchor="middle" x="761" y="-269.8" font-family="Times,serif" font-size="14.00" fill="#000000">IN</text>
<polyline fill="none" stroke="#000000" points="731,-256.5 791,-256.5 "/>
<text text-anchor="middle" x="761" y="-235.3" font-family="Times,serif" font-size="14.00" fill="#000000">in_file</text>
<polyline fill="none" stroke="#000000" points="791,-221.5 791,-290.5 "/>
<text text-anchor="middle" x="833" y="-275.3" font-family="Times,serif" font-size="14.00" fill="#000000">epi_mask</text>
<polyline fill="none" stroke="#000000" points="791,-267.5 875,-267.5 "/>
<text text-anchor="middle" x="833" y="-252.3" font-family="Times,serif" font-size="14.00" fill="#000000">epi</text>
<polyline fill="none" stroke="#000000" points="791,-244.5 875,-244.5 "/>
<text text-anchor="middle" x="833" y="-229.3" font-family="Times,serif" font-size="14.00" fill="#000000"> </text>
<polyline fill="none" stroke="#000000" points="875,-221.5 875,-290.5 "/>
<text text-anchor="middle" x="910" y="-269.8" font-family="Times,serif" font-size="14.00" fill="#000000">OUT</text>
<polyline fill="none" stroke="#000000" points="875,-256.5 945,-256.5 "/>
<text text-anchor="middle" x="910" y="-235.3" font-family="Times,serif" font-size="14.00" fill="#000000">out_file</text>
</g>
<!-- pepolar_estimate_wfmerge_corrected&#45;&gt;pepolar_estimate_wfepi_mask -->
<g id="edge9" class="edge">
<title>pepolar_estimate_wfmerge_corrected:e&#45;&gt;pepolar_estimate_wfepi_mask:w</title>
<path fill="none" stroke="#000000" d="M973,-345C981,-345 978.2241,-333.0588 973,-327 901.9917,-244.647 802.0083,-373.353 731,-291 718.6199,-276.642 710.9991,-250.8486 721.4175,-242.0427"/>
<polygon fill="#000000" stroke="#000000" points="722.5282,-245.3623 731,-239 720.4097,-238.6906 722.5282,-245.3623"/>
</g>
<!-- pepolar_estimate_wfmerge_corrected&#45;&gt;pepolar_estimate_wfoutputnode -->
<g id="edge10" class="edge">
<title>pepolar_estimate_wfmerge_corrected:e&#45;&gt;pepolar_estimate_wfoutputnode:w</title>
<path fill="none" stroke="#000000" d="M973,-345C1001.0669,-345 989.4372,-248.0288 997,-221 1013.9604,-160.3854 985.8225,-88.8173 1038.9408,-81.1708"/>
<polygon fill="#000000" stroke="#000000" points="1039.2551,-84.6577 1049,-80.5 1038.7893,-77.6732 1039.2551,-84.6577"/>
</g>
<!-- pepolar_estimate_wfepi_mask&#45;&gt;pepolar_estimate_wfoutputnode -->
<g id="edge2" class="edge">
<title>pepolar_estimate_wfepi_mask:e&#45;&gt;pepolar_estimate_wfoutputnode:w</title>
<path fill="none" stroke="#000000" d="M945,-239C945.2514,-239 1020.2771,-141.4662 1042.7271,-112.5108"/>
<polygon fill="#000000" stroke="#000000" points="1045.5904,-114.5312 1049,-104.5 1040.079,-110.2155 1045.5904,-114.5312"/>
</g>
</g>
</svg>
