<?xml version="1.0" encoding="UTF-8" standalone="no"?>
<!DOCTYPE svg PUBLIC "-//W3C//DTD SVG 1.1//EN"
 "http://www.w3.org/Graphics/SVG/1.1/DTD/svg11.dtd">
<!-- Generated by graphviz version 2.40.1 (20161225.0304)
 -->
<!-- Title: structs Pages: 1 -->
<svg width="1322pt" height="921pt"
 viewBox="0.00 0.00 1322.00 921.00" xmlns="http://www.w3.org/2000/svg" xmlns:xlink="http://www.w3.org/1999/xlink">
<g id="graph0" class="graph" transform="scale(1 1) rotate(0) translate(4 917)">
<title>structs</title>
<polygon fill="#ffffff" stroke="transparent" points="-4,4 -4,-917 1318,-917 1318,4 -4,4"/>
<!-- pepolar_estimate_wfinputnode -->
<g id="node1" class="node">
<title>pepolar_estimate_wfinputnode</title>
<polygon fill="none" stroke="#000000" points="0,-843.5 0,-912.5 208,-912.5 208,-843.5 0,-843.5"/>
<text text-anchor="middle" x="17.5" y="-874.3" font-family="Times,serif" font-size="14.00" fill="#000000">IN</text>
<polyline fill="none" stroke="#000000" points="35,-843.5 35,-912.5 "/>
<text text-anchor="middle" x="79.5" y="-897.3" font-family="Times,serif" font-size="14.00" fill="#000000">inputnode</text>
<polyline fill="none" stroke="#000000" points="35,-889.5 124,-889.5 "/>
<text text-anchor="middle" x="79.5" y="-874.3" font-family="Times,serif" font-size="14.00" fill="#000000">utility</text>
<polyline fill="none" stroke="#000000" points="35,-866.5 124,-866.5 "/>
<text text-anchor="middle" x="79.5" y="-851.3" font-family="Times,serif" font-size="14.00" fill="#000000"> </text>
<polyline fill="none" stroke="#000000" points="124,-843.5 124,-912.5 "/>
<text text-anchor="middle" x="166" y="-897.3" font-family="Times,serif" font-size="14.00" fill="#000000">OUT</text>
<polyline fill="none" stroke="#000000" points="124,-889.5 208,-889.5 "/>
<text text-anchor="middle" x="166" y="-874.3" font-family="Times,serif" font-size="14.00" fill="#000000">in_data</text>
<polyline fill="none" stroke="#000000" points="124,-866.5 208,-866.5 "/>
<text text-anchor="middle" x="166" y="-851.3" font-family="Times,serif" font-size="14.00" fill="#000000">metadata</text>
</g>
<!-- pepolar_estimate_wfflatten -->
<g id="node2" class="node">
<title>pepolar_estimate_wfflatten</title>
<polygon fill="none" stroke="#000000" points="208.5,-737.5 208.5,-806.5 429.5,-806.5 429.5,-737.5 208.5,-737.5"/>
<text text-anchor="middle" x="245.5" y="-791.3" font-family="Times,serif" font-size="14.00" fill="#000000">IN</text>
<polyline fill="none" stroke="#000000" points="208.5,-783.5 282.5,-783.5 "/>
<text text-anchor="middle" x="245.5" y="-768.3" font-family="Times,serif" font-size="14.00" fill="#000000">in_data</text>
<polyline fill="none" stroke="#000000" points="208.5,-760.5 282.5,-760.5 "/>
<text text-anchor="middle" x="245.5" y="-745.3" font-family="Times,serif" font-size="14.00" fill="#000000">in_meta</text>
<polyline fill="none" stroke="#000000" points="282.5,-737.5 282.5,-806.5 "/>
<text text-anchor="middle" x="314.5" y="-791.3" font-family="Times,serif" font-size="14.00" fill="#000000">flatten</text>
<polyline fill="none" stroke="#000000" points="282.5,-783.5 346.5,-783.5 "/>
<text text-anchor="middle" x="314.5" y="-768.3" font-family="Times,serif" font-size="14.00" fill="#000000">utils</text>
<polyline fill="none" stroke="#000000" points="282.5,-760.5 346.5,-760.5 "/>
<text text-anchor="middle" x="314.5" y="-745.3" font-family="Times,serif" font-size="14.00" fill="#000000"> </text>
<polyline fill="none" stroke="#000000" points="346.5,-737.5 346.5,-806.5 "/>
<text text-anchor="middle" x="388" y="-791.3" font-family="Times,serif" font-size="14.00" fill="#000000">OUT</text>
<polyline fill="none" stroke="#000000" points="346.5,-783.5 429.5,-783.5 "/>
<text text-anchor="middle" x="388" y="-768.3" font-family="Times,serif" font-size="14.00" fill="#000000">out_data</text>
<polyline fill="none" stroke="#000000" points="346.5,-760.5 429.5,-760.5 "/>
<text text-anchor="middle" x="388" y="-745.3" font-family="Times,serif" font-size="14.00" fill="#000000">out_meta</text>
</g>
<!-- pepolar_estimate_wfinputnode&#45;&gt;pepolar_estimate_wfflatten -->
<g id="edge8" class="edge">
<title>pepolar_estimate_wfinputnode:e&#45;&gt;pepolar_estimate_wfflatten:w</title>
<path fill="none" stroke="#000000" d="M208,-878C250.6944,-878 177.3134,-790.9434 198.2437,-774.6202"/>
<polygon fill="#000000" stroke="#000000" points="199.2501,-777.9741 208,-772 197.4344,-771.2136 199.2501,-777.9741"/>
</g>
<!-- pepolar_estimate_wfinputnode&#45;&gt;pepolar_estimate_wfflatten -->
<g id="edge9" class="edge">
<title>pepolar_estimate_wfinputnode:e&#45;&gt;pepolar_estimate_wfflatten:w</title>
<path fill="none" stroke="#000000" d="M208,-855C208,-855 208,-785.6947 208,-759.1637"/>
<polygon fill="#000000" stroke="#000000" points="211.5001,-759 208,-749 204.5001,-759 211.5001,-759"/>
</g>
<!-- pepolar_estimate_wfconcat_blips -->
<g id="node3" class="node">
<title>pepolar_estimate_wfconcat_blips</title>
<polygon fill="none" stroke="#000000" points="166.5,-631.5 166.5,-700.5 411.5,-700.5 411.5,-631.5 166.5,-631.5"/>
<text text-anchor="middle" x="200.5" y="-679.8" font-family="Times,serif" font-size="14.00" fill="#000000">IN</text>
<polyline fill="none" stroke="#000000" points="166.5,-666.5 234.5,-666.5 "/>
<text text-anchor="middle" x="200.5" y="-645.3" font-family="Times,serif" font-size="14.00" fill="#000000">in_files</text>
<polyline fill="none" stroke="#000000" points="234.5,-631.5 234.5,-700.5 "/>
<text text-anchor="middle" x="288" y="-685.3" font-family="Times,serif" font-size="14.00" fill="#000000">concat_blips</text>
<polyline fill="none" stroke="#000000" points="234.5,-677.5 341.5,-677.5 "/>
<text text-anchor="middle" x="288" y="-662.3" font-family="Times,serif" font-size="14.00" fill="#000000">nibabel</text>
<polyline fill="none" stroke="#000000" points="234.5,-654.5 341.5,-654.5 "/>
<text text-anchor="middle" x="288" y="-639.3" font-family="Times,serif" font-size="14.00" fill="#000000"> </text>
<polyline fill="none" stroke="#000000" points="341.5,-631.5 341.5,-700.5 "/>
<text text-anchor="middle" x="376.5" y="-679.8" font-family="Times,serif" font-size="14.00" fill="#000000">OUT</text>
<polyline fill="none" stroke="#000000" points="341.5,-666.5 411.5,-666.5 "/>
<text text-anchor="middle" x="376.5" y="-645.3" font-family="Times,serif" font-size="14.00" fill="#000000">out_file</text>
</g>
<!-- pepolar_estimate_wfflatten&#45;&gt;pepolar_estimate_wfconcat_blips -->
<g id="edge4" class="edge">
<title>pepolar_estimate_wfflatten:e&#45;&gt;pepolar_estimate_wfconcat_blips:w</title>
<path fill="none" stroke="#000000" d="M430,-772C445.5556,-772 440.2294,-748.719 430,-737 352.127,-647.7873 243.873,-790.2127 166,-701 153.5329,-686.7175 145.9679,-660.8758 156.409,-652.05"/>
<polygon fill="#000000" stroke="#000000" points="157.531,-655.366 166,-649 155.4095,-648.6952 157.531,-655.366"/>
</g>
<!-- pepolar_estimate_wfreadout_time -->
<g id="node4" class="node">
<title>pepolar_estimate_wfreadout_time</title>
<polygon fill="none" stroke="#000000" points="430,-631.5 430,-700.5 738,-700.5 738,-631.5 430,-631.5"/>
<text text-anchor="middle" x="472" y="-685.3" font-family="Times,serif" font-size="14.00" fill="#000000">IN</text>
<polyline fill="none" stroke="#000000" points="430,-677.5 514,-677.5 "/>
<text text-anchor="middle" x="472" y="-662.3" font-family="Times,serif" font-size="14.00" fill="#000000">in_file</text>
<polyline fill="none" stroke="#000000" points="430,-654.5 514,-654.5 "/>
<text text-anchor="middle" x="472" y="-639.3" font-family="Times,serif" font-size="14.00" fill="#000000">metadata</text>
<polyline fill="none" stroke="#000000" points="514,-631.5 514,-700.5 "/>
<text text-anchor="middle" x="570" y="-685.3" font-family="Times,serif" font-size="14.00" fill="#000000">readout_time</text>
<polyline fill="none" stroke="#000000" points="514,-677.5 626,-677.5 "/>
<text text-anchor="middle" x="570" y="-662.3" font-family="Times,serif" font-size="14.00" fill="#000000">epi</text>
<polyline fill="none" stroke="#000000" points="514,-654.5 626,-654.5 "/>
<text text-anchor="middle" x="570" y="-639.3" font-family="Times,serif" font-size="14.00" fill="#000000"> </text>
<polyline fill="none" stroke="#000000" points="626,-631.5 626,-700.5 "/>
<text text-anchor="middle" x="682" y="-679.8" font-family="Times,serif" font-size="14.00" fill="#000000">OUT</text>
<polyline fill="none" stroke="#000000" points="626,-666.5 738,-666.5 "/>
<text text-anchor="middle" x="682" y="-645.3" font-family="Times,serif" font-size="14.00" fill="#000000">readout_time</text>
</g>
<!-- pepolar_estimate_wfflatten&#45;&gt;pepolar_estimate_wfreadout_time -->
<g id="edge5" class="edge">
<title>pepolar_estimate_wfflatten:e&#45;&gt;pepolar_estimate_wfreadout_time:w</title>
<path fill="none" stroke="#000000" d="M430,-772C449.691,-772 420.0007,-697.9281 423.4884,-673.6233"/>
<polygon fill="#000000" stroke="#000000" points="426.1664,-675.877 430,-666 420.8438,-671.3305 426.1664,-675.877"/>
</g>
<!-- pepolar_estimate_wfflatten&#45;&gt;pepolar_estimate_wfreadout_time -->
<g id="edge6" class="edge">
<title>pepolar_estimate_wfflatten:e&#45;&gt;pepolar_estimate_wfreadout_time:w</title>
<path fill="none" stroke="#000000" d="M430,-749C430,-749 430,-679.6947 430,-653.1637"/>
<polygon fill="#000000" stroke="#000000" points="433.5001,-653 430,-643 426.5001,-653 433.5001,-653"/>
</g>
<!-- pepolar_estimate_wftopup -->
<g id="node5" class="node">
<title>pepolar_estimate_wftopup</title>
<polygon fill="none" stroke="#000000" points="738.5,-433.5 738.5,-594.5 1067.5,-594.5 1067.5,-433.5 738.5,-433.5"/>
<text text-anchor="middle" x="815.5" y="-570.8" font-family="Times,serif" font-size="14.00" fill="#000000">IN</text>
<polyline fill="none" stroke="#000000" points="738.5,-554.5 892.5,-554.5 "/>
<text text-anchor="middle" x="815.5" y="-530.8" font-family="Times,serif" font-size="14.00" fill="#000000">encoding_direction</text>
<polyline fill="none" stroke="#000000" points="738.5,-514.5 892.5,-514.5 "/>
<text text-anchor="middle" x="815.5" y="-490.8" font-family="Times,serif" font-size="14.00" fill="#000000">in_file</text>
<polyline fill="none" stroke="#000000" points="738.5,-474.5 892.5,-474.5 "/>
<text text-anchor="middle" x="815.5" y="-450.3" font-family="Times,serif" font-size="14.00" fill="#000000">readout_times</text>
<polyline fill="none" stroke="#000000" points="892.5,-433.5 892.5,-594.5 "/>
<text text-anchor="middle" x="921.5" y="-564.3" font-family="Times,serif" font-size="14.00" fill="#000000">topup</text>
<polyline fill="none" stroke="#000000" points="892.5,-541.5 950.5,-541.5 "/>
<text text-anchor="middle" x="921.5" y="-510.8" font-family="Times,serif" font-size="14.00" fill="#000000">fsl</text>
<polyline fill="none" stroke="#000000" points="892.5,-487.5 950.5,-487.5 "/>
<text text-anchor="middle" x="921.5" y="-456.8" font-family="Times,serif" font-size="14.00" fill="#000000"> </text>
<polyline fill="none" stroke="#000000" points="950.5,-433.5 950.5,-594.5 "/>
<text text-anchor="middle" x="1009" y="-579.3" font-family="Times,serif" font-size="14.00" fill="#000000">OUT</text>
<polyline fill="none" stroke="#000000" points="950.5,-571.5 1067.5,-571.5 "/>
<text text-anchor="middle" x="1009" y="-556.3" font-family="Times,serif" font-size="14.00" fill="#000000">out_corrected</text>
<polyline fill="none" stroke="#000000" points="950.5,-548.5 1067.5,-548.5 "/>
<text text-anchor="middle" x="1009" y="-533.3" font-family="Times,serif" font-size="14.00" fill="#000000">out_field</text>
<polyline fill="none" stroke="#000000" points="950.5,-525.5 1067.5,-525.5 "/>
<text text-anchor="middle" x="1009" y="-510.3" font-family="Times,serif" font-size="14.00" fill="#000000">out_fieldcoef</text>
<polyline fill="none" stroke="#000000" points="950.5,-502.5 1067.5,-502.5 "/>
<text text-anchor="middle" x="1009" y="-487.3" font-family="Times,serif" font-size="14.00" fill="#000000">out_jacs</text>
<polyline fill="none" stroke="#000000" points="950.5,-479.5 1067.5,-479.5 "/>
<text text-anchor="middle" x="1009" y="-464.3" font-family="Times,serif" font-size="14.00" fill="#000000">out_mats</text>
<polyline fill="none" stroke="#000000" points="950.5,-456.5 1067.5,-456.5 "/>
<text text-anchor="middle" x="1009" y="-441.3" font-family="Times,serif" font-size="14.00" fill="#000000">out_warps</text>
</g>
<!-- pepolar_estimate_wfflatten&#45;&gt;pepolar_estimate_wftopup -->
<g id="edge7" class="edge">
<title>pepolar_estimate_wfflatten:e&#45;&gt;pepolar_estimate_wftopup:w</title>
<path fill="none" stroke="#000000" d="M430,-749C465.6237,-749 723.7723,-728.0097 747,-701 792.6355,-647.9342 677.4384,-546.4494 727.9645,-535.8935"/>
<polygon fill="#000000" stroke="#000000" points="728.3498,-539.3731 738,-535 727.729,-532.4007 728.3498,-539.3731"/>
</g>
<!-- pepolar_estimate_wfconcat_blips&#45;&gt;pepolar_estimate_wftopup -->
<g id="edge2" class="edge">
<title>pepolar_estimate_wfconcat_blips:e&#45;&gt;pepolar_estimate_wftopup:w</title>
<path fill="none" stroke="#000000" d="M412,-649C420.9443,-649 414.5017,-637.1459 421,-631 530.0053,-527.9047 582.1504,-495.4539 727.8096,-494.0482"/>
<polygon fill="#000000" stroke="#000000" points="728.0167,-497.5474 738,-494 727.9835,-490.5474 728.0167,-497.5474"/>
</g>
<!-- pepolar_estimate_wfreadout_time&#45;&gt;pepolar_estimate_wftopup -->
<g id="edge12" class="edge">
<title>pepolar_estimate_wfreadout_time:e&#45;&gt;pepolar_estimate_wftopup:w</title>
<path fill="none" stroke="#000000" d="M738,-649C738,-649 738,-504.3322 738,-464.2095"/>
<polygon fill="#000000" stroke="#000000" points="741.5001,-464 738,-454 734.5001,-464 741.5001,-464"/>
</g>
<!-- pepolar_estimate_wffix_coeff -->
<g id="node6" class="node">
<title>pepolar_estimate_wffix_coeff</title>
<polygon fill="none" stroke="#000000" points="495,-327.5 495,-396.5 735,-396.5 735,-327.5 495,-327.5"/>
<text text-anchor="middle" x="535" y="-381.3" font-family="Times,serif" font-size="14.00" fill="#000000">IN</text>
<polyline fill="none" stroke="#000000" points="495,-373.5 575,-373.5 "/>
<text text-anchor="middle" x="535" y="-358.3" font-family="Times,serif" font-size="14.00" fill="#000000">fmap_ref</text>
<polyline fill="none" stroke="#000000" points="495,-350.5 575,-350.5 "/>
<text text-anchor="middle" x="535" y="-335.3" font-family="Times,serif" font-size="14.00" fill="#000000">in_coeff</text>
<polyline fill="none" stroke="#000000" points="575,-327.5 575,-396.5 "/>
<text text-anchor="middle" x="613.5" y="-381.3" font-family="Times,serif" font-size="14.00" fill="#000000">fix_coeff</text>
<polyline fill="none" stroke="#000000" points="575,-373.5 652,-373.5 "/>
<text text-anchor="middle" x="613.5" y="-358.3" font-family="Times,serif" font-size="14.00" fill="#000000">bspline</text>
<polyline fill="none" stroke="#000000" points="575,-350.5 652,-350.5 "/>
<text text-anchor="middle" x="613.5" y="-335.3" font-family="Times,serif" font-size="14.00" fill="#000000"> </text>
<polyline fill="none" stroke="#000000" points="652,-327.5 652,-396.5 "/>
<text text-anchor="middle" x="693.5" y="-375.8" font-family="Times,serif" font-size="14.00" fill="#000000">OUT</text>
<polyline fill="none" stroke="#000000" points="652,-362.5 735,-362.5 "/>
<text text-anchor="middle" x="693.5" y="-341.3" font-family="Times,serif" font-size="14.00" fill="#000000">out_coeff</text>
</g>
<!-- pepolar_estimate_wftopup&#45;&gt;pepolar_estimate_wffix_coeff -->
<g id="edge13" class="edge">
<title>pepolar_estimate_wftopup:e&#45;&gt;pepolar_estimate_wffix_coeff:w</title>
<path fill="none" stroke="#000000" d="M1068,-560C1124.4444,-560 1106.6407,-474.1445 1068,-433 980.6584,-339.9988 582.3416,-490.0012 495,-397 487.4292,-388.9386 482.7609,-374.6494 486.2842,-367.062"/>
<polygon fill="#000000" stroke="#000000" points="488.1104,-370.0489 495,-362 484.5948,-363.9957 488.1104,-370.0489"/>
</g>
<!-- pepolar_estimate_wftopup&#45;&gt;pepolar_estimate_wffix_coeff -->
<g id="edge16" class="edge">
<title>pepolar_estimate_wftopup:e&#45;&gt;pepolar_estimate_wffix_coeff:w</title>
<path fill="none" stroke="#000000" d="M1068,-514C1104,-514 1092.6448,-459.2418 1068,-433 980.6584,-339.9988 582.3416,-490.0012 495,-397 480.1104,-381.1456 471.9954,-350.7545 485.3072,-341.6443"/>
<polygon fill="#000000" stroke="#000000" points="486.2738,-345.0086 495,-339 484.4314,-338.2554 486.2738,-345.0086"/>
</g>
<!-- pepolar_estimate_wfmerge_corrected -->
<g id="node7" class="node">
<title>pepolar_estimate_wfmerge_corrected</title>
<polygon fill="none" stroke="#000000" points="753.5,-327.5 753.5,-396.5 1034.5,-396.5 1034.5,-327.5 753.5,-327.5"/>
<text text-anchor="middle" x="787.5" y="-375.8" font-family="Times,serif" font-size="14.00" fill="#000000">IN</text>
<polyline fill="none" stroke="#000000" points="753.5,-362.5 821.5,-362.5 "/>
<text text-anchor="middle" x="787.5" y="-341.3" font-family="Times,serif" font-size="14.00" fill="#000000">in_files</text>
<polyline fill="none" stroke="#000000" points="821.5,-327.5 821.5,-396.5 "/>
<text text-anchor="middle" x="891.5" y="-381.3" font-family="Times,serif" font-size="14.00" fill="#000000">merge_corrected</text>
<polyline fill="none" stroke="#000000" points="821.5,-373.5 961.5,-373.5 "/>
<text text-anchor="middle" x="891.5" y="-358.3" font-family="Times,serif" font-size="14.00" fill="#000000">images</text>
<polyline fill="none" stroke="#000000" points="821.5,-350.5 961.5,-350.5 "/>
<text text-anchor="middle" x="891.5" y="-335.3" font-family="Times,serif" font-size="14.00" fill="#000000"> </text>
<polyline fill="none" stroke="#000000" points="961.5,-327.5 961.5,-396.5 "/>
<text text-anchor="middle" x="998" y="-375.8" font-family="Times,serif" font-size="14.00" fill="#000000">OUT</text>
<polyline fill="none" stroke="#000000" points="961.5,-362.5 1034.5,-362.5 "/>
<text text-anchor="middle" x="998" y="-341.3" font-family="Times,serif" font-size="14.00" fill="#000000">out_avg</text>
</g>
<!-- pepolar_estimate_wftopup&#45;&gt;pepolar_estimate_wfmerge_corrected -->
<g id="edge14" class="edge">
<title>pepolar_estimate_wftopup:e&#45;&gt;pepolar_estimate_wfmerge_corrected:w</title>
<path fill="none" stroke="#000000" d="M1068,-560C1124.4444,-560 1105.578,-475.1173 1068,-433 974.1879,-327.8559 846.8121,-502.1441 753,-397 747.4105,-390.7353 743.8431,-366.1235 746.7423,-353.1324"/>
<polygon fill="#000000" stroke="#000000" points="749.6754,-355.0597 753,-345 744.1277,-350.7908 749.6754,-355.0597"/>
</g>
<!-- pepolar_estimate_wfoutputnode -->
<g id="node9" class="node">
<title>pepolar_estimate_wfoutputnode</title>
<polygon fill="none" stroke="#000000" points="1068,-.5 1068,-184.5 1314,-184.5 1314,-.5 1068,-.5"/>
<text text-anchor="middle" x="1117" y="-169.3" font-family="Times,serif" font-size="14.00" fill="#000000">IN</text>
<polyline fill="none" stroke="#000000" points="1068,-161.5 1166,-161.5 "/>
<text text-anchor="middle" x="1117" y="-146.3" font-family="Times,serif" font-size="14.00" fill="#000000">fmap</text>
<polyline fill="none" stroke="#000000" points="1068,-138.5 1166,-138.5 "/>
<text text-anchor="middle" x="1117" y="-123.3" font-family="Times,serif" font-size="14.00" fill="#000000">fmap_coeff</text>
<polyline fill="none" stroke="#000000" points="1068,-115.5 1166,-115.5 "/>
<text text-anchor="middle" x="1117" y="-100.3" font-family="Times,serif" font-size="14.00" fill="#000000">fmap_mask</text>
<polyline fill="none" stroke="#000000" points="1068,-92.5 1166,-92.5 "/>
<text text-anchor="middle" x="1117" y="-77.3" font-family="Times,serif" font-size="14.00" fill="#000000">fmap_ref</text>
<polyline fill="none" stroke="#000000" points="1068,-69.5 1166,-69.5 "/>
<text text-anchor="middle" x="1117" y="-54.3" font-family="Times,serif" font-size="14.00" fill="#000000">jacobians</text>
<polyline fill="none" stroke="#000000" points="1068,-46.5 1166,-46.5 "/>
<text text-anchor="middle" x="1117" y="-31.3" font-family="Times,serif" font-size="14.00" fill="#000000">out_warps</text>
<polyline fill="none" stroke="#000000" points="1068,-23.5 1166,-23.5 "/>
<text text-anchor="middle" x="1117" y="-8.3" font-family="Times,serif" font-size="14.00" fill="#000000">xfms</text>
<polyline fill="none" stroke="#000000" points="1166,-.5 1166,-184.5 "/>
<text text-anchor="middle" x="1215" y="-150.3" font-family="Times,serif" font-size="14.00" fill="#000000">outputnode</text>
<polyline fill="none" stroke="#000000" points="1166,-123.5 1264,-123.5 "/>
<text text-anchor="middle" x="1215" y="-89.3" font-family="Times,serif" font-size="14.00" fill="#000000">utility</text>
<polyline fill="none" stroke="#000000" points="1166,-62.5 1264,-62.5 "/>
<text text-anchor="middle" x="1215" y="-27.8" font-family="Times,serif" font-size="14.00" fill="#000000"> </text>
<polyline fill="none" stroke="#000000" points="1264,-.5 1264,-184.5 "/>
<text text-anchor="middle" x="1289" y="-88.8" font-family="Times,serif" font-size="14.00" fill="#000000">OUT</text>
</g>
<!-- pepolar_estimate_wftopup&#45;&gt;pepolar_estimate_wfoutputnode -->
<g id="edge15" class="edge">
<title>pepolar_estimate_wftopup:e&#45;&gt;pepolar_estimate_wfoutputnode:w</title>
<path fill="none" stroke="#000000" d="M1068,-537C1107.5894,-537 1037.6894,-208.5316 1060.171,-157.2084"/>
<polygon fill="#000000" stroke="#000000" points="1062.6838,-159.6645 1068,-150.5 1058.129,-154.349 1062.6838,-159.6645"/>
</g>
<!-- pepolar_estimate_wftopup&#45;&gt;pepolar_estimate_wfoutputnode -->
<g id="edge17" class="edge">
<title>pepolar_estimate_wftopup:e&#45;&gt;pepolar_estimate_wfoutputnode:w</title>
<path fill="none" stroke="#000000" d="M1068,-491C1110.3063,-491 1079.6562,-439.174 1083,-397 1089.1925,-318.8967 1082.0707,-298.8215 1073,-221 1071.1298,-204.955 1069.1138,-201.1151 1068,-185 1064.3676,-132.4431 1018.5111,-67.4085 1057.6148,-58.5229"/>
<polygon fill="#000000" stroke="#000000" points="1058.3913,-61.9634 1068,-57.5 1057.7051,-54.9971 1058.3913,-61.9634"/>
</g>
<!-- pepolar_estimate_wftopup&#45;&gt;pepolar_estimate_wfoutputnode -->
<g id="edge18" class="edge">
<title>pepolar_estimate_wftopup:e&#45;&gt;pepolar_estimate_wfoutputnode:w</title>
<path fill="none" stroke="#000000" d="M1068,-468C1102.2568,-468 1091.1979,-430.5747 1098,-397 1113.5442,-320.2747 1115.4199,-295.3779 1091,-221 1085.0773,-202.9607 1073.3248,-203.2247 1068,-185 1047.3879,-114.453 996.0162,-20.7706 1058.0132,-12.1429"/>
<polygon fill="#000000" stroke="#000000" points="1058.2455,-15.6353 1068,-11.5 1057.7958,-8.6497 1058.2455,-15.6353"/>
</g>
<!-- pepolar_estimate_wftopup&#45;&gt;pepolar_estimate_wfoutputnode -->
<g id="edge19" class="edge">
<title>pepolar_estimate_wftopup:e&#45;&gt;pepolar_estimate_wfoutputnode:w</title>
<path fill="none" stroke="#000000" d="M1068,-445C1169.5446,-445 1158.7061,-311.6767 1113,-221 1101.4716,-198.1287 1079.095,-208.0846 1068,-185 1040.6091,-128.0098 1005.2312,-44.2775 1057.9477,-35.2898"/>
<polygon fill="#000000" stroke="#000000" points="1058.3049,-38.7726 1068,-34.5 1057.7566,-31.7941 1058.3049,-38.7726"/>
</g>
<!-- pepolar_estimate_wffix_coeff&#45;&gt;pepolar_estimate_wfoutputnode -->
<g id="edge3" class="edge">
<title>pepolar_estimate_wffix_coeff:e&#45;&gt;pepolar_estimate_wfoutputnode:w</title>
<path fill="none" stroke="#000000" d="M735,-345C743,-345 740.1419,-333.1287 735,-327 675.825,-256.468 590.175,-361.532 531,-291 511.0038,-267.1661 510.9766,-244.811 531,-221 606.904,-130.738 929.2325,-127.6058 1057.9751,-127.5033"/>
<polygon fill="#000000" stroke="#000000" points="1058.0012,-131.0034 1068,-127.5 1057.9988,-124.0034 1058.0012,-131.0034"/>
</g>
<!-- pepolar_estimate_wfbrainextraction_wf -->
<g id="node8" class="node">
<title>pepolar_estimate_wfbrainextraction_wf</title>
<polygon fill="none" stroke="#000000" points="540.5,-221.5 540.5,-290.5 1001.5,-290.5 1001.5,-221.5 540.5,-221.5"/>
<text text-anchor="middle" x="609" y="-269.8" font-family="Times,serif" font-size="14.00" fill="#000000">IN</text>
<polyline fill="none" stroke="#000000" points="540.5,-256.5 677.5,-256.5 "/>
<text text-anchor="middle" x="609" y="-235.3" font-family="Times,serif" font-size="14.00" fill="#000000">inputnode.in_file</text>
<polyline fill="none" stroke="#000000" points="677.5,-221.5 677.5,-290.5 "/>
<text text-anchor="middle" x="753.5" y="-275.3" font-family="Times,serif" font-size="14.00" fill="#000000">brainextraction_wf</text>
<polyline fill="none" stroke="#000000" points="677.5,-267.5 829.5,-267.5 "/>
<text text-anchor="middle" x="753.5" y="-252.3" font-family="Times,serif" font-size="14.00" fill="#000000"> </text>
<polyline fill="none" stroke="#000000" points="677.5,-244.5 829.5,-244.5 "/>
<text text-anchor="middle" x="753.5" y="-229.3" font-family="Times,serif" font-size="14.00" fill="#000000"> </text>
<polyline fill="none" stroke="#000000" points="829.5,-221.5 829.5,-290.5 "/>
<text text-anchor="middle" x="915.5" y="-269.8" font-family="Times,serif" font-size="14.00" fill="#000000">OUT</text>
<polyline fill="none" stroke="#000000" points="829.5,-256.5 1001.5,-256.5 "/>
<text text-anchor="middle" x="915.5" y="-235.3" font-family="Times,serif" font-size="14.00" fill="#000000">outputnode.out_mask</text>
</g>
<!-- pepolar_estimate_wfmerge_corrected&#45;&gt;pepolar_estimate_wfbrainextraction_wf -->
<g id="edge10" class="edge">
<title>pepolar_estimate_wfmerge_corrected:e&#45;&gt;pepolar_estimate_wfbrainextraction_wf:w</title>
<path fill="none" stroke="#000000" d="M1035,-345C1043,-345 1040.4478,-332.8584 1035,-327 959.8945,-246.2339 615.1055,-371.7661 540,-291 534.2826,-284.8517 530.7732,-260.1872 533.7136,-247.1585"/>
<polygon fill="#000000" stroke="#000000" points="536.6688,-249.0575 540,-239 531.1239,-244.785 536.6688,-249.0575"/>
</g>
<!-- pepolar_estimate_wfmerge_corrected&#45;&gt;pepolar_estimate_wfoutputnode -->
<g id="edge11" class="edge">
<title>pepolar_estimate_wfmerge_corrected:e&#45;&gt;pepolar_estimate_wfoutputnode:w</title>
<path fill="none" stroke="#000000" d="M1035,-345C1061.7245,-345 1042.9744,-129.6377 1060.8171,-87.5747"/>
<polygon fill="#000000" stroke="#000000" points="1063.3315,-90.0108 1068,-80.5 1058.4194,-85.0237 1063.3315,-90.0108"/>
</g>
<!-- pepolar_estimate_wfbrainextraction_wf&#45;&gt;pepolar_estimate_wfoutputnode -->
<g id="edge1" class="edge">
<title>pepolar_estimate_wfbrainextraction_wf:e&#45;&gt;pepolar_estimate_wfoutputnode:w</title>
<path fill="none" stroke="#000000" d="M1002,-239C1016.3708,-239 1042.7103,-138.7633 1060.3537,-111.3548"/>
<polygon fill="#000000" stroke="#000000" points="1062.8904,-113.7813 1068,-104.5 1058.2177,-108.5691 1062.8904,-113.7813"/>
</g>
</g>
</svg>
