<?xml version="1.0" encoding="UTF-8" standalone="no"?>
<!DOCTYPE svg PUBLIC "-//W3C//DTD SVG 1.1//EN"
 "http://www.w3.org/Graphics/SVG/1.1/DTD/svg11.dtd">
<!-- Generated by graphviz version 2.40.1 (20161225.0304)
 -->
<!-- Title: %3 Pages: 1 -->
<svg width="330pt" height="404pt"
 viewBox="0.00 0.00 329.63 404.00" xmlns="http://www.w3.org/2000/svg" xmlns:xlink="http://www.w3.org/1999/xlink">
<g id="graph0" class="graph" transform="scale(1 1) rotate(0) translate(4 400)">
<title>%3</title>
<polygon fill="#ffffff" stroke="transparent" points="-4,4 -4,-400 325.6326,-400 325.6326,4 -4,4"/>
<!-- inputnode (utility) -->
<g id="node1" class="node">
<title>inputnode (utility)</title>
<ellipse fill="none" stroke="#000000" cx="183.8414" cy="-378" rx="94.7833" ry="18"/>
<text text-anchor="middle" x="183.8414" y="-374.3" font-family="Times,serif" font-size="14.00" fill="#000000">inputnode (utility)</text>
</g>
<!-- rotime (epi) -->
<g id="node2" class="node">
<title>rotime (epi)</title>
<ellipse fill="none" stroke="#000000" cx="89.8414" cy="-306" rx="65.7887" ry="18"/>
<text text-anchor="middle" x="89.8414" y="-302.3" font-family="Times,serif" font-size="14.00" fill="#000000">rotime (epi)</text>
</g>
<!-- inputnode (utility)&#45;&gt;rotime (epi) -->
<g id="edge1" class="edge">
<title>inputnode (utility)&#45;&gt;rotime (epi)</title>
<path fill="none" stroke="#000000" d="M160.6054,-360.2022C148.4747,-350.9106 133.4779,-339.4237 120.4167,-329.4194"/>
<polygon fill="#000000" stroke="#000000" points="122.2299,-326.3994 112.1628,-323.0972 117.9733,-331.9566 122.2299,-326.3994"/>
</g>
<!-- resample (bspline) -->
<g id="node3" class="node">
<title>resample (bspline)</title>
<ellipse fill="none" stroke="#000000" cx="96.8414" cy="-234" rx="96.6831" ry="18"/>
<text text-anchor="middle" x="96.8414" y="-230.3" font-family="Times,serif" font-size="14.00" fill="#000000">resample (bspline)</text>
</g>
<!-- inputnode (utility)&#45;&gt;resample (bspline) -->
<g id="edge2" class="edge">
<title>inputnode (utility)&#45;&gt;resample (bspline)</title>
<path fill="none" stroke="#000000" d="M183.5613,-359.7622C182.4916,-340.5721 178.5324,-310.1387 164.8414,-288 157.4488,-276.0459 146.4214,-265.6366 135.3874,-257.2324"/>
<polygon fill="#000000" stroke="#000000" points="137.1699,-254.2032 127.0084,-251.2042 133.0818,-259.8854 137.1699,-254.2032"/>
</g>
<!-- unwarp (fixes) -->
<g id="node4" class="node">
<title>unwarp (fixes)</title>
<ellipse fill="none" stroke="#000000" cx="221.8414" cy="-162" rx="77.1866" ry="18"/>
<text text-anchor="middle" x="221.8414" y="-158.3" font-family="Times,serif" font-size="14.00" fill="#000000">unwarp (fixes)</text>
</g>
<!-- inputnode (utility)&#45;&gt;unwarp (fixes) -->
<g id="edge3" class="edge">
<title>inputnode (utility)&#45;&gt;unwarp (fixes)</title>
<path fill="none" stroke="#000000" d="M187.0159,-359.9555C193.638,-322.3144 208.966,-235.1867 216.8936,-190.1246"/>
<polygon fill="#000000" stroke="#000000" points="220.3636,-190.6003 218.6492,-180.1451 213.4694,-189.3874 220.3636,-190.6003"/>
</g>
<!-- rotime (epi)&#45;&gt;resample (bspline) -->
<g id="edge4" class="edge">
<title>rotime (epi)&#45;&gt;resample (bspline)</title>
<path fill="none" stroke="#000000" d="M91.6078,-287.8314C92.3565,-280.131 93.2467,-270.9743 94.0787,-262.4166"/>
<polygon fill="#000000" stroke="#000000" points="97.5671,-262.7051 95.0512,-252.4133 90.5999,-262.0276 97.5671,-262.7051"/>
</g>
<!-- resample (bspline)&#45;&gt;unwarp (fixes) -->
<g id="edge5" class="edge">
<title>resample (bspline)&#45;&gt;unwarp (fixes)</title>
<path fill="none" stroke="#000000" d="M126.782,-216.7542C143.9133,-206.8866 165.5726,-194.4108 183.8882,-183.861"/>
<polygon fill="#000000" stroke="#000000" points="185.658,-186.8808 192.5764,-178.8566 182.1641,-180.8151 185.658,-186.8808"/>
</g>
<!-- outputnode (utility) -->
<g id="node5" class="node">
<title>outputnode (utility)</title>
<ellipse fill="none" stroke="#000000" cx="158.8414" cy="-18" rx="101.2821" ry="18"/>
<text text-anchor="middle" x="158.8414" y="-14.3" font-family="Times,serif" font-size="14.00" fill="#000000">outputnode (utility)</text>
</g>
<!-- resample (bspline)&#45;&gt;outputnode (utility) -->
<g id="edge6" class="edge">
<title>resample (bspline)&#45;&gt;outputnode (utility)</title>
<path fill="none" stroke="#000000" d="M95.5983,-215.6727C94.2025,-184.7459 94.3718,-120.798 114.8414,-72 119.1663,-61.6899 126.106,-51.7837 133.208,-43.3343"/>
<polygon fill="#000000" stroke="#000000" points="135.9551,-45.5121 139.9866,-35.7142 130.725,-40.8595 135.9551,-45.5121"/>
</g>
<!-- brainextraction_wf -->
<g id="node6" class="node">
<title>brainextraction_wf</title>
<ellipse fill="none" stroke="#000000" cx="222.8414" cy="-90" rx="98.5829" ry="18"/>
<text text-anchor="middle" x="222.8414" y="-86.3" font-family="Times,serif" font-size="14.00" fill="#000000">brainextraction_wf</text>
</g>
<!-- unwarp (fixes)&#45;&gt;brainextraction_wf -->
<g id="edge7" class="edge">
<title>unwarp (fixes)&#45;&gt;brainextraction_wf</title>
<path fill="none" stroke="#000000" d="M222.0937,-143.8314C222.2007,-136.131 222.3279,-126.9743 222.4467,-118.4166"/>
<polygon fill="#000000" stroke="#000000" points="225.9464,-118.4609 222.5857,-108.4133 218.947,-118.3637 225.9464,-118.4609"/>
</g>
<!-- brainextraction_wf&#45;&gt;outputnode (utility) -->
<g id="edge8" class="edge">
<title>brainextraction_wf&#45;&gt;outputnode (utility)</title>
<path fill="none" stroke="#000000" d="M207.0212,-72.2022C199.3288,-63.5483 189.9436,-52.99 181.507,-43.4988"/>
<polygon fill="#000000" stroke="#000000" points="183.9611,-40.9914 174.7014,-35.8425 178.7292,-45.6419 183.9611,-40.9914"/>
</g>
</g>
</svg>
