<?xml version="1.0" encoding="UTF-8" standalone="no"?>
<!DOCTYPE svg PUBLIC "-//W3C//DTD SVG 1.1//EN"
 "http://www.w3.org/Graphics/SVG/1.1/DTD/svg11.dtd">
<!-- Generated by graphviz version 2.40.1 (20161225.0304)
 -->
<!-- Title: %3 Pages: 1 -->
<svg width="396pt" height="548pt"
 viewBox="0.00 0.00 396.43 548.00" xmlns="http://www.w3.org/2000/svg" xmlns:xlink="http://www.w3.org/1999/xlink">
<g id="graph0" class="graph" transform="scale(1 1) rotate(0) translate(4 544)">
<title>%3</title>
<polygon fill="#ffffff" stroke="transparent" points="-4,4 -4,-544 392.4319,-544 392.4319,4 -4,4"/>
<!-- inputnode (utility) -->
<g id="node1" class="node">
<title>inputnode (utility)</title>
<ellipse fill="none" stroke="#000000" cx="262.0409" cy="-522" rx="94.7833" ry="18"/>
<text text-anchor="middle" x="262.0409" y="-518.3" font-family="Times,serif" font-size="14.00" fill="#000000">inputnode (utility)</text>
</g>
<!-- split (utility) -->
<g id="node2" class="node">
<title>split (utility)</title>
<ellipse fill="none" stroke="#000000" cx="214.0409" cy="-450" rx="68.7879" ry="18"/>
<text text-anchor="middle" x="214.0409" y="-446.3" font-family="Times,serif" font-size="14.00" fill="#000000">split (utility)</text>
</g>
<!-- inputnode (utility)&#45;&gt;split (utility) -->
<g id="edge1" class="edge">
<title>inputnode (utility)&#45;&gt;split (utility)</title>
<path fill="none" stroke="#000000" d="M249.9285,-503.8314C244.3723,-495.497 237.6787,-485.4567 231.5851,-476.3162"/>
<polygon fill="#000000" stroke="#000000" points="234.4424,-474.2925 225.9832,-467.9134 228.6181,-478.1754 234.4424,-474.2925"/>
</g>
<!-- magnitude_wf -->
<g id="node3" class="node">
<title>magnitude_wf</title>
<ellipse fill="none" stroke="#000000" cx="311.0409" cy="-306" rx="76.8869" ry="18"/>
<text text-anchor="middle" x="311.0409" y="-302.3" font-family="Times,serif" font-size="14.00" fill="#000000">magnitude_wf</text>
</g>
<!-- inputnode (utility)&#45;&gt;magnitude_wf -->
<g id="edge2" class="edge">
<title>inputnode (utility)&#45;&gt;magnitude_wf</title>
<path fill="none" stroke="#000000" d="M274.4887,-503.8299C280.7936,-493.7218 287.9598,-480.6568 292.0409,-468 306.5635,-422.9619 310.2224,-367.6931 311.0123,-334.7414"/>
<polygon fill="#000000" stroke="#000000" points="314.5162,-334.5255 311.1818,-324.4691 307.5172,-334.4099 314.5162,-334.5255"/>
</g>
<!-- phmap2rads (fmap) -->
<g id="node4" class="node">
<title>phmap2rads (fmap)</title>
<ellipse fill="none" stroke="#000000" cx="102.0409" cy="-378" rx="102.0819" ry="18"/>
<text text-anchor="middle" x="102.0409" y="-374.3" font-family="Times,serif" font-size="14.00" fill="#000000">phmap2rads (fmap)</text>
</g>
<!-- split (utility)&#45;&gt;phmap2rads (fmap) -->
<g id="edge3" class="edge">
<title>split (utility)&#45;&gt;phmap2rads (fmap)</title>
<path fill="none" stroke="#000000" d="M188.0644,-433.3008C173.1248,-423.6968 154.1378,-411.4908 137.8044,-400.9908"/>
<polygon fill="#000000" stroke="#000000" points="139.3504,-397.8238 129.0459,-395.3603 135.5651,-403.7121 139.3504,-397.8238"/>
</g>
<!-- calc_phdiff (fmap) -->
<g id="node5" class="node">
<title>calc_phdiff (fmap)</title>
<ellipse fill="none" stroke="#000000" cx="120.0409" cy="-306" rx="94.7833" ry="18"/>
<text text-anchor="middle" x="120.0409" y="-302.3" font-family="Times,serif" font-size="14.00" fill="#000000">calc_phdiff (fmap)</text>
</g>
<!-- split (utility)&#45;&gt;calc_phdiff (fmap) -->
<g id="edge4" class="edge">
<title>split (utility)&#45;&gt;calc_phdiff (fmap)</title>
<path fill="none" stroke="#000000" d="M218.8207,-431.7083C222.7684,-412.4733 225.8713,-382.0027 213.0409,-360 204.6294,-345.5751 190.7441,-334.6383 176.2363,-326.513"/>
<polygon fill="#000000" stroke="#000000" points="177.6549,-323.3061 167.1661,-321.8111 174.4333,-329.5208 177.6549,-323.3061"/>
</g>
<!-- prelude (fsl) -->
<g id="node6" class="node">
<title>prelude (fsl)</title>
<ellipse fill="none" stroke="#000000" cx="215.0409" cy="-234" rx="67.6881" ry="18"/>
<text text-anchor="middle" x="215.0409" y="-230.3" font-family="Times,serif" font-size="14.00" fill="#000000">prelude (fsl)</text>
</g>
<!-- magnitude_wf&#45;&gt;prelude (fsl) -->
<g id="edge5" class="edge">
<title>magnitude_wf&#45;&gt;prelude (fsl)</title>
<path fill="none" stroke="#000000" d="M287.802,-288.5708C275.2107,-279.1273 259.4891,-267.3361 245.8847,-257.1328"/>
<polygon fill="#000000" stroke="#000000" points="247.8346,-254.2203 237.7346,-251.0202 243.6346,-259.8203 247.8346,-254.2203"/>
</g>
<!-- fmap_postproc_wf -->
<g id="node7" class="node">
<title>fmap_postproc_wf</title>
<ellipse fill="none" stroke="#000000" cx="220.0409" cy="-162" rx="96.3833" ry="18"/>
<text text-anchor="middle" x="220.0409" y="-158.3" font-family="Times,serif" font-size="14.00" fill="#000000">fmap_postproc_wf</text>
</g>
<!-- magnitude_wf&#45;&gt;fmap_postproc_wf -->
<g id="edge6" class="edge">
<title>magnitude_wf&#45;&gt;fmap_postproc_wf</title>
<path fill="none" stroke="#000000" d="M310.8815,-287.6864C309.9125,-268.4331 306.0367,-237.9474 292.0409,-216 284.199,-203.7026 272.5033,-193.1938 260.8068,-184.8041"/>
<polygon fill="#000000" stroke="#000000" points="262.5877,-181.7831 252.3449,-179.0744 258.6629,-187.5793 262.5877,-181.7831"/>
</g>
<!-- outputnode (utility) -->
<g id="node8" class="node">
<title>outputnode (utility)</title>
<ellipse fill="none" stroke="#000000" cx="287.0409" cy="-18" rx="101.2821" ry="18"/>
<text text-anchor="middle" x="287.0409" y="-14.3" font-family="Times,serif" font-size="14.00" fill="#000000">outputnode (utility)</text>
</g>
<!-- magnitude_wf&#45;&gt;outputnode (utility) -->
<g id="edge7" class="edge">
<title>magnitude_wf&#45;&gt;outputnode (utility)</title>
<path fill="none" stroke="#000000" d="M317.2343,-287.7702C329.8823,-247.5503 355.3552,-148.6938 329.0409,-72 325.5719,-61.8894 319.351,-52.2137 312.7419,-43.9166"/>
<polygon fill="#000000" stroke="#000000" points="315.2417,-41.4539 306.0909,-36.1141 309.9145,-45.9949 315.2417,-41.4539"/>
</g>
<!-- phmap2rads (fmap)&#45;&gt;calc_phdiff (fmap) -->
<g id="edge8" class="edge">
<title>phmap2rads (fmap)&#45;&gt;calc_phdiff (fmap)</title>
<path fill="none" stroke="#000000" d="M106.5831,-359.8314C108.5294,-352.0463 110.8477,-342.7729 113.0073,-334.1347"/>
<polygon fill="#000000" stroke="#000000" points="116.4077,-334.9636 115.4376,-324.4133 109.6167,-333.2658 116.4077,-334.9636"/>
</g>
<!-- calc_phdiff (fmap)&#45;&gt;prelude (fsl) -->
<g id="edge9" class="edge">
<title>calc_phdiff (fmap)&#45;&gt;prelude (fsl)</title>
<path fill="none" stroke="#000000" d="M143.5241,-288.2022C155.7839,-278.9106 170.9403,-267.4237 184.1404,-257.4194"/>
<polygon fill="#000000" stroke="#000000" points="186.6265,-259.9269 192.4821,-251.0972 182.3983,-254.3481 186.6265,-259.9269"/>
</g>
<!-- calc_phdiff (fmap)&#45;&gt;fmap_postproc_wf -->
<g id="edge10" class="edge">
<title>calc_phdiff (fmap)&#45;&gt;fmap_postproc_wf</title>
<path fill="none" stroke="#000000" d="M119.6865,-287.8807C120.1582,-268.5128 123.4385,-237.672 138.0409,-216 146.8701,-202.8964 160.0563,-192.2022 173.2868,-183.8906"/>
<polygon fill="#000000" stroke="#000000" points="175.1166,-186.8748 181.9421,-178.7714 171.5531,-180.8497 175.1166,-186.8748"/>
</g>
<!-- prelude (fsl)&#45;&gt;fmap_postproc_wf -->
<g id="edge11" class="edge">
<title>prelude (fsl)&#45;&gt;fmap_postproc_wf</title>
<path fill="none" stroke="#000000" d="M216.3027,-215.8314C216.8374,-208.131 217.4733,-198.9743 218.0676,-190.4166"/>
<polygon fill="#000000" stroke="#000000" points="221.561,-190.6317 218.7622,-180.4133 214.5778,-190.1467 221.561,-190.6317"/>
</g>
<!-- compfmap (fmap) -->
<g id="node9" class="node">
<title>compfmap (fmap)</title>
<ellipse fill="none" stroke="#000000" cx="227.0409" cy="-90" rx="92.8835" ry="18"/>
<text text-anchor="middle" x="227.0409" y="-86.3" font-family="Times,serif" font-size="14.00" fill="#000000">compfmap (fmap)</text>
</g>
<!-- fmap_postproc_wf&#45;&gt;compfmap (fmap) -->
<g id="edge12" class="edge">
<title>fmap_postproc_wf&#45;&gt;compfmap (fmap)</title>
<path fill="none" stroke="#000000" d="M221.8073,-143.8314C222.556,-136.131 223.4462,-126.9743 224.2782,-118.4166"/>
<polygon fill="#000000" stroke="#000000" points="227.7666,-118.7051 225.2508,-108.4133 220.7994,-118.0276 227.7666,-118.7051"/>
</g>
<!-- compfmap (fmap)&#45;&gt;outputnode (utility) -->
<g id="edge13" class="edge">
<title>compfmap (fmap)&#45;&gt;outputnode (utility)</title>
<path fill="none" stroke="#000000" d="M241.8724,-72.2022C249.0119,-63.6348 257.7068,-53.2009 265.5544,-43.7839"/>
<polygon fill="#000000" stroke="#000000" points="268.4591,-45.7654 272.1722,-35.8425 263.0815,-41.2841 268.4591,-45.7654"/>
</g>
</g>
</svg>
