<?xml version="1.0" encoding="UTF-8" standalone="no"?>
<!DOCTYPE svg PUBLIC "-//W3C//DTD SVG 1.1//EN"
 "http://www.w3.org/Graphics/SVG/1.1/DTD/svg11.dtd">
<!-- Generated by graphviz version 2.40.1 (20161225.0304)
 -->
<!-- Title: structs Pages: 1 -->
<svg width="1203pt" height="580pt"
 viewBox="0.00 0.00 1203.00 580.00" xmlns="http://www.w3.org/2000/svg" xmlns:xlink="http://www.w3.org/1999/xlink">
<g id="graph0" class="graph" transform="scale(1 1) rotate(0) translate(4 576)">
<title>structs</title>
<polygon fill="#ffffff" stroke="transparent" points="-4,4 -4,-576 1199,-576 1199,4 -4,4"/>
<!-- pepolar_estimate_wfinputnode -->
<g id="node1" class="node">
<title>pepolar_estimate_wfinputnode</title>
<polygon fill="none" stroke="#000000" points="0,-502.5 0,-571.5 208,-571.5 208,-502.5 0,-502.5"/>
<text text-anchor="middle" x="17.5" y="-533.3" font-family="Times,serif" font-size="14.00" fill="#000000">IN</text>
<polyline fill="none" stroke="#000000" points="35,-502.5 35,-571.5 "/>
<text text-anchor="middle" x="79.5" y="-556.3" font-family="Times,serif" font-size="14.00" fill="#000000">inputnode</text>
<polyline fill="none" stroke="#000000" points="35,-548.5 124,-548.5 "/>
<text text-anchor="middle" x="79.5" y="-533.3" font-family="Times,serif" font-size="14.00" fill="#000000">utility</text>
<polyline fill="none" stroke="#000000" points="35,-525.5 124,-525.5 "/>
<text text-anchor="middle" x="79.5" y="-510.3" font-family="Times,serif" font-size="14.00" fill="#000000"> </text>
<polyline fill="none" stroke="#000000" points="124,-502.5 124,-571.5 "/>
<text text-anchor="middle" x="166" y="-556.3" font-family="Times,serif" font-size="14.00" fill="#000000">OUT</text>
<polyline fill="none" stroke="#000000" points="124,-548.5 208,-548.5 "/>
<text text-anchor="middle" x="166" y="-533.3" font-family="Times,serif" font-size="14.00" fill="#000000">in_data</text>
<polyline fill="none" stroke="#000000" points="124,-525.5 208,-525.5 "/>
<text text-anchor="middle" x="166" y="-510.3" font-family="Times,serif" font-size="14.00" fill="#000000">metadata</text>
</g>
<!-- pepolar_estimate_wfreadout_time -->
<g id="node2" class="node">
<title>pepolar_estimate_wfreadout_time</title>
<polygon fill="none" stroke="#000000" points="45,-396.5 45,-465.5 353,-465.5 353,-396.5 45,-396.5"/>
<text text-anchor="middle" x="87" y="-450.3" font-family="Times,serif" font-size="14.00" fill="#000000">IN</text>
<polyline fill="none" stroke="#000000" points="45,-442.5 129,-442.5 "/>
<text text-anchor="middle" x="87" y="-427.3" font-family="Times,serif" font-size="14.00" fill="#000000">in_file</text>
<polyline fill="none" stroke="#000000" points="45,-419.5 129,-419.5 "/>
<text text-anchor="middle" x="87" y="-404.3" font-family="Times,serif" font-size="14.00" fill="#000000">metadata</text>
<polyline fill="none" stroke="#000000" points="129,-396.5 129,-465.5 "/>
<text text-anchor="middle" x="185" y="-450.3" font-family="Times,serif" font-size="14.00" fill="#000000">readout_time</text>
<polyline fill="none" stroke="#000000" points="129,-442.5 241,-442.5 "/>
<text text-anchor="middle" x="185" y="-427.3" font-family="Times,serif" font-size="14.00" fill="#000000">epi</text>
<polyline fill="none" stroke="#000000" points="129,-419.5 241,-419.5 "/>
<text text-anchor="middle" x="185" y="-404.3" font-family="Times,serif" font-size="14.00" fill="#000000"> </text>
<polyline fill="none" stroke="#000000" points="241,-396.5 241,-465.5 "/>
<text text-anchor="middle" x="297" y="-444.8" font-family="Times,serif" font-size="14.00" fill="#000000">OUT</text>
<polyline fill="none" stroke="#000000" points="241,-431.5 353,-431.5 "/>
<text text-anchor="middle" x="297" y="-410.3" font-family="Times,serif" font-size="14.00" fill="#000000">readout_time</text>
</g>
<!-- pepolar_estimate_wfinputnode&#45;&gt;pepolar_estimate_wfreadout_time -->
<g id="edge3" class="edge">
<title>pepolar_estimate_wfinputnode:e&#45;&gt;pepolar_estimate_wfreadout_time:w</title>
<path fill="none" stroke="#000000" d="M208,-537C223.5556,-537 217.7414,-514.1277 208,-502 161.5395,-444.1587 91.4605,-523.8413 45,-466 38.1506,-457.4727 33.2427,-443.6335 36.3397,-436.168"/>
<polygon fill="#000000" stroke="#000000" points="38.2063,-439.13 45,-431 34.6192,-433.1189 38.2063,-439.13"/>
</g>
<!-- pepolar_estimate_wfinputnode&#45;&gt;pepolar_estimate_wfreadout_time -->
<g id="edge4" class="edge">
<title>pepolar_estimate_wfinputnode:e&#45;&gt;pepolar_estimate_wfreadout_time:w</title>
<path fill="none" stroke="#000000" d="M208,-514C213.3333,-514 211.3399,-506.1581 208,-502 161.5395,-444.1587 91.4605,-523.8413 45,-466 31.5055,-449.1999 22.5588,-419.9576 35.0444,-410.8146"/>
<polygon fill="#000000" stroke="#000000" points="36.3294,-414.0886 45,-408 34.425,-407.3526 36.3294,-414.0886"/>
</g>
<!-- pepolar_estimate_wfconcat_blips -->
<g id="node3" class="node">
<title>pepolar_estimate_wfconcat_blips</title>
<polygon fill="none" stroke="#000000" points="371.5,-396.5 371.5,-465.5 616.5,-465.5 616.5,-396.5 371.5,-396.5"/>
<text text-anchor="middle" x="405.5" y="-444.8" font-family="Times,serif" font-size="14.00" fill="#000000">IN</text>
<polyline fill="none" stroke="#000000" points="371.5,-431.5 439.5,-431.5 "/>
<text text-anchor="middle" x="405.5" y="-410.3" font-family="Times,serif" font-size="14.00" fill="#000000">in_files</text>
<polyline fill="none" stroke="#000000" points="439.5,-396.5 439.5,-465.5 "/>
<text text-anchor="middle" x="493" y="-450.3" font-family="Times,serif" font-size="14.00" fill="#000000">concat_blips</text>
<polyline fill="none" stroke="#000000" points="439.5,-442.5 546.5,-442.5 "/>
<text text-anchor="middle" x="493" y="-427.3" font-family="Times,serif" font-size="14.00" fill="#000000">nibabel</text>
<polyline fill="none" stroke="#000000" points="439.5,-419.5 546.5,-419.5 "/>
<text text-anchor="middle" x="493" y="-404.3" font-family="Times,serif" font-size="14.00" fill="#000000"> </text>
<polyline fill="none" stroke="#000000" points="546.5,-396.5 546.5,-465.5 "/>
<text text-anchor="middle" x="581.5" y="-444.8" font-family="Times,serif" font-size="14.00" fill="#000000">OUT</text>
<polyline fill="none" stroke="#000000" points="546.5,-431.5 616.5,-431.5 "/>
<text text-anchor="middle" x="581.5" y="-410.3" font-family="Times,serif" font-size="14.00" fill="#000000">out_file</text>
</g>
<!-- pepolar_estimate_wfinputnode&#45;&gt;pepolar_estimate_wfconcat_blips -->
<g id="edge2" class="edge">
<title>pepolar_estimate_wfinputnode:e&#45;&gt;pepolar_estimate_wfconcat_blips:w</title>
<path fill="none" stroke="#000000" d="M208,-537C283.3684,-537 316.0833,-525.7666 362,-466 367.1352,-459.3158 363.4796,-435.3769 365.3716,-422.4399"/>
<polygon fill="#000000" stroke="#000000" points="368.3636,-424.2616 371,-414 362.5398,-420.3778 368.3636,-424.2616"/>
</g>
<!-- pepolar_estimate_wftopup -->
<g id="node4" class="node">
<title>pepolar_estimate_wftopup</title>
<polygon fill="none" stroke="#000000" points="617.5,-198.5 617.5,-359.5 946.5,-359.5 946.5,-198.5 617.5,-198.5"/>
<text text-anchor="middle" x="694.5" y="-335.8" font-family="Times,serif" font-size="14.00" fill="#000000">IN</text>
<polyline fill="none" stroke="#000000" points="617.5,-319.5 771.5,-319.5 "/>
<text text-anchor="middle" x="694.5" y="-295.8" font-family="Times,serif" font-size="14.00" fill="#000000">encoding_direction</text>
<polyline fill="none" stroke="#000000" points="617.5,-279.5 771.5,-279.5 "/>
<text text-anchor="middle" x="694.5" y="-255.8" font-family="Times,serif" font-size="14.00" fill="#000000">in_file</text>
<polyline fill="none" stroke="#000000" points="617.5,-239.5 771.5,-239.5 "/>
<text text-anchor="middle" x="694.5" y="-215.3" font-family="Times,serif" font-size="14.00" fill="#000000">readout_times</text>
<polyline fill="none" stroke="#000000" points="771.5,-198.5 771.5,-359.5 "/>
<text text-anchor="middle" x="800.5" y="-329.3" font-family="Times,serif" font-size="14.00" fill="#000000">topup</text>
<polyline fill="none" stroke="#000000" points="771.5,-306.5 829.5,-306.5 "/>
<text text-anchor="middle" x="800.5" y="-275.8" font-family="Times,serif" font-size="14.00" fill="#000000">fsl</text>
<polyline fill="none" stroke="#000000" points="771.5,-252.5 829.5,-252.5 "/>
<text text-anchor="middle" x="800.5" y="-221.8" font-family="Times,serif" font-size="14.00" fill="#000000"> </text>
<polyline fill="none" stroke="#000000" points="829.5,-198.5 829.5,-359.5 "/>
<text text-anchor="middle" x="888" y="-344.3" font-family="Times,serif" font-size="14.00" fill="#000000">OUT</text>
<polyline fill="none" stroke="#000000" points="829.5,-336.5 946.5,-336.5 "/>
<text text-anchor="middle" x="888" y="-321.3" font-family="Times,serif" font-size="14.00" fill="#000000">out_corrected</text>
<polyline fill="none" stroke="#000000" points="829.5,-313.5 946.5,-313.5 "/>
<text text-anchor="middle" x="888" y="-298.3" font-family="Times,serif" font-size="14.00" fill="#000000">out_field</text>
<polyline fill="none" stroke="#000000" points="829.5,-290.5 946.5,-290.5 "/>
<text text-anchor="middle" x="888" y="-275.3" font-family="Times,serif" font-size="14.00" fill="#000000">out_fieldcoef</text>
<polyline fill="none" stroke="#000000" points="829.5,-267.5 946.5,-267.5 "/>
<text text-anchor="middle" x="888" y="-252.3" font-family="Times,serif" font-size="14.00" fill="#000000">out_jacs</text>
<polyline fill="none" stroke="#000000" points="829.5,-244.5 946.5,-244.5 "/>
<text text-anchor="middle" x="888" y="-229.3" font-family="Times,serif" font-size="14.00" fill="#000000">out_mats</text>
<polyline fill="none" stroke="#000000" points="829.5,-221.5 946.5,-221.5 "/>
<text text-anchor="middle" x="888" y="-206.3" font-family="Times,serif" font-size="14.00" fill="#000000">out_warps</text>
</g>
<!-- pepolar_estimate_wfinputnode&#45;&gt;pepolar_estimate_wftopup -->
<g id="edge5" class="edge">
<title>pepolar_estimate_wfinputnode:e&#45;&gt;pepolar_estimate_wftopup:w</title>
<path fill="none" stroke="#000000" d="M208,-514C254.7497,-514 594.8857,-500.8917 626,-466 672.5818,-413.763 556.5382,-311.5368 606.9724,-300.9004"/>
<polygon fill="#000000" stroke="#000000" points="607.3531,-304.3804 617,-300 606.727,-297.4084 607.3531,-304.3804"/>
</g>
<!-- pepolar_estimate_wfreadout_time&#45;&gt;pepolar_estimate_wftopup -->
<g id="edge6" class="edge">
<title>pepolar_estimate_wfreadout_time:e&#45;&gt;pepolar_estimate_wftopup:w</title>
<path fill="none" stroke="#000000" d="M353,-414C361.9443,-414 356.1438,-402.7606 362,-396 450.0343,-294.3702 477.6428,-222.7133 606.7036,-219.14"/>
<polygon fill="#000000" stroke="#000000" points="607.0485,-222.6357 617,-219 606.9533,-215.6364 607.0485,-222.6357"/>
</g>
<!-- pepolar_estimate_wfconcat_blips&#45;&gt;pepolar_estimate_wftopup -->
<g id="edge1" class="edge">
<title>pepolar_estimate_wfconcat_blips:e&#45;&gt;pepolar_estimate_wftopup:w</title>
<path fill="none" stroke="#000000" d="M617,-414C617,-414 617,-303.6533 617,-269.17"/>
<polygon fill="#000000" stroke="#000000" points="620.5001,-269 617,-259 613.5001,-269 620.5001,-269"/>
</g>
<!-- pepolar_estimate_wfoutputnode -->
<g id="node5" class="node">
<title>pepolar_estimate_wfoutputnode</title>
<polygon fill="none" stroke="#000000" points="947,-.5 947,-161.5 1195,-161.5 1195,-.5 947,-.5"/>
<text text-anchor="middle" x="997" y="-146.3" font-family="Times,serif" font-size="14.00" fill="#000000">IN</text>
<polyline fill="none" stroke="#000000" points="947,-138.5 1047,-138.5 "/>
<text text-anchor="middle" x="997" y="-123.3" font-family="Times,serif" font-size="14.00" fill="#000000">coefficients</text>
<polyline fill="none" stroke="#000000" points="947,-115.5 1047,-115.5 "/>
<text text-anchor="middle" x="997" y="-100.3" font-family="Times,serif" font-size="14.00" fill="#000000">fmap</text>
<polyline fill="none" stroke="#000000" points="947,-92.5 1047,-92.5 "/>
<text text-anchor="middle" x="997" y="-77.3" font-family="Times,serif" font-size="14.00" fill="#000000">fmap_ref</text>
<polyline fill="none" stroke="#000000" points="947,-69.5 1047,-69.5 "/>
<text text-anchor="middle" x="997" y="-54.3" font-family="Times,serif" font-size="14.00" fill="#000000">jacobians</text>
<polyline fill="none" stroke="#000000" points="947,-46.5 1047,-46.5 "/>
<text text-anchor="middle" x="997" y="-31.3" font-family="Times,serif" font-size="14.00" fill="#000000">out_warps</text>
<polyline fill="none" stroke="#000000" points="947,-23.5 1047,-23.5 "/>
<text text-anchor="middle" x="997" y="-8.3" font-family="Times,serif" font-size="14.00" fill="#000000">xfms</text>
<polyline fill="none" stroke="#000000" points="1047,-.5 1047,-161.5 "/>
<text text-anchor="middle" x="1096" y="-131.3" font-family="Times,serif" font-size="14.00" fill="#000000">outputnode</text>
<polyline fill="none" stroke="#000000" points="1047,-108.5 1145,-108.5 "/>
<text text-anchor="middle" x="1096" y="-77.8" font-family="Times,serif" font-size="14.00" fill="#000000">utility</text>
<polyline fill="none" stroke="#000000" points="1047,-54.5 1145,-54.5 "/>
<text text-anchor="middle" x="1096" y="-23.8" font-family="Times,serif" font-size="14.00" fill="#000000"> </text>
<polyline fill="none" stroke="#000000" points="1145,-.5 1145,-161.5 "/>
<text text-anchor="middle" x="1170" y="-77.3" font-family="Times,serif" font-size="14.00" fill="#000000">OUT</text>
</g>
<!-- pepolar_estimate_wftopup&#45;&gt;pepolar_estimate_wfoutputnode -->
<g id="edge7" class="edge">
<title>pepolar_estimate_wftopup:e&#45;&gt;pepolar_estimate_wfoutputnode:w</title>
<path fill="none" stroke="#000000" d="M947,-325C947,-325 947,-137.3526 947,-91.1737"/>
<polygon fill="#000000" stroke="#000000" points="950.5001,-91 947,-81 943.5001,-91 950.5001,-91"/>
</g>
<!-- pepolar_estimate_wftopup&#45;&gt;pepolar_estimate_wfoutputnode -->
<g id="edge8" class="edge">
<title>pepolar_estimate_wftopup:e&#45;&gt;pepolar_estimate_wfoutputnode:w</title>
<path fill="none" stroke="#000000" d="M947,-302C947,-302 947,-154.4396 947,-114.0911"/>
<polygon fill="#000000" stroke="#000000" points="950.5001,-114 947,-104 943.5001,-114 950.5001,-114"/>
</g>
<!-- pepolar_estimate_wftopup&#45;&gt;pepolar_estimate_wfoutputnode -->
<g id="edge9" class="edge">
<title>pepolar_estimate_wftopup:e&#45;&gt;pepolar_estimate_wfoutputnode:w</title>
<path fill="none" stroke="#000000" d="M947,-279C947,-279 947,-171.7887 947,-137.4476"/>
<polygon fill="#000000" stroke="#000000" points="950.5001,-137 947,-127 943.5001,-137 950.5001,-137"/>
</g>
<!-- pepolar_estimate_wftopup&#45;&gt;pepolar_estimate_wfoutputnode -->
<g id="edge10" class="edge">
<title>pepolar_estimate_wftopup:e&#45;&gt;pepolar_estimate_wfoutputnode:w</title>
<path fill="none" stroke="#000000" d="M947,-256C947,-256 947,-108.4396 947,-68.0911"/>
<polygon fill="#000000" stroke="#000000" points="950.5001,-68 947,-58 943.5001,-68 950.5001,-68"/>
</g>
<!-- pepolar_estimate_wftopup&#45;&gt;pepolar_estimate_wfoutputnode -->
<g id="edge11" class="edge">
<title>pepolar_estimate_wftopup:e&#45;&gt;pepolar_estimate_wfoutputnode:w</title>
<path fill="none" stroke="#000000" d="M947,-233C947,-233 947,-65.3042 947,-22.0702"/>
<polygon fill="#000000" stroke="#000000" points="950.5001,-22 947,-12 943.5001,-22 950.5001,-22"/>
</g>
<!-- pepolar_estimate_wftopup&#45;&gt;pepolar_estimate_wfoutputnode -->
<g id="edge12" class="edge">
<title>pepolar_estimate_wftopup:e&#45;&gt;pepolar_estimate_wfoutputnode:w</title>
<path fill="none" stroke="#000000" d="M947,-210C947,-210 947,-82.5144 947,-45.1652"/>
<polygon fill="#000000" stroke="#000000" points="950.5001,-45 947,-35 943.5001,-45 950.5001,-45"/>
</g>
</g>
</svg>
