<?xml version="1.0" encoding="UTF-8" standalone="no"?>
<!DOCTYPE svg PUBLIC "-//W3C//DTD SVG 1.1//EN"
 "http://www.w3.org/Graphics/SVG/1.1/DTD/svg11.dtd">
<!-- Generated by graphviz version 2.40.1 (20161225.0304)
 -->
<!-- Title: %3 Pages: 1 -->
<svg width="480pt" height="476pt"
 viewBox="0.00 0.00 480.43 476.00" xmlns="http://www.w3.org/2000/svg" xmlns:xlink="http://www.w3.org/1999/xlink">
<g id="graph0" class="graph" transform="scale(1 1) rotate(0) translate(4 472)">
<title>%3</title>
<polygon fill="#ffffff" stroke="transparent" points="-4,4 -4,-472 476.4347,-472 476.4347,4 -4,4"/>
<!-- inputnode (utility) -->
<g id="node1" class="node">
<title>inputnode (utility)</title>
<ellipse fill="none" stroke="#000000" cx="343.8881" cy="-450" rx="94.7833" ry="18"/>
<text text-anchor="middle" x="343.8881" y="-446.3" font-family="Times,serif" font-size="14.00" fill="#000000">inputnode (utility)</text>
</g>
<!-- flatten (utils) -->
<g id="node2" class="node">
<title>flatten (utils)</title>
<ellipse fill="none" stroke="#000000" cx="343.8881" cy="-378" rx="71.4873" ry="18"/>
<text text-anchor="middle" x="343.8881" y="-374.3" font-family="Times,serif" font-size="14.00" fill="#000000">flatten (utils)</text>
</g>
<!-- inputnode (utility)&#45;&gt;flatten (utils) -->
<g id="edge1" class="edge">
<title>inputnode (utility)&#45;&gt;flatten (utils)</title>
<path fill="none" stroke="#000000" d="M343.8881,-431.8314C343.8881,-424.131 343.8881,-414.9743 343.8881,-406.4166"/>
<polygon fill="#000000" stroke="#000000" points="347.3882,-406.4132 343.8881,-396.4133 340.3882,-406.4133 347.3882,-406.4132"/>
</g>
<!-- readout_time (epi) -->
<g id="node3" class="node">
<title>readout_time (epi)</title>
<ellipse fill="none" stroke="#000000" cx="115.8881" cy="-306" rx="96.6831" ry="18"/>
<text text-anchor="middle" x="115.8881" y="-302.3" font-family="Times,serif" font-size="14.00" fill="#000000">readout_time (epi)</text>
</g>
<!-- flatten (utils)&#45;&gt;readout_time (epi) -->
<g id="edge2" class="edge">
<title>flatten (utils)&#45;&gt;readout_time (epi)</title>
<path fill="none" stroke="#000000" d="M299.1147,-363.861C263.6068,-352.648 213.6784,-336.8811 174.9066,-324.6374"/>
<polygon fill="#000000" stroke="#000000" points="175.8951,-321.2793 165.3053,-321.6054 173.7872,-327.9544 175.8951,-321.2793"/>
</g>
<!-- concat_blips (nibabel) -->
<g id="node4" class="node">
<title>concat_blips (nibabel)</title>
<ellipse fill="none" stroke="#000000" cx="343.8881" cy="-306" rx="113.18" ry="18"/>
<text text-anchor="middle" x="343.8881" y="-302.3" font-family="Times,serif" font-size="14.00" fill="#000000">concat_blips (nibabel)</text>
</g>
<!-- flatten (utils)&#45;&gt;concat_blips (nibabel) -->
<g id="edge3" class="edge">
<title>flatten (utils)&#45;&gt;concat_blips (nibabel)</title>
<path fill="none" stroke="#000000" d="M343.8881,-359.8314C343.8881,-352.131 343.8881,-342.9743 343.8881,-334.4166"/>
<polygon fill="#000000" stroke="#000000" points="347.3882,-334.4132 343.8881,-324.4133 340.3882,-334.4133 347.3882,-334.4132"/>
</g>
<!-- topup (fsl) -->
<g id="node5" class="node">
<title>topup (fsl)</title>
<ellipse fill="none" stroke="#000000" cx="343.8881" cy="-234" rx="58.4896" ry="18"/>
<text text-anchor="middle" x="343.8881" y="-230.3" font-family="Times,serif" font-size="14.00" fill="#000000">topup (fsl)</text>
</g>
<!-- flatten (utils)&#45;&gt;topup (fsl) -->
<g id="edge4" class="edge">
<title>flatten (utils)&#45;&gt;topup (fsl)</title>
<path fill="none" stroke="#000000" d="M401.2415,-367.1162C425.4878,-359.3736 451.4194,-346.2268 465.8881,-324 474.6169,-310.5908 474.6169,-301.4092 465.8881,-288 452.1223,-266.853 427.9803,-253.9252 404.7857,-246.0509"/>
<polygon fill="#000000" stroke="#000000" points="405.5248,-242.6151 394.9361,-242.9763 403.4389,-249.2971 405.5248,-242.6151"/>
</g>
<!-- readout_time (epi)&#45;&gt;topup (fsl) -->
<g id="edge5" class="edge">
<title>readout_time (epi)&#45;&gt;topup (fsl)</title>
<path fill="none" stroke="#000000" d="M165.08,-290.4657C202.8137,-278.5498 254.7325,-262.1544 292.9055,-250.0998"/>
<polygon fill="#000000" stroke="#000000" points="294.308,-253.3273 302.7898,-246.9784 292.2,-246.6522 294.308,-253.3273"/>
</g>
<!-- concat_blips (nibabel)&#45;&gt;topup (fsl) -->
<g id="edge6" class="edge">
<title>concat_blips (nibabel)&#45;&gt;topup (fsl)</title>
<path fill="none" stroke="#000000" d="M343.8881,-287.8314C343.8881,-280.131 343.8881,-270.9743 343.8881,-262.4166"/>
<polygon fill="#000000" stroke="#000000" points="347.3882,-262.4132 343.8881,-252.4133 340.3882,-262.4133 347.3882,-262.4132"/>
</g>
<!-- merge_corrected (images) -->
<g id="node6" class="node">
<title>merge_corrected (images)</title>
<ellipse fill="none" stroke="#000000" cx="133.8881" cy="-162" rx="133.7763" ry="18"/>
<text text-anchor="middle" x="133.8881" y="-158.3" font-family="Times,serif" font-size="14.00" fill="#000000">merge_corrected (images)</text>
</g>
<!-- topup (fsl)&#45;&gt;merge_corrected (images) -->
<g id="edge7" class="edge">
<title>topup (fsl)&#45;&gt;merge_corrected (images)</title>
<path fill="none" stroke="#000000" d="M304.3887,-220.4574C272.8942,-209.6592 228.3092,-194.3729 192.6303,-182.1402"/>
<polygon fill="#000000" stroke="#000000" points="193.4161,-178.7097 182.8215,-178.7772 191.1458,-185.3313 193.4161,-178.7097"/>
</g>
<!-- fix_coeff (bspline) -->
<g id="node7" class="node">
<title>fix_coeff (bspline)</title>
<ellipse fill="none" stroke="#000000" cx="343.8881" cy="-90" rx="93.6835" ry="18"/>
<text text-anchor="middle" x="343.8881" y="-86.3" font-family="Times,serif" font-size="14.00" fill="#000000">fix_coeff (bspline)</text>
</g>
<!-- topup (fsl)&#45;&gt;fix_coeff (bspline) -->
<g id="edge8" class="edge">
<title>topup (fsl)&#45;&gt;fix_coeff (bspline)</title>
<path fill="none" stroke="#000000" d="M343.8881,-215.7623C343.8881,-191.201 343.8881,-147.2474 343.8881,-118.3541"/>
<polygon fill="#000000" stroke="#000000" points="347.3882,-118.0896 343.8881,-108.0896 340.3882,-118.0897 347.3882,-118.0896"/>
</g>
<!-- outputnode (utility) -->
<g id="node8" class="node">
<title>outputnode (utility)</title>
<ellipse fill="none" stroke="#000000" cx="238.8881" cy="-18" rx="101.2821" ry="18"/>
<text text-anchor="middle" x="238.8881" y="-14.3" font-family="Times,serif" font-size="14.00" fill="#000000">outputnode (utility)</text>
</g>
<!-- topup (fsl)&#45;&gt;outputnode (utility) -->
<g id="edge9" class="edge">
<title>topup (fsl)&#45;&gt;outputnode (utility)</title>
<path fill="none" stroke="#000000" d="M368.2952,-217.4741C409.7309,-187.405 485.7346,-122.2195 446.8881,-72 432.0993,-52.8815 378.995,-39.2826 330.1502,-30.5137"/>
<polygon fill="#000000" stroke="#000000" points="330.5815,-27.0362 320.1295,-28.7699 329.3814,-33.9326 330.5815,-27.0362"/>
</g>
<!-- merge_corrected (images)&#45;&gt;outputnode (utility) -->
<g id="edge11" class="edge">
<title>merge_corrected (images)&#45;&gt;outputnode (utility)</title>
<path fill="none" stroke="#000000" d="M73.8777,-145.7768C55.2345,-137.6074 36.7438,-125.5648 25.8881,-108 17.4764,-94.3896 16.0624,-84.6276 25.8881,-72 41.1252,-52.418 95.8709,-38.794 146.0412,-30.129"/>
<polygon fill="#000000" stroke="#000000" points="146.7163,-33.5648 156.0012,-28.4618 145.5606,-26.6608 146.7163,-33.5648"/>
</g>
<!-- brainextraction_wf -->
<g id="node9" class="node">
<title>brainextraction_wf</title>
<ellipse fill="none" stroke="#000000" cx="133.8881" cy="-90" rx="98.5829" ry="18"/>
<text text-anchor="middle" x="133.8881" y="-86.3" font-family="Times,serif" font-size="14.00" fill="#000000">brainextraction_wf</text>
</g>
<!-- merge_corrected (images)&#45;&gt;brainextraction_wf -->
<g id="edge10" class="edge">
<title>merge_corrected (images)&#45;&gt;brainextraction_wf</title>
<path fill="none" stroke="#000000" d="M133.8881,-143.8314C133.8881,-136.131 133.8881,-126.9743 133.8881,-118.4166"/>
<polygon fill="#000000" stroke="#000000" points="137.3882,-118.4132 133.8881,-108.4133 130.3882,-118.4133 137.3882,-118.4132"/>
</g>
<!-- fix_coeff (bspline)&#45;&gt;outputnode (utility) -->
<g id="edge12" class="edge">
<title>fix_coeff (bspline)&#45;&gt;outputnode (utility)</title>
<path fill="none" stroke="#000000" d="M318.4705,-72.5708C304.7718,-63.1774 287.6856,-51.4611 272.8604,-41.2953"/>
<polygon fill="#000000" stroke="#000000" points="274.6622,-38.287 264.4356,-35.5182 270.7035,-44.0601 274.6622,-38.287"/>
</g>
<!-- brainextraction_wf&#45;&gt;outputnode (utility) -->
<g id="edge13" class="edge">
<title>brainextraction_wf&#45;&gt;outputnode (utility)</title>
<path fill="none" stroke="#000000" d="M159.3057,-72.5708C173.0044,-63.1774 190.0907,-51.4611 204.9158,-41.2953"/>
<polygon fill="#000000" stroke="#000000" points="207.0727,-44.0601 213.3407,-35.5182 203.114,-38.287 207.0727,-44.0601"/>
</g>
</g>
</svg>
