<?xml version="1.0" encoding="UTF-8" standalone="no"?>
<!DOCTYPE svg PUBLIC "-//W3C//DTD SVG 1.1//EN"
 "http://www.w3.org/Graphics/SVG/1.1/DTD/svg11.dtd">
<!-- Generated by graphviz version 2.40.1 (20161225.0304)
 -->
<!-- Title: structs Pages: 1 -->
<svg width="1612pt" height="1437pt"
 viewBox="0.00 0.00 1611.96 1437.00" xmlns="http://www.w3.org/2000/svg" xmlns:xlink="http://www.w3.org/1999/xlink">
<g id="graph0" class="graph" transform="scale(1 1) rotate(0) translate(4 1433)">
<title>structs</title>
<polygon fill="#ffffff" stroke="transparent" points="-4,4 -4,-1433 1607.9559,-1433 1607.9559,4 -4,4"/>
<!-- syn_sdc_wfinputnode -->
<g id="node1" class="node">
<title>syn_sdc_wfinputnode</title>
<polygon fill="none" stroke="#000000" points="209.9559,-1290.5 209.9559,-1428.5 447.9559,-1428.5 447.9559,-1290.5 209.9559,-1290.5"/>
<text text-anchor="middle" x="227.4559" y="-1355.8" font-family="Times,serif" font-size="14.00" fill="#000000">IN</text>
<polyline fill="none" stroke="#000000" points="244.9559,-1290.5 244.9559,-1428.5 "/>
<text text-anchor="middle" x="289.4559" y="-1401.8" font-family="Times,serif" font-size="14.00" fill="#000000">inputnode</text>
<polyline fill="none" stroke="#000000" points="244.9559,-1382.5 333.9559,-1382.5 "/>
<text text-anchor="middle" x="289.4559" y="-1355.8" font-family="Times,serif" font-size="14.00" fill="#000000">utility</text>
<polyline fill="none" stroke="#000000" points="244.9559,-1336.5 333.9559,-1336.5 "/>
<text text-anchor="middle" x="289.4559" y="-1309.8" font-family="Times,serif" font-size="14.00" fill="#000000"> </text>
<polyline fill="none" stroke="#000000" points="333.9559,-1290.5 333.9559,-1428.5 "/>
<text text-anchor="middle" x="390.9559" y="-1413.3" font-family="Times,serif" font-size="14.00" fill="#000000">OUT</text>
<polyline fill="none" stroke="#000000" points="333.9559,-1405.5 447.9559,-1405.5 "/>
<text text-anchor="middle" x="390.9559" y="-1390.3" font-family="Times,serif" font-size="14.00" fill="#000000">anat2epi_xfm</text>
<polyline fill="none" stroke="#000000" points="333.9559,-1382.5 447.9559,-1382.5 "/>
<text text-anchor="middle" x="390.9559" y="-1367.3" font-family="Times,serif" font-size="14.00" fill="#000000">anat_brain</text>
<polyline fill="none" stroke="#000000" points="333.9559,-1359.5 447.9559,-1359.5 "/>
<text text-anchor="middle" x="390.9559" y="-1344.3" font-family="Times,serif" font-size="14.00" fill="#000000">epi_mask</text>
<polyline fill="none" stroke="#000000" points="333.9559,-1336.5 447.9559,-1336.5 "/>
<text text-anchor="middle" x="390.9559" y="-1321.3" font-family="Times,serif" font-size="14.00" fill="#000000">epi_ref</text>
<polyline fill="none" stroke="#000000" points="333.9559,-1313.5 447.9559,-1313.5 "/>
<text text-anchor="middle" x="390.9559" y="-1298.3" font-family="Times,serif" font-size="14.00" fill="#000000">std2anat_xfm</text>
</g>
<!-- syn_sdc_wfinvert_t1w -->
<g id="node2" class="node">
<title>syn_sdc_wfinvert_t1w</title>
<polygon fill="none" stroke="#000000" points="93.4559,-1184.5 93.4559,-1253.5 324.4559,-1253.5 324.4559,-1184.5 93.4559,-1184.5"/>
<text text-anchor="middle" x="126.9559" y="-1238.3" font-family="Times,serif" font-size="14.00" fill="#000000">IN</text>
<polyline fill="none" stroke="#000000" points="93.4559,-1230.5 160.4559,-1230.5 "/>
<text text-anchor="middle" x="126.9559" y="-1215.3" font-family="Times,serif" font-size="14.00" fill="#000000">in_file</text>
<polyline fill="none" stroke="#000000" points="93.4559,-1207.5 160.4559,-1207.5 "/>
<text text-anchor="middle" x="126.9559" y="-1192.3" font-family="Times,serif" font-size="14.00" fill="#000000">ref_file</text>
<polyline fill="none" stroke="#000000" points="160.4559,-1184.5 160.4559,-1253.5 "/>
<text text-anchor="middle" x="207.4559" y="-1238.3" font-family="Times,serif" font-size="14.00" fill="#000000">invert_t1w</text>
<polyline fill="none" stroke="#000000" points="160.4559,-1230.5 254.4559,-1230.5 "/>
<text text-anchor="middle" x="207.4559" y="-1215.3" font-family="Times,serif" font-size="14.00" fill="#000000">image</text>
<polyline fill="none" stroke="#000000" points="160.4559,-1207.5 254.4559,-1207.5 "/>
<text text-anchor="middle" x="207.4559" y="-1192.3" font-family="Times,serif" font-size="14.00" fill="#000000"> </text>
<polyline fill="none" stroke="#000000" points="254.4559,-1184.5 254.4559,-1253.5 "/>
<text text-anchor="middle" x="289.4559" y="-1232.8" font-family="Times,serif" font-size="14.00" fill="#000000">OUT</text>
<polyline fill="none" stroke="#000000" points="254.4559,-1219.5 324.4559,-1219.5 "/>
<text text-anchor="middle" x="289.4559" y="-1198.3" font-family="Times,serif" font-size="14.00" fill="#000000">out_file</text>
</g>
<!-- syn_sdc_wfinputnode&#45;&gt;syn_sdc_wfinvert_t1w -->
<g id="edge14" class="edge">
<title>syn_sdc_wfinputnode:e&#45;&gt;syn_sdc_wfinvert_t1w:w</title>
<path fill="none" stroke="#000000" d="M447.9559,-1371.5C484.1781,-1371.5 472.2425,-1316.874 447.9559,-1290 394.7906,-1231.1706 146.1213,-1312.8294 92.9559,-1254 85.6225,-1245.8852 80.9112,-1231.8784 84.1676,-1224.277"/>
<polygon fill="#000000" stroke="#000000" points="86.1845,-1227.1485 92.9559,-1219 82.5809,-1221.1473 86.1845,-1227.1485"/>
</g>
<!-- syn_sdc_wfinputnode&#45;&gt;syn_sdc_wfinvert_t1w -->
<g id="edge19" class="edge">
<title>syn_sdc_wfinputnode:e&#45;&gt;syn_sdc_wfinvert_t1w:w</title>
<path fill="none" stroke="#000000" d="M447.9559,-1324.5C463.2893,-1324.5 458.2367,-1301.3761 447.9559,-1290 394.7906,-1231.1706 146.1213,-1312.8294 92.9559,-1254 78.3728,-1237.8632 70.0471,-1207.6662 83.2855,-1198.6237"/>
<polygon fill="#000000" stroke="#000000" points="84.2213,-1201.9964 92.9559,-1196 82.3883,-1195.2406 84.2213,-1201.9964"/>
</g>
<!-- syn_sdc_wfanat2epi -->
<g id="node3" class="node">
<title>syn_sdc_wfanat2epi</title>
<polygon fill="none" stroke="#000000" points="69.4559,-1055.5 69.4559,-1147.5 400.4559,-1147.5 400.4559,-1055.5 69.4559,-1055.5"/>
<text text-anchor="middle" x="137.9559" y="-1132.3" font-family="Times,serif" font-size="14.00" fill="#000000">IN</text>
<polyline fill="none" stroke="#000000" points="69.4559,-1124.5 206.4559,-1124.5 "/>
<text text-anchor="middle" x="137.9559" y="-1109.3" font-family="Times,serif" font-size="14.00" fill="#000000">input_image</text>
<polyline fill="none" stroke="#000000" points="69.4559,-1101.5 206.4559,-1101.5 "/>
<text text-anchor="middle" x="137.9559" y="-1086.3" font-family="Times,serif" font-size="14.00" fill="#000000">reference_image</text>
<polyline fill="none" stroke="#000000" points="69.4559,-1078.5 206.4559,-1078.5 "/>
<text text-anchor="middle" x="137.9559" y="-1063.3" font-family="Times,serif" font-size="14.00" fill="#000000">transforms</text>
<polyline fill="none" stroke="#000000" points="206.4559,-1055.5 206.4559,-1147.5 "/>
<text text-anchor="middle" x="245.9559" y="-1128.8" font-family="Times,serif" font-size="14.00" fill="#000000">anat2epi</text>
<polyline fill="none" stroke="#000000" points="206.4559,-1117.5 285.4559,-1117.5 "/>
<text text-anchor="middle" x="245.9559" y="-1098.3" font-family="Times,serif" font-size="14.00" fill="#000000">fixes</text>
<polyline fill="none" stroke="#000000" points="206.4559,-1086.5 285.4559,-1086.5 "/>
<text text-anchor="middle" x="245.9559" y="-1067.3" font-family="Times,serif" font-size="14.00" fill="#000000"> </text>
<polyline fill="none" stroke="#000000" points="285.4559,-1055.5 285.4559,-1147.5 "/>
<text text-anchor="middle" x="342.9559" y="-1120.8" font-family="Times,serif" font-size="14.00" fill="#000000">OUT</text>
<polyline fill="none" stroke="#000000" points="285.4559,-1101.5 400.4559,-1101.5 "/>
<text text-anchor="middle" x="342.9559" y="-1074.8" font-family="Times,serif" font-size="14.00" fill="#000000">output_image</text>
</g>
<!-- syn_sdc_wfinputnode&#45;&gt;syn_sdc_wfanat2epi -->
<g id="edge12" class="edge">
<title>syn_sdc_wfinputnode:e&#45;&gt;syn_sdc_wfanat2epi:w</title>
<path fill="none" stroke="#000000" d="M447.9559,-1394.5C494.4004,-1394.5 464.7931,-1333.2851 447.9559,-1290 440.0873,-1269.7714 428.4602,-1270.9925 414.9559,-1254 391.4859,-1224.4674 399.2143,-1203.5553 366.9559,-1184 309.9148,-1149.4212 113.2038,-1197.915 68.9559,-1148 59.1945,-1136.9884 53.3392,-1090.0679 61.2011,-1072.8599"/>
<polygon fill="#000000" stroke="#000000" points="63.4431,-1075.5476 68.9559,-1066.5 59.0042,-1070.1351 63.4431,-1075.5476"/>
</g>
<!-- syn_sdc_wfinputnode&#45;&gt;syn_sdc_wfanat2epi -->
<g id="edge16" class="edge">
<title>syn_sdc_wfinputnode:e&#45;&gt;syn_sdc_wfanat2epi:w</title>
<path fill="none" stroke="#000000" d="M447.9559,-1324.5C463.2893,-1324.5 456.3113,-1302.8569 447.9559,-1290 426.4888,-1256.9672 395.1216,-1281.5444 366.9559,-1254 342.3653,-1229.9519 361.6943,-1204.337 333.9559,-1184 238.0996,-1113.7208 147.1411,-1237.5247 68.9559,-1148 62.5424,-1140.6563 58.4367,-1111.4219 62.269,-1097.2637"/>
<polygon fill="#000000" stroke="#000000" points="65.0817,-1099.3611 68.9559,-1089.5 59.7779,-1094.7928 65.0817,-1099.3611"/>
</g>
<!-- syn_sdc_wftransform_list -->
<g id="node4" class="node">
<title>syn_sdc_wftransform_list</title>
<polygon fill="none" stroke="#000000" points="495.4559,-1184.5 495.4559,-1253.5 702.4559,-1253.5 702.4559,-1184.5 495.4559,-1184.5"/>
<text text-anchor="middle" x="514.9559" y="-1238.3" font-family="Times,serif" font-size="14.00" fill="#000000">IN</text>
<polyline fill="none" stroke="#000000" points="495.4559,-1230.5 534.4559,-1230.5 "/>
<text text-anchor="middle" x="514.9559" y="-1215.3" font-family="Times,serif" font-size="14.00" fill="#000000">in1</text>
<polyline fill="none" stroke="#000000" points="495.4559,-1207.5 534.4559,-1207.5 "/>
<text text-anchor="middle" x="514.9559" y="-1192.3" font-family="Times,serif" font-size="14.00" fill="#000000">in2</text>
<polyline fill="none" stroke="#000000" points="534.4559,-1184.5 534.4559,-1253.5 "/>
<text text-anchor="middle" x="593.4559" y="-1238.3" font-family="Times,serif" font-size="14.00" fill="#000000">transform_list</text>
<polyline fill="none" stroke="#000000" points="534.4559,-1230.5 652.4559,-1230.5 "/>
<text text-anchor="middle" x="593.4559" y="-1215.3" font-family="Times,serif" font-size="14.00" fill="#000000">utility</text>
<polyline fill="none" stroke="#000000" points="534.4559,-1207.5 652.4559,-1207.5 "/>
<text text-anchor="middle" x="593.4559" y="-1192.3" font-family="Times,serif" font-size="14.00" fill="#000000"> </text>
<polyline fill="none" stroke="#000000" points="652.4559,-1184.5 652.4559,-1253.5 "/>
<text text-anchor="middle" x="677.4559" y="-1232.8" font-family="Times,serif" font-size="14.00" fill="#000000">OUT</text>
<polyline fill="none" stroke="#000000" points="652.4559,-1219.5 702.4559,-1219.5 "/>
<text text-anchor="middle" x="677.4559" y="-1198.3" font-family="Times,serif" font-size="14.00" fill="#000000">out</text>
</g>
<!-- syn_sdc_wfinputnode&#45;&gt;syn_sdc_wftransform_list -->
<g id="edge13" class="edge">
<title>syn_sdc_wfinputnode:e&#45;&gt;syn_sdc_wftransform_list:w</title>
<path fill="none" stroke="#000000" d="M447.9559,-1394.5C456.6695,-1394.5 477.8432,-1263.7078 489.9639,-1227.9443"/>
<polygon fill="#000000" stroke="#000000" points="493.1385,-1229.4378 494.9559,-1219 487.0261,-1226.0263 493.1385,-1229.4378"/>
</g>
<!-- syn_sdc_wfinputnode&#45;&gt;syn_sdc_wftransform_list -->
<g id="edge25" class="edge">
<title>syn_sdc_wfinputnode:e&#45;&gt;syn_sdc_wftransform_list:w</title>
<path fill="none" stroke="#000000" d="M447.9559,-1301.5C473.6618,-1301.5 470.4268,-1277.4505 480.9559,-1254 489.9509,-1233.9664 475.4631,-1207.3376 485.2774,-1198.7757"/>
<polygon fill="#000000" stroke="#000000" points="486.3083,-1202.1212 494.9559,-1196 484.3785,-1195.3925 486.3083,-1202.1212"/>
</g>
<!-- syn_sdc_wfprior2epi -->
<g id="node5" class="node">
<title>syn_sdc_wfprior2epi</title>
<polygon fill="none" stroke="#000000" points="457.4559,-1067 457.4559,-1136 792.4559,-1136 792.4559,-1067 457.4559,-1067"/>
<text text-anchor="middle" x="525.9559" y="-1120.8" font-family="Times,serif" font-size="14.00" fill="#000000">IN</text>
<polyline fill="none" stroke="#000000" points="457.4559,-1113 594.4559,-1113 "/>
<text text-anchor="middle" x="525.9559" y="-1097.8" font-family="Times,serif" font-size="14.00" fill="#000000">reference_image</text>
<polyline fill="none" stroke="#000000" points="457.4559,-1090 594.4559,-1090 "/>
<text text-anchor="middle" x="525.9559" y="-1074.8" font-family="Times,serif" font-size="14.00" fill="#000000">transforms</text>
<polyline fill="none" stroke="#000000" points="594.4559,-1067 594.4559,-1136 "/>
<text text-anchor="middle" x="635.9559" y="-1120.8" font-family="Times,serif" font-size="14.00" fill="#000000">prior2epi</text>
<polyline fill="none" stroke="#000000" points="594.4559,-1113 677.4559,-1113 "/>
<text text-anchor="middle" x="635.9559" y="-1097.8" font-family="Times,serif" font-size="14.00" fill="#000000">fixes</text>
<polyline fill="none" stroke="#000000" points="594.4559,-1090 677.4559,-1090 "/>
<text text-anchor="middle" x="635.9559" y="-1074.8" font-family="Times,serif" font-size="14.00" fill="#000000"> </text>
<polyline fill="none" stroke="#000000" points="677.4559,-1067 677.4559,-1136 "/>
<text text-anchor="middle" x="734.9559" y="-1115.3" font-family="Times,serif" font-size="14.00" fill="#000000">OUT</text>
<polyline fill="none" stroke="#000000" points="677.4559,-1102 792.4559,-1102 "/>
<text text-anchor="middle" x="734.9559" y="-1080.8" font-family="Times,serif" font-size="14.00" fill="#000000">output_image</text>
</g>
<!-- syn_sdc_wfinputnode&#45;&gt;syn_sdc_wfprior2epi -->
<g id="edge20" class="edge">
<title>syn_sdc_wfinputnode:e&#45;&gt;syn_sdc_wfprior2epi:w</title>
<path fill="none" stroke="#000000" d="M447.9559,-1324.5C469.9447,-1324.5 440.5163,-1149.1618 450.8559,-1109.4367"/>
<polygon fill="#000000" stroke="#000000" points="453.637,-1111.5616 456.9559,-1101.5 448.0869,-1107.2959 453.637,-1111.5616"/>
</g>
<!-- syn_sdc_wfdeoblique -->
<g id="node7" class="node">
<title>syn_sdc_wfdeoblique</title>
<polygon fill="none" stroke="#000000" points="390.9559,-797.5 390.9559,-912.5 664.9559,-912.5 664.9559,-797.5 390.9559,-797.5"/>
<text text-anchor="middle" x="437.9559" y="-897.3" font-family="Times,serif" font-size="14.00" fill="#000000">IN</text>
<polyline fill="none" stroke="#000000" points="390.9559,-889.5 484.9559,-889.5 "/>
<text text-anchor="middle" x="437.9559" y="-874.3" font-family="Times,serif" font-size="14.00" fill="#000000">in_anat</text>
<polyline fill="none" stroke="#000000" points="390.9559,-866.5 484.9559,-866.5 "/>
<text text-anchor="middle" x="437.9559" y="-851.3" font-family="Times,serif" font-size="14.00" fill="#000000">in_epi</text>
<polyline fill="none" stroke="#000000" points="390.9559,-843.5 484.9559,-843.5 "/>
<text text-anchor="middle" x="437.9559" y="-828.3" font-family="Times,serif" font-size="14.00" fill="#000000">mask_anat</text>
<polyline fill="none" stroke="#000000" points="390.9559,-820.5 484.9559,-820.5 "/>
<text text-anchor="middle" x="437.9559" y="-805.3" font-family="Times,serif" font-size="14.00" fill="#000000">mask_epi</text>
<polyline fill="none" stroke="#000000" points="484.9559,-797.5 484.9559,-912.5 "/>
<text text-anchor="middle" x="527.9559" y="-889.8" font-family="Times,serif" font-size="14.00" fill="#000000">deoblique</text>
<polyline fill="none" stroke="#000000" points="484.9559,-874.5 570.9559,-874.5 "/>
<text text-anchor="middle" x="527.9559" y="-851.8" font-family="Times,serif" font-size="14.00" fill="#000000">utils</text>
<polyline fill="none" stroke="#000000" points="484.9559,-836.5 570.9559,-836.5 "/>
<text text-anchor="middle" x="527.9559" y="-813.3" font-family="Times,serif" font-size="14.00" fill="#000000"> </text>
<polyline fill="none" stroke="#000000" points="570.9559,-797.5 570.9559,-912.5 "/>
<text text-anchor="middle" x="617.9559" y="-897.3" font-family="Times,serif" font-size="14.00" fill="#000000">OUT</text>
<polyline fill="none" stroke="#000000" points="570.9559,-889.5 664.9559,-889.5 "/>
<text text-anchor="middle" x="617.9559" y="-874.3" font-family="Times,serif" font-size="14.00" fill="#000000">mask_anat</text>
<polyline fill="none" stroke="#000000" points="570.9559,-866.5 664.9559,-866.5 "/>
<text text-anchor="middle" x="617.9559" y="-851.3" font-family="Times,serif" font-size="14.00" fill="#000000">mask_epi</text>
<polyline fill="none" stroke="#000000" points="570.9559,-843.5 664.9559,-843.5 "/>
<text text-anchor="middle" x="617.9559" y="-828.3" font-family="Times,serif" font-size="14.00" fill="#000000">out_anat</text>
<polyline fill="none" stroke="#000000" points="570.9559,-820.5 664.9559,-820.5 "/>
<text text-anchor="middle" x="617.9559" y="-805.3" font-family="Times,serif" font-size="14.00" fill="#000000">out_epi</text>
</g>
<!-- syn_sdc_wfinputnode&#45;&gt;syn_sdc_wfdeoblique -->
<g id="edge15" class="edge">
<title>syn_sdc_wfinputnode:e&#45;&gt;syn_sdc_wfdeoblique:w</title>
<path fill="none" stroke="#000000" d="M447.9559,-1347.5C652.0485,-1347.5 846.5697,-1254.1567 801.9559,-1055 790.5694,-1004.1706 794.5094,-979.0414 751.9559,-949 686.0945,-902.504 445.0606,-972.7686 390.9559,-913 362.4805,-881.5437 347.3342,-820.2019 380.7957,-810.3497"/>
<polygon fill="#000000" stroke="#000000" points="381.5039,-813.7864 390.9559,-809 380.5821,-806.8474 381.5039,-813.7864"/>
</g>
<!-- syn_sdc_wfinputnode&#45;&gt;syn_sdc_wfdeoblique -->
<g id="edge17" class="edge">
<title>syn_sdc_wfinputnode:e&#45;&gt;syn_sdc_wfdeoblique:w</title>
<path fill="none" stroke="#000000" d="M447.9559,-1324.5C463.2893,-1324.5 448.7841,-1305.3109 447.9559,-1290 445.8974,-1251.9444 422.4946,-985.3226 410.9559,-949 405.4143,-931.5557 395.5472,-930.7182 390.9559,-913 385.6517,-892.5302 371.7035,-866.6147 381.0915,-857.9623"/>
<polygon fill="#000000" stroke="#000000" points="382.3851,-861.2283 390.9559,-855 380.3718,-854.5241 382.3851,-861.2283"/>
</g>
<!-- syn_sdc_wfsyn -->
<g id="node8" class="node">
<title>syn_sdc_wfsyn</title>
<polygon fill="none" stroke="#000000" points="664.9559,-622.5 664.9559,-760.5 1046.9559,-760.5 1046.9559,-622.5 664.9559,-622.5"/>
<text text-anchor="middle" x="751.4559" y="-745.3" font-family="Times,serif" font-size="14.00" fill="#000000">IN</text>
<polyline fill="none" stroke="#000000" points="664.9559,-737.5 837.9559,-737.5 "/>
<text text-anchor="middle" x="751.4559" y="-722.3" font-family="Times,serif" font-size="14.00" fill="#000000">fixed_image</text>
<polyline fill="none" stroke="#000000" points="664.9559,-714.5 837.9559,-714.5 "/>
<text text-anchor="middle" x="751.4559" y="-699.3" font-family="Times,serif" font-size="14.00" fill="#000000">fixed_image_masks</text>
<polyline fill="none" stroke="#000000" points="664.9559,-691.5 837.9559,-691.5 "/>
<text text-anchor="middle" x="751.4559" y="-676.3" font-family="Times,serif" font-size="14.00" fill="#000000">moving_image</text>
<polyline fill="none" stroke="#000000" points="664.9559,-668.5 837.9559,-668.5 "/>
<text text-anchor="middle" x="751.4559" y="-653.3" font-family="Times,serif" font-size="14.00" fill="#000000">moving_image_masks</text>
<polyline fill="none" stroke="#000000" points="664.9559,-645.5 837.9559,-645.5 "/>
<text text-anchor="middle" x="751.4559" y="-630.3" font-family="Times,serif" font-size="14.00" fill="#000000">restrict_deformation</text>
<polyline fill="none" stroke="#000000" points="837.9559,-622.5 837.9559,-760.5 "/>
<text text-anchor="middle" x="862.9559" y="-733.8" font-family="Times,serif" font-size="14.00" fill="#000000">syn</text>
<polyline fill="none" stroke="#000000" points="837.9559,-714.5 887.9559,-714.5 "/>
<text text-anchor="middle" x="862.9559" y="-687.8" font-family="Times,serif" font-size="14.00" fill="#000000">fixes</text>
<polyline fill="none" stroke="#000000" points="837.9559,-668.5 887.9559,-668.5 "/>
<text text-anchor="middle" x="862.9559" y="-641.8" font-family="Times,serif" font-size="14.00" fill="#000000"> </text>
<polyline fill="none" stroke="#000000" points="887.9559,-622.5 887.9559,-760.5 "/>
<text text-anchor="middle" x="967.4559" y="-722.3" font-family="Times,serif" font-size="14.00" fill="#000000">OUT</text>
<polyline fill="none" stroke="#000000" points="887.9559,-691.5 1046.9559,-691.5 "/>
<text text-anchor="middle" x="967.4559" y="-653.3" font-family="Times,serif" font-size="14.00" fill="#000000">forward_transforms</text>
</g>
<!-- syn_sdc_wfinputnode&#45;&gt;syn_sdc_wfsyn -->
<g id="edge22" class="edge">
<title>syn_sdc_wfinputnode:e&#45;&gt;syn_sdc_wfsyn:w</title>
<path fill="none" stroke="#000000" d="M447.9559,-1324.5C655.7783,-1324.5 858.9559,-1309.3223 858.9559,-1101.5 858.9559,-1101.5 858.9559,-1101.5 858.9559,-984 858.9559,-852.633 710.985,-884.039 664.9559,-761 646.4192,-711.4502 613.1035,-643.2905 654.8712,-634.4566"/>
<polygon fill="#000000" stroke="#000000" points="655.3311,-637.9287 664.9559,-633.5 654.6701,-630.96 655.3311,-637.9287"/>
</g>
<!-- syn_sdc_wfunwarp_ref -->
<g id="node9" class="node">
<title>syn_sdc_wfunwarp_ref</title>
<polygon fill="none" stroke="#000000" points="1060.9559,-493.5 1060.9559,-585.5 1410.9559,-585.5 1410.9559,-493.5 1060.9559,-493.5"/>
<text text-anchor="middle" x="1129.4559" y="-570.3" font-family="Times,serif" font-size="14.00" fill="#000000">IN</text>
<polyline fill="none" stroke="#000000" points="1060.9559,-562.5 1197.9559,-562.5 "/>
<text text-anchor="middle" x="1129.4559" y="-547.3" font-family="Times,serif" font-size="14.00" fill="#000000">input_image</text>
<polyline fill="none" stroke="#000000" points="1060.9559,-539.5 1197.9559,-539.5 "/>
<text text-anchor="middle" x="1129.4559" y="-524.3" font-family="Times,serif" font-size="14.00" fill="#000000">reference_image</text>
<polyline fill="none" stroke="#000000" points="1060.9559,-516.5 1197.9559,-516.5 "/>
<text text-anchor="middle" x="1129.4559" y="-501.3" font-family="Times,serif" font-size="14.00" fill="#000000">transforms</text>
<polyline fill="none" stroke="#000000" points="1197.9559,-493.5 1197.9559,-585.5 "/>
<text text-anchor="middle" x="1246.9559" y="-566.8" font-family="Times,serif" font-size="14.00" fill="#000000">unwarp_ref</text>
<polyline fill="none" stroke="#000000" points="1197.9559,-555.5 1295.9559,-555.5 "/>
<text text-anchor="middle" x="1246.9559" y="-536.3" font-family="Times,serif" font-size="14.00" fill="#000000">fixes</text>
<polyline fill="none" stroke="#000000" points="1197.9559,-524.5 1295.9559,-524.5 "/>
<text text-anchor="middle" x="1246.9559" y="-505.3" font-family="Times,serif" font-size="14.00" fill="#000000"> </text>
<polyline fill="none" stroke="#000000" points="1295.9559,-493.5 1295.9559,-585.5 "/>
<text text-anchor="middle" x="1353.4559" y="-558.8" font-family="Times,serif" font-size="14.00" fill="#000000">OUT</text>
<polyline fill="none" stroke="#000000" points="1295.9559,-539.5 1410.9559,-539.5 "/>
<text text-anchor="middle" x="1353.4559" y="-512.8" font-family="Times,serif" font-size="14.00" fill="#000000">output_image</text>
</g>
<!-- syn_sdc_wfinputnode&#45;&gt;syn_sdc_wfunwarp_ref -->
<g id="edge23" class="edge">
<title>syn_sdc_wfinputnode:e&#45;&gt;syn_sdc_wfunwarp_ref:w</title>
<path fill="none" stroke="#000000" d="M447.9559,-1324.5C595.8394,-1324.5 1074.9559,-1249.3835 1074.9559,-1101.5 1074.9559,-1101.5 1074.9559,-1101.5 1074.9559,-855 1074.9559,-839.9341 1050.3547,-609.966 1057.0722,-560.7327"/>
<polygon fill="#000000" stroke="#000000" points="1060.3047,-562.0748 1060.9559,-551.5 1053.8523,-559.3606 1060.3047,-562.0748"/>
</g>
<!-- syn_sdc_wfinputnode&#45;&gt;syn_sdc_wfunwarp_ref -->
<g id="edge24" class="edge">
<title>syn_sdc_wfinputnode:e&#45;&gt;syn_sdc_wfunwarp_ref:w</title>
<path fill="none" stroke="#000000" d="M447.9559,-1324.5C563.0274,-1324.5 856.2638,-1301.7599 960.9559,-1254 1048.0195,-1214.2821 1112.9559,-1197.1952 1112.9559,-1101.5 1112.9559,-1101.5 1112.9559,-1101.5 1112.9559,-855 1112.9559,-750.0763 1102.5659,-723.2259 1074.9559,-622 1064.8743,-585.0382 1027.0171,-537.8367 1050.9138,-528.9702"/>
<polygon fill="#000000" stroke="#000000" points="1051.5684,-532.4117 1060.9559,-527.5 1050.5544,-525.4856 1051.5684,-532.4117"/>
</g>
<!-- syn_sdc_wfextract_field -->
<g id="node10" class="node">
<title>syn_sdc_wfextract_field</title>
<polygon fill="none" stroke="#000000" points="429.4559,-505 429.4559,-574 668.4559,-574 668.4559,-505 429.4559,-505"/>
<text text-anchor="middle" x="470.4559" y="-558.8" font-family="Times,serif" font-size="14.00" fill="#000000">IN</text>
<polyline fill="none" stroke="#000000" points="429.4559,-551 511.4559,-551 "/>
<text text-anchor="middle" x="470.4559" y="-535.8" font-family="Times,serif" font-size="14.00" fill="#000000">epi_meta</text>
<polyline fill="none" stroke="#000000" points="429.4559,-528 511.4559,-528 "/>
<text text-anchor="middle" x="470.4559" y="-512.8" font-family="Times,serif" font-size="14.00" fill="#000000">in_file</text>
<polyline fill="none" stroke="#000000" points="511.4559,-505 511.4559,-574 "/>
<text text-anchor="middle" x="564.9559" y="-558.8" font-family="Times,serif" font-size="14.00" fill="#000000">extract_field</text>
<polyline fill="none" stroke="#000000" points="511.4559,-551 618.4559,-551 "/>
<text text-anchor="middle" x="564.9559" y="-535.8" font-family="Times,serif" font-size="14.00" fill="#000000">utility</text>
<polyline fill="none" stroke="#000000" points="511.4559,-528 618.4559,-528 "/>
<text text-anchor="middle" x="564.9559" y="-512.8" font-family="Times,serif" font-size="14.00" fill="#000000"> </text>
<polyline fill="none" stroke="#000000" points="618.4559,-505 618.4559,-574 "/>
<text text-anchor="middle" x="643.4559" y="-553.3" font-family="Times,serif" font-size="14.00" fill="#000000">OUT</text>
<polyline fill="none" stroke="#000000" points="618.4559,-540 668.4559,-540 "/>
<text text-anchor="middle" x="643.4559" y="-518.8" font-family="Times,serif" font-size="14.00" fill="#000000">out</text>
</g>
<!-- syn_sdc_wfinputnode&#45;&gt;syn_sdc_wfextract_field -->
<g id="edge18" class="edge">
<title>syn_sdc_wfinputnode:e&#45;&gt;syn_sdc_wfextract_field:w</title>
<path fill="none" stroke="#000000" d="M447.9559,-1324.5C463.2893,-1324.5 458.2493,-1301.3647 447.9559,-1290 393.538,-1229.9183 147.2486,-1305.8723 84.9559,-1254 30.7473,-1208.8595 40.9559,-1172.0425 40.9559,-1101.5 40.9559,-1101.5 40.9559,-1101.5 40.9559,-855 40.9559,-636.1046 201.7167,-542.3523 418.9023,-539.5642"/>
<polygon fill="#000000" stroke="#000000" points="418.9785,-543.0639 428.9559,-539.5 418.9337,-536.064 418.9785,-543.0639"/>
</g>
<!-- syn_sdc_wfreoblique -->
<g id="node11" class="node">
<title>syn_sdc_wfreoblique</title>
<polygon fill="none" stroke="#000000" points="668.9559,-364.5 668.9559,-456.5 914.9559,-456.5 914.9559,-364.5 668.9559,-364.5"/>
<text text-anchor="middle" x="710.4559" y="-441.3" font-family="Times,serif" font-size="14.00" fill="#000000">IN</text>
<polyline fill="none" stroke="#000000" points="668.9559,-433.5 751.9559,-433.5 "/>
<text text-anchor="middle" x="710.4559" y="-418.3" font-family="Times,serif" font-size="14.00" fill="#000000">in_epi</text>
<polyline fill="none" stroke="#000000" points="668.9559,-410.5 751.9559,-410.5 "/>
<text text-anchor="middle" x="710.4559" y="-395.3" font-family="Times,serif" font-size="14.00" fill="#000000">in_field</text>
<polyline fill="none" stroke="#000000" points="668.9559,-387.5 751.9559,-387.5 "/>
<text text-anchor="middle" x="710.4559" y="-372.3" font-family="Times,serif" font-size="14.00" fill="#000000">in_plumb</text>
<polyline fill="none" stroke="#000000" points="751.9559,-364.5 751.9559,-456.5 "/>
<text text-anchor="middle" x="793.9559" y="-437.8" font-family="Times,serif" font-size="14.00" fill="#000000">reoblique</text>
<polyline fill="none" stroke="#000000" points="751.9559,-426.5 835.9559,-426.5 "/>
<text text-anchor="middle" x="793.9559" y="-407.3" font-family="Times,serif" font-size="14.00" fill="#000000">utils</text>
<polyline fill="none" stroke="#000000" points="751.9559,-395.5 835.9559,-395.5 "/>
<text text-anchor="middle" x="793.9559" y="-376.3" font-family="Times,serif" font-size="14.00" fill="#000000"> </text>
<polyline fill="none" stroke="#000000" points="835.9559,-364.5 835.9559,-456.5 "/>
<text text-anchor="middle" x="875.4559" y="-437.8" font-family="Times,serif" font-size="14.00" fill="#000000">OUT</text>
<polyline fill="none" stroke="#000000" points="835.9559,-426.5 914.9559,-426.5 "/>
<text text-anchor="middle" x="875.4559" y="-407.3" font-family="Times,serif" font-size="14.00" fill="#000000">out_epi</text>
<polyline fill="none" stroke="#000000" points="835.9559,-395.5 914.9559,-395.5 "/>
<text text-anchor="middle" x="875.4559" y="-376.3" font-family="Times,serif" font-size="14.00" fill="#000000">out_field</text>
</g>
<!-- syn_sdc_wfinputnode&#45;&gt;syn_sdc_wfreoblique -->
<g id="edge21" class="edge">
<title>syn_sdc_wfinputnode:e&#45;&gt;syn_sdc_wfreoblique:w</title>
<path fill="none" stroke="#000000" d="M447.9559,-1324.5C463.2893,-1324.5 458.312,-1301.3076 447.9559,-1290 386.3326,-1222.7144 107.9474,-1313.7073 38.9559,-1254 -13.703,-1208.4274 2.9559,-1171.1407 2.9559,-1101.5 2.9559,-1101.5 2.9559,-1101.5 2.9559,-691.5 2.9559,-535.157 488.7829,-427.0076 658.7056,-422.6375"/>
<polygon fill="#000000" stroke="#000000" points="659.0038,-426.1339 668.9559,-422.5 658.9098,-419.1345 659.0038,-426.1339"/>
</g>
<!-- syn_sdc_wfinvert_t1w&#45;&gt;syn_sdc_wfanat2epi -->
<g id="edge26" class="edge">
<title>syn_sdc_wfinvert_t1w:e&#45;&gt;syn_sdc_wfanat2epi:w</title>
<path fill="none" stroke="#000000" d="M324.9559,-1202C332.9559,-1202 330.2041,-1190.0379 324.9559,-1184 249.5801,-1097.2828 144.3317,-1234.7172 68.9559,-1148 61.8831,-1139.863 57.1759,-1126.1124 60.3344,-1118.6651"/>
<polygon fill="#000000" stroke="#000000" points="62.1763,-1121.6417 68.9559,-1113.5 58.5788,-1115.6369 62.1763,-1121.6417"/>
</g>
<!-- syn_sdc_wfanat2epi&#45;&gt;syn_sdc_wfdeoblique -->
<g id="edge1" class="edge">
<title>syn_sdc_wfanat2epi:e&#45;&gt;syn_sdc_wfdeoblique:w</title>
<path fill="none" stroke="#000000" d="M400.9559,-1078.5C441.3846,-1078.5 363.6849,-913.8315 381.9645,-882.9562"/>
<polygon fill="#000000" stroke="#000000" points="383.8878,-885.8926 390.9559,-878 380.5087,-879.7622 383.8878,-885.8926"/>
</g>
<!-- syn_sdc_wftransform_list&#45;&gt;syn_sdc_wfprior2epi -->
<g id="edge33" class="edge">
<title>syn_sdc_wftransform_list:e&#45;&gt;syn_sdc_wfprior2epi:w</title>
<path fill="none" stroke="#000000" d="M702.9559,-1202C710.9559,-1202 708.0484,-1190.1698 702.9559,-1184 632.0734,-1098.1215 527.8385,-1222.3785 456.9559,-1136.5 450.8025,-1129.0448 446.6292,-1100.1474 450.3647,-1086.1646"/>
<polygon fill="#000000" stroke="#000000" points="453.0894,-1088.3641 456.9559,-1078.5 447.782,-1083.8 453.0894,-1088.3641"/>
</g>
<!-- syn_sdc_wfatlas_msk -->
<g id="node6" class="node">
<title>syn_sdc_wfatlas_msk</title>
<polygon fill="none" stroke="#000000" points="507.4559,-949.5 507.4559,-1018.5 742.4559,-1018.5 742.4559,-949.5 507.4559,-949.5"/>
<text text-anchor="middle" x="537.4559" y="-997.8" font-family="Times,serif" font-size="14.00" fill="#000000">IN</text>
<polyline fill="none" stroke="#000000" points="507.4559,-984.5 567.4559,-984.5 "/>
<text text-anchor="middle" x="537.4559" y="-963.3" font-family="Times,serif" font-size="14.00" fill="#000000">in_file</text>
<polyline fill="none" stroke="#000000" points="567.4559,-949.5 567.4559,-1018.5 "/>
<text text-anchor="middle" x="611.9559" y="-1003.3" font-family="Times,serif" font-size="14.00" fill="#000000">atlas_msk</text>
<polyline fill="none" stroke="#000000" points="567.4559,-995.5 656.4559,-995.5 "/>
<text text-anchor="middle" x="611.9559" y="-980.3" font-family="Times,serif" font-size="14.00" fill="#000000">nibabel</text>
<polyline fill="none" stroke="#000000" points="567.4559,-972.5 656.4559,-972.5 "/>
<text text-anchor="middle" x="611.9559" y="-957.3" font-family="Times,serif" font-size="14.00" fill="#000000"> </text>
<polyline fill="none" stroke="#000000" points="656.4559,-949.5 656.4559,-1018.5 "/>
<text text-anchor="middle" x="699.4559" y="-997.8" font-family="Times,serif" font-size="14.00" fill="#000000">OUT</text>
<polyline fill="none" stroke="#000000" points="656.4559,-984.5 742.4559,-984.5 "/>
<text text-anchor="middle" x="699.4559" y="-963.3" font-family="Times,serif" font-size="14.00" fill="#000000">out_mask</text>
</g>
<!-- syn_sdc_wfprior2epi&#45;&gt;syn_sdc_wfatlas_msk -->
<g id="edge27" class="edge">
<title>syn_sdc_wfprior2epi:e&#45;&gt;syn_sdc_wfatlas_msk:w</title>
<path fill="none" stroke="#000000" d="M792.9559,-1084.5C800.9559,-1084.5 798.1286,-1072.6027 792.9559,-1066.5 709.6412,-968.2067 590.2707,-1117.2933 506.9559,-1019 494.6976,-1004.5379 486.9988,-978.8112 497.3852,-970.0327"/>
<polygon fill="#000000" stroke="#000000" points="498.4803,-973.3572 506.9559,-967 496.3658,-966.6842 498.4803,-973.3572"/>
</g>
<!-- syn_sdc_wfatlas_msk&#45;&gt;syn_sdc_wfdeoblique -->
<g id="edge2" class="edge">
<title>syn_sdc_wfatlas_msk:e&#45;&gt;syn_sdc_wfdeoblique:w</title>
<path fill="none" stroke="#000000" d="M742.9559,-967C750.9559,-967 748.3173,-954.9377 742.9559,-949 690.2602,-890.6401 443.6516,-971.3599 390.9559,-913 369.4686,-889.203 357.6999,-843.5442 380.8149,-833.841"/>
<polygon fill="#000000" stroke="#000000" points="381.7419,-837.23 390.9559,-832 380.4915,-830.3425 381.7419,-837.23"/>
</g>
<!-- syn_sdc_wfdeoblique&#45;&gt;syn_sdc_wfsyn -->
<g id="edge7" class="edge">
<title>syn_sdc_wfdeoblique:e&#45;&gt;syn_sdc_wfsyn:w</title>
<path fill="none" stroke="#000000" d="M664.9559,-878C738.5731,-878 602.5538,-720.7727 654.8798,-704.8043"/>
<polygon fill="#000000" stroke="#000000" points="655.488,-708.2548 664.9559,-703.5 654.5893,-701.3128 655.488,-708.2548"/>
</g>
<!-- syn_sdc_wfdeoblique&#45;&gt;syn_sdc_wfsyn -->
<g id="edge8" class="edge">
<title>syn_sdc_wfdeoblique:e&#45;&gt;syn_sdc_wfsyn:w</title>
<path fill="none" stroke="#000000" d="M664.9559,-855C664.9559,-855 664.9559,-707.067 664.9559,-666.6165"/>
<polygon fill="#000000" stroke="#000000" points="668.456,-666.5 664.9559,-656.5 661.456,-666.5 668.456,-666.5"/>
</g>
<!-- syn_sdc_wfdeoblique&#45;&gt;syn_sdc_wfsyn -->
<g id="edge9" class="edge">
<title>syn_sdc_wfdeoblique:e&#45;&gt;syn_sdc_wfsyn:w</title>
<path fill="none" stroke="#000000" d="M664.9559,-832C707.449,-832 634.414,-745.354 655.2456,-729.1079"/>
<polygon fill="#000000" stroke="#000000" points="656.206,-732.4741 664.9559,-726.5 654.3903,-725.7136 656.206,-732.4741"/>
</g>
<!-- syn_sdc_wfdeoblique&#45;&gt;syn_sdc_wfsyn -->
<g id="edge10" class="edge">
<title>syn_sdc_wfdeoblique:e&#45;&gt;syn_sdc_wfsyn:w</title>
<path fill="none" stroke="#000000" d="M664.9559,-809C664.9559,-809 664.9559,-720.1901 664.9559,-689.6616"/>
<polygon fill="#000000" stroke="#000000" points="668.456,-689.5 664.9559,-679.5 661.456,-689.5 668.456,-689.5"/>
</g>
<!-- syn_sdc_wfsyn&#45;&gt;syn_sdc_wfunwarp_ref -->
<g id="edge32" class="edge">
<title>syn_sdc_wfsyn:e&#45;&gt;syn_sdc_wfunwarp_ref:w</title>
<path fill="none" stroke="#000000" d="M1046.9559,-656.5C1076.9016,-656.5 1038.449,-538.0376 1052.3639,-510.273"/>
<polygon fill="#000000" stroke="#000000" points="1054.6075,-512.9822 1060.9559,-504.5 1050.7035,-507.1719 1054.6075,-512.9822"/>
</g>
<!-- syn_sdc_wfsyn&#45;&gt;syn_sdc_wfextract_field -->
<g id="edge31" class="edge">
<title>syn_sdc_wfsyn:e&#45;&gt;syn_sdc_wfextract_field:w</title>
<path fill="none" stroke="#000000" d="M1046.9559,-656.5C1062.2893,-656.5 1057.3745,-633.2501 1046.9559,-622 953.3665,-520.9412 522.5453,-675.5588 428.9559,-574.5 414.1774,-558.542 405.9861,-528.2221 419.2712,-519.1367"/>
<polygon fill="#000000" stroke="#000000" points="420.2266,-522.5041 428.9559,-516.5 418.3877,-515.75 420.2266,-522.5041"/>
</g>
<!-- syn_sdc_wfunwarp_ref&#45;&gt;syn_sdc_wfreoblique -->
<g id="edge34" class="edge">
<title>syn_sdc_wfunwarp_ref:e&#45;&gt;syn_sdc_wfreoblique:w</title>
<path fill="none" stroke="#000000" d="M1410.9559,-516.5C1421.4004,-516.5 1418.1601,-500.5622 1410.9559,-493 1354.0221,-433.2369 725.8897,-516.7631 668.9559,-457 646.6064,-433.5398 635.257,-386.8362 659.0392,-377.2456"/>
<polygon fill="#000000" stroke="#000000" points="659.7141,-380.6807 668.9559,-375.5 658.5005,-373.7867 659.7141,-380.6807"/>
</g>
<!-- syn_sdc_wfextract_field&#45;&gt;syn_sdc_wfreoblique -->
<g id="edge11" class="edge">
<title>syn_sdc_wfextract_field:e&#45;&gt;syn_sdc_wfreoblique:w</title>
<path fill="none" stroke="#000000" d="M668.9559,-522.5C719.7615,-522.5 630.0579,-417.1182 658.9089,-400.6523"/>
<polygon fill="#000000" stroke="#000000" points="659.9109,-404.0171 668.9559,-398.5 658.4446,-397.1724 659.9109,-404.0171"/>
</g>
<!-- syn_sdc_wfbrainextraction_wf -->
<g id="node12" class="node">
<title>syn_sdc_wfbrainextraction_wf</title>
<polygon fill="none" stroke="#000000" points="915.4559,-258.5 915.4559,-327.5 1376.4559,-327.5 1376.4559,-258.5 915.4559,-258.5"/>
<text text-anchor="middle" x="983.9559" y="-306.8" font-family="Times,serif" font-size="14.00" fill="#000000">IN</text>
<polyline fill="none" stroke="#000000" points="915.4559,-293.5 1052.4559,-293.5 "/>
<text text-anchor="middle" x="983.9559" y="-272.3" font-family="Times,serif" font-size="14.00" fill="#000000">inputnode.in_file</text>
<polyline fill="none" stroke="#000000" points="1052.4559,-258.5 1052.4559,-327.5 "/>
<text text-anchor="middle" x="1128.4559" y="-312.3" font-family="Times,serif" font-size="14.00" fill="#000000">brainextraction_wf</text>
<polyline fill="none" stroke="#000000" points="1052.4559,-304.5 1204.4559,-304.5 "/>
<text text-anchor="middle" x="1128.4559" y="-289.3" font-family="Times,serif" font-size="14.00" fill="#000000"> </text>
<polyline fill="none" stroke="#000000" points="1052.4559,-281.5 1204.4559,-281.5 "/>
<text text-anchor="middle" x="1128.4559" y="-266.3" font-family="Times,serif" font-size="14.00" fill="#000000"> </text>
<polyline fill="none" stroke="#000000" points="1204.4559,-258.5 1204.4559,-327.5 "/>
<text text-anchor="middle" x="1290.4559" y="-306.8" font-family="Times,serif" font-size="14.00" fill="#000000">OUT</text>
<polyline fill="none" stroke="#000000" points="1204.4559,-293.5 1376.4559,-293.5 "/>
<text text-anchor="middle" x="1290.4559" y="-272.3" font-family="Times,serif" font-size="14.00" fill="#000000">outputnode.out_mask</text>
</g>
<!-- syn_sdc_wfreoblique&#45;&gt;syn_sdc_wfbrainextraction_wf -->
<g id="edge28" class="edge">
<title>syn_sdc_wfreoblique:e&#45;&gt;syn_sdc_wfbrainextraction_wf:w</title>
<path fill="none" stroke="#000000" d="M914.9559,-411.5C941.0679,-411.5 899.2479,-309.6021 907.3155,-282.5354"/>
<polygon fill="#000000" stroke="#000000" points="909.6318,-285.1599 914.9559,-276 905.0816,-279.8405 909.6318,-285.1599"/>
</g>
<!-- syn_sdc_wfbs_filter -->
<g id="node13" class="node">
<title>syn_sdc_wfbs_filter</title>
<polygon fill="none" stroke="#000000" points="1053.9559,-152.5 1053.9559,-221.5 1343.9559,-221.5 1343.9559,-152.5 1053.9559,-152.5"/>
<text text-anchor="middle" x="1091.9559" y="-206.3" font-family="Times,serif" font-size="14.00" fill="#000000">IN</text>
<polyline fill="none" stroke="#000000" points="1053.9559,-198.5 1129.9559,-198.5 "/>
<text text-anchor="middle" x="1091.9559" y="-183.3" font-family="Times,serif" font-size="14.00" fill="#000000">in_data</text>
<polyline fill="none" stroke="#000000" points="1053.9559,-175.5 1129.9559,-175.5 "/>
<text text-anchor="middle" x="1091.9559" y="-160.3" font-family="Times,serif" font-size="14.00" fill="#000000">in_mask</text>
<polyline fill="none" stroke="#000000" points="1129.9559,-152.5 1129.9559,-221.5 "/>
<text text-anchor="middle" x="1167.9559" y="-206.3" font-family="Times,serif" font-size="14.00" fill="#000000">bs_filter</text>
<polyline fill="none" stroke="#000000" points="1129.9559,-198.5 1205.9559,-198.5 "/>
<text text-anchor="middle" x="1167.9559" y="-183.3" font-family="Times,serif" font-size="14.00" fill="#000000">bspline</text>
<polyline fill="none" stroke="#000000" points="1129.9559,-175.5 1205.9559,-175.5 "/>
<text text-anchor="middle" x="1167.9559" y="-160.3" font-family="Times,serif" font-size="14.00" fill="#000000"> </text>
<polyline fill="none" stroke="#000000" points="1205.9559,-152.5 1205.9559,-221.5 "/>
<text text-anchor="middle" x="1274.9559" y="-206.3" font-family="Times,serif" font-size="14.00" fill="#000000">OUT</text>
<polyline fill="none" stroke="#000000" points="1205.9559,-198.5 1343.9559,-198.5 "/>
<text text-anchor="middle" x="1274.9559" y="-183.3" font-family="Times,serif" font-size="14.00" fill="#000000">out_coeff</text>
<polyline fill="none" stroke="#000000" points="1205.9559,-175.5 1343.9559,-175.5 "/>
<text text-anchor="middle" x="1274.9559" y="-160.3" font-family="Times,serif" font-size="14.00" fill="#000000">out_extrapolated</text>
</g>
<!-- syn_sdc_wfreoblique&#45;&gt;syn_sdc_wfbs_filter -->
<g id="edge30" class="edge">
<title>syn_sdc_wfreoblique:e&#45;&gt;syn_sdc_wfbs_filter:w</title>
<path fill="none" stroke="#000000" d="M914.9559,-379.5C921.8448,-379.5 915.7076,-370.8478 914.9559,-364 909.8007,-317.037 881.843,-298.018 906.9559,-258 943.6389,-199.5447 977.8909,-188.0558 1043.5855,-187.0732"/>
<polygon fill="#000000" stroke="#000000" points="1043.9809,-190.5706 1053.9559,-187 1043.9314,-183.5708 1043.9809,-190.5706"/>
</g>
<!-- syn_sdc_wfoutputnode -->
<g id="node14" class="node">
<title>syn_sdc_wfoutputnode</title>
<polygon fill="none" stroke="#000000" points="1357.9559,-.5 1357.9559,-115.5 1603.9559,-115.5 1603.9559,-.5 1357.9559,-.5"/>
<text text-anchor="middle" x="1406.9559" y="-100.3" font-family="Times,serif" font-size="14.00" fill="#000000">IN</text>
<polyline fill="none" stroke="#000000" points="1357.9559,-92.5 1455.9559,-92.5 "/>
<text text-anchor="middle" x="1406.9559" y="-77.3" font-family="Times,serif" font-size="14.00" fill="#000000">fmap</text>
<polyline fill="none" stroke="#000000" points="1357.9559,-69.5 1455.9559,-69.5 "/>
<text text-anchor="middle" x="1406.9559" y="-54.3" font-family="Times,serif" font-size="14.00" fill="#000000">fmap_coeff</text>
<polyline fill="none" stroke="#000000" points="1357.9559,-46.5 1455.9559,-46.5 "/>
<text text-anchor="middle" x="1406.9559" y="-31.3" font-family="Times,serif" font-size="14.00" fill="#000000">fmap_mask</text>
<polyline fill="none" stroke="#000000" points="1357.9559,-23.5 1455.9559,-23.5 "/>
<text text-anchor="middle" x="1406.9559" y="-8.3" font-family="Times,serif" font-size="14.00" fill="#000000">fmap_ref</text>
<polyline fill="none" stroke="#000000" points="1455.9559,-.5 1455.9559,-115.5 "/>
<text text-anchor="middle" x="1504.9559" y="-92.8" font-family="Times,serif" font-size="14.00" fill="#000000">outputnode</text>
<polyline fill="none" stroke="#000000" points="1455.9559,-77.5 1553.9559,-77.5 "/>
<text text-anchor="middle" x="1504.9559" y="-54.8" font-family="Times,serif" font-size="14.00" fill="#000000">utility</text>
<polyline fill="none" stroke="#000000" points="1455.9559,-39.5 1553.9559,-39.5 "/>
<text text-anchor="middle" x="1504.9559" y="-16.3" font-family="Times,serif" font-size="14.00" fill="#000000"> </text>
<polyline fill="none" stroke="#000000" points="1553.9559,-.5 1553.9559,-115.5 "/>
<text text-anchor="middle" x="1578.9559" y="-54.3" font-family="Times,serif" font-size="14.00" fill="#000000">OUT</text>
</g>
<!-- syn_sdc_wfreoblique&#45;&gt;syn_sdc_wfoutputnode -->
<g id="edge29" class="edge">
<title>syn_sdc_wfreoblique:e&#45;&gt;syn_sdc_wfoutputnode:w</title>
<path fill="none" stroke="#000000" d="M914.9559,-411.5C1021.2546,-411.5 1316.1421,-408.1589 1385.9559,-328 1437.3432,-268.9981 1417.7618,-225.1349 1389.9559,-152 1382.3482,-131.9902 1365.5636,-136.0098 1357.9559,-116 1342.9411,-76.508 1316.7561,-22.3192 1347.6668,-13.2972"/>
<polygon fill="#000000" stroke="#000000" points="1348.4723,-16.7234 1357.9559,-12 1347.5966,-9.7784 1348.4723,-16.7234"/>
</g>
<!-- syn_sdc_wfbrainextraction_wf&#45;&gt;syn_sdc_wfbs_filter -->
<g id="edge3" class="edge">
<title>syn_sdc_wfbrainextraction_wf:e&#45;&gt;syn_sdc_wfbs_filter:w</title>
<path fill="none" stroke="#000000" d="M1376.9559,-276C1384.9559,-276 1382.2903,-263.9619 1376.9559,-258 1280.6411,-150.354 1150.2707,-329.646 1053.9559,-222 1039.4531,-205.791 1031.0722,-175.6437 1044.2914,-166.6184"/>
<polygon fill="#000000" stroke="#000000" points="1045.2191,-169.9933 1053.9559,-164 1043.3886,-163.2368 1045.2191,-169.9933"/>
</g>
<!-- syn_sdc_wfbrainextraction_wf&#45;&gt;syn_sdc_wfoutputnode -->
<g id="edge4" class="edge">
<title>syn_sdc_wfbrainextraction_wf:e&#45;&gt;syn_sdc_wfoutputnode:w</title>
<path fill="none" stroke="#000000" d="M1376.9559,-276C1426.4806,-276 1322.8913,-71.1853 1348.492,-39.183"/>
<polygon fill="#000000" stroke="#000000" points="1350.2245,-42.244 1357.9559,-35 1347.3945,-35.8415 1350.2245,-42.244"/>
</g>
<!-- syn_sdc_wfbs_filter&#45;&gt;syn_sdc_wfoutputnode -->
<g id="edge5" class="edge">
<title>syn_sdc_wfbs_filter:e&#45;&gt;syn_sdc_wfoutputnode:w</title>
<path fill="none" stroke="#000000" d="M1343.9559,-187C1368.9613,-187 1339.4418,-89.9902 1349.964,-64.2219"/>
<polygon fill="#000000" stroke="#000000" points="1352.2154,-66.9049 1357.9559,-58 1347.9152,-61.3814 1352.2154,-66.9049"/>
</g>
<!-- syn_sdc_wfbs_filter&#45;&gt;syn_sdc_wfoutputnode -->
<g id="edge6" class="edge">
<title>syn_sdc_wfbs_filter:e&#45;&gt;syn_sdc_wfoutputnode:w</title>
<path fill="none" stroke="#000000" d="M1343.9559,-164C1376.6896,-164 1334.2161,-100.4531 1348.148,-84.5664"/>
<polygon fill="#000000" stroke="#000000" points="1349.754,-87.7067 1357.9559,-81 1347.3619,-81.1281 1349.754,-87.7067"/>
</g>
</g>
</svg>
