<?xml version="1.0" encoding="UTF-8" standalone="no"?>
<!DOCTYPE svg PUBLIC "-//W3C//DTD SVG 1.1//EN"
 "http://www.w3.org/Graphics/SVG/1.1/DTD/svg11.dtd">
<!-- Generated by graphviz version 2.40.1 (20161225.0304)
 -->
<!-- Title: structs Pages: 1 -->
<svg width="1846pt" height="1322pt"
 viewBox="0.00 0.00 1845.50 1322.00" xmlns="http://www.w3.org/2000/svg" xmlns:xlink="http://www.w3.org/1999/xlink">
<g id="graph0" class="graph" transform="scale(1 1) rotate(0) translate(4 1318)">
<title>structs</title>
<polygon fill="#ffffff" stroke="transparent" points="-4,4 -4,-1318 1841.5,-1318 1841.5,4 -4,4"/>
<!-- syn_sdc_wfinputnode -->
<g id="node1" class="node">
<title>syn_sdc_wfinputnode</title>
<polygon fill="none" stroke="#000000" points="0,-1175.5 0,-1313.5 244,-1313.5 244,-1175.5 0,-1175.5"/>
<text text-anchor="middle" x="17.5" y="-1240.8" font-family="Times,serif" font-size="14.00" fill="#000000">IN</text>
<polyline fill="none" stroke="#000000" points="35,-1175.5 35,-1313.5 "/>
<text text-anchor="middle" x="79.5" y="-1286.8" font-family="Times,serif" font-size="14.00" fill="#000000">inputnode</text>
<polyline fill="none" stroke="#000000" points="35,-1267.5 124,-1267.5 "/>
<text text-anchor="middle" x="79.5" y="-1240.8" font-family="Times,serif" font-size="14.00" fill="#000000">utility</text>
<polyline fill="none" stroke="#000000" points="35,-1221.5 124,-1221.5 "/>
<text text-anchor="middle" x="79.5" y="-1194.8" font-family="Times,serif" font-size="14.00" fill="#000000"> </text>
<polyline fill="none" stroke="#000000" points="124,-1175.5 124,-1313.5 "/>
<text text-anchor="middle" x="184" y="-1298.3" font-family="Times,serif" font-size="14.00" fill="#000000">OUT</text>
<polyline fill="none" stroke="#000000" points="124,-1290.5 244,-1290.5 "/>
<text text-anchor="middle" x="184" y="-1275.3" font-family="Times,serif" font-size="14.00" fill="#000000">bold_ref</text>
<polyline fill="none" stroke="#000000" points="124,-1267.5 244,-1267.5 "/>
<text text-anchor="middle" x="184" y="-1252.3" font-family="Times,serif" font-size="14.00" fill="#000000">bold_ref_brain</text>
<polyline fill="none" stroke="#000000" points="124,-1244.5 244,-1244.5 "/>
<text text-anchor="middle" x="184" y="-1229.3" font-family="Times,serif" font-size="14.00" fill="#000000">std2anat_xfm</text>
<polyline fill="none" stroke="#000000" points="124,-1221.5 244,-1221.5 "/>
<text text-anchor="middle" x="184" y="-1206.3" font-family="Times,serif" font-size="14.00" fill="#000000">t1_brain</text>
<polyline fill="none" stroke="#000000" points="124,-1198.5 244,-1198.5 "/>
<text text-anchor="middle" x="184" y="-1183.3" font-family="Times,serif" font-size="14.00" fill="#000000">template</text>
</g>
<!-- syn_sdc_wfinvert_t1w -->
<g id="node2" class="node">
<title>syn_sdc_wfinvert_t1w</title>
<polygon fill="none" stroke="#000000" points="258.5,-1069.5 258.5,-1138.5 489.5,-1138.5 489.5,-1069.5 258.5,-1069.5"/>
<text text-anchor="middle" x="292" y="-1123.3" font-family="Times,serif" font-size="14.00" fill="#000000">IN</text>
<polyline fill="none" stroke="#000000" points="258.5,-1115.5 325.5,-1115.5 "/>
<text text-anchor="middle" x="292" y="-1100.3" font-family="Times,serif" font-size="14.00" fill="#000000">in_file</text>
<polyline fill="none" stroke="#000000" points="258.5,-1092.5 325.5,-1092.5 "/>
<text text-anchor="middle" x="292" y="-1077.3" font-family="Times,serif" font-size="14.00" fill="#000000">ref_file</text>
<polyline fill="none" stroke="#000000" points="325.5,-1069.5 325.5,-1138.5 "/>
<text text-anchor="middle" x="372.5" y="-1123.3" font-family="Times,serif" font-size="14.00" fill="#000000">invert_t1w</text>
<polyline fill="none" stroke="#000000" points="325.5,-1115.5 419.5,-1115.5 "/>
<text text-anchor="middle" x="372.5" y="-1100.3" font-family="Times,serif" font-size="14.00" fill="#000000">image</text>
<polyline fill="none" stroke="#000000" points="325.5,-1092.5 419.5,-1092.5 "/>
<text text-anchor="middle" x="372.5" y="-1077.3" font-family="Times,serif" font-size="14.00" fill="#000000"> </text>
<polyline fill="none" stroke="#000000" points="419.5,-1069.5 419.5,-1138.5 "/>
<text text-anchor="middle" x="454.5" y="-1117.8" font-family="Times,serif" font-size="14.00" fill="#000000">OUT</text>
<polyline fill="none" stroke="#000000" points="419.5,-1104.5 489.5,-1104.5 "/>
<text text-anchor="middle" x="454.5" y="-1083.3" font-family="Times,serif" font-size="14.00" fill="#000000">out_file</text>
</g>
<!-- syn_sdc_wfinputnode&#45;&gt;syn_sdc_wfinvert_t1w -->
<g id="edge4" class="edge">
<title>syn_sdc_wfinputnode:e&#45;&gt;syn_sdc_wfinvert_t1w:w</title>
<path fill="none" stroke="#000000" d="M244,-1279.5C263.3466,-1279.5 242.6272,-1127.5234 251.9572,-1089.5293"/>
<polygon fill="#000000" stroke="#000000" points="255.0749,-1091.1831 258,-1081 249.3631,-1087.1364 255.0749,-1091.1831"/>
</g>
<!-- syn_sdc_wfinputnode&#45;&gt;syn_sdc_wfinvert_t1w -->
<g id="edge11" class="edge">
<title>syn_sdc_wfinputnode:e&#45;&gt;syn_sdc_wfinvert_t1w:w</title>
<path fill="none" stroke="#000000" d="M244,-1209.5C263.9547,-1209.5 243.3659,-1134.3931 250.6507,-1110.9221"/>
<polygon fill="#000000" stroke="#000000" points="253.1203,-1113.4042 258,-1104 248.3208,-1108.3086 253.1203,-1113.4042"/>
</g>
<!-- syn_sdc_wfref_2_t1 -->
<g id="node3" class="node">
<title>syn_sdc_wfref_2_t1</title>
<polygon fill="none" stroke="#000000" points="220.5,-963.5 220.5,-1032.5 575.5,-1032.5 575.5,-963.5 220.5,-963.5"/>
<text text-anchor="middle" x="280.5" y="-1017.3" font-family="Times,serif" font-size="14.00" fill="#000000">IN</text>
<polyline fill="none" stroke="#000000" points="220.5,-1009.5 340.5,-1009.5 "/>
<text text-anchor="middle" x="280.5" y="-994.3" font-family="Times,serif" font-size="14.00" fill="#000000">fixed_image</text>
<polyline fill="none" stroke="#000000" points="220.5,-986.5 340.5,-986.5 "/>
<text text-anchor="middle" x="280.5" y="-971.3" font-family="Times,serif" font-size="14.00" fill="#000000">moving_image</text>
<polyline fill="none" stroke="#000000" points="340.5,-963.5 340.5,-1032.5 "/>
<text text-anchor="middle" x="378.5" y="-1017.3" font-family="Times,serif" font-size="14.00" fill="#000000">ref_2_t1</text>
<polyline fill="none" stroke="#000000" points="340.5,-1009.5 416.5,-1009.5 "/>
<text text-anchor="middle" x="378.5" y="-994.3" font-family="Times,serif" font-size="14.00" fill="#000000">fixes</text>
<polyline fill="none" stroke="#000000" points="340.5,-986.5 416.5,-986.5 "/>
<text text-anchor="middle" x="378.5" y="-971.3" font-family="Times,serif" font-size="14.00" fill="#000000"> </text>
<polyline fill="none" stroke="#000000" points="416.5,-963.5 416.5,-1032.5 "/>
<text text-anchor="middle" x="496" y="-1011.8" font-family="Times,serif" font-size="14.00" fill="#000000">OUT</text>
<polyline fill="none" stroke="#000000" points="416.5,-998.5 575.5,-998.5 "/>
<text text-anchor="middle" x="496" y="-977.3" font-family="Times,serif" font-size="14.00" fill="#000000">forward_transforms</text>
</g>
<!-- syn_sdc_wfinputnode&#45;&gt;syn_sdc_wfref_2_t1 -->
<g id="edge8" class="edge">
<title>syn_sdc_wfinputnode:e&#45;&gt;syn_sdc_wfref_2_t1:w</title>
<path fill="none" stroke="#000000" d="M244,-1256.5C269.3279,-1256.5 226.7189,-1113.0711 220,-1033 218.2487,-1012.1289 202.3259,-986.8843 210.243,-978.1513"/>
<polygon fill="#000000" stroke="#000000" points="211.5597,-981.4041 220,-975 209.4083,-974.7429 211.5597,-981.4041"/>
</g>
<!-- syn_sdc_wftransform_list -->
<g id="node4" class="node">
<title>syn_sdc_wftransform_list</title>
<polygon fill="none" stroke="#000000" points="173.5,-834.5 173.5,-926.5 380.5,-926.5 380.5,-834.5 173.5,-834.5"/>
<text text-anchor="middle" x="193" y="-911.3" font-family="Times,serif" font-size="14.00" fill="#000000">IN</text>
<polyline fill="none" stroke="#000000" points="173.5,-903.5 212.5,-903.5 "/>
<text text-anchor="middle" x="193" y="-888.3" font-family="Times,serif" font-size="14.00" fill="#000000">in1</text>
<polyline fill="none" stroke="#000000" points="173.5,-880.5 212.5,-880.5 "/>
<text text-anchor="middle" x="193" y="-865.3" font-family="Times,serif" font-size="14.00" fill="#000000">in2</text>
<polyline fill="none" stroke="#000000" points="173.5,-857.5 212.5,-857.5 "/>
<text text-anchor="middle" x="193" y="-842.3" font-family="Times,serif" font-size="14.00" fill="#000000">in3</text>
<polyline fill="none" stroke="#000000" points="212.5,-834.5 212.5,-926.5 "/>
<text text-anchor="middle" x="271.5" y="-907.8" font-family="Times,serif" font-size="14.00" fill="#000000">transform_list</text>
<polyline fill="none" stroke="#000000" points="212.5,-896.5 330.5,-896.5 "/>
<text text-anchor="middle" x="271.5" y="-877.3" font-family="Times,serif" font-size="14.00" fill="#000000">utility</text>
<polyline fill="none" stroke="#000000" points="212.5,-865.5 330.5,-865.5 "/>
<text text-anchor="middle" x="271.5" y="-846.3" font-family="Times,serif" font-size="14.00" fill="#000000"> </text>
<polyline fill="none" stroke="#000000" points="330.5,-834.5 330.5,-926.5 "/>
<text text-anchor="middle" x="355.5" y="-899.8" font-family="Times,serif" font-size="14.00" fill="#000000">OUT</text>
<polyline fill="none" stroke="#000000" points="330.5,-880.5 380.5,-880.5 "/>
<text text-anchor="middle" x="355.5" y="-853.8" font-family="Times,serif" font-size="14.00" fill="#000000">out</text>
</g>
<!-- syn_sdc_wfinputnode&#45;&gt;syn_sdc_wftransform_list -->
<g id="edge10" class="edge">
<title>syn_sdc_wfinputnode:e&#45;&gt;syn_sdc_wftransform_list:w</title>
<path fill="none" stroke="#000000" d="M244,-1232.5C269.5556,-1232.5 257.0452,-1196.9752 244,-1175 226.9437,-1146.268 195.3938,-1167.5289 178,-1139 148.5977,-1090.7752 116.9653,-894.4245 163.0913,-870.8245"/>
<polygon fill="#000000" stroke="#000000" points="164.0637,-874.1914 173,-868.5 162.4649,-867.3764 164.0637,-874.1914"/>
</g>
<!-- syn_sdc_wfinputnode&#45;&gt;syn_sdc_wftransform_list -->
<g id="edge12" class="edge">
<title>syn_sdc_wfinputnode:e&#45;&gt;syn_sdc_wftransform_list:w</title>
<path fill="none" stroke="#000000" d="M244,-1186.5C249.1111,-1186.5 245.4811,-1179.8918 244,-1175 238.4276,-1156.5955 227.543,-1156.6884 220,-1139 195.5576,-1081.6821 116.6221,-871.3134 163.2116,-847.6665"/>
<polygon fill="#000000" stroke="#000000" points="163.9927,-851.0784 173,-845.5 162.4799,-844.2438 163.9927,-851.0784"/>
</g>
<!-- syn_sdc_wfatlas_2_ref -->
<g id="node5" class="node">
<title>syn_sdc_wfatlas_2_ref</title>
<polygon fill="none" stroke="#000000" points="116.5,-728.5 116.5,-797.5 463.5,-797.5 463.5,-728.5 116.5,-728.5"/>
<text text-anchor="middle" x="185" y="-782.3" font-family="Times,serif" font-size="14.00" fill="#000000">IN</text>
<polyline fill="none" stroke="#000000" points="116.5,-774.5 253.5,-774.5 "/>
<text text-anchor="middle" x="185" y="-759.3" font-family="Times,serif" font-size="14.00" fill="#000000">reference_image</text>
<polyline fill="none" stroke="#000000" points="116.5,-751.5 253.5,-751.5 "/>
<text text-anchor="middle" x="185" y="-736.3" font-family="Times,serif" font-size="14.00" fill="#000000">transforms</text>
<polyline fill="none" stroke="#000000" points="253.5,-728.5 253.5,-797.5 "/>
<text text-anchor="middle" x="301" y="-782.3" font-family="Times,serif" font-size="14.00" fill="#000000">atlas_2_ref</text>
<polyline fill="none" stroke="#000000" points="253.5,-774.5 348.5,-774.5 "/>
<text text-anchor="middle" x="301" y="-759.3" font-family="Times,serif" font-size="14.00" fill="#000000">fixes</text>
<polyline fill="none" stroke="#000000" points="253.5,-751.5 348.5,-751.5 "/>
<text text-anchor="middle" x="301" y="-736.3" font-family="Times,serif" font-size="14.00" fill="#000000"> </text>
<polyline fill="none" stroke="#000000" points="348.5,-728.5 348.5,-797.5 "/>
<text text-anchor="middle" x="406" y="-776.8" font-family="Times,serif" font-size="14.00" fill="#000000">OUT</text>
<polyline fill="none" stroke="#000000" points="348.5,-763.5 463.5,-763.5 "/>
<text text-anchor="middle" x="406" y="-742.3" font-family="Times,serif" font-size="14.00" fill="#000000">output_image</text>
</g>
<!-- syn_sdc_wfinputnode&#45;&gt;syn_sdc_wfatlas_2_ref -->
<g id="edge3" class="edge">
<title>syn_sdc_wfinputnode:e&#45;&gt;syn_sdc_wfatlas_2_ref:w</title>
<path fill="none" stroke="#000000" d="M244,-1279.5C290.4444,-1279.5 270.2525,-1213.3131 244,-1175 218.9471,-1138.4377 178.3977,-1173.8397 151,-1139 95.463,-1068.3776 81.8627,-811.6418 107.8543,-769.0164"/>
<polygon fill="#000000" stroke="#000000" points="110.0356,-771.7565 116,-763 105.8767,-766.1258 110.0356,-771.7565"/>
</g>
<!-- syn_sdc_wft1_2_ref -->
<g id="node8" class="node">
<title>syn_sdc_wft1_2_ref</title>
<polygon fill="none" stroke="#000000" points="576,-834.5 576,-926.5 904,-926.5 904,-834.5 576,-834.5"/>
<text text-anchor="middle" x="644.5" y="-911.3" font-family="Times,serif" font-size="14.00" fill="#000000">IN</text>
<polyline fill="none" stroke="#000000" points="576,-903.5 713,-903.5 "/>
<text text-anchor="middle" x="644.5" y="-888.3" font-family="Times,serif" font-size="14.00" fill="#000000">input_image</text>
<polyline fill="none" stroke="#000000" points="576,-880.5 713,-880.5 "/>
<text text-anchor="middle" x="644.5" y="-865.3" font-family="Times,serif" font-size="14.00" fill="#000000">reference_image</text>
<polyline fill="none" stroke="#000000" points="576,-857.5 713,-857.5 "/>
<text text-anchor="middle" x="644.5" y="-842.3" font-family="Times,serif" font-size="14.00" fill="#000000">transforms</text>
<polyline fill="none" stroke="#000000" points="713,-834.5 713,-926.5 "/>
<text text-anchor="middle" x="751" y="-907.8" font-family="Times,serif" font-size="14.00" fill="#000000">t1_2_ref</text>
<polyline fill="none" stroke="#000000" points="713,-896.5 789,-896.5 "/>
<text text-anchor="middle" x="751" y="-877.3" font-family="Times,serif" font-size="14.00" fill="#000000">fixes</text>
<polyline fill="none" stroke="#000000" points="713,-865.5 789,-865.5 "/>
<text text-anchor="middle" x="751" y="-846.3" font-family="Times,serif" font-size="14.00" fill="#000000"> </text>
<polyline fill="none" stroke="#000000" points="789,-834.5 789,-926.5 "/>
<text text-anchor="middle" x="846.5" y="-899.8" font-family="Times,serif" font-size="14.00" fill="#000000">OUT</text>
<polyline fill="none" stroke="#000000" points="789,-880.5 904,-880.5 "/>
<text text-anchor="middle" x="846.5" y="-853.8" font-family="Times,serif" font-size="14.00" fill="#000000">output_image</text>
</g>
<!-- syn_sdc_wfinputnode&#45;&gt;syn_sdc_wft1_2_ref -->
<g id="edge5" class="edge">
<title>syn_sdc_wfinputnode:e&#45;&gt;syn_sdc_wft1_2_ref:w</title>
<path fill="none" stroke="#000000" d="M244,-1279.5C437.5469,-1279.5 529.7851,-1212.1647 603,-1033 614.7687,-1004.2007 612.8382,-992.5146 603,-963 596.6754,-944.0263 582.3246,-945.9737 576,-927 569.1912,-906.5737 555.8289,-879.8597 566.2027,-871.2802"/>
<polygon fill="#000000" stroke="#000000" points="567.3353,-874.597 576,-868.5 565.4243,-867.8629 567.3353,-874.597"/>
</g>
<!-- syn_sdc_wfsyn -->
<g id="node9" class="node">
<title>syn_sdc_wfsyn</title>
<polygon fill="none" stroke="#000000" points="539.5,-387.5 539.5,-479.5 904.5,-479.5 904.5,-387.5 539.5,-387.5"/>
<text text-anchor="middle" x="617.5" y="-464.3" font-family="Times,serif" font-size="14.00" fill="#000000">IN</text>
<polyline fill="none" stroke="#000000" points="539.5,-456.5 695.5,-456.5 "/>
<text text-anchor="middle" x="617.5" y="-441.3" font-family="Times,serif" font-size="14.00" fill="#000000">fixed_image</text>
<polyline fill="none" stroke="#000000" points="539.5,-433.5 695.5,-433.5 "/>
<text text-anchor="middle" x="617.5" y="-418.3" font-family="Times,serif" font-size="14.00" fill="#000000">fixed_image_masks</text>
<polyline fill="none" stroke="#000000" points="539.5,-410.5 695.5,-410.5 "/>
<text text-anchor="middle" x="617.5" y="-395.3" font-family="Times,serif" font-size="14.00" fill="#000000">moving_image</text>
<polyline fill="none" stroke="#000000" points="695.5,-387.5 695.5,-479.5 "/>
<text text-anchor="middle" x="720.5" y="-460.8" font-family="Times,serif" font-size="14.00" fill="#000000">syn</text>
<polyline fill="none" stroke="#000000" points="695.5,-449.5 745.5,-449.5 "/>
<text text-anchor="middle" x="720.5" y="-430.3" font-family="Times,serif" font-size="14.00" fill="#000000">fixes</text>
<polyline fill="none" stroke="#000000" points="695.5,-418.5 745.5,-418.5 "/>
<text text-anchor="middle" x="720.5" y="-399.3" font-family="Times,serif" font-size="14.00" fill="#000000"> </text>
<polyline fill="none" stroke="#000000" points="745.5,-387.5 745.5,-479.5 "/>
<text text-anchor="middle" x="825" y="-452.8" font-family="Times,serif" font-size="14.00" fill="#000000">OUT</text>
<polyline fill="none" stroke="#000000" points="745.5,-433.5 904.5,-433.5 "/>
<text text-anchor="middle" x="825" y="-406.8" font-family="Times,serif" font-size="14.00" fill="#000000">forward_transforms</text>
</g>
<!-- syn_sdc_wfinputnode&#45;&gt;syn_sdc_wfsyn -->
<g id="edge9" class="edge">
<title>syn_sdc_wfinputnode:e&#45;&gt;syn_sdc_wfsyn:w</title>
<path fill="none" stroke="#000000" d="M244,-1256.5C280.2222,-1256.5 265.8429,-1203.8952 244,-1175 208.6215,-1128.199 158.3525,-1180.6167 117,-1139 71.1708,-1092.878 78,-1063.0197 78,-998 78,-998 78,-998 78,-657 78,-425.539 297.5226,-399.2367 528.6835,-398.5158"/>
<polygon fill="#000000" stroke="#000000" points="529.0054,-402.0154 539,-398.5 528.9946,-395.0154 529.0054,-402.0154"/>
</g>
<!-- syn_sdc_wfunwarp_ref -->
<g id="node10" class="node">
<title>syn_sdc_wfunwarp_ref</title>
<polygon fill="none" stroke="#000000" points="932,-258.5 932,-350.5 1282,-350.5 1282,-258.5 932,-258.5"/>
<text text-anchor="middle" x="1000.5" y="-335.3" font-family="Times,serif" font-size="14.00" fill="#000000">IN</text>
<polyline fill="none" stroke="#000000" points="932,-327.5 1069,-327.5 "/>
<text text-anchor="middle" x="1000.5" y="-312.3" font-family="Times,serif" font-size="14.00" fill="#000000">input_image</text>
<polyline fill="none" stroke="#000000" points="932,-304.5 1069,-304.5 "/>
<text text-anchor="middle" x="1000.5" y="-289.3" font-family="Times,serif" font-size="14.00" fill="#000000">reference_image</text>
<polyline fill="none" stroke="#000000" points="932,-281.5 1069,-281.5 "/>
<text text-anchor="middle" x="1000.5" y="-266.3" font-family="Times,serif" font-size="14.00" fill="#000000">transforms</text>
<polyline fill="none" stroke="#000000" points="1069,-258.5 1069,-350.5 "/>
<text text-anchor="middle" x="1118" y="-331.8" font-family="Times,serif" font-size="14.00" fill="#000000">unwarp_ref</text>
<polyline fill="none" stroke="#000000" points="1069,-320.5 1167,-320.5 "/>
<text text-anchor="middle" x="1118" y="-301.3" font-family="Times,serif" font-size="14.00" fill="#000000">fixes</text>
<polyline fill="none" stroke="#000000" points="1069,-289.5 1167,-289.5 "/>
<text text-anchor="middle" x="1118" y="-270.3" font-family="Times,serif" font-size="14.00" fill="#000000"> </text>
<polyline fill="none" stroke="#000000" points="1167,-258.5 1167,-350.5 "/>
<text text-anchor="middle" x="1224.5" y="-323.8" font-family="Times,serif" font-size="14.00" fill="#000000">OUT</text>
<polyline fill="none" stroke="#000000" points="1167,-304.5 1282,-304.5 "/>
<text text-anchor="middle" x="1224.5" y="-277.8" font-family="Times,serif" font-size="14.00" fill="#000000">output_image</text>
</g>
<!-- syn_sdc_wfinputnode&#45;&gt;syn_sdc_wfunwarp_ref -->
<g id="edge6" class="edge">
<title>syn_sdc_wfinputnode:e&#45;&gt;syn_sdc_wfunwarp_ref:w</title>
<path fill="none" stroke="#000000" d="M244,-1279.5C409.1914,-1279.5 932,-1163.1914 932,-998 932,-998 932,-998 932,-551 932,-545.3131 927.035,-370.8176 930.109,-326.6038"/>
<polygon fill="#000000" stroke="#000000" points="933.6006,-326.9732 932,-316.5 926.7201,-325.6855 933.6006,-326.9732"/>
</g>
<!-- syn_sdc_wfinputnode&#45;&gt;syn_sdc_wfunwarp_ref -->
<g id="edge7" class="edge">
<title>syn_sdc_wfinputnode:e&#45;&gt;syn_sdc_wfunwarp_ref:w</title>
<path fill="none" stroke="#000000" d="M244,-1279.5C386.355,-1279.5 750.3299,-1217.628 869,-1139 933.2598,-1096.423 970,-1075.0852 970,-998 970,-998 970,-998 970,-551 970,-477.1299 959.8305,-458.9272 943,-387 939.1882,-370.7098 934.4716,-367.5467 932,-351 931.3023,-346.3292 928.1872,-317.5639 929.0288,-302.1821"/>
<polygon fill="#000000" stroke="#000000" points="932.4122,-303.0868 932,-292.5 925.7202,-301.0331 932.4122,-303.0868"/>
</g>
<!-- syn_sdc_wfinvert_t1w&#45;&gt;syn_sdc_wfref_2_t1 -->
<g id="edge13" class="edge">
<title>syn_sdc_wfinvert_t1w:e&#45;&gt;syn_sdc_wfref_2_t1:w</title>
<path fill="none" stroke="#000000" d="M490,-1087C498,-1087 495.2698,-1075.0191 490,-1069 410.2535,-977.9149 299.7465,-1124.0851 220,-1033 212.7952,-1024.7708 208.0317,-1010.8104 211.2457,-1003.2468"/>
<polygon fill="#000000" stroke="#000000" points="213.2218,-1006.1429 220,-998 209.6233,-1000.1387 213.2218,-1006.1429"/>
</g>
<!-- syn_sdc_wfinvert_t1w&#45;&gt;syn_sdc_wft1_2_ref -->
<g id="edge14" class="edge">
<title>syn_sdc_wfinvert_t1w:e&#45;&gt;syn_sdc_wft1_2_ref:w</title>
<path fill="none" stroke="#000000" d="M490,-1087C538.5666,-1087 560.5754,-1074.9781 585,-1033 608.7778,-992.1335 581.7769,-973.9264 576,-927 574.8437,-917.6074 569.2739,-906.667 568.7839,-899.6672"/>
<polygon fill="#000000" stroke="#000000" points="571.3714,-902.0303 576,-892.5 566.4385,-897.0638 571.3714,-902.0303"/>
</g>
<!-- syn_sdc_wfref_2_t1&#45;&gt;syn_sdc_wftransform_list -->
<g id="edge16" class="edge">
<title>syn_sdc_wfref_2_t1:e&#45;&gt;syn_sdc_wftransform_list:w</title>
<path fill="none" stroke="#000000" d="M576,-981C584,-981 581.3993,-968.9032 576,-963 515.3168,-896.6543 233.6832,-993.3457 173,-927 165.7236,-919.0446 161.099,-905.2202 164.3246,-897.7131"/>
<polygon fill="#000000" stroke="#000000" points="166.2313,-900.6508 173,-892.5 162.6257,-894.6507 166.2313,-900.6508"/>
</g>
<!-- syn_sdc_wfref_2_t1&#45;&gt;syn_sdc_wft1_2_ref -->
<g id="edge15" class="edge">
<title>syn_sdc_wfref_2_t1:e&#45;&gt;syn_sdc_wft1_2_ref:w</title>
<path fill="none" stroke="#000000" d="M576,-981C576,-981 576,-887.1966 576,-855.6845"/>
<polygon fill="#000000" stroke="#000000" points="579.5001,-855.5 576,-845.5 572.5001,-855.5 579.5001,-855.5"/>
</g>
<!-- syn_sdc_wftransform_list&#45;&gt;syn_sdc_wfatlas_2_ref -->
<g id="edge23" class="edge">
<title>syn_sdc_wftransform_list:e&#45;&gt;syn_sdc_wfatlas_2_ref:w</title>
<path fill="none" stroke="#000000" d="M381,-857.5C391.4444,-857.5 387.8703,-841.8667 381,-834 302.8148,-744.4753 194.1852,-887.5247 116,-798 101.8254,-781.7696 93.3357,-752.1445 105.9895,-742.8606"/>
<polygon fill="#000000" stroke="#000000" points="107.3466,-746.113 116,-740 105.4232,-739.3824 107.3466,-746.113"/>
</g>
<!-- syn_sdc_wfthreshold_atlas -->
<g id="node6" class="node">
<title>syn_sdc_wfthreshold_atlas</title>
<polygon fill="none" stroke="#000000" points="211.5,-622.5 211.5,-691.5 468.5,-691.5 468.5,-622.5 211.5,-622.5"/>
<text text-anchor="middle" x="241.5" y="-670.8" font-family="Times,serif" font-size="14.00" fill="#000000">IN</text>
<polyline fill="none" stroke="#000000" points="211.5,-657.5 271.5,-657.5 "/>
<text text-anchor="middle" x="241.5" y="-636.3" font-family="Times,serif" font-size="14.00" fill="#000000">in_file</text>
<polyline fill="none" stroke="#000000" points="271.5,-622.5 271.5,-691.5 "/>
<text text-anchor="middle" x="335" y="-676.3" font-family="Times,serif" font-size="14.00" fill="#000000">threshold_atlas</text>
<polyline fill="none" stroke="#000000" points="271.5,-668.5 398.5,-668.5 "/>
<text text-anchor="middle" x="335" y="-653.3" font-family="Times,serif" font-size="14.00" fill="#000000">fsl</text>
<polyline fill="none" stroke="#000000" points="271.5,-645.5 398.5,-645.5 "/>
<text text-anchor="middle" x="335" y="-630.3" font-family="Times,serif" font-size="14.00" fill="#000000"> </text>
<polyline fill="none" stroke="#000000" points="398.5,-622.5 398.5,-691.5 "/>
<text text-anchor="middle" x="433.5" y="-670.8" font-family="Times,serif" font-size="14.00" fill="#000000">OUT</text>
<polyline fill="none" stroke="#000000" points="398.5,-657.5 468.5,-657.5 "/>
<text text-anchor="middle" x="433.5" y="-636.3" font-family="Times,serif" font-size="14.00" fill="#000000">out_file</text>
</g>
<!-- syn_sdc_wfatlas_2_ref&#45;&gt;syn_sdc_wfthreshold_atlas -->
<g id="edge1" class="edge">
<title>syn_sdc_wfatlas_2_ref:e&#45;&gt;syn_sdc_wfthreshold_atlas:w</title>
<path fill="none" stroke="#000000" d="M464,-746C472,-746 469.2433,-734.0422 464,-728 389.5604,-642.2183 285.4396,-777.7817 211,-692 198.5745,-677.6813 190.9828,-651.8628 201.4131,-643.0465"/>
<polygon fill="#000000" stroke="#000000" points="202.5297,-646.3643 211,-640 200.4096,-639.693 202.5297,-646.3643"/>
</g>
<!-- syn_sdc_wffixed_image_masks -->
<g id="node7" class="node">
<title>syn_sdc_wffixed_image_masks</title>
<polygon fill="none" stroke="#000000" points="328.5,-516.5 328.5,-585.5 573.5,-585.5 573.5,-516.5 328.5,-516.5"/>
<text text-anchor="middle" x="348" y="-564.8" font-family="Times,serif" font-size="14.00" fill="#000000">IN</text>
<polyline fill="none" stroke="#000000" points="328.5,-551.5 367.5,-551.5 "/>
<text text-anchor="middle" x="348" y="-530.3" font-family="Times,serif" font-size="14.00" fill="#000000">in2</text>
<polyline fill="none" stroke="#000000" points="367.5,-516.5 367.5,-585.5 "/>
<text text-anchor="middle" x="445.5" y="-570.3" font-family="Times,serif" font-size="14.00" fill="#000000">fixed_image_masks</text>
<polyline fill="none" stroke="#000000" points="367.5,-562.5 523.5,-562.5 "/>
<text text-anchor="middle" x="445.5" y="-547.3" font-family="Times,serif" font-size="14.00" fill="#000000">utility</text>
<polyline fill="none" stroke="#000000" points="367.5,-539.5 523.5,-539.5 "/>
<text text-anchor="middle" x="445.5" y="-524.3" font-family="Times,serif" font-size="14.00" fill="#000000"> </text>
<polyline fill="none" stroke="#000000" points="523.5,-516.5 523.5,-585.5 "/>
<text text-anchor="middle" x="548.5" y="-564.8" font-family="Times,serif" font-size="14.00" fill="#000000">OUT</text>
<polyline fill="none" stroke="#000000" points="523.5,-551.5 573.5,-551.5 "/>
<text text-anchor="middle" x="548.5" y="-530.3" font-family="Times,serif" font-size="14.00" fill="#000000">out</text>
</g>
<!-- syn_sdc_wfthreshold_atlas&#45;&gt;syn_sdc_wffixed_image_masks -->
<g id="edge22" class="edge">
<title>syn_sdc_wfthreshold_atlas:e&#45;&gt;syn_sdc_wffixed_image_masks:w</title>
<path fill="none" stroke="#000000" d="M469,-640C477,-640 473.9075,-628.3179 469,-622 429.3246,-570.9219 367.6754,-637.0781 328,-586 316.481,-571.1704 308.4234,-546.1108 318.2031,-537.2348"/>
<polygon fill="#000000" stroke="#000000" points="319.6016,-540.4589 328,-534 317.4068,-533.8119 319.6016,-540.4589"/>
</g>
<!-- syn_sdc_wffixed_image_masks&#45;&gt;syn_sdc_wfsyn -->
<g id="edge2" class="edge">
<title>syn_sdc_wffixed_image_masks:e&#45;&gt;syn_sdc_wfsyn:w</title>
<path fill="none" stroke="#000000" d="M574,-534C582,-534 577.0093,-523.4124 574,-516 565.6057,-495.3237 547.3943,-500.6763 539,-480 530.9006,-460.0502 518.3853,-433.0235 529.0883,-424.3224"/>
<polygon fill="#000000" stroke="#000000" points="530.3409,-427.6049 539,-421.5 528.4238,-420.8725 530.3409,-427.6049"/>
</g>
<!-- syn_sdc_wft1_2_ref&#45;&gt;syn_sdc_wfsyn -->
<g id="edge21" class="edge">
<title>syn_sdc_wft1_2_ref:e&#45;&gt;syn_sdc_wfsyn:w</title>
<path fill="none" stroke="#000000" d="M904,-857.5C914.4444,-857.5 908.0196,-843.64 904,-834 826.714,-648.6469 732.2148,-650.4018 583,-516 564.226,-499.0898 549.8201,-502.833 539,-480 534.5883,-470.6903 529.1831,-458.3167 530.7615,-451.1988"/>
<polygon fill="#000000" stroke="#000000" points="532.7669,-454.0674 539,-445.5 528.7847,-448.3104 532.7669,-454.0674"/>
</g>
<!-- syn_sdc_wfsyn&#45;&gt;syn_sdc_wfunwarp_ref -->
<g id="edge20" class="edge">
<title>syn_sdc_wfsyn:e&#45;&gt;syn_sdc_wfunwarp_ref:w</title>
<path fill="none" stroke="#000000" d="M905,-410.5C918.5341,-410.5 915.4092,-364.2839 918,-351 920.8306,-336.4862 916.2719,-292.5575 923.9582,-275.9515"/>
<polygon fill="#000000" stroke="#000000" points="926.3901,-278.4877 932,-269.5 922.0097,-273.0277 926.3901,-278.4877"/>
</g>
<!-- syn_sdc_wfoutputnode -->
<g id="node12" class="node">
<title>syn_sdc_wfoutputnode</title>
<polygon fill="none" stroke="#000000" points="1528.5,-.5 1528.5,-115.5 1837.5,-115.5 1837.5,-.5 1528.5,-.5"/>
<text text-anchor="middle" x="1609" y="-100.3" font-family="Times,serif" font-size="14.00" fill="#000000">IN</text>
<polyline fill="none" stroke="#000000" points="1528.5,-92.5 1689.5,-92.5 "/>
<text text-anchor="middle" x="1609" y="-77.3" font-family="Times,serif" font-size="14.00" fill="#000000">out_mask</text>
<polyline fill="none" stroke="#000000" points="1528.5,-69.5 1689.5,-69.5 "/>
<text text-anchor="middle" x="1609" y="-54.3" font-family="Times,serif" font-size="14.00" fill="#000000">out_reference</text>
<polyline fill="none" stroke="#000000" points="1528.5,-46.5 1689.5,-46.5 "/>
<text text-anchor="middle" x="1609" y="-31.3" font-family="Times,serif" font-size="14.00" fill="#000000">out_reference_brain</text>
<polyline fill="none" stroke="#000000" points="1528.5,-23.5 1689.5,-23.5 "/>
<text text-anchor="middle" x="1609" y="-8.3" font-family="Times,serif" font-size="14.00" fill="#000000">out_warp</text>
<polyline fill="none" stroke="#000000" points="1689.5,-.5 1689.5,-115.5 "/>
<text text-anchor="middle" x="1738.5" y="-92.8" font-family="Times,serif" font-size="14.00" fill="#000000">outputnode</text>
<polyline fill="none" stroke="#000000" points="1689.5,-77.5 1787.5,-77.5 "/>
<text text-anchor="middle" x="1738.5" y="-54.8" font-family="Times,serif" font-size="14.00" fill="#000000">utility</text>
<polyline fill="none" stroke="#000000" points="1689.5,-39.5 1787.5,-39.5 "/>
<text text-anchor="middle" x="1738.5" y="-16.3" font-family="Times,serif" font-size="14.00" fill="#000000"> </text>
<polyline fill="none" stroke="#000000" points="1787.5,-.5 1787.5,-115.5 "/>
<text text-anchor="middle" x="1812.5" y="-54.3" font-family="Times,serif" font-size="14.00" fill="#000000">OUT</text>
</g>
<!-- syn_sdc_wfsyn&#45;&gt;syn_sdc_wfoutputnode -->
<g id="edge19" class="edge">
<title>syn_sdc_wfsyn:e&#45;&gt;syn_sdc_wfoutputnode:w</title>
<path fill="none" stroke="#000000" d="M905,-410.5C922.0621,-410.5 912.6601,-271.572 923,-258 1096.846,-29.8127 1234.474,-12.3837 1517.8574,-12.0065"/>
<polygon fill="#000000" stroke="#000000" points="1518.0023,-15.5066 1528,-12 1517.9977,-8.5066 1518.0023,-15.5066"/>
</g>
<!-- syn_sdc_wfskullstrip_bold_wf -->
<g id="node11" class="node">
<title>syn_sdc_wfskullstrip_bold_wf</title>
<polygon fill="none" stroke="#000000" points="1282,-152.5 1282,-221.5 1802,-221.5 1802,-152.5 1282,-152.5"/>
<text text-anchor="middle" x="1350.5" y="-200.8" font-family="Times,serif" font-size="14.00" fill="#000000">IN</text>
<polyline fill="none" stroke="#000000" points="1282,-187.5 1419,-187.5 "/>
<text text-anchor="middle" x="1350.5" y="-166.3" font-family="Times,serif" font-size="14.00" fill="#000000">inputnode.in_file</text>
<polyline fill="none" stroke="#000000" points="1419,-152.5 1419,-221.5 "/>
<text text-anchor="middle" x="1493" y="-206.3" font-family="Times,serif" font-size="14.00" fill="#000000">skullstrip_bold_wf</text>
<polyline fill="none" stroke="#000000" points="1419,-198.5 1567,-198.5 "/>
<text text-anchor="middle" x="1493" y="-183.3" font-family="Times,serif" font-size="14.00" fill="#000000"> </text>
<polyline fill="none" stroke="#000000" points="1419,-175.5 1567,-175.5 "/>
<text text-anchor="middle" x="1493" y="-160.3" font-family="Times,serif" font-size="14.00" fill="#000000"> </text>
<polyline fill="none" stroke="#000000" points="1567,-152.5 1567,-221.5 "/>
<text text-anchor="middle" x="1684.5" y="-206.3" font-family="Times,serif" font-size="14.00" fill="#000000">OUT</text>
<polyline fill="none" stroke="#000000" points="1567,-198.5 1802,-198.5 "/>
<text text-anchor="middle" x="1684.5" y="-183.3" font-family="Times,serif" font-size="14.00" fill="#000000">outputnode.mask_file</text>
<polyline fill="none" stroke="#000000" points="1567,-175.5 1802,-175.5 "/>
<text text-anchor="middle" x="1684.5" y="-160.3" font-family="Times,serif" font-size="14.00" fill="#000000">outputnode.skull_stripped_file</text>
</g>
<!-- syn_sdc_wfunwarp_ref&#45;&gt;syn_sdc_wfskullstrip_bold_wf -->
<g id="edge25" class="edge">
<title>syn_sdc_wfunwarp_ref:e&#45;&gt;syn_sdc_wfskullstrip_bold_wf:w</title>
<path fill="none" stroke="#000000" d="M1282,-281.5C1302.8095,-281.5 1271.1888,-202.8549 1275.2043,-177.6638"/>
<polygon fill="#000000" stroke="#000000" points="1277.9841,-179.8043 1282,-170 1272.7466,-175.16 1277.9841,-179.8043"/>
</g>
<!-- syn_sdc_wfunwarp_ref&#45;&gt;syn_sdc_wfoutputnode -->
<g id="edge24" class="edge">
<title>syn_sdc_wfunwarp_ref:e&#45;&gt;syn_sdc_wfoutputnode:w</title>
<path fill="none" stroke="#000000" d="M1282,-281.5C1292.4444,-281.5 1283.2761,-268.3662 1282,-258 1276.2231,-211.0736 1245.9605,-190.7856 1273,-152 1305.7176,-105.0696 1451.0729,-62.703 1517.6469,-58.3651"/>
<polygon fill="#000000" stroke="#000000" points="1518.1296,-61.8504 1528,-58 1517.8828,-54.8547 1518.1296,-61.8504"/>
</g>
<!-- syn_sdc_wfskullstrip_bold_wf&#45;&gt;syn_sdc_wfoutputnode -->
<g id="edge17" class="edge">
<title>syn_sdc_wfskullstrip_bold_wf:e&#45;&gt;syn_sdc_wfoutputnode:w</title>
<path fill="none" stroke="#000000" d="M1802,-187C1817.5556,-187 1812.258,-163.6939 1802,-152 1721.0042,-59.6663 1608.9958,-208.3337 1528,-116 1520.7873,-107.7777 1516.027,-93.8145 1519.2437,-86.2486"/>
<polygon fill="#000000" stroke="#000000" points="1521.2222,-89.1433 1528,-81 1517.6234,-83.1392 1521.2222,-89.1433"/>
</g>
<!-- syn_sdc_wfskullstrip_bold_wf&#45;&gt;syn_sdc_wfoutputnode -->
<g id="edge18" class="edge">
<title>syn_sdc_wfskullstrip_bold_wf:e&#45;&gt;syn_sdc_wfoutputnode:w</title>
<path fill="none" stroke="#000000" d="M1802,-164C1807.3333,-164 1805.517,-156.0094 1802,-152 1721.0042,-59.6663 1608.9958,-208.3337 1528,-116 1506.8566,-91.8969 1494.8192,-46.4772 1517.8714,-36.83"/>
<polygon fill="#000000" stroke="#000000" points="1518.7816,-40.2223 1528,-35 1517.537,-33.3338 1518.7816,-40.2223"/>
</g>
</g>
</svg>
