<?xml version="1.0" encoding="UTF-8" standalone="no"?>
<!DOCTYPE svg PUBLIC "-//W3C//DTD SVG 1.1//EN"
 "http://www.w3.org/Graphics/SVG/1.1/DTD/svg11.dtd">
<!-- Generated by graphviz version 2.40.1 (20161225.0304)
 -->
<!-- Title: %3 Pages: 1 -->
<svg width="641pt" height="260pt"
 viewBox="0.00 0.00 641.47 260.00" xmlns="http://www.w3.org/2000/svg" xmlns:xlink="http://www.w3.org/1999/xlink">
<g id="graph0" class="graph" transform="scale(1 1) rotate(0) translate(4 256)">
<title>%3</title>
<polygon fill="#ffffff" stroke="transparent" points="-4,4 -4,-256 637.4663,-256 637.4663,4 -4,4"/>
<!-- inputnode (utility) -->
<g id="node1" class="node">
<title>inputnode (utility)</title>
<ellipse fill="none" stroke="#000000" cx="479.5358" cy="-234" rx="94.7833" ry="18"/>
<text text-anchor="middle" x="479.5358" y="-230.3" font-family="Times,serif" font-size="14.00" fill="#000000">inputnode (utility)</text>
</g>
<!-- unwarp_reference (registration) -->
<g id="node2" class="node">
<title>unwarp_reference (registration)</title>
<ellipse fill="none" stroke="#000000" cx="160.5358" cy="-162" rx="160.5715" ry="18"/>
<text text-anchor="middle" x="160.5358" y="-158.3" font-family="Times,serif" font-size="14.00" fill="#000000">unwarp_reference (registration)</text>
</g>
<!-- inputnode (utility)&#45;&gt;unwarp_reference (registration) -->
<g id="edge1" class="edge">
<title>inputnode (utility)&#45;&gt;unwarp_reference (registration)</title>
<path fill="none" stroke="#000000" d="M418.4068,-220.2029C368.3351,-208.9014 297.0434,-192.8105 242.1054,-180.4107"/>
<polygon fill="#000000" stroke="#000000" points="242.5717,-176.928 232.0464,-178.1403 241.0304,-183.7562 242.5717,-176.928"/>
</g>
<!-- unwarp_mask (registration) -->
<g id="node3" class="node">
<title>unwarp_mask (registration)</title>
<ellipse fill="none" stroke="#000000" cx="479.5358" cy="-162" rx="140.2752" ry="18"/>
<text text-anchor="middle" x="479.5358" y="-158.3" font-family="Times,serif" font-size="14.00" fill="#000000">unwarp_mask (registration)</text>
</g>
<!-- inputnode (utility)&#45;&gt;unwarp_mask (registration) -->
<g id="edge2" class="edge">
<title>inputnode (utility)&#45;&gt;unwarp_mask (registration)</title>
<path fill="none" stroke="#000000" d="M479.5358,-215.8314C479.5358,-208.131 479.5358,-198.9743 479.5358,-190.4166"/>
<polygon fill="#000000" stroke="#000000" points="483.0359,-190.4132 479.5358,-180.4133 476.0359,-190.4133 483.0359,-190.4132"/>
</g>
<!-- outputnode (utility) -->
<g id="node4" class="node">
<title>outputnode (utility)</title>
<ellipse fill="none" stroke="#000000" cx="430.5358" cy="-18" rx="101.2821" ry="18"/>
<text text-anchor="middle" x="430.5358" y="-14.3" font-family="Times,serif" font-size="14.00" fill="#000000">outputnode (utility)</text>
</g>
<!-- inputnode (utility)&#45;&gt;outputnode (utility) -->
<g id="edge3" class="edge">
<title>inputnode (utility)&#45;&gt;outputnode (utility)</title>
<path fill="none" stroke="#000000" d="M539.1767,-219.8463C575.8031,-209.8116 617.7147,-195.4315 628.5358,-180 637.722,-166.8999 631.3906,-159.7433 628.5358,-144 622.4379,-110.3724 626.3324,-95.5186 601.5358,-72 587.0112,-58.224 543.9267,-44.6616 504.6417,-34.5746"/>
<polygon fill="#000000" stroke="#000000" points="505.3074,-31.133 494.7556,-32.0869 503.5992,-37.9214 505.3074,-31.133"/>
</g>
<!-- unwarp_reference (registration)&#45;&gt;outputnode (utility) -->
<g id="edge5" class="edge">
<title>unwarp_reference (registration)&#45;&gt;outputnode (utility)</title>
<path fill="none" stroke="#000000" d="M175.9194,-143.9414C194.0241,-123.7448 225.9077,-91.3367 259.5358,-72 288.7596,-55.1958 323.8547,-42.9461 354.6259,-34.4044"/>
<polygon fill="#000000" stroke="#000000" points="355.7047,-37.7387 364.4517,-31.7604 353.8857,-30.9792 355.7047,-37.7387"/>
</g>
<!-- enhance_and_skullstrip_bold_wf -->
<g id="node5" class="node">
<title>enhance_and_skullstrip_bold_wf</title>
<ellipse fill="none" stroke="#000000" cx="430.5358" cy="-90" rx="161.6714" ry="18"/>
<text text-anchor="middle" x="430.5358" y="-86.3" font-family="Times,serif" font-size="14.00" fill="#000000">enhance_and_skullstrip_bold_wf</text>
</g>
<!-- unwarp_reference (registration)&#45;&gt;enhance_and_skullstrip_bold_wf -->
<g id="edge4" class="edge">
<title>unwarp_reference (registration)&#45;&gt;enhance_and_skullstrip_bold_wf</title>
<path fill="none" stroke="#000000" d="M222.8182,-145.3913C263.2734,-134.6033 316.1467,-120.5037 358.4238,-109.2299"/>
<polygon fill="#000000" stroke="#000000" points="359.339,-112.6082 368.0995,-106.6497 357.5353,-105.8446 359.339,-112.6082"/>
</g>
<!-- unwarp_mask (registration)&#45;&gt;enhance_and_skullstrip_bold_wf -->
<g id="edge6" class="edge">
<title>unwarp_mask (registration)&#45;&gt;enhance_and_skullstrip_bold_wf</title>
<path fill="none" stroke="#000000" d="M467.171,-143.8314C461.5849,-135.6232 454.8728,-125.7606 448.7286,-116.7323"/>
<polygon fill="#000000" stroke="#000000" points="451.5868,-114.7112 443.067,-108.4133 445.7998,-118.6496 451.5868,-114.7112"/>
</g>
<!-- enhance_and_skullstrip_bold_wf&#45;&gt;outputnode (utility) -->
<g id="edge7" class="edge">
<title>enhance_and_skullstrip_bold_wf&#45;&gt;outputnode (utility)</title>
<path fill="none" stroke="#000000" d="M430.5358,-71.8314C430.5358,-64.131 430.5358,-54.9743 430.5358,-46.4166"/>
<polygon fill="#000000" stroke="#000000" points="434.0359,-46.4132 430.5358,-36.4133 427.0359,-46.4133 434.0359,-46.4132"/>
</g>
</g>
</svg>
