<?xml version="1.0" encoding="UTF-8" standalone="no"?>
<!DOCTYPE svg PUBLIC "-//W3C//DTD SVG 1.1//EN"
 "http://www.w3.org/Graphics/SVG/1.1/DTD/svg11.dtd">
<!-- Generated by graphviz version 2.40.1 (20161225.0304)
 -->
<!-- Title: structs Pages: 1 -->
<svg width="1416pt" height="571pt"
 viewBox="0.00 0.00 1415.50 571.00" xmlns="http://www.w3.org/2000/svg" xmlns:xlink="http://www.w3.org/1999/xlink">
<g id="graph0" class="graph" transform="scale(1 1) rotate(0) translate(4 567)">
<title>structs</title>
<polygon fill="#ffffff" stroke="transparent" points="-4,4 -4,-567 1411.5,-567 1411.5,4 -4,4"/>
<!-- fmap_wfinputnode -->
<g id="node1" class="node">
<title>fmap_wfinputnode</title>
<polygon fill="none" stroke="#000000" points="0,-493.5 0,-562.5 217,-562.5 217,-493.5 0,-493.5"/>
<text text-anchor="middle" x="17.5" y="-524.3" font-family="Times,serif" font-size="14.00" fill="#000000">IN</text>
<polyline fill="none" stroke="#000000" points="35,-493.5 35,-562.5 "/>
<text text-anchor="middle" x="79.5" y="-547.3" font-family="Times,serif" font-size="14.00" fill="#000000">inputnode</text>
<polyline fill="none" stroke="#000000" points="35,-539.5 124,-539.5 "/>
<text text-anchor="middle" x="79.5" y="-524.3" font-family="Times,serif" font-size="14.00" fill="#000000">utility</text>
<polyline fill="none" stroke="#000000" points="35,-516.5 124,-516.5 "/>
<text text-anchor="middle" x="79.5" y="-501.3" font-family="Times,serif" font-size="14.00" fill="#000000"> </text>
<polyline fill="none" stroke="#000000" points="124,-493.5 124,-562.5 "/>
<text text-anchor="middle" x="170.5" y="-547.3" font-family="Times,serif" font-size="14.00" fill="#000000">OUT</text>
<polyline fill="none" stroke="#000000" points="124,-539.5 217,-539.5 "/>
<text text-anchor="middle" x="170.5" y="-524.3" font-family="Times,serif" font-size="14.00" fill="#000000">fieldmap</text>
<polyline fill="none" stroke="#000000" points="124,-516.5 217,-516.5 "/>
<text text-anchor="middle" x="170.5" y="-501.3" font-family="Times,serif" font-size="14.00" fill="#000000">magnitude</text>
</g>
<!-- fmap_wfmagnitude_wf -->
<g id="node2" class="node">
<title>fmap_wfmagnitude_wf</title>
<polygon fill="none" stroke="#000000" points="232,-387.5 232,-456.5 705,-456.5 705,-387.5 232,-387.5"/>
<text text-anchor="middle" x="317" y="-435.8" font-family="Times,serif" font-size="14.00" fill="#000000">IN</text>
<polyline fill="none" stroke="#000000" points="232,-422.5 402,-422.5 "/>
<text text-anchor="middle" x="317" y="-401.3" font-family="Times,serif" font-size="14.00" fill="#000000">inputnode.magnitude</text>
<polyline fill="none" stroke="#000000" points="402,-387.5 402,-456.5 "/>
<text text-anchor="middle" x="461" y="-441.3" font-family="Times,serif" font-size="14.00" fill="#000000">magnitude_wf</text>
<polyline fill="none" stroke="#000000" points="402,-433.5 520,-433.5 "/>
<text text-anchor="middle" x="461" y="-418.3" font-family="Times,serif" font-size="14.00" fill="#000000"> </text>
<polyline fill="none" stroke="#000000" points="402,-410.5 520,-410.5 "/>
<text text-anchor="middle" x="461" y="-395.3" font-family="Times,serif" font-size="14.00" fill="#000000"> </text>
<polyline fill="none" stroke="#000000" points="520,-387.5 520,-456.5 "/>
<text text-anchor="middle" x="612.5" y="-441.3" font-family="Times,serif" font-size="14.00" fill="#000000">OUT</text>
<polyline fill="none" stroke="#000000" points="520,-433.5 705,-433.5 "/>
<text text-anchor="middle" x="612.5" y="-418.3" font-family="Times,serif" font-size="14.00" fill="#000000">outputnode.fmap_mask</text>
<polyline fill="none" stroke="#000000" points="520,-410.5 705,-410.5 "/>
<text text-anchor="middle" x="612.5" y="-395.3" font-family="Times,serif" font-size="14.00" fill="#000000">outputnode.fmap_ref</text>
</g>
<!-- fmap_wfinputnode&#45;&gt;fmap_wfmagnitude_wf -->
<g id="edge3" class="edge">
<title>fmap_wfinputnode:e&#45;&gt;fmap_wfmagnitude_wf:w</title>
<path fill="none" stroke="#000000" d="M217.5,-505C236.2576,-505 217.7578,-435.1208 224.2902,-412.1918"/>
<polygon fill="#000000" stroke="#000000" points="226.8919,-414.5402 231.5,-405 221.9483,-409.5843 226.8919,-414.5402"/>
</g>
<!-- fmap_wfphdiff_wf -->
<g id="node3" class="node">
<title>fmap_wfphdiff_wf</title>
<polygon fill="none" stroke="#000000" points="221.5,-258.5 221.5,-350.5 639.5,-350.5 639.5,-258.5 221.5,-258.5"/>
<text text-anchor="middle" x="306.5" y="-335.3" font-family="Times,serif" font-size="14.00" fill="#000000">IN</text>
<polyline fill="none" stroke="#000000" points="221.5,-327.5 391.5,-327.5 "/>
<text text-anchor="middle" x="306.5" y="-312.3" font-family="Times,serif" font-size="14.00" fill="#000000">inputnode.magnitude</text>
<polyline fill="none" stroke="#000000" points="221.5,-304.5 391.5,-304.5 "/>
<text text-anchor="middle" x="306.5" y="-289.3" font-family="Times,serif" font-size="14.00" fill="#000000">inputnode.mask</text>
<polyline fill="none" stroke="#000000" points="221.5,-281.5 391.5,-281.5 "/>
<text text-anchor="middle" x="306.5" y="-266.3" font-family="Times,serif" font-size="14.00" fill="#000000">inputnode.phase</text>
<polyline fill="none" stroke="#000000" points="391.5,-258.5 391.5,-350.5 "/>
<text text-anchor="middle" x="433" y="-331.8" font-family="Times,serif" font-size="14.00" fill="#000000">phdiff_wf</text>
<polyline fill="none" stroke="#000000" points="391.5,-320.5 474.5,-320.5 "/>
<text text-anchor="middle" x="433" y="-301.3" font-family="Times,serif" font-size="14.00" fill="#000000"> </text>
<polyline fill="none" stroke="#000000" points="391.5,-289.5 474.5,-289.5 "/>
<text text-anchor="middle" x="433" y="-270.3" font-family="Times,serif" font-size="14.00" fill="#000000"> </text>
<polyline fill="none" stroke="#000000" points="474.5,-258.5 474.5,-350.5 "/>
<text text-anchor="middle" x="557" y="-323.8" font-family="Times,serif" font-size="14.00" fill="#000000">OUT</text>
<polyline fill="none" stroke="#000000" points="474.5,-304.5 639.5,-304.5 "/>
<text text-anchor="middle" x="557" y="-277.8" font-family="Times,serif" font-size="14.00" fill="#000000">outputnode.fieldmap</text>
</g>
<!-- fmap_wfinputnode&#45;&gt;fmap_wfphdiff_wf -->
<g id="edge2" class="edge">
<title>fmap_wfinputnode:e&#45;&gt;fmap_wfphdiff_wf:w</title>
<path fill="none" stroke="#000000" d="M217.5,-528C230.2077,-528 212.3166,-325.6436 217.9723,-279.0067"/>
<polygon fill="#000000" stroke="#000000" points="221.3023,-280.093 221.5,-269.5 214.7396,-277.6577 221.3023,-280.093"/>
</g>
<!-- fmap_wfmagnitude_wf&#45;&gt;fmap_wfphdiff_wf -->
<g id="edge6" class="edge">
<title>fmap_wfmagnitude_wf:e&#45;&gt;fmap_wfphdiff_wf:w</title>
<path fill="none" stroke="#000000" d="M705.5,-422C721.0556,-422 716.0836,-398.4001 705.5,-387 632.1196,-307.9588 294.8804,-430.0412 221.5,-351 206.5742,-334.9228 198.3259,-304.3289 211.7304,-295.1608"/>
<polygon fill="#000000" stroke="#000000" points="212.7712,-298.5049 221.5,-292.5 210.9317,-291.7509 212.7712,-298.5049"/>
</g>
<!-- fmap_wfmagnitude_wf&#45;&gt;fmap_wfphdiff_wf -->
<g id="edge9" class="edge">
<title>fmap_wfmagnitude_wf:e&#45;&gt;fmap_wfphdiff_wf:w</title>
<path fill="none" stroke="#000000" d="M705.5,-399C710.8333,-399 709.1287,-390.9086 705.5,-387 632.1196,-307.9588 294.8804,-430.0412 221.5,-351 214.1647,-343.0988 209.5641,-329.2524 212.8091,-321.7275"/>
<polygon fill="#000000" stroke="#000000" points="214.7347,-324.6536 221.5,-316.5 211.1266,-318.6551 214.7347,-324.6536"/>
</g>
<!-- fmap_wffmap_postproc_wf -->
<g id="node4" class="node">
<title>fmap_wffmap_postproc_wf</title>
<polygon fill="none" stroke="#000000" points="640,-129.5 640,-221.5 1133,-221.5 1133,-129.5 640,-129.5"/>
<text text-anchor="middle" x="727.5" y="-206.3" font-family="Times,serif" font-size="14.00" fill="#000000">IN</text>
<polyline fill="none" stroke="#000000" points="640,-198.5 815,-198.5 "/>
<text text-anchor="middle" x="727.5" y="-183.3" font-family="Times,serif" font-size="14.00" fill="#000000">inputnode.fmap</text>
<polyline fill="none" stroke="#000000" points="640,-175.5 815,-175.5 "/>
<text text-anchor="middle" x="727.5" y="-160.3" font-family="Times,serif" font-size="14.00" fill="#000000">inputnode.fmap_mask</text>
<polyline fill="none" stroke="#000000" points="640,-152.5 815,-152.5 "/>
<text text-anchor="middle" x="727.5" y="-137.3" font-family="Times,serif" font-size="14.00" fill="#000000">inputnode.fmap_ref</text>
<polyline fill="none" stroke="#000000" points="815,-129.5 815,-221.5 "/>
<text text-anchor="middle" x="889" y="-202.8" font-family="Times,serif" font-size="14.00" fill="#000000">fmap_postproc_wf</text>
<polyline fill="none" stroke="#000000" points="815,-191.5 963,-191.5 "/>
<text text-anchor="middle" x="889" y="-172.3" font-family="Times,serif" font-size="14.00" fill="#000000"> </text>
<polyline fill="none" stroke="#000000" points="815,-160.5 963,-160.5 "/>
<text text-anchor="middle" x="889" y="-141.3" font-family="Times,serif" font-size="14.00" fill="#000000"> </text>
<polyline fill="none" stroke="#000000" points="963,-129.5 963,-221.5 "/>
<text text-anchor="middle" x="1048" y="-194.8" font-family="Times,serif" font-size="14.00" fill="#000000">OUT</text>
<polyline fill="none" stroke="#000000" points="963,-175.5 1133,-175.5 "/>
<text text-anchor="middle" x="1048" y="-148.8" font-family="Times,serif" font-size="14.00" fill="#000000">outputnode.out_fmap</text>
</g>
<!-- fmap_wfmagnitude_wf&#45;&gt;fmap_wffmap_postproc_wf -->
<g id="edge4" class="edge">
<title>fmap_wfmagnitude_wf:e&#45;&gt;fmap_wffmap_postproc_wf:w</title>
<path fill="none" stroke="#000000" d="M705.5,-422C721.0556,-422 708.4417,-402.2749 705.5,-387 704.5665,-382.1527 640.4335,-226.8473 639.5,-222 635.4667,-201.0567 620.5548,-175.1081 629.678,-166.4591"/>
<polygon fill="#000000" stroke="#000000" points="630.9347,-169.7359 639.5,-163.5 628.9154,-163.0335 630.9347,-169.7359"/>
</g>
<!-- fmap_wfmagnitude_wf&#45;&gt;fmap_wffmap_postproc_wf -->
<g id="edge7" class="edge">
<title>fmap_wfmagnitude_wf:e&#45;&gt;fmap_wffmap_postproc_wf:w</title>
<path fill="none" stroke="#000000" d="M705.5,-399C710.0381,-399 732.5475,-336.2854 686.5,-258 673.1596,-235.32 651.1479,-245.5939 639.5,-222 625.2191,-193.0727 607.6441,-151.0253 629.5598,-142.1735"/>
<polygon fill="#000000" stroke="#000000" points="630.2199,-145.6117 639.5,-140.5 629.0577,-138.7088 630.2199,-145.6117"/>
</g>
<!-- fmap_wfoutputnode -->
<g id="node5" class="node">
<title>fmap_wfoutputnode</title>
<polygon fill="none" stroke="#000000" points="1161.5,-.5 1161.5,-92.5 1407.5,-92.5 1407.5,-.5 1161.5,-.5"/>
<text text-anchor="middle" x="1210.5" y="-77.3" font-family="Times,serif" font-size="14.00" fill="#000000">IN</text>
<polyline fill="none" stroke="#000000" points="1161.5,-69.5 1259.5,-69.5 "/>
<text text-anchor="middle" x="1210.5" y="-54.3" font-family="Times,serif" font-size="14.00" fill="#000000">fmap</text>
<polyline fill="none" stroke="#000000" points="1161.5,-46.5 1259.5,-46.5 "/>
<text text-anchor="middle" x="1210.5" y="-31.3" font-family="Times,serif" font-size="14.00" fill="#000000">fmap_mask</text>
<polyline fill="none" stroke="#000000" points="1161.5,-23.5 1259.5,-23.5 "/>
<text text-anchor="middle" x="1210.5" y="-8.3" font-family="Times,serif" font-size="14.00" fill="#000000">fmap_ref</text>
<polyline fill="none" stroke="#000000" points="1259.5,-.5 1259.5,-92.5 "/>
<text text-anchor="middle" x="1308.5" y="-73.8" font-family="Times,serif" font-size="14.00" fill="#000000">outputnode</text>
<polyline fill="none" stroke="#000000" points="1259.5,-62.5 1357.5,-62.5 "/>
<text text-anchor="middle" x="1308.5" y="-43.3" font-family="Times,serif" font-size="14.00" fill="#000000">utility</text>
<polyline fill="none" stroke="#000000" points="1259.5,-31.5 1357.5,-31.5 "/>
<text text-anchor="middle" x="1308.5" y="-12.3" font-family="Times,serif" font-size="14.00" fill="#000000"> </text>
<polyline fill="none" stroke="#000000" points="1357.5,-.5 1357.5,-92.5 "/>
<text text-anchor="middle" x="1382.5" y="-42.8" font-family="Times,serif" font-size="14.00" fill="#000000">OUT</text>
</g>
<!-- fmap_wfmagnitude_wf&#45;&gt;fmap_wfoutputnode -->
<g id="edge5" class="edge">
<title>fmap_wfmagnitude_wf:e&#45;&gt;fmap_wfoutputnode:w</title>
<path fill="none" stroke="#000000" d="M705.5,-422C919.0966,-422 1018.1692,-395.6818 1142.5,-222 1189.0651,-156.9517 1087.6111,-45.1231 1151.3737,-35.2073"/>
<polygon fill="#000000" stroke="#000000" points="1151.7682,-38.6884 1161.5,-34.5 1151.2804,-31.7054 1151.7682,-38.6884"/>
</g>
<!-- fmap_wfmagnitude_wf&#45;&gt;fmap_wfoutputnode -->
<g id="edge8" class="edge">
<title>fmap_wfmagnitude_wf:e&#45;&gt;fmap_wfoutputnode:w</title>
<path fill="none" stroke="#000000" d="M705.5,-399C789.5132,-399 1009.5856,-396.0486 1080.5,-351 1137.8439,-314.5721 1143.5223,-287.2315 1162.5,-222 1178.5164,-166.9474 1162.2961,-150.3295 1161.5,-93 1161.056,-61.0257 1133.1659,-21.9883 1151.5571,-13.2781"/>
<polygon fill="#000000" stroke="#000000" points="1152.2723,-16.7058 1161.5,-11.5 1151.04,-9.8151 1152.2723,-16.7058"/>
</g>
<!-- fmap_wfphdiff_wf&#45;&gt;fmap_wffmap_postproc_wf -->
<g id="edge10" class="edge">
<title>fmap_wfphdiff_wf:e&#45;&gt;fmap_wffmap_postproc_wf:w</title>
<path fill="none" stroke="#000000" d="M639.5,-281.5C676.7083,-281.5 614.5007,-206.938 629.9617,-190.6275"/>
<polygon fill="#000000" stroke="#000000" points="631.0883,-193.9416 639.5,-187.5 628.9072,-187.29 631.0883,-193.9416"/>
</g>
<!-- fmap_wffmap_postproc_wf&#45;&gt;fmap_wfoutputnode -->
<g id="edge1" class="edge">
<title>fmap_wffmap_postproc_wf:e&#45;&gt;fmap_wfoutputnode:w</title>
<path fill="none" stroke="#000000" d="M1133.5,-152.5C1151.8052,-152.5 1143.7393,-86.1983 1153.5976,-64.961"/>
<polygon fill="#000000" stroke="#000000" points="1155.9736,-67.5393 1161.5,-58.5 1151.5428,-62.1201 1155.9736,-67.5393"/>
</g>
</g>
</svg>
