<?xml version="1.0" encoding="UTF-8" standalone="no"?>
<!DOCTYPE svg PUBLIC "-//W3C//DTD SVG 1.1//EN"
 "http://www.w3.org/Graphics/SVG/1.1/DTD/svg11.dtd">
<!-- Generated by graphviz version 2.40.1 (20161225.0304)
 -->
<!-- Title: structs Pages: 1 -->
<svg width="1386pt" height="548pt"
 viewBox="0.00 0.00 1385.50 548.00" xmlns="http://www.w3.org/2000/svg" xmlns:xlink="http://www.w3.org/1999/xlink">
<g id="graph0" class="graph" transform="scale(1 1) rotate(0) translate(4 544)">
<title>structs</title>
<polygon fill="#ffffff" stroke="transparent" points="-4,4 -4,-544 1381.5,-544 1381.5,4 -4,4"/>
<!-- fmap_wfinputnode -->
<g id="node1" class="node">
<title>fmap_wfinputnode</title>
<polygon fill="none" stroke="#000000" points="0,-470.5 0,-539.5 217,-539.5 217,-470.5 0,-470.5"/>
<text text-anchor="middle" x="17.5" y="-501.3" font-family="Times,serif" font-size="14.00" fill="#000000">IN</text>
<polyline fill="none" stroke="#000000" points="35,-470.5 35,-539.5 "/>
<text text-anchor="middle" x="79.5" y="-524.3" font-family="Times,serif" font-size="14.00" fill="#000000">inputnode</text>
<polyline fill="none" stroke="#000000" points="35,-516.5 124,-516.5 "/>
<text text-anchor="middle" x="79.5" y="-501.3" font-family="Times,serif" font-size="14.00" fill="#000000">utility</text>
<polyline fill="none" stroke="#000000" points="35,-493.5 124,-493.5 "/>
<text text-anchor="middle" x="79.5" y="-478.3" font-family="Times,serif" font-size="14.00" fill="#000000"> </text>
<polyline fill="none" stroke="#000000" points="124,-470.5 124,-539.5 "/>
<text text-anchor="middle" x="170.5" y="-524.3" font-family="Times,serif" font-size="14.00" fill="#000000">OUT</text>
<polyline fill="none" stroke="#000000" points="124,-516.5 217,-516.5 "/>
<text text-anchor="middle" x="170.5" y="-501.3" font-family="Times,serif" font-size="14.00" fill="#000000">fieldmap</text>
<polyline fill="none" stroke="#000000" points="124,-493.5 217,-493.5 "/>
<text text-anchor="middle" x="170.5" y="-478.3" font-family="Times,serif" font-size="14.00" fill="#000000">magnitude</text>
</g>
<!-- fmap_wffmapmrg -->
<g id="node2" class="node">
<title>fmap_wffmapmrg</title>
<polygon fill="none" stroke="#000000" points="98,-364.5 98,-433.5 321,-433.5 321,-364.5 98,-364.5"/>
<text text-anchor="middle" x="132" y="-412.8" font-family="Times,serif" font-size="14.00" fill="#000000">IN</text>
<polyline fill="none" stroke="#000000" points="98,-399.5 166,-399.5 "/>
<text text-anchor="middle" x="132" y="-378.3" font-family="Times,serif" font-size="14.00" fill="#000000">in_files</text>
<polyline fill="none" stroke="#000000" points="166,-364.5 166,-433.5 "/>
<text text-anchor="middle" x="207" y="-418.3" font-family="Times,serif" font-size="14.00" fill="#000000">fmapmrg</text>
<polyline fill="none" stroke="#000000" points="166,-410.5 248,-410.5 "/>
<text text-anchor="middle" x="207" y="-395.3" font-family="Times,serif" font-size="14.00" fill="#000000">images</text>
<polyline fill="none" stroke="#000000" points="166,-387.5 248,-387.5 "/>
<text text-anchor="middle" x="207" y="-372.3" font-family="Times,serif" font-size="14.00" fill="#000000"> </text>
<polyline fill="none" stroke="#000000" points="248,-364.5 248,-433.5 "/>
<text text-anchor="middle" x="284.5" y="-412.8" font-family="Times,serif" font-size="14.00" fill="#000000">OUT</text>
<polyline fill="none" stroke="#000000" points="248,-399.5 321,-399.5 "/>
<text text-anchor="middle" x="284.5" y="-378.3" font-family="Times,serif" font-size="14.00" fill="#000000">out_avg</text>
</g>
<!-- fmap_wfinputnode&#45;&gt;fmap_wffmapmrg -->
<g id="edge4" class="edge">
<title>fmap_wfinputnode:e&#45;&gt;fmap_wffmapmrg:w</title>
<path fill="none" stroke="#000000" d="M217.5,-505C233.0556,-505 226.7856,-482.4801 217.5,-470 184.2619,-425.327 130.7381,-478.673 97.5,-434 86.291,-418.9347 78.0397,-394.0224 87.7358,-385.2099"/>
<polygon fill="#000000" stroke="#000000" points="89.0932,-388.448 97.5,-382 86.9071,-381.7981 89.0932,-388.448"/>
</g>
<!-- fmap_wfmagnitude_wf -->
<g id="node3" class="node">
<title>fmap_wfmagnitude_wf</title>
<polygon fill="none" stroke="#000000" points="339,-364.5 339,-433.5 812,-433.5 812,-364.5 339,-364.5"/>
<text text-anchor="middle" x="424" y="-412.8" font-family="Times,serif" font-size="14.00" fill="#000000">IN</text>
<polyline fill="none" stroke="#000000" points="339,-399.5 509,-399.5 "/>
<text text-anchor="middle" x="424" y="-378.3" font-family="Times,serif" font-size="14.00" fill="#000000">inputnode.magnitude</text>
<polyline fill="none" stroke="#000000" points="509,-364.5 509,-433.5 "/>
<text text-anchor="middle" x="568" y="-418.3" font-family="Times,serif" font-size="14.00" fill="#000000">magnitude_wf</text>
<polyline fill="none" stroke="#000000" points="509,-410.5 627,-410.5 "/>
<text text-anchor="middle" x="568" y="-395.3" font-family="Times,serif" font-size="14.00" fill="#000000"> </text>
<polyline fill="none" stroke="#000000" points="509,-387.5 627,-387.5 "/>
<text text-anchor="middle" x="568" y="-372.3" font-family="Times,serif" font-size="14.00" fill="#000000"> </text>
<polyline fill="none" stroke="#000000" points="627,-364.5 627,-433.5 "/>
<text text-anchor="middle" x="719.5" y="-418.3" font-family="Times,serif" font-size="14.00" fill="#000000">OUT</text>
<polyline fill="none" stroke="#000000" points="627,-410.5 812,-410.5 "/>
<text text-anchor="middle" x="719.5" y="-395.3" font-family="Times,serif" font-size="14.00" fill="#000000">outputnode.fmap_mask</text>
<polyline fill="none" stroke="#000000" points="627,-387.5 812,-387.5 "/>
<text text-anchor="middle" x="719.5" y="-372.3" font-family="Times,serif" font-size="14.00" fill="#000000">outputnode.fmap_ref</text>
</g>
<!-- fmap_wfinputnode&#45;&gt;fmap_wfmagnitude_wf -->
<g id="edge5" class="edge">
<title>fmap_wfinputnode:e&#45;&gt;fmap_wfmagnitude_wf:w</title>
<path fill="none" stroke="#000000" d="M217.5,-482C271.6566,-482 295.9272,-476.4948 329.5,-434 334.7253,-427.386 331.0303,-403.4164 332.893,-390.4566"/>
<polygon fill="#000000" stroke="#000000" points="335.891,-392.2686 338.5,-382 330.0569,-388.4003 335.891,-392.2686"/>
</g>
<!-- fmap_wfapplymsk -->
<g id="node4" class="node">
<title>fmap_wfapplymsk</title>
<polygon fill="none" stroke="#000000" points="368,-258.5 368,-327.5 609,-327.5 609,-258.5 368,-258.5"/>
<text text-anchor="middle" x="410.5" y="-312.3" font-family="Times,serif" font-size="14.00" fill="#000000">IN</text>
<polyline fill="none" stroke="#000000" points="368,-304.5 453,-304.5 "/>
<text text-anchor="middle" x="410.5" y="-289.3" font-family="Times,serif" font-size="14.00" fill="#000000">in_file</text>
<polyline fill="none" stroke="#000000" points="368,-281.5 453,-281.5 "/>
<text text-anchor="middle" x="410.5" y="-266.3" font-family="Times,serif" font-size="14.00" fill="#000000">mask_file</text>
<polyline fill="none" stroke="#000000" points="453,-258.5 453,-327.5 "/>
<text text-anchor="middle" x="496" y="-312.3" font-family="Times,serif" font-size="14.00" fill="#000000">applymsk</text>
<polyline fill="none" stroke="#000000" points="453,-304.5 539,-304.5 "/>
<text text-anchor="middle" x="496" y="-289.3" font-family="Times,serif" font-size="14.00" fill="#000000">fsl</text>
<polyline fill="none" stroke="#000000" points="453,-281.5 539,-281.5 "/>
<text text-anchor="middle" x="496" y="-266.3" font-family="Times,serif" font-size="14.00" fill="#000000"> </text>
<polyline fill="none" stroke="#000000" points="539,-258.5 539,-327.5 "/>
<text text-anchor="middle" x="574" y="-306.8" font-family="Times,serif" font-size="14.00" fill="#000000">OUT</text>
<polyline fill="none" stroke="#000000" points="539,-293.5 609,-293.5 "/>
<text text-anchor="middle" x="574" y="-272.3" font-family="Times,serif" font-size="14.00" fill="#000000">out_file</text>
</g>
<!-- fmap_wffmapmrg&#45;&gt;fmap_wfapplymsk -->
<g id="edge3" class="edge">
<title>fmap_wffmapmrg:e&#45;&gt;fmap_wfapplymsk:w</title>
<path fill="none" stroke="#000000" d="M321.5,-382C330.2545,-382 325.6541,-371.8645 329.5,-364 343.5033,-335.3643 334.3155,-301.4178 357.4228,-294.3346"/>
<polygon fill="#000000" stroke="#000000" points="358.0461,-297.7827 367.5,-293 357.127,-290.8433 358.0461,-297.7827"/>
</g>
<!-- fmap_wfmagnitude_wf&#45;&gt;fmap_wfapplymsk -->
<g id="edge6" class="edge">
<title>fmap_wfmagnitude_wf:e&#45;&gt;fmap_wfapplymsk:w</title>
<path fill="none" stroke="#000000" d="M812.5,-399C828.0556,-399 823.0466,-375.4343 812.5,-364 745.2344,-291.073 434.7656,-400.927 367.5,-328 352.7535,-312.0124 344.5402,-281.7129 357.8176,-272.6346"/>
<polygon fill="#000000" stroke="#000000" points="358.7698,-276.0028 367.5,-270 356.9319,-269.2484 358.7698,-276.0028"/>
</g>
<!-- fmap_wffmap_postproc_wf -->
<g id="node5" class="node">
<title>fmap_wffmap_postproc_wf</title>
<polygon fill="none" stroke="#000000" points="610,-129.5 610,-221.5 1103,-221.5 1103,-129.5 610,-129.5"/>
<text text-anchor="middle" x="697.5" y="-206.3" font-family="Times,serif" font-size="14.00" fill="#000000">IN</text>
<polyline fill="none" stroke="#000000" points="610,-198.5 785,-198.5 "/>
<text text-anchor="middle" x="697.5" y="-183.3" font-family="Times,serif" font-size="14.00" fill="#000000">inputnode.fmap</text>
<polyline fill="none" stroke="#000000" points="610,-175.5 785,-175.5 "/>
<text text-anchor="middle" x="697.5" y="-160.3" font-family="Times,serif" font-size="14.00" fill="#000000">inputnode.fmap_mask</text>
<polyline fill="none" stroke="#000000" points="610,-152.5 785,-152.5 "/>
<text text-anchor="middle" x="697.5" y="-137.3" font-family="Times,serif" font-size="14.00" fill="#000000">inputnode.fmap_ref</text>
<polyline fill="none" stroke="#000000" points="785,-129.5 785,-221.5 "/>
<text text-anchor="middle" x="859" y="-202.8" font-family="Times,serif" font-size="14.00" fill="#000000">fmap_postproc_wf</text>
<polyline fill="none" stroke="#000000" points="785,-191.5 933,-191.5 "/>
<text text-anchor="middle" x="859" y="-172.3" font-family="Times,serif" font-size="14.00" fill="#000000"> </text>
<polyline fill="none" stroke="#000000" points="785,-160.5 933,-160.5 "/>
<text text-anchor="middle" x="859" y="-141.3" font-family="Times,serif" font-size="14.00" fill="#000000"> </text>
<polyline fill="none" stroke="#000000" points="933,-129.5 933,-221.5 "/>
<text text-anchor="middle" x="1018" y="-194.8" font-family="Times,serif" font-size="14.00" fill="#000000">OUT</text>
<polyline fill="none" stroke="#000000" points="933,-175.5 1103,-175.5 "/>
<text text-anchor="middle" x="1018" y="-148.8" font-family="Times,serif" font-size="14.00" fill="#000000">outputnode.out_fmap</text>
</g>
<!-- fmap_wfmagnitude_wf&#45;&gt;fmap_wffmap_postproc_wf -->
<g id="edge7" class="edge">
<title>fmap_wfmagnitude_wf:e&#45;&gt;fmap_wffmap_postproc_wf:w</title>
<path fill="none" stroke="#000000" d="M812.5,-399C828.0556,-399 819.686,-377.7963 812.5,-364 787.0682,-315.1739 634.9318,-270.8261 609.5,-222 599.4597,-202.7237 588.0369,-174.7957 599.7469,-166.1506"/>
<polygon fill="#000000" stroke="#000000" points="600.768,-169.5002 609.5,-163.5 598.9321,-162.7452 600.768,-169.5002"/>
</g>
<!-- fmap_wfmagnitude_wf&#45;&gt;fmap_wffmap_postproc_wf -->
<g id="edge9" class="edge">
<title>fmap_wfmagnitude_wf:e&#45;&gt;fmap_wffmap_postproc_wf:w</title>
<path fill="none" stroke="#000000" d="M812.5,-376C825.7375,-376 861.8495,-349.7334 725.5,-258 680.7117,-227.8673 641.5178,-265.4608 609.5,-222 590.3655,-196.0269 576.5824,-151.6715 599.3856,-142.2795"/>
<polygon fill="#000000" stroke="#000000" points="600.2578,-145.6799 609.5,-140.5 599.0448,-138.7858 600.2578,-145.6799"/>
</g>
<!-- fmap_wfoutputnode -->
<g id="node6" class="node">
<title>fmap_wfoutputnode</title>
<polygon fill="none" stroke="#000000" points="1131.5,-.5 1131.5,-92.5 1377.5,-92.5 1377.5,-.5 1131.5,-.5"/>
<text text-anchor="middle" x="1180.5" y="-77.3" font-family="Times,serif" font-size="14.00" fill="#000000">IN</text>
<polyline fill="none" stroke="#000000" points="1131.5,-69.5 1229.5,-69.5 "/>
<text text-anchor="middle" x="1180.5" y="-54.3" font-family="Times,serif" font-size="14.00" fill="#000000">fmap</text>
<polyline fill="none" stroke="#000000" points="1131.5,-46.5 1229.5,-46.5 "/>
<text text-anchor="middle" x="1180.5" y="-31.3" font-family="Times,serif" font-size="14.00" fill="#000000">fmap_mask</text>
<polyline fill="none" stroke="#000000" points="1131.5,-23.5 1229.5,-23.5 "/>
<text text-anchor="middle" x="1180.5" y="-8.3" font-family="Times,serif" font-size="14.00" fill="#000000">fmap_ref</text>
<polyline fill="none" stroke="#000000" points="1229.5,-.5 1229.5,-92.5 "/>
<text text-anchor="middle" x="1278.5" y="-73.8" font-family="Times,serif" font-size="14.00" fill="#000000">outputnode</text>
<polyline fill="none" stroke="#000000" points="1229.5,-62.5 1327.5,-62.5 "/>
<text text-anchor="middle" x="1278.5" y="-43.3" font-family="Times,serif" font-size="14.00" fill="#000000">utility</text>
<polyline fill="none" stroke="#000000" points="1229.5,-31.5 1327.5,-31.5 "/>
<text text-anchor="middle" x="1278.5" y="-12.3" font-family="Times,serif" font-size="14.00" fill="#000000"> </text>
<polyline fill="none" stroke="#000000" points="1327.5,-.5 1327.5,-92.5 "/>
<text text-anchor="middle" x="1352.5" y="-42.8" font-family="Times,serif" font-size="14.00" fill="#000000">OUT</text>
</g>
<!-- fmap_wfmagnitude_wf&#45;&gt;fmap_wfoutputnode -->
<g id="edge8" class="edge">
<title>fmap_wfmagnitude_wf:e&#45;&gt;fmap_wfoutputnode:w</title>
<path fill="none" stroke="#000000" d="M812.5,-399C966.9277,-399 1027.9992,-351.9058 1111.5,-222 1154.7792,-154.6686 1057.1861,-44.918 1121.3423,-35.1935"/>
<polygon fill="#000000" stroke="#000000" points="1121.7617,-38.6731 1131.5,-34.5 1121.2848,-31.6894 1121.7617,-38.6731"/>
</g>
<!-- fmap_wfmagnitude_wf&#45;&gt;fmap_wfoutputnode -->
<g id="edge10" class="edge">
<title>fmap_wfmagnitude_wf:e&#45;&gt;fmap_wfoutputnode:w</title>
<path fill="none" stroke="#000000" d="M812.5,-376C871.2541,-376 1024.7746,-362.2686 1072.5,-328 1116.2964,-296.5526 1117.9545,-274.1879 1131.5,-222 1131.5,-222 1131.5,-63.701 1131.5,-21.6529"/>
<polygon fill="#000000" stroke="#000000" points="1135.0001,-21.5 1131.5,-11.5 1128.0001,-21.5 1135.0001,-21.5"/>
</g>
<!-- fmap_wfapplymsk&#45;&gt;fmap_wffmap_postproc_wf -->
<g id="edge1" class="edge">
<title>fmap_wfapplymsk:e&#45;&gt;fmap_wffmap_postproc_wf:w</title>
<path fill="none" stroke="#000000" d="M609.5,-276C643.9167,-276 587.9896,-208.2422 599.8203,-191.3027"/>
<polygon fill="#000000" stroke="#000000" points="601.4723,-194.4142 609.5,-187.5 598.9127,-187.899 601.4723,-194.4142"/>
</g>
<!-- fmap_wffmap_postproc_wf&#45;&gt;fmap_wfoutputnode -->
<g id="edge2" class="edge">
<title>fmap_wffmap_postproc_wf:e&#45;&gt;fmap_wfoutputnode:w</title>
<path fill="none" stroke="#000000" d="M1103.5,-152.5C1121.8052,-152.5 1113.7393,-86.1983 1123.5976,-64.961"/>
<polygon fill="#000000" stroke="#000000" points="1125.9736,-67.5393 1131.5,-58.5 1121.5428,-62.1201 1125.9736,-67.5393"/>
</g>
</g>
</svg>
