<?xml version="1.0" encoding="UTF-8" standalone="no"?>
<!DOCTYPE svg PUBLIC "-//W3C//DTD SVG 1.1//EN"
 "http://www.w3.org/Graphics/SVG/1.1/DTD/svg11.dtd">
<!-- Generated by graphviz version 2.40.1 (20161225.0304)
 -->
<!-- Title: structs Pages: 1 -->
<svg width="1266pt" height="912pt"
 viewBox="0.00 0.00 1265.78 912.00" xmlns="http://www.w3.org/2000/svg" xmlns:xlink="http://www.w3.org/1999/xlink">
<g id="graph0" class="graph" transform="scale(1 1) rotate(0) translate(4 908)">
<title>structs</title>
<polygon fill="#ffffff" stroke="transparent" points="-4,4 -4,-908 1261.7786,-908 1261.7786,4 -4,4"/>
<!-- phdiff_wfinputnode -->
<g id="node1" class="node">
<title>phdiff_wfinputnode</title>
<polygon fill="none" stroke="#000000" points="39.2786,-834.5 39.2786,-903.5 256.2786,-903.5 256.2786,-834.5 39.2786,-834.5"/>
<text text-anchor="middle" x="56.7786" y="-865.3" font-family="Times,serif" font-size="14.00" fill="#000000">IN</text>
<polyline fill="none" stroke="#000000" points="74.2786,-834.5 74.2786,-903.5 "/>
<text text-anchor="middle" x="118.7786" y="-888.3" font-family="Times,serif" font-size="14.00" fill="#000000">inputnode</text>
<polyline fill="none" stroke="#000000" points="74.2786,-880.5 163.2786,-880.5 "/>
<text text-anchor="middle" x="118.7786" y="-865.3" font-family="Times,serif" font-size="14.00" fill="#000000">utility</text>
<polyline fill="none" stroke="#000000" points="74.2786,-857.5 163.2786,-857.5 "/>
<text text-anchor="middle" x="118.7786" y="-842.3" font-family="Times,serif" font-size="14.00" fill="#000000"> </text>
<polyline fill="none" stroke="#000000" points="163.2786,-834.5 163.2786,-903.5 "/>
<text text-anchor="middle" x="209.7786" y="-888.3" font-family="Times,serif" font-size="14.00" fill="#000000">OUT</text>
<polyline fill="none" stroke="#000000" points="163.2786,-880.5 256.2786,-880.5 "/>
<text text-anchor="middle" x="209.7786" y="-865.3" font-family="Times,serif" font-size="14.00" fill="#000000">magnitude</text>
<polyline fill="none" stroke="#000000" points="163.2786,-857.5 256.2786,-857.5 "/>
<text text-anchor="middle" x="209.7786" y="-842.3" font-family="Times,serif" font-size="14.00" fill="#000000">phasediff</text>
</g>
<!-- phdiff_wfmagnitude_wf -->
<g id="node2" class="node">
<title>phdiff_wfmagnitude_wf</title>
<polygon fill="none" stroke="#000000" points="499.2786,-516.5 499.2786,-585.5 972.2786,-585.5 972.2786,-516.5 499.2786,-516.5"/>
<text text-anchor="middle" x="584.2786" y="-564.8" font-family="Times,serif" font-size="14.00" fill="#000000">IN</text>
<polyline fill="none" stroke="#000000" points="499.2786,-551.5 669.2786,-551.5 "/>
<text text-anchor="middle" x="584.2786" y="-530.3" font-family="Times,serif" font-size="14.00" fill="#000000">inputnode.magnitude</text>
<polyline fill="none" stroke="#000000" points="669.2786,-516.5 669.2786,-585.5 "/>
<text text-anchor="middle" x="728.2786" y="-570.3" font-family="Times,serif" font-size="14.00" fill="#000000">magnitude_wf</text>
<polyline fill="none" stroke="#000000" points="669.2786,-562.5 787.2786,-562.5 "/>
<text text-anchor="middle" x="728.2786" y="-547.3" font-family="Times,serif" font-size="14.00" fill="#000000"> </text>
<polyline fill="none" stroke="#000000" points="669.2786,-539.5 787.2786,-539.5 "/>
<text text-anchor="middle" x="728.2786" y="-524.3" font-family="Times,serif" font-size="14.00" fill="#000000"> </text>
<polyline fill="none" stroke="#000000" points="787.2786,-516.5 787.2786,-585.5 "/>
<text text-anchor="middle" x="879.7786" y="-570.3" font-family="Times,serif" font-size="14.00" fill="#000000">OUT</text>
<polyline fill="none" stroke="#000000" points="787.2786,-562.5 972.2786,-562.5 "/>
<text text-anchor="middle" x="879.7786" y="-547.3" font-family="Times,serif" font-size="14.00" fill="#000000">outputnode.fmap_mask</text>
<polyline fill="none" stroke="#000000" points="787.2786,-539.5 972.2786,-539.5 "/>
<text text-anchor="middle" x="879.7786" y="-524.3" font-family="Times,serif" font-size="14.00" fill="#000000">outputnode.fmap_ref</text>
</g>
<!-- phdiff_wfinputnode&#45;&gt;phdiff_wfmagnitude_wf -->
<g id="edge6" class="edge">
<title>phdiff_wfinputnode:e&#45;&gt;phdiff_wfmagnitude_wf:w</title>
<path fill="none" stroke="#000000" d="M256.7786,-869C383.315,-869 418.03,-802.4471 479.7786,-692 481.5987,-688.7444 490.7268,-578.5002 496.1901,-544.1284"/>
<polygon fill="#000000" stroke="#000000" points="499.6935,-544.5553 498.7786,-534 492.9114,-542.8219 499.6935,-544.5553"/>
</g>
<!-- phdiff_wfsplit -->
<g id="node3" class="node">
<title>phdiff_wfsplit</title>
<polygon fill="none" stroke="#000000" points="15.2786,-728.5 15.2786,-797.5 234.2786,-797.5 234.2786,-728.5 15.2786,-728.5"/>
<text text-anchor="middle" x="56.7786" y="-776.8" font-family="Times,serif" font-size="14.00" fill="#000000">IN</text>
<polyline fill="none" stroke="#000000" points="15.2786,-763.5 98.2786,-763.5 "/>
<text text-anchor="middle" x="56.7786" y="-742.3" font-family="Times,serif" font-size="14.00" fill="#000000">phasediff</text>
<polyline fill="none" stroke="#000000" points="98.2786,-728.5 98.2786,-797.5 "/>
<text text-anchor="middle" x="127.7786" y="-782.3" font-family="Times,serif" font-size="14.00" fill="#000000">split</text>
<polyline fill="none" stroke="#000000" points="98.2786,-774.5 157.2786,-774.5 "/>
<text text-anchor="middle" x="127.7786" y="-759.3" font-family="Times,serif" font-size="14.00" fill="#000000">utility</text>
<polyline fill="none" stroke="#000000" points="98.2786,-751.5 157.2786,-751.5 "/>
<text text-anchor="middle" x="127.7786" y="-736.3" font-family="Times,serif" font-size="14.00" fill="#000000"> </text>
<polyline fill="none" stroke="#000000" points="157.2786,-728.5 157.2786,-797.5 "/>
<text text-anchor="middle" x="195.7786" y="-782.3" font-family="Times,serif" font-size="14.00" fill="#000000">OUT</text>
<polyline fill="none" stroke="#000000" points="157.2786,-774.5 234.2786,-774.5 "/>
<text text-anchor="middle" x="195.7786" y="-759.3" font-family="Times,serif" font-size="14.00" fill="#000000">map_file</text>
<polyline fill="none" stroke="#000000" points="157.2786,-751.5 234.2786,-751.5 "/>
<text text-anchor="middle" x="195.7786" y="-736.3" font-family="Times,serif" font-size="14.00" fill="#000000">meta</text>
</g>
<!-- phdiff_wfinputnode&#45;&gt;phdiff_wfsplit -->
<g id="edge7" class="edge">
<title>phdiff_wfinputnode:e&#45;&gt;phdiff_wfsplit:w</title>
<path fill="none" stroke="#000000" d="M256.7786,-846C262.112,-846 260.2614,-838.0392 256.7786,-834 185.7703,-751.647 85.787,-880.353 14.7786,-798 2.3985,-783.642 -5.2222,-757.8486 5.1961,-749.0427"/>
<polygon fill="#000000" stroke="#000000" points="6.3068,-752.3623 14.7786,-746 4.1883,-745.6906 6.3068,-752.3623"/>
</g>
<!-- phdiff_wfprelude -->
<g id="node6" class="node">
<title>phdiff_wfprelude</title>
<polygon fill="none" stroke="#000000" points="515.7786,-387.5 515.7786,-479.5 885.7786,-479.5 885.7786,-387.5 515.7786,-387.5"/>
<text text-anchor="middle" x="577.2786" y="-464.3" font-family="Times,serif" font-size="14.00" fill="#000000">IN</text>
<polyline fill="none" stroke="#000000" points="515.7786,-456.5 638.7786,-456.5 "/>
<text text-anchor="middle" x="577.2786" y="-441.3" font-family="Times,serif" font-size="14.00" fill="#000000">magnitude_file</text>
<polyline fill="none" stroke="#000000" points="515.7786,-433.5 638.7786,-433.5 "/>
<text text-anchor="middle" x="577.2786" y="-418.3" font-family="Times,serif" font-size="14.00" fill="#000000">mask_file</text>
<polyline fill="none" stroke="#000000" points="515.7786,-410.5 638.7786,-410.5 "/>
<text text-anchor="middle" x="577.2786" y="-395.3" font-family="Times,serif" font-size="14.00" fill="#000000">phase_file</text>
<polyline fill="none" stroke="#000000" points="638.7786,-387.5 638.7786,-479.5 "/>
<text text-anchor="middle" x="674.2786" y="-460.8" font-family="Times,serif" font-size="14.00" fill="#000000">prelude</text>
<polyline fill="none" stroke="#000000" points="638.7786,-449.5 709.7786,-449.5 "/>
<text text-anchor="middle" x="674.2786" y="-430.3" font-family="Times,serif" font-size="14.00" fill="#000000">fsl</text>
<polyline fill="none" stroke="#000000" points="638.7786,-418.5 709.7786,-418.5 "/>
<text text-anchor="middle" x="674.2786" y="-399.3" font-family="Times,serif" font-size="14.00" fill="#000000"> </text>
<polyline fill="none" stroke="#000000" points="709.7786,-387.5 709.7786,-479.5 "/>
<text text-anchor="middle" x="797.7786" y="-452.8" font-family="Times,serif" font-size="14.00" fill="#000000">OUT</text>
<polyline fill="none" stroke="#000000" points="709.7786,-433.5 885.7786,-433.5 "/>
<text text-anchor="middle" x="797.7786" y="-406.8" font-family="Times,serif" font-size="14.00" fill="#000000">unwrapped_phase_file</text>
</g>
<!-- phdiff_wfmagnitude_wf&#45;&gt;phdiff_wfprelude -->
<g id="edge10" class="edge">
<title>phdiff_wfmagnitude_wf:e&#45;&gt;phdiff_wfprelude:w</title>
<path fill="none" stroke="#000000" d="M972.7786,-551C988.3342,-551 983.3373,-527.4232 972.7786,-516 903.6318,-441.1919 584.9255,-554.8081 515.7786,-480 500.888,-463.8903 492.6156,-433.3187 506.0116,-424.1584"/>
<polygon fill="#000000" stroke="#000000" points="507.0489,-427.5035 515.7786,-421.5 505.2104,-420.7492 507.0489,-427.5035"/>
</g>
<!-- phdiff_wfmagnitude_wf&#45;&gt;phdiff_wfprelude -->
<g id="edge13" class="edge">
<title>phdiff_wfmagnitude_wf:e&#45;&gt;phdiff_wfprelude:w</title>
<path fill="none" stroke="#000000" d="M972.7786,-528C978.112,-528 976.3988,-519.9165 972.7786,-516 903.6318,-441.1919 584.9255,-554.8081 515.7786,-480 508.4606,-472.0828 503.853,-458.2429 507.0923,-450.7232"/>
<polygon fill="#000000" stroke="#000000" points="509.0123,-453.6528 515.7786,-445.5 505.405,-447.6538 509.0123,-453.6528"/>
</g>
<!-- phdiff_wffmap_postproc_wf -->
<g id="node7" class="node">
<title>phdiff_wffmap_postproc_wf</title>
<polygon fill="none" stroke="#000000" points="488.2786,-235.5 488.2786,-350.5 981.2786,-350.5 981.2786,-235.5 488.2786,-235.5"/>
<text text-anchor="middle" x="575.7786" y="-335.3" font-family="Times,serif" font-size="14.00" fill="#000000">IN</text>
<polyline fill="none" stroke="#000000" points="488.2786,-327.5 663.2786,-327.5 "/>
<text text-anchor="middle" x="575.7786" y="-312.3" font-family="Times,serif" font-size="14.00" fill="#000000">inputnode.fmap</text>
<polyline fill="none" stroke="#000000" points="488.2786,-304.5 663.2786,-304.5 "/>
<text text-anchor="middle" x="575.7786" y="-289.3" font-family="Times,serif" font-size="14.00" fill="#000000">inputnode.fmap_mask</text>
<polyline fill="none" stroke="#000000" points="488.2786,-281.5 663.2786,-281.5 "/>
<text text-anchor="middle" x="575.7786" y="-266.3" font-family="Times,serif" font-size="14.00" fill="#000000">inputnode.fmap_ref</text>
<polyline fill="none" stroke="#000000" points="488.2786,-258.5 663.2786,-258.5 "/>
<text text-anchor="middle" x="575.7786" y="-243.3" font-family="Times,serif" font-size="14.00" fill="#000000">inputnode.metadata</text>
<polyline fill="none" stroke="#000000" points="663.2786,-235.5 663.2786,-350.5 "/>
<text text-anchor="middle" x="737.2786" y="-327.8" font-family="Times,serif" font-size="14.00" fill="#000000">fmap_postproc_wf</text>
<polyline fill="none" stroke="#000000" points="663.2786,-312.5 811.2786,-312.5 "/>
<text text-anchor="middle" x="737.2786" y="-289.8" font-family="Times,serif" font-size="14.00" fill="#000000"> </text>
<polyline fill="none" stroke="#000000" points="663.2786,-274.5 811.2786,-274.5 "/>
<text text-anchor="middle" x="737.2786" y="-251.3" font-family="Times,serif" font-size="14.00" fill="#000000"> </text>
<polyline fill="none" stroke="#000000" points="811.2786,-235.5 811.2786,-350.5 "/>
<text text-anchor="middle" x="896.2786" y="-327.8" font-family="Times,serif" font-size="14.00" fill="#000000">OUT</text>
<polyline fill="none" stroke="#000000" points="811.2786,-312.5 981.2786,-312.5 "/>
<text text-anchor="middle" x="896.2786" y="-289.8" font-family="Times,serif" font-size="14.00" fill="#000000">outputnode.metadata</text>
<polyline fill="none" stroke="#000000" points="811.2786,-274.5 981.2786,-274.5 "/>
<text text-anchor="middle" x="896.2786" y="-251.3" font-family="Times,serif" font-size="14.00" fill="#000000">outputnode.out_fmap</text>
</g>
<!-- phdiff_wfmagnitude_wf&#45;&gt;phdiff_wffmap_postproc_wf -->
<g id="edge8" class="edge">
<title>phdiff_wfmagnitude_wf:e&#45;&gt;phdiff_wffmap_postproc_wf:w</title>
<path fill="none" stroke="#000000" d="M972.7786,-551C994.4273,-551 1003.0109,-442.8568 933.7786,-387 856.3916,-324.5639 555.201,-424.0838 487.7786,-351 473.0307,-335.0137 464.8183,-304.7133 478.0962,-295.6347"/>
<polygon fill="#000000" stroke="#000000" points="479.0485,-299.0029 487.7786,-293 477.2105,-292.2485 479.0485,-299.0029"/>
</g>
<!-- phdiff_wfmagnitude_wf&#45;&gt;phdiff_wffmap_postproc_wf -->
<g id="edge11" class="edge">
<title>phdiff_wfmagnitude_wf:e&#45;&gt;phdiff_wffmap_postproc_wf:w</title>
<path fill="none" stroke="#000000" d="M972.7786,-528C978.112,-528 974.9177,-520.8856 972.7786,-516 963.3177,-494.3913 947.3158,-499.3181 933.7786,-480 908.0573,-443.2944 930.9693,-413.4409 894.7786,-387 821.4636,-333.436 549.0886,-417.9723 487.7786,-351 466.1288,-327.3507 454.4871,-281.5765 477.6318,-271.8463"/>
<polygon fill="#000000" stroke="#000000" points="478.5668,-275.2337 487.7786,-270 477.3136,-268.3468 478.5668,-275.2337"/>
</g>
<!-- phdiff_wfoutputnode -->
<g id="node9" class="node">
<title>phdiff_wfoutputnode</title>
<polygon fill="none" stroke="#000000" points="1011.7786,-.5 1011.7786,-92.5 1257.7786,-92.5 1257.7786,-.5 1011.7786,-.5"/>
<text text-anchor="middle" x="1060.7786" y="-77.3" font-family="Times,serif" font-size="14.00" fill="#000000">IN</text>
<polyline fill="none" stroke="#000000" points="1011.7786,-69.5 1109.7786,-69.5 "/>
<text text-anchor="middle" x="1060.7786" y="-54.3" font-family="Times,serif" font-size="14.00" fill="#000000">fmap</text>
<polyline fill="none" stroke="#000000" points="1011.7786,-46.5 1109.7786,-46.5 "/>
<text text-anchor="middle" x="1060.7786" y="-31.3" font-family="Times,serif" font-size="14.00" fill="#000000">fmap_mask</text>
<polyline fill="none" stroke="#000000" points="1011.7786,-23.5 1109.7786,-23.5 "/>
<text text-anchor="middle" x="1060.7786" y="-8.3" font-family="Times,serif" font-size="14.00" fill="#000000">fmap_ref</text>
<polyline fill="none" stroke="#000000" points="1109.7786,-.5 1109.7786,-92.5 "/>
<text text-anchor="middle" x="1158.7786" y="-73.8" font-family="Times,serif" font-size="14.00" fill="#000000">outputnode</text>
<polyline fill="none" stroke="#000000" points="1109.7786,-62.5 1207.7786,-62.5 "/>
<text text-anchor="middle" x="1158.7786" y="-43.3" font-family="Times,serif" font-size="14.00" fill="#000000">utility</text>
<polyline fill="none" stroke="#000000" points="1109.7786,-31.5 1207.7786,-31.5 "/>
<text text-anchor="middle" x="1158.7786" y="-12.3" font-family="Times,serif" font-size="14.00" fill="#000000"> </text>
<polyline fill="none" stroke="#000000" points="1207.7786,-.5 1207.7786,-92.5 "/>
<text text-anchor="middle" x="1232.7786" y="-42.8" font-family="Times,serif" font-size="14.00" fill="#000000">OUT</text>
</g>
<!-- phdiff_wfmagnitude_wf&#45;&gt;phdiff_wfoutputnode -->
<g id="edge9" class="edge">
<title>phdiff_wfmagnitude_wf:e&#45;&gt;phdiff_wfoutputnode:w</title>
<path fill="none" stroke="#000000" d="M972.7786,-551C1153.9484,-551 1093.8592,-491.9004 1025.7786,-129 1022.6132,-112.1271 1014.944,-109.8729 1011.7786,-93 1007.8461,-72.0376 992.8696,-46.1012 1001.9664,-37.4572"/>
<polygon fill="#000000" stroke="#000000" points="1003.214,-40.7368 1011.7786,-34.5 1001.194,-34.0345 1003.214,-40.7368"/>
</g>
<!-- phdiff_wfmagnitude_wf&#45;&gt;phdiff_wfoutputnode -->
<g id="edge12" class="edge">
<title>phdiff_wfmagnitude_wf:e&#45;&gt;phdiff_wfoutputnode:w</title>
<path fill="none" stroke="#000000" d="M972.7786,-528C1051.851,-528 984.3365,-429.8095 990.7786,-351 992.1649,-334.0417 992.7596,-72.3878 1006.6583,-20.4297"/>
<polygon fill="#000000" stroke="#000000" points="1009.8405,-21.9161 1011.7786,-11.5 1003.768,-18.434 1009.8405,-21.9161"/>
</g>
<!-- phdiff_wfphmap2rads -->
<g id="node4" class="node">
<title>phdiff_wfphmap2rads</title>
<polygon fill="none" stroke="#000000" points="234.7786,-622.5 234.7786,-691.5 470.7786,-691.5 470.7786,-622.5 234.7786,-622.5"/>
<text text-anchor="middle" x="264.7786" y="-670.8" font-family="Times,serif" font-size="14.00" fill="#000000">IN</text>
<polyline fill="none" stroke="#000000" points="234.7786,-657.5 294.7786,-657.5 "/>
<text text-anchor="middle" x="264.7786" y="-636.3" font-family="Times,serif" font-size="14.00" fill="#000000">in_file</text>
<polyline fill="none" stroke="#000000" points="294.7786,-622.5 294.7786,-691.5 "/>
<text text-anchor="middle" x="347.7786" y="-676.3" font-family="Times,serif" font-size="14.00" fill="#000000">phmap2rads</text>
<polyline fill="none" stroke="#000000" points="294.7786,-668.5 400.7786,-668.5 "/>
<text text-anchor="middle" x="347.7786" y="-653.3" font-family="Times,serif" font-size="14.00" fill="#000000">fmap</text>
<polyline fill="none" stroke="#000000" points="294.7786,-645.5 400.7786,-645.5 "/>
<text text-anchor="middle" x="347.7786" y="-630.3" font-family="Times,serif" font-size="14.00" fill="#000000"> </text>
<polyline fill="none" stroke="#000000" points="400.7786,-622.5 400.7786,-691.5 "/>
<text text-anchor="middle" x="435.7786" y="-670.8" font-family="Times,serif" font-size="14.00" fill="#000000">OUT</text>
<polyline fill="none" stroke="#000000" points="400.7786,-657.5 470.7786,-657.5 "/>
<text text-anchor="middle" x="435.7786" y="-636.3" font-family="Times,serif" font-size="14.00" fill="#000000">out_file</text>
</g>
<!-- phdiff_wfsplit&#45;&gt;phdiff_wfphmap2rads -->
<g id="edge16" class="edge">
<title>phdiff_wfsplit:e&#45;&gt;phdiff_wfphmap2rads:w</title>
<path fill="none" stroke="#000000" d="M234.7786,-763C258.1614,-763 221.5345,-672.9853 227.5707,-646.9654"/>
<polygon fill="#000000" stroke="#000000" points="230.0198,-649.466 234.7786,-640 225.1554,-644.4322 230.0198,-649.466"/>
</g>
<!-- phdiff_wfcalc_phdiff -->
<g id="node5" class="node">
<title>phdiff_wfcalc_phdiff</title>
<polygon fill="none" stroke="#000000" points="208.7786,-516.5 208.7786,-585.5 480.7786,-585.5 480.7786,-516.5 208.7786,-516.5"/>
<text text-anchor="middle" x="252.2786" y="-570.3" font-family="Times,serif" font-size="14.00" fill="#000000">IN</text>
<polyline fill="none" stroke="#000000" points="208.7786,-562.5 295.7786,-562.5 "/>
<text text-anchor="middle" x="252.2786" y="-547.3" font-family="Times,serif" font-size="14.00" fill="#000000">in_meta</text>
<polyline fill="none" stroke="#000000" points="208.7786,-539.5 295.7786,-539.5 "/>
<text text-anchor="middle" x="252.2786" y="-524.3" font-family="Times,serif" font-size="14.00" fill="#000000">in_phases</text>
<polyline fill="none" stroke="#000000" points="295.7786,-516.5 295.7786,-585.5 "/>
<text text-anchor="middle" x="343.2786" y="-570.3" font-family="Times,serif" font-size="14.00" fill="#000000">calc_phdiff</text>
<polyline fill="none" stroke="#000000" points="295.7786,-562.5 390.7786,-562.5 "/>
<text text-anchor="middle" x="343.2786" y="-547.3" font-family="Times,serif" font-size="14.00" fill="#000000">fmap</text>
<polyline fill="none" stroke="#000000" points="295.7786,-539.5 390.7786,-539.5 "/>
<text text-anchor="middle" x="343.2786" y="-524.3" font-family="Times,serif" font-size="14.00" fill="#000000"> </text>
<polyline fill="none" stroke="#000000" points="390.7786,-516.5 390.7786,-585.5 "/>
<text text-anchor="middle" x="435.7786" y="-570.3" font-family="Times,serif" font-size="14.00" fill="#000000">OUT</text>
<polyline fill="none" stroke="#000000" points="390.7786,-562.5 480.7786,-562.5 "/>
<text text-anchor="middle" x="435.7786" y="-547.3" font-family="Times,serif" font-size="14.00" fill="#000000">metadata</text>
<polyline fill="none" stroke="#000000" points="390.7786,-539.5 480.7786,-539.5 "/>
<text text-anchor="middle" x="435.7786" y="-524.3" font-family="Times,serif" font-size="14.00" fill="#000000">phase_diff</text>
</g>
<!-- phdiff_wfsplit&#45;&gt;phdiff_wfcalc_phdiff -->
<g id="edge17" class="edge">
<title>phdiff_wfsplit:e&#45;&gt;phdiff_wfcalc_phdiff:w</title>
<path fill="none" stroke="#000000" d="M234.7786,-740C242.2102,-740 235.466,-739.3032 225.7786,-692 213.8815,-633.907 153.6258,-560.5226 198.7083,-551.8492"/>
<polygon fill="#000000" stroke="#000000" points="199.1081,-555.328 208.7786,-551 198.5199,-548.3528 199.1081,-555.328"/>
</g>
<!-- phdiff_wfphmap2rads&#45;&gt;phdiff_wfcalc_phdiff -->
<g id="edge14" class="edge">
<title>phdiff_wfphmap2rads:e&#45;&gt;phdiff_wfcalc_phdiff:w</title>
<path fill="none" stroke="#000000" d="M470.7786,-640C478.7786,-640 476.0364,-628.0296 470.7786,-622 393.53,-533.4113 286.0272,-674.5887 208.7786,-586 194.6165,-569.7588 186.1184,-540.141 198.7691,-530.8597"/>
<polygon fill="#000000" stroke="#000000" points="200.1249,-534.1125 208.7786,-528 198.2018,-527.3818 200.1249,-534.1125"/>
</g>
<!-- phdiff_wfcalc_phdiff&#45;&gt;phdiff_wfprelude -->
<g id="edge2" class="edge">
<title>phdiff_wfcalc_phdiff:e&#45;&gt;phdiff_wfprelude:w</title>
<path fill="none" stroke="#000000" d="M480.7786,-528C492.1706,-528 495.6062,-490.9414 498.7786,-480 502.9244,-465.7014 499.4262,-421.6416 507.5415,-404.9761"/>
<polygon fill="#000000" stroke="#000000" points="510.0806,-407.4321 515.7786,-398.5 505.7541,-401.9292 510.0806,-407.4321"/>
</g>
<!-- phdiff_wfcalc_phdiff&#45;&gt;phdiff_wffmap_postproc_wf -->
<g id="edge1" class="edge">
<title>phdiff_wfcalc_phdiff:e&#45;&gt;phdiff_wffmap_postproc_wf:w</title>
<path fill="none" stroke="#000000" d="M480.7786,-551C495.8903,-551 476.0497,-307.7434 483.7886,-256.4315"/>
<polygon fill="#000000" stroke="#000000" points="487.1058,-257.5735 487.7786,-247 480.6589,-254.8461 487.1058,-257.5735"/>
</g>
<!-- phdiff_wfprelude&#45;&gt;phdiff_wffmap_postproc_wf -->
<g id="edge15" class="edge">
<title>phdiff_wfprelude:e&#45;&gt;phdiff_wffmap_postproc_wf:w</title>
<path fill="none" stroke="#000000" d="M885.7786,-410.5C896.2231,-410.5 892.8235,-394.7108 885.7786,-387 825.8788,-321.4376 547.6784,-416.5624 487.7786,-351 480.4012,-342.9252 475.7079,-328.9021 478.9787,-321.2876"/>
<polygon fill="#000000" stroke="#000000" points="481.0096,-324.1506 487.7786,-316 477.4043,-318.1504 481.0096,-324.1506"/>
</g>
<!-- phdiff_wfcompfmap -->
<g id="node8" class="node">
<title>phdiff_wfcompfmap</title>
<polygon fill="none" stroke="#000000" points="737.7786,-129.5 737.7786,-198.5 983.7786,-198.5 983.7786,-129.5 737.7786,-129.5"/>
<text text-anchor="middle" x="779.7786" y="-183.3" font-family="Times,serif" font-size="14.00" fill="#000000">IN</text>
<polyline fill="none" stroke="#000000" points="737.7786,-175.5 821.7786,-175.5 "/>
<text text-anchor="middle" x="779.7786" y="-160.3" font-family="Times,serif" font-size="14.00" fill="#000000">in_file</text>
<polyline fill="none" stroke="#000000" points="737.7786,-152.5 821.7786,-152.5 "/>
<text text-anchor="middle" x="779.7786" y="-137.3" font-family="Times,serif" font-size="14.00" fill="#000000">metadata</text>
<polyline fill="none" stroke="#000000" points="821.7786,-129.5 821.7786,-198.5 "/>
<text text-anchor="middle" x="867.7786" y="-183.3" font-family="Times,serif" font-size="14.00" fill="#000000">compfmap</text>
<polyline fill="none" stroke="#000000" points="821.7786,-175.5 913.7786,-175.5 "/>
<text text-anchor="middle" x="867.7786" y="-160.3" font-family="Times,serif" font-size="14.00" fill="#000000">fmap</text>
<polyline fill="none" stroke="#000000" points="821.7786,-152.5 913.7786,-152.5 "/>
<text text-anchor="middle" x="867.7786" y="-137.3" font-family="Times,serif" font-size="14.00" fill="#000000"> </text>
<polyline fill="none" stroke="#000000" points="913.7786,-129.5 913.7786,-198.5 "/>
<text text-anchor="middle" x="948.7786" y="-177.8" font-family="Times,serif" font-size="14.00" fill="#000000">OUT</text>
<polyline fill="none" stroke="#000000" points="913.7786,-164.5 983.7786,-164.5 "/>
<text text-anchor="middle" x="948.7786" y="-143.3" font-family="Times,serif" font-size="14.00" fill="#000000">out_file</text>
</g>
<!-- phdiff_wffmap_postproc_wf&#45;&gt;phdiff_wfcompfmap -->
<g id="edge4" class="edge">
<title>phdiff_wffmap_postproc_wf:e&#45;&gt;phdiff_wfcompfmap:w</title>
<path fill="none" stroke="#000000" d="M981.7786,-294C994.8897,-294 990.3463,-244.9245 981.7786,-235 910.1466,-152.0238 809.4107,-281.9762 737.7786,-199 723.6973,-182.6887 715.1449,-153.1179 727.7757,-143.8541"/>
<polygon fill="#000000" stroke="#000000" points="729.1227,-147.1095 737.7786,-141 727.2021,-140.3781 729.1227,-147.1095"/>
</g>
<!-- phdiff_wffmap_postproc_wf&#45;&gt;phdiff_wfcompfmap -->
<g id="edge5" class="edge">
<title>phdiff_wffmap_postproc_wf:e&#45;&gt;phdiff_wfcompfmap:w</title>
<path fill="none" stroke="#000000" d="M981.7786,-255C990.6675,-255 987.5872,-241.7285 981.7786,-235 910.1466,-152.0238 809.4107,-281.9762 737.7786,-199 730.6313,-190.7208 725.8445,-176.7808 729.0396,-169.2335"/>
<polygon fill="#000000" stroke="#000000" points="730.9977,-172.1406 737.7786,-164 727.4012,-166.1351 730.9977,-172.1406"/>
</g>
<!-- phdiff_wfcompfmap&#45;&gt;phdiff_wfoutputnode -->
<g id="edge3" class="edge">
<title>phdiff_wfcompfmap:e&#45;&gt;phdiff_wfoutputnode:w</title>
<path fill="none" stroke="#000000" d="M983.7786,-147C1001.0219,-147 994.5884,-85.157 1004.0628,-64.8647"/>
<polygon fill="#000000" stroke="#000000" points="1006.2916,-67.5633 1011.7786,-58.5 1001.8373,-62.1634 1006.2916,-67.5633"/>
</g>
</g>
</svg>
