<?xml version="1.0" encoding="UTF-8" standalone="no"?>
<!DOCTYPE svg PUBLIC "-//W3C//DTD SVG 1.1//EN"
 "http://www.w3.org/Graphics/SVG/1.1/DTD/svg11.dtd">
<!-- Generated by graphviz version 2.40.1 (20161225.0304)
 -->
<!-- Title: %3 Pages: 1 -->
<svg width="994pt" height="548pt"
 viewBox="0.00 0.00 994.00 548.00" xmlns="http://www.w3.org/2000/svg" xmlns:xlink="http://www.w3.org/1999/xlink">
<g id="graph0" class="graph" transform="scale(1 1) rotate(0) translate(4 544)">
<title>%3</title>
<polygon fill="#ffffff" stroke="transparent" points="-4,4 -4,-544 990,-544 990,4 -4,4"/>
<!-- inputnode (utility) -->
<g id="node1" class="node">
<title>inputnode (utility)</title>
<ellipse fill="none" stroke="#000000" cx="586" cy="-522" rx="94.7833" ry="18"/>
<text text-anchor="middle" x="586" y="-518.3" font-family="Times,serif" font-size="14.00" fill="#000000">inputnode (utility)</text>
</g>
<!-- fmap2ref_reg (registration) -->
<g id="node2" class="node">
<title>fmap2ref_reg (registration)</title>
<ellipse fill="none" stroke="#000000" cx="206" cy="-450" rx="138.3755" ry="18"/>
<text text-anchor="middle" x="206" y="-446.3" font-family="Times,serif" font-size="14.00" fill="#000000">fmap2ref_reg (registration)</text>
</g>
<!-- inputnode (utility)&#45;&gt;fmap2ref_reg (registration) -->
<g id="edge1" class="edge">
<title>inputnode (utility)&#45;&gt;fmap2ref_reg (registration)</title>
<path fill="none" stroke="#000000" d="M518.5015,-509.2108C455.9936,-497.3672 362.6484,-479.6807 294.2531,-466.7216"/>
<polygon fill="#000000" stroke="#000000" points="294.8265,-463.2681 284.3497,-464.8452 293.5233,-470.1457 294.8265,-463.2681"/>
</g>
<!-- fmap2ref_apply (registration) -->
<g id="node3" class="node">
<title>fmap2ref_apply (registration)</title>
<ellipse fill="none" stroke="#000000" cx="586" cy="-378" rx="148.3739" ry="18"/>
<text text-anchor="middle" x="586" y="-374.3" font-family="Times,serif" font-size="14.00" fill="#000000">fmap2ref_apply (registration)</text>
</g>
<!-- inputnode (utility)&#45;&gt;fmap2ref_apply (registration) -->
<g id="edge2" class="edge">
<title>inputnode (utility)&#45;&gt;fmap2ref_apply (registration)</title>
<path fill="none" stroke="#000000" d="M586,-503.7623C586,-479.201 586,-435.2474 586,-406.3541"/>
<polygon fill="#000000" stroke="#000000" points="589.5001,-406.0896 586,-396.0896 582.5001,-406.0897 589.5001,-406.0896"/>
</g>
<!-- fmap_mask2ref_apply (registration) -->
<g id="node4" class="node">
<title>fmap_mask2ref_apply (registration)</title>
<ellipse fill="none" stroke="#000000" cx="206" cy="-306" rx="178.1684" ry="18"/>
<text text-anchor="middle" x="206" y="-302.3" font-family="Times,serif" font-size="14.00" fill="#000000">fmap_mask2ref_apply (registration)</text>
</g>
<!-- inputnode (utility)&#45;&gt;fmap_mask2ref_apply (registration) -->
<g id="edge3" class="edge">
<title>inputnode (utility)&#45;&gt;fmap_mask2ref_apply (registration)</title>
<path fill="none" stroke="#000000" d="M516.4505,-509.7405C479.239,-501.3637 433.4898,-488.0672 396,-468 393.6996,-466.7687 287.3031,-375.6831 234.7548,-330.6515"/>
<polygon fill="#000000" stroke="#000000" points="236.9798,-327.9489 227.1092,-324.0989 232.4245,-333.264 236.9798,-327.9489"/>
</g>
<!-- get_ees (utility) -->
<g id="node5" class="node">
<title>get_ees (utility)</title>
<ellipse fill="none" stroke="#000000" cx="874" cy="-378" rx="83.6854" ry="18"/>
<text text-anchor="middle" x="874" y="-374.3" font-family="Times,serif" font-size="14.00" fill="#000000">get_ees (utility)</text>
</g>
<!-- inputnode (utility)&#45;&gt;get_ees (utility) -->
<g id="edge4" class="edge">
<title>inputnode (utility)&#45;&gt;get_ees (utility)</title>
<path fill="none" stroke="#000000" d="M657.2068,-509.9883C694.2541,-501.7492 739.3352,-488.5034 776,-468 805.9023,-451.2782 834.0499,-423.7241 852.4396,-403.5015"/>
<polygon fill="#000000" stroke="#000000" points="855.1916,-405.674 859.2283,-395.8783 849.964,-401.0186 855.1916,-405.674"/>
</g>
<!-- gen_vsm (fsl) -->
<g id="node6" class="node">
<title>gen_vsm (fsl)</title>
<ellipse fill="none" stroke="#000000" cx="671" cy="-234" rx="72.5877" ry="18"/>
<text text-anchor="middle" x="671" y="-230.3" font-family="Times,serif" font-size="14.00" fill="#000000">gen_vsm (fsl)</text>
</g>
<!-- inputnode (utility)&#45;&gt;gen_vsm (fsl) -->
<g id="edge5" class="edge">
<title>inputnode (utility)&#45;&gt;gen_vsm (fsl)</title>
<path fill="none" stroke="#000000" d="M621.9568,-505.2653C660.0481,-485.3077 718.0599,-447.9943 743,-396 765.947,-348.161 725.3392,-291.2897 696.3665,-259.2443"/>
<polygon fill="#000000" stroke="#000000" points="698.6734,-256.5858 689.2971,-251.6527 693.5506,-261.3562 698.6734,-256.5858"/>
</g>
<!-- vsm2dfm (fmap) -->
<g id="node7" class="node">
<title>vsm2dfm (fmap)</title>
<ellipse fill="none" stroke="#000000" cx="671" cy="-162" rx="87.1846" ry="18"/>
<text text-anchor="middle" x="671" y="-158.3" font-family="Times,serif" font-size="14.00" fill="#000000">vsm2dfm (fmap)</text>
</g>
<!-- inputnode (utility)&#45;&gt;vsm2dfm (fmap) -->
<g id="edge6" class="edge">
<title>inputnode (utility)&#45;&gt;vsm2dfm (fmap)</title>
<path fill="none" stroke="#000000" d="M660.7677,-510.7483C776.5422,-491.192 986,-446.3641 986,-378 986,-378 986,-378 986,-306 986,-251.8992 830.3668,-202.7071 737.8907,-178.2528"/>
<polygon fill="#000000" stroke="#000000" points="738.6042,-174.8218 728.0441,-175.6792 736.834,-181.5943 738.6042,-174.8218"/>
</g>
<!-- fmap_rpt (reportlets) -->
<g id="node8" class="node">
<title>fmap_rpt (reportlets)</title>
<ellipse fill="none" stroke="#000000" cx="353" cy="-90" rx="109.381" ry="18"/>
<text text-anchor="middle" x="353" y="-86.3" font-family="Times,serif" font-size="14.00" fill="#000000">fmap_rpt (reportlets)</text>
</g>
<!-- inputnode (utility)&#45;&gt;fmap_rpt (reportlets) -->
<g id="edge7" class="edge">
<title>inputnode (utility)&#45;&gt;fmap_rpt (reportlets)</title>
<path fill="none" stroke="#000000" d="M553.9914,-504.9183C518.019,-484.0396 460.5395,-445.3175 429,-396 413.8522,-372.3137 374.0674,-189.5553 358.9471,-118.3078"/>
<polygon fill="#000000" stroke="#000000" points="362.3141,-117.3127 356.8202,-108.2536 355.4657,-118.7615 362.3141,-117.3127"/>
</g>
<!-- fmap2ref_reg (registration)&#45;&gt;fmap2ref_apply (registration) -->
<g id="edge8" class="edge">
<title>fmap2ref_reg (registration)&#45;&gt;fmap2ref_apply (registration)</title>
<path fill="none" stroke="#000000" d="M284.7362,-435.0816C346.1259,-423.4498 431.4429,-407.2845 495.618,-395.125"/>
<polygon fill="#000000" stroke="#000000" points="496.5557,-398.5097 505.7293,-393.2092 495.2525,-391.6321 496.5557,-398.5097"/>
</g>
<!-- fmap2ref_reg (registration)&#45;&gt;fmap_mask2ref_apply (registration) -->
<g id="edge9" class="edge">
<title>fmap2ref_reg (registration)&#45;&gt;fmap_mask2ref_apply (registration)</title>
<path fill="none" stroke="#000000" d="M206,-431.7623C206,-407.201 206,-363.2474 206,-334.3541"/>
<polygon fill="#000000" stroke="#000000" points="209.5001,-334.0896 206,-324.0896 202.5001,-334.0897 209.5001,-334.0896"/>
</g>
<!-- fmap2ref_reg (registration)&#45;&gt;fmap_rpt (reportlets) -->
<g id="edge10" class="edge">
<title>fmap2ref_reg (registration)&#45;&gt;fmap_rpt (reportlets)</title>
<path fill="none" stroke="#000000" d="M141.3855,-434.0716C80.9725,-414.8548 0,-376.035 0,-306 0,-306 0,-306 0,-234 0,-175.4911 168.3619,-129.1159 272.54,-106.0207"/>
<polygon fill="#000000" stroke="#000000" points="273.3937,-109.4168 282.4136,-103.8587 271.8964,-102.5788 273.3937,-109.4168"/>
</g>
<!-- torads (fmap) -->
<g id="node9" class="node">
<title>torads (fmap)</title>
<ellipse fill="none" stroke="#000000" cx="613" cy="-306" rx="73.387" ry="18"/>
<text text-anchor="middle" x="613" y="-302.3" font-family="Times,serif" font-size="14.00" fill="#000000">torads (fmap)</text>
</g>
<!-- fmap2ref_apply (registration)&#45;&gt;torads (fmap) -->
<g id="edge11" class="edge">
<title>fmap2ref_apply (registration)&#45;&gt;torads (fmap)</title>
<path fill="none" stroke="#000000" d="M592.8132,-359.8314C595.7644,-351.9617 599.2858,-342.5712 602.555,-333.8533"/>
<polygon fill="#000000" stroke="#000000" points="605.8609,-335.0055 606.095,-324.4133 599.3066,-332.5476 605.8609,-335.0055"/>
</g>
<!-- fmap_mask2ref_apply (registration)&#45;&gt;gen_vsm (fsl) -->
<g id="edge12" class="edge">
<title>fmap_mask2ref_apply (registration)&#45;&gt;gen_vsm (fsl)</title>
<path fill="none" stroke="#000000" d="M303.4792,-290.9064C391.8446,-277.2241 520.031,-257.3759 599.313,-245.0999"/>
<polygon fill="#000000" stroke="#000000" points="599.8636,-248.5565 609.2103,-243.5674 598.7925,-241.6389 599.8636,-248.5565"/>
</g>
<!-- fmap_mask2ref_apply (registration)&#45;&gt;fmap_rpt (reportlets) -->
<g id="edge13" class="edge">
<title>fmap_mask2ref_apply (registration)&#45;&gt;fmap_rpt (reportlets)</title>
<path fill="none" stroke="#000000" d="M218.2803,-287.9555C244.2214,-249.8379 304.6989,-160.973 335.0104,-116.4337"/>
<polygon fill="#000000" stroke="#000000" points="337.9185,-118.3814 340.6513,-108.1451 332.1315,-114.443 337.9185,-118.3814"/>
</g>
<!-- get_ees (utility)&#45;&gt;gen_vsm (fsl) -->
<g id="edge14" class="edge">
<title>get_ees (utility)&#45;&gt;gen_vsm (fsl)</title>
<path fill="none" stroke="#000000" d="M857.5057,-360.2328C838.938,-340.8876 807.2641,-309.8018 776,-288 757.5045,-275.1023 735.5173,-263.3185 716.4539,-254.0726"/>
<polygon fill="#000000" stroke="#000000" points="717.8921,-250.881 707.3585,-249.7438 714.8839,-257.2016 717.8921,-250.881"/>
</g>
<!-- gen_vsm (fsl)&#45;&gt;vsm2dfm (fmap) -->
<g id="edge15" class="edge">
<title>gen_vsm (fsl)&#45;&gt;vsm2dfm (fmap)</title>
<path fill="none" stroke="#000000" d="M671,-215.8314C671,-208.131 671,-198.9743 671,-190.4166"/>
<polygon fill="#000000" stroke="#000000" points="674.5001,-190.4132 671,-180.4133 667.5001,-190.4133 674.5001,-190.4132"/>
</g>
<!-- vsm2dfm (fmap)&#45;&gt;fmap_rpt (reportlets) -->
<g id="edge17" class="edge">
<title>vsm2dfm (fmap)&#45;&gt;fmap_rpt (reportlets)</title>
<path fill="none" stroke="#000000" d="M611.9319,-148.6261C559.8284,-136.8291 483.6483,-119.5807 427.3988,-106.845"/>
<polygon fill="#000000" stroke="#000000" points="428.018,-103.3967 417.4919,-104.602 426.4722,-110.2239 428.018,-103.3967"/>
</g>
<!-- outputnode (utility) -->
<g id="node10" class="node">
<title>outputnode (utility)</title>
<ellipse fill="none" stroke="#000000" cx="671" cy="-90" rx="101.2821" ry="18"/>
<text text-anchor="middle" x="671" y="-86.3" font-family="Times,serif" font-size="14.00" fill="#000000">outputnode (utility)</text>
</g>
<!-- vsm2dfm (fmap)&#45;&gt;outputnode (utility) -->
<g id="edge16" class="edge">
<title>vsm2dfm (fmap)&#45;&gt;outputnode (utility)</title>
<path fill="none" stroke="#000000" d="M671,-143.8314C671,-136.131 671,-126.9743 671,-118.4166"/>
<polygon fill="#000000" stroke="#000000" points="674.5001,-118.4132 671,-108.4133 667.5001,-118.4133 674.5001,-118.4132"/>
</g>
<!-- ds_report_fmap (bids) -->
<g id="node11" class="node">
<title>ds_report_fmap (bids)</title>
<ellipse fill="none" stroke="#000000" cx="353" cy="-18" rx="113.18" ry="18"/>
<text text-anchor="middle" x="353" y="-14.3" font-family="Times,serif" font-size="14.00" fill="#000000">ds_report_fmap (bids)</text>
</g>
<!-- fmap_rpt (reportlets)&#45;&gt;ds_report_fmap (bids) -->
<g id="edge18" class="edge">
<title>fmap_rpt (reportlets)&#45;&gt;ds_report_fmap (bids)</title>
<path fill="none" stroke="#000000" d="M353,-71.8314C353,-64.131 353,-54.9743 353,-46.4166"/>
<polygon fill="#000000" stroke="#000000" points="356.5001,-46.4132 353,-36.4133 349.5001,-46.4133 356.5001,-46.4132"/>
</g>
<!-- torads (fmap)&#45;&gt;gen_vsm (fsl) -->
<g id="edge19" class="edge">
<title>torads (fmap)&#45;&gt;gen_vsm (fsl)</title>
<path fill="none" stroke="#000000" d="M627.3371,-288.2022C634.2386,-279.6348 642.6437,-269.2009 650.2296,-259.7839"/>
<polygon fill="#000000" stroke="#000000" points="653.0792,-261.8258 656.6268,-251.8425 647.6279,-257.4344 653.0792,-261.8258"/>
</g>
</g>
</svg>
