<?xml version="1.0" encoding="UTF-8" standalone="no"?>
<!DOCTYPE svg PUBLIC "-//W3C//DTD SVG 1.1//EN"
 "http://www.w3.org/Graphics/SVG/1.1/DTD/svg11.dtd">
<!-- Generated by graphviz version 2.40.1 (20161225.0304)
 -->
<!-- Title: %3 Pages: 1 -->
<svg width="398pt" height="404pt"
 viewBox="0.00 0.00 397.58 404.00" xmlns="http://www.w3.org/2000/svg" xmlns:xlink="http://www.w3.org/1999/xlink">
<g id="graph0" class="graph" transform="scale(1 1) rotate(0) translate(4 400)">
<title>%3</title>
<polygon fill="#ffffff" stroke="transparent" points="-4,4 -4,-400 393.5812,-400 393.5812,4 -4,4"/>
<!-- inputnode (utility) -->
<g id="node1" class="node">
<title>inputnode (utility)</title>
<ellipse fill="none" stroke="#000000" cx="115.8881" cy="-378" rx="94.7833" ry="18"/>
<text text-anchor="middle" x="115.8881" y="-374.3" font-family="Times,serif" font-size="14.00" fill="#000000">inputnode (utility)</text>
</g>
<!-- compfmap (fmap) -->
<g id="node2" class="node">
<title>compfmap (fmap)</title>
<ellipse fill="none" stroke="#000000" cx="183.8881" cy="-90" rx="92.8835" ry="18"/>
<text text-anchor="middle" x="183.8881" y="-86.3" font-family="Times,serif" font-size="14.00" fill="#000000">compfmap (fmap)</text>
</g>
<!-- inputnode (utility)&#45;&gt;compfmap (fmap) -->
<g id="edge1" class="edge">
<title>inputnode (utility)&#45;&gt;compfmap (fmap)</title>
<path fill="none" stroke="#000000" d="M58.0459,-363.7121C37.6394,-355.5887 16.8218,-343.0766 4.8881,-324 -3.5975,-310.4355 1.126,-303.5514 4.8881,-288 21.8068,-218.0612 28.0154,-194.8886 78.8881,-144 93.1422,-129.7414 111.9425,-118.4682 129.6916,-109.9911"/>
<polygon fill="#000000" stroke="#000000" points="131.2039,-113.1483 138.8478,-105.812 128.2973,-106.7802 131.2039,-113.1483"/>
</g>
<!-- magnitude_wf -->
<g id="node3" class="node">
<title>magnitude_wf</title>
<ellipse fill="none" stroke="#000000" cx="312.8881" cy="-306" rx="76.8869" ry="18"/>
<text text-anchor="middle" x="312.8881" y="-302.3" font-family="Times,serif" font-size="14.00" fill="#000000">magnitude_wf</text>
</g>
<!-- inputnode (utility)&#45;&gt;magnitude_wf -->
<g id="edge2" class="edge">
<title>inputnode (utility)&#45;&gt;magnitude_wf</title>
<path fill="none" stroke="#000000" d="M159.6087,-362.0209C189.8108,-350.9826 230.0876,-336.2621 261.775,-324.6809"/>
<polygon fill="#000000" stroke="#000000" points="263.1217,-327.9152 271.3126,-321.1951 260.7187,-321.3406 263.1217,-327.9152"/>
</g>
<!-- phmap2rads (fmap) -->
<g id="node4" class="node">
<title>phmap2rads (fmap)</title>
<ellipse fill="none" stroke="#000000" cx="115.8881" cy="-306" rx="102.0819" ry="18"/>
<text text-anchor="middle" x="115.8881" y="-302.3" font-family="Times,serif" font-size="14.00" fill="#000000">phmap2rads (fmap)</text>
</g>
<!-- inputnode (utility)&#45;&gt;phmap2rads (fmap) -->
<g id="edge3" class="edge">
<title>inputnode (utility)&#45;&gt;phmap2rads (fmap)</title>
<path fill="none" stroke="#000000" d="M115.8881,-359.8314C115.8881,-352.131 115.8881,-342.9743 115.8881,-334.4166"/>
<polygon fill="#000000" stroke="#000000" points="119.3882,-334.4132 115.8881,-324.4133 112.3882,-334.4133 119.3882,-334.4132"/>
</g>
<!-- outputnode (utility) -->
<g id="node5" class="node">
<title>outputnode (utility)</title>
<ellipse fill="none" stroke="#000000" cx="247.8881" cy="-18" rx="101.2821" ry="18"/>
<text text-anchor="middle" x="247.8881" y="-14.3" font-family="Times,serif" font-size="14.00" fill="#000000">outputnode (utility)</text>
</g>
<!-- compfmap (fmap)&#45;&gt;outputnode (utility) -->
<g id="edge4" class="edge">
<title>compfmap (fmap)&#45;&gt;outputnode (utility)</title>
<path fill="none" stroke="#000000" d="M199.7083,-72.2022C207.4007,-63.5483 216.7859,-52.99 225.2224,-43.4988"/>
<polygon fill="#000000" stroke="#000000" points="228.0003,-45.6419 232.028,-35.8425 222.7684,-40.9914 228.0003,-45.6419"/>
</g>
<!-- magnitude_wf&#45;&gt;outputnode (utility) -->
<g id="edge7" class="edge">
<title>magnitude_wf&#45;&gt;outputnode (utility)</title>
<path fill="none" stroke="#000000" d="M313.7679,-287.9775C315.1075,-247.761 314.9366,-148.238 285.8881,-72 282.1922,-62.3003 276.3569,-52.7066 270.358,-44.3574"/>
<polygon fill="#000000" stroke="#000000" points="272.9647,-42.0027 264.13,-36.1548 267.3896,-46.2358 272.9647,-42.0027"/>
</g>
<!-- prelude (fsl) -->
<g id="node6" class="node">
<title>prelude (fsl)</title>
<ellipse fill="none" stroke="#000000" cx="178.8881" cy="-234" rx="67.6881" ry="18"/>
<text text-anchor="middle" x="178.8881" y="-230.3" font-family="Times,serif" font-size="14.00" fill="#000000">prelude (fsl)</text>
</g>
<!-- magnitude_wf&#45;&gt;prelude (fsl) -->
<g id="edge5" class="edge">
<title>magnitude_wf&#45;&gt;prelude (fsl)</title>
<path fill="none" stroke="#000000" d="M282.1457,-289.4817C263.116,-279.2568 238.502,-266.0314 218.079,-255.0578"/>
<polygon fill="#000000" stroke="#000000" points="219.4911,-251.8433 209.0255,-250.1933 216.1778,-258.0096 219.4911,-251.8433"/>
</g>
<!-- fmap_postproc_wf -->
<g id="node7" class="node">
<title>fmap_postproc_wf</title>
<ellipse fill="none" stroke="#000000" cx="183.8881" cy="-162" rx="96.3833" ry="18"/>
<text text-anchor="middle" x="183.8881" y="-158.3" font-family="Times,serif" font-size="14.00" fill="#000000">fmap_postproc_wf</text>
</g>
<!-- magnitude_wf&#45;&gt;fmap_postproc_wf -->
<g id="edge6" class="edge">
<title>magnitude_wf&#45;&gt;fmap_postproc_wf</title>
<path fill="none" stroke="#000000" d="M304.0701,-288.1152C294.0763,-268.948 276.473,-238.2775 255.8881,-216 245.3768,-204.6245 232.2107,-193.9622 220.0217,-185.1663"/>
<polygon fill="#000000" stroke="#000000" points="221.9808,-182.2653 211.7838,-179.3891 217.9616,-187.9965 221.9808,-182.2653"/>
</g>
<!-- phmap2rads (fmap)&#45;&gt;prelude (fsl) -->
<g id="edge8" class="edge">
<title>phmap2rads (fmap)&#45;&gt;prelude (fsl)</title>
<path fill="none" stroke="#000000" d="M131.4611,-288.2022C139.0902,-279.4832 148.4109,-268.8311 156.7637,-259.2849"/>
<polygon fill="#000000" stroke="#000000" points="159.5431,-261.4236 163.4942,-251.593 154.275,-256.814 159.5431,-261.4236"/>
</g>
<!-- prelude (fsl)&#45;&gt;fmap_postproc_wf -->
<g id="edge9" class="edge">
<title>prelude (fsl)&#45;&gt;fmap_postproc_wf</title>
<path fill="none" stroke="#000000" d="M180.1498,-215.8314C180.6845,-208.131 181.3204,-198.9743 181.9147,-190.4166"/>
<polygon fill="#000000" stroke="#000000" points="185.4081,-190.6317 182.6094,-180.4133 178.4249,-190.1467 185.4081,-190.6317"/>
</g>
<!-- fmap_postproc_wf&#45;&gt;compfmap (fmap) -->
<g id="edge10" class="edge">
<title>fmap_postproc_wf&#45;&gt;compfmap (fmap)</title>
<path fill="none" stroke="#000000" d="M183.8881,-143.8314C183.8881,-136.131 183.8881,-126.9743 183.8881,-118.4166"/>
<polygon fill="#000000" stroke="#000000" points="187.3882,-118.4132 183.8881,-108.4133 180.3882,-118.4133 187.3882,-118.4132"/>
</g>
</g>
</svg>
