<?xml version="1.0" encoding="UTF-8" standalone="no"?>
<!DOCTYPE svg PUBLIC "-//W3C//DTD SVG 1.1//EN"
 "http://www.w3.org/Graphics/SVG/1.1/DTD/svg11.dtd">
<!-- Generated by graphviz version 2.40.1 (20161225.0304)
 -->
<!-- Title: %3 Pages: 1 -->
<svg width="372pt" height="332pt"
 viewBox="0.00 0.00 371.88 332.00" xmlns="http://www.w3.org/2000/svg" xmlns:xlink="http://www.w3.org/1999/xlink">
<g id="graph0" class="graph" transform="scale(1 1) rotate(0) translate(4 328)">
<title>%3</title>
<polygon fill="#ffffff" stroke="transparent" points="-4,4 -4,-328 367.8847,-328 367.8847,4 -4,4"/>
<!-- inputnode (utility) -->
<g id="node1" class="node">
<title>inputnode (utility)</title>
<ellipse fill="none" stroke="#000000" cx="171.6932" cy="-306" rx="94.7833" ry="18"/>
<text text-anchor="middle" x="171.6932" y="-302.3" font-family="Times,serif" font-size="14.00" fill="#000000">inputnode (utility)</text>
</g>
<!-- magnitude_wf -->
<g id="node2" class="node">
<title>magnitude_wf</title>
<ellipse fill="none" stroke="#000000" cx="76.6932" cy="-234" rx="76.8869" ry="18"/>
<text text-anchor="middle" x="76.6932" y="-230.3" font-family="Times,serif" font-size="14.00" fill="#000000">magnitude_wf</text>
</g>
<!-- inputnode (utility)&#45;&gt;magnitude_wf -->
<g id="edge1" class="edge">
<title>inputnode (utility)&#45;&gt;magnitude_wf</title>
<path fill="none" stroke="#000000" d="M148.21,-288.2022C136.0404,-278.9789 121.0166,-267.5925 107.8853,-257.6403"/>
<polygon fill="#000000" stroke="#000000" points="109.6622,-254.5954 99.5784,-251.3446 105.434,-260.1742 109.6622,-254.5954"/>
</g>
<!-- fmapmrg (images) -->
<g id="node3" class="node">
<title>fmapmrg (images)</title>
<ellipse fill="none" stroke="#000000" cx="267.6932" cy="-234" rx="96.3833" ry="18"/>
<text text-anchor="middle" x="267.6932" y="-230.3" font-family="Times,serif" font-size="14.00" fill="#000000">fmapmrg (images)</text>
</g>
<!-- inputnode (utility)&#45;&gt;fmapmrg (images) -->
<g id="edge2" class="edge">
<title>inputnode (utility)&#45;&gt;fmapmrg (images)</title>
<path fill="none" stroke="#000000" d="M195.4235,-288.2022C207.6302,-279.0473 222.6785,-267.761 235.8776,-257.8617"/>
<polygon fill="#000000" stroke="#000000" points="238.3358,-260.3931 244.2358,-251.593 234.1358,-254.7931 238.3358,-260.3931"/>
</g>
<!-- outputnode (utility) -->
<g id="node4" class="node">
<title>outputnode (utility)</title>
<ellipse fill="none" stroke="#000000" cx="119.6932" cy="-18" rx="101.2821" ry="18"/>
<text text-anchor="middle" x="119.6932" y="-14.3" font-family="Times,serif" font-size="14.00" fill="#000000">outputnode (utility)</text>
</g>
<!-- magnitude_wf&#45;&gt;outputnode (utility) -->
<g id="edge3" class="edge">
<title>magnitude_wf&#45;&gt;outputnode (utility)</title>
<path fill="none" stroke="#000000" d="M72.9113,-215.8581C67.339,-185.2044 59.3405,-121.6486 76.6932,-72 80.2889,-61.7121 86.756,-51.9193 93.6008,-43.568"/>
<polygon fill="#000000" stroke="#000000" points="96.2434,-45.863 100.1976,-36.0337 90.9768,-41.2517 96.2434,-45.863"/>
</g>
<!-- applymsk (fsl) -->
<g id="node5" class="node">
<title>applymsk (fsl)</title>
<ellipse fill="none" stroke="#000000" cx="200.6932" cy="-162" rx="76.8869" ry="18"/>
<text text-anchor="middle" x="200.6932" y="-158.3" font-family="Times,serif" font-size="14.00" fill="#000000">applymsk (fsl)</text>
</g>
<!-- magnitude_wf&#45;&gt;applymsk (fsl) -->
<g id="edge4" class="edge">
<title>magnitude_wf&#45;&gt;applymsk (fsl)</title>
<path fill="none" stroke="#000000" d="M105.453,-217.3008C122.5454,-207.3761 144.4232,-194.6729 162.8991,-183.945"/>
<polygon fill="#000000" stroke="#000000" points="164.7694,-186.9062 171.6599,-178.8581 161.2545,-180.8527 164.7694,-186.9062"/>
</g>
<!-- fmap_postproc_wf -->
<g id="node6" class="node">
<title>fmap_postproc_wf</title>
<ellipse fill="none" stroke="#000000" cx="181.6932" cy="-90" rx="96.3833" ry="18"/>
<text text-anchor="middle" x="181.6932" y="-86.3" font-family="Times,serif" font-size="14.00" fill="#000000">fmap_postproc_wf</text>
</g>
<!-- magnitude_wf&#45;&gt;fmap_postproc_wf -->
<g id="edge5" class="edge">
<title>magnitude_wf&#45;&gt;fmap_postproc_wf</title>
<path fill="none" stroke="#000000" d="M81.5055,-215.7372C87.1961,-196.5263 98.0511,-166.0757 114.6932,-144 123.293,-132.5924 134.8166,-122.1725 145.8797,-113.5942"/>
<polygon fill="#000000" stroke="#000000" points="148.2608,-116.1851 154.194,-107.4074 144.0819,-110.5693 148.2608,-116.1851"/>
</g>
<!-- fmapmrg (images)&#45;&gt;applymsk (fsl) -->
<g id="edge6" class="edge">
<title>fmapmrg (images)&#45;&gt;applymsk (fsl)</title>
<path fill="none" stroke="#000000" d="M251.1314,-216.2022C242.9367,-207.396 232.907,-196.6179 223.9561,-186.9989"/>
<polygon fill="#000000" stroke="#000000" points="226.4391,-184.5294 217.0645,-179.593 221.3146,-189.2981 226.4391,-184.5294"/>
</g>
<!-- applymsk (fsl)&#45;&gt;fmap_postproc_wf -->
<g id="edge7" class="edge">
<title>applymsk (fsl)&#45;&gt;fmap_postproc_wf</title>
<path fill="none" stroke="#000000" d="M195.8987,-143.8314C193.8443,-136.0463 191.3972,-126.7729 189.1176,-118.1347"/>
<polygon fill="#000000" stroke="#000000" points="192.488,-117.1892 186.5523,-108.4133 185.7197,-118.9753 192.488,-117.1892"/>
</g>
<!-- fmap_postproc_wf&#45;&gt;outputnode (utility) -->
<g id="edge8" class="edge">
<title>fmap_postproc_wf&#45;&gt;outputnode (utility)</title>
<path fill="none" stroke="#000000" d="M166.3673,-72.2022C158.9153,-63.5483 149.8234,-52.99 141.6505,-43.4988"/>
<polygon fill="#000000" stroke="#000000" points="144.2351,-41.1364 135.0576,-35.8425 138.9307,-45.7041 144.2351,-41.1364"/>
</g>
</g>
</svg>
