<?xml version="1.0" encoding="UTF-8" standalone="no"?>
<!DOCTYPE svg PUBLIC "-//W3C//DTD SVG 1.1//EN"
 "http://www.w3.org/Graphics/SVG/1.1/DTD/svg11.dtd">
<!-- Generated by graphviz version 2.40.1 (20161225.0304)
 -->
<!-- Title: %3 Pages: 1 -->
<svg width="262pt" height="332pt"
 viewBox="0.00 0.00 261.58 332.00" xmlns="http://www.w3.org/2000/svg" xmlns:xlink="http://www.w3.org/1999/xlink">
<g id="graph0" class="graph" transform="scale(1 1) rotate(0) translate(4 328)">
<title>%3</title>
<polygon fill="#ffffff" stroke="transparent" points="-4,4 -4,-328 257.5825,-328 257.5825,4 -4,4"/>
<!-- inputnode (utility) -->
<g id="node1" class="node">
<title>inputnode (utility)</title>
<ellipse fill="none" stroke="#000000" cx="114.3899" cy="-306" rx="94.7833" ry="18"/>
<text text-anchor="middle" x="114.3899" y="-302.3" font-family="Times,serif" font-size="14.00" fill="#000000">inputnode (utility)</text>
</g>
<!-- bold_rpt (registration) -->
<g id="node2" class="node">
<title>bold_rpt (registration)</title>
<ellipse fill="none" stroke="#000000" cx="114.3899" cy="-90" rx="114.2798" ry="18"/>
<text text-anchor="middle" x="114.3899" y="-86.3" font-family="Times,serif" font-size="14.00" fill="#000000">bold_rpt (registration)</text>
</g>
<!-- inputnode (utility)&#45;&gt;bold_rpt (registration) -->
<g id="edge1" class="edge">
<title>inputnode (utility)&#45;&gt;bold_rpt (registration)</title>
<path fill="none" stroke="#000000" d="M98.3994,-287.9169C90.736,-278.0371 82.3733,-265.1563 78.3899,-252 64.4802,-206.0596 64.4802,-189.9404 78.3899,-144 81.3463,-134.2355 86.7151,-124.6229 92.4198,-116.2762"/>
<polygon fill="#000000" stroke="#000000" points="95.3313,-118.2239 98.3994,-108.0831 89.677,-114.0973 95.3313,-118.2239"/>
</g>
<!-- map_seg (fixes) -->
<g id="node3" class="node">
<title>map_seg (fixes)</title>
<ellipse fill="none" stroke="#000000" cx="170.3899" cy="-234" rx="83.3857" ry="18"/>
<text text-anchor="middle" x="170.3899" y="-230.3" font-family="Times,serif" font-size="14.00" fill="#000000">map_seg (fixes)</text>
</g>
<!-- inputnode (utility)&#45;&gt;map_seg (fixes) -->
<g id="edge2" class="edge">
<title>inputnode (utility)&#45;&gt;map_seg (fixes)</title>
<path fill="none" stroke="#000000" d="M128.521,-287.8314C135.0702,-279.411 142.9736,-269.2495 150.1413,-260.0338"/>
<polygon fill="#000000" stroke="#000000" points="153.0805,-261.9558 156.4572,-251.9134 147.555,-257.6581 153.0805,-261.9558"/>
</g>
<!-- ds_report_sdc (bids) -->
<g id="node4" class="node">
<title>ds_report_sdc (bids)</title>
<ellipse fill="none" stroke="#000000" cx="114.3899" cy="-18" rx="105.8812" ry="18"/>
<text text-anchor="middle" x="114.3899" y="-14.3" font-family="Times,serif" font-size="14.00" fill="#000000">ds_report_sdc (bids)</text>
</g>
<!-- bold_rpt (registration)&#45;&gt;ds_report_sdc (bids) -->
<g id="edge3" class="edge">
<title>bold_rpt (registration)&#45;&gt;ds_report_sdc (bids)</title>
<path fill="none" stroke="#000000" d="M114.3899,-71.8314C114.3899,-64.131 114.3899,-54.9743 114.3899,-46.4166"/>
<polygon fill="#000000" stroke="#000000" points="117.89,-46.4132 114.3899,-36.4133 110.89,-46.4133 117.89,-46.4132"/>
</g>
<!-- sel_wm (utility) -->
<g id="node5" class="node">
<title>sel_wm (utility)</title>
<ellipse fill="none" stroke="#000000" cx="170.3899" cy="-162" rx="83.3857" ry="18"/>
<text text-anchor="middle" x="170.3899" y="-158.3" font-family="Times,serif" font-size="14.00" fill="#000000">sel_wm (utility)</text>
</g>
<!-- map_seg (fixes)&#45;&gt;sel_wm (utility) -->
<g id="edge4" class="edge">
<title>map_seg (fixes)&#45;&gt;sel_wm (utility)</title>
<path fill="none" stroke="#000000" d="M170.3899,-215.8314C170.3899,-208.131 170.3899,-198.9743 170.3899,-190.4166"/>
<polygon fill="#000000" stroke="#000000" points="173.89,-190.4132 170.3899,-180.4133 166.89,-190.4133 173.89,-190.4132"/>
</g>
<!-- sel_wm (utility)&#45;&gt;bold_rpt (registration) -->
<g id="edge5" class="edge">
<title>sel_wm (utility)&#45;&gt;bold_rpt (registration)</title>
<path fill="none" stroke="#000000" d="M156.5472,-144.2022C149.9337,-135.6992 141.8903,-125.3577 134.6093,-115.9965"/>
<polygon fill="#000000" stroke="#000000" points="137.3645,-113.8379 128.4623,-108.0931 131.839,-118.1355 137.3645,-113.8379"/>
</g>
</g>
</svg>
