<?xml version="1.0" encoding="UTF-8" standalone="no"?>
<!DOCTYPE svg PUBLIC "-//W3C//DTD SVG 1.1//EN"
 "http://www.w3.org/Graphics/SVG/1.1/DTD/svg11.dtd">
<!-- Generated by graphviz version 2.40.1 (20161225.0304)
 -->
<!-- Title: %3 Pages: 1 -->
<svg width="277pt" height="404pt"
 viewBox="0.00 0.00 277.30 404.00" xmlns="http://www.w3.org/2000/svg" xmlns:xlink="http://www.w3.org/1999/xlink">
<g id="graph0" class="graph" transform="scale(1 1) rotate(0) translate(4 400)">
<title>%3</title>
<polygon fill="#ffffff" stroke="transparent" points="-4,4 -4,-400 273.2962,-400 273.2962,4 -4,4"/>
<!-- inputnode (utility) -->
<g id="node1" class="node">
<title>inputnode (utility)</title>
<ellipse fill="none" stroke="#000000" cx="109.9052" cy="-378" rx="94.7833" ry="18"/>
<text text-anchor="middle" x="109.9052" y="-374.3" font-family="Times,serif" font-size="14.00" fill="#000000">inputnode (utility)</text>
</g>
<!-- cleanup_wf -->
<g id="node2" class="node">
<title>cleanup_wf</title>
<ellipse fill="none" stroke="#000000" cx="109.9052" cy="-90" rx="63.8893" ry="18"/>
<text text-anchor="middle" x="109.9052" y="-86.3" font-family="Times,serif" font-size="14.00" fill="#000000">cleanup_wf</text>
</g>
<!-- inputnode (utility)&#45;&gt;cleanup_wf -->
<g id="edge1" class="edge">
<title>inputnode (utility)&#45;&gt;cleanup_wf</title>
<path fill="none" stroke="#000000" d="M60.4525,-362.6005C42.1908,-354.2449 23.4048,-341.8621 12.9052,-324 4.7972,-310.2065 12.7386,-303.9991 12.9052,-288 13.5719,-223.9896 -16.737,-199.066 15.9052,-144 25.4603,-127.881 41.8011,-116.132 58.2043,-107.7921"/>
<polygon fill="#000000" stroke="#000000" points="59.7347,-110.9401 67.2809,-103.5034 56.7441,-104.611 59.7347,-110.9401"/>
</g>
<!-- recenter (utility) -->
<g id="node3" class="node">
<title>recenter (utility)</title>
<ellipse fill="none" stroke="#000000" cx="109.9052" cy="-306" rx="88.2844" ry="18"/>
<text text-anchor="middle" x="109.9052" y="-302.3" font-family="Times,serif" font-size="14.00" fill="#000000">recenter (utility)</text>
</g>
<!-- inputnode (utility)&#45;&gt;recenter (utility) -->
<g id="edge2" class="edge">
<title>inputnode (utility)&#45;&gt;recenter (utility)</title>
<path fill="none" stroke="#000000" d="M109.9052,-359.8314C109.9052,-352.131 109.9052,-342.9743 109.9052,-334.4166"/>
<polygon fill="#000000" stroke="#000000" points="113.4053,-334.4132 109.9052,-324.4133 106.4053,-334.4133 113.4053,-334.4132"/>
</g>
<!-- outputnode (utility) -->
<g id="node4" class="node">
<title>outputnode (utility)</title>
<ellipse fill="none" stroke="#000000" cx="167.9052" cy="-18" rx="101.2821" ry="18"/>
<text text-anchor="middle" x="167.9052" y="-14.3" font-family="Times,serif" font-size="14.00" fill="#000000">outputnode (utility)</text>
</g>
<!-- inputnode (utility)&#45;&gt;outputnode (utility) -->
<g id="edge3" class="edge">
<title>inputnode (utility)&#45;&gt;outputnode (utility)</title>
<path fill="none" stroke="#000000" d="M155.7893,-362.2243C174.2843,-353.6572 194.2071,-341.2182 206.9052,-324 231.1697,-291.098 225.9052,-274.8816 225.9052,-234 225.9052,-234 225.9052,-234 225.9052,-162 225.9052,-118.6562 203.016,-72.9417 185.9958,-44.9402"/>
<polygon fill="#000000" stroke="#000000" points="188.7654,-42.7684 180.4903,-36.1522 182.8333,-46.4847 188.7654,-42.7684"/>
</g>
<!-- cleanup_wf&#45;&gt;outputnode (utility) -->
<g id="edge4" class="edge">
<title>cleanup_wf&#45;&gt;outputnode (utility)</title>
<path fill="none" stroke="#000000" d="M124.2423,-72.2022C131.1438,-63.6348 139.5489,-53.2009 147.1348,-43.7839"/>
<polygon fill="#000000" stroke="#000000" points="149.9843,-45.8258 153.532,-35.8425 144.533,-41.4344 149.9843,-45.8258"/>
</g>
<!-- denoise (fsl) -->
<g id="node5" class="node">
<title>denoise (fsl)</title>
<ellipse fill="none" stroke="#000000" cx="109.9052" cy="-234" rx="67.6881" ry="18"/>
<text text-anchor="middle" x="109.9052" y="-230.3" font-family="Times,serif" font-size="14.00" fill="#000000">denoise (fsl)</text>
</g>
<!-- recenter (utility)&#45;&gt;denoise (fsl) -->
<g id="edge5" class="edge">
<title>recenter (utility)&#45;&gt;denoise (fsl)</title>
<path fill="none" stroke="#000000" d="M109.9052,-287.8314C109.9052,-280.131 109.9052,-270.9743 109.9052,-262.4166"/>
<polygon fill="#000000" stroke="#000000" points="113.4053,-262.4132 109.9052,-252.4133 106.4053,-262.4133 113.4053,-262.4132"/>
</g>
<!-- demean (utility) -->
<g id="node6" class="node">
<title>demean (utility)</title>
<ellipse fill="none" stroke="#000000" cx="109.9052" cy="-162" rx="85.2851" ry="18"/>
<text text-anchor="middle" x="109.9052" y="-158.3" font-family="Times,serif" font-size="14.00" fill="#000000">demean (utility)</text>
</g>
<!-- denoise (fsl)&#45;&gt;demean (utility) -->
<g id="edge6" class="edge">
<title>denoise (fsl)&#45;&gt;demean (utility)</title>
<path fill="none" stroke="#000000" d="M109.9052,-215.8314C109.9052,-208.131 109.9052,-198.9743 109.9052,-190.4166"/>
<polygon fill="#000000" stroke="#000000" points="113.4053,-190.4132 109.9052,-180.4133 106.4053,-190.4133 113.4053,-190.4132"/>
</g>
<!-- demean (utility)&#45;&gt;cleanup_wf -->
<g id="edge7" class="edge">
<title>demean (utility)&#45;&gt;cleanup_wf</title>
<path fill="none" stroke="#000000" d="M109.9052,-143.8314C109.9052,-136.131 109.9052,-126.9743 109.9052,-118.4166"/>
<polygon fill="#000000" stroke="#000000" points="113.4053,-118.4132 109.9052,-108.4133 106.4053,-118.4133 113.4053,-118.4132"/>
</g>
</g>
</svg>
