<?xml version="1.0" encoding="UTF-8" standalone="no"?>
<!DOCTYPE svg PUBLIC "-//W3C//DTD SVG 1.1//EN"
 "http://www.w3.org/Graphics/SVG/1.1/DTD/svg11.dtd">
<!-- Generated by graphviz version 2.40.1 (20161225.0304)
 -->
<!-- Title: structs Pages: 1 -->
<svg width="1878pt" height="1322pt"
 viewBox="0.00 0.00 1877.50 1322.00" xmlns="http://www.w3.org/2000/svg" xmlns:xlink="http://www.w3.org/1999/xlink">
<g id="graph0" class="graph" transform="scale(1 1) rotate(0) translate(4 1318)">
<title>structs</title>
<polygon fill="#ffffff" stroke="transparent" points="-4,4 -4,-1318 1873.5,-1318 1873.5,4 -4,4"/>
<!-- syn_sdc_wfinputnode -->
<g id="node1" class="node">
<title>syn_sdc_wfinputnode</title>
<polygon fill="none" stroke="#000000" points="0,-1175.5 0,-1313.5 276,-1313.5 276,-1175.5 0,-1175.5"/>
<text text-anchor="middle" x="17.5" y="-1240.8" font-family="Times,serif" font-size="14.00" fill="#000000">IN</text>
<polyline fill="none" stroke="#000000" points="35,-1175.5 35,-1313.5 "/>
<text text-anchor="middle" x="79.5" y="-1286.8" font-family="Times,serif" font-size="14.00" fill="#000000">inputnode</text>
<polyline fill="none" stroke="#000000" points="35,-1267.5 124,-1267.5 "/>
<text text-anchor="middle" x="79.5" y="-1240.8" font-family="Times,serif" font-size="14.00" fill="#000000">utility</text>
<polyline fill="none" stroke="#000000" points="35,-1221.5 124,-1221.5 "/>
<text text-anchor="middle" x="79.5" y="-1194.8" font-family="Times,serif" font-size="14.00" fill="#000000"> </text>
<polyline fill="none" stroke="#000000" points="124,-1175.5 124,-1313.5 "/>
<text text-anchor="middle" x="200" y="-1298.3" font-family="Times,serif" font-size="14.00" fill="#000000">OUT</text>
<polyline fill="none" stroke="#000000" points="124,-1290.5 276,-1290.5 "/>
<text text-anchor="middle" x="200" y="-1275.3" font-family="Times,serif" font-size="14.00" fill="#000000">in_reference</text>
<polyline fill="none" stroke="#000000" points="124,-1267.5 276,-1267.5 "/>
<text text-anchor="middle" x="200" y="-1252.3" font-family="Times,serif" font-size="14.00" fill="#000000">in_reference_brain</text>
<polyline fill="none" stroke="#000000" points="124,-1244.5 276,-1244.5 "/>
<text text-anchor="middle" x="200" y="-1229.3" font-family="Times,serif" font-size="14.00" fill="#000000">std2anat_xfm</text>
<polyline fill="none" stroke="#000000" points="124,-1221.5 276,-1221.5 "/>
<text text-anchor="middle" x="200" y="-1206.3" font-family="Times,serif" font-size="14.00" fill="#000000">t1w_brain</text>
<polyline fill="none" stroke="#000000" points="124,-1198.5 276,-1198.5 "/>
<text text-anchor="middle" x="200" y="-1183.3" font-family="Times,serif" font-size="14.00" fill="#000000">template</text>
</g>
<!-- syn_sdc_wfinvert_t1w -->
<g id="node2" class="node">
<title>syn_sdc_wfinvert_t1w</title>
<polygon fill="none" stroke="#000000" points="290.5,-1069.5 290.5,-1138.5 521.5,-1138.5 521.5,-1069.5 290.5,-1069.5"/>
<text text-anchor="middle" x="324" y="-1123.3" font-family="Times,serif" font-size="14.00" fill="#000000">IN</text>
<polyline fill="none" stroke="#000000" points="290.5,-1115.5 357.5,-1115.5 "/>
<text text-anchor="middle" x="324" y="-1100.3" font-family="Times,serif" font-size="14.00" fill="#000000">in_file</text>
<polyline fill="none" stroke="#000000" points="290.5,-1092.5 357.5,-1092.5 "/>
<text text-anchor="middle" x="324" y="-1077.3" font-family="Times,serif" font-size="14.00" fill="#000000">ref_file</text>
<polyline fill="none" stroke="#000000" points="357.5,-1069.5 357.5,-1138.5 "/>
<text text-anchor="middle" x="404.5" y="-1123.3" font-family="Times,serif" font-size="14.00" fill="#000000">invert_t1w</text>
<polyline fill="none" stroke="#000000" points="357.5,-1115.5 451.5,-1115.5 "/>
<text text-anchor="middle" x="404.5" y="-1100.3" font-family="Times,serif" font-size="14.00" fill="#000000">image</text>
<polyline fill="none" stroke="#000000" points="357.5,-1092.5 451.5,-1092.5 "/>
<text text-anchor="middle" x="404.5" y="-1077.3" font-family="Times,serif" font-size="14.00" fill="#000000"> </text>
<polyline fill="none" stroke="#000000" points="451.5,-1069.5 451.5,-1138.5 "/>
<text text-anchor="middle" x="486.5" y="-1117.8" font-family="Times,serif" font-size="14.00" fill="#000000">OUT</text>
<polyline fill="none" stroke="#000000" points="451.5,-1104.5 521.5,-1104.5 "/>
<text text-anchor="middle" x="486.5" y="-1083.3" font-family="Times,serif" font-size="14.00" fill="#000000">out_file</text>
</g>
<!-- syn_sdc_wfinputnode&#45;&gt;syn_sdc_wfinvert_t1w -->
<g id="edge4" class="edge">
<title>syn_sdc_wfinputnode:e&#45;&gt;syn_sdc_wfinvert_t1w:w</title>
<path fill="none" stroke="#000000" d="M276,-1279.5C295.3466,-1279.5 274.6272,-1127.5234 283.9572,-1089.5293"/>
<polygon fill="#000000" stroke="#000000" points="287.0749,-1091.1831 290,-1081 281.3631,-1087.1364 287.0749,-1091.1831"/>
</g>
<!-- syn_sdc_wfinputnode&#45;&gt;syn_sdc_wfinvert_t1w -->
<g id="edge11" class="edge">
<title>syn_sdc_wfinputnode:e&#45;&gt;syn_sdc_wfinvert_t1w:w</title>
<path fill="none" stroke="#000000" d="M276,-1209.5C295.9547,-1209.5 275.3659,-1134.3931 282.6507,-1110.9221"/>
<polygon fill="#000000" stroke="#000000" points="285.1203,-1113.4042 290,-1104 280.3208,-1108.3086 285.1203,-1113.4042"/>
</g>
<!-- syn_sdc_wfref_2_t1 -->
<g id="node3" class="node">
<title>syn_sdc_wfref_2_t1</title>
<polygon fill="none" stroke="#000000" points="252.5,-963.5 252.5,-1032.5 607.5,-1032.5 607.5,-963.5 252.5,-963.5"/>
<text text-anchor="middle" x="312.5" y="-1017.3" font-family="Times,serif" font-size="14.00" fill="#000000">IN</text>
<polyline fill="none" stroke="#000000" points="252.5,-1009.5 372.5,-1009.5 "/>
<text text-anchor="middle" x="312.5" y="-994.3" font-family="Times,serif" font-size="14.00" fill="#000000">fixed_image</text>
<polyline fill="none" stroke="#000000" points="252.5,-986.5 372.5,-986.5 "/>
<text text-anchor="middle" x="312.5" y="-971.3" font-family="Times,serif" font-size="14.00" fill="#000000">moving_image</text>
<polyline fill="none" stroke="#000000" points="372.5,-963.5 372.5,-1032.5 "/>
<text text-anchor="middle" x="410.5" y="-1017.3" font-family="Times,serif" font-size="14.00" fill="#000000">ref_2_t1</text>
<polyline fill="none" stroke="#000000" points="372.5,-1009.5 448.5,-1009.5 "/>
<text text-anchor="middle" x="410.5" y="-994.3" font-family="Times,serif" font-size="14.00" fill="#000000">fixes</text>
<polyline fill="none" stroke="#000000" points="372.5,-986.5 448.5,-986.5 "/>
<text text-anchor="middle" x="410.5" y="-971.3" font-family="Times,serif" font-size="14.00" fill="#000000"> </text>
<polyline fill="none" stroke="#000000" points="448.5,-963.5 448.5,-1032.5 "/>
<text text-anchor="middle" x="528" y="-1011.8" font-family="Times,serif" font-size="14.00" fill="#000000">OUT</text>
<polyline fill="none" stroke="#000000" points="448.5,-998.5 607.5,-998.5 "/>
<text text-anchor="middle" x="528" y="-977.3" font-family="Times,serif" font-size="14.00" fill="#000000">forward_transforms</text>
</g>
<!-- syn_sdc_wfinputnode&#45;&gt;syn_sdc_wfref_2_t1 -->
<g id="edge8" class="edge">
<title>syn_sdc_wfinputnode:e&#45;&gt;syn_sdc_wfref_2_t1:w</title>
<path fill="none" stroke="#000000" d="M276,-1256.5C301.3279,-1256.5 258.7189,-1113.0711 252,-1033 250.2487,-1012.1289 234.3259,-986.8843 242.243,-978.1513"/>
<polygon fill="#000000" stroke="#000000" points="243.5597,-981.4041 252,-975 241.4083,-974.7429 243.5597,-981.4041"/>
</g>
<!-- syn_sdc_wftransform_list -->
<g id="node4" class="node">
<title>syn_sdc_wftransform_list</title>
<polygon fill="none" stroke="#000000" points="205.5,-834.5 205.5,-926.5 412.5,-926.5 412.5,-834.5 205.5,-834.5"/>
<text text-anchor="middle" x="225" y="-911.3" font-family="Times,serif" font-size="14.00" fill="#000000">IN</text>
<polyline fill="none" stroke="#000000" points="205.5,-903.5 244.5,-903.5 "/>
<text text-anchor="middle" x="225" y="-888.3" font-family="Times,serif" font-size="14.00" fill="#000000">in1</text>
<polyline fill="none" stroke="#000000" points="205.5,-880.5 244.5,-880.5 "/>
<text text-anchor="middle" x="225" y="-865.3" font-family="Times,serif" font-size="14.00" fill="#000000">in2</text>
<polyline fill="none" stroke="#000000" points="205.5,-857.5 244.5,-857.5 "/>
<text text-anchor="middle" x="225" y="-842.3" font-family="Times,serif" font-size="14.00" fill="#000000">in3</text>
<polyline fill="none" stroke="#000000" points="244.5,-834.5 244.5,-926.5 "/>
<text text-anchor="middle" x="303.5" y="-907.8" font-family="Times,serif" font-size="14.00" fill="#000000">transform_list</text>
<polyline fill="none" stroke="#000000" points="244.5,-896.5 362.5,-896.5 "/>
<text text-anchor="middle" x="303.5" y="-877.3" font-family="Times,serif" font-size="14.00" fill="#000000">utility</text>
<polyline fill="none" stroke="#000000" points="244.5,-865.5 362.5,-865.5 "/>
<text text-anchor="middle" x="303.5" y="-846.3" font-family="Times,serif" font-size="14.00" fill="#000000"> </text>
<polyline fill="none" stroke="#000000" points="362.5,-834.5 362.5,-926.5 "/>
<text text-anchor="middle" x="387.5" y="-899.8" font-family="Times,serif" font-size="14.00" fill="#000000">OUT</text>
<polyline fill="none" stroke="#000000" points="362.5,-880.5 412.5,-880.5 "/>
<text text-anchor="middle" x="387.5" y="-853.8" font-family="Times,serif" font-size="14.00" fill="#000000">out</text>
</g>
<!-- syn_sdc_wfinputnode&#45;&gt;syn_sdc_wftransform_list -->
<g id="edge10" class="edge">
<title>syn_sdc_wfinputnode:e&#45;&gt;syn_sdc_wftransform_list:w</title>
<path fill="none" stroke="#000000" d="M276,-1232.5C301.5556,-1232.5 289.0452,-1196.9752 276,-1175 258.9437,-1146.268 227.3938,-1167.5289 210,-1139 180.5977,-1090.7752 148.9653,-894.4245 195.0913,-870.8245"/>
<polygon fill="#000000" stroke="#000000" points="196.0637,-874.1914 205,-868.5 194.4649,-867.3764 196.0637,-874.1914"/>
</g>
<!-- syn_sdc_wfinputnode&#45;&gt;syn_sdc_wftransform_list -->
<g id="edge12" class="edge">
<title>syn_sdc_wfinputnode:e&#45;&gt;syn_sdc_wftransform_list:w</title>
<path fill="none" stroke="#000000" d="M276,-1186.5C281.1111,-1186.5 277.4811,-1179.8918 276,-1175 270.4276,-1156.5955 259.543,-1156.6884 252,-1139 227.5576,-1081.6821 148.6221,-871.3134 195.2116,-847.6665"/>
<polygon fill="#000000" stroke="#000000" points="195.9927,-851.0784 205,-845.5 194.4799,-844.2438 195.9927,-851.0784"/>
</g>
<!-- syn_sdc_wfatlas_2_ref -->
<g id="node5" class="node">
<title>syn_sdc_wfatlas_2_ref</title>
<polygon fill="none" stroke="#000000" points="148.5,-728.5 148.5,-797.5 495.5,-797.5 495.5,-728.5 148.5,-728.5"/>
<text text-anchor="middle" x="217" y="-782.3" font-family="Times,serif" font-size="14.00" fill="#000000">IN</text>
<polyline fill="none" stroke="#000000" points="148.5,-774.5 285.5,-774.5 "/>
<text text-anchor="middle" x="217" y="-759.3" font-family="Times,serif" font-size="14.00" fill="#000000">reference_image</text>
<polyline fill="none" stroke="#000000" points="148.5,-751.5 285.5,-751.5 "/>
<text text-anchor="middle" x="217" y="-736.3" font-family="Times,serif" font-size="14.00" fill="#000000">transforms</text>
<polyline fill="none" stroke="#000000" points="285.5,-728.5 285.5,-797.5 "/>
<text text-anchor="middle" x="333" y="-782.3" font-family="Times,serif" font-size="14.00" fill="#000000">atlas_2_ref</text>
<polyline fill="none" stroke="#000000" points="285.5,-774.5 380.5,-774.5 "/>
<text text-anchor="middle" x="333" y="-759.3" font-family="Times,serif" font-size="14.00" fill="#000000">fixes</text>
<polyline fill="none" stroke="#000000" points="285.5,-751.5 380.5,-751.5 "/>
<text text-anchor="middle" x="333" y="-736.3" font-family="Times,serif" font-size="14.00" fill="#000000"> </text>
<polyline fill="none" stroke="#000000" points="380.5,-728.5 380.5,-797.5 "/>
<text text-anchor="middle" x="438" y="-776.8" font-family="Times,serif" font-size="14.00" fill="#000000">OUT</text>
<polyline fill="none" stroke="#000000" points="380.5,-763.5 495.5,-763.5 "/>
<text text-anchor="middle" x="438" y="-742.3" font-family="Times,serif" font-size="14.00" fill="#000000">output_image</text>
</g>
<!-- syn_sdc_wfinputnode&#45;&gt;syn_sdc_wfatlas_2_ref -->
<g id="edge3" class="edge">
<title>syn_sdc_wfinputnode:e&#45;&gt;syn_sdc_wfatlas_2_ref:w</title>
<path fill="none" stroke="#000000" d="M276,-1279.5C322.4444,-1279.5 302.2525,-1213.3131 276,-1175 250.9471,-1138.4377 210.3977,-1173.8397 183,-1139 127.463,-1068.3776 113.8627,-811.6418 139.8543,-769.0164"/>
<polygon fill="#000000" stroke="#000000" points="142.0356,-771.7565 148,-763 137.8767,-766.1258 142.0356,-771.7565"/>
</g>
<!-- syn_sdc_wft1_2_ref -->
<g id="node8" class="node">
<title>syn_sdc_wft1_2_ref</title>
<polygon fill="none" stroke="#000000" points="608,-834.5 608,-926.5 936,-926.5 936,-834.5 608,-834.5"/>
<text text-anchor="middle" x="676.5" y="-911.3" font-family="Times,serif" font-size="14.00" fill="#000000">IN</text>
<polyline fill="none" stroke="#000000" points="608,-903.5 745,-903.5 "/>
<text text-anchor="middle" x="676.5" y="-888.3" font-family="Times,serif" font-size="14.00" fill="#000000">input_image</text>
<polyline fill="none" stroke="#000000" points="608,-880.5 745,-880.5 "/>
<text text-anchor="middle" x="676.5" y="-865.3" font-family="Times,serif" font-size="14.00" fill="#000000">reference_image</text>
<polyline fill="none" stroke="#000000" points="608,-857.5 745,-857.5 "/>
<text text-anchor="middle" x="676.5" y="-842.3" font-family="Times,serif" font-size="14.00" fill="#000000">transforms</text>
<polyline fill="none" stroke="#000000" points="745,-834.5 745,-926.5 "/>
<text text-anchor="middle" x="783" y="-907.8" font-family="Times,serif" font-size="14.00" fill="#000000">t1_2_ref</text>
<polyline fill="none" stroke="#000000" points="745,-896.5 821,-896.5 "/>
<text text-anchor="middle" x="783" y="-877.3" font-family="Times,serif" font-size="14.00" fill="#000000">fixes</text>
<polyline fill="none" stroke="#000000" points="745,-865.5 821,-865.5 "/>
<text text-anchor="middle" x="783" y="-846.3" font-family="Times,serif" font-size="14.00" fill="#000000"> </text>
<polyline fill="none" stroke="#000000" points="821,-834.5 821,-926.5 "/>
<text text-anchor="middle" x="878.5" y="-899.8" font-family="Times,serif" font-size="14.00" fill="#000000">OUT</text>
<polyline fill="none" stroke="#000000" points="821,-880.5 936,-880.5 "/>
<text text-anchor="middle" x="878.5" y="-853.8" font-family="Times,serif" font-size="14.00" fill="#000000">output_image</text>
</g>
<!-- syn_sdc_wfinputnode&#45;&gt;syn_sdc_wft1_2_ref -->
<g id="edge5" class="edge">
<title>syn_sdc_wfinputnode:e&#45;&gt;syn_sdc_wft1_2_ref:w</title>
<path fill="none" stroke="#000000" d="M276,-1279.5C469.5469,-1279.5 561.7851,-1212.1647 635,-1033 646.7687,-1004.2007 644.8382,-992.5146 635,-963 628.6754,-944.0263 614.3246,-945.9737 608,-927 601.1912,-906.5737 587.8289,-879.8597 598.2027,-871.2802"/>
<polygon fill="#000000" stroke="#000000" points="599.3353,-874.597 608,-868.5 597.4243,-867.8629 599.3353,-874.597"/>
</g>
<!-- syn_sdc_wfsyn -->
<g id="node9" class="node">
<title>syn_sdc_wfsyn</title>
<polygon fill="none" stroke="#000000" points="571.5,-387.5 571.5,-479.5 936.5,-479.5 936.5,-387.5 571.5,-387.5"/>
<text text-anchor="middle" x="649.5" y="-464.3" font-family="Times,serif" font-size="14.00" fill="#000000">IN</text>
<polyline fill="none" stroke="#000000" points="571.5,-456.5 727.5,-456.5 "/>
<text text-anchor="middle" x="649.5" y="-441.3" font-family="Times,serif" font-size="14.00" fill="#000000">fixed_image</text>
<polyline fill="none" stroke="#000000" points="571.5,-433.5 727.5,-433.5 "/>
<text text-anchor="middle" x="649.5" y="-418.3" font-family="Times,serif" font-size="14.00" fill="#000000">fixed_image_masks</text>
<polyline fill="none" stroke="#000000" points="571.5,-410.5 727.5,-410.5 "/>
<text text-anchor="middle" x="649.5" y="-395.3" font-family="Times,serif" font-size="14.00" fill="#000000">moving_image</text>
<polyline fill="none" stroke="#000000" points="727.5,-387.5 727.5,-479.5 "/>
<text text-anchor="middle" x="752.5" y="-460.8" font-family="Times,serif" font-size="14.00" fill="#000000">syn</text>
<polyline fill="none" stroke="#000000" points="727.5,-449.5 777.5,-449.5 "/>
<text text-anchor="middle" x="752.5" y="-430.3" font-family="Times,serif" font-size="14.00" fill="#000000">fixes</text>
<polyline fill="none" stroke="#000000" points="727.5,-418.5 777.5,-418.5 "/>
<text text-anchor="middle" x="752.5" y="-399.3" font-family="Times,serif" font-size="14.00" fill="#000000"> </text>
<polyline fill="none" stroke="#000000" points="777.5,-387.5 777.5,-479.5 "/>
<text text-anchor="middle" x="857" y="-452.8" font-family="Times,serif" font-size="14.00" fill="#000000">OUT</text>
<polyline fill="none" stroke="#000000" points="777.5,-433.5 936.5,-433.5 "/>
<text text-anchor="middle" x="857" y="-406.8" font-family="Times,serif" font-size="14.00" fill="#000000">forward_transforms</text>
</g>
<!-- syn_sdc_wfinputnode&#45;&gt;syn_sdc_wfsyn -->
<g id="edge9" class="edge">
<title>syn_sdc_wfinputnode:e&#45;&gt;syn_sdc_wfsyn:w</title>
<path fill="none" stroke="#000000" d="M276,-1256.5C312.2222,-1256.5 297.8429,-1203.8952 276,-1175 240.6215,-1128.199 190.3525,-1180.6167 149,-1139 103.1708,-1092.878 110,-1063.0197 110,-998 110,-998 110,-998 110,-657 110,-425.539 329.5226,-399.2367 560.6835,-398.5158"/>
<polygon fill="#000000" stroke="#000000" points="561.0054,-402.0154 571,-398.5 560.9946,-395.0154 561.0054,-402.0154"/>
</g>
<!-- syn_sdc_wfunwarp_ref -->
<g id="node10" class="node">
<title>syn_sdc_wfunwarp_ref</title>
<polygon fill="none" stroke="#000000" points="964,-258.5 964,-350.5 1314,-350.5 1314,-258.5 964,-258.5"/>
<text text-anchor="middle" x="1032.5" y="-335.3" font-family="Times,serif" font-size="14.00" fill="#000000">IN</text>
<polyline fill="none" stroke="#000000" points="964,-327.5 1101,-327.5 "/>
<text text-anchor="middle" x="1032.5" y="-312.3" font-family="Times,serif" font-size="14.00" fill="#000000">input_image</text>
<polyline fill="none" stroke="#000000" points="964,-304.5 1101,-304.5 "/>
<text text-anchor="middle" x="1032.5" y="-289.3" font-family="Times,serif" font-size="14.00" fill="#000000">reference_image</text>
<polyline fill="none" stroke="#000000" points="964,-281.5 1101,-281.5 "/>
<text text-anchor="middle" x="1032.5" y="-266.3" font-family="Times,serif" font-size="14.00" fill="#000000">transforms</text>
<polyline fill="none" stroke="#000000" points="1101,-258.5 1101,-350.5 "/>
<text text-anchor="middle" x="1150" y="-331.8" font-family="Times,serif" font-size="14.00" fill="#000000">unwarp_ref</text>
<polyline fill="none" stroke="#000000" points="1101,-320.5 1199,-320.5 "/>
<text text-anchor="middle" x="1150" y="-301.3" font-family="Times,serif" font-size="14.00" fill="#000000">fixes</text>
<polyline fill="none" stroke="#000000" points="1101,-289.5 1199,-289.5 "/>
<text text-anchor="middle" x="1150" y="-270.3" font-family="Times,serif" font-size="14.00" fill="#000000"> </text>
<polyline fill="none" stroke="#000000" points="1199,-258.5 1199,-350.5 "/>
<text text-anchor="middle" x="1256.5" y="-323.8" font-family="Times,serif" font-size="14.00" fill="#000000">OUT</text>
<polyline fill="none" stroke="#000000" points="1199,-304.5 1314,-304.5 "/>
<text text-anchor="middle" x="1256.5" y="-277.8" font-family="Times,serif" font-size="14.00" fill="#000000">output_image</text>
</g>
<!-- syn_sdc_wfinputnode&#45;&gt;syn_sdc_wfunwarp_ref -->
<g id="edge6" class="edge">
<title>syn_sdc_wfinputnode:e&#45;&gt;syn_sdc_wfunwarp_ref:w</title>
<path fill="none" stroke="#000000" d="M276,-1279.5C441.1914,-1279.5 964,-1163.1914 964,-998 964,-998 964,-998 964,-551 964,-545.3131 959.035,-370.8176 962.109,-326.6038"/>
<polygon fill="#000000" stroke="#000000" points="965.6006,-326.9732 964,-316.5 958.7201,-325.6855 965.6006,-326.9732"/>
</g>
<!-- syn_sdc_wfinputnode&#45;&gt;syn_sdc_wfunwarp_ref -->
<g id="edge7" class="edge">
<title>syn_sdc_wfinputnode:e&#45;&gt;syn_sdc_wfunwarp_ref:w</title>
<path fill="none" stroke="#000000" d="M276,-1279.5C418.355,-1279.5 782.3299,-1217.628 901,-1139 965.2598,-1096.423 1002,-1075.0852 1002,-998 1002,-998 1002,-998 1002,-551 1002,-477.1299 991.8305,-458.9272 975,-387 971.1882,-370.7098 966.4716,-367.5467 964,-351 963.3023,-346.3292 960.1872,-317.5639 961.0288,-302.1821"/>
<polygon fill="#000000" stroke="#000000" points="964.4122,-303.0868 964,-292.5 957.7202,-301.0331 964.4122,-303.0868"/>
</g>
<!-- syn_sdc_wfinvert_t1w&#45;&gt;syn_sdc_wfref_2_t1 -->
<g id="edge13" class="edge">
<title>syn_sdc_wfinvert_t1w:e&#45;&gt;syn_sdc_wfref_2_t1:w</title>
<path fill="none" stroke="#000000" d="M522,-1087C530,-1087 527.2698,-1075.0191 522,-1069 442.2535,-977.9149 331.7465,-1124.0851 252,-1033 244.7952,-1024.7708 240.0317,-1010.8104 243.2457,-1003.2468"/>
<polygon fill="#000000" stroke="#000000" points="245.2218,-1006.1429 252,-998 241.6233,-1000.1387 245.2218,-1006.1429"/>
</g>
<!-- syn_sdc_wfinvert_t1w&#45;&gt;syn_sdc_wft1_2_ref -->
<g id="edge14" class="edge">
<title>syn_sdc_wfinvert_t1w:e&#45;&gt;syn_sdc_wft1_2_ref:w</title>
<path fill="none" stroke="#000000" d="M522,-1087C570.5666,-1087 592.5754,-1074.9781 617,-1033 640.7778,-992.1335 613.7769,-973.9264 608,-927 606.8437,-917.6074 601.2739,-906.667 600.7839,-899.6672"/>
<polygon fill="#000000" stroke="#000000" points="603.3714,-902.0303 608,-892.5 598.4385,-897.0638 603.3714,-902.0303"/>
</g>
<!-- syn_sdc_wfref_2_t1&#45;&gt;syn_sdc_wftransform_list -->
<g id="edge16" class="edge">
<title>syn_sdc_wfref_2_t1:e&#45;&gt;syn_sdc_wftransform_list:w</title>
<path fill="none" stroke="#000000" d="M608,-981C616,-981 613.3993,-968.9032 608,-963 547.3168,-896.6543 265.6832,-993.3457 205,-927 197.7236,-919.0446 193.099,-905.2202 196.3246,-897.7131"/>
<polygon fill="#000000" stroke="#000000" points="198.2313,-900.6508 205,-892.5 194.6257,-894.6507 198.2313,-900.6508"/>
</g>
<!-- syn_sdc_wfref_2_t1&#45;&gt;syn_sdc_wft1_2_ref -->
<g id="edge15" class="edge">
<title>syn_sdc_wfref_2_t1:e&#45;&gt;syn_sdc_wft1_2_ref:w</title>
<path fill="none" stroke="#000000" d="M608,-981C608,-981 608,-887.1966 608,-855.6845"/>
<polygon fill="#000000" stroke="#000000" points="611.5001,-855.5 608,-845.5 604.5001,-855.5 611.5001,-855.5"/>
</g>
<!-- syn_sdc_wftransform_list&#45;&gt;syn_sdc_wfatlas_2_ref -->
<g id="edge23" class="edge">
<title>syn_sdc_wftransform_list:e&#45;&gt;syn_sdc_wfatlas_2_ref:w</title>
<path fill="none" stroke="#000000" d="M413,-857.5C423.4444,-857.5 419.8703,-841.8667 413,-834 334.8148,-744.4753 226.1852,-887.5247 148,-798 133.8254,-781.7696 125.3357,-752.1445 137.9895,-742.8606"/>
<polygon fill="#000000" stroke="#000000" points="139.3466,-746.113 148,-740 137.4232,-739.3824 139.3466,-746.113"/>
</g>
<!-- syn_sdc_wfthreshold_atlas -->
<g id="node6" class="node">
<title>syn_sdc_wfthreshold_atlas</title>
<polygon fill="none" stroke="#000000" points="243.5,-622.5 243.5,-691.5 500.5,-691.5 500.5,-622.5 243.5,-622.5"/>
<text text-anchor="middle" x="273.5" y="-670.8" font-family="Times,serif" font-size="14.00" fill="#000000">IN</text>
<polyline fill="none" stroke="#000000" points="243.5,-657.5 303.5,-657.5 "/>
<text text-anchor="middle" x="273.5" y="-636.3" font-family="Times,serif" font-size="14.00" fill="#000000">in_file</text>
<polyline fill="none" stroke="#000000" points="303.5,-622.5 303.5,-691.5 "/>
<text text-anchor="middle" x="367" y="-676.3" font-family="Times,serif" font-size="14.00" fill="#000000">threshold_atlas</text>
<polyline fill="none" stroke="#000000" points="303.5,-668.5 430.5,-668.5 "/>
<text text-anchor="middle" x="367" y="-653.3" font-family="Times,serif" font-size="14.00" fill="#000000">fsl</text>
<polyline fill="none" stroke="#000000" points="303.5,-645.5 430.5,-645.5 "/>
<text text-anchor="middle" x="367" y="-630.3" font-family="Times,serif" font-size="14.00" fill="#000000"> </text>
<polyline fill="none" stroke="#000000" points="430.5,-622.5 430.5,-691.5 "/>
<text text-anchor="middle" x="465.5" y="-670.8" font-family="Times,serif" font-size="14.00" fill="#000000">OUT</text>
<polyline fill="none" stroke="#000000" points="430.5,-657.5 500.5,-657.5 "/>
<text text-anchor="middle" x="465.5" y="-636.3" font-family="Times,serif" font-size="14.00" fill="#000000">out_file</text>
</g>
<!-- syn_sdc_wfatlas_2_ref&#45;&gt;syn_sdc_wfthreshold_atlas -->
<g id="edge1" class="edge">
<title>syn_sdc_wfatlas_2_ref:e&#45;&gt;syn_sdc_wfthreshold_atlas:w</title>
<path fill="none" stroke="#000000" d="M496,-746C504,-746 501.2433,-734.0422 496,-728 421.5604,-642.2183 317.4396,-777.7817 243,-692 230.5745,-677.6813 222.9828,-651.8628 233.4131,-643.0465"/>
<polygon fill="#000000" stroke="#000000" points="234.5297,-646.3643 243,-640 232.4096,-639.693 234.5297,-646.3643"/>
</g>
<!-- syn_sdc_wffixed_image_masks -->
<g id="node7" class="node">
<title>syn_sdc_wffixed_image_masks</title>
<polygon fill="none" stroke="#000000" points="360.5,-516.5 360.5,-585.5 605.5,-585.5 605.5,-516.5 360.5,-516.5"/>
<text text-anchor="middle" x="380" y="-564.8" font-family="Times,serif" font-size="14.00" fill="#000000">IN</text>
<polyline fill="none" stroke="#000000" points="360.5,-551.5 399.5,-551.5 "/>
<text text-anchor="middle" x="380" y="-530.3" font-family="Times,serif" font-size="14.00" fill="#000000">in2</text>
<polyline fill="none" stroke="#000000" points="399.5,-516.5 399.5,-585.5 "/>
<text text-anchor="middle" x="477.5" y="-570.3" font-family="Times,serif" font-size="14.00" fill="#000000">fixed_image_masks</text>
<polyline fill="none" stroke="#000000" points="399.5,-562.5 555.5,-562.5 "/>
<text text-anchor="middle" x="477.5" y="-547.3" font-family="Times,serif" font-size="14.00" fill="#000000">utility</text>
<polyline fill="none" stroke="#000000" points="399.5,-539.5 555.5,-539.5 "/>
<text text-anchor="middle" x="477.5" y="-524.3" font-family="Times,serif" font-size="14.00" fill="#000000"> </text>
<polyline fill="none" stroke="#000000" points="555.5,-516.5 555.5,-585.5 "/>
<text text-anchor="middle" x="580.5" y="-564.8" font-family="Times,serif" font-size="14.00" fill="#000000">OUT</text>
<polyline fill="none" stroke="#000000" points="555.5,-551.5 605.5,-551.5 "/>
<text text-anchor="middle" x="580.5" y="-530.3" font-family="Times,serif" font-size="14.00" fill="#000000">out</text>
</g>
<!-- syn_sdc_wfthreshold_atlas&#45;&gt;syn_sdc_wffixed_image_masks -->
<g id="edge22" class="edge">
<title>syn_sdc_wfthreshold_atlas:e&#45;&gt;syn_sdc_wffixed_image_masks:w</title>
<path fill="none" stroke="#000000" d="M501,-640C509,-640 505.9075,-628.3179 501,-622 461.3246,-570.9219 399.6754,-637.0781 360,-586 348.481,-571.1704 340.4234,-546.1108 350.2031,-537.2348"/>
<polygon fill="#000000" stroke="#000000" points="351.6016,-540.4589 360,-534 349.4068,-533.8119 351.6016,-540.4589"/>
</g>
<!-- syn_sdc_wffixed_image_masks&#45;&gt;syn_sdc_wfsyn -->
<g id="edge2" class="edge">
<title>syn_sdc_wffixed_image_masks:e&#45;&gt;syn_sdc_wfsyn:w</title>
<path fill="none" stroke="#000000" d="M606,-534C614,-534 609.0093,-523.4124 606,-516 597.6057,-495.3237 579.3943,-500.6763 571,-480 562.9006,-460.0502 550.3853,-433.0235 561.0883,-424.3224"/>
<polygon fill="#000000" stroke="#000000" points="562.3409,-427.6049 571,-421.5 560.4238,-420.8725 562.3409,-427.6049"/>
</g>
<!-- syn_sdc_wft1_2_ref&#45;&gt;syn_sdc_wfsyn -->
<g id="edge21" class="edge">
<title>syn_sdc_wft1_2_ref:e&#45;&gt;syn_sdc_wfsyn:w</title>
<path fill="none" stroke="#000000" d="M936,-857.5C946.4444,-857.5 940.0196,-843.64 936,-834 858.714,-648.6469 764.2148,-650.4018 615,-516 596.226,-499.0898 581.8201,-502.833 571,-480 566.5883,-470.6903 561.1831,-458.3167 562.7615,-451.1988"/>
<polygon fill="#000000" stroke="#000000" points="564.7669,-454.0674 571,-445.5 560.7847,-448.3104 564.7669,-454.0674"/>
</g>
<!-- syn_sdc_wfsyn&#45;&gt;syn_sdc_wfunwarp_ref -->
<g id="edge20" class="edge">
<title>syn_sdc_wfsyn:e&#45;&gt;syn_sdc_wfunwarp_ref:w</title>
<path fill="none" stroke="#000000" d="M937,-410.5C950.5341,-410.5 947.4092,-364.2839 950,-351 952.8306,-336.4862 948.2719,-292.5575 955.9582,-275.9515"/>
<polygon fill="#000000" stroke="#000000" points="958.3901,-278.4877 964,-269.5 954.0097,-273.0277 958.3901,-278.4877"/>
</g>
<!-- syn_sdc_wfoutputnode -->
<g id="node12" class="node">
<title>syn_sdc_wfoutputnode</title>
<polygon fill="none" stroke="#000000" points="1560.5,-.5 1560.5,-115.5 1869.5,-115.5 1869.5,-.5 1560.5,-.5"/>
<text text-anchor="middle" x="1641" y="-100.3" font-family="Times,serif" font-size="14.00" fill="#000000">IN</text>
<polyline fill="none" stroke="#000000" points="1560.5,-92.5 1721.5,-92.5 "/>
<text text-anchor="middle" x="1641" y="-77.3" font-family="Times,serif" font-size="14.00" fill="#000000">out_mask</text>
<polyline fill="none" stroke="#000000" points="1560.5,-69.5 1721.5,-69.5 "/>
<text text-anchor="middle" x="1641" y="-54.3" font-family="Times,serif" font-size="14.00" fill="#000000">out_reference</text>
<polyline fill="none" stroke="#000000" points="1560.5,-46.5 1721.5,-46.5 "/>
<text text-anchor="middle" x="1641" y="-31.3" font-family="Times,serif" font-size="14.00" fill="#000000">out_reference_brain</text>
<polyline fill="none" stroke="#000000" points="1560.5,-23.5 1721.5,-23.5 "/>
<text text-anchor="middle" x="1641" y="-8.3" font-family="Times,serif" font-size="14.00" fill="#000000">out_warp</text>
<polyline fill="none" stroke="#000000" points="1721.5,-.5 1721.5,-115.5 "/>
<text text-anchor="middle" x="1770.5" y="-92.8" font-family="Times,serif" font-size="14.00" fill="#000000">outputnode</text>
<polyline fill="none" stroke="#000000" points="1721.5,-77.5 1819.5,-77.5 "/>
<text text-anchor="middle" x="1770.5" y="-54.8" font-family="Times,serif" font-size="14.00" fill="#000000">utility</text>
<polyline fill="none" stroke="#000000" points="1721.5,-39.5 1819.5,-39.5 "/>
<text text-anchor="middle" x="1770.5" y="-16.3" font-family="Times,serif" font-size="14.00" fill="#000000"> </text>
<polyline fill="none" stroke="#000000" points="1819.5,-.5 1819.5,-115.5 "/>
<text text-anchor="middle" x="1844.5" y="-54.3" font-family="Times,serif" font-size="14.00" fill="#000000">OUT</text>
</g>
<!-- syn_sdc_wfsyn&#45;&gt;syn_sdc_wfoutputnode -->
<g id="edge19" class="edge">
<title>syn_sdc_wfsyn:e&#45;&gt;syn_sdc_wfoutputnode:w</title>
<path fill="none" stroke="#000000" d="M937,-410.5C954.0621,-410.5 944.6601,-271.572 955,-258 1128.846,-29.8127 1266.474,-12.3837 1549.8574,-12.0065"/>
<polygon fill="#000000" stroke="#000000" points="1550.0023,-15.5066 1560,-12 1549.9977,-8.5066 1550.0023,-15.5066"/>
</g>
<!-- syn_sdc_wfskullstrip_bold_wf -->
<g id="node11" class="node">
<title>syn_sdc_wfskullstrip_bold_wf</title>
<polygon fill="none" stroke="#000000" points="1314,-152.5 1314,-221.5 1834,-221.5 1834,-152.5 1314,-152.5"/>
<text text-anchor="middle" x="1382.5" y="-200.8" font-family="Times,serif" font-size="14.00" fill="#000000">IN</text>
<polyline fill="none" stroke="#000000" points="1314,-187.5 1451,-187.5 "/>
<text text-anchor="middle" x="1382.5" y="-166.3" font-family="Times,serif" font-size="14.00" fill="#000000">inputnode.in_file</text>
<polyline fill="none" stroke="#000000" points="1451,-152.5 1451,-221.5 "/>
<text text-anchor="middle" x="1525" y="-206.3" font-family="Times,serif" font-size="14.00" fill="#000000">skullstrip_bold_wf</text>
<polyline fill="none" stroke="#000000" points="1451,-198.5 1599,-198.5 "/>
<text text-anchor="middle" x="1525" y="-183.3" font-family="Times,serif" font-size="14.00" fill="#000000"> </text>
<polyline fill="none" stroke="#000000" points="1451,-175.5 1599,-175.5 "/>
<text text-anchor="middle" x="1525" y="-160.3" font-family="Times,serif" font-size="14.00" fill="#000000"> </text>
<polyline fill="none" stroke="#000000" points="1599,-152.5 1599,-221.5 "/>
<text text-anchor="middle" x="1716.5" y="-206.3" font-family="Times,serif" font-size="14.00" fill="#000000">OUT</text>
<polyline fill="none" stroke="#000000" points="1599,-198.5 1834,-198.5 "/>
<text text-anchor="middle" x="1716.5" y="-183.3" font-family="Times,serif" font-size="14.00" fill="#000000">outputnode.mask_file</text>
<polyline fill="none" stroke="#000000" points="1599,-175.5 1834,-175.5 "/>
<text text-anchor="middle" x="1716.5" y="-160.3" font-family="Times,serif" font-size="14.00" fill="#000000">outputnode.skull_stripped_file</text>
</g>
<!-- syn_sdc_wfunwarp_ref&#45;&gt;syn_sdc_wfskullstrip_bold_wf -->
<g id="edge25" class="edge">
<title>syn_sdc_wfunwarp_ref:e&#45;&gt;syn_sdc_wfskullstrip_bold_wf:w</title>
<path fill="none" stroke="#000000" d="M1314,-281.5C1334.8095,-281.5 1303.1888,-202.8549 1307.2043,-177.6638"/>
<polygon fill="#000000" stroke="#000000" points="1309.9841,-179.8043 1314,-170 1304.7466,-175.16 1309.9841,-179.8043"/>
</g>
<!-- syn_sdc_wfunwarp_ref&#45;&gt;syn_sdc_wfoutputnode -->
<g id="edge24" class="edge">
<title>syn_sdc_wfunwarp_ref:e&#45;&gt;syn_sdc_wfoutputnode:w</title>
<path fill="none" stroke="#000000" d="M1314,-281.5C1324.4444,-281.5 1315.2761,-268.3662 1314,-258 1308.2231,-211.0736 1277.9605,-190.7856 1305,-152 1337.7176,-105.0696 1483.0729,-62.703 1549.6469,-58.3651"/>
<polygon fill="#000000" stroke="#000000" points="1550.1296,-61.8504 1560,-58 1549.8828,-54.8547 1550.1296,-61.8504"/>
</g>
<!-- syn_sdc_wfskullstrip_bold_wf&#45;&gt;syn_sdc_wfoutputnode -->
<g id="edge17" class="edge">
<title>syn_sdc_wfskullstrip_bold_wf:e&#45;&gt;syn_sdc_wfoutputnode:w</title>
<path fill="none" stroke="#000000" d="M1834,-187C1849.5556,-187 1844.258,-163.6939 1834,-152 1753.0042,-59.6663 1640.9958,-208.3337 1560,-116 1552.7873,-107.7777 1548.027,-93.8145 1551.2437,-86.2486"/>
<polygon fill="#000000" stroke="#000000" points="1553.2222,-89.1433 1560,-81 1549.6234,-83.1392 1553.2222,-89.1433"/>
</g>
<!-- syn_sdc_wfskullstrip_bold_wf&#45;&gt;syn_sdc_wfoutputnode -->
<g id="edge18" class="edge">
<title>syn_sdc_wfskullstrip_bold_wf:e&#45;&gt;syn_sdc_wfoutputnode:w</title>
<path fill="none" stroke="#000000" d="M1834,-164C1839.3333,-164 1837.517,-156.0094 1834,-152 1753.0042,-59.6663 1640.9958,-208.3337 1560,-116 1538.8566,-91.8969 1526.8192,-46.4772 1549.8714,-36.83"/>
<polygon fill="#000000" stroke="#000000" points="1550.7816,-40.2223 1560,-35 1549.537,-33.3338 1550.7816,-40.2223"/>
</g>
</g>
</svg>
