<?xml version="1.0" encoding="UTF-8" standalone="no"?>
<!DOCTYPE svg PUBLIC "-//W3C//DTD SVG 1.1//EN"
 "http://www.w3.org/Graphics/SVG/1.1/DTD/svg11.dtd">
<!-- Generated by graphviz version 2.40.1 (20161225.0304)
 -->
<!-- Title: structs Pages: 1 -->
<svg width="1320pt" height="792pt"
 viewBox="0.00 0.00 1319.50 792.00" xmlns="http://www.w3.org/2000/svg" xmlns:xlink="http://www.w3.org/1999/xlink">
<g id="graph0" class="graph" transform="scale(1 1) rotate(0) translate(4 788)">
<title>structs</title>
<polygon fill="#ffffff" stroke="transparent" points="-4,4 -4,-788 1315.5,-788 1315.5,4 -4,4"/>
<!-- pepolar_estimate_wfinputnode -->
<g id="node1" class="node">
<title>pepolar_estimate_wfinputnode</title>
<polygon fill="none" stroke="#000000" points="0,-714.5 0,-783.5 208,-783.5 208,-714.5 0,-714.5"/>
<text text-anchor="middle" x="17.5" y="-745.3" font-family="Times,serif" font-size="14.00" fill="#000000">IN</text>
<polyline fill="none" stroke="#000000" points="35,-714.5 35,-783.5 "/>
<text text-anchor="middle" x="79.5" y="-768.3" font-family="Times,serif" font-size="14.00" fill="#000000">inputnode</text>
<polyline fill="none" stroke="#000000" points="35,-760.5 124,-760.5 "/>
<text text-anchor="middle" x="79.5" y="-745.3" font-family="Times,serif" font-size="14.00" fill="#000000">utility</text>
<polyline fill="none" stroke="#000000" points="35,-737.5 124,-737.5 "/>
<text text-anchor="middle" x="79.5" y="-722.3" font-family="Times,serif" font-size="14.00" fill="#000000"> </text>
<polyline fill="none" stroke="#000000" points="124,-714.5 124,-783.5 "/>
<text text-anchor="middle" x="166" y="-768.3" font-family="Times,serif" font-size="14.00" fill="#000000">OUT</text>
<polyline fill="none" stroke="#000000" points="124,-760.5 208,-760.5 "/>
<text text-anchor="middle" x="166" y="-745.3" font-family="Times,serif" font-size="14.00" fill="#000000">in_data</text>
<polyline fill="none" stroke="#000000" points="124,-737.5 208,-737.5 "/>
<text text-anchor="middle" x="166" y="-722.3" font-family="Times,serif" font-size="14.00" fill="#000000">metadata</text>
</g>
<!-- pepolar_estimate_wfflatten -->
<g id="node2" class="node">
<title>pepolar_estimate_wfflatten</title>
<polygon fill="none" stroke="#000000" points="208.5,-608.5 208.5,-677.5 429.5,-677.5 429.5,-608.5 208.5,-608.5"/>
<text text-anchor="middle" x="245.5" y="-662.3" font-family="Times,serif" font-size="14.00" fill="#000000">IN</text>
<polyline fill="none" stroke="#000000" points="208.5,-654.5 282.5,-654.5 "/>
<text text-anchor="middle" x="245.5" y="-639.3" font-family="Times,serif" font-size="14.00" fill="#000000">in_data</text>
<polyline fill="none" stroke="#000000" points="208.5,-631.5 282.5,-631.5 "/>
<text text-anchor="middle" x="245.5" y="-616.3" font-family="Times,serif" font-size="14.00" fill="#000000">in_meta</text>
<polyline fill="none" stroke="#000000" points="282.5,-608.5 282.5,-677.5 "/>
<text text-anchor="middle" x="314.5" y="-662.3" font-family="Times,serif" font-size="14.00" fill="#000000">flatten</text>
<polyline fill="none" stroke="#000000" points="282.5,-654.5 346.5,-654.5 "/>
<text text-anchor="middle" x="314.5" y="-639.3" font-family="Times,serif" font-size="14.00" fill="#000000">utils</text>
<polyline fill="none" stroke="#000000" points="282.5,-631.5 346.5,-631.5 "/>
<text text-anchor="middle" x="314.5" y="-616.3" font-family="Times,serif" font-size="14.00" fill="#000000"> </text>
<polyline fill="none" stroke="#000000" points="346.5,-608.5 346.5,-677.5 "/>
<text text-anchor="middle" x="388" y="-662.3" font-family="Times,serif" font-size="14.00" fill="#000000">OUT</text>
<polyline fill="none" stroke="#000000" points="346.5,-654.5 429.5,-654.5 "/>
<text text-anchor="middle" x="388" y="-639.3" font-family="Times,serif" font-size="14.00" fill="#000000">out_data</text>
<polyline fill="none" stroke="#000000" points="346.5,-631.5 429.5,-631.5 "/>
<text text-anchor="middle" x="388" y="-616.3" font-family="Times,serif" font-size="14.00" fill="#000000">out_meta</text>
</g>
<!-- pepolar_estimate_wfinputnode&#45;&gt;pepolar_estimate_wfflatten -->
<g id="edge6" class="edge">
<title>pepolar_estimate_wfinputnode:e&#45;&gt;pepolar_estimate_wfflatten:w</title>
<path fill="none" stroke="#000000" d="M208,-749C250.6944,-749 177.3134,-661.9434 198.2437,-645.6202"/>
<polygon fill="#000000" stroke="#000000" points="199.2501,-648.9741 208,-643 197.4344,-642.2136 199.2501,-648.9741"/>
</g>
<!-- pepolar_estimate_wfinputnode&#45;&gt;pepolar_estimate_wfflatten -->
<g id="edge7" class="edge">
<title>pepolar_estimate_wfinputnode:e&#45;&gt;pepolar_estimate_wfflatten:w</title>
<path fill="none" stroke="#000000" d="M208,-726C208,-726 208,-656.6947 208,-630.1637"/>
<polygon fill="#000000" stroke="#000000" points="211.5001,-630 208,-620 204.5001,-630 211.5001,-630"/>
</g>
<!-- pepolar_estimate_wfconcat_blips -->
<g id="node3" class="node">
<title>pepolar_estimate_wfconcat_blips</title>
<polygon fill="none" stroke="#000000" points="166.5,-502.5 166.5,-571.5 411.5,-571.5 411.5,-502.5 166.5,-502.5"/>
<text text-anchor="middle" x="200.5" y="-550.8" font-family="Times,serif" font-size="14.00" fill="#000000">IN</text>
<polyline fill="none" stroke="#000000" points="166.5,-537.5 234.5,-537.5 "/>
<text text-anchor="middle" x="200.5" y="-516.3" font-family="Times,serif" font-size="14.00" fill="#000000">in_files</text>
<polyline fill="none" stroke="#000000" points="234.5,-502.5 234.5,-571.5 "/>
<text text-anchor="middle" x="288" y="-556.3" font-family="Times,serif" font-size="14.00" fill="#000000">concat_blips</text>
<polyline fill="none" stroke="#000000" points="234.5,-548.5 341.5,-548.5 "/>
<text text-anchor="middle" x="288" y="-533.3" font-family="Times,serif" font-size="14.00" fill="#000000">nibabel</text>
<polyline fill="none" stroke="#000000" points="234.5,-525.5 341.5,-525.5 "/>
<text text-anchor="middle" x="288" y="-510.3" font-family="Times,serif" font-size="14.00" fill="#000000"> </text>
<polyline fill="none" stroke="#000000" points="341.5,-502.5 341.5,-571.5 "/>
<text text-anchor="middle" x="376.5" y="-550.8" font-family="Times,serif" font-size="14.00" fill="#000000">OUT</text>
<polyline fill="none" stroke="#000000" points="341.5,-537.5 411.5,-537.5 "/>
<text text-anchor="middle" x="376.5" y="-516.3" font-family="Times,serif" font-size="14.00" fill="#000000">out_file</text>
</g>
<!-- pepolar_estimate_wfflatten&#45;&gt;pepolar_estimate_wfconcat_blips -->
<g id="edge2" class="edge">
<title>pepolar_estimate_wfflatten:e&#45;&gt;pepolar_estimate_wfconcat_blips:w</title>
<path fill="none" stroke="#000000" d="M430,-643C445.5556,-643 440.2294,-619.719 430,-608 352.127,-518.7873 243.873,-661.2127 166,-572 153.5329,-557.7175 145.9679,-531.8758 156.409,-523.05"/>
<polygon fill="#000000" stroke="#000000" points="157.531,-526.366 166,-520 155.4095,-519.6952 157.531,-526.366"/>
</g>
<!-- pepolar_estimate_wfreadout_time -->
<g id="node4" class="node">
<title>pepolar_estimate_wfreadout_time</title>
<polygon fill="none" stroke="#000000" points="430,-502.5 430,-571.5 738,-571.5 738,-502.5 430,-502.5"/>
<text text-anchor="middle" x="472" y="-556.3" font-family="Times,serif" font-size="14.00" fill="#000000">IN</text>
<polyline fill="none" stroke="#000000" points="430,-548.5 514,-548.5 "/>
<text text-anchor="middle" x="472" y="-533.3" font-family="Times,serif" font-size="14.00" fill="#000000">in_file</text>
<polyline fill="none" stroke="#000000" points="430,-525.5 514,-525.5 "/>
<text text-anchor="middle" x="472" y="-510.3" font-family="Times,serif" font-size="14.00" fill="#000000">metadata</text>
<polyline fill="none" stroke="#000000" points="514,-502.5 514,-571.5 "/>
<text text-anchor="middle" x="570" y="-556.3" font-family="Times,serif" font-size="14.00" fill="#000000">readout_time</text>
<polyline fill="none" stroke="#000000" points="514,-548.5 626,-548.5 "/>
<text text-anchor="middle" x="570" y="-533.3" font-family="Times,serif" font-size="14.00" fill="#000000">epi</text>
<polyline fill="none" stroke="#000000" points="514,-525.5 626,-525.5 "/>
<text text-anchor="middle" x="570" y="-510.3" font-family="Times,serif" font-size="14.00" fill="#000000"> </text>
<polyline fill="none" stroke="#000000" points="626,-502.5 626,-571.5 "/>
<text text-anchor="middle" x="682" y="-550.8" font-family="Times,serif" font-size="14.00" fill="#000000">OUT</text>
<polyline fill="none" stroke="#000000" points="626,-537.5 738,-537.5 "/>
<text text-anchor="middle" x="682" y="-516.3" font-family="Times,serif" font-size="14.00" fill="#000000">readout_time</text>
</g>
<!-- pepolar_estimate_wfflatten&#45;&gt;pepolar_estimate_wfreadout_time -->
<g id="edge3" class="edge">
<title>pepolar_estimate_wfflatten:e&#45;&gt;pepolar_estimate_wfreadout_time:w</title>
<path fill="none" stroke="#000000" d="M430,-643C449.691,-643 420.0007,-568.9281 423.4884,-544.6233"/>
<polygon fill="#000000" stroke="#000000" points="426.1664,-546.877 430,-537 420.8438,-542.3305 426.1664,-546.877"/>
</g>
<!-- pepolar_estimate_wfflatten&#45;&gt;pepolar_estimate_wfreadout_time -->
<g id="edge4" class="edge">
<title>pepolar_estimate_wfflatten:e&#45;&gt;pepolar_estimate_wfreadout_time:w</title>
<path fill="none" stroke="#000000" d="M430,-620C430,-620 430,-550.6947 430,-524.1637"/>
<polygon fill="#000000" stroke="#000000" points="433.5001,-524 430,-514 426.5001,-524 433.5001,-524"/>
</g>
<!-- pepolar_estimate_wftopup -->
<g id="node5" class="node">
<title>pepolar_estimate_wftopup</title>
<polygon fill="none" stroke="#000000" points="738.5,-304.5 738.5,-465.5 1067.5,-465.5 1067.5,-304.5 738.5,-304.5"/>
<text text-anchor="middle" x="815.5" y="-441.8" font-family="Times,serif" font-size="14.00" fill="#000000">IN</text>
<polyline fill="none" stroke="#000000" points="738.5,-425.5 892.5,-425.5 "/>
<text text-anchor="middle" x="815.5" y="-401.8" font-family="Times,serif" font-size="14.00" fill="#000000">encoding_direction</text>
<polyline fill="none" stroke="#000000" points="738.5,-385.5 892.5,-385.5 "/>
<text text-anchor="middle" x="815.5" y="-361.8" font-family="Times,serif" font-size="14.00" fill="#000000">in_file</text>
<polyline fill="none" stroke="#000000" points="738.5,-345.5 892.5,-345.5 "/>
<text text-anchor="middle" x="815.5" y="-321.3" font-family="Times,serif" font-size="14.00" fill="#000000">readout_times</text>
<polyline fill="none" stroke="#000000" points="892.5,-304.5 892.5,-465.5 "/>
<text text-anchor="middle" x="921.5" y="-435.3" font-family="Times,serif" font-size="14.00" fill="#000000">topup</text>
<polyline fill="none" stroke="#000000" points="892.5,-412.5 950.5,-412.5 "/>
<text text-anchor="middle" x="921.5" y="-381.8" font-family="Times,serif" font-size="14.00" fill="#000000">fsl</text>
<polyline fill="none" stroke="#000000" points="892.5,-358.5 950.5,-358.5 "/>
<text text-anchor="middle" x="921.5" y="-327.8" font-family="Times,serif" font-size="14.00" fill="#000000"> </text>
<polyline fill="none" stroke="#000000" points="950.5,-304.5 950.5,-465.5 "/>
<text text-anchor="middle" x="1009" y="-450.3" font-family="Times,serif" font-size="14.00" fill="#000000">OUT</text>
<polyline fill="none" stroke="#000000" points="950.5,-442.5 1067.5,-442.5 "/>
<text text-anchor="middle" x="1009" y="-427.3" font-family="Times,serif" font-size="14.00" fill="#000000">out_corrected</text>
<polyline fill="none" stroke="#000000" points="950.5,-419.5 1067.5,-419.5 "/>
<text text-anchor="middle" x="1009" y="-404.3" font-family="Times,serif" font-size="14.00" fill="#000000">out_field</text>
<polyline fill="none" stroke="#000000" points="950.5,-396.5 1067.5,-396.5 "/>
<text text-anchor="middle" x="1009" y="-381.3" font-family="Times,serif" font-size="14.00" fill="#000000">out_fieldcoef</text>
<polyline fill="none" stroke="#000000" points="950.5,-373.5 1067.5,-373.5 "/>
<text text-anchor="middle" x="1009" y="-358.3" font-family="Times,serif" font-size="14.00" fill="#000000">out_jacs</text>
<polyline fill="none" stroke="#000000" points="950.5,-350.5 1067.5,-350.5 "/>
<text text-anchor="middle" x="1009" y="-335.3" font-family="Times,serif" font-size="14.00" fill="#000000">out_mats</text>
<polyline fill="none" stroke="#000000" points="950.5,-327.5 1067.5,-327.5 "/>
<text text-anchor="middle" x="1009" y="-312.3" font-family="Times,serif" font-size="14.00" fill="#000000">out_warps</text>
</g>
<!-- pepolar_estimate_wfflatten&#45;&gt;pepolar_estimate_wftopup -->
<g id="edge5" class="edge">
<title>pepolar_estimate_wfflatten:e&#45;&gt;pepolar_estimate_wftopup:w</title>
<path fill="none" stroke="#000000" d="M430,-620C465.6237,-620 723.7723,-599.0097 747,-572 792.6355,-518.9342 677.4384,-417.4494 727.9645,-406.8935"/>
<polygon fill="#000000" stroke="#000000" points="728.3498,-410.3731 738,-406 727.729,-403.4007 728.3498,-410.3731"/>
</g>
<!-- pepolar_estimate_wfconcat_blips&#45;&gt;pepolar_estimate_wftopup -->
<g id="edge1" class="edge">
<title>pepolar_estimate_wfconcat_blips:e&#45;&gt;pepolar_estimate_wftopup:w</title>
<path fill="none" stroke="#000000" d="M412,-520C420.9443,-520 414.5017,-508.1459 421,-502 530.0053,-398.9047 582.1504,-366.4539 727.8096,-365.0482"/>
<polygon fill="#000000" stroke="#000000" points="728.0167,-368.5474 738,-365 727.9835,-361.5474 728.0167,-368.5474"/>
</g>
<!-- pepolar_estimate_wfreadout_time&#45;&gt;pepolar_estimate_wftopup -->
<g id="edge9" class="edge">
<title>pepolar_estimate_wfreadout_time:e&#45;&gt;pepolar_estimate_wftopup:w</title>
<path fill="none" stroke="#000000" d="M738,-520C738,-520 738,-375.3322 738,-335.2095"/>
<polygon fill="#000000" stroke="#000000" points="741.5001,-335 738,-325 734.5001,-335 741.5001,-335"/>
</g>
<!-- pepolar_estimate_wfmerge_corrected -->
<g id="node6" class="node">
<title>pepolar_estimate_wfmerge_corrected</title>
<polygon fill="none" stroke="#000000" points="701.5,-198.5 701.5,-267.5 982.5,-267.5 982.5,-198.5 701.5,-198.5"/>
<text text-anchor="middle" x="735.5" y="-246.8" font-family="Times,serif" font-size="14.00" fill="#000000">IN</text>
<polyline fill="none" stroke="#000000" points="701.5,-233.5 769.5,-233.5 "/>
<text text-anchor="middle" x="735.5" y="-212.3" font-family="Times,serif" font-size="14.00" fill="#000000">in_files</text>
<polyline fill="none" stroke="#000000" points="769.5,-198.5 769.5,-267.5 "/>
<text text-anchor="middle" x="839.5" y="-252.3" font-family="Times,serif" font-size="14.00" fill="#000000">merge_corrected</text>
<polyline fill="none" stroke="#000000" points="769.5,-244.5 909.5,-244.5 "/>
<text text-anchor="middle" x="839.5" y="-229.3" font-family="Times,serif" font-size="14.00" fill="#000000">images</text>
<polyline fill="none" stroke="#000000" points="769.5,-221.5 909.5,-221.5 "/>
<text text-anchor="middle" x="839.5" y="-206.3" font-family="Times,serif" font-size="14.00" fill="#000000"> </text>
<polyline fill="none" stroke="#000000" points="909.5,-198.5 909.5,-267.5 "/>
<text text-anchor="middle" x="946" y="-246.8" font-family="Times,serif" font-size="14.00" fill="#000000">OUT</text>
<polyline fill="none" stroke="#000000" points="909.5,-233.5 982.5,-233.5 "/>
<text text-anchor="middle" x="946" y="-212.3" font-family="Times,serif" font-size="14.00" fill="#000000">out_avg</text>
</g>
<!-- pepolar_estimate_wftopup&#45;&gt;pepolar_estimate_wfmerge_corrected -->
<g id="edge10" class="edge">
<title>pepolar_estimate_wftopup:e&#45;&gt;pepolar_estimate_wfmerge_corrected:w</title>
<path fill="none" stroke="#000000" d="M1068,-431C1124.4444,-431 1105.914,-345.8151 1068,-304 1012.9558,-243.2922 756.0442,-328.7078 701,-268 688.2656,-253.9553 680.8718,-227.9612 691.3831,-219.0731"/>
<polygon fill="#000000" stroke="#000000" points="692.5399,-222.3779 701,-216 690.4091,-215.71 692.5399,-222.3779"/>
</g>
<!-- pepolar_estimate_wfoutputnode -->
<g id="node7" class="node">
<title>pepolar_estimate_wfoutputnode</title>
<polygon fill="none" stroke="#000000" points="1068.5,-.5 1068.5,-161.5 1311.5,-161.5 1311.5,-.5 1068.5,-.5"/>
<text text-anchor="middle" x="1116" y="-146.3" font-family="Times,serif" font-size="14.00" fill="#000000">IN</text>
<polyline fill="none" stroke="#000000" points="1068.5,-138.5 1163.5,-138.5 "/>
<text text-anchor="middle" x="1116" y="-123.3" font-family="Times,serif" font-size="14.00" fill="#000000">fmap</text>
<polyline fill="none" stroke="#000000" points="1068.5,-115.5 1163.5,-115.5 "/>
<text text-anchor="middle" x="1116" y="-100.3" font-family="Times,serif" font-size="14.00" fill="#000000">fmap_coeff</text>
<polyline fill="none" stroke="#000000" points="1068.5,-92.5 1163.5,-92.5 "/>
<text text-anchor="middle" x="1116" y="-77.3" font-family="Times,serif" font-size="14.00" fill="#000000">fmap_ref</text>
<polyline fill="none" stroke="#000000" points="1068.5,-69.5 1163.5,-69.5 "/>
<text text-anchor="middle" x="1116" y="-54.3" font-family="Times,serif" font-size="14.00" fill="#000000">jacobians</text>
<polyline fill="none" stroke="#000000" points="1068.5,-46.5 1163.5,-46.5 "/>
<text text-anchor="middle" x="1116" y="-31.3" font-family="Times,serif" font-size="14.00" fill="#000000">out_warps</text>
<polyline fill="none" stroke="#000000" points="1068.5,-23.5 1163.5,-23.5 "/>
<text text-anchor="middle" x="1116" y="-8.3" font-family="Times,serif" font-size="14.00" fill="#000000">xfms</text>
<polyline fill="none" stroke="#000000" points="1163.5,-.5 1163.5,-161.5 "/>
<text text-anchor="middle" x="1212.5" y="-131.3" font-family="Times,serif" font-size="14.00" fill="#000000">outputnode</text>
<polyline fill="none" stroke="#000000" points="1163.5,-108.5 1261.5,-108.5 "/>
<text text-anchor="middle" x="1212.5" y="-77.8" font-family="Times,serif" font-size="14.00" fill="#000000">utility</text>
<polyline fill="none" stroke="#000000" points="1163.5,-54.5 1261.5,-54.5 "/>
<text text-anchor="middle" x="1212.5" y="-23.8" font-family="Times,serif" font-size="14.00" fill="#000000"> </text>
<polyline fill="none" stroke="#000000" points="1261.5,-.5 1261.5,-161.5 "/>
<text text-anchor="middle" x="1286.5" y="-77.3" font-family="Times,serif" font-size="14.00" fill="#000000">OUT</text>
</g>
<!-- pepolar_estimate_wftopup&#45;&gt;pepolar_estimate_wfoutputnode -->
<g id="edge11" class="edge">
<title>pepolar_estimate_wftopup:e&#45;&gt;pepolar_estimate_wfoutputnode:w</title>
<path fill="none" stroke="#000000" d="M1068,-408C1114.2222,-408 1084.7566,-347.0779 1068,-304 1060.1314,-283.7714 1042.8686,-288.2286 1035,-268 1023.7215,-239.0052 1028.2853,-228.3779 1035,-198 1041.6596,-167.8717 1035.0955,-135.3489 1057.7837,-128.367"/>
<polygon fill="#000000" stroke="#000000" points="1058.5526,-131.7954 1068,-127 1057.6241,-124.8573 1058.5526,-131.7954"/>
</g>
<!-- pepolar_estimate_wftopup&#45;&gt;pepolar_estimate_wfoutputnode -->
<g id="edge12" class="edge">
<title>pepolar_estimate_wftopup:e&#45;&gt;pepolar_estimate_wfoutputnode:w</title>
<path fill="none" stroke="#000000" d="M1068,-385C1096.1732,-385 1048.0807,-156.203 1061.3582,-111.5161"/>
<polygon fill="#000000" stroke="#000000" points="1064.0009,-113.8111 1068,-104 1058.7555,-109.1758 1064.0009,-113.8111"/>
</g>
<!-- pepolar_estimate_wftopup&#45;&gt;pepolar_estimate_wfoutputnode -->
<g id="edge13" class="edge">
<title>pepolar_estimate_wftopup:e&#45;&gt;pepolar_estimate_wfoutputnode:w</title>
<path fill="none" stroke="#000000" d="M1068,-362C1109.8368,-362 1071.8885,-309.8221 1073,-268 1073.8265,-236.8999 1075.1451,-229.0371 1073,-198 1071.8862,-181.8849 1069.1138,-178.1151 1068,-162 1065.0869,-119.8505 1028.8802,-67.8625 1057.979,-59.2383"/>
<polygon fill="#000000" stroke="#000000" points="1058.5048,-62.7001 1068,-58 1057.6462,-55.7529 1058.5048,-62.7001"/>
</g>
<!-- pepolar_estimate_wftopup&#45;&gt;pepolar_estimate_wfoutputnode -->
<g id="edge14" class="edge">
<title>pepolar_estimate_wftopup:e&#45;&gt;pepolar_estimate_wfoutputnode:w</title>
<path fill="none" stroke="#000000" d="M1068,-339C1100.6659,-339 1082.7414,-300.3871 1087,-268 1091.0559,-237.1544 1094.4801,-228.1985 1087,-198 1082.6502,-180.439 1072.3498,-179.561 1068,-162 1052.8791,-100.9542 1006.9586,-21.5956 1057.7733,-12.8016"/>
<polygon fill="#000000" stroke="#000000" points="1058.3041,-16.2708 1068,-12 1057.757,-9.2922 1058.3041,-16.2708"/>
</g>
<!-- pepolar_estimate_wftopup&#45;&gt;pepolar_estimate_wfoutputnode -->
<g id="edge15" class="edge">
<title>pepolar_estimate_wftopup:e&#45;&gt;pepolar_estimate_wfoutputnode:w</title>
<path fill="none" stroke="#000000" d="M1068,-316C1094.4024,-316 1094.8197,-293.1032 1103,-268 1112.6392,-238.4198 1114.703,-226.826 1103,-198 1094.6057,-177.3237 1076.3943,-182.6763 1068,-162 1048.1774,-113.1743 1016.1705,-44.8225 1057.9368,-35.9598"/>
<polygon fill="#000000" stroke="#000000" points="1058.3775,-39.4338 1068,-35 1057.7128,-32.4654 1058.3775,-39.4338"/>
</g>
<!-- pepolar_estimate_wfmerge_corrected&#45;&gt;pepolar_estimate_wfoutputnode -->
<g id="edge8" class="edge">
<title>pepolar_estimate_wfmerge_corrected:e&#45;&gt;pepolar_estimate_wfoutputnode:w</title>
<path fill="none" stroke="#000000" d="M983,-216C990.6165,-216 1041.3714,-116.2991 1061.1205,-88.2582"/>
<polygon fill="#000000" stroke="#000000" points="1063.6611,-90.6656 1068,-81 1058.5805,-85.8502 1063.6611,-90.6656"/>
</g>
</g>
</svg>
