<?xml version="1.0" encoding="UTF-8" standalone="no"?>
<!DOCTYPE svg PUBLIC "-//W3C//DTD SVG 1.1//EN"
 "http://www.w3.org/Graphics/SVG/1.1/DTD/svg11.dtd">
<!-- Generated by graphviz version 2.40.1 (20161225.0304)
 -->
<!-- Title: %3 Pages: 1 -->
<svg width="708pt" height="764pt"
 viewBox="0.00 0.00 708.39 764.00" xmlns="http://www.w3.org/2000/svg" xmlns:xlink="http://www.w3.org/1999/xlink">
<g id="graph0" class="graph" transform="scale(1 1) rotate(0) translate(4 760)">
<title>%3</title>
<polygon fill="#ffffff" stroke="transparent" points="-4,4 -4,-760 704.391,-760 704.391,4 -4,4"/>
<!-- inputnode (utility) -->
<g id="node1" class="node">
<title>inputnode (utility)</title>
<ellipse fill="none" stroke="#000000" cx="330" cy="-738" rx="94.7833" ry="18"/>
<text text-anchor="middle" x="330" y="-734.3" font-family="Times,serif" font-size="14.00" fill="#000000">inputnode (utility)</text>
</g>
<!-- transform_list (utility) -->
<g id="node2" class="node">
<title>transform_list (utility)</title>
<ellipse fill="none" stroke="#000000" cx="472" cy="-666" rx="114.2798" ry="18"/>
<text text-anchor="middle" x="472" y="-662.3" font-family="Times,serif" font-size="14.00" fill="#000000">transform_list (utility)</text>
</g>
<!-- inputnode (utility)&#45;&gt;transform_list (utility) -->
<g id="edge1" class="edge">
<title>inputnode (utility)&#45;&gt;transform_list (utility)</title>
<path fill="none" stroke="#000000" d="M363.2927,-721.1192C382.8583,-711.1986 407.8059,-698.5491 428.8657,-687.8709"/>
<polygon fill="#000000" stroke="#000000" points="430.5934,-690.9191 437.9296,-683.2751 427.4278,-684.6758 430.5934,-690.9191"/>
</g>
<!-- invert_t1w (image) -->
<g id="node3" class="node">
<title>invert_t1w (image)</title>
<ellipse fill="none" stroke="#000000" cx="165" cy="-666" rx="98.5829" ry="18"/>
<text text-anchor="middle" x="165" y="-662.3" font-family="Times,serif" font-size="14.00" fill="#000000">invert_t1w (image)</text>
</g>
<!-- inputnode (utility)&#45;&gt;invert_t1w (image) -->
<g id="edge2" class="edge">
<title>inputnode (utility)&#45;&gt;invert_t1w (image)</title>
<path fill="none" stroke="#000000" d="M292.1457,-721.4817C268.5232,-711.1738 237.9125,-697.8164 212.6459,-686.7909"/>
<polygon fill="#000000" stroke="#000000" points="213.8148,-683.4823 203.2496,-682.6907 211.0151,-689.8981 213.8148,-683.4823"/>
</g>
<!-- anat2epi (fixes) -->
<g id="node4" class="node">
<title>anat2epi (fixes)</title>
<ellipse fill="none" stroke="#000000" cx="165" cy="-594" rx="83.3857" ry="18"/>
<text text-anchor="middle" x="165" y="-590.3" font-family="Times,serif" font-size="14.00" fill="#000000">anat2epi (fixes)</text>
</g>
<!-- inputnode (utility)&#45;&gt;anat2epi (fixes) -->
<g id="edge3" class="edge">
<title>inputnode (utility)&#45;&gt;anat2epi (fixes)</title>
<path fill="none" stroke="#000000" d="M239.8239,-732.2602C169.4771,-725.6797 79.9642,-711.9516 57,-684 46.8431,-671.6373 48.5883,-661.6104 57,-648 67.1359,-631.5998 83.9278,-620.0139 101.2852,-611.8998"/>
<polygon fill="#000000" stroke="#000000" points="103.1464,-614.9092 110.9478,-607.7406 100.3787,-608.4796 103.1464,-614.9092"/>
</g>
<!-- deoblique (utils) -->
<g id="node5" class="node">
<title>deoblique (utils)</title>
<ellipse fill="none" stroke="#000000" cx="357" cy="-450" rx="86.3847" ry="18"/>
<text text-anchor="middle" x="357" y="-446.3" font-family="Times,serif" font-size="14.00" fill="#000000">deoblique (utils)</text>
</g>
<!-- inputnode (utility)&#45;&gt;deoblique (utils) -->
<g id="edge4" class="edge">
<title>inputnode (utility)&#45;&gt;deoblique (utils)</title>
<path fill="none" stroke="#000000" d="M323.5266,-719.9874C310.1375,-679.7909 282.9052,-580.3059 311,-504 314.8695,-493.4904 321.7944,-483.6334 329.1157,-475.2915"/>
<polygon fill="#000000" stroke="#000000" points="331.8717,-477.4698 336.1698,-467.7859 326.7709,-472.6758 331.8717,-477.4698"/>
</g>
<!-- reoblique (utils) -->
<g id="node6" class="node">
<title>reoblique (utils)</title>
<ellipse fill="none" stroke="#000000" cx="555" cy="-234" rx="85.2851" ry="18"/>
<text text-anchor="middle" x="555" y="-230.3" font-family="Times,serif" font-size="14.00" fill="#000000">reoblique (utils)</text>
</g>
<!-- inputnode (utility)&#45;&gt;reoblique (utils) -->
<g id="edge5" class="edge">
<title>inputnode (utility)&#45;&gt;reoblique (utils)</title>
<path fill="none" stroke="#000000" d="M419.1983,-731.6648C499.4724,-724.3868 610.0241,-709.9577 645,-684 680.9118,-657.3478 690,-638.7214 690,-594 690,-594 690,-594 690,-378 690,-337.1184 696.4377,-320.0036 671,-288 657.8743,-271.4863 638.525,-259.7936 619.3754,-251.6174"/>
<polygon fill="#000000" stroke="#000000" points="620.6038,-248.3393 610.0189,-247.8805 618.0074,-254.84 620.6038,-248.3393"/>
</g>
<!-- syn (fixes) -->
<g id="node7" class="node">
<title>syn (fixes)</title>
<ellipse fill="none" stroke="#000000" cx="424" cy="-378" rx="58.4896" ry="18"/>
<text text-anchor="middle" x="424" y="-374.3" font-family="Times,serif" font-size="14.00" fill="#000000">syn (fixes)</text>
</g>
<!-- inputnode (utility)&#45;&gt;syn (fixes) -->
<g id="edge6" class="edge">
<title>inputnode (utility)&#45;&gt;syn (fixes)</title>
<path fill="none" stroke="#000000" d="M416.4996,-730.5787C483.9037,-722.992 570.0956,-708.7298 595,-684 624.0092,-655.1942 614,-634.8816 614,-594 614,-594 614,-594 614,-522 614,-453.1384 533.7491,-412.9617 477.5578,-393.2704"/>
<polygon fill="#000000" stroke="#000000" points="478.6617,-389.949 468.0674,-390.057 476.4167,-396.5793 478.6617,-389.949"/>
</g>
<!-- unwarp_ref (fixes) -->
<g id="node8" class="node">
<title>unwarp_ref (fixes)</title>
<ellipse fill="none" stroke="#000000" cx="334" cy="-306" rx="95.5831" ry="18"/>
<text text-anchor="middle" x="334" y="-302.3" font-family="Times,serif" font-size="14.00" fill="#000000">unwarp_ref (fixes)</text>
</g>
<!-- inputnode (utility)&#45;&gt;unwarp_ref (fixes) -->
<g id="edge7" class="edge">
<title>inputnode (utility)&#45;&gt;unwarp_ref (fixes)</title>
<path fill="none" stroke="#000000" d="M245.0443,-729.9733C173.4225,-721.7495 77.8138,-706.8962 47,-684 10.7788,-657.0859 0,-639.1259 0,-594 0,-594 0,-594 0,-450 0,-393.5295 163.0349,-345.6761 261.2921,-321.9638"/>
<polygon fill="#000000" stroke="#000000" points="262.2617,-325.3308 271.1772,-319.6067 260.638,-318.5217 262.2617,-325.3308"/>
</g>
<!-- prior2epi (fixes) -->
<g id="node9" class="node">
<title>prior2epi (fixes)</title>
<ellipse fill="none" stroke="#000000" cx="421" cy="-594" rx="85.2851" ry="18"/>
<text text-anchor="middle" x="421" y="-590.3" font-family="Times,serif" font-size="14.00" fill="#000000">prior2epi (fixes)</text>
</g>
<!-- inputnode (utility)&#45;&gt;prior2epi (fixes) -->
<g id="edge8" class="edge">
<title>inputnode (utility)&#45;&gt;prior2epi (fixes)</title>
<path fill="none" stroke="#000000" d="M330.1594,-719.6864C331.1284,-700.4331 335.0043,-669.9474 349,-648 356.9096,-635.5966 368.7396,-625.0127 380.5366,-616.5876"/>
<polygon fill="#000000" stroke="#000000" points="382.7287,-619.3309 389.0643,-610.8392 378.816,-613.5265 382.7287,-619.3309"/>
</g>
<!-- extract_field (utility) -->
<g id="node10" class="node">
<title>extract_field (utility)</title>
<ellipse fill="none" stroke="#000000" cx="555" cy="-306" rx="107.4815" ry="18"/>
<text text-anchor="middle" x="555" y="-302.3" font-family="Times,serif" font-size="14.00" fill="#000000">extract_field (utility)</text>
</g>
<!-- inputnode (utility)&#45;&gt;extract_field (utility) -->
<g id="edge9" class="edge">
<title>inputnode (utility)&#45;&gt;extract_field (utility)</title>
<path fill="none" stroke="#000000" d="M417.5041,-730.9853C490.8086,-723.4489 588.1229,-709.0362 618,-684 650.7736,-656.5366 652,-636.7592 652,-594 652,-594 652,-594 652,-450 652,-401.5076 613.6938,-357.0953 585.226,-330.7851"/>
<polygon fill="#000000" stroke="#000000" points="587.2797,-327.9256 577.4976,-323.856 582.6068,-333.1375 587.2797,-327.9256"/>
</g>
<!-- transform_list (utility)&#45;&gt;prior2epi (fixes) -->
<g id="edge10" class="edge">
<title>transform_list (utility)&#45;&gt;prior2epi (fixes)</title>
<path fill="none" stroke="#000000" d="M459.1305,-647.8314C453.227,-639.497 446.1152,-629.4567 439.6406,-620.3162"/>
<polygon fill="#000000" stroke="#000000" points="442.325,-618.0506 433.6887,-611.9134 436.6128,-622.0967 442.325,-618.0506"/>
</g>
<!-- invert_t1w (image)&#45;&gt;anat2epi (fixes) -->
<g id="edge11" class="edge">
<title>invert_t1w (image)&#45;&gt;anat2epi (fixes)</title>
<path fill="none" stroke="#000000" d="M165,-647.8314C165,-640.131 165,-630.9743 165,-622.4166"/>
<polygon fill="#000000" stroke="#000000" points="168.5001,-622.4132 165,-612.4133 161.5001,-622.4133 168.5001,-622.4132"/>
</g>
<!-- anat2epi (fixes)&#45;&gt;deoblique (utils) -->
<g id="edge12" class="edge">
<title>anat2epi (fixes)&#45;&gt;deoblique (utils)</title>
<path fill="none" stroke="#000000" d="M186.2979,-576.2706C208.747,-557.7656 245.3164,-528.1362 278,-504 292.2766,-493.457 308.3949,-482.3097 322.3317,-472.8984"/>
<polygon fill="#000000" stroke="#000000" points="324.3414,-475.7648 330.6914,-467.2838 320.4385,-469.9538 324.3414,-475.7648"/>
</g>
<!-- deoblique (utils)&#45;&gt;syn (fixes) -->
<g id="edge13" class="edge">
<title>deoblique (utils)&#45;&gt;syn (fixes)</title>
<path fill="none" stroke="#000000" d="M373.5618,-432.2022C381.8176,-423.3303 391.936,-412.4569 400.9374,-402.7837"/>
<polygon fill="#000000" stroke="#000000" points="403.6098,-405.0496 407.8599,-395.3446 398.4853,-400.281 403.6098,-405.0496"/>
</g>
<!-- brainextraction_wf -->
<g id="node11" class="node">
<title>brainextraction_wf</title>
<ellipse fill="none" stroke="#000000" cx="555" cy="-162" rx="98.5829" ry="18"/>
<text text-anchor="middle" x="555" y="-158.3" font-family="Times,serif" font-size="14.00" fill="#000000">brainextraction_wf</text>
</g>
<!-- reoblique (utils)&#45;&gt;brainextraction_wf -->
<g id="edge14" class="edge">
<title>reoblique (utils)&#45;&gt;brainextraction_wf</title>
<path fill="none" stroke="#000000" d="M555,-215.8314C555,-208.131 555,-198.9743 555,-190.4166"/>
<polygon fill="#000000" stroke="#000000" points="558.5001,-190.4132 555,-180.4133 551.5001,-190.4133 558.5001,-190.4132"/>
</g>
<!-- bs_filter (bspline) -->
<g id="node12" class="node">
<title>bs_filter (bspline)</title>
<ellipse fill="none" stroke="#000000" cx="478" cy="-90" rx="92.8835" ry="18"/>
<text text-anchor="middle" x="478" y="-86.3" font-family="Times,serif" font-size="14.00" fill="#000000">bs_filter (bspline)</text>
</g>
<!-- reoblique (utils)&#45;&gt;bs_filter (bspline) -->
<g id="edge15" class="edge">
<title>reoblique (utils)&#45;&gt;bs_filter (bspline)</title>
<path fill="none" stroke="#000000" d="M500.3814,-220.034C479.9841,-211.8789 458.9027,-199.2589 447,-180 434.7744,-160.2186 445.355,-134.9915 457.3639,-116.282"/>
<polygon fill="#000000" stroke="#000000" points="460.322,-118.1571 463.0921,-107.9308 454.5494,-114.1976 460.322,-118.1571"/>
</g>
<!-- outputnode (utility) -->
<g id="node13" class="node">
<title>outputnode (utility)</title>
<ellipse fill="none" stroke="#000000" cx="599" cy="-18" rx="101.2821" ry="18"/>
<text text-anchor="middle" x="599" y="-14.3" font-family="Times,serif" font-size="14.00" fill="#000000">outputnode (utility)</text>
</g>
<!-- reoblique (utils)&#45;&gt;outputnode (utility) -->
<g id="edge16" class="edge">
<title>reoblique (utils)&#45;&gt;outputnode (utility)</title>
<path fill="none" stroke="#000000" d="M609.6186,-220.034C630.0159,-211.8789 651.0973,-199.2589 663,-180 690.5536,-135.4173 651.4663,-76.95 623.3415,-43.8316"/>
<polygon fill="#000000" stroke="#000000" points="625.693,-41.2038 616.4745,-35.9817 620.4243,-45.8127 625.693,-41.2038"/>
</g>
<!-- syn (fixes)&#45;&gt;unwarp_ref (fixes) -->
<g id="edge18" class="edge">
<title>syn (fixes)&#45;&gt;unwarp_ref (fixes)</title>
<path fill="none" stroke="#000000" d="M402.6713,-360.937C391.1583,-351.7266 376.7555,-340.2044 364.1175,-330.094"/>
<polygon fill="#000000" stroke="#000000" points="366.1107,-327.2064 356.1155,-323.6924 361.7378,-332.6725 366.1107,-327.2064"/>
</g>
<!-- syn (fixes)&#45;&gt;extract_field (utility) -->
<g id="edge17" class="edge">
<title>syn (fixes)&#45;&gt;extract_field (utility)</title>
<path fill="none" stroke="#000000" d="M452.7485,-362.1993C470.9056,-352.2198 494.6337,-339.1784 514.6609,-328.1711"/>
<polygon fill="#000000" stroke="#000000" points="516.4911,-331.1591 523.5689,-323.2751 513.1194,-325.0245 516.4911,-331.1591"/>
</g>
<!-- unwarp_ref (fixes)&#45;&gt;reoblique (utils) -->
<g id="edge19" class="edge">
<title>unwarp_ref (fixes)&#45;&gt;reoblique (utils)</title>
<path fill="none" stroke="#000000" d="M381.9537,-290.3771C416.1853,-279.2247 462.3577,-264.1821 498.3988,-252.4402"/>
<polygon fill="#000000" stroke="#000000" points="499.8533,-255.6475 508.2772,-249.2219 497.6849,-248.9918 499.8533,-255.6475"/>
</g>
<!-- atlas_msk (nibabel) -->
<g id="node14" class="node">
<title>atlas_msk (nibabel)</title>
<ellipse fill="none" stroke="#000000" cx="421" cy="-522" rx="101.2821" ry="18"/>
<text text-anchor="middle" x="421" y="-518.3" font-family="Times,serif" font-size="14.00" fill="#000000">atlas_msk (nibabel)</text>
</g>
<!-- prior2epi (fixes)&#45;&gt;atlas_msk (nibabel) -->
<g id="edge20" class="edge">
<title>prior2epi (fixes)&#45;&gt;atlas_msk (nibabel)</title>
<path fill="none" stroke="#000000" d="M421,-575.8314C421,-568.131 421,-558.9743 421,-550.4166"/>
<polygon fill="#000000" stroke="#000000" points="424.5001,-550.4132 421,-540.4133 417.5001,-550.4133 424.5001,-550.4132"/>
</g>
<!-- extract_field (utility)&#45;&gt;reoblique (utils) -->
<g id="edge21" class="edge">
<title>extract_field (utility)&#45;&gt;reoblique (utils)</title>
<path fill="none" stroke="#000000" d="M555,-287.8314C555,-280.131 555,-270.9743 555,-262.4166"/>
<polygon fill="#000000" stroke="#000000" points="558.5001,-262.4132 555,-252.4133 551.5001,-262.4133 558.5001,-262.4132"/>
</g>
<!-- brainextraction_wf&#45;&gt;bs_filter (bspline) -->
<g id="edge22" class="edge">
<title>brainextraction_wf&#45;&gt;bs_filter (bspline)</title>
<path fill="none" stroke="#000000" d="M535.9663,-144.2022C526.5263,-135.3752 514.9673,-124.5669 504.662,-114.9307"/>
<polygon fill="#000000" stroke="#000000" points="506.7764,-112.116 497.0816,-107.8425 501.9954,-117.229 506.7764,-112.116"/>
</g>
<!-- brainextraction_wf&#45;&gt;outputnode (utility) -->
<g id="edge23" class="edge">
<title>brainextraction_wf&#45;&gt;outputnode (utility)</title>
<path fill="none" stroke="#000000" d="M564.6174,-143.9237C569.7748,-133.6273 575.8952,-120.3528 580,-108 586.704,-87.8254 591.5735,-64.2954 594.7037,-46.3553"/>
<polygon fill="#000000" stroke="#000000" points="598.1967,-46.6864 596.3875,-36.2472 591.2918,-45.5362 598.1967,-46.6864"/>
</g>
<!-- bs_filter (bspline)&#45;&gt;outputnode (utility) -->
<g id="edge24" class="edge">
<title>bs_filter (bspline)&#45;&gt;outputnode (utility)</title>
<path fill="none" stroke="#000000" d="M506.9825,-72.7542C523.1767,-63.118 543.5509,-50.9945 561.0087,-40.6064"/>
<polygon fill="#000000" stroke="#000000" points="563.0307,-43.476 569.8346,-35.3546 559.4511,-37.4605 563.0307,-43.476"/>
</g>
<!-- atlas_msk (nibabel)&#45;&gt;deoblique (utils) -->
<g id="edge25" class="edge">
<title>atlas_msk (nibabel)&#45;&gt;deoblique (utils)</title>
<path fill="none" stroke="#000000" d="M405.1798,-504.2022C397.4874,-495.5483 388.1022,-484.99 379.6656,-475.4988"/>
<polygon fill="#000000" stroke="#000000" points="382.1197,-472.9914 372.86,-467.8425 376.8878,-477.6419 382.1197,-472.9914"/>
</g>
</g>
</svg>
