<?xml version="1.0" encoding="UTF-8" standalone="no"?>
<!DOCTYPE svg PUBLIC "-//W3C//DTD SVG 1.1//EN"
 "http://www.w3.org/Graphics/SVG/1.1/DTD/svg11.dtd">
<!-- Generated by graphviz version 2.40.1 (20161225.0304)
 -->
<!-- Title: %3 Pages: 1 -->
<svg width="357pt" height="404pt"
 viewBox="0.00 0.00 356.98 404.00" xmlns="http://www.w3.org/2000/svg" xmlns:xlink="http://www.w3.org/1999/xlink">
<g id="graph0" class="graph" transform="scale(1 1) rotate(0) translate(4 400)">
<title>%3</title>
<polygon fill="#ffffff" stroke="transparent" points="-4,4 -4,-400 352.9815,-400 352.9815,4 -4,4"/>
<!-- inputnode (utility) -->
<g id="node1" class="node">
<title>inputnode (utility)</title>
<ellipse fill="none" stroke="#000000" cx="254.09" cy="-378" rx="94.7833" ry="18"/>
<text text-anchor="middle" x="254.09" y="-374.3" font-family="Times,serif" font-size="14.00" fill="#000000">inputnode (utility)</text>
</g>
<!-- split (utility) -->
<g id="node2" class="node">
<title>split (utility)</title>
<ellipse fill="none" stroke="#000000" cx="135.09" cy="-306" rx="68.7879" ry="18"/>
<text text-anchor="middle" x="135.09" y="-302.3" font-family="Times,serif" font-size="14.00" fill="#000000">split (utility)</text>
</g>
<!-- inputnode (utility)&#45;&gt;split (utility) -->
<g id="edge1" class="edge">
<title>inputnode (utility)&#45;&gt;split (utility)</title>
<path fill="none" stroke="#000000" d="M225.5865,-360.7542C209.3087,-350.9054 188.7366,-338.4585 171.3214,-327.9215"/>
<polygon fill="#000000" stroke="#000000" points="172.9093,-324.7915 162.5416,-322.6094 169.2856,-330.7806 172.9093,-324.7915"/>
</g>
<!-- op2ref_reg (ants) -->
<g id="node3" class="node">
<title>op2ref_reg (ants)</title>
<ellipse fill="none" stroke="#000000" cx="173.09" cy="-90" rx="90.9839" ry="18"/>
<text text-anchor="middle" x="173.09" y="-86.3" font-family="Times,serif" font-size="14.00" fill="#000000">op2ref_reg (ants)</text>
</g>
<!-- inputnode (utility)&#45;&gt;op2ref_reg (ants) -->
<g id="edge2" class="edge">
<title>inputnode (utility)&#45;&gt;op2ref_reg (ants)</title>
<path fill="none" stroke="#000000" d="M253.4572,-359.7516C252.0737,-329.4712 247.8054,-267.1132 235.09,-216 226.8012,-182.6809 222.5295,-174.6673 207.09,-144 202.4312,-134.7464 196.6391,-125.0476 191.1634,-116.4637"/>
<polygon fill="#000000" stroke="#000000" points="194.0283,-114.4494 185.6323,-107.9873 188.1659,-118.2747 194.0283,-114.4494"/>
</g>
<!-- outputnode (utility) -->
<g id="node4" class="node">
<title>outputnode (utility)</title>
<ellipse fill="none" stroke="#000000" cx="232.09" cy="-18" rx="101.2821" ry="18"/>
<text text-anchor="middle" x="232.09" y="-14.3" font-family="Times,serif" font-size="14.00" fill="#000000">outputnode (utility)</text>
</g>
<!-- inputnode (utility)&#45;&gt;outputnode (utility) -->
<g id="edge3" class="edge">
<title>inputnode (utility)&#45;&gt;outputnode (utility)</title>
<path fill="none" stroke="#000000" d="M262.1488,-359.7668C273.3033,-332.8248 292.09,-280.5405 292.09,-234 292.09,-234 292.09,-234 292.09,-162 292.09,-121.1184 290.0851,-109.1817 273.09,-72 268.6125,-62.2043 262.098,-52.5125 255.5745,-44.1017"/>
<polygon fill="#000000" stroke="#000000" points="258.1456,-41.7156 249.1233,-36.1615 252.7127,-46.1297 258.1456,-41.7156"/>
</g>
<!-- merge_op (freesurfer) -->
<g id="node5" class="node">
<title>merge_op (freesurfer)</title>
<ellipse fill="none" stroke="#000000" cx="113.09" cy="-234" rx="113.18" ry="18"/>
<text text-anchor="middle" x="113.09" y="-230.3" font-family="Times,serif" font-size="14.00" fill="#000000">merge_op (freesurfer)</text>
</g>
<!-- split (utility)&#45;&gt;merge_op (freesurfer) -->
<g id="edge4" class="edge">
<title>split (utility)&#45;&gt;merge_op (freesurfer)</title>
<path fill="none" stroke="#000000" d="M129.5384,-287.8314C127.1597,-280.0463 124.3261,-270.7729 121.6867,-262.1347"/>
<polygon fill="#000000" stroke="#000000" points="124.9857,-260.954 118.7162,-252.4133 118.2913,-262.9996 124.9857,-260.954"/>
</g>
<!-- op2ref_reg (ants)&#45;&gt;outputnode (utility) -->
<g id="edge5" class="edge">
<title>op2ref_reg (ants)&#45;&gt;outputnode (utility)</title>
<path fill="none" stroke="#000000" d="M187.6742,-72.2022C194.6948,-63.6348 203.2447,-53.2009 210.9615,-43.7839"/>
<polygon fill="#000000" stroke="#000000" points="213.8379,-45.7957 217.469,-35.8425 208.4235,-41.359 213.8379,-45.7957"/>
</g>
<!-- ref_op_wf -->
<g id="node6" class="node">
<title>ref_op_wf</title>
<ellipse fill="none" stroke="#000000" cx="142.09" cy="-162" rx="55.7903" ry="18"/>
<text text-anchor="middle" x="142.09" y="-158.3" font-family="Times,serif" font-size="14.00" fill="#000000">ref_op_wf</text>
</g>
<!-- merge_op (freesurfer)&#45;&gt;ref_op_wf -->
<g id="edge6" class="edge">
<title>merge_op (freesurfer)&#45;&gt;ref_op_wf</title>
<path fill="none" stroke="#000000" d="M120.4079,-215.8314C123.6264,-207.8406 127.4764,-198.2819 131.0332,-189.4514"/>
<polygon fill="#000000" stroke="#000000" points="134.3852,-190.4969 134.8748,-179.9134 127.8921,-187.8816 134.3852,-190.4969"/>
</g>
<!-- ref_op_wf&#45;&gt;op2ref_reg (ants) -->
<g id="edge7" class="edge">
<title>ref_op_wf&#45;&gt;op2ref_reg (ants)</title>
<path fill="none" stroke="#000000" d="M149.9126,-143.8314C153.3009,-135.9617 157.3441,-126.5712 161.0976,-117.8533"/>
<polygon fill="#000000" stroke="#000000" points="164.4221,-118.9822 165.162,-108.4133 157.9927,-116.214 164.4221,-118.9822"/>
</g>
</g>
</svg>
