<?xml version="1.0" encoding="UTF-8" standalone="no"?>
<!DOCTYPE svg PUBLIC "-//W3C//DTD SVG 1.1//EN"
 "http://www.w3.org/Graphics/SVG/1.1/DTD/svg11.dtd">
<!-- Generated by graphviz version 2.40.1 (20161225.0304)
 -->
<!-- Title: structs Pages: 1 -->
<svg width="1137pt" height="723pt"
 viewBox="0.00 0.00 1136.60 723.00" xmlns="http://www.w3.org/2000/svg" xmlns:xlink="http://www.w3.org/1999/xlink">
<g id="graph0" class="graph" transform="scale(1 1) rotate(0) translate(4 719)">
<title>structs</title>
<polygon fill="#ffffff" stroke="transparent" points="-4,4 -4,-719 1132.5994,-719 1132.5994,4 -4,4"/>
<!-- unwarp_wfinputnode -->
<g id="node1" class="node">
<title>unwarp_wfinputnode</title>
<polygon fill="none" stroke="#000000" points="104.0994,-622.5 104.0994,-714.5 323.0994,-714.5 323.0994,-622.5 104.0994,-622.5"/>
<text text-anchor="middle" x="121.5994" y="-664.8" font-family="Times,serif" font-size="14.00" fill="#000000">IN</text>
<polyline fill="none" stroke="#000000" points="139.0994,-622.5 139.0994,-714.5 "/>
<text text-anchor="middle" x="183.5994" y="-695.8" font-family="Times,serif" font-size="14.00" fill="#000000">inputnode</text>
<polyline fill="none" stroke="#000000" points="139.0994,-684.5 228.0994,-684.5 "/>
<text text-anchor="middle" x="183.5994" y="-665.3" font-family="Times,serif" font-size="14.00" fill="#000000">utility</text>
<polyline fill="none" stroke="#000000" points="139.0994,-653.5 228.0994,-653.5 "/>
<text text-anchor="middle" x="183.5994" y="-634.3" font-family="Times,serif" font-size="14.00" fill="#000000"> </text>
<polyline fill="none" stroke="#000000" points="228.0994,-622.5 228.0994,-714.5 "/>
<text text-anchor="middle" x="275.5994" y="-699.3" font-family="Times,serif" font-size="14.00" fill="#000000">OUT</text>
<polyline fill="none" stroke="#000000" points="228.0994,-691.5 323.0994,-691.5 "/>
<text text-anchor="middle" x="275.5994" y="-676.3" font-family="Times,serif" font-size="14.00" fill="#000000">distorted</text>
<polyline fill="none" stroke="#000000" points="228.0994,-668.5 323.0994,-668.5 "/>
<text text-anchor="middle" x="275.5994" y="-653.3" font-family="Times,serif" font-size="14.00" fill="#000000">fmap_coeff</text>
<polyline fill="none" stroke="#000000" points="228.0994,-645.5 323.0994,-645.5 "/>
<text text-anchor="middle" x="275.5994" y="-630.3" font-family="Times,serif" font-size="14.00" fill="#000000">metadata</text>
</g>
<!-- unwarp_wfrotime -->
<g id="node2" class="node">
<title>unwarp_wfrotime</title>
<polygon fill="none" stroke="#000000" points="16.5994,-516.5 16.5994,-585.5 276.5994,-585.5 276.5994,-516.5 16.5994,-516.5"/>
<text text-anchor="middle" x="58.5994" y="-570.3" font-family="Times,serif" font-size="14.00" fill="#000000">IN</text>
<polyline fill="none" stroke="#000000" points="16.5994,-562.5 100.5994,-562.5 "/>
<text text-anchor="middle" x="58.5994" y="-547.3" font-family="Times,serif" font-size="14.00" fill="#000000">in_file</text>
<polyline fill="none" stroke="#000000" points="16.5994,-539.5 100.5994,-539.5 "/>
<text text-anchor="middle" x="58.5994" y="-524.3" font-family="Times,serif" font-size="14.00" fill="#000000">metadata</text>
<polyline fill="none" stroke="#000000" points="100.5994,-516.5 100.5994,-585.5 "/>
<text text-anchor="middle" x="132.5994" y="-570.3" font-family="Times,serif" font-size="14.00" fill="#000000">rotime</text>
<polyline fill="none" stroke="#000000" points="100.5994,-562.5 164.5994,-562.5 "/>
<text text-anchor="middle" x="132.5994" y="-547.3" font-family="Times,serif" font-size="14.00" fill="#000000">epi</text>
<polyline fill="none" stroke="#000000" points="100.5994,-539.5 164.5994,-539.5 "/>
<text text-anchor="middle" x="132.5994" y="-524.3" font-family="Times,serif" font-size="14.00" fill="#000000"> </text>
<polyline fill="none" stroke="#000000" points="164.5994,-516.5 164.5994,-585.5 "/>
<text text-anchor="middle" x="220.5994" y="-570.3" font-family="Times,serif" font-size="14.00" fill="#000000">OUT</text>
<polyline fill="none" stroke="#000000" points="164.5994,-562.5 276.5994,-562.5 "/>
<text text-anchor="middle" x="220.5994" y="-547.3" font-family="Times,serif" font-size="14.00" fill="#000000">pe_direction</text>
<polyline fill="none" stroke="#000000" points="164.5994,-539.5 276.5994,-539.5 "/>
<text text-anchor="middle" x="220.5994" y="-524.3" font-family="Times,serif" font-size="14.00" fill="#000000">readout_time</text>
</g>
<!-- unwarp_wfinputnode&#45;&gt;unwarp_wfrotime -->
<g id="edge3" class="edge">
<title>unwarp_wfinputnode:e&#45;&gt;unwarp_wfrotime:w</title>
<path fill="none" stroke="#000000" d="M323.5994,-680.5C349.5994,-680.5 340.8804,-641.4259 323.5994,-622 232.2894,-519.357 107.9094,-688.643 16.5994,-586 9.3297,-577.828 4.5926,-563.8444 7.828,-556.2619"/>
<polygon fill="#000000" stroke="#000000" points="9.8246,-559.1457 16.5994,-551 6.2235,-553.1429 9.8246,-559.1457"/>
</g>
<!-- unwarp_wfinputnode&#45;&gt;unwarp_wfrotime -->
<g id="edge7" class="edge">
<title>unwarp_wfinputnode:e&#45;&gt;unwarp_wfrotime:w</title>
<path fill="none" stroke="#000000" d="M323.5994,-633.5C328.7105,-633.5 326.9965,-625.8188 323.5994,-622 232.2894,-519.357 107.9094,-688.643 16.5994,-586 2.1431,-569.7495 -6.2697,-539.6307 6.9383,-530.6153"/>
<polygon fill="#000000" stroke="#000000" points="7.8614,-533.9915 16.5994,-528 6.0322,-527.2347 7.8614,-533.9915"/>
</g>
<!-- unwarp_wfresample -->
<g id="node3" class="node">
<title>unwarp_wfresample</title>
<polygon fill="none" stroke="#000000" points="276.5994,-364.5 276.5994,-479.5 524.5994,-479.5 524.5994,-364.5 276.5994,-364.5"/>
<text text-anchor="middle" x="317.5994" y="-464.3" font-family="Times,serif" font-size="14.00" fill="#000000">IN</text>
<polyline fill="none" stroke="#000000" points="276.5994,-456.5 358.5994,-456.5 "/>
<text text-anchor="middle" x="317.5994" y="-441.3" font-family="Times,serif" font-size="14.00" fill="#000000">in_coeff</text>
<polyline fill="none" stroke="#000000" points="276.5994,-433.5 358.5994,-433.5 "/>
<text text-anchor="middle" x="317.5994" y="-418.3" font-family="Times,serif" font-size="14.00" fill="#000000">in_target</text>
<polyline fill="none" stroke="#000000" points="276.5994,-410.5 358.5994,-410.5 "/>
<text text-anchor="middle" x="317.5994" y="-395.3" font-family="Times,serif" font-size="14.00" fill="#000000">pe_dir</text>
<polyline fill="none" stroke="#000000" points="276.5994,-387.5 358.5994,-387.5 "/>
<text text-anchor="middle" x="317.5994" y="-372.3" font-family="Times,serif" font-size="14.00" fill="#000000">ro_time</text>
<polyline fill="none" stroke="#000000" points="358.5994,-364.5 358.5994,-479.5 "/>
<text text-anchor="middle" x="400.0994" y="-456.8" font-family="Times,serif" font-size="14.00" fill="#000000">resample</text>
<polyline fill="none" stroke="#000000" points="358.5994,-441.5 441.5994,-441.5 "/>
<text text-anchor="middle" x="400.0994" y="-418.8" font-family="Times,serif" font-size="14.00" fill="#000000">bspline</text>
<polyline fill="none" stroke="#000000" points="358.5994,-403.5 441.5994,-403.5 "/>
<text text-anchor="middle" x="400.0994" y="-380.3" font-family="Times,serif" font-size="14.00" fill="#000000"> </text>
<polyline fill="none" stroke="#000000" points="441.5994,-364.5 441.5994,-479.5 "/>
<text text-anchor="middle" x="483.0994" y="-456.8" font-family="Times,serif" font-size="14.00" fill="#000000">OUT</text>
<polyline fill="none" stroke="#000000" points="441.5994,-441.5 524.5994,-441.5 "/>
<text text-anchor="middle" x="483.0994" y="-418.8" font-family="Times,serif" font-size="14.00" fill="#000000">out_field</text>
<polyline fill="none" stroke="#000000" points="441.5994,-403.5 524.5994,-403.5 "/>
<text text-anchor="middle" x="483.0994" y="-380.3" font-family="Times,serif" font-size="14.00" fill="#000000">out_warp</text>
</g>
<!-- unwarp_wfinputnode&#45;&gt;unwarp_wfresample -->
<g id="edge2" class="edge">
<title>unwarp_wfinputnode:e&#45;&gt;unwarp_wfresample:w</title>
<path fill="none" stroke="#000000" d="M323.5994,-680.5C344.0477,-680.5 347.8005,-575.7397 318.5994,-516 307.8027,-493.9121 286.8726,-502.3362 276.5994,-480 267.6793,-460.6058 255.855,-433.5574 266.6936,-424.8324"/>
<polygon fill="#000000" stroke="#000000" points="267.9469,-428.1144 276.5994,-422 266.0225,-421.3841 267.9469,-428.1144"/>
</g>
<!-- unwarp_wfinputnode&#45;&gt;unwarp_wfresample -->
<g id="edge6" class="edge">
<title>unwarp_wfinputnode:e&#45;&gt;unwarp_wfresample:w</title>
<path fill="none" stroke="#000000" d="M323.5994,-656.5C338.9327,-656.5 326.0395,-637.1379 323.5994,-622 318.3098,-589.1845 281.889,-512.8155 276.5994,-480 275.0329,-470.2817 269.2197,-458.8473 269.1039,-451.7605"/>
<polygon fill="#000000" stroke="#000000" points="271.5177,-454.2966 276.5994,-445 266.8294,-449.0986 271.5177,-454.2966"/>
</g>
<!-- unwarp_wfunwarp -->
<g id="node4" class="node">
<title>unwarp_wfunwarp</title>
<polygon fill="none" stroke="#000000" points="553.0994,-235.5 553.0994,-327.5 876.0994,-327.5 876.0994,-235.5 553.0994,-235.5"/>
<text text-anchor="middle" x="621.5994" y="-312.3" font-family="Times,serif" font-size="14.00" fill="#000000">IN</text>
<polyline fill="none" stroke="#000000" points="553.0994,-304.5 690.0994,-304.5 "/>
<text text-anchor="middle" x="621.5994" y="-289.3" font-family="Times,serif" font-size="14.00" fill="#000000">input_image</text>
<polyline fill="none" stroke="#000000" points="553.0994,-281.5 690.0994,-281.5 "/>
<text text-anchor="middle" x="621.5994" y="-266.3" font-family="Times,serif" font-size="14.00" fill="#000000">reference_image</text>
<polyline fill="none" stroke="#000000" points="553.0994,-258.5 690.0994,-258.5 "/>
<text text-anchor="middle" x="621.5994" y="-243.3" font-family="Times,serif" font-size="14.00" fill="#000000">transforms</text>
<polyline fill="none" stroke="#000000" points="690.0994,-235.5 690.0994,-327.5 "/>
<text text-anchor="middle" x="725.5994" y="-308.8" font-family="Times,serif" font-size="14.00" fill="#000000">unwarp</text>
<polyline fill="none" stroke="#000000" points="690.0994,-297.5 761.0994,-297.5 "/>
<text text-anchor="middle" x="725.5994" y="-278.3" font-family="Times,serif" font-size="14.00" fill="#000000">fixes</text>
<polyline fill="none" stroke="#000000" points="690.0994,-266.5 761.0994,-266.5 "/>
<text text-anchor="middle" x="725.5994" y="-247.3" font-family="Times,serif" font-size="14.00" fill="#000000"> </text>
<polyline fill="none" stroke="#000000" points="761.0994,-235.5 761.0994,-327.5 "/>
<text text-anchor="middle" x="818.5994" y="-300.8" font-family="Times,serif" font-size="14.00" fill="#000000">OUT</text>
<polyline fill="none" stroke="#000000" points="761.0994,-281.5 876.0994,-281.5 "/>
<text text-anchor="middle" x="818.5994" y="-254.8" font-family="Times,serif" font-size="14.00" fill="#000000">output_image</text>
</g>
<!-- unwarp_wfinputnode&#45;&gt;unwarp_wfunwarp -->
<g id="edge4" class="edge">
<title>unwarp_wfinputnode:e&#45;&gt;unwarp_wfunwarp:w</title>
<path fill="none" stroke="#000000" d="M323.5994,-680.5C381.539,-680.5 533.8865,-633.8212 566.5994,-586 622.3069,-504.5642 584.792,-460.9749 566.5994,-364 561.5835,-337.2631 531.7928,-304.9388 542.7859,-295.9316"/>
<polygon fill="#000000" stroke="#000000" points="543.7347,-299.3024 552.5994,-293.5 542.0511,-292.5079 543.7347,-299.3024"/>
</g>
<!-- unwarp_wfinputnode&#45;&gt;unwarp_wfunwarp -->
<g id="edge5" class="edge">
<title>unwarp_wfinputnode:e&#45;&gt;unwarp_wfunwarp:w</title>
<path fill="none" stroke="#000000" d="M323.5994,-680.5C452.6416,-680.5 477.5545,-596.2363 533.5994,-480 542.5637,-461.4081 532.3067,-312.891 545.6352,-277.1947"/>
<polygon fill="#000000" stroke="#000000" points="548.484,-279.2629 552.5994,-269.5 543.294,-274.5656 548.484,-279.2629"/>
</g>
<!-- unwarp_wfrotime&#45;&gt;unwarp_wfresample -->
<g id="edge10" class="edge">
<title>unwarp_wfrotime:e&#45;&gt;unwarp_wfresample:w</title>
<path fill="none" stroke="#000000" d="M276.5994,-551C276.5994,-551 276.5994,-443.7887 276.5994,-409.4476"/>
<polygon fill="#000000" stroke="#000000" points="280.0995,-409 276.5994,-399 273.0995,-409 280.0995,-409"/>
</g>
<!-- unwarp_wfrotime&#45;&gt;unwarp_wfresample -->
<g id="edge11" class="edge">
<title>unwarp_wfrotime:e&#45;&gt;unwarp_wfresample:w</title>
<path fill="none" stroke="#000000" d="M276.5994,-528C276.5994,-528 276.5994,-420.7887 276.5994,-386.4476"/>
<polygon fill="#000000" stroke="#000000" points="280.0995,-386 276.5994,-376 273.0995,-386 280.0995,-386"/>
</g>
<!-- unwarp_wfresample&#45;&gt;unwarp_wfunwarp -->
<g id="edge9" class="edge">
<title>unwarp_wfresample:e&#45;&gt;unwarp_wfunwarp:w</title>
<path fill="none" stroke="#000000" d="M524.5994,-384C537.4268,-384 535.9562,-340.5521 538.5994,-328 541.6465,-313.5301 536.9559,-269.5747 544.5824,-252.9565"/>
<polygon fill="#000000" stroke="#000000" points="547.0064,-255.4983 552.5994,-246.5 542.6158,-250.0465 547.0064,-255.4983"/>
</g>
<!-- unwarp_wfoutputnode -->
<g id="node6" class="node">
<title>unwarp_wfoutputnode</title>
<polygon fill="none" stroke="#000000" points="848.5994,-.5 848.5994,-92.5 1128.5994,-92.5 1128.5994,-.5 848.5994,-.5"/>
<text text-anchor="middle" x="914.5994" y="-77.3" font-family="Times,serif" font-size="14.00" fill="#000000">IN</text>
<polyline fill="none" stroke="#000000" points="848.5994,-69.5 980.5994,-69.5 "/>
<text text-anchor="middle" x="914.5994" y="-54.3" font-family="Times,serif" font-size="14.00" fill="#000000">corrected</text>
<polyline fill="none" stroke="#000000" points="848.5994,-46.5 980.5994,-46.5 "/>
<text text-anchor="middle" x="914.5994" y="-31.3" font-family="Times,serif" font-size="14.00" fill="#000000">corrected_mask</text>
<polyline fill="none" stroke="#000000" points="848.5994,-23.5 980.5994,-23.5 "/>
<text text-anchor="middle" x="914.5994" y="-8.3" font-family="Times,serif" font-size="14.00" fill="#000000">fieldmap</text>
<polyline fill="none" stroke="#000000" points="980.5994,-.5 980.5994,-92.5 "/>
<text text-anchor="middle" x="1029.5994" y="-73.8" font-family="Times,serif" font-size="14.00" fill="#000000">outputnode</text>
<polyline fill="none" stroke="#000000" points="980.5994,-62.5 1078.5994,-62.5 "/>
<text text-anchor="middle" x="1029.5994" y="-43.3" font-family="Times,serif" font-size="14.00" fill="#000000">utility</text>
<polyline fill="none" stroke="#000000" points="980.5994,-31.5 1078.5994,-31.5 "/>
<text text-anchor="middle" x="1029.5994" y="-12.3" font-family="Times,serif" font-size="14.00" fill="#000000"> </text>
<polyline fill="none" stroke="#000000" points="1078.5994,-.5 1078.5994,-92.5 "/>
<text text-anchor="middle" x="1103.5994" y="-42.8" font-family="Times,serif" font-size="14.00" fill="#000000">OUT</text>
</g>
<!-- unwarp_wfresample&#45;&gt;unwarp_wfoutputnode -->
<g id="edge8" class="edge">
<title>unwarp_wfresample:e&#45;&gt;unwarp_wfoutputnode:w</title>
<path fill="none" stroke="#000000" d="M524.5994,-423C531.1785,-423 528.9416,-370.5461 529.5994,-364 535.3705,-306.5696 515.6048,-284.9086 544.5994,-235 627.1118,-92.9711 678.7539,-14.7476 838.4268,-11.5989"/>
<polygon fill="#000000" stroke="#000000" points="838.6339,-15.0972 848.5994,-11.5 838.5658,-8.0975 838.6339,-15.0972"/>
</g>
<!-- unwarp_wfepi_mask -->
<g id="node5" class="node">
<title>unwarp_wfepi_mask</title>
<polygon fill="none" stroke="#000000" points="876.5994,-129.5 876.5994,-198.5 1090.5994,-198.5 1090.5994,-129.5 876.5994,-129.5"/>
<text text-anchor="middle" x="906.5994" y="-177.8" font-family="Times,serif" font-size="14.00" fill="#000000">IN</text>
<polyline fill="none" stroke="#000000" points="876.5994,-164.5 936.5994,-164.5 "/>
<text text-anchor="middle" x="906.5994" y="-143.3" font-family="Times,serif" font-size="14.00" fill="#000000">in_file</text>
<polyline fill="none" stroke="#000000" points="936.5994,-129.5 936.5994,-198.5 "/>
<text text-anchor="middle" x="978.5994" y="-183.3" font-family="Times,serif" font-size="14.00" fill="#000000">epi_mask</text>
<polyline fill="none" stroke="#000000" points="936.5994,-175.5 1020.5994,-175.5 "/>
<text text-anchor="middle" x="978.5994" y="-160.3" font-family="Times,serif" font-size="14.00" fill="#000000">epi</text>
<polyline fill="none" stroke="#000000" points="936.5994,-152.5 1020.5994,-152.5 "/>
<text text-anchor="middle" x="978.5994" y="-137.3" font-family="Times,serif" font-size="14.00" fill="#000000"> </text>
<polyline fill="none" stroke="#000000" points="1020.5994,-129.5 1020.5994,-198.5 "/>
<text text-anchor="middle" x="1055.5994" y="-177.8" font-family="Times,serif" font-size="14.00" fill="#000000">OUT</text>
<polyline fill="none" stroke="#000000" points="1020.5994,-164.5 1090.5994,-164.5 "/>
<text text-anchor="middle" x="1055.5994" y="-143.3" font-family="Times,serif" font-size="14.00" fill="#000000">out_file</text>
</g>
<!-- unwarp_wfunwarp&#45;&gt;unwarp_wfepi_mask -->
<g id="edge12" class="edge">
<title>unwarp_wfunwarp:e&#45;&gt;unwarp_wfepi_mask:w</title>
<path fill="none" stroke="#000000" d="M876.5994,-258.5C897.4089,-258.5 865.7882,-179.8549 869.8037,-154.6638"/>
<polygon fill="#000000" stroke="#000000" points="872.5835,-156.8043 876.5994,-147 867.346,-152.16 872.5835,-156.8043"/>
</g>
<!-- unwarp_wfunwarp&#45;&gt;unwarp_wfoutputnode -->
<g id="edge13" class="edge">
<title>unwarp_wfunwarp:e&#45;&gt;unwarp_wfoutputnode:w</title>
<path fill="none" stroke="#000000" d="M876.5994,-258.5C887.0438,-258.5 877.8755,-245.3662 876.5994,-235 874.5843,-218.6311 871.0563,-215.1261 867.5994,-199 857.5673,-152.2012 852.8383,-140.6739 848.5994,-93 847.7613,-83.5736 842.1169,-72.6412 841.5232,-65.6524"/>
<polygon fill="#000000" stroke="#000000" points="844.0544,-68.0705 848.5994,-58.5 839.0782,-63.1473 844.0544,-68.0705"/>
</g>
<!-- unwarp_wfepi_mask&#45;&gt;unwarp_wfoutputnode -->
<g id="edge1" class="edge">
<title>unwarp_wfepi_mask:e&#45;&gt;unwarp_wfoutputnode:w</title>
<path fill="none" stroke="#000000" d="M1090.5994,-147C1098.5994,-147 1095.8235,-135.0588 1090.5994,-129 1019.5911,-46.647 919.6078,-175.353 848.5994,-93 834.2739,-76.3858 825.6129,-46.1611 838.8737,-37.1215"/>
<polygon fill="#000000" stroke="#000000" points="839.8549,-40.482 848.5994,-34.5 838.0331,-33.7232 839.8549,-40.482"/>
</g>
</g>
</svg>
