<?xml version="1.0" encoding="UTF-8" standalone="no"?>
<!DOCTYPE svg PUBLIC "-//W3C//DTD SVG 1.1//EN"
 "http://www.w3.org/Graphics/SVG/1.1/DTD/svg11.dtd">
<!-- Generated by graphviz version 2.40.1 (20161225.0304)
 -->
<!-- Title: %3 Pages: 1 -->
<svg width="684pt" height="476pt"
 viewBox="0.00 0.00 683.93 476.00" xmlns="http://www.w3.org/2000/svg" xmlns:xlink="http://www.w3.org/1999/xlink">
<g id="graph0" class="graph" transform="scale(1 1) rotate(0) translate(4 472)">
<title>%3</title>
<polygon fill="#ffffff" stroke="transparent" points="-4,4 -4,-472 679.9314,-472 679.9314,4 -4,4"/>
<!-- inputnode (utility) -->
<g id="node1" class="node">
<title>inputnode (utility)</title>
<ellipse fill="none" stroke="#000000" cx="446.3899" cy="-450" rx="94.7833" ry="18"/>
<text text-anchor="middle" x="446.3899" y="-446.3" font-family="Times,serif" font-size="14.00" fill="#000000">inputnode (utility)</text>
</g>
<!-- transform_list (utility) -->
<g id="node2" class="node">
<title>transform_list (utility)</title>
<ellipse fill="none" stroke="#000000" cx="114.3899" cy="-378" rx="114.2798" ry="18"/>
<text text-anchor="middle" x="114.3899" y="-374.3" font-family="Times,serif" font-size="14.00" fill="#000000">transform_list (utility)</text>
</g>
<!-- inputnode (utility)&#45;&gt;transform_list (utility) -->
<g id="edge1" class="edge">
<title>inputnode (utility)&#45;&gt;transform_list (utility)</title>
<path fill="none" stroke="#000000" d="M383.5529,-436.3727C329.0853,-424.5605 250.0676,-407.4241 191.7279,-394.7721"/>
<polygon fill="#000000" stroke="#000000" points="192.3338,-391.3222 181.8192,-392.6232 190.8502,-398.1632 192.3338,-391.3222"/>
</g>
<!-- invert_t1w (image) -->
<g id="node3" class="node">
<title>invert_t1w (image)</title>
<ellipse fill="none" stroke="#000000" cx="383.3899" cy="-378" rx="98.5829" ry="18"/>
<text text-anchor="middle" x="383.3899" y="-374.3" font-family="Times,serif" font-size="14.00" fill="#000000">invert_t1w (image)</text>
</g>
<!-- inputnode (utility)&#45;&gt;invert_t1w (image) -->
<g id="edge2" class="edge">
<title>inputnode (utility)&#45;&gt;invert_t1w (image)</title>
<path fill="none" stroke="#000000" d="M430.8168,-432.2022C423.2446,-423.5483 414.0061,-412.99 405.7013,-403.4988"/>
<polygon fill="#000000" stroke="#000000" points="408.2212,-401.0636 399.0021,-395.8425 402.9531,-405.6731 408.2212,-401.0636"/>
</g>
<!-- anat2epi (fixes) -->
<g id="node4" class="node">
<title>anat2epi (fixes)</title>
<ellipse fill="none" stroke="#000000" cx="437.3899" cy="-306" rx="83.3857" ry="18"/>
<text text-anchor="middle" x="437.3899" y="-302.3" font-family="Times,serif" font-size="14.00" fill="#000000">anat2epi (fixes)</text>
</g>
<!-- inputnode (utility)&#45;&gt;anat2epi (fixes) -->
<g id="edge3" class="edge">
<title>inputnode (utility)&#45;&gt;anat2epi (fixes)</title>
<path fill="none" stroke="#000000" d="M466.7756,-432.1304C476.2053,-422.4954 486.4046,-409.7695 491.3899,-396 496.8367,-380.9557 497.5128,-374.7821 491.3899,-360 486.7201,-348.7261 478.4281,-338.5787 469.722,-330.2051"/>
<polygon fill="#000000" stroke="#000000" points="471.8265,-327.3911 462.0453,-323.3193 467.1525,-332.602 471.8265,-327.3911"/>
</g>
<!-- syn (fixes) -->
<g id="node5" class="node">
<title>syn (fixes)</title>
<ellipse fill="none" stroke="#000000" cx="456.3899" cy="-162" rx="58.4896" ry="18"/>
<text text-anchor="middle" x="456.3899" y="-158.3" font-family="Times,serif" font-size="14.00" fill="#000000">syn (fixes)</text>
</g>
<!-- inputnode (utility)&#45;&gt;syn (fixes) -->
<g id="edge4" class="edge">
<title>inputnode (utility)&#45;&gt;syn (fixes)</title>
<path fill="none" stroke="#000000" d="M471.9743,-432.5597C484.2344,-423.0341 498.2114,-410.2766 507.3899,-396 525.4848,-367.8543 524.4467,-357.0934 529.3899,-324 531.7535,-308.1756 533.5426,-303.4517 529.3899,-288 519.2797,-250.3822 494.8957,-212.4034 477.082,-188.1251"/>
<polygon fill="#000000" stroke="#000000" points="479.6564,-185.7243 470.855,-179.8263 474.0573,-189.9256 479.6564,-185.7243"/>
</g>
<!-- prior2epi (fixes) -->
<g id="node6" class="node">
<title>prior2epi (fixes)</title>
<ellipse fill="none" stroke="#000000" cx="251.3899" cy="-306" rx="85.2851" ry="18"/>
<text text-anchor="middle" x="251.3899" y="-302.3" font-family="Times,serif" font-size="14.00" fill="#000000">prior2epi (fixes)</text>
</g>
<!-- inputnode (utility)&#45;&gt;prior2epi (fixes) -->
<g id="edge5" class="edge">
<title>inputnode (utility)&#45;&gt;prior2epi (fixes)</title>
<path fill="none" stroke="#000000" d="M382.6022,-436.5978C340.5323,-426.5324 290.5007,-411.811 275.3899,-396 259.7409,-379.6259 254.0314,-354.2285 252.0697,-334.5827"/>
<polygon fill="#000000" stroke="#000000" points="255.542,-334.0739 251.3261,-324.354 248.5605,-334.5815 255.542,-334.0739"/>
</g>
<!-- unwarp_ref (fixes) -->
<g id="node7" class="node">
<title>unwarp_ref (fixes)</title>
<ellipse fill="none" stroke="#000000" cx="580.3899" cy="-90" rx="95.5831" ry="18"/>
<text text-anchor="middle" x="580.3899" y="-86.3" font-family="Times,serif" font-size="14.00" fill="#000000">unwarp_ref (fixes)</text>
</g>
<!-- inputnode (utility)&#45;&gt;unwarp_ref (fixes) -->
<g id="edge6" class="edge">
<title>inputnode (utility)&#45;&gt;unwarp_ref (fixes)</title>
<path fill="none" stroke="#000000" d="M481.3566,-433.2309C522.8236,-410.6188 586.3899,-366.1469 586.3899,-306 586.3899,-306 586.3899,-306 586.3899,-234 586.3899,-193.8412 584.0315,-147.4372 582.272,-118.4031"/>
<polygon fill="#000000" stroke="#000000" points="585.7498,-117.9376 581.6331,-108.1753 578.7634,-118.3741 585.7498,-117.9376"/>
</g>
<!-- transform_list (utility)&#45;&gt;prior2epi (fixes) -->
<g id="edge7" class="edge">
<title>transform_list (utility)&#45;&gt;prior2epi (fixes)</title>
<path fill="none" stroke="#000000" d="M147.2048,-360.7542C166.1514,-350.7969 190.1513,-338.1838 210.3397,-327.5738"/>
<polygon fill="#000000" stroke="#000000" points="212.0917,-330.607 219.3154,-322.8566 208.8351,-324.4106 212.0917,-330.607"/>
</g>
<!-- invert_t1w (image)&#45;&gt;anat2epi (fixes) -->
<g id="edge8" class="edge">
<title>invert_t1w (image)&#45;&gt;anat2epi (fixes)</title>
<path fill="none" stroke="#000000" d="M397.0163,-359.8314C403.3316,-351.411 410.9527,-341.2495 417.8645,-332.0338"/>
<polygon fill="#000000" stroke="#000000" points="420.7548,-334.0134 423.9548,-323.9134 415.1547,-329.8134 420.7548,-334.0134"/>
</g>
<!-- anat2epi (fixes)&#45;&gt;syn (fixes) -->
<g id="edge9" class="edge">
<title>anat2epi (fixes)&#45;&gt;syn (fixes)</title>
<path fill="none" stroke="#000000" d="M439.7962,-287.7623C443.0369,-263.201 448.8364,-219.2474 452.6487,-190.3541"/>
<polygon fill="#000000" stroke="#000000" points="456.1648,-190.4616 454.003,-180.0896 449.2249,-189.5458 456.1648,-190.4616"/>
</g>
<!-- syn (fixes)&#45;&gt;unwarp_ref (fixes) -->
<g id="edge11" class="edge">
<title>syn (fixes)&#45;&gt;unwarp_ref (fixes)</title>
<path fill="none" stroke="#000000" d="M483.9095,-146.0209C501.033,-136.0782 523.3017,-123.148 542.1298,-112.2155"/>
<polygon fill="#000000" stroke="#000000" points="543.8919,-115.2396 550.7823,-107.1915 540.3769,-109.1861 543.8919,-115.2396"/>
</g>
<!-- outputnode (utility) -->
<g id="node8" class="node">
<title>outputnode (utility)</title>
<ellipse fill="none" stroke="#000000" cx="518.3899" cy="-18" rx="101.2821" ry="18"/>
<text text-anchor="middle" x="518.3899" y="-14.3" font-family="Times,serif" font-size="14.00" fill="#000000">outputnode (utility)</text>
</g>
<!-- syn (fixes)&#45;&gt;outputnode (utility) -->
<g id="edge10" class="edge">
<title>syn (fixes)&#45;&gt;outputnode (utility)</title>
<path fill="none" stroke="#000000" d="M457.7341,-143.9742C459.6844,-125.2275 464.3644,-95.4034 475.3899,-72 480.1118,-61.9768 487.0315,-52.1503 493.9456,-43.6857"/>
<polygon fill="#000000" stroke="#000000" points="496.6583,-45.8989 500.5009,-36.0254 491.3398,-41.3475 496.6583,-45.8989"/>
</g>
<!-- atlas_msk (nibabel) -->
<g id="node9" class="node">
<title>atlas_msk (nibabel)</title>
<ellipse fill="none" stroke="#000000" cx="280.3899" cy="-234" rx="101.2821" ry="18"/>
<text text-anchor="middle" x="280.3899" y="-230.3" font-family="Times,serif" font-size="14.00" fill="#000000">atlas_msk (nibabel)</text>
</g>
<!-- prior2epi (fixes)&#45;&gt;atlas_msk (nibabel) -->
<g id="edge12" class="edge">
<title>prior2epi (fixes)&#45;&gt;atlas_msk (nibabel)</title>
<path fill="none" stroke="#000000" d="M258.7078,-287.8314C261.8775,-279.9617 265.6598,-270.5712 269.1712,-261.8533"/>
<polygon fill="#000000" stroke="#000000" points="272.4838,-262.9968 272.9734,-252.4133 265.9907,-260.3815 272.4838,-262.9968"/>
</g>
<!-- unwarp_ref (fixes)&#45;&gt;outputnode (utility) -->
<g id="edge13" class="edge">
<title>unwarp_ref (fixes)&#45;&gt;outputnode (utility)</title>
<path fill="none" stroke="#000000" d="M565.064,-72.2022C557.612,-63.5483 548.5201,-52.99 540.3472,-43.4988"/>
<polygon fill="#000000" stroke="#000000" points="542.9317,-41.1364 533.7543,-35.8425 537.6273,-45.7041 542.9317,-41.1364"/>
</g>
<!-- atlas_msk (nibabel)&#45;&gt;syn (fixes) -->
<g id="edge14" class="edge">
<title>atlas_msk (nibabel)&#45;&gt;syn (fixes)</title>
<path fill="none" stroke="#000000" d="M320.7678,-217.4817C347.8212,-206.4145 383.4674,-191.8319 411.4254,-180.3946"/>
<polygon fill="#000000" stroke="#000000" points="413.0369,-183.5169 420.9672,-176.4911 410.3864,-177.0381 413.0369,-183.5169"/>
</g>
</g>
</svg>
