<?xml version="1.0" encoding="UTF-8" standalone="no"?>
<!DOCTYPE svg PUBLIC "-//W3C//DTD SVG 1.1//EN"
 "http://www.w3.org/Graphics/SVG/1.1/DTD/svg11.dtd">
<!-- Generated by graphviz version 2.40.1 (20161225.0304)
 -->
<!-- Title: structs Pages: 1 -->
<svg width="1083pt" height="631pt"
 viewBox="0.00 0.00 1082.75 631.00" xmlns="http://www.w3.org/2000/svg" xmlns:xlink="http://www.w3.org/1999/xlink">
<g id="graph0" class="graph" transform="scale(1 1) rotate(0) translate(4 627)">
<title>structs</title>
<polygon fill="#ffffff" stroke="transparent" points="-4,4 -4,-627 1078.754,-627 1078.754,4 -4,4"/>
<!-- prepare_epi_wfinputnode -->
<g id="node1" class="node">
<title>prepare_epi_wfinputnode</title>
<polygon fill="none" stroke="#000000" points="191.754,-530.5 191.754,-622.5 397.754,-622.5 397.754,-530.5 191.754,-530.5"/>
<text text-anchor="middle" x="209.254" y="-572.8" font-family="Times,serif" font-size="14.00" fill="#000000">IN</text>
<polyline fill="none" stroke="#000000" points="226.754,-530.5 226.754,-622.5 "/>
<text text-anchor="middle" x="271.254" y="-603.8" font-family="Times,serif" font-size="14.00" fill="#000000">inputnode</text>
<polyline fill="none" stroke="#000000" points="226.754,-592.5 315.754,-592.5 "/>
<text text-anchor="middle" x="271.254" y="-573.3" font-family="Times,serif" font-size="14.00" fill="#000000">utility</text>
<polyline fill="none" stroke="#000000" points="226.754,-561.5 315.754,-561.5 "/>
<text text-anchor="middle" x="271.254" y="-542.3" font-family="Times,serif" font-size="14.00" fill="#000000"> </text>
<polyline fill="none" stroke="#000000" points="315.754,-530.5 315.754,-622.5 "/>
<text text-anchor="middle" x="356.754" y="-607.3" font-family="Times,serif" font-size="14.00" fill="#000000">OUT</text>
<polyline fill="none" stroke="#000000" points="315.754,-599.5 397.754,-599.5 "/>
<text text-anchor="middle" x="356.754" y="-584.3" font-family="Times,serif" font-size="14.00" fill="#000000">epi_pe</text>
<polyline fill="none" stroke="#000000" points="315.754,-576.5 397.754,-576.5 "/>
<text text-anchor="middle" x="356.754" y="-561.3" font-family="Times,serif" font-size="14.00" fill="#000000">maps_pe</text>
<polyline fill="none" stroke="#000000" points="315.754,-553.5 397.754,-553.5 "/>
<text text-anchor="middle" x="356.754" y="-538.3" font-family="Times,serif" font-size="14.00" fill="#000000">ref_brain</text>
</g>
<!-- prepare_epi_wfsplit -->
<g id="node2" class="node">
<title>prepare_epi_wfsplit</title>
<polygon fill="none" stroke="#000000" points="296.254,-424.5 296.254,-493.5 473.254,-493.5 473.254,-424.5 296.254,-424.5"/>
<text text-anchor="middle" x="330.254" y="-478.3" font-family="Times,serif" font-size="14.00" fill="#000000">IN</text>
<polyline fill="none" stroke="#000000" points="296.254,-470.5 364.254,-470.5 "/>
<text text-anchor="middle" x="330.254" y="-455.3" font-family="Times,serif" font-size="14.00" fill="#000000">in_files</text>
<polyline fill="none" stroke="#000000" points="296.254,-447.5 364.254,-447.5 "/>
<text text-anchor="middle" x="330.254" y="-432.3" font-family="Times,serif" font-size="14.00" fill="#000000">pe_dir</text>
<polyline fill="none" stroke="#000000" points="364.254,-424.5 364.254,-493.5 "/>
<text text-anchor="middle" x="393.754" y="-478.3" font-family="Times,serif" font-size="14.00" fill="#000000">split</text>
<polyline fill="none" stroke="#000000" points="364.254,-470.5 423.254,-470.5 "/>
<text text-anchor="middle" x="393.754" y="-455.3" font-family="Times,serif" font-size="14.00" fill="#000000">utility</text>
<polyline fill="none" stroke="#000000" points="364.254,-447.5 423.254,-447.5 "/>
<text text-anchor="middle" x="393.754" y="-432.3" font-family="Times,serif" font-size="14.00" fill="#000000"> </text>
<polyline fill="none" stroke="#000000" points="423.254,-424.5 423.254,-493.5 "/>
<text text-anchor="middle" x="448.254" y="-472.8" font-family="Times,serif" font-size="14.00" fill="#000000">OUT</text>
<polyline fill="none" stroke="#000000" points="423.254,-459.5 473.254,-459.5 "/>
<text text-anchor="middle" x="448.254" y="-438.3" font-family="Times,serif" font-size="14.00" fill="#000000">out</text>
</g>
<!-- prepare_epi_wfinputnode&#45;&gt;prepare_epi_wfsplit -->
<g id="edge1" class="edge">
<title>prepare_epi_wfinputnode:e&#45;&gt;prepare_epi_wfsplit:w</title>
<path fill="none" stroke="#000000" d="M397.754,-588.5C423.754,-588.5 412.7709,-551.2248 397.754,-530 369.9878,-490.7553 323.5203,-533.2447 295.754,-494 283.3082,-476.409 273.6569,-447.6981 285.8831,-438.7508"/>
<polygon fill="#000000" stroke="#000000" points="287.0607,-442.056 295.754,-436 285.1815,-435.313 287.0607,-442.056"/>
</g>
<!-- prepare_epi_wfinputnode&#45;&gt;prepare_epi_wfsplit -->
<g id="edge2" class="edge">
<title>prepare_epi_wfinputnode:e&#45;&gt;prepare_epi_wfsplit:w</title>
<path fill="none" stroke="#000000" d="M397.754,-564.5C413.0874,-564.5 406.6101,-542.5172 397.754,-530 369.9878,-490.7553 323.5203,-533.2447 295.754,-494 289.5772,-485.2697 284.5411,-472.0006 287.0515,-464.56"/>
<polygon fill="#000000" stroke="#000000" points="289.2115,-467.3334 295.754,-459 285.4427,-461.4345 289.2115,-467.3334"/>
</g>
<!-- prepare_epi_wfop2ref_reg -->
<g id="node5" class="node">
<title>prepare_epi_wfop2ref_reg</title>
<polygon fill="none" stroke="#000000" points="472.754,-106.5 472.754,-175.5 808.754,-175.5 808.754,-106.5 472.754,-106.5"/>
<text text-anchor="middle" x="532.754" y="-160.3" font-family="Times,serif" font-size="14.00" fill="#000000">IN</text>
<polyline fill="none" stroke="#000000" points="472.754,-152.5 592.754,-152.5 "/>
<text text-anchor="middle" x="532.754" y="-137.3" font-family="Times,serif" font-size="14.00" fill="#000000">fixed_image</text>
<polyline fill="none" stroke="#000000" points="472.754,-129.5 592.754,-129.5 "/>
<text text-anchor="middle" x="532.754" y="-114.3" font-family="Times,serif" font-size="14.00" fill="#000000">moving_image</text>
<polyline fill="none" stroke="#000000" points="592.754,-106.5 592.754,-175.5 "/>
<text text-anchor="middle" x="640.254" y="-160.3" font-family="Times,serif" font-size="14.00" fill="#000000">op2ref_reg</text>
<polyline fill="none" stroke="#000000" points="592.754,-152.5 687.754,-152.5 "/>
<text text-anchor="middle" x="640.254" y="-137.3" font-family="Times,serif" font-size="14.00" fill="#000000">ants</text>
<polyline fill="none" stroke="#000000" points="592.754,-129.5 687.754,-129.5 "/>
<text text-anchor="middle" x="640.254" y="-114.3" font-family="Times,serif" font-size="14.00" fill="#000000"> </text>
<polyline fill="none" stroke="#000000" points="687.754,-106.5 687.754,-175.5 "/>
<text text-anchor="middle" x="748.254" y="-154.8" font-family="Times,serif" font-size="14.00" fill="#000000">OUT</text>
<polyline fill="none" stroke="#000000" points="687.754,-141.5 808.754,-141.5 "/>
<text text-anchor="middle" x="748.254" y="-120.3" font-family="Times,serif" font-size="14.00" fill="#000000">warped_image</text>
</g>
<!-- prepare_epi_wfinputnode&#45;&gt;prepare_epi_wfop2ref_reg -->
<g id="edge3" class="edge">
<title>prepare_epi_wfinputnode:e&#45;&gt;prepare_epi_wfop2ref_reg:w</title>
<path fill="none" stroke="#000000" d="M397.754,-541.5C440.6429,-541.5 460.1436,-531.0465 481.754,-494 544.9059,-385.7397 497.0677,-336.3943 481.754,-212 478.4445,-185.1164 451.1792,-152.5327 462.7998,-143.4517"/>
<polygon fill="#000000" stroke="#000000" points="463.8813,-146.79 472.754,-141 462.2072,-139.9931 463.8813,-146.79"/>
</g>
<!-- prepare_epi_wfoutputnode -->
<g id="node6" class="node">
<title>prepare_epi_wfoutputnode</title>
<polygon fill="none" stroke="#000000" points="822.754,-.5 822.754,-69.5 1074.754,-69.5 1074.754,-.5 822.754,-.5"/>
<text text-anchor="middle" x="874.754" y="-54.3" font-family="Times,serif" font-size="14.00" fill="#000000">IN</text>
<polyline fill="none" stroke="#000000" points="822.754,-46.5 926.754,-46.5 "/>
<text text-anchor="middle" x="874.754" y="-31.3" font-family="Times,serif" font-size="14.00" fill="#000000">matched_pe</text>
<polyline fill="none" stroke="#000000" points="822.754,-23.5 926.754,-23.5 "/>
<text text-anchor="middle" x="874.754" y="-8.3" font-family="Times,serif" font-size="14.00" fill="#000000">opposed_pe</text>
<polyline fill="none" stroke="#000000" points="926.754,-.5 926.754,-69.5 "/>
<text text-anchor="middle" x="975.754" y="-54.3" font-family="Times,serif" font-size="14.00" fill="#000000">outputnode</text>
<polyline fill="none" stroke="#000000" points="926.754,-46.5 1024.754,-46.5 "/>
<text text-anchor="middle" x="975.754" y="-31.3" font-family="Times,serif" font-size="14.00" fill="#000000">utility</text>
<polyline fill="none" stroke="#000000" points="926.754,-23.5 1024.754,-23.5 "/>
<text text-anchor="middle" x="975.754" y="-8.3" font-family="Times,serif" font-size="14.00" fill="#000000"> </text>
<polyline fill="none" stroke="#000000" points="1024.754,-.5 1024.754,-69.5 "/>
<text text-anchor="middle" x="1049.754" y="-31.3" font-family="Times,serif" font-size="14.00" fill="#000000">OUT</text>
</g>
<!-- prepare_epi_wfinputnode&#45;&gt;prepare_epi_wfoutputnode -->
<g id="edge4" class="edge">
<title>prepare_epi_wfinputnode:e&#45;&gt;prepare_epi_wfoutputnode:w</title>
<path fill="none" stroke="#000000" d="M397.754,-541.5C526.88,-541.5 836.754,-509.8582 836.754,-353 836.754,-353 836.754,-353 836.754,-247 836.754,-226.344 807.9613,-79.5235 816.5778,-43.1411"/>
<polygon fill="#000000" stroke="#000000" points="819.4984,-45.0823 822.754,-35 813.9216,-40.8515 819.4984,-45.0823"/>
</g>
<!-- prepare_epi_wfmerge_op -->
<g id="node3" class="node">
<title>prepare_epi_wfmerge_op</title>
<polygon fill="none" stroke="#000000" points="16.254,-318.5 16.254,-387.5 243.254,-387.5 243.254,-318.5 16.254,-318.5"/>
<text text-anchor="middle" x="50.254" y="-366.8" font-family="Times,serif" font-size="14.00" fill="#000000">IN</text>
<polyline fill="none" stroke="#000000" points="16.254,-353.5 84.254,-353.5 "/>
<text text-anchor="middle" x="50.254" y="-332.3" font-family="Times,serif" font-size="14.00" fill="#000000">in_files</text>
<polyline fill="none" stroke="#000000" points="84.254,-318.5 84.254,-387.5 "/>
<text text-anchor="middle" x="128.754" y="-372.3" font-family="Times,serif" font-size="14.00" fill="#000000">merge_op</text>
<polyline fill="none" stroke="#000000" points="84.254,-364.5 173.254,-364.5 "/>
<text text-anchor="middle" x="128.754" y="-349.3" font-family="Times,serif" font-size="14.00" fill="#000000">freesurfer</text>
<polyline fill="none" stroke="#000000" points="84.254,-341.5 173.254,-341.5 "/>
<text text-anchor="middle" x="128.754" y="-326.3" font-family="Times,serif" font-size="14.00" fill="#000000"> </text>
<polyline fill="none" stroke="#000000" points="173.254,-318.5 173.254,-387.5 "/>
<text text-anchor="middle" x="208.254" y="-366.8" font-family="Times,serif" font-size="14.00" fill="#000000">OUT</text>
<polyline fill="none" stroke="#000000" points="173.254,-353.5 243.254,-353.5 "/>
<text text-anchor="middle" x="208.254" y="-332.3" font-family="Times,serif" font-size="14.00" fill="#000000">out_file</text>
</g>
<!-- prepare_epi_wfsplit&#45;&gt;prepare_epi_wfmerge_op -->
<g id="edge8" class="edge">
<title>prepare_epi_wfsplit:e&#45;&gt;prepare_epi_wfmerge_op:w</title>
<path fill="none" stroke="#000000" d="M473.754,-442C481.754,-442 479.1847,-429.8743 473.754,-424 404.4504,-349.0352 85.0577,-462.9648 15.754,-388 2.8844,-374.0791 -4.4227,-348.0057 6.1241,-339.0851"/>
<polygon fill="#000000" stroke="#000000" points="7.2986,-342.3841 15.754,-336 5.163,-335.7178 7.2986,-342.3841"/>
</g>
<!-- prepare_epi_wfref_op_wf -->
<g id="node4" class="node">
<title>prepare_epi_wfref_op_wf</title>
<polygon fill="none" stroke="#000000" points="14.754,-212.5 14.754,-281.5 472.754,-281.5 472.754,-212.5 14.754,-212.5"/>
<text text-anchor="middle" x="83.254" y="-260.8" font-family="Times,serif" font-size="14.00" fill="#000000">IN</text>
<polyline fill="none" stroke="#000000" points="14.754,-247.5 151.754,-247.5 "/>
<text text-anchor="middle" x="83.254" y="-226.3" font-family="Times,serif" font-size="14.00" fill="#000000">inputnode.in_file</text>
<polyline fill="none" stroke="#000000" points="151.754,-212.5 151.754,-281.5 "/>
<text text-anchor="middle" x="194.754" y="-266.3" font-family="Times,serif" font-size="14.00" fill="#000000">ref_op_wf</text>
<polyline fill="none" stroke="#000000" points="151.754,-258.5 237.754,-258.5 "/>
<text text-anchor="middle" x="194.754" y="-243.3" font-family="Times,serif" font-size="14.00" fill="#000000"> </text>
<polyline fill="none" stroke="#000000" points="151.754,-235.5 237.754,-235.5 "/>
<text text-anchor="middle" x="194.754" y="-220.3" font-family="Times,serif" font-size="14.00" fill="#000000"> </text>
<polyline fill="none" stroke="#000000" points="237.754,-212.5 237.754,-281.5 "/>
<text text-anchor="middle" x="355.254" y="-260.8" font-family="Times,serif" font-size="14.00" fill="#000000">OUT</text>
<polyline fill="none" stroke="#000000" points="237.754,-247.5 472.754,-247.5 "/>
<text text-anchor="middle" x="355.254" y="-226.3" font-family="Times,serif" font-size="14.00" fill="#000000">outputnode.skull_stripped_file</text>
</g>
<!-- prepare_epi_wfmerge_op&#45;&gt;prepare_epi_wfref_op_wf -->
<g id="edge5" class="edge">
<title>prepare_epi_wfmerge_op:e&#45;&gt;prepare_epi_wfref_op_wf:w</title>
<path fill="none" stroke="#000000" d="M243.754,-336C251.754,-336 248.9531,-324.0803 243.754,-318 176.7978,-239.6956 81.7103,-360.3044 14.754,-282 2.4333,-267.5911 -5.2255,-241.8303 5.1772,-233.0378"/>
<polygon fill="#000000" stroke="#000000" points="6.2804,-236.3598 14.754,-230 4.1638,-229.6875 6.2804,-236.3598"/>
</g>
<!-- prepare_epi_wfref_op_wf&#45;&gt;prepare_epi_wfop2ref_reg -->
<g id="edge7" class="edge">
<title>prepare_epi_wfref_op_wf:e&#45;&gt;prepare_epi_wfop2ref_reg:w</title>
<path fill="none" stroke="#000000" d="M472.754,-230C472.754,-230 472.754,-156.0625 472.754,-128.3359"/>
<polygon fill="#000000" stroke="#000000" points="476.2541,-128 472.754,-118 469.2541,-128 476.2541,-128"/>
</g>
<!-- prepare_epi_wfop2ref_reg&#45;&gt;prepare_epi_wfoutputnode -->
<g id="edge6" class="edge">
<title>prepare_epi_wfop2ref_reg:e&#45;&gt;prepare_epi_wfoutputnode:w</title>
<path fill="none" stroke="#000000" d="M808.754,-124C830.1134,-124 807.0585,-42.7822 815.2324,-18.6707"/>
<polygon fill="#000000" stroke="#000000" points="817.5947,-21.2538 822.754,-12 812.9501,-16.0166 817.5947,-21.2538"/>
</g>
</g>
</svg>
