<?xml version="1.0" encoding="UTF-8" standalone="no"?>
<!DOCTYPE svg PUBLIC "-//W3C//DTD SVG 1.1//EN"
 "http://www.w3.org/Graphics/SVG/1.1/DTD/svg11.dtd">
<!-- Generated by graphviz version 2.40.1 (20161225.0304)
 -->
<!-- Title: structs Pages: 1 -->
<svg width="1544pt" height="1027pt"
 viewBox="0.00 0.00 1544.27 1027.00" xmlns="http://www.w3.org/2000/svg" xmlns:xlink="http://www.w3.org/1999/xlink">
<g id="graph0" class="graph" transform="scale(1 1) rotate(0) translate(4 1023)">
<title>structs</title>
<polygon fill="#ffffff" stroke="transparent" points="-4,4 -4,-1023 1540.2735,-1023 1540.2735,4 -4,4"/>
<!-- fmap2field_wfinputnode -->
<g id="node1" class="node">
<title>fmap2field_wfinputnode</title>
<polygon fill="none" stroke="#000000" points="51.7735,-857.5 51.7735,-1018.5 327.7735,-1018.5 327.7735,-857.5 51.7735,-857.5"/>
<text text-anchor="middle" x="69.2735" y="-934.3" font-family="Times,serif" font-size="14.00" fill="#000000">IN</text>
<polyline fill="none" stroke="#000000" points="86.7735,-857.5 86.7735,-1018.5 "/>
<text text-anchor="middle" x="131.2735" y="-988.3" font-family="Times,serif" font-size="14.00" fill="#000000">inputnode</text>
<polyline fill="none" stroke="#000000" points="86.7735,-965.5 175.7735,-965.5 "/>
<text text-anchor="middle" x="131.2735" y="-934.8" font-family="Times,serif" font-size="14.00" fill="#000000">utility</text>
<polyline fill="none" stroke="#000000" points="86.7735,-911.5 175.7735,-911.5 "/>
<text text-anchor="middle" x="131.2735" y="-880.8" font-family="Times,serif" font-size="14.00" fill="#000000"> </text>
<polyline fill="none" stroke="#000000" points="175.7735,-857.5 175.7735,-1018.5 "/>
<text text-anchor="middle" x="251.7735" y="-1003.3" font-family="Times,serif" font-size="14.00" fill="#000000">OUT</text>
<polyline fill="none" stroke="#000000" points="175.7735,-995.5 327.7735,-995.5 "/>
<text text-anchor="middle" x="251.7735" y="-980.3" font-family="Times,serif" font-size="14.00" fill="#000000">fmap</text>
<polyline fill="none" stroke="#000000" points="175.7735,-972.5 327.7735,-972.5 "/>
<text text-anchor="middle" x="251.7735" y="-957.3" font-family="Times,serif" font-size="14.00" fill="#000000">fmap_mask</text>
<polyline fill="none" stroke="#000000" points="175.7735,-949.5 327.7735,-949.5 "/>
<text text-anchor="middle" x="251.7735" y="-934.3" font-family="Times,serif" font-size="14.00" fill="#000000">fmap_ref</text>
<polyline fill="none" stroke="#000000" points="175.7735,-926.5 327.7735,-926.5 "/>
<text text-anchor="middle" x="251.7735" y="-911.3" font-family="Times,serif" font-size="14.00" fill="#000000">in_reference</text>
<polyline fill="none" stroke="#000000" points="175.7735,-903.5 327.7735,-903.5 "/>
<text text-anchor="middle" x="251.7735" y="-888.3" font-family="Times,serif" font-size="14.00" fill="#000000">in_reference_brain</text>
<polyline fill="none" stroke="#000000" points="175.7735,-880.5 327.7735,-880.5 "/>
<text text-anchor="middle" x="251.7735" y="-865.3" font-family="Times,serif" font-size="14.00" fill="#000000">metadata</text>
</g>
<!-- fmap2field_wfget_ees -->
<g id="node2" class="node">
<title>fmap2field_wfget_ees</title>
<polygon fill="none" stroke="#000000" points="67.2735,-751.5 67.2735,-820.5 262.2735,-820.5 262.2735,-751.5 67.2735,-751.5"/>
<text text-anchor="middle" x="104.2735" y="-805.3" font-family="Times,serif" font-size="14.00" fill="#000000">IN</text>
<polyline fill="none" stroke="#000000" points="67.2735,-797.5 141.2735,-797.5 "/>
<text text-anchor="middle" x="104.2735" y="-782.3" font-family="Times,serif" font-size="14.00" fill="#000000">in_file</text>
<polyline fill="none" stroke="#000000" points="67.2735,-774.5 141.2735,-774.5 "/>
<text text-anchor="middle" x="104.2735" y="-759.3" font-family="Times,serif" font-size="14.00" fill="#000000">in_meta</text>
<polyline fill="none" stroke="#000000" points="141.2735,-751.5 141.2735,-820.5 "/>
<text text-anchor="middle" x="176.7735" y="-805.3" font-family="Times,serif" font-size="14.00" fill="#000000">get_ees</text>
<polyline fill="none" stroke="#000000" points="141.2735,-797.5 212.2735,-797.5 "/>
<text text-anchor="middle" x="176.7735" y="-782.3" font-family="Times,serif" font-size="14.00" fill="#000000">utility</text>
<polyline fill="none" stroke="#000000" points="141.2735,-774.5 212.2735,-774.5 "/>
<text text-anchor="middle" x="176.7735" y="-759.3" font-family="Times,serif" font-size="14.00" fill="#000000"> </text>
<polyline fill="none" stroke="#000000" points="212.2735,-751.5 212.2735,-820.5 "/>
<text text-anchor="middle" x="237.2735" y="-799.8" font-family="Times,serif" font-size="14.00" fill="#000000">OUT</text>
<polyline fill="none" stroke="#000000" points="212.2735,-786.5 262.2735,-786.5 "/>
<text text-anchor="middle" x="237.2735" y="-765.3" font-family="Times,serif" font-size="14.00" fill="#000000">ees</text>
</g>
<!-- fmap2field_wfinputnode&#45;&gt;fmap2field_wfget_ees -->
<g id="edge16" class="edge">
<title>fmap2field_wfinputnode:e&#45;&gt;fmap2field_wfget_ees:w</title>
<path fill="none" stroke="#000000" d="M327.7735,-915C353.5513,-915 344.7102,-876.4331 327.7735,-857 250.8371,-768.7232 143.71,-909.2768 66.7735,-821 59.5873,-812.7546 54.8163,-798.8008 58.0242,-791.2425"/>
<polygon fill="#000000" stroke="#000000" points="59.9945,-794.1422 66.7735,-786 56.3966,-788.1375 59.9945,-794.1422"/>
</g>
<!-- fmap2field_wfinputnode&#45;&gt;fmap2field_wfget_ees -->
<g id="edge19" class="edge">
<title>fmap2field_wfinputnode:e&#45;&gt;fmap2field_wfget_ees:w</title>
<path fill="none" stroke="#000000" d="M327.7735,-869C333.1069,-869 331.2777,-861.0206 327.7735,-857 250.8371,-768.7232 143.71,-909.2768 66.7735,-821 60.4223,-813.7126 56.3479,-784.7313 60.1452,-770.6961"/>
<polygon fill="#000000" stroke="#000000" points="62.8996,-772.8612 66.7735,-763 57.5956,-768.2931 62.8996,-772.8612"/>
</g>
<!-- fmap2field_wffmap2ref_reg -->
<g id="node3" class="node">
<title>fmap2field_wffmap2ref_reg</title>
<polygon fill="none" stroke="#000000" points="355.7735,-751.5 355.7735,-820.5 757.7735,-820.5 757.7735,-751.5 355.7735,-751.5"/>
<text text-anchor="middle" x="415.7735" y="-805.3" font-family="Times,serif" font-size="14.00" fill="#000000">IN</text>
<polyline fill="none" stroke="#000000" points="355.7735,-797.5 475.7735,-797.5 "/>
<text text-anchor="middle" x="415.7735" y="-782.3" font-family="Times,serif" font-size="14.00" fill="#000000">fixed_image</text>
<polyline fill="none" stroke="#000000" points="355.7735,-774.5 475.7735,-774.5 "/>
<text text-anchor="middle" x="415.7735" y="-759.3" font-family="Times,serif" font-size="14.00" fill="#000000">moving_image</text>
<polyline fill="none" stroke="#000000" points="475.7735,-751.5 475.7735,-820.5 "/>
<text text-anchor="middle" x="532.2735" y="-805.3" font-family="Times,serif" font-size="14.00" fill="#000000">fmap2ref_reg</text>
<polyline fill="none" stroke="#000000" points="475.7735,-797.5 588.7735,-797.5 "/>
<text text-anchor="middle" x="532.2735" y="-782.3" font-family="Times,serif" font-size="14.00" fill="#000000">registration</text>
<polyline fill="none" stroke="#000000" points="475.7735,-774.5 588.7735,-774.5 "/>
<text text-anchor="middle" x="532.2735" y="-759.3" font-family="Times,serif" font-size="14.00" fill="#000000"> </text>
<polyline fill="none" stroke="#000000" points="588.7735,-751.5 588.7735,-820.5 "/>
<text text-anchor="middle" x="673.2735" y="-805.3" font-family="Times,serif" font-size="14.00" fill="#000000">OUT</text>
<polyline fill="none" stroke="#000000" points="588.7735,-797.5 757.7735,-797.5 "/>
<text text-anchor="middle" x="673.2735" y="-782.3" font-family="Times,serif" font-size="14.00" fill="#000000">composite_transform</text>
<polyline fill="none" stroke="#000000" points="588.7735,-774.5 757.7735,-774.5 "/>
<text text-anchor="middle" x="673.2735" y="-759.3" font-family="Times,serif" font-size="14.00" fill="#000000">warped_image</text>
</g>
<!-- fmap2field_wfinputnode&#45;&gt;fmap2field_wffmap2ref_reg -->
<g id="edge12" class="edge">
<title>fmap2field_wfinputnode:e&#45;&gt;fmap2field_wffmap2ref_reg:w</title>
<path fill="none" stroke="#000000" d="M327.7735,-938C344.9269,-938 338.5002,-805.2092 349.5744,-770.9741"/>
<polygon fill="#000000" stroke="#000000" points="352.3991,-773.0431 355.7735,-763 346.8727,-768.7468 352.3991,-773.0431"/>
</g>
<!-- fmap2field_wfinputnode&#45;&gt;fmap2field_wffmap2ref_reg -->
<g id="edge17" class="edge">
<title>fmap2field_wfinputnode:e&#45;&gt;fmap2field_wffmap2ref_reg:w</title>
<path fill="none" stroke="#000000" d="M327.7735,-892C348.6158,-892 336.4595,-814.4264 347.7631,-792.0027"/>
<polygon fill="#000000" stroke="#000000" points="349.87,-794.7977 355.7735,-786 345.6722,-789.1959 349.87,-794.7977"/>
</g>
<!-- fmap2field_wffmap_mask2ref_apply -->
<g id="node4" class="node">
<title>fmap2field_wffmap_mask2ref_apply</title>
<polygon fill="none" stroke="#000000" points="771.7735,-622.5 771.7735,-714.5 1197.7735,-714.5 1197.7735,-622.5 771.7735,-622.5"/>
<text text-anchor="middle" x="840.2735" y="-699.3" font-family="Times,serif" font-size="14.00" fill="#000000">IN</text>
<polyline fill="none" stroke="#000000" points="771.7735,-691.5 908.7735,-691.5 "/>
<text text-anchor="middle" x="840.2735" y="-676.3" font-family="Times,serif" font-size="14.00" fill="#000000">input_image</text>
<polyline fill="none" stroke="#000000" points="771.7735,-668.5 908.7735,-668.5 "/>
<text text-anchor="middle" x="840.2735" y="-653.3" font-family="Times,serif" font-size="14.00" fill="#000000">reference_image</text>
<polyline fill="none" stroke="#000000" points="771.7735,-645.5 908.7735,-645.5 "/>
<text text-anchor="middle" x="840.2735" y="-630.3" font-family="Times,serif" font-size="14.00" fill="#000000">transforms</text>
<polyline fill="none" stroke="#000000" points="908.7735,-622.5 908.7735,-714.5 "/>
<text text-anchor="middle" x="995.7735" y="-695.8" font-family="Times,serif" font-size="14.00" fill="#000000">fmap_mask2ref_apply</text>
<polyline fill="none" stroke="#000000" points="908.7735,-684.5 1082.7735,-684.5 "/>
<text text-anchor="middle" x="995.7735" y="-665.3" font-family="Times,serif" font-size="14.00" fill="#000000">registration</text>
<polyline fill="none" stroke="#000000" points="908.7735,-653.5 1082.7735,-653.5 "/>
<text text-anchor="middle" x="995.7735" y="-634.3" font-family="Times,serif" font-size="14.00" fill="#000000"> </text>
<polyline fill="none" stroke="#000000" points="1082.7735,-622.5 1082.7735,-714.5 "/>
<text text-anchor="middle" x="1140.2735" y="-687.8" font-family="Times,serif" font-size="14.00" fill="#000000">OUT</text>
<polyline fill="none" stroke="#000000" points="1082.7735,-668.5 1197.7735,-668.5 "/>
<text text-anchor="middle" x="1140.2735" y="-641.8" font-family="Times,serif" font-size="14.00" fill="#000000">output_image</text>
</g>
<!-- fmap2field_wfinputnode&#45;&gt;fmap2field_wffmap_mask2ref_apply -->
<g id="edge11" class="edge">
<title>fmap2field_wfinputnode:e&#45;&gt;fmap2field_wffmap_mask2ref_apply:w</title>
<path fill="none" stroke="#000000" d="M327.7735,-961C437.1791,-961 734.3295,-908.6736 799.7735,-821 818.3835,-796.0687 809.8702,-780.4272 799.7735,-751 793.1953,-731.8274 778.3518,-734.1726 771.7735,-715 768.5079,-705.4822 762.9249,-693.5986 763.806,-686.5533"/>
<polygon fill="#000000" stroke="#000000" points="765.9283,-689.3365 771.7735,-680.5 761.6936,-683.7627 765.9283,-689.3365"/>
</g>
<!-- fmap2field_wfinputnode&#45;&gt;fmap2field_wffmap_mask2ref_apply -->
<g id="edge14" class="edge">
<title>fmap2field_wfinputnode:e&#45;&gt;fmap2field_wffmap_mask2ref_apply:w</title>
<path fill="none" stroke="#000000" d="M327.7735,-915C427.5404,-915 702.8749,-897.6185 766.7735,-821 787.6354,-795.9853 746.2934,-685.0445 762.8371,-661.0755"/>
<polygon fill="#000000" stroke="#000000" points="764.4675,-664.1728 771.7735,-656.5 761.2773,-657.942 764.4675,-664.1728"/>
</g>
<!-- fmap2field_wffmap2ref_apply -->
<g id="node5" class="node">
<title>fmap2field_wffmap2ref_apply</title>
<polygon fill="none" stroke="#000000" points="305.7735,-622.5 305.7735,-714.5 685.7735,-714.5 685.7735,-622.5 305.7735,-622.5"/>
<text text-anchor="middle" x="374.2735" y="-699.3" font-family="Times,serif" font-size="14.00" fill="#000000">IN</text>
<polyline fill="none" stroke="#000000" points="305.7735,-691.5 442.7735,-691.5 "/>
<text text-anchor="middle" x="374.2735" y="-676.3" font-family="Times,serif" font-size="14.00" fill="#000000">input_image</text>
<polyline fill="none" stroke="#000000" points="305.7735,-668.5 442.7735,-668.5 "/>
<text text-anchor="middle" x="374.2735" y="-653.3" font-family="Times,serif" font-size="14.00" fill="#000000">reference_image</text>
<polyline fill="none" stroke="#000000" points="305.7735,-645.5 442.7735,-645.5 "/>
<text text-anchor="middle" x="374.2735" y="-630.3" font-family="Times,serif" font-size="14.00" fill="#000000">transforms</text>
<polyline fill="none" stroke="#000000" points="442.7735,-622.5 442.7735,-714.5 "/>
<text text-anchor="middle" x="506.7735" y="-695.8" font-family="Times,serif" font-size="14.00" fill="#000000">fmap2ref_apply</text>
<polyline fill="none" stroke="#000000" points="442.7735,-684.5 570.7735,-684.5 "/>
<text text-anchor="middle" x="506.7735" y="-665.3" font-family="Times,serif" font-size="14.00" fill="#000000">registration</text>
<polyline fill="none" stroke="#000000" points="442.7735,-653.5 570.7735,-653.5 "/>
<text text-anchor="middle" x="506.7735" y="-634.3" font-family="Times,serif" font-size="14.00" fill="#000000"> </text>
<polyline fill="none" stroke="#000000" points="570.7735,-622.5 570.7735,-714.5 "/>
<text text-anchor="middle" x="628.2735" y="-687.8" font-family="Times,serif" font-size="14.00" fill="#000000">OUT</text>
<polyline fill="none" stroke="#000000" points="570.7735,-668.5 685.7735,-668.5 "/>
<text text-anchor="middle" x="628.2735" y="-641.8" font-family="Times,serif" font-size="14.00" fill="#000000">output_image</text>
</g>
<!-- fmap2field_wfinputnode&#45;&gt;fmap2field_wffmap2ref_apply -->
<g id="edge10" class="edge">
<title>fmap2field_wfinputnode:e&#45;&gt;fmap2field_wffmap2ref_apply:w</title>
<path fill="none" stroke="#000000" d="M327.7735,-984C362.6121,-984 307.2165,-733.7388 305.7735,-715 305.0469,-705.5644 299.3765,-694.6341 298.7463,-687.6484"/>
<polygon fill="#000000" stroke="#000000" points="301.2591,-690.0849 305.7735,-680.5 296.2672,-685.1776 301.2591,-690.0849"/>
</g>
<!-- fmap2field_wfinputnode&#45;&gt;fmap2field_wffmap2ref_apply -->
<g id="edge13" class="edge">
<title>fmap2field_wfinputnode:e&#45;&gt;fmap2field_wffmap2ref_apply:w</title>
<path fill="none" stroke="#000000" d="M327.7735,-915C353.5513,-915 333.9713,-882.0216 327.7735,-857 323.4237,-839.439 313.3714,-838.4977 308.7735,-821 296.7959,-775.4174 306.4403,-762.1253 305.7735,-715 305.4747,-693.8771 288.4974,-668.4598 296.0872,-659.6709"/>
<polygon fill="#000000" stroke="#000000" points="297.3587,-662.9375 305.7735,-656.5 295.1809,-656.2849 297.3587,-662.9375"/>
</g>
<!-- fmap2field_wfgen_vsm -->
<g id="node7" class="node">
<title>fmap2field_wfgen_vsm</title>
<polygon fill="none" stroke="#000000" points="263.2735,-364.5 263.2735,-479.5 596.2735,-479.5 596.2735,-364.5 263.2735,-364.5"/>
<text text-anchor="middle" x="334.7735" y="-464.3" font-family="Times,serif" font-size="14.00" fill="#000000">IN</text>
<polyline fill="none" stroke="#000000" points="263.2735,-456.5 406.2735,-456.5 "/>
<text text-anchor="middle" x="334.7735" y="-441.3" font-family="Times,serif" font-size="14.00" fill="#000000">dwell_time</text>
<polyline fill="none" stroke="#000000" points="263.2735,-433.5 406.2735,-433.5 "/>
<text text-anchor="middle" x="334.7735" y="-418.3" font-family="Times,serif" font-size="14.00" fill="#000000">fmap_in_file</text>
<polyline fill="none" stroke="#000000" points="263.2735,-410.5 406.2735,-410.5 "/>
<text text-anchor="middle" x="334.7735" y="-395.3" font-family="Times,serif" font-size="14.00" fill="#000000">mask_file</text>
<polyline fill="none" stroke="#000000" points="263.2735,-387.5 406.2735,-387.5 "/>
<text text-anchor="middle" x="334.7735" y="-372.3" font-family="Times,serif" font-size="14.00" fill="#000000">unwarp_direction</text>
<polyline fill="none" stroke="#000000" points="406.2735,-364.5 406.2735,-479.5 "/>
<text text-anchor="middle" x="446.2735" y="-456.8" font-family="Times,serif" font-size="14.00" fill="#000000">gen_vsm</text>
<polyline fill="none" stroke="#000000" points="406.2735,-441.5 486.2735,-441.5 "/>
<text text-anchor="middle" x="446.2735" y="-418.8" font-family="Times,serif" font-size="14.00" fill="#000000">fsl</text>
<polyline fill="none" stroke="#000000" points="406.2735,-403.5 486.2735,-403.5 "/>
<text text-anchor="middle" x="446.2735" y="-380.3" font-family="Times,serif" font-size="14.00" fill="#000000"> </text>
<polyline fill="none" stroke="#000000" points="486.2735,-364.5 486.2735,-479.5 "/>
<text text-anchor="middle" x="541.2735" y="-447.3" font-family="Times,serif" font-size="14.00" fill="#000000">OUT</text>
<polyline fill="none" stroke="#000000" points="486.2735,-422.5 596.2735,-422.5 "/>
<text text-anchor="middle" x="541.2735" y="-389.8" font-family="Times,serif" font-size="14.00" fill="#000000">shift_out_file</text>
</g>
<!-- fmap2field_wfinputnode&#45;&gt;fmap2field_wfgen_vsm -->
<g id="edge18" class="edge">
<title>fmap2field_wfinputnode:e&#45;&gt;fmap2field_wfgen_vsm:w</title>
<path fill="none" stroke="#000000" d="M327.7735,-869C333.1069,-869 331.2858,-861.0136 327.7735,-857 248.3393,-766.227 138.2077,-911.773 58.7735,-821 16.5407,-772.7387 70.187,-390.19 252.5754,-376.3832"/>
<polygon fill="#000000" stroke="#000000" points="252.9121,-379.8731 262.7735,-376 252.6491,-372.8781 252.9121,-379.8731"/>
</g>
<!-- fmap2field_wfvsm2dfm -->
<g id="node8" class="node">
<title>fmap2field_wfvsm2dfm</title>
<polygon fill="none" stroke="#000000" points="491.7735,-258.5 491.7735,-327.5 715.7735,-327.5 715.7735,-258.5 491.7735,-258.5"/>
<text text-anchor="middle" x="522.7735" y="-312.3" font-family="Times,serif" font-size="14.00" fill="#000000">IN</text>
<polyline fill="none" stroke="#000000" points="491.7735,-304.5 553.7735,-304.5 "/>
<text text-anchor="middle" x="522.7735" y="-289.3" font-family="Times,serif" font-size="14.00" fill="#000000">in_file</text>
<polyline fill="none" stroke="#000000" points="491.7735,-281.5 553.7735,-281.5 "/>
<text text-anchor="middle" x="522.7735" y="-266.3" font-family="Times,serif" font-size="14.00" fill="#000000">pe_dir</text>
<polyline fill="none" stroke="#000000" points="553.7735,-258.5 553.7735,-327.5 "/>
<text text-anchor="middle" x="595.2735" y="-312.3" font-family="Times,serif" font-size="14.00" fill="#000000">vsm2dfm</text>
<polyline fill="none" stroke="#000000" points="553.7735,-304.5 636.7735,-304.5 "/>
<text text-anchor="middle" x="595.2735" y="-289.3" font-family="Times,serif" font-size="14.00" fill="#000000">fmap</text>
<polyline fill="none" stroke="#000000" points="553.7735,-281.5 636.7735,-281.5 "/>
<text text-anchor="middle" x="595.2735" y="-266.3" font-family="Times,serif" font-size="14.00" fill="#000000"> </text>
<polyline fill="none" stroke="#000000" points="636.7735,-258.5 636.7735,-327.5 "/>
<text text-anchor="middle" x="676.2735" y="-312.3" font-family="Times,serif" font-size="14.00" fill="#000000">OUT</text>
<polyline fill="none" stroke="#000000" points="636.7735,-304.5 715.7735,-304.5 "/>
<text text-anchor="middle" x="676.2735" y="-289.3" font-family="Times,serif" font-size="14.00" fill="#000000">fieldmap</text>
<polyline fill="none" stroke="#000000" points="636.7735,-281.5 715.7735,-281.5 "/>
<text text-anchor="middle" x="676.2735" y="-266.3" font-family="Times,serif" font-size="14.00" fill="#000000">out_file</text>
</g>
<!-- fmap2field_wfinputnode&#45;&gt;fmap2field_wfvsm2dfm -->
<g id="edge20" class="edge">
<title>fmap2field_wfinputnode:e&#45;&gt;fmap2field_wfvsm2dfm:w</title>
<path fill="none" stroke="#000000" d="M327.7735,-869C333.1069,-869 331.3023,-860.999 327.7735,-857 242.7161,-760.6068 137.2009,-906.0187 40.7735,-821 -11.7018,-774.7332 1.7735,-738.4591 1.7735,-668.5 1.7735,-668.5 1.7735,-668.5 1.7735,-551 1.7735,-303.3857 234.2377,-270.8604 481.4841,-270.0173"/>
<polygon fill="#000000" stroke="#000000" points="481.7795,-273.5169 491.7735,-270 481.7676,-266.5169 481.7795,-273.5169"/>
</g>
<!-- fmap2field_wffmap_rpt -->
<g id="node9" class="node">
<title>fmap2field_wffmap_rpt</title>
<polygon fill="none" stroke="#000000" points="1030.7735,-106.5 1030.7735,-221.5 1296.7735,-221.5 1296.7735,-106.5 1030.7735,-106.5"/>
<text text-anchor="middle" x="1073.7735" y="-206.3" font-family="Times,serif" font-size="14.00" fill="#000000">IN</text>
<polyline fill="none" stroke="#000000" points="1030.7735,-198.5 1116.7735,-198.5 "/>
<text text-anchor="middle" x="1073.7735" y="-183.3" font-family="Times,serif" font-size="14.00" fill="#000000">fieldmap</text>
<polyline fill="none" stroke="#000000" points="1030.7735,-175.5 1116.7735,-175.5 "/>
<text text-anchor="middle" x="1073.7735" y="-160.3" font-family="Times,serif" font-size="14.00" fill="#000000">mask</text>
<polyline fill="none" stroke="#000000" points="1030.7735,-152.5 1116.7735,-152.5 "/>
<text text-anchor="middle" x="1073.7735" y="-137.3" font-family="Times,serif" font-size="14.00" fill="#000000">moving</text>
<polyline fill="none" stroke="#000000" points="1030.7735,-129.5 1116.7735,-129.5 "/>
<text text-anchor="middle" x="1073.7735" y="-114.3" font-family="Times,serif" font-size="14.00" fill="#000000">reference</text>
<polyline fill="none" stroke="#000000" points="1116.7735,-106.5 1116.7735,-221.5 "/>
<text text-anchor="middle" x="1160.7735" y="-198.8" font-family="Times,serif" font-size="14.00" fill="#000000">fmap_rpt</text>
<polyline fill="none" stroke="#000000" points="1116.7735,-183.5 1204.7735,-183.5 "/>
<text text-anchor="middle" x="1160.7735" y="-160.8" font-family="Times,serif" font-size="14.00" fill="#000000">reportlets</text>
<polyline fill="none" stroke="#000000" points="1116.7735,-145.5 1204.7735,-145.5 "/>
<text text-anchor="middle" x="1160.7735" y="-122.3" font-family="Times,serif" font-size="14.00" fill="#000000"> </text>
<polyline fill="none" stroke="#000000" points="1204.7735,-106.5 1204.7735,-221.5 "/>
<text text-anchor="middle" x="1250.7735" y="-189.3" font-family="Times,serif" font-size="14.00" fill="#000000">OUT</text>
<polyline fill="none" stroke="#000000" points="1204.7735,-164.5 1296.7735,-164.5 "/>
<text text-anchor="middle" x="1250.7735" y="-131.8" font-family="Times,serif" font-size="14.00" fill="#000000">out_report</text>
</g>
<!-- fmap2field_wfinputnode&#45;&gt;fmap2field_wffmap_rpt -->
<g id="edge15" class="edge">
<title>fmap2field_wfinputnode:e&#45;&gt;fmap2field_wffmap_rpt:w</title>
<path fill="none" stroke="#000000" d="M327.7735,-915C534.7108,-915 1225.7735,-875.4372 1225.7735,-668.5 1225.7735,-668.5 1225.7735,-668.5 1225.7735,-422 1225.7735,-414.2408 1033.6974,-229.1872 1030.7735,-222 1014.8525,-182.8645 989.418,-128.3805 1020.4643,-119.3051"/>
<polygon fill="#000000" stroke="#000000" points="1021.2923,-122.7283 1030.7735,-118 1020.4131,-115.7837 1021.2923,-122.7283"/>
</g>
<!-- fmap2field_wfget_ees&#45;&gt;fmap2field_wfgen_vsm -->
<g id="edge9" class="edge">
<title>fmap2field_wfget_ees:e&#45;&gt;fmap2field_wfgen_vsm:w</title>
<path fill="none" stroke="#000000" d="M262.7735,-769C330.836,-769 205.8775,-479.4685 252.8284,-447.801"/>
<polygon fill="#000000" stroke="#000000" points="254.0969,-451.08 262.7735,-445 252.1991,-444.3421 254.0969,-451.08"/>
</g>
<!-- fmap2field_wffmap2ref_reg&#45;&gt;fmap2field_wffmap_mask2ref_apply -->
<g id="edge3" class="edge">
<title>fmap2field_wffmap2ref_reg:e&#45;&gt;fmap2field_wffmap_mask2ref_apply:w</title>
<path fill="none" stroke="#000000" d="M757.7735,-786C787.9498,-786 748.8603,-666.0938 763.3435,-638.9276"/>
<polygon fill="#000000" stroke="#000000" points="765.2602,-641.8563 771.7735,-633.5 761.4708,-635.9706 765.2602,-641.8563"/>
</g>
<!-- fmap2field_wffmap2ref_reg&#45;&gt;fmap2field_wffmap2ref_apply -->
<g id="edge2" class="edge">
<title>fmap2field_wffmap2ref_reg:e&#45;&gt;fmap2field_wffmap2ref_apply:w</title>
<path fill="none" stroke="#000000" d="M757.7735,-786C773.3291,-786 768.3273,-762.4277 757.7735,-751 689.4106,-676.9757 374.1365,-789.0243 305.7735,-715 283.7903,-691.1962 272.1519,-644.7637 295.869,-635.2341"/>
<polygon fill="#000000" stroke="#000000" points="296.527,-638.6723 305.7735,-633.5 295.3197,-631.7772 296.527,-638.6723"/>
</g>
<!-- fmap2field_wffmap2ref_reg&#45;&gt;fmap2field_wffmap_rpt -->
<g id="edge4" class="edge">
<title>fmap2field_wffmap2ref_reg:e&#45;&gt;fmap2field_wffmap_rpt:w</title>
<path fill="none" stroke="#000000" d="M757.7735,-763C763.1069,-763 757.9599,-756.3301 757.7735,-751 754.6605,-661.948 743.7735,-640.1064 743.7735,-551 743.7735,-551 743.7735,-551 743.7735,-422 743.7735,-292.1423 865.5798,-314.4484 956.7735,-222 988.3415,-189.9977 983.1551,-148.1615 1020.3546,-141.8199"/>
<polygon fill="#000000" stroke="#000000" points="1021.079,-145.2738 1030.7735,-141 1020.5297,-138.2954 1021.079,-145.2738"/>
</g>
<!-- fmap2field_wffmap_mask2ref_apply&#45;&gt;fmap2field_wfgen_vsm -->
<g id="edge6" class="edge">
<title>fmap2field_wffmap_mask2ref_apply:e&#45;&gt;fmap2field_wfgen_vsm:w</title>
<path fill="none" stroke="#000000" d="M1197.7735,-645.5C1208.218,-645.5 1204.4646,-630.0198 1197.7735,-622 1176.719,-596.7645 648.3131,-520.6152 615.7735,-516 537.7036,-504.9271 315.6258,-538.5164 262.7735,-480 241.2828,-456.2061 229.5168,-410.5448 252.6324,-400.8411"/>
<polygon fill="#000000" stroke="#000000" points="253.5596,-404.2301 262.7735,-399 252.3091,-397.3426 253.5596,-404.2301"/>
</g>
<!-- fmap2field_wffmap_mask2ref_apply&#45;&gt;fmap2field_wffmap_rpt -->
<g id="edge5" class="edge">
<title>fmap2field_wffmap_mask2ref_apply:e&#45;&gt;fmap2field_wffmap_rpt:w</title>
<path fill="none" stroke="#000000" d="M1197.7735,-645.5C1208.218,-645.5 1199.8255,-632.2409 1197.7735,-622 1159.9248,-433.1049 1068.6223,-410.8951 1030.7735,-222 1026.6191,-201.2663 1011.9344,-175.5199 1021.0204,-166.9367"/>
<polygon fill="#000000" stroke="#000000" points="1022.2073,-170.2346 1030.7735,-164 1020.189,-163.5319 1022.2073,-170.2346"/>
</g>
<!-- fmap2field_wftorads -->
<g id="node6" class="node">
<title>fmap2field_wftorads</title>
<polygon fill="none" stroke="#000000" points="414.7735,-516.5 414.7735,-585.5 606.7735,-585.5 606.7735,-516.5 414.7735,-516.5"/>
<text text-anchor="middle" x="444.7735" y="-564.8" font-family="Times,serif" font-size="14.00" fill="#000000">IN</text>
<polyline fill="none" stroke="#000000" points="414.7735,-551.5 474.7735,-551.5 "/>
<text text-anchor="middle" x="444.7735" y="-530.3" font-family="Times,serif" font-size="14.00" fill="#000000">in_file</text>
<polyline fill="none" stroke="#000000" points="474.7735,-516.5 474.7735,-585.5 "/>
<text text-anchor="middle" x="505.7735" y="-570.3" font-family="Times,serif" font-size="14.00" fill="#000000">torads</text>
<polyline fill="none" stroke="#000000" points="474.7735,-562.5 536.7735,-562.5 "/>
<text text-anchor="middle" x="505.7735" y="-547.3" font-family="Times,serif" font-size="14.00" fill="#000000">fmap</text>
<polyline fill="none" stroke="#000000" points="474.7735,-539.5 536.7735,-539.5 "/>
<text text-anchor="middle" x="505.7735" y="-524.3" font-family="Times,serif" font-size="14.00" fill="#000000"> </text>
<polyline fill="none" stroke="#000000" points="536.7735,-516.5 536.7735,-585.5 "/>
<text text-anchor="middle" x="571.7735" y="-564.8" font-family="Times,serif" font-size="14.00" fill="#000000">OUT</text>
<polyline fill="none" stroke="#000000" points="536.7735,-551.5 606.7735,-551.5 "/>
<text text-anchor="middle" x="571.7735" y="-530.3" font-family="Times,serif" font-size="14.00" fill="#000000">out_file</text>
</g>
<!-- fmap2field_wffmap2ref_apply&#45;&gt;fmap2field_wftorads -->
<g id="edge1" class="edge">
<title>fmap2field_wffmap2ref_apply:e&#45;&gt;fmap2field_wftorads:w</title>
<path fill="none" stroke="#000000" d="M685.7735,-645.5C696.218,-645.5 692.6554,-629.8566 685.7735,-622 605.7147,-530.6028 494.8323,-677.3972 414.7735,-586 402.2818,-571.7391 394.7325,-545.8835 405.1802,-537.0521"/>
<polygon fill="#000000" stroke="#000000" points="406.3053,-540.3671 414.7735,-534 404.183,-533.6966 406.3053,-540.3671"/>
</g>
<!-- fmap2field_wftorads&#45;&gt;fmap2field_wfgen_vsm -->
<g id="edge21" class="edge">
<title>fmap2field_wftorads:e&#45;&gt;fmap2field_wfgen_vsm:w</title>
<path fill="none" stroke="#000000" d="M606.7735,-534C614.7735,-534 612.1279,-521.944 606.7735,-516 555.3301,-458.892 314.217,-537.108 262.7735,-480 248.2163,-463.8399 239.8728,-433.6589 253.105,-424.6219"/>
<polygon fill="#000000" stroke="#000000" points="254.0382,-427.9954 262.7735,-422 252.206,-421.2394 254.0382,-427.9954"/>
</g>
<!-- fmap2field_wfgen_vsm&#45;&gt;fmap2field_wfvsm2dfm -->
<g id="edge8" class="edge">
<title>fmap2field_wfgen_vsm:e&#45;&gt;fmap2field_wfvsm2dfm:w</title>
<path fill="none" stroke="#000000" d="M596.7735,-393C609.6624,-393 604.2651,-374.4881 596.7735,-364 568.0991,-323.8558 520.448,-368.1442 491.7735,-328 485.5575,-319.2976 480.5361,-306.018 483.0595,-298.5681"/>
<polygon fill="#000000" stroke="#000000" points="485.2315,-301.3338 491.7735,-293 481.4624,-295.4352 485.2315,-301.3338"/>
</g>
<!-- fmap2field_wfvsm2dfm&#45;&gt;fmap2field_wffmap_rpt -->
<g id="edge22" class="edge">
<title>fmap2field_wfvsm2dfm:e&#45;&gt;fmap2field_wffmap_rpt:w</title>
<path fill="none" stroke="#000000" d="M715.7735,-293C732.5274,-293 716.681,-268.4535 729.7735,-258 809.6,-194.2638 859.1722,-252.1421 956.7735,-222 988.0051,-212.3548 993.4823,-191.7892 1020.6573,-187.7113"/>
<polygon fill="#000000" stroke="#000000" points="1021.0437,-191.1928 1030.7735,-187 1020.5527,-184.2101 1021.0437,-191.1928"/>
</g>
<!-- fmap2field_wfoutputnode -->
<g id="node11" class="node">
<title>fmap2field_wfoutputnode</title>
<polygon fill="none" stroke="#000000" points="716.2735,-129.5 716.2735,-198.5 947.2735,-198.5 947.2735,-129.5 716.2735,-129.5"/>
<text text-anchor="middle" x="757.7735" y="-177.8" font-family="Times,serif" font-size="14.00" fill="#000000">IN</text>
<polyline fill="none" stroke="#000000" points="716.2735,-164.5 799.2735,-164.5 "/>
<text text-anchor="middle" x="757.7735" y="-143.3" font-family="Times,serif" font-size="14.00" fill="#000000">out_warp</text>
<polyline fill="none" stroke="#000000" points="799.2735,-129.5 799.2735,-198.5 "/>
<text text-anchor="middle" x="848.2735" y="-183.3" font-family="Times,serif" font-size="14.00" fill="#000000">outputnode</text>
<polyline fill="none" stroke="#000000" points="799.2735,-175.5 897.2735,-175.5 "/>
<text text-anchor="middle" x="848.2735" y="-160.3" font-family="Times,serif" font-size="14.00" fill="#000000">utility</text>
<polyline fill="none" stroke="#000000" points="799.2735,-152.5 897.2735,-152.5 "/>
<text text-anchor="middle" x="848.2735" y="-137.3" font-family="Times,serif" font-size="14.00" fill="#000000"> </text>
<polyline fill="none" stroke="#000000" points="897.2735,-129.5 897.2735,-198.5 "/>
<text text-anchor="middle" x="922.2735" y="-160.3" font-family="Times,serif" font-size="14.00" fill="#000000">OUT</text>
</g>
<!-- fmap2field_wfvsm2dfm&#45;&gt;fmap2field_wfoutputnode -->
<g id="edge23" class="edge">
<title>fmap2field_wfvsm2dfm:e&#45;&gt;fmap2field_wfoutputnode:w</title>
<path fill="none" stroke="#000000" d="M715.7735,-270C739.1563,-270 702.5294,-179.9853 708.5656,-153.9654"/>
<polygon fill="#000000" stroke="#000000" points="711.0147,-156.466 715.7735,-147 706.1503,-151.4322 711.0147,-156.466"/>
</g>
<!-- fmap2field_wfds_report_fmap -->
<g id="node10" class="node">
<title>fmap2field_wfds_report_fmap</title>
<polygon fill="none" stroke="#000000" points="1297.2735,-.5 1297.2735,-69.5 1536.2735,-69.5 1536.2735,-.5 1297.2735,-.5"/>
<text text-anchor="middle" x="1327.2735" y="-48.8" font-family="Times,serif" font-size="14.00" fill="#000000">IN</text>
<polyline fill="none" stroke="#000000" points="1297.2735,-35.5 1357.2735,-35.5 "/>
<text text-anchor="middle" x="1327.2735" y="-14.3" font-family="Times,serif" font-size="14.00" fill="#000000">in_file</text>
<polyline fill="none" stroke="#000000" points="1357.2735,-.5 1357.2735,-69.5 "/>
<text text-anchor="middle" x="1421.7735" y="-54.3" font-family="Times,serif" font-size="14.00" fill="#000000">ds_report_fmap</text>
<polyline fill="none" stroke="#000000" points="1357.2735,-46.5 1486.2735,-46.5 "/>
<text text-anchor="middle" x="1421.7735" y="-31.3" font-family="Times,serif" font-size="14.00" fill="#000000">bids</text>
<polyline fill="none" stroke="#000000" points="1357.2735,-23.5 1486.2735,-23.5 "/>
<text text-anchor="middle" x="1421.7735" y="-8.3" font-family="Times,serif" font-size="14.00" fill="#000000"> </text>
<polyline fill="none" stroke="#000000" points="1486.2735,-.5 1486.2735,-69.5 "/>
<text text-anchor="middle" x="1511.2735" y="-31.3" font-family="Times,serif" font-size="14.00" fill="#000000">OUT</text>
</g>
<!-- fmap2field_wffmap_rpt&#45;&gt;fmap2field_wfds_report_fmap -->
<g id="edge7" class="edge">
<title>fmap2field_wffmap_rpt:e&#45;&gt;fmap2field_wfds_report_fmap:w</title>
<path fill="none" stroke="#000000" d="M1296.7735,-135C1344.5079,-135 1260.7863,-36.408 1286.9537,-20.2328"/>
<polygon fill="#000000" stroke="#000000" points="1287.7984,-23.6301 1296.7735,-18 1286.2464,-16.8043 1287.7984,-23.6301"/>
</g>
</g>
</svg>
