<?xml version="1.0" encoding="UTF-8" standalone="no"?>
<!DOCTYPE svg PUBLIC "-//W3C//DTD SVG 1.1//EN"
 "http://www.w3.org/Graphics/SVG/1.1/DTD/svg11.dtd">
<!-- Generated by graphviz version 2.40.1 (20161225.0304)
 -->
<!-- Title: structs Pages: 1 -->
<svg width="1465pt" height="723pt"
 viewBox="0.00 0.00 1464.60 723.00" xmlns="http://www.w3.org/2000/svg" xmlns:xlink="http://www.w3.org/1999/xlink">
<g id="graph0" class="graph" transform="scale(1 1) rotate(0) translate(4 719)">
<title>structs</title>
<polygon fill="#ffffff" stroke="transparent" points="-4,4 -4,-719 1460.5994,-719 1460.5994,4 -4,4"/>
<!-- unwarp_wfinputnode -->
<g id="node1" class="node">
<title>unwarp_wfinputnode</title>
<polygon fill="none" stroke="#000000" points="104.0994,-622.5 104.0994,-714.5 323.0994,-714.5 323.0994,-622.5 104.0994,-622.5"/>
<text text-anchor="middle" x="121.5994" y="-664.8" font-family="Times,serif" font-size="14.00" fill="#000000">IN</text>
<polyline fill="none" stroke="#000000" points="139.0994,-622.5 139.0994,-714.5 "/>
<text text-anchor="middle" x="183.5994" y="-695.8" font-family="Times,serif" font-size="14.00" fill="#000000">inputnode</text>
<polyline fill="none" stroke="#000000" points="139.0994,-684.5 228.0994,-684.5 "/>
<text text-anchor="middle" x="183.5994" y="-665.3" font-family="Times,serif" font-size="14.00" fill="#000000">utility</text>
<polyline fill="none" stroke="#000000" points="139.0994,-653.5 228.0994,-653.5 "/>
<text text-anchor="middle" x="183.5994" y="-634.3" font-family="Times,serif" font-size="14.00" fill="#000000"> </text>
<polyline fill="none" stroke="#000000" points="228.0994,-622.5 228.0994,-714.5 "/>
<text text-anchor="middle" x="275.5994" y="-699.3" font-family="Times,serif" font-size="14.00" fill="#000000">OUT</text>
<polyline fill="none" stroke="#000000" points="228.0994,-691.5 323.0994,-691.5 "/>
<text text-anchor="middle" x="275.5994" y="-676.3" font-family="Times,serif" font-size="14.00" fill="#000000">distorted</text>
<polyline fill="none" stroke="#000000" points="228.0994,-668.5 323.0994,-668.5 "/>
<text text-anchor="middle" x="275.5994" y="-653.3" font-family="Times,serif" font-size="14.00" fill="#000000">fmap_coeff</text>
<polyline fill="none" stroke="#000000" points="228.0994,-645.5 323.0994,-645.5 "/>
<text text-anchor="middle" x="275.5994" y="-630.3" font-family="Times,serif" font-size="14.00" fill="#000000">metadata</text>
</g>
<!-- unwarp_wfrotime -->
<g id="node2" class="node">
<title>unwarp_wfrotime</title>
<polygon fill="none" stroke="#000000" points="16.5994,-516.5 16.5994,-585.5 276.5994,-585.5 276.5994,-516.5 16.5994,-516.5"/>
<text text-anchor="middle" x="58.5994" y="-570.3" font-family="Times,serif" font-size="14.00" fill="#000000">IN</text>
<polyline fill="none" stroke="#000000" points="16.5994,-562.5 100.5994,-562.5 "/>
<text text-anchor="middle" x="58.5994" y="-547.3" font-family="Times,serif" font-size="14.00" fill="#000000">in_file</text>
<polyline fill="none" stroke="#000000" points="16.5994,-539.5 100.5994,-539.5 "/>
<text text-anchor="middle" x="58.5994" y="-524.3" font-family="Times,serif" font-size="14.00" fill="#000000">metadata</text>
<polyline fill="none" stroke="#000000" points="100.5994,-516.5 100.5994,-585.5 "/>
<text text-anchor="middle" x="132.5994" y="-570.3" font-family="Times,serif" font-size="14.00" fill="#000000">rotime</text>
<polyline fill="none" stroke="#000000" points="100.5994,-562.5 164.5994,-562.5 "/>
<text text-anchor="middle" x="132.5994" y="-547.3" font-family="Times,serif" font-size="14.00" fill="#000000">epi</text>
<polyline fill="none" stroke="#000000" points="100.5994,-539.5 164.5994,-539.5 "/>
<text text-anchor="middle" x="132.5994" y="-524.3" font-family="Times,serif" font-size="14.00" fill="#000000"> </text>
<polyline fill="none" stroke="#000000" points="164.5994,-516.5 164.5994,-585.5 "/>
<text text-anchor="middle" x="220.5994" y="-570.3" font-family="Times,serif" font-size="14.00" fill="#000000">OUT</text>
<polyline fill="none" stroke="#000000" points="164.5994,-562.5 276.5994,-562.5 "/>
<text text-anchor="middle" x="220.5994" y="-547.3" font-family="Times,serif" font-size="14.00" fill="#000000">pe_direction</text>
<polyline fill="none" stroke="#000000" points="164.5994,-539.5 276.5994,-539.5 "/>
<text text-anchor="middle" x="220.5994" y="-524.3" font-family="Times,serif" font-size="14.00" fill="#000000">readout_time</text>
</g>
<!-- unwarp_wfinputnode&#45;&gt;unwarp_wfrotime -->
<g id="edge4" class="edge">
<title>unwarp_wfinputnode:e&#45;&gt;unwarp_wfrotime:w</title>
<path fill="none" stroke="#000000" d="M323.5994,-680.5C349.5994,-680.5 340.8804,-641.4259 323.5994,-622 232.2894,-519.357 107.9094,-688.643 16.5994,-586 9.3297,-577.828 4.5926,-563.8444 7.828,-556.2619"/>
<polygon fill="#000000" stroke="#000000" points="9.8246,-559.1457 16.5994,-551 6.2235,-553.1429 9.8246,-559.1457"/>
</g>
<!-- unwarp_wfinputnode&#45;&gt;unwarp_wfrotime -->
<g id="edge8" class="edge">
<title>unwarp_wfinputnode:e&#45;&gt;unwarp_wfrotime:w</title>
<path fill="none" stroke="#000000" d="M323.5994,-633.5C328.7105,-633.5 326.9965,-625.8188 323.5994,-622 232.2894,-519.357 107.9094,-688.643 16.5994,-586 2.1431,-569.7495 -6.2697,-539.6307 6.9383,-530.6153"/>
<polygon fill="#000000" stroke="#000000" points="7.8614,-533.9915 16.5994,-528 6.0322,-527.2347 7.8614,-533.9915"/>
</g>
<!-- unwarp_wfresample -->
<g id="node3" class="node">
<title>unwarp_wfresample</title>
<polygon fill="none" stroke="#000000" points="276.5994,-364.5 276.5994,-479.5 524.5994,-479.5 524.5994,-364.5 276.5994,-364.5"/>
<text text-anchor="middle" x="317.5994" y="-464.3" font-family="Times,serif" font-size="14.00" fill="#000000">IN</text>
<polyline fill="none" stroke="#000000" points="276.5994,-456.5 358.5994,-456.5 "/>
<text text-anchor="middle" x="317.5994" y="-441.3" font-family="Times,serif" font-size="14.00" fill="#000000">in_coeff</text>
<polyline fill="none" stroke="#000000" points="276.5994,-433.5 358.5994,-433.5 "/>
<text text-anchor="middle" x="317.5994" y="-418.3" font-family="Times,serif" font-size="14.00" fill="#000000">in_target</text>
<polyline fill="none" stroke="#000000" points="276.5994,-410.5 358.5994,-410.5 "/>
<text text-anchor="middle" x="317.5994" y="-395.3" font-family="Times,serif" font-size="14.00" fill="#000000">pe_dir</text>
<polyline fill="none" stroke="#000000" points="276.5994,-387.5 358.5994,-387.5 "/>
<text text-anchor="middle" x="317.5994" y="-372.3" font-family="Times,serif" font-size="14.00" fill="#000000">ro_time</text>
<polyline fill="none" stroke="#000000" points="358.5994,-364.5 358.5994,-479.5 "/>
<text text-anchor="middle" x="400.0994" y="-456.8" font-family="Times,serif" font-size="14.00" fill="#000000">resample</text>
<polyline fill="none" stroke="#000000" points="358.5994,-441.5 441.5994,-441.5 "/>
<text text-anchor="middle" x="400.0994" y="-418.8" font-family="Times,serif" font-size="14.00" fill="#000000">bspline</text>
<polyline fill="none" stroke="#000000" points="358.5994,-403.5 441.5994,-403.5 "/>
<text text-anchor="middle" x="400.0994" y="-380.3" font-family="Times,serif" font-size="14.00" fill="#000000"> </text>
<polyline fill="none" stroke="#000000" points="441.5994,-364.5 441.5994,-479.5 "/>
<text text-anchor="middle" x="483.0994" y="-456.8" font-family="Times,serif" font-size="14.00" fill="#000000">OUT</text>
<polyline fill="none" stroke="#000000" points="441.5994,-441.5 524.5994,-441.5 "/>
<text text-anchor="middle" x="483.0994" y="-418.8" font-family="Times,serif" font-size="14.00" fill="#000000">out_field</text>
<polyline fill="none" stroke="#000000" points="441.5994,-403.5 524.5994,-403.5 "/>
<text text-anchor="middle" x="483.0994" y="-380.3" font-family="Times,serif" font-size="14.00" fill="#000000">out_warp</text>
</g>
<!-- unwarp_wfinputnode&#45;&gt;unwarp_wfresample -->
<g id="edge3" class="edge">
<title>unwarp_wfinputnode:e&#45;&gt;unwarp_wfresample:w</title>
<path fill="none" stroke="#000000" d="M323.5994,-680.5C377.6523,-680.5 241.2994,-458.9472 267.0889,-426.0604"/>
<polygon fill="#000000" stroke="#000000" points="268.7768,-429.1455 276.5994,-422 266.0282,-422.7077 268.7768,-429.1455"/>
</g>
<!-- unwarp_wfinputnode&#45;&gt;unwarp_wfresample -->
<g id="edge7" class="edge">
<title>unwarp_wfinputnode:e&#45;&gt;unwarp_wfresample:w</title>
<path fill="none" stroke="#000000" d="M323.5994,-656.5C348.7742,-656.5 376.518,-647.3974 313.5994,-516 303.6904,-495.3063 285.5246,-501.1367 276.5994,-480 272.5338,-470.3718 266.9093,-457.8819 268.3739,-450.7221"/>
<polygon fill="#000000" stroke="#000000" points="270.3891,-453.5839 276.5994,-445 266.3916,-447.8375 270.3891,-453.5839"/>
</g>
<!-- unwarp_wfunwarp -->
<g id="node4" class="node">
<title>unwarp_wfunwarp</title>
<polygon fill="none" stroke="#000000" points="553.0994,-235.5 553.0994,-327.5 876.0994,-327.5 876.0994,-235.5 553.0994,-235.5"/>
<text text-anchor="middle" x="621.5994" y="-312.3" font-family="Times,serif" font-size="14.00" fill="#000000">IN</text>
<polyline fill="none" stroke="#000000" points="553.0994,-304.5 690.0994,-304.5 "/>
<text text-anchor="middle" x="621.5994" y="-289.3" font-family="Times,serif" font-size="14.00" fill="#000000">input_image</text>
<polyline fill="none" stroke="#000000" points="553.0994,-281.5 690.0994,-281.5 "/>
<text text-anchor="middle" x="621.5994" y="-266.3" font-family="Times,serif" font-size="14.00" fill="#000000">reference_image</text>
<polyline fill="none" stroke="#000000" points="553.0994,-258.5 690.0994,-258.5 "/>
<text text-anchor="middle" x="621.5994" y="-243.3" font-family="Times,serif" font-size="14.00" fill="#000000">transforms</text>
<polyline fill="none" stroke="#000000" points="690.0994,-235.5 690.0994,-327.5 "/>
<text text-anchor="middle" x="725.5994" y="-308.8" font-family="Times,serif" font-size="14.00" fill="#000000">unwarp</text>
<polyline fill="none" stroke="#000000" points="690.0994,-297.5 761.0994,-297.5 "/>
<text text-anchor="middle" x="725.5994" y="-278.3" font-family="Times,serif" font-size="14.00" fill="#000000">fixes</text>
<polyline fill="none" stroke="#000000" points="690.0994,-266.5 761.0994,-266.5 "/>
<text text-anchor="middle" x="725.5994" y="-247.3" font-family="Times,serif" font-size="14.00" fill="#000000"> </text>
<polyline fill="none" stroke="#000000" points="761.0994,-235.5 761.0994,-327.5 "/>
<text text-anchor="middle" x="818.5994" y="-300.8" font-family="Times,serif" font-size="14.00" fill="#000000">OUT</text>
<polyline fill="none" stroke="#000000" points="761.0994,-281.5 876.0994,-281.5 "/>
<text text-anchor="middle" x="818.5994" y="-254.8" font-family="Times,serif" font-size="14.00" fill="#000000">output_image</text>
</g>
<!-- unwarp_wfinputnode&#45;&gt;unwarp_wfunwarp -->
<g id="edge5" class="edge">
<title>unwarp_wfinputnode:e&#45;&gt;unwarp_wfunwarp:w</title>
<path fill="none" stroke="#000000" d="M323.5994,-680.5C452.6416,-680.5 476.8866,-595.9118 533.5994,-480 541.5737,-463.7018 534.2671,-334.2811 546.0189,-301.1857"/>
<polygon fill="#000000" stroke="#000000" points="548.7542,-303.3724 552.5994,-293.5 543.4369,-298.8198 548.7542,-303.3724"/>
</g>
<!-- unwarp_wfinputnode&#45;&gt;unwarp_wfunwarp -->
<g id="edge6" class="edge">
<title>unwarp_wfinputnode:e&#45;&gt;unwarp_wfunwarp:w</title>
<path fill="none" stroke="#000000" d="M323.5994,-680.5C617.1736,-680.5 548.0654,-341.4937 549.5412,-279.2542"/>
<polygon fill="#000000" stroke="#000000" points="552.9474,-280.0891 552.5994,-269.5 546.268,-277.9949 552.9474,-280.0891"/>
</g>
<!-- unwarp_wfrotime&#45;&gt;unwarp_wfresample -->
<g id="edge11" class="edge">
<title>unwarp_wfrotime:e&#45;&gt;unwarp_wfresample:w</title>
<path fill="none" stroke="#000000" d="M276.5994,-551C276.5994,-551 276.5994,-443.7887 276.5994,-409.4476"/>
<polygon fill="#000000" stroke="#000000" points="280.0995,-409 276.5994,-399 273.0995,-409 280.0995,-409"/>
</g>
<!-- unwarp_wfrotime&#45;&gt;unwarp_wfresample -->
<g id="edge12" class="edge">
<title>unwarp_wfrotime:e&#45;&gt;unwarp_wfresample:w</title>
<path fill="none" stroke="#000000" d="M276.5994,-528C276.5994,-528 276.5994,-420.7887 276.5994,-386.4476"/>
<polygon fill="#000000" stroke="#000000" points="280.0995,-386 276.5994,-376 273.0995,-386 280.0995,-386"/>
</g>
<!-- unwarp_wfresample&#45;&gt;unwarp_wfunwarp -->
<g id="edge10" class="edge">
<title>unwarp_wfresample:e&#45;&gt;unwarp_wfunwarp:w</title>
<path fill="none" stroke="#000000" d="M524.5994,-384C537.4268,-384 535.9562,-340.5521 538.5994,-328 541.6465,-313.5301 536.9559,-269.5747 544.5824,-252.9565"/>
<polygon fill="#000000" stroke="#000000" points="547.0064,-255.4983 552.5994,-246.5 542.6158,-250.0465 547.0064,-255.4983"/>
</g>
<!-- unwarp_wfoutputnode -->
<g id="node6" class="node">
<title>unwarp_wfoutputnode</title>
<polygon fill="none" stroke="#000000" points="1176.5994,-.5 1176.5994,-92.5 1456.5994,-92.5 1456.5994,-.5 1176.5994,-.5"/>
<text text-anchor="middle" x="1242.5994" y="-77.3" font-family="Times,serif" font-size="14.00" fill="#000000">IN</text>
<polyline fill="none" stroke="#000000" points="1176.5994,-69.5 1308.5994,-69.5 "/>
<text text-anchor="middle" x="1242.5994" y="-54.3" font-family="Times,serif" font-size="14.00" fill="#000000">corrected</text>
<polyline fill="none" stroke="#000000" points="1176.5994,-46.5 1308.5994,-46.5 "/>
<text text-anchor="middle" x="1242.5994" y="-31.3" font-family="Times,serif" font-size="14.00" fill="#000000">corrected_mask</text>
<polyline fill="none" stroke="#000000" points="1176.5994,-23.5 1308.5994,-23.5 "/>
<text text-anchor="middle" x="1242.5994" y="-8.3" font-family="Times,serif" font-size="14.00" fill="#000000">fieldmap</text>
<polyline fill="none" stroke="#000000" points="1308.5994,-.5 1308.5994,-92.5 "/>
<text text-anchor="middle" x="1357.5994" y="-73.8" font-family="Times,serif" font-size="14.00" fill="#000000">outputnode</text>
<polyline fill="none" stroke="#000000" points="1308.5994,-62.5 1406.5994,-62.5 "/>
<text text-anchor="middle" x="1357.5994" y="-43.3" font-family="Times,serif" font-size="14.00" fill="#000000">utility</text>
<polyline fill="none" stroke="#000000" points="1308.5994,-31.5 1406.5994,-31.5 "/>
<text text-anchor="middle" x="1357.5994" y="-12.3" font-family="Times,serif" font-size="14.00" fill="#000000"> </text>
<polyline fill="none" stroke="#000000" points="1406.5994,-.5 1406.5994,-92.5 "/>
<text text-anchor="middle" x="1431.5994" y="-42.8" font-family="Times,serif" font-size="14.00" fill="#000000">OUT</text>
</g>
<!-- unwarp_wfresample&#45;&gt;unwarp_wfoutputnode -->
<g id="edge9" class="edge">
<title>unwarp_wfresample:e&#45;&gt;unwarp_wfoutputnode:w</title>
<path fill="none" stroke="#000000" d="M524.5994,-423C531.1785,-423 528.9416,-370.5461 529.5994,-364 535.3705,-306.5696 514.2544,-284.0992 544.5994,-235 621.1574,-111.1266 1009.6157,-15.8627 1166.1811,-11.6457"/>
<polygon fill="#000000" stroke="#000000" points="1166.6494,-15.1396 1176.5994,-11.5 1166.5514,-8.1403 1166.6494,-15.1396"/>
</g>
<!-- unwarp_wfbrainextraction_wf -->
<g id="node5" class="node">
<title>unwarp_wfbrainextraction_wf</title>
<polygon fill="none" stroke="#000000" points="715.0994,-129.5 715.0994,-198.5 1176.0994,-198.5 1176.0994,-129.5 715.0994,-129.5"/>
<text text-anchor="middle" x="783.5994" y="-177.8" font-family="Times,serif" font-size="14.00" fill="#000000">IN</text>
<polyline fill="none" stroke="#000000" points="715.0994,-164.5 852.0994,-164.5 "/>
<text text-anchor="middle" x="783.5994" y="-143.3" font-family="Times,serif" font-size="14.00" fill="#000000">inputnode.in_file</text>
<polyline fill="none" stroke="#000000" points="852.0994,-129.5 852.0994,-198.5 "/>
<text text-anchor="middle" x="928.0994" y="-183.3" font-family="Times,serif" font-size="14.00" fill="#000000">brainextraction_wf</text>
<polyline fill="none" stroke="#000000" points="852.0994,-175.5 1004.0994,-175.5 "/>
<text text-anchor="middle" x="928.0994" y="-160.3" font-family="Times,serif" font-size="14.00" fill="#000000"> </text>
<polyline fill="none" stroke="#000000" points="852.0994,-152.5 1004.0994,-152.5 "/>
<text text-anchor="middle" x="928.0994" y="-137.3" font-family="Times,serif" font-size="14.00" fill="#000000"> </text>
<polyline fill="none" stroke="#000000" points="1004.0994,-129.5 1004.0994,-198.5 "/>
<text text-anchor="middle" x="1090.0994" y="-183.3" font-family="Times,serif" font-size="14.00" fill="#000000">OUT</text>
<polyline fill="none" stroke="#000000" points="1004.0994,-175.5 1176.0994,-175.5 "/>
<text text-anchor="middle" x="1090.0994" y="-160.3" font-family="Times,serif" font-size="14.00" fill="#000000">outputnode.out_file</text>
<polyline fill="none" stroke="#000000" points="1004.0994,-152.5 1176.0994,-152.5 "/>
<text text-anchor="middle" x="1090.0994" y="-137.3" font-family="Times,serif" font-size="14.00" fill="#000000">outputnode.out_mask</text>
</g>
<!-- unwarp_wfunwarp&#45;&gt;unwarp_wfbrainextraction_wf -->
<g id="edge13" class="edge">
<title>unwarp_wfunwarp:e&#45;&gt;unwarp_wfbrainextraction_wf:w</title>
<path fill="none" stroke="#000000" d="M876.5994,-258.5C887.0438,-258.5 883.1348,-243.1471 876.5994,-235 830.448,-177.467 760.7508,-256.533 714.5994,-199 702.8496,-184.3525 694.9363,-159.1791 704.7781,-150.254"/>
<polygon fill="#000000" stroke="#000000" points="706.2076,-153.4675 714.5994,-147 704.006,-146.8227 706.2076,-153.4675"/>
</g>
<!-- unwarp_wfbrainextraction_wf&#45;&gt;unwarp_wfoutputnode -->
<g id="edge1" class="edge">
<title>unwarp_wfbrainextraction_wf:e&#45;&gt;unwarp_wfoutputnode:w</title>
<path fill="none" stroke="#000000" d="M1176.5994,-164C1219.0925,-164 1146.0575,-77.354 1166.8891,-61.1079"/>
<polygon fill="#000000" stroke="#000000" points="1167.8495,-64.4741 1176.5994,-58.5 1166.0338,-57.7136 1167.8495,-64.4741"/>
</g>
<!-- unwarp_wfbrainextraction_wf&#45;&gt;unwarp_wfoutputnode -->
<g id="edge2" class="edge">
<title>unwarp_wfbrainextraction_wf:e&#45;&gt;unwarp_wfoutputnode:w</title>
<path fill="none" stroke="#000000" d="M1176.5994,-141C1176.5994,-141 1176.5994,-71.3678 1176.5994,-44.7117"/>
<polygon fill="#000000" stroke="#000000" points="1180.0995,-44.5 1176.5994,-34.5 1173.0995,-44.5 1180.0995,-44.5"/>
</g>
</g>
</svg>
