<?xml version="1.0" encoding="UTF-8" standalone="no"?>
<!DOCTYPE svg PUBLIC "-//W3C//DTD SVG 1.1//EN"
 "http://www.w3.org/Graphics/SVG/1.1/DTD/svg11.dtd">
<!-- Generated by graphviz version 2.40.1 (20161225.0304)
 -->
<!-- Title: structs Pages: 1 -->
<svg width="1968pt" height="1285pt"
 viewBox="0.00 0.00 1967.80 1285.00" xmlns="http://www.w3.org/2000/svg" xmlns:xlink="http://www.w3.org/1999/xlink">
<g id="graph0" class="graph" transform="scale(1 1) rotate(0) translate(4 1281)">
<title>structs</title>
<polygon fill="#ffffff" stroke="transparent" points="-4,4 -4,-1281 1963.8032,-1281 1963.8032,4 -4,4"/>
<!-- sdc_unwarp_wfinputnode -->
<g id="node1" class="node">
<title>sdc_unwarp_wfinputnode</title>
<polygon fill="none" stroke="#000000" points="209,-1115.5 209,-1276.5 485,-1276.5 485,-1115.5 209,-1115.5"/>
<text text-anchor="middle" x="226.5" y="-1192.3" font-family="Times,serif" font-size="14.00" fill="#000000">IN</text>
<polyline fill="none" stroke="#000000" points="244,-1115.5 244,-1276.5 "/>
<text text-anchor="middle" x="288.5" y="-1246.3" font-family="Times,serif" font-size="14.00" fill="#000000">inputnode</text>
<polyline fill="none" stroke="#000000" points="244,-1223.5 333,-1223.5 "/>
<text text-anchor="middle" x="288.5" y="-1192.8" font-family="Times,serif" font-size="14.00" fill="#000000">utility</text>
<polyline fill="none" stroke="#000000" points="244,-1169.5 333,-1169.5 "/>
<text text-anchor="middle" x="288.5" y="-1138.8" font-family="Times,serif" font-size="14.00" fill="#000000"> </text>
<polyline fill="none" stroke="#000000" points="333,-1115.5 333,-1276.5 "/>
<text text-anchor="middle" x="409" y="-1261.3" font-family="Times,serif" font-size="14.00" fill="#000000">OUT</text>
<polyline fill="none" stroke="#000000" points="333,-1253.5 485,-1253.5 "/>
<text text-anchor="middle" x="409" y="-1238.3" font-family="Times,serif" font-size="14.00" fill="#000000">fmap</text>
<polyline fill="none" stroke="#000000" points="333,-1230.5 485,-1230.5 "/>
<text text-anchor="middle" x="409" y="-1215.3" font-family="Times,serif" font-size="14.00" fill="#000000">fmap_mask</text>
<polyline fill="none" stroke="#000000" points="333,-1207.5 485,-1207.5 "/>
<text text-anchor="middle" x="409" y="-1192.3" font-family="Times,serif" font-size="14.00" fill="#000000">fmap_ref</text>
<polyline fill="none" stroke="#000000" points="333,-1184.5 485,-1184.5 "/>
<text text-anchor="middle" x="409" y="-1169.3" font-family="Times,serif" font-size="14.00" fill="#000000">in_reference</text>
<polyline fill="none" stroke="#000000" points="333,-1161.5 485,-1161.5 "/>
<text text-anchor="middle" x="409" y="-1146.3" font-family="Times,serif" font-size="14.00" fill="#000000">in_reference_brain</text>
<polyline fill="none" stroke="#000000" points="333,-1138.5 485,-1138.5 "/>
<text text-anchor="middle" x="409" y="-1123.3" font-family="Times,serif" font-size="14.00" fill="#000000">metadata</text>
</g>
<!-- sdc_unwarp_wffieldmap_fov_mask -->
<g id="node2" class="node">
<title>sdc_unwarp_wffieldmap_fov_mask</title>
<polygon fill="none" stroke="#000000" points="1211,-1009.5 1211,-1078.5 1495,-1078.5 1495,-1009.5 1211,-1009.5"/>
<text text-anchor="middle" x="1241" y="-1057.8" font-family="Times,serif" font-size="14.00" fill="#000000">IN</text>
<polyline fill="none" stroke="#000000" points="1211,-1044.5 1271,-1044.5 "/>
<text text-anchor="middle" x="1241" y="-1023.3" font-family="Times,serif" font-size="14.00" fill="#000000">in_file</text>
<polyline fill="none" stroke="#000000" points="1271,-1009.5 1271,-1078.5 "/>
<text text-anchor="middle" x="1348" y="-1063.3" font-family="Times,serif" font-size="14.00" fill="#000000">fieldmap_fov_mask</text>
<polyline fill="none" stroke="#000000" points="1271,-1055.5 1425,-1055.5 "/>
<text text-anchor="middle" x="1348" y="-1040.3" font-family="Times,serif" font-size="14.00" fill="#000000">images</text>
<polyline fill="none" stroke="#000000" points="1271,-1032.5 1425,-1032.5 "/>
<text text-anchor="middle" x="1348" y="-1017.3" font-family="Times,serif" font-size="14.00" fill="#000000"> </text>
<polyline fill="none" stroke="#000000" points="1425,-1009.5 1425,-1078.5 "/>
<text text-anchor="middle" x="1460" y="-1057.8" font-family="Times,serif" font-size="14.00" fill="#000000">OUT</text>
<polyline fill="none" stroke="#000000" points="1425,-1044.5 1495,-1044.5 "/>
<text text-anchor="middle" x="1460" y="-1023.3" font-family="Times,serif" font-size="14.00" fill="#000000">out_file</text>
</g>
<!-- sdc_unwarp_wfinputnode&#45;&gt;sdc_unwarp_wffieldmap_fov_mask -->
<g id="edge19" class="edge">
<title>sdc_unwarp_wfinputnode:e&#45;&gt;sdc_unwarp_wffieldmap_fov_mask:w</title>
<path fill="none" stroke="#000000" d="M485,-1196C640.303,-1196 1042.4425,-1161.5326 1174,-1079 1194.461,-1066.1638 1186.3365,-1037.481 1200.9893,-1029.2486"/>
<polygon fill="#000000" stroke="#000000" points="1202.0102,-1032.6066 1211,-1027 1200.476,-1025.7768 1202.0102,-1032.6066"/>
</g>
<!-- sdc_unwarp_wfget_ees -->
<g id="node3" class="node">
<title>sdc_unwarp_wfget_ees</title>
<polygon fill="none" stroke="#000000" points="167.5,-1009.5 167.5,-1078.5 362.5,-1078.5 362.5,-1009.5 167.5,-1009.5"/>
<text text-anchor="middle" x="204.5" y="-1063.3" font-family="Times,serif" font-size="14.00" fill="#000000">IN</text>
<polyline fill="none" stroke="#000000" points="167.5,-1055.5 241.5,-1055.5 "/>
<text text-anchor="middle" x="204.5" y="-1040.3" font-family="Times,serif" font-size="14.00" fill="#000000">in_file</text>
<polyline fill="none" stroke="#000000" points="167.5,-1032.5 241.5,-1032.5 "/>
<text text-anchor="middle" x="204.5" y="-1017.3" font-family="Times,serif" font-size="14.00" fill="#000000">in_meta</text>
<polyline fill="none" stroke="#000000" points="241.5,-1009.5 241.5,-1078.5 "/>
<text text-anchor="middle" x="277" y="-1063.3" font-family="Times,serif" font-size="14.00" fill="#000000">get_ees</text>
<polyline fill="none" stroke="#000000" points="241.5,-1055.5 312.5,-1055.5 "/>
<text text-anchor="middle" x="277" y="-1040.3" font-family="Times,serif" font-size="14.00" fill="#000000">utility</text>
<polyline fill="none" stroke="#000000" points="241.5,-1032.5 312.5,-1032.5 "/>
<text text-anchor="middle" x="277" y="-1017.3" font-family="Times,serif" font-size="14.00" fill="#000000"> </text>
<polyline fill="none" stroke="#000000" points="312.5,-1009.5 312.5,-1078.5 "/>
<text text-anchor="middle" x="337.5" y="-1057.8" font-family="Times,serif" font-size="14.00" fill="#000000">OUT</text>
<polyline fill="none" stroke="#000000" points="312.5,-1044.5 362.5,-1044.5 "/>
<text text-anchor="middle" x="337.5" y="-1023.3" font-family="Times,serif" font-size="14.00" fill="#000000">ees</text>
</g>
<!-- sdc_unwarp_wfinputnode&#45;&gt;sdc_unwarp_wfget_ees -->
<g id="edge24" class="edge">
<title>sdc_unwarp_wfinputnode:e&#45;&gt;sdc_unwarp_wfget_ees:w</title>
<path fill="none" stroke="#000000" d="M485,-1173C510.7778,-1173 502.1719,-1134.2255 485,-1115 390.2495,-1008.9177 261.7505,-1185.0823 167,-1079 159.714,-1070.8426 154.9835,-1056.8531 158.2243,-1049.2658"/>
<polygon fill="#000000" stroke="#000000" points="160.226,-1052.1464 167,-1044 156.6244,-1046.144 160.226,-1052.1464"/>
</g>
<!-- sdc_unwarp_wfinputnode&#45;&gt;sdc_unwarp_wfget_ees -->
<g id="edge29" class="edge">
<title>sdc_unwarp_wfinputnode:e&#45;&gt;sdc_unwarp_wfget_ees:w</title>
<path fill="none" stroke="#000000" d="M485,-1127C490.3333,-1127 488.5528,-1118.9777 485,-1115 390.2495,-1008.9177 261.7505,-1185.0823 167,-1079 152.5112,-1062.7785 144.1207,-1032.6398 157.3365,-1023.6174"/>
<polygon fill="#000000" stroke="#000000" points="158.2629,-1026.9927 167,-1021 156.4327,-1020.2362 158.2629,-1026.9927"/>
</g>
<!-- sdc_unwarp_wffmap2ref_reg -->
<g id="node4" class="node">
<title>sdc_unwarp_wffmap2ref_reg</title>
<polygon fill="none" stroke="#000000" points="532,-1009.5 532,-1078.5 934,-1078.5 934,-1009.5 532,-1009.5"/>
<text text-anchor="middle" x="592" y="-1063.3" font-family="Times,serif" font-size="14.00" fill="#000000">IN</text>
<polyline fill="none" stroke="#000000" points="532,-1055.5 652,-1055.5 "/>
<text text-anchor="middle" x="592" y="-1040.3" font-family="Times,serif" font-size="14.00" fill="#000000">fixed_image</text>
<polyline fill="none" stroke="#000000" points="532,-1032.5 652,-1032.5 "/>
<text text-anchor="middle" x="592" y="-1017.3" font-family="Times,serif" font-size="14.00" fill="#000000">moving_image</text>
<polyline fill="none" stroke="#000000" points="652,-1009.5 652,-1078.5 "/>
<text text-anchor="middle" x="708.5" y="-1063.3" font-family="Times,serif" font-size="14.00" fill="#000000">fmap2ref_reg</text>
<polyline fill="none" stroke="#000000" points="652,-1055.5 765,-1055.5 "/>
<text text-anchor="middle" x="708.5" y="-1040.3" font-family="Times,serif" font-size="14.00" fill="#000000">registration</text>
<polyline fill="none" stroke="#000000" points="652,-1032.5 765,-1032.5 "/>
<text text-anchor="middle" x="708.5" y="-1017.3" font-family="Times,serif" font-size="14.00" fill="#000000"> </text>
<polyline fill="none" stroke="#000000" points="765,-1009.5 765,-1078.5 "/>
<text text-anchor="middle" x="849.5" y="-1063.3" font-family="Times,serif" font-size="14.00" fill="#000000">OUT</text>
<polyline fill="none" stroke="#000000" points="765,-1055.5 934,-1055.5 "/>
<text text-anchor="middle" x="849.5" y="-1040.3" font-family="Times,serif" font-size="14.00" fill="#000000">composite_transform</text>
<polyline fill="none" stroke="#000000" points="765,-1032.5 934,-1032.5 "/>
<text text-anchor="middle" x="849.5" y="-1017.3" font-family="Times,serif" font-size="14.00" fill="#000000">out_report</text>
</g>
<!-- sdc_unwarp_wfinputnode&#45;&gt;sdc_unwarp_wffmap2ref_reg -->
<g id="edge20" class="edge">
<title>sdc_unwarp_wfinputnode:e&#45;&gt;sdc_unwarp_wffmap2ref_reg:w</title>
<path fill="none" stroke="#000000" d="M485,-1196C539.0288,-1196 504.3255,-1131.2697 518,-1079 520.5169,-1069.3795 519.6752,-1041.5647 524.6907,-1028.2587"/>
<polygon fill="#000000" stroke="#000000" points="527.3707,-1030.53 532,-1021 522.4381,-1025.563 527.3707,-1030.53"/>
</g>
<!-- sdc_unwarp_wfinputnode&#45;&gt;sdc_unwarp_wffmap2ref_reg -->
<g id="edge27" class="edge">
<title>sdc_unwarp_wfinputnode:e&#45;&gt;sdc_unwarp_wffmap2ref_reg:w</title>
<path fill="none" stroke="#000000" d="M485,-1150C519.7975,-1150 504.1998,-1110.944 518,-1079 522.6718,-1068.1859 519.4124,-1055.2757 522.8893,-1048.5633"/>
<polygon fill="#000000" stroke="#000000" points="524.6263,-1051.6078 532,-1044 521.4914,-1045.349 524.6263,-1051.6078"/>
</g>
<!-- sdc_unwarp_wffmap_fov2ref_apply -->
<g id="node5" class="node">
<title>sdc_unwarp_wffmap_fov2ref_apply</title>
<polygon fill="none" stroke="#000000" points="1544,-880.5 1544,-972.5 1954,-972.5 1954,-880.5 1544,-880.5"/>
<text text-anchor="middle" x="1612.5" y="-957.3" font-family="Times,serif" font-size="14.00" fill="#000000">IN</text>
<polyline fill="none" stroke="#000000" points="1544,-949.5 1681,-949.5 "/>
<text text-anchor="middle" x="1612.5" y="-934.3" font-family="Times,serif" font-size="14.00" fill="#000000">input_image</text>
<polyline fill="none" stroke="#000000" points="1544,-926.5 1681,-926.5 "/>
<text text-anchor="middle" x="1612.5" y="-911.3" font-family="Times,serif" font-size="14.00" fill="#000000">reference_image</text>
<polyline fill="none" stroke="#000000" points="1544,-903.5 1681,-903.5 "/>
<text text-anchor="middle" x="1612.5" y="-888.3" font-family="Times,serif" font-size="14.00" fill="#000000">transforms</text>
<polyline fill="none" stroke="#000000" points="1681,-880.5 1681,-972.5 "/>
<text text-anchor="middle" x="1760" y="-953.8" font-family="Times,serif" font-size="14.00" fill="#000000">fmap_fov2ref_apply</text>
<polyline fill="none" stroke="#000000" points="1681,-942.5 1839,-942.5 "/>
<text text-anchor="middle" x="1760" y="-923.3" font-family="Times,serif" font-size="14.00" fill="#000000">registration</text>
<polyline fill="none" stroke="#000000" points="1681,-911.5 1839,-911.5 "/>
<text text-anchor="middle" x="1760" y="-892.3" font-family="Times,serif" font-size="14.00" fill="#000000"> </text>
<polyline fill="none" stroke="#000000" points="1839,-880.5 1839,-972.5 "/>
<text text-anchor="middle" x="1896.5" y="-945.8" font-family="Times,serif" font-size="14.00" fill="#000000">OUT</text>
<polyline fill="none" stroke="#000000" points="1839,-926.5 1954,-926.5 "/>
<text text-anchor="middle" x="1896.5" y="-899.8" font-family="Times,serif" font-size="14.00" fill="#000000">output_image</text>
</g>
<!-- sdc_unwarp_wfinputnode&#45;&gt;sdc_unwarp_wffmap_fov2ref_apply -->
<g id="edge22" class="edge">
<title>sdc_unwarp_wfinputnode:e&#45;&gt;sdc_unwarp_wffmap_fov2ref_apply:w</title>
<path fill="none" stroke="#000000" d="M485,-1173C739.5627,-1173 806.6732,-1153.7948 1050,-1079 1121.0923,-1057.1474 1130.3121,-1028.8118 1202,-1009 1273.7419,-989.1733 1481.1995,-1024.4345 1535,-973 1542.0562,-966.2542 1536.3507,-937.2974 1538.3171,-922.815"/>
<polygon fill="#000000" stroke="#000000" points="1541.247,-924.7309 1544,-914.5 1535.4678,-920.7811 1541.247,-924.7309"/>
</g>
<!-- sdc_unwarp_wffmap_mask2ref_apply -->
<g id="node7" class="node">
<title>sdc_unwarp_wffmap_mask2ref_apply</title>
<polygon fill="none" stroke="#000000" points="1100,-880.5 1100,-972.5 1526,-972.5 1526,-880.5 1100,-880.5"/>
<text text-anchor="middle" x="1168.5" y="-957.3" font-family="Times,serif" font-size="14.00" fill="#000000">IN</text>
<polyline fill="none" stroke="#000000" points="1100,-949.5 1237,-949.5 "/>
<text text-anchor="middle" x="1168.5" y="-934.3" font-family="Times,serif" font-size="14.00" fill="#000000">input_image</text>
<polyline fill="none" stroke="#000000" points="1100,-926.5 1237,-926.5 "/>
<text text-anchor="middle" x="1168.5" y="-911.3" font-family="Times,serif" font-size="14.00" fill="#000000">reference_image</text>
<polyline fill="none" stroke="#000000" points="1100,-903.5 1237,-903.5 "/>
<text text-anchor="middle" x="1168.5" y="-888.3" font-family="Times,serif" font-size="14.00" fill="#000000">transforms</text>
<polyline fill="none" stroke="#000000" points="1237,-880.5 1237,-972.5 "/>
<text text-anchor="middle" x="1324" y="-953.8" font-family="Times,serif" font-size="14.00" fill="#000000">fmap_mask2ref_apply</text>
<polyline fill="none" stroke="#000000" points="1237,-942.5 1411,-942.5 "/>
<text text-anchor="middle" x="1324" y="-923.3" font-family="Times,serif" font-size="14.00" fill="#000000">registration</text>
<polyline fill="none" stroke="#000000" points="1237,-911.5 1411,-911.5 "/>
<text text-anchor="middle" x="1324" y="-892.3" font-family="Times,serif" font-size="14.00" fill="#000000"> </text>
<polyline fill="none" stroke="#000000" points="1411,-880.5 1411,-972.5 "/>
<text text-anchor="middle" x="1468.5" y="-945.8" font-family="Times,serif" font-size="14.00" fill="#000000">OUT</text>
<polyline fill="none" stroke="#000000" points="1411,-926.5 1526,-926.5 "/>
<text text-anchor="middle" x="1468.5" y="-899.8" font-family="Times,serif" font-size="14.00" fill="#000000">output_image</text>
</g>
<!-- sdc_unwarp_wfinputnode&#45;&gt;sdc_unwarp_wffmap_mask2ref_apply -->
<g id="edge18" class="edge">
<title>sdc_unwarp_wfinputnode:e&#45;&gt;sdc_unwarp_wffmap_mask2ref_apply:w</title>
<path fill="none" stroke="#000000" d="M485,-1219C722.6245,-1219 800.419,-1206.4075 1001,-1079 1053.1674,-1045.8637 1062.4851,-1027.8303 1091,-973 1095.741,-963.8837 1091.4548,-952.0838 1092.1756,-944.9138"/>
<polygon fill="#000000" stroke="#000000" points="1094.485,-947.5463 1100,-938.5 1090.0474,-942.1327 1094.485,-947.5463"/>
</g>
<!-- sdc_unwarp_wfinputnode&#45;&gt;sdc_unwarp_wffmap_mask2ref_apply -->
<g id="edge23" class="edge">
<title>sdc_unwarp_wfinputnode:e&#45;&gt;sdc_unwarp_wffmap_mask2ref_apply:w</title>
<path fill="none" stroke="#000000" d="M485,-1173C588.8993,-1173 853.9195,-1132.4765 943,-1079 977.6404,-1058.2048 968.346,-1032.7931 1001,-1009 1035.8187,-983.6296 1064.1975,-1006.7287 1091,-973 1097.0733,-965.3573 1091.8439,-936.835 1094.1211,-922.6361"/>
<polygon fill="#000000" stroke="#000000" points="1096.9802,-924.6554 1100,-914.5 1091.3063,-920.5556 1096.9802,-924.6554"/>
</g>
<!-- sdc_unwarp_wffmap2ref_apply -->
<g id="node8" class="node">
<title>sdc_unwarp_wffmap2ref_apply</title>
<polygon fill="none" stroke="#000000" points="456,-880.5 456,-972.5 836,-972.5 836,-880.5 456,-880.5"/>
<text text-anchor="middle" x="524.5" y="-957.3" font-family="Times,serif" font-size="14.00" fill="#000000">IN</text>
<polyline fill="none" stroke="#000000" points="456,-949.5 593,-949.5 "/>
<text text-anchor="middle" x="524.5" y="-934.3" font-family="Times,serif" font-size="14.00" fill="#000000">input_image</text>
<polyline fill="none" stroke="#000000" points="456,-926.5 593,-926.5 "/>
<text text-anchor="middle" x="524.5" y="-911.3" font-family="Times,serif" font-size="14.00" fill="#000000">reference_image</text>
<polyline fill="none" stroke="#000000" points="456,-903.5 593,-903.5 "/>
<text text-anchor="middle" x="524.5" y="-888.3" font-family="Times,serif" font-size="14.00" fill="#000000">transforms</text>
<polyline fill="none" stroke="#000000" points="593,-880.5 593,-972.5 "/>
<text text-anchor="middle" x="657" y="-953.8" font-family="Times,serif" font-size="14.00" fill="#000000">fmap2ref_apply</text>
<polyline fill="none" stroke="#000000" points="593,-942.5 721,-942.5 "/>
<text text-anchor="middle" x="657" y="-923.3" font-family="Times,serif" font-size="14.00" fill="#000000">registration</text>
<polyline fill="none" stroke="#000000" points="593,-911.5 721,-911.5 "/>
<text text-anchor="middle" x="657" y="-892.3" font-family="Times,serif" font-size="14.00" fill="#000000"> </text>
<polyline fill="none" stroke="#000000" points="721,-880.5 721,-972.5 "/>
<text text-anchor="middle" x="778.5" y="-953.8" font-family="Times,serif" font-size="14.00" fill="#000000">OUT</text>
<polyline fill="none" stroke="#000000" points="721,-942.5 836,-942.5 "/>
<text text-anchor="middle" x="778.5" y="-923.3" font-family="Times,serif" font-size="14.00" fill="#000000">out_report</text>
<polyline fill="none" stroke="#000000" points="721,-911.5 836,-911.5 "/>
<text text-anchor="middle" x="778.5" y="-892.3" font-family="Times,serif" font-size="14.00" fill="#000000">output_image</text>
</g>
<!-- sdc_unwarp_wfinputnode&#45;&gt;sdc_unwarp_wffmap2ref_apply -->
<g id="edge17" class="edge">
<title>sdc_unwarp_wfinputnode:e&#45;&gt;sdc_unwarp_wffmap2ref_apply:w</title>
<path fill="none" stroke="#000000" d="M485,-1242C588.5794,-1242 512.3435,-1107.4002 480,-1009 473.9954,-990.7319 461.5724,-991.4045 456,-973 453.1188,-963.4839 447.5269,-951.8027 448.1319,-944.7656"/>
<polygon fill="#000000" stroke="#000000" points="450.3576,-947.4674 456,-938.5 445.997,-941.9915 450.3576,-947.4674"/>
</g>
<!-- sdc_unwarp_wfinputnode&#45;&gt;sdc_unwarp_wffmap2ref_apply -->
<g id="edge21" class="edge">
<title>sdc_unwarp_wfinputnode:e&#45;&gt;sdc_unwarp_wffmap2ref_apply:w</title>
<path fill="none" stroke="#000000" d="M485,-1173C510.7977,-1173 444.4119,-967.0542 450.4045,-922.808"/>
<polygon fill="#000000" stroke="#000000" points="453.3167,-924.7494 456,-914.5 447.5107,-920.839 453.3167,-924.7494"/>
</g>
<!-- sdc_unwarp_wfgen_vsm -->
<g id="node10" class="node">
<title>sdc_unwarp_wfgen_vsm</title>
<polygon fill="none" stroke="#000000" points="28.5,-622.5 28.5,-737.5 361.5,-737.5 361.5,-622.5 28.5,-622.5"/>
<text text-anchor="middle" x="100" y="-722.3" font-family="Times,serif" font-size="14.00" fill="#000000">IN</text>
<polyline fill="none" stroke="#000000" points="28.5,-714.5 171.5,-714.5 "/>
<text text-anchor="middle" x="100" y="-699.3" font-family="Times,serif" font-size="14.00" fill="#000000">dwell_time</text>
<polyline fill="none" stroke="#000000" points="28.5,-691.5 171.5,-691.5 "/>
<text text-anchor="middle" x="100" y="-676.3" font-family="Times,serif" font-size="14.00" fill="#000000">fmap_in_file</text>
<polyline fill="none" stroke="#000000" points="28.5,-668.5 171.5,-668.5 "/>
<text text-anchor="middle" x="100" y="-653.3" font-family="Times,serif" font-size="14.00" fill="#000000">mask_file</text>
<polyline fill="none" stroke="#000000" points="28.5,-645.5 171.5,-645.5 "/>
<text text-anchor="middle" x="100" y="-630.3" font-family="Times,serif" font-size="14.00" fill="#000000">unwarp_direction</text>
<polyline fill="none" stroke="#000000" points="171.5,-622.5 171.5,-737.5 "/>
<text text-anchor="middle" x="211.5" y="-714.8" font-family="Times,serif" font-size="14.00" fill="#000000">gen_vsm</text>
<polyline fill="none" stroke="#000000" points="171.5,-699.5 251.5,-699.5 "/>
<text text-anchor="middle" x="211.5" y="-676.8" font-family="Times,serif" font-size="14.00" fill="#000000">fsl</text>
<polyline fill="none" stroke="#000000" points="171.5,-661.5 251.5,-661.5 "/>
<text text-anchor="middle" x="211.5" y="-638.3" font-family="Times,serif" font-size="14.00" fill="#000000"> </text>
<polyline fill="none" stroke="#000000" points="251.5,-622.5 251.5,-737.5 "/>
<text text-anchor="middle" x="306.5" y="-705.3" font-family="Times,serif" font-size="14.00" fill="#000000">OUT</text>
<polyline fill="none" stroke="#000000" points="251.5,-680.5 361.5,-680.5 "/>
<text text-anchor="middle" x="306.5" y="-647.8" font-family="Times,serif" font-size="14.00" fill="#000000">shift_out_file</text>
</g>
<!-- sdc_unwarp_wfinputnode&#45;&gt;sdc_unwarp_wfgen_vsm -->
<g id="edge28" class="edge">
<title>sdc_unwarp_wfinputnode:e&#45;&gt;sdc_unwarp_wfgen_vsm:w</title>
<path fill="none" stroke="#000000" d="M485,-1127C490.3333,-1127 488.5583,-1118.9728 485,-1115 436.3733,-1060.7078 216.7123,-1123.514 159,-1079 30.4433,-979.8431 57.6076,-897.6318 28,-738 24.4768,-719.0045 10.6941,-659.0928 19.7668,-639.9455"/>
<polygon fill="#000000" stroke="#000000" points="21.9419,-642.692 28,-634 17.8438,-637.017 21.9419,-642.692"/>
</g>
<!-- sdc_unwarp_wfvsm2dfm -->
<g id="node11" class="node">
<title>sdc_unwarp_wfvsm2dfm</title>
<polygon fill="none" stroke="#000000" points="146.5,-516.5 146.5,-585.5 361.5,-585.5 361.5,-516.5 146.5,-516.5"/>
<text text-anchor="middle" x="177.5" y="-570.3" font-family="Times,serif" font-size="14.00" fill="#000000">IN</text>
<polyline fill="none" stroke="#000000" points="146.5,-562.5 208.5,-562.5 "/>
<text text-anchor="middle" x="177.5" y="-547.3" font-family="Times,serif" font-size="14.00" fill="#000000">in_file</text>
<polyline fill="none" stroke="#000000" points="146.5,-539.5 208.5,-539.5 "/>
<text text-anchor="middle" x="177.5" y="-524.3" font-family="Times,serif" font-size="14.00" fill="#000000">pe_dir</text>
<polyline fill="none" stroke="#000000" points="208.5,-516.5 208.5,-585.5 "/>
<text text-anchor="middle" x="250" y="-570.3" font-family="Times,serif" font-size="14.00" fill="#000000">vsm2dfm</text>
<polyline fill="none" stroke="#000000" points="208.5,-562.5 291.5,-562.5 "/>
<text text-anchor="middle" x="250" y="-547.3" font-family="Times,serif" font-size="14.00" fill="#000000">itk</text>
<polyline fill="none" stroke="#000000" points="208.5,-539.5 291.5,-539.5 "/>
<text text-anchor="middle" x="250" y="-524.3" font-family="Times,serif" font-size="14.00" fill="#000000"> </text>
<polyline fill="none" stroke="#000000" points="291.5,-516.5 291.5,-585.5 "/>
<text text-anchor="middle" x="326.5" y="-564.8" font-family="Times,serif" font-size="14.00" fill="#000000">OUT</text>
<polyline fill="none" stroke="#000000" points="291.5,-551.5 361.5,-551.5 "/>
<text text-anchor="middle" x="326.5" y="-530.3" font-family="Times,serif" font-size="14.00" fill="#000000">out_file</text>
</g>
<!-- sdc_unwarp_wfinputnode&#45;&gt;sdc_unwarp_wfvsm2dfm -->
<g id="edge30" class="edge">
<title>sdc_unwarp_wfinputnode:e&#45;&gt;sdc_unwarp_wfvsm2dfm:w</title>
<path fill="none" stroke="#000000" d="M485,-1127C490.3333,-1127 488.5969,-1118.9378 485,-1115 425.2569,-1049.5942 162.6303,-1126.7229 88,-1079 22.0736,-1036.8429 0,-1004.7528 0,-926.5 0,-926.5 0,-926.5 0,-809 0,-671.6958 5.0061,-534.8489 135.9322,-528.2488"/>
<polygon fill="#000000" stroke="#000000" points="136.0895,-531.746 146,-528 135.9166,-524.7482 136.0895,-531.746"/>
</g>
<!-- sdc_unwarp_wfunwarp_reference -->
<g id="node13" class="node">
<title>sdc_unwarp_wfunwarp_reference</title>
<polygon fill="none" stroke="#000000" points="427.5,-387.5 427.5,-479.5 826.5,-479.5 826.5,-387.5 427.5,-387.5"/>
<text text-anchor="middle" x="496" y="-464.3" font-family="Times,serif" font-size="14.00" fill="#000000">IN</text>
<polyline fill="none" stroke="#000000" points="427.5,-456.5 564.5,-456.5 "/>
<text text-anchor="middle" x="496" y="-441.3" font-family="Times,serif" font-size="14.00" fill="#000000">input_image</text>
<polyline fill="none" stroke="#000000" points="427.5,-433.5 564.5,-433.5 "/>
<text text-anchor="middle" x="496" y="-418.3" font-family="Times,serif" font-size="14.00" fill="#000000">reference_image</text>
<polyline fill="none" stroke="#000000" points="427.5,-410.5 564.5,-410.5 "/>
<text text-anchor="middle" x="496" y="-395.3" font-family="Times,serif" font-size="14.00" fill="#000000">transforms</text>
<polyline fill="none" stroke="#000000" points="564.5,-387.5 564.5,-479.5 "/>
<text text-anchor="middle" x="638" y="-460.8" font-family="Times,serif" font-size="14.00" fill="#000000">unwarp_reference</text>
<polyline fill="none" stroke="#000000" points="564.5,-449.5 711.5,-449.5 "/>
<text text-anchor="middle" x="638" y="-430.3" font-family="Times,serif" font-size="14.00" fill="#000000">registration</text>
<polyline fill="none" stroke="#000000" points="564.5,-418.5 711.5,-418.5 "/>
<text text-anchor="middle" x="638" y="-399.3" font-family="Times,serif" font-size="14.00" fill="#000000"> </text>
<polyline fill="none" stroke="#000000" points="711.5,-387.5 711.5,-479.5 "/>
<text text-anchor="middle" x="769" y="-452.8" font-family="Times,serif" font-size="14.00" fill="#000000">OUT</text>
<polyline fill="none" stroke="#000000" points="711.5,-433.5 826.5,-433.5 "/>
<text text-anchor="middle" x="769" y="-406.8" font-family="Times,serif" font-size="14.00" fill="#000000">output_image</text>
</g>
<!-- sdc_unwarp_wfinputnode&#45;&gt;sdc_unwarp_wfunwarp_reference -->
<g id="edge25" class="edge">
<title>sdc_unwarp_wfinputnode:e&#45;&gt;sdc_unwarp_wfunwarp_reference:w</title>
<path fill="none" stroke="#000000" d="M485,-1173C510.7778,-1173 498.4905,-1136.9659 485,-1115 466.4842,-1084.8517 434.8101,-1107.6128 414,-1079 373.6434,-1023.5117 390,-995.112 390,-926.5 390,-926.5 390,-926.5 390,-680 390,-656.4042 398.4997,-487.3791 419.1736,-451.9878"/>
<polygon fill="#000000" stroke="#000000" points="421.535,-454.5766 427,-445.5 417.0676,-449.1875 421.535,-454.5766"/>
</g>
<!-- sdc_unwarp_wfinputnode&#45;&gt;sdc_unwarp_wfunwarp_reference -->
<g id="edge26" class="edge">
<title>sdc_unwarp_wfinputnode:e&#45;&gt;sdc_unwarp_wfunwarp_reference:w</title>
<path fill="none" stroke="#000000" d="M485,-1173C510.7778,-1173 492.931,-1139.5274 485,-1115 478.9277,-1096.2208 466.9217,-1097.077 459,-1079 431.2394,-1015.6517 428,-995.664 428,-926.5 428,-926.5 428,-926.5 428,-680 428,-654.3069 404.2165,-467.7322 419.759,-428.6624"/>
<polygon fill="#000000" stroke="#000000" points="422.3518,-431.0208 427,-421.5 417.4291,-426.0441 422.3518,-431.0208"/>
</g>
<!-- sdc_unwarp_wffieldmap_fov_mask&#45;&gt;sdc_unwarp_wffmap_fov2ref_apply -->
<g id="edge5" class="edge">
<title>sdc_unwarp_wffieldmap_fov_mask:e&#45;&gt;sdc_unwarp_wffmap_fov2ref_apply:w</title>
<path fill="none" stroke="#000000" d="M1495,-1027C1524.8672,-1027 1522.1066,-999.9409 1535,-973 1539.4358,-963.7313 1535.2402,-951.9767 1536.0624,-944.8573"/>
<polygon fill="#000000" stroke="#000000" points="1538.3827,-947.4832 1544,-938.5 1534.0068,-942.0195 1538.3827,-947.4832"/>
</g>
<!-- sdc_unwarp_wfget_ees&#45;&gt;sdc_unwarp_wfgen_vsm -->
<g id="edge16" class="edge">
<title>sdc_unwarp_wfget_ees:e&#45;&gt;sdc_unwarp_wfgen_vsm:w</title>
<path fill="none" stroke="#000000" d="M363,-1027C371,-1027 366.247,-1016.3114 363,-1009 299.781,-866.6445 232.3223,-860.8186 103,-774 72.3017,-753.3911 47.6916,-769.2946 28,-738 22.3044,-728.9484 17.0878,-715.7998 19.4385,-708.4658"/>
<polygon fill="#000000" stroke="#000000" points="21.4546,-711.3312 28,-703 17.6878,-705.4311 21.4546,-711.3312"/>
</g>
<!-- sdc_unwarp_wffmap2ref_reg&#45;&gt;sdc_unwarp_wffmap_fov2ref_apply -->
<g id="edge9" class="edge">
<title>sdc_unwarp_wffmap2ref_reg:e&#45;&gt;sdc_unwarp_wffmap_fov2ref_apply:w</title>
<path fill="none" stroke="#000000" d="M934,-1044C1029.4977,-1044 1051.283,-1021.1856 1146,-1009 1189.0521,-1003.4612 1504.0362,-1003.4205 1535,-973 1545.3577,-962.8241 1533.3523,-917.1127 1537.268,-898.9624"/>
<polygon fill="#000000" stroke="#000000" points="1539.9004,-901.2696 1544,-891.5 1534.7028,-896.5807 1539.9004,-901.2696"/>
</g>
<!-- sdc_unwarp_wfds_report_reg -->
<g id="node6" class="node">
<title>sdc_unwarp_wfds_report_reg</title>
<polygon fill="none" stroke="#000000" points="854.5,-892 854.5,-961 1081.5,-961 1081.5,-892 854.5,-892"/>
<text text-anchor="middle" x="884.5" y="-940.3" font-family="Times,serif" font-size="14.00" fill="#000000">IN</text>
<polyline fill="none" stroke="#000000" points="854.5,-927 914.5,-927 "/>
<text text-anchor="middle" x="884.5" y="-905.8" font-family="Times,serif" font-size="14.00" fill="#000000">in_file</text>
<polyline fill="none" stroke="#000000" points="914.5,-892 914.5,-961 "/>
<text text-anchor="middle" x="973" y="-945.8" font-family="Times,serif" font-size="14.00" fill="#000000">ds_report_reg</text>
<polyline fill="none" stroke="#000000" points="914.5,-938 1031.5,-938 "/>
<text text-anchor="middle" x="973" y="-922.8" font-family="Times,serif" font-size="14.00" fill="#000000">bids</text>
<polyline fill="none" stroke="#000000" points="914.5,-915 1031.5,-915 "/>
<text text-anchor="middle" x="973" y="-899.8" font-family="Times,serif" font-size="14.00" fill="#000000"> </text>
<polyline fill="none" stroke="#000000" points="1031.5,-892 1031.5,-961 "/>
<text text-anchor="middle" x="1056.5" y="-922.8" font-family="Times,serif" font-size="14.00" fill="#000000">OUT</text>
</g>
<!-- sdc_unwarp_wffmap2ref_reg&#45;&gt;sdc_unwarp_wfds_report_reg -->
<g id="edge11" class="edge">
<title>sdc_unwarp_wffmap2ref_reg:e&#45;&gt;sdc_unwarp_wfds_report_reg:w</title>
<path fill="none" stroke="#000000" d="M934,-1021C939.3333,-1021 936.6384,-1013.635 934,-1009 913.5437,-973.0637 874.4563,-997.4363 854,-961.5 849.8912,-954.282 845.7192,-930.5766 847.9881,-917.8132"/>
<polygon fill="#000000" stroke="#000000" points="850.9761,-919.6542 854,-909.5 845.3039,-915.5522 850.9761,-919.6542"/>
</g>
<!-- sdc_unwarp_wffmap2ref_reg&#45;&gt;sdc_unwarp_wffmap_mask2ref_apply -->
<g id="edge10" class="edge">
<title>sdc_unwarp_wffmap2ref_reg:e&#45;&gt;sdc_unwarp_wffmap_mask2ref_apply:w</title>
<path fill="none" stroke="#000000" d="M934,-1044C957.2899,-1044 952.7167,-1020.4459 973,-1009 1020.7524,-982.0533 1055.9996,-1015.2065 1091,-973 1100.2686,-961.8231 1088.9098,-916.7061 1093.1332,-898.8385"/>
<polygon fill="#000000" stroke="#000000" points="1095.7231,-901.1933 1100,-891.5 1090.6118,-896.4105 1095.7231,-901.1933"/>
</g>
<!-- sdc_unwarp_wffmap2ref_reg&#45;&gt;sdc_unwarp_wffmap2ref_apply -->
<g id="edge8" class="edge">
<title>sdc_unwarp_wffmap2ref_reg:e&#45;&gt;sdc_unwarp_wffmap2ref_apply:w</title>
<path fill="none" stroke="#000000" d="M934,-1044C949.5556,-1044 944.5783,-1020.405 934,-1009 861.5605,-930.8996 528.4395,-1051.1004 456,-973 445.9931,-962.2111 440.2912,-915.1514 448.2192,-897.8833"/>
<polygon fill="#000000" stroke="#000000" points="450.4888,-900.5486 456,-891.5 446.0489,-895.1368 450.4888,-900.5486"/>
</g>
<!-- sdc_unwarp_wfapply_fov_mask -->
<g id="node14" class="node">
<title>sdc_unwarp_wfapply_fov_mask</title>
<polygon fill="none" stroke="#000000" points="827,-281.5 827,-350.5 1113,-350.5 1113,-281.5 827,-281.5"/>
<text text-anchor="middle" x="869.5" y="-335.3" font-family="Times,serif" font-size="14.00" fill="#000000">IN</text>
<polyline fill="none" stroke="#000000" points="827,-327.5 912,-327.5 "/>
<text text-anchor="middle" x="869.5" y="-312.3" font-family="Times,serif" font-size="14.00" fill="#000000">in_file</text>
<polyline fill="none" stroke="#000000" points="827,-304.5 912,-304.5 "/>
<text text-anchor="middle" x="869.5" y="-289.3" font-family="Times,serif" font-size="14.00" fill="#000000">mask_file</text>
<polyline fill="none" stroke="#000000" points="912,-281.5 912,-350.5 "/>
<text text-anchor="middle" x="977.5" y="-335.3" font-family="Times,serif" font-size="14.00" fill="#000000">apply_fov_mask</text>
<polyline fill="none" stroke="#000000" points="912,-327.5 1043,-327.5 "/>
<text text-anchor="middle" x="977.5" y="-312.3" font-family="Times,serif" font-size="14.00" fill="#000000">fsl</text>
<polyline fill="none" stroke="#000000" points="912,-304.5 1043,-304.5 "/>
<text text-anchor="middle" x="977.5" y="-289.3" font-family="Times,serif" font-size="14.00" fill="#000000"> </text>
<polyline fill="none" stroke="#000000" points="1043,-281.5 1043,-350.5 "/>
<text text-anchor="middle" x="1078" y="-329.8" font-family="Times,serif" font-size="14.00" fill="#000000">OUT</text>
<polyline fill="none" stroke="#000000" points="1043,-316.5 1113,-316.5 "/>
<text text-anchor="middle" x="1078" y="-295.3" font-family="Times,serif" font-size="14.00" fill="#000000">out_file</text>
</g>
<!-- sdc_unwarp_wffmap_fov2ref_apply&#45;&gt;sdc_unwarp_wfapply_fov_mask -->
<g id="edge12" class="edge">
<title>sdc_unwarp_wffmap_fov2ref_apply:e&#45;&gt;sdc_unwarp_wfapply_fov_mask:w</title>
<path fill="none" stroke="#000000" d="M1954,-903.5C1964.4444,-903.5 1957.9481,-889.6695 1954,-880 1906.9536,-764.7775 1758,-804.4571 1758,-680 1758,-680 1758,-680 1758,-551 1758,-127.7822 1092.983,-680.1904 827,-351 813.4572,-334.2389 804.543,-304.9704 817.0405,-295.8178"/>
<polygon fill="#000000" stroke="#000000" points="818.3305,-299.0902 827,-293 816.4248,-292.3546 818.3305,-299.0902"/>
</g>
<!-- sdc_unwarp_wffmap_mask2ref_apply&#45;&gt;sdc_unwarp_wfgen_vsm -->
<g id="edge14" class="edge">
<title>sdc_unwarp_wffmap_mask2ref_apply:e&#45;&gt;sdc_unwarp_wfgen_vsm:w</title>
<path fill="none" stroke="#000000" d="M1526,-903.5C1536.4444,-903.5 1532.7229,-887.993 1526,-880 1495.9461,-844.2682 1364.4939,-854.5025 1319,-844 1209.9046,-818.8147 1187.5712,-791.6101 1077,-774 1019.4137,-764.8285 68.5196,-779.934 28,-738 17.8375,-727.4827 12.3062,-680.5834 20.2441,-663.3659"/>
<polygon fill="#000000" stroke="#000000" points="22.4908,-666.0498 28,-657 18.0497,-660.639 22.4908,-666.0498"/>
</g>
<!-- sdc_unwarp_wfenhance_and_skullstrip_bold_wf -->
<g id="node15" class="node">
<title>sdc_unwarp_wfenhance_and_skullstrip_bold_wf</title>
<polygon fill="none" stroke="#000000" points="1113.5,-175.5 1113.5,-244.5 1760.5,-244.5 1760.5,-175.5 1113.5,-175.5"/>
<text text-anchor="middle" x="1195" y="-229.3" font-family="Times,serif" font-size="14.00" fill="#000000">IN</text>
<polyline fill="none" stroke="#000000" points="1113.5,-221.5 1276.5,-221.5 "/>
<text text-anchor="middle" x="1195" y="-206.3" font-family="Times,serif" font-size="14.00" fill="#000000">inputnode.in_file</text>
<polyline fill="none" stroke="#000000" points="1113.5,-198.5 1276.5,-198.5 "/>
<text text-anchor="middle" x="1195" y="-183.3" font-family="Times,serif" font-size="14.00" fill="#000000">inputnode.pre_mask</text>
<polyline fill="none" stroke="#000000" points="1276.5,-175.5 1276.5,-244.5 "/>
<text text-anchor="middle" x="1401" y="-229.3" font-family="Times,serif" font-size="14.00" fill="#000000">enhance_and_skullstrip_bold_wf</text>
<polyline fill="none" stroke="#000000" points="1276.5,-221.5 1525.5,-221.5 "/>
<text text-anchor="middle" x="1401" y="-206.3" font-family="Times,serif" font-size="14.00" fill="#000000"> </text>
<polyline fill="none" stroke="#000000" points="1276.5,-198.5 1525.5,-198.5 "/>
<text text-anchor="middle" x="1401" y="-183.3" font-family="Times,serif" font-size="14.00" fill="#000000"> </text>
<polyline fill="none" stroke="#000000" points="1525.5,-175.5 1525.5,-244.5 "/>
<text text-anchor="middle" x="1643" y="-229.3" font-family="Times,serif" font-size="14.00" fill="#000000">OUT</text>
<polyline fill="none" stroke="#000000" points="1525.5,-221.5 1760.5,-221.5 "/>
<text text-anchor="middle" x="1643" y="-206.3" font-family="Times,serif" font-size="14.00" fill="#000000">outputnode.mask_file</text>
<polyline fill="none" stroke="#000000" points="1525.5,-198.5 1760.5,-198.5 "/>
<text text-anchor="middle" x="1643" y="-183.3" font-family="Times,serif" font-size="14.00" fill="#000000">outputnode.skull_stripped_file</text>
</g>
<!-- sdc_unwarp_wffmap_mask2ref_apply&#45;&gt;sdc_unwarp_wfenhance_and_skullstrip_bold_wf -->
<g id="edge13" class="edge">
<title>sdc_unwarp_wffmap_mask2ref_apply:e&#45;&gt;sdc_unwarp_wfenhance_and_skullstrip_bold_wf:w</title>
<path fill="none" stroke="#000000" d="M1526,-903.5C1536.4444,-903.5 1529.9108,-889.6846 1526,-880 1479.7462,-765.459 1333,-803.5276 1333,-680 1333,-680 1333,-680 1333,-433.5 1333,-304.7397 1166.8143,-361.9753 1113,-245 1111.0431,-240.7463 1108.5278,-212.0559 1109.7704,-196.684"/>
<polygon fill="#000000" stroke="#000000" points="1113.1564,-197.5937 1113,-187 1106.516,-195.379 1113.1564,-197.5937"/>
</g>
<!-- sdc_unwarp_wftorads -->
<g id="node9" class="node">
<title>sdc_unwarp_wftorads</title>
<polygon fill="none" stroke="#000000" points="541,-774.5 541,-843.5 733,-843.5 733,-774.5 541,-774.5"/>
<text text-anchor="middle" x="571" y="-822.8" font-family="Times,serif" font-size="14.00" fill="#000000">IN</text>
<polyline fill="none" stroke="#000000" points="541,-809.5 601,-809.5 "/>
<text text-anchor="middle" x="571" y="-788.3" font-family="Times,serif" font-size="14.00" fill="#000000">in_file</text>
<polyline fill="none" stroke="#000000" points="601,-774.5 601,-843.5 "/>
<text text-anchor="middle" x="632" y="-828.3" font-family="Times,serif" font-size="14.00" fill="#000000">torads</text>
<polyline fill="none" stroke="#000000" points="601,-820.5 663,-820.5 "/>
<text text-anchor="middle" x="632" y="-805.3" font-family="Times,serif" font-size="14.00" fill="#000000">fmap</text>
<polyline fill="none" stroke="#000000" points="601,-797.5 663,-797.5 "/>
<text text-anchor="middle" x="632" y="-782.3" font-family="Times,serif" font-size="14.00" fill="#000000"> </text>
<polyline fill="none" stroke="#000000" points="663,-774.5 663,-843.5 "/>
<text text-anchor="middle" x="698" y="-822.8" font-family="Times,serif" font-size="14.00" fill="#000000">OUT</text>
<polyline fill="none" stroke="#000000" points="663,-809.5 733,-809.5 "/>
<text text-anchor="middle" x="698" y="-788.3" font-family="Times,serif" font-size="14.00" fill="#000000">out_file</text>
</g>
<!-- sdc_unwarp_wffmap2ref_apply&#45;&gt;sdc_unwarp_wftorads -->
<g id="edge6" class="edge">
<title>sdc_unwarp_wffmap2ref_apply:e&#45;&gt;sdc_unwarp_wftorads:w</title>
<path fill="none" stroke="#000000" d="M836,-895.5C842.8889,-895.5 840.5666,-885.1578 836,-880 748.4421,-781.1075 628.5579,-942.8925 541,-844 528.4326,-829.8057 520.9318,-803.9075 531.3993,-795.0586"/>
<polygon fill="#000000" stroke="#000000" points="532.5343,-798.3704 541,-792 530.4094,-791.7007 532.5343,-798.3704"/>
</g>
<!-- sdc_unwarp_wfds_report_vsm -->
<g id="node17" class="node">
<title>sdc_unwarp_wfds_report_vsm</title>
<polygon fill="none" stroke="#000000" points="836,-774.5 836,-843.5 1068,-843.5 1068,-774.5 836,-774.5"/>
<text text-anchor="middle" x="866" y="-822.8" font-family="Times,serif" font-size="14.00" fill="#000000">IN</text>
<polyline fill="none" stroke="#000000" points="836,-809.5 896,-809.5 "/>
<text text-anchor="middle" x="866" y="-788.3" font-family="Times,serif" font-size="14.00" fill="#000000">in_file</text>
<polyline fill="none" stroke="#000000" points="896,-774.5 896,-843.5 "/>
<text text-anchor="middle" x="957" y="-828.3" font-family="Times,serif" font-size="14.00" fill="#000000">ds_report_vsm</text>
<polyline fill="none" stroke="#000000" points="896,-820.5 1018,-820.5 "/>
<text text-anchor="middle" x="957" y="-805.3" font-family="Times,serif" font-size="14.00" fill="#000000">bids</text>
<polyline fill="none" stroke="#000000" points="896,-797.5 1018,-797.5 "/>
<text text-anchor="middle" x="957" y="-782.3" font-family="Times,serif" font-size="14.00" fill="#000000"> </text>
<polyline fill="none" stroke="#000000" points="1018,-774.5 1018,-843.5 "/>
<text text-anchor="middle" x="1043" y="-805.3" font-family="Times,serif" font-size="14.00" fill="#000000">OUT</text>
</g>
<!-- sdc_unwarp_wffmap2ref_apply&#45;&gt;sdc_unwarp_wfds_report_vsm -->
<g id="edge7" class="edge">
<title>sdc_unwarp_wffmap2ref_apply:e&#45;&gt;sdc_unwarp_wfds_report_vsm:w</title>
<path fill="none" stroke="#000000" d="M836,-927.5C862.112,-927.5 820.292,-825.6021 828.3596,-798.5354"/>
<polygon fill="#000000" stroke="#000000" points="830.6759,-801.1599 836,-792 826.1257,-795.8405 830.6759,-801.1599"/>
</g>
<!-- sdc_unwarp_wftorads&#45;&gt;sdc_unwarp_wfgen_vsm -->
<g id="edge32" class="edge">
<title>sdc_unwarp_wftorads:e&#45;&gt;sdc_unwarp_wfgen_vsm:w</title>
<path fill="none" stroke="#000000" d="M733,-792C741,-792 738.5107,-779.7993 733,-774 678.9705,-717.1412 82.0295,-794.8588 28,-738 21.3412,-730.9925 17.4206,-701.8713 21.314,-687.7486"/>
<polygon fill="#000000" stroke="#000000" points="24.117,-689.8576 28,-680 18.8172,-685.2846 24.117,-689.8576"/>
</g>
<!-- sdc_unwarp_wfgen_vsm&#45;&gt;sdc_unwarp_wfvsm2dfm -->
<g id="edge15" class="edge">
<title>sdc_unwarp_wfgen_vsm:e&#45;&gt;sdc_unwarp_wfvsm2dfm:w</title>
<path fill="none" stroke="#000000" d="M362,-651C374.8889,-651 370.3311,-631.8345 362,-622 299.0921,-547.7397 208.9079,-660.2603 146,-586 138.9303,-577.6545 134.1119,-563.7414 137.2814,-556.216"/>
<polygon fill="#000000" stroke="#000000" points="139.2154,-559.1376 146,-551 135.6216,-553.1305 139.2154,-559.1376"/>
</g>
<!-- sdc_unwarp_wfjac_dfm -->
<g id="node12" class="node">
<title>sdc_unwarp_wfjac_dfm</title>
<polygon fill="none" stroke="#000000" points="434.5,-281.5 434.5,-350.5 775.5,-350.5 775.5,-281.5 434.5,-281.5"/>
<text text-anchor="middle" x="504.5" y="-329.8" font-family="Times,serif" font-size="14.00" fill="#000000">IN</text>
<polyline fill="none" stroke="#000000" points="434.5,-316.5 574.5,-316.5 "/>
<text text-anchor="middle" x="504.5" y="-295.3" font-family="Times,serif" font-size="14.00" fill="#000000">deformationField</text>
<polyline fill="none" stroke="#000000" points="574.5,-281.5 574.5,-350.5 "/>
<text text-anchor="middle" x="611" y="-335.3" font-family="Times,serif" font-size="14.00" fill="#000000">jac_dfm</text>
<polyline fill="none" stroke="#000000" points="574.5,-327.5 647.5,-327.5 "/>
<text text-anchor="middle" x="611" y="-312.3" font-family="Times,serif" font-size="14.00" fill="#000000">ants</text>
<polyline fill="none" stroke="#000000" points="574.5,-304.5 647.5,-304.5 "/>
<text text-anchor="middle" x="611" y="-289.3" font-family="Times,serif" font-size="14.00" fill="#000000"> </text>
<polyline fill="none" stroke="#000000" points="647.5,-281.5 647.5,-350.5 "/>
<text text-anchor="middle" x="711.5" y="-329.8" font-family="Times,serif" font-size="14.00" fill="#000000">OUT</text>
<polyline fill="none" stroke="#000000" points="647.5,-316.5 775.5,-316.5 "/>
<text text-anchor="middle" x="711.5" y="-295.3" font-family="Times,serif" font-size="14.00" fill="#000000">jacobian_image</text>
</g>
<!-- sdc_unwarp_wfvsm2dfm&#45;&gt;sdc_unwarp_wfjac_dfm -->
<g id="edge34" class="edge">
<title>sdc_unwarp_wfvsm2dfm:e&#45;&gt;sdc_unwarp_wfjac_dfm:w</title>
<path fill="none" stroke="#000000" d="M362,-534C386.5356,-534 403.0578,-344.3104 425.9656,-305.7797"/>
<polygon fill="#000000" stroke="#000000" points="428.6146,-308.124 434,-299 424.1002,-302.7742 428.6146,-308.124"/>
</g>
<!-- sdc_unwarp_wfvsm2dfm&#45;&gt;sdc_unwarp_wfunwarp_reference -->
<g id="edge36" class="edge">
<title>sdc_unwarp_wfvsm2dfm:e&#45;&gt;sdc_unwarp_wfunwarp_reference:w</title>
<path fill="none" stroke="#000000" d="M362,-534C372.1349,-534 369.1907,-523.5066 376,-516 391.6307,-498.7687 403.1478,-500.5782 414,-480 420.8508,-467.0094 413.3053,-422.5621 419.4446,-405.3682"/>
<polygon fill="#000000" stroke="#000000" points="421.9548,-407.8165 427,-398.5 417.2461,-402.6368 421.9548,-407.8165"/>
</g>
<!-- sdc_unwarp_wfoutputnode -->
<g id="node16" class="node">
<title>sdc_unwarp_wfoutputnode</title>
<polygon fill="none" stroke="#000000" points="1085.5,-.5 1085.5,-138.5 1394.5,-138.5 1394.5,-.5 1085.5,-.5"/>
<text text-anchor="middle" x="1166" y="-123.3" font-family="Times,serif" font-size="14.00" fill="#000000">IN</text>
<polyline fill="none" stroke="#000000" points="1085.5,-115.5 1246.5,-115.5 "/>
<text text-anchor="middle" x="1166" y="-100.3" font-family="Times,serif" font-size="14.00" fill="#000000">out_jacobian</text>
<polyline fill="none" stroke="#000000" points="1085.5,-92.5 1246.5,-92.5 "/>
<text text-anchor="middle" x="1166" y="-77.3" font-family="Times,serif" font-size="14.00" fill="#000000">out_mask</text>
<polyline fill="none" stroke="#000000" points="1085.5,-69.5 1246.5,-69.5 "/>
<text text-anchor="middle" x="1166" y="-54.3" font-family="Times,serif" font-size="14.00" fill="#000000">out_reference</text>
<polyline fill="none" stroke="#000000" points="1085.5,-46.5 1246.5,-46.5 "/>
<text text-anchor="middle" x="1166" y="-31.3" font-family="Times,serif" font-size="14.00" fill="#000000">out_reference_brain</text>
<polyline fill="none" stroke="#000000" points="1085.5,-23.5 1246.5,-23.5 "/>
<text text-anchor="middle" x="1166" y="-8.3" font-family="Times,serif" font-size="14.00" fill="#000000">out_warp</text>
<polyline fill="none" stroke="#000000" points="1246.5,-.5 1246.5,-138.5 "/>
<text text-anchor="middle" x="1295.5" y="-111.8" font-family="Times,serif" font-size="14.00" fill="#000000">outputnode</text>
<polyline fill="none" stroke="#000000" points="1246.5,-92.5 1344.5,-92.5 "/>
<text text-anchor="middle" x="1295.5" y="-65.8" font-family="Times,serif" font-size="14.00" fill="#000000">utility</text>
<polyline fill="none" stroke="#000000" points="1246.5,-46.5 1344.5,-46.5 "/>
<text text-anchor="middle" x="1295.5" y="-19.8" font-family="Times,serif" font-size="14.00" fill="#000000"> </text>
<polyline fill="none" stroke="#000000" points="1344.5,-.5 1344.5,-138.5 "/>
<text text-anchor="middle" x="1369.5" y="-65.8" font-family="Times,serif" font-size="14.00" fill="#000000">OUT</text>
</g>
<!-- sdc_unwarp_wfvsm2dfm&#45;&gt;sdc_unwarp_wfoutputnode -->
<g id="edge35" class="edge">
<title>sdc_unwarp_wfvsm2dfm:e&#45;&gt;sdc_unwarp_wfoutputnode:w</title>
<path fill="none" stroke="#000000" d="M362,-534C378.4692,-534 376.6865,-402.8943 381,-387 394.4049,-337.606 389.5705,-316.9492 426,-281 648.813,-61.1244 766.0325,-12.535 1074.871,-11.5165"/>
<polygon fill="#000000" stroke="#000000" points="1075.0058,-15.0164 1085,-11.5 1074.9943,-8.0164 1075.0058,-15.0164"/>
</g>
<!-- sdc_unwarp_wfjac_dfm&#45;&gt;sdc_unwarp_wfoutputnode -->
<g id="edge31" class="edge">
<title>sdc_unwarp_wfjac_dfm:e&#45;&gt;sdc_unwarp_wfoutputnode:w</title>
<path fill="none" stroke="#000000" d="M776,-299C813.9539,-299 1015.8365,-128.7643 1074.9218,-106.8198"/>
<polygon fill="#000000" stroke="#000000" points="1076.04,-110.154 1085,-104.5 1074.4697,-103.3324 1076.04,-110.154"/>
</g>
<!-- sdc_unwarp_wfunwarp_reference&#45;&gt;sdc_unwarp_wfapply_fov_mask -->
<g id="edge33" class="edge">
<title>sdc_unwarp_wfunwarp_reference:e&#45;&gt;sdc_unwarp_wfapply_fov_mask:w</title>
<path fill="none" stroke="#000000" d="M827,-410.5C864.4063,-410.5 801.8677,-335.5414 817.411,-319.1442"/>
<polygon fill="#000000" stroke="#000000" points="818.5883,-322.4416 827,-316 816.4072,-315.79 818.5883,-322.4416"/>
</g>
<!-- sdc_unwarp_wfapply_fov_mask&#45;&gt;sdc_unwarp_wfenhance_and_skullstrip_bold_wf -->
<g id="edge1" class="edge">
<title>sdc_unwarp_wfapply_fov_mask:e&#45;&gt;sdc_unwarp_wfenhance_and_skullstrip_bold_wf:w</title>
<path fill="none" stroke="#000000" d="M1113,-299C1147.6111,-299 1091.3681,-230.8594 1103.2656,-213.8242"/>
<polygon fill="#000000" stroke="#000000" points="1104.9723,-216.9142 1113,-210 1102.4127,-210.399 1104.9723,-216.9142"/>
</g>
<!-- sdc_unwarp_wfapply_fov_mask&#45;&gt;sdc_unwarp_wfoutputnode -->
<g id="edge2" class="edge">
<title>sdc_unwarp_wfapply_fov_mask:e&#45;&gt;sdc_unwarp_wfoutputnode:w</title>
<path fill="none" stroke="#000000" d="M1113,-299C1121.7543,-299 1110.5337,-271.9417 1105,-245 1088.8961,-166.5954 1008.8639,-66.9232 1074.7177,-58.1265"/>
<polygon fill="#000000" stroke="#000000" points="1075.2314,-61.6017 1085,-57.5 1074.8056,-54.6147 1075.2314,-61.6017"/>
</g>
<!-- sdc_unwarp_wfenhance_and_skullstrip_bold_wf&#45;&gt;sdc_unwarp_wfoutputnode -->
<g id="edge3" class="edge">
<title>sdc_unwarp_wfenhance_and_skullstrip_bold_wf:e&#45;&gt;sdc_unwarp_wfoutputnode:w</title>
<path fill="none" stroke="#000000" d="M1761,-210C1776.5556,-210 1771.703,-186.2881 1761,-175 1709.2467,-120.4173 1136.7533,-193.5827 1085,-139 1070.3013,-123.4977 1062.319,-93.7328 1075.0236,-84.3835"/>
<polygon fill="#000000" stroke="#000000" points="1076.3651,-87.6391 1085,-81.5 1074.4214,-80.9143 1076.3651,-87.6391"/>
</g>
<!-- sdc_unwarp_wfenhance_and_skullstrip_bold_wf&#45;&gt;sdc_unwarp_wfoutputnode -->
<g id="edge4" class="edge">
<title>sdc_unwarp_wfenhance_and_skullstrip_bold_wf:e&#45;&gt;sdc_unwarp_wfoutputnode:w</title>
<path fill="none" stroke="#000000" d="M1761,-187C1766.3333,-187 1764.6696,-178.8702 1761,-175 1709.2467,-120.4173 1136.7533,-193.5827 1085,-139 1055.6654,-108.0616 1041.0501,-45.8655 1074.7764,-35.8696"/>
<polygon fill="#000000" stroke="#000000" points="1075.5533,-39.2969 1085,-34.5 1074.6238,-32.3589 1075.5533,-39.2969"/>
</g>
</g>
</svg>
