<?xml version="1.0" encoding="UTF-8" standalone="no"?>
<!DOCTYPE svg PUBLIC "-//W3C//DTD SVG 1.1//EN"
 "http://www.w3.org/Graphics/SVG/1.1/DTD/svg11.dtd">
<!-- Generated by graphviz version 2.40.1 (20161225.0304)
 -->
<!-- Title: structs Pages: 1 -->
<svg width="1221pt" height="700pt"
 viewBox="0.00 0.00 1220.50 700.00" xmlns="http://www.w3.org/2000/svg" xmlns:xlink="http://www.w3.org/1999/xlink">
<g id="graph0" class="graph" transform="scale(1 1) rotate(0) translate(4 696)">
<title>structs</title>
<polygon fill="#ffffff" stroke="transparent" points="-4,4 -4,-696 1216.5,-696 1216.5,4 -4,4"/>
<!-- phdiff_wfinputnode -->
<g id="node1" class="node">
<title>phdiff_wfinputnode</title>
<polygon fill="none" stroke="#000000" points="0,-599.5 0,-691.5 217,-691.5 217,-599.5 0,-599.5"/>
<text text-anchor="middle" x="17.5" y="-641.8" font-family="Times,serif" font-size="14.00" fill="#000000">IN</text>
<polyline fill="none" stroke="#000000" points="35,-599.5 35,-691.5 "/>
<text text-anchor="middle" x="79.5" y="-672.8" font-family="Times,serif" font-size="14.00" fill="#000000">inputnode</text>
<polyline fill="none" stroke="#000000" points="35,-661.5 124,-661.5 "/>
<text text-anchor="middle" x="79.5" y="-642.3" font-family="Times,serif" font-size="14.00" fill="#000000">utility</text>
<polyline fill="none" stroke="#000000" points="35,-630.5 124,-630.5 "/>
<text text-anchor="middle" x="79.5" y="-611.3" font-family="Times,serif" font-size="14.00" fill="#000000"> </text>
<polyline fill="none" stroke="#000000" points="124,-599.5 124,-691.5 "/>
<text text-anchor="middle" x="170.5" y="-676.3" font-family="Times,serif" font-size="14.00" fill="#000000">OUT</text>
<polyline fill="none" stroke="#000000" points="124,-668.5 217,-668.5 "/>
<text text-anchor="middle" x="170.5" y="-653.3" font-family="Times,serif" font-size="14.00" fill="#000000">magnitude</text>
<polyline fill="none" stroke="#000000" points="124,-645.5 217,-645.5 "/>
<text text-anchor="middle" x="170.5" y="-630.3" font-family="Times,serif" font-size="14.00" fill="#000000">metadata</text>
<polyline fill="none" stroke="#000000" points="124,-622.5 217,-622.5 "/>
<text text-anchor="middle" x="170.5" y="-607.3" font-family="Times,serif" font-size="14.00" fill="#000000">phasediff</text>
</g>
<!-- phdiff_wfphmap2rads -->
<g id="node2" class="node">
<title>phdiff_wfphmap2rads</title>
<polygon fill="none" stroke="#000000" points="217.5,-493.5 217.5,-562.5 453.5,-562.5 453.5,-493.5 217.5,-493.5"/>
<text text-anchor="middle" x="247.5" y="-541.8" font-family="Times,serif" font-size="14.00" fill="#000000">IN</text>
<polyline fill="none" stroke="#000000" points="217.5,-528.5 277.5,-528.5 "/>
<text text-anchor="middle" x="247.5" y="-507.3" font-family="Times,serif" font-size="14.00" fill="#000000">in_file</text>
<polyline fill="none" stroke="#000000" points="277.5,-493.5 277.5,-562.5 "/>
<text text-anchor="middle" x="330.5" y="-547.3" font-family="Times,serif" font-size="14.00" fill="#000000">phmap2rads</text>
<polyline fill="none" stroke="#000000" points="277.5,-539.5 383.5,-539.5 "/>
<text text-anchor="middle" x="330.5" y="-524.3" font-family="Times,serif" font-size="14.00" fill="#000000">fmap</text>
<polyline fill="none" stroke="#000000" points="277.5,-516.5 383.5,-516.5 "/>
<text text-anchor="middle" x="330.5" y="-501.3" font-family="Times,serif" font-size="14.00" fill="#000000"> </text>
<polyline fill="none" stroke="#000000" points="383.5,-493.5 383.5,-562.5 "/>
<text text-anchor="middle" x="418.5" y="-541.8" font-family="Times,serif" font-size="14.00" fill="#000000">OUT</text>
<polyline fill="none" stroke="#000000" points="383.5,-528.5 453.5,-528.5 "/>
<text text-anchor="middle" x="418.5" y="-507.3" font-family="Times,serif" font-size="14.00" fill="#000000">out_file</text>
</g>
<!-- phdiff_wfinputnode&#45;&gt;phdiff_wfphmap2rads -->
<g id="edge5" class="edge">
<title>phdiff_wfinputnode:e&#45;&gt;phdiff_wfphmap2rads:w</title>
<path fill="none" stroke="#000000" d="M217.5,-610.5C217.5,-610.5 217.5,-546.6956 217.5,-521.2735"/>
<polygon fill="#000000" stroke="#000000" points="221.0001,-521 217.5,-511 214.0001,-521 221.0001,-521"/>
</g>
<!-- phdiff_wfmagnitude_wf -->
<g id="node3" class="node">
<title>phdiff_wfmagnitude_wf</title>
<polygon fill="none" stroke="#000000" points="472,-493.5 472,-562.5 945,-562.5 945,-493.5 472,-493.5"/>
<text text-anchor="middle" x="557" y="-541.8" font-family="Times,serif" font-size="14.00" fill="#000000">IN</text>
<polyline fill="none" stroke="#000000" points="472,-528.5 642,-528.5 "/>
<text text-anchor="middle" x="557" y="-507.3" font-family="Times,serif" font-size="14.00" fill="#000000">inputnode.magnitude</text>
<polyline fill="none" stroke="#000000" points="642,-493.5 642,-562.5 "/>
<text text-anchor="middle" x="701" y="-547.3" font-family="Times,serif" font-size="14.00" fill="#000000">magnitude_wf</text>
<polyline fill="none" stroke="#000000" points="642,-539.5 760,-539.5 "/>
<text text-anchor="middle" x="701" y="-524.3" font-family="Times,serif" font-size="14.00" fill="#000000"> </text>
<polyline fill="none" stroke="#000000" points="642,-516.5 760,-516.5 "/>
<text text-anchor="middle" x="701" y="-501.3" font-family="Times,serif" font-size="14.00" fill="#000000"> </text>
<polyline fill="none" stroke="#000000" points="760,-493.5 760,-562.5 "/>
<text text-anchor="middle" x="852.5" y="-547.3" font-family="Times,serif" font-size="14.00" fill="#000000">OUT</text>
<polyline fill="none" stroke="#000000" points="760,-539.5 945,-539.5 "/>
<text text-anchor="middle" x="852.5" y="-524.3" font-family="Times,serif" font-size="14.00" fill="#000000">outputnode.fmap_mask</text>
<polyline fill="none" stroke="#000000" points="760,-516.5 945,-516.5 "/>
<text text-anchor="middle" x="852.5" y="-501.3" font-family="Times,serif" font-size="14.00" fill="#000000">outputnode.fmap_ref</text>
</g>
<!-- phdiff_wfinputnode&#45;&gt;phdiff_wfmagnitude_wf -->
<g id="edge3" class="edge">
<title>phdiff_wfinputnode:e&#45;&gt;phdiff_wfmagnitude_wf:w</title>
<path fill="none" stroke="#000000" d="M217.5,-657.5C334.2081,-657.5 388.4793,-653.2315 462.5,-563 467.846,-556.4832 464.0982,-532.471 465.9216,-519.4797"/>
<polygon fill="#000000" stroke="#000000" points="468.928,-521.2779 471.5,-511 463.08,-517.4307 468.928,-521.2779"/>
</g>
<!-- phdiff_wfcompfmap -->
<g id="node6" class="node">
<title>phdiff_wfcompfmap</title>
<polygon fill="none" stroke="#000000" points="692.5,-129.5 692.5,-198.5 938.5,-198.5 938.5,-129.5 692.5,-129.5"/>
<text text-anchor="middle" x="734.5" y="-183.3" font-family="Times,serif" font-size="14.00" fill="#000000">IN</text>
<polyline fill="none" stroke="#000000" points="692.5,-175.5 776.5,-175.5 "/>
<text text-anchor="middle" x="734.5" y="-160.3" font-family="Times,serif" font-size="14.00" fill="#000000">in_file</text>
<polyline fill="none" stroke="#000000" points="692.5,-152.5 776.5,-152.5 "/>
<text text-anchor="middle" x="734.5" y="-137.3" font-family="Times,serif" font-size="14.00" fill="#000000">metadata</text>
<polyline fill="none" stroke="#000000" points="776.5,-129.5 776.5,-198.5 "/>
<text text-anchor="middle" x="822.5" y="-183.3" font-family="Times,serif" font-size="14.00" fill="#000000">compfmap</text>
<polyline fill="none" stroke="#000000" points="776.5,-175.5 868.5,-175.5 "/>
<text text-anchor="middle" x="822.5" y="-160.3" font-family="Times,serif" font-size="14.00" fill="#000000">fmap</text>
<polyline fill="none" stroke="#000000" points="776.5,-152.5 868.5,-152.5 "/>
<text text-anchor="middle" x="822.5" y="-137.3" font-family="Times,serif" font-size="14.00" fill="#000000"> </text>
<polyline fill="none" stroke="#000000" points="868.5,-129.5 868.5,-198.5 "/>
<text text-anchor="middle" x="903.5" y="-177.8" font-family="Times,serif" font-size="14.00" fill="#000000">OUT</text>
<polyline fill="none" stroke="#000000" points="868.5,-164.5 938.5,-164.5 "/>
<text text-anchor="middle" x="903.5" y="-143.3" font-family="Times,serif" font-size="14.00" fill="#000000">out_file</text>
</g>
<!-- phdiff_wfinputnode&#45;&gt;phdiff_wfcompfmap -->
<g id="edge4" class="edge">
<title>phdiff_wfinputnode:e&#45;&gt;phdiff_wfcompfmap:w</title>
<path fill="none" stroke="#000000" d="M217.5,-633.5C232.8333,-633.5 219.3735,-614.2184 217.5,-599 215.4849,-582.6311 210.5151,-579.3689 208.5,-563 204.6987,-532.122 197.4858,-522.0962 208.5,-493 301.4703,-247.4002 423.3758,-143.6448 682.4382,-141.05"/>
<polygon fill="#000000" stroke="#000000" points="682.5176,-144.5498 692.5,-141 682.4827,-137.5498 682.5176,-144.5498"/>
</g>
<!-- phdiff_wfprelude -->
<g id="node4" class="node">
<title>phdiff_wfprelude</title>
<polygon fill="none" stroke="#000000" points="455.5,-364.5 455.5,-456.5 825.5,-456.5 825.5,-364.5 455.5,-364.5"/>
<text text-anchor="middle" x="517" y="-441.3" font-family="Times,serif" font-size="14.00" fill="#000000">IN</text>
<polyline fill="none" stroke="#000000" points="455.5,-433.5 578.5,-433.5 "/>
<text text-anchor="middle" x="517" y="-418.3" font-family="Times,serif" font-size="14.00" fill="#000000">magnitude_file</text>
<polyline fill="none" stroke="#000000" points="455.5,-410.5 578.5,-410.5 "/>
<text text-anchor="middle" x="517" y="-395.3" font-family="Times,serif" font-size="14.00" fill="#000000">mask_file</text>
<polyline fill="none" stroke="#000000" points="455.5,-387.5 578.5,-387.5 "/>
<text text-anchor="middle" x="517" y="-372.3" font-family="Times,serif" font-size="14.00" fill="#000000">phase_file</text>
<polyline fill="none" stroke="#000000" points="578.5,-364.5 578.5,-456.5 "/>
<text text-anchor="middle" x="614" y="-437.8" font-family="Times,serif" font-size="14.00" fill="#000000">prelude</text>
<polyline fill="none" stroke="#000000" points="578.5,-426.5 649.5,-426.5 "/>
<text text-anchor="middle" x="614" y="-407.3" font-family="Times,serif" font-size="14.00" fill="#000000">fsl</text>
<polyline fill="none" stroke="#000000" points="578.5,-395.5 649.5,-395.5 "/>
<text text-anchor="middle" x="614" y="-376.3" font-family="Times,serif" font-size="14.00" fill="#000000"> </text>
<polyline fill="none" stroke="#000000" points="649.5,-364.5 649.5,-456.5 "/>
<text text-anchor="middle" x="737.5" y="-429.8" font-family="Times,serif" font-size="14.00" fill="#000000">OUT</text>
<polyline fill="none" stroke="#000000" points="649.5,-410.5 825.5,-410.5 "/>
<text text-anchor="middle" x="737.5" y="-383.8" font-family="Times,serif" font-size="14.00" fill="#000000">unwrapped_phase_file</text>
</g>
<!-- phdiff_wfphmap2rads&#45;&gt;phdiff_wfprelude -->
<g id="edge12" class="edge">
<title>phdiff_wfphmap2rads:e&#45;&gt;phdiff_wfprelude:w</title>
<path fill="none" stroke="#000000" d="M453.5,-511C459.764,-511 451.777,-417.1966 453.2536,-385.6845"/>
<polygon fill="#000000" stroke="#000000" points="456.7638,-386.0192 455.5,-375.5 449.9281,-384.5114 456.7638,-386.0192"/>
</g>
<!-- phdiff_wfmagnitude_wf&#45;&gt;phdiff_wfprelude -->
<g id="edge8" class="edge">
<title>phdiff_wfmagnitude_wf:e&#45;&gt;phdiff_wfprelude:w</title>
<path fill="none" stroke="#000000" d="M945.5,-528C961.0556,-528 956.0888,-504.3953 945.5,-493 871.1786,-413.018 529.8214,-536.982 455.5,-457 440.567,-440.9296 432.3237,-410.331 445.7298,-401.1613"/>
<polygon fill="#000000" stroke="#000000" points="446.7714,-404.5052 455.5,-398.5 444.9317,-397.7513 446.7714,-404.5052"/>
</g>
<!-- phdiff_wfmagnitude_wf&#45;&gt;phdiff_wfprelude -->
<g id="edge11" class="edge">
<title>phdiff_wfmagnitude_wf:e&#45;&gt;phdiff_wfprelude:w</title>
<path fill="none" stroke="#000000" d="M945.5,-505C950.8333,-505 949.1304,-496.907 945.5,-493 871.1786,-413.018 529.8214,-536.982 455.5,-457 448.1611,-449.1021 443.562,-435.2544 446.8081,-427.7283"/>
<polygon fill="#000000" stroke="#000000" points="448.7349,-430.6538 455.5,-422.5 445.1267,-424.6554 448.7349,-430.6538"/>
</g>
<!-- phdiff_wffmap_postproc_wf -->
<g id="node5" class="node">
<title>phdiff_wffmap_postproc_wf</title>
<polygon fill="none" stroke="#000000" points="445,-235.5 445,-327.5 938,-327.5 938,-235.5 445,-235.5"/>
<text text-anchor="middle" x="532.5" y="-312.3" font-family="Times,serif" font-size="14.00" fill="#000000">IN</text>
<polyline fill="none" stroke="#000000" points="445,-304.5 620,-304.5 "/>
<text text-anchor="middle" x="532.5" y="-289.3" font-family="Times,serif" font-size="14.00" fill="#000000">inputnode.fmap</text>
<polyline fill="none" stroke="#000000" points="445,-281.5 620,-281.5 "/>
<text text-anchor="middle" x="532.5" y="-266.3" font-family="Times,serif" font-size="14.00" fill="#000000">inputnode.fmap_mask</text>
<polyline fill="none" stroke="#000000" points="445,-258.5 620,-258.5 "/>
<text text-anchor="middle" x="532.5" y="-243.3" font-family="Times,serif" font-size="14.00" fill="#000000">inputnode.fmap_ref</text>
<polyline fill="none" stroke="#000000" points="620,-235.5 620,-327.5 "/>
<text text-anchor="middle" x="694" y="-308.8" font-family="Times,serif" font-size="14.00" fill="#000000">fmap_postproc_wf</text>
<polyline fill="none" stroke="#000000" points="620,-297.5 768,-297.5 "/>
<text text-anchor="middle" x="694" y="-278.3" font-family="Times,serif" font-size="14.00" fill="#000000"> </text>
<polyline fill="none" stroke="#000000" points="620,-266.5 768,-266.5 "/>
<text text-anchor="middle" x="694" y="-247.3" font-family="Times,serif" font-size="14.00" fill="#000000"> </text>
<polyline fill="none" stroke="#000000" points="768,-235.5 768,-327.5 "/>
<text text-anchor="middle" x="853" y="-300.8" font-family="Times,serif" font-size="14.00" fill="#000000">OUT</text>
<polyline fill="none" stroke="#000000" points="768,-281.5 938,-281.5 "/>
<text text-anchor="middle" x="853" y="-254.8" font-family="Times,serif" font-size="14.00" fill="#000000">outputnode.out_fmap</text>
</g>
<!-- phdiff_wfmagnitude_wf&#45;&gt;phdiff_wffmap_postproc_wf -->
<g id="edge6" class="edge">
<title>phdiff_wfmagnitude_wf:e&#45;&gt;phdiff_wffmap_postproc_wf:w</title>
<path fill="none" stroke="#000000" d="M945.5,-528C958.6603,-528 934.3326,-395.0569 891.5,-364 810.8213,-305.5017 512.0791,-401.2405 444.5,-328 429.6235,-311.8772 421.3413,-281.3147 434.734,-272.1575"/>
<polygon fill="#000000" stroke="#000000" points="435.7699,-275.5029 444.5,-269.5 433.9318,-268.7485 435.7699,-275.5029"/>
</g>
<!-- phdiff_wfmagnitude_wf&#45;&gt;phdiff_wffmap_postproc_wf -->
<g id="edge9" class="edge">
<title>phdiff_wfmagnitude_wf:e&#45;&gt;phdiff_wffmap_postproc_wf:w</title>
<path fill="none" stroke="#000000" d="M945.5,-505C950.8333,-505 948.0166,-497.7023 945.5,-493 931.8895,-467.5686 911.5033,-477.7814 891.5,-457 857.8802,-422.0725 875.6642,-389.6073 834.5,-364 760.5975,-318.0269 503.1465,-392.3094 444.5,-328 422.6667,-304.0586 410.91,-257.7347 434.6005,-248.2296"/>
<polygon fill="#000000" stroke="#000000" points="435.2516,-251.6689 444.5,-246.5 434.0468,-244.7734 435.2516,-251.6689"/>
</g>
<!-- phdiff_wfoutputnode -->
<g id="node7" class="node">
<title>phdiff_wfoutputnode</title>
<polygon fill="none" stroke="#000000" points="966.5,-.5 966.5,-92.5 1212.5,-92.5 1212.5,-.5 966.5,-.5"/>
<text text-anchor="middle" x="1015.5" y="-77.3" font-family="Times,serif" font-size="14.00" fill="#000000">IN</text>
<polyline fill="none" stroke="#000000" points="966.5,-69.5 1064.5,-69.5 "/>
<text text-anchor="middle" x="1015.5" y="-54.3" font-family="Times,serif" font-size="14.00" fill="#000000">fmap</text>
<polyline fill="none" stroke="#000000" points="966.5,-46.5 1064.5,-46.5 "/>
<text text-anchor="middle" x="1015.5" y="-31.3" font-family="Times,serif" font-size="14.00" fill="#000000">fmap_mask</text>
<polyline fill="none" stroke="#000000" points="966.5,-23.5 1064.5,-23.5 "/>
<text text-anchor="middle" x="1015.5" y="-8.3" font-family="Times,serif" font-size="14.00" fill="#000000">fmap_ref</text>
<polyline fill="none" stroke="#000000" points="1064.5,-.5 1064.5,-92.5 "/>
<text text-anchor="middle" x="1113.5" y="-73.8" font-family="Times,serif" font-size="14.00" fill="#000000">outputnode</text>
<polyline fill="none" stroke="#000000" points="1064.5,-62.5 1162.5,-62.5 "/>
<text text-anchor="middle" x="1113.5" y="-43.3" font-family="Times,serif" font-size="14.00" fill="#000000">utility</text>
<polyline fill="none" stroke="#000000" points="1064.5,-31.5 1162.5,-31.5 "/>
<text text-anchor="middle" x="1113.5" y="-12.3" font-family="Times,serif" font-size="14.00" fill="#000000"> </text>
<polyline fill="none" stroke="#000000" points="1162.5,-.5 1162.5,-92.5 "/>
<text text-anchor="middle" x="1187.5" y="-42.8" font-family="Times,serif" font-size="14.00" fill="#000000">OUT</text>
</g>
<!-- phdiff_wfmagnitude_wf&#45;&gt;phdiff_wfoutputnode -->
<g id="edge7" class="edge">
<title>phdiff_wfmagnitude_wf:e&#45;&gt;phdiff_wfoutputnode:w</title>
<path fill="none" stroke="#000000" d="M945.5,-528C1011.5095,-528 1023.7927,-359.7698 980.5,-129 977.3346,-112.1271 969.6654,-109.8729 966.5,-93 962.5674,-72.0376 947.591,-46.1012 956.6878,-37.4572"/>
<polygon fill="#000000" stroke="#000000" points="957.9354,-40.7368 966.5,-34.5 955.9154,-34.0345 957.9354,-40.7368"/>
</g>
<!-- phdiff_wfmagnitude_wf&#45;&gt;phdiff_wfoutputnode -->
<g id="edge10" class="edge">
<title>phdiff_wfmagnitude_wf:e&#45;&gt;phdiff_wfoutputnode:w</title>
<path fill="none" stroke="#000000" d="M945.5,-505C996.9528,-505 922.1517,-71.2598 957.8227,-17.0422"/>
<polygon fill="#000000" stroke="#000000" points="959.9563,-19.8325 966.5,-11.5 956.1883,-13.9331 959.9563,-19.8325"/>
</g>
<!-- phdiff_wfprelude&#45;&gt;phdiff_wffmap_postproc_wf -->
<g id="edge13" class="edge">
<title>phdiff_wfprelude:e&#45;&gt;phdiff_wffmap_postproc_wf:w</title>
<path fill="none" stroke="#000000" d="M825.5,-387.5C835.9444,-387.5 832.5294,-371.7249 825.5,-364 768.2632,-301.1001 501.7368,-390.8999 444.5,-328 437.2439,-320.026 432.6111,-306.2092 435.83,-298.7082"/>
<polygon fill="#000000" stroke="#000000" points="437.7301,-301.6498 444.5,-293.5 434.1254,-295.6492 437.7301,-301.6498"/>
</g>
<!-- phdiff_wffmap_postproc_wf&#45;&gt;phdiff_wfcompfmap -->
<g id="edge2" class="edge">
<title>phdiff_wffmap_postproc_wf:e&#45;&gt;phdiff_wfcompfmap:w</title>
<path fill="none" stroke="#000000" d="M938.5,-258.5C948.9444,-258.5 945.3297,-242.902 938.5,-235 866.2442,-151.4005 764.7558,-282.5995 692.5,-199 685.3478,-190.725 680.563,-176.7833 683.7596,-169.2347"/>
<polygon fill="#000000" stroke="#000000" points="685.7193,-172.1408 692.5,-164 682.1226,-166.1354 685.7193,-172.1408"/>
</g>
<!-- phdiff_wfcompfmap&#45;&gt;phdiff_wfoutputnode -->
<g id="edge1" class="edge">
<title>phdiff_wfcompfmap:e&#45;&gt;phdiff_wfoutputnode:w</title>
<path fill="none" stroke="#000000" d="M938.5,-147C955.7433,-147 949.3098,-85.157 958.7841,-64.8647"/>
<polygon fill="#000000" stroke="#000000" points="961.013,-67.5633 966.5,-58.5 956.5586,-62.1634 961.013,-67.5633"/>
</g>
</g>
</svg>
