<?xml version="1.0" encoding="UTF-8" standalone="no"?>
<!DOCTYPE svg PUBLIC "-//W3C//DTD SVG 1.1//EN"
 "http://www.w3.org/Graphics/SVG/1.1/DTD/svg11.dtd">
<!-- Generated by graphviz version 2.40.1 (20161225.0304)
 -->
<!-- Title: structs Pages: 1 -->
<svg width="1323pt" height="806pt"
 viewBox="0.00 0.00 1322.50 806.00" xmlns="http://www.w3.org/2000/svg" xmlns:xlink="http://www.w3.org/1999/xlink">
<g id="graph0" class="graph" transform="scale(1 1) rotate(0) translate(4 802)">
<title>structs</title>
<polygon fill="#ffffff" stroke="transparent" points="-4,4 -4,-802 1318.5,-802 1318.5,4 -4,4"/>
<!-- phdiff_wfinputnode -->
<g id="node1" class="node">
<title>phdiff_wfinputnode</title>
<polygon fill="none" stroke="#000000" points="0,-728.5 0,-797.5 217,-797.5 217,-728.5 0,-728.5"/>
<text text-anchor="middle" x="17.5" y="-759.3" font-family="Times,serif" font-size="14.00" fill="#000000">IN</text>
<polyline fill="none" stroke="#000000" points="35,-728.5 35,-797.5 "/>
<text text-anchor="middle" x="79.5" y="-782.3" font-family="Times,serif" font-size="14.00" fill="#000000">inputnode</text>
<polyline fill="none" stroke="#000000" points="35,-774.5 124,-774.5 "/>
<text text-anchor="middle" x="79.5" y="-759.3" font-family="Times,serif" font-size="14.00" fill="#000000">utility</text>
<polyline fill="none" stroke="#000000" points="35,-751.5 124,-751.5 "/>
<text text-anchor="middle" x="79.5" y="-736.3" font-family="Times,serif" font-size="14.00" fill="#000000"> </text>
<polyline fill="none" stroke="#000000" points="124,-728.5 124,-797.5 "/>
<text text-anchor="middle" x="170.5" y="-782.3" font-family="Times,serif" font-size="14.00" fill="#000000">OUT</text>
<polyline fill="none" stroke="#000000" points="124,-774.5 217,-774.5 "/>
<text text-anchor="middle" x="170.5" y="-759.3" font-family="Times,serif" font-size="14.00" fill="#000000">magnitude</text>
<polyline fill="none" stroke="#000000" points="124,-751.5 217,-751.5 "/>
<text text-anchor="middle" x="170.5" y="-736.3" font-family="Times,serif" font-size="14.00" fill="#000000">phasediff</text>
</g>
<!-- phdiff_wfmagnitude_wf -->
<g id="node2" class="node">
<title>phdiff_wfmagnitude_wf</title>
<polygon fill="none" stroke="#000000" points="568,-516.5 568,-585.5 1041,-585.5 1041,-516.5 568,-516.5"/>
<text text-anchor="middle" x="653" y="-564.8" font-family="Times,serif" font-size="14.00" fill="#000000">IN</text>
<polyline fill="none" stroke="#000000" points="568,-551.5 738,-551.5 "/>
<text text-anchor="middle" x="653" y="-530.3" font-family="Times,serif" font-size="14.00" fill="#000000">inputnode.magnitude</text>
<polyline fill="none" stroke="#000000" points="738,-516.5 738,-585.5 "/>
<text text-anchor="middle" x="797" y="-570.3" font-family="Times,serif" font-size="14.00" fill="#000000">magnitude_wf</text>
<polyline fill="none" stroke="#000000" points="738,-562.5 856,-562.5 "/>
<text text-anchor="middle" x="797" y="-547.3" font-family="Times,serif" font-size="14.00" fill="#000000"> </text>
<polyline fill="none" stroke="#000000" points="738,-539.5 856,-539.5 "/>
<text text-anchor="middle" x="797" y="-524.3" font-family="Times,serif" font-size="14.00" fill="#000000"> </text>
<polyline fill="none" stroke="#000000" points="856,-516.5 856,-585.5 "/>
<text text-anchor="middle" x="948.5" y="-570.3" font-family="Times,serif" font-size="14.00" fill="#000000">OUT</text>
<polyline fill="none" stroke="#000000" points="856,-562.5 1041,-562.5 "/>
<text text-anchor="middle" x="948.5" y="-547.3" font-family="Times,serif" font-size="14.00" fill="#000000">outputnode.fmap_mask</text>
<polyline fill="none" stroke="#000000" points="856,-539.5 1041,-539.5 "/>
<text text-anchor="middle" x="948.5" y="-524.3" font-family="Times,serif" font-size="14.00" fill="#000000">outputnode.fmap_ref</text>
</g>
<!-- phdiff_wfinputnode&#45;&gt;phdiff_wfmagnitude_wf -->
<g id="edge4" class="edge">
<title>phdiff_wfinputnode:e&#45;&gt;phdiff_wfmagnitude_wf:w</title>
<path fill="none" stroke="#000000" d="M217.5,-763C388.2558,-763 457.6661,-723.8044 558.5,-586 563.4775,-579.1975 559.8909,-555.3103 561.8341,-542.4119"/>
<polygon fill="#000000" stroke="#000000" points="564.8164,-544.2493 567.5,-534 559.0105,-540.3388 564.8164,-544.2493"/>
</g>
<!-- phdiff_wfsplit -->
<g id="node3" class="node">
<title>phdiff_wfsplit</title>
<polygon fill="none" stroke="#000000" points="94,-622.5 94,-691.5 313,-691.5 313,-622.5 94,-622.5"/>
<text text-anchor="middle" x="135.5" y="-670.8" font-family="Times,serif" font-size="14.00" fill="#000000">IN</text>
<polyline fill="none" stroke="#000000" points="94,-657.5 177,-657.5 "/>
<text text-anchor="middle" x="135.5" y="-636.3" font-family="Times,serif" font-size="14.00" fill="#000000">phasediff</text>
<polyline fill="none" stroke="#000000" points="177,-622.5 177,-691.5 "/>
<text text-anchor="middle" x="206.5" y="-676.3" font-family="Times,serif" font-size="14.00" fill="#000000">split</text>
<polyline fill="none" stroke="#000000" points="177,-668.5 236,-668.5 "/>
<text text-anchor="middle" x="206.5" y="-653.3" font-family="Times,serif" font-size="14.00" fill="#000000">utility</text>
<polyline fill="none" stroke="#000000" points="177,-645.5 236,-645.5 "/>
<text text-anchor="middle" x="206.5" y="-630.3" font-family="Times,serif" font-size="14.00" fill="#000000"> </text>
<polyline fill="none" stroke="#000000" points="236,-622.5 236,-691.5 "/>
<text text-anchor="middle" x="274.5" y="-676.3" font-family="Times,serif" font-size="14.00" fill="#000000">OUT</text>
<polyline fill="none" stroke="#000000" points="236,-668.5 313,-668.5 "/>
<text text-anchor="middle" x="274.5" y="-653.3" font-family="Times,serif" font-size="14.00" fill="#000000">map_file</text>
<polyline fill="none" stroke="#000000" points="236,-645.5 313,-645.5 "/>
<text text-anchor="middle" x="274.5" y="-630.3" font-family="Times,serif" font-size="14.00" fill="#000000">meta</text>
</g>
<!-- phdiff_wfinputnode&#45;&gt;phdiff_wfsplit -->
<g id="edge5" class="edge">
<title>phdiff_wfinputnode:e&#45;&gt;phdiff_wfsplit:w</title>
<path fill="none" stroke="#000000" d="M217.5,-740C222.8333,-740 220.7026,-732.2647 217.5,-728 183.0395,-682.112 127.9605,-737.888 93.5,-692 82.224,-676.9848 74.0146,-652.0412 83.7287,-643.2152"/>
<polygon fill="#000000" stroke="#000000" points="85.095,-646.4503 93.5,-640 82.907,-639.801 85.095,-646.4503"/>
</g>
<!-- phdiff_wfprelude -->
<g id="node5" class="node">
<title>phdiff_wfprelude</title>
<polygon fill="none" stroke="#000000" points="553.5,-387.5 553.5,-479.5 923.5,-479.5 923.5,-387.5 553.5,-387.5"/>
<text text-anchor="middle" x="615" y="-464.3" font-family="Times,serif" font-size="14.00" fill="#000000">IN</text>
<polyline fill="none" stroke="#000000" points="553.5,-456.5 676.5,-456.5 "/>
<text text-anchor="middle" x="615" y="-441.3" font-family="Times,serif" font-size="14.00" fill="#000000">magnitude_file</text>
<polyline fill="none" stroke="#000000" points="553.5,-433.5 676.5,-433.5 "/>
<text text-anchor="middle" x="615" y="-418.3" font-family="Times,serif" font-size="14.00" fill="#000000">mask_file</text>
<polyline fill="none" stroke="#000000" points="553.5,-410.5 676.5,-410.5 "/>
<text text-anchor="middle" x="615" y="-395.3" font-family="Times,serif" font-size="14.00" fill="#000000">phase_file</text>
<polyline fill="none" stroke="#000000" points="676.5,-387.5 676.5,-479.5 "/>
<text text-anchor="middle" x="712" y="-460.8" font-family="Times,serif" font-size="14.00" fill="#000000">prelude</text>
<polyline fill="none" stroke="#000000" points="676.5,-449.5 747.5,-449.5 "/>
<text text-anchor="middle" x="712" y="-430.3" font-family="Times,serif" font-size="14.00" fill="#000000">fsl</text>
<polyline fill="none" stroke="#000000" points="676.5,-418.5 747.5,-418.5 "/>
<text text-anchor="middle" x="712" y="-399.3" font-family="Times,serif" font-size="14.00" fill="#000000"> </text>
<polyline fill="none" stroke="#000000" points="747.5,-387.5 747.5,-479.5 "/>
<text text-anchor="middle" x="835.5" y="-452.8" font-family="Times,serif" font-size="14.00" fill="#000000">OUT</text>
<polyline fill="none" stroke="#000000" points="747.5,-433.5 923.5,-433.5 "/>
<text text-anchor="middle" x="835.5" y="-406.8" font-family="Times,serif" font-size="14.00" fill="#000000">unwrapped_phase_file</text>
</g>
<!-- phdiff_wfmagnitude_wf&#45;&gt;phdiff_wfprelude -->
<g id="edge8" class="edge">
<title>phdiff_wfmagnitude_wf:e&#45;&gt;phdiff_wfprelude:w</title>
<path fill="none" stroke="#000000" d="M1041.5,-551C1057.0556,-551 1052.0871,-527.3969 1041.5,-516 967.4923,-436.3316 627.5077,-559.6684 553.5,-480 538.5694,-463.9274 530.3244,-433.3303 543.73,-424.1612"/>
<polygon fill="#000000" stroke="#000000" points="544.7714,-427.5051 553.5,-421.5 542.9317,-420.7512 544.7714,-427.5051"/>
</g>
<!-- phdiff_wfmagnitude_wf&#45;&gt;phdiff_wfprelude -->
<g id="edge11" class="edge">
<title>phdiff_wfmagnitude_wf:e&#45;&gt;phdiff_wfprelude:w</title>
<path fill="none" stroke="#000000" d="M1041.5,-528C1046.8333,-528 1045.1299,-519.9075 1041.5,-516 967.4923,-436.3316 627.5077,-559.6684 553.5,-480 546.1623,-472.101 541.5627,-458.2537 544.8084,-450.728"/>
<polygon fill="#000000" stroke="#000000" points="546.7348,-453.6537 553.5,-445.5 543.1267,-447.6553 546.7348,-453.6537"/>
</g>
<!-- phdiff_wffmap_postproc_wf -->
<g id="node6" class="node">
<title>phdiff_wffmap_postproc_wf</title>
<polygon fill="none" stroke="#000000" points="303,-235.5 303,-350.5 796,-350.5 796,-235.5 303,-235.5"/>
<text text-anchor="middle" x="390.5" y="-335.3" font-family="Times,serif" font-size="14.00" fill="#000000">IN</text>
<polyline fill="none" stroke="#000000" points="303,-327.5 478,-327.5 "/>
<text text-anchor="middle" x="390.5" y="-312.3" font-family="Times,serif" font-size="14.00" fill="#000000">inputnode.fmap</text>
<polyline fill="none" stroke="#000000" points="303,-304.5 478,-304.5 "/>
<text text-anchor="middle" x="390.5" y="-289.3" font-family="Times,serif" font-size="14.00" fill="#000000">inputnode.fmap_mask</text>
<polyline fill="none" stroke="#000000" points="303,-281.5 478,-281.5 "/>
<text text-anchor="middle" x="390.5" y="-266.3" font-family="Times,serif" font-size="14.00" fill="#000000">inputnode.fmap_ref</text>
<polyline fill="none" stroke="#000000" points="303,-258.5 478,-258.5 "/>
<text text-anchor="middle" x="390.5" y="-243.3" font-family="Times,serif" font-size="14.00" fill="#000000">inputnode.metadata</text>
<polyline fill="none" stroke="#000000" points="478,-235.5 478,-350.5 "/>
<text text-anchor="middle" x="552" y="-327.8" font-family="Times,serif" font-size="14.00" fill="#000000">fmap_postproc_wf</text>
<polyline fill="none" stroke="#000000" points="478,-312.5 626,-312.5 "/>
<text text-anchor="middle" x="552" y="-289.8" font-family="Times,serif" font-size="14.00" fill="#000000"> </text>
<polyline fill="none" stroke="#000000" points="478,-274.5 626,-274.5 "/>
<text text-anchor="middle" x="552" y="-251.3" font-family="Times,serif" font-size="14.00" fill="#000000"> </text>
<polyline fill="none" stroke="#000000" points="626,-235.5 626,-350.5 "/>
<text text-anchor="middle" x="711" y="-327.8" font-family="Times,serif" font-size="14.00" fill="#000000">OUT</text>
<polyline fill="none" stroke="#000000" points="626,-312.5 796,-312.5 "/>
<text text-anchor="middle" x="711" y="-289.8" font-family="Times,serif" font-size="14.00" fill="#000000">outputnode.metadata</text>
<polyline fill="none" stroke="#000000" points="626,-274.5 796,-274.5 "/>
<text text-anchor="middle" x="711" y="-251.3" font-family="Times,serif" font-size="14.00" fill="#000000">outputnode.out_fmap</text>
</g>
<!-- phdiff_wfmagnitude_wf&#45;&gt;phdiff_wffmap_postproc_wf -->
<g id="edge6" class="edge">
<title>phdiff_wfmagnitude_wf:e&#45;&gt;phdiff_wffmap_postproc_wf:w</title>
<path fill="none" stroke="#000000" d="M1041.5,-551C1055.4955,-551 1030.6088,-418.7982 984.5,-387 922.0313,-343.9195 354.7242,-406.0536 302.5,-351 287.5313,-335.2203 279.4707,-304.7778 292.8014,-295.6498"/>
<polygon fill="#000000" stroke="#000000" points="293.776,-299.0119 302.5,-293 291.9311,-292.2594 293.776,-299.0119"/>
</g>
<!-- phdiff_wfmagnitude_wf&#45;&gt;phdiff_wffmap_postproc_wf -->
<g id="edge9" class="edge">
<title>phdiff_wfmagnitude_wf:e&#45;&gt;phdiff_wffmap_postproc_wf:w</title>
<path fill="none" stroke="#000000" d="M1041.5,-528C1046.8333,-528 1044.0744,-520.6708 1041.5,-516 1027.0368,-489.759 1005.1129,-501.7459 984.5,-480 951.9217,-445.631 972.647,-412.1155 932.5,-387 873.059,-349.8144 350.6432,-401.9728 302.5,-351 280.388,-327.5884 269.0291,-281.2465 292.6475,-271.7317"/>
<polygon fill="#000000" stroke="#000000" points="293.2569,-275.1784 302.5,-270 292.0451,-268.284 293.2569,-275.1784"/>
</g>
<!-- phdiff_wfoutputnode -->
<g id="node8" class="node">
<title>phdiff_wfoutputnode</title>
<polygon fill="none" stroke="#000000" points="1068.5,-.5 1068.5,-92.5 1314.5,-92.5 1314.5,-.5 1068.5,-.5"/>
<text text-anchor="middle" x="1117.5" y="-77.3" font-family="Times,serif" font-size="14.00" fill="#000000">IN</text>
<polyline fill="none" stroke="#000000" points="1068.5,-69.5 1166.5,-69.5 "/>
<text text-anchor="middle" x="1117.5" y="-54.3" font-family="Times,serif" font-size="14.00" fill="#000000">fmap</text>
<polyline fill="none" stroke="#000000" points="1068.5,-46.5 1166.5,-46.5 "/>
<text text-anchor="middle" x="1117.5" y="-31.3" font-family="Times,serif" font-size="14.00" fill="#000000">fmap_mask</text>
<polyline fill="none" stroke="#000000" points="1068.5,-23.5 1166.5,-23.5 "/>
<text text-anchor="middle" x="1117.5" y="-8.3" font-family="Times,serif" font-size="14.00" fill="#000000">fmap_ref</text>
<polyline fill="none" stroke="#000000" points="1166.5,-.5 1166.5,-92.5 "/>
<text text-anchor="middle" x="1215.5" y="-73.8" font-family="Times,serif" font-size="14.00" fill="#000000">outputnode</text>
<polyline fill="none" stroke="#000000" points="1166.5,-62.5 1264.5,-62.5 "/>
<text text-anchor="middle" x="1215.5" y="-43.3" font-family="Times,serif" font-size="14.00" fill="#000000">utility</text>
<polyline fill="none" stroke="#000000" points="1166.5,-31.5 1264.5,-31.5 "/>
<text text-anchor="middle" x="1215.5" y="-12.3" font-family="Times,serif" font-size="14.00" fill="#000000"> </text>
<polyline fill="none" stroke="#000000" points="1264.5,-.5 1264.5,-92.5 "/>
<text text-anchor="middle" x="1289.5" y="-42.8" font-family="Times,serif" font-size="14.00" fill="#000000">OUT</text>
</g>
<!-- phdiff_wfmagnitude_wf&#45;&gt;phdiff_wfoutputnode -->
<g id="edge7" class="edge">
<title>phdiff_wfmagnitude_wf:e&#45;&gt;phdiff_wfoutputnode:w</title>
<path fill="none" stroke="#000000" d="M1041.5,-551C1118.3384,-551 1127.4485,-368.5959 1082.5,-129 1079.3346,-112.1271 1071.6654,-109.8729 1068.5,-93 1064.5674,-72.0376 1049.591,-46.1012 1058.6878,-37.4572"/>
<polygon fill="#000000" stroke="#000000" points="1059.9354,-40.7368 1068.5,-34.5 1057.9154,-34.0345 1059.9354,-40.7368"/>
</g>
<!-- phdiff_wfmagnitude_wf&#45;&gt;phdiff_wfoutputnode -->
<g id="edge10" class="edge">
<title>phdiff_wfmagnitude_wf:e&#45;&gt;phdiff_wfoutputnode:w</title>
<path fill="none" stroke="#000000" d="M1041.5,-528C1068.0449,-528 1044.0644,-87.1887 1062.9121,-20.0339"/>
<polygon fill="#000000" stroke="#000000" points="1065.95,-21.7834 1068.5,-11.5 1060.0938,-17.9488 1065.95,-21.7834"/>
</g>
<!-- phdiff_wfphmap2rads -->
<g id="node4" class="node">
<title>phdiff_wfphmap2rads</title>
<polygon fill="none" stroke="#000000" points="313.5,-516.5 313.5,-585.5 549.5,-585.5 549.5,-516.5 313.5,-516.5"/>
<text text-anchor="middle" x="343.5" y="-564.8" font-family="Times,serif" font-size="14.00" fill="#000000">IN</text>
<polyline fill="none" stroke="#000000" points="313.5,-551.5 373.5,-551.5 "/>
<text text-anchor="middle" x="343.5" y="-530.3" font-family="Times,serif" font-size="14.00" fill="#000000">in_file</text>
<polyline fill="none" stroke="#000000" points="373.5,-516.5 373.5,-585.5 "/>
<text text-anchor="middle" x="426.5" y="-570.3" font-family="Times,serif" font-size="14.00" fill="#000000">phmap2rads</text>
<polyline fill="none" stroke="#000000" points="373.5,-562.5 479.5,-562.5 "/>
<text text-anchor="middle" x="426.5" y="-547.3" font-family="Times,serif" font-size="14.00" fill="#000000">fmap</text>
<polyline fill="none" stroke="#000000" points="373.5,-539.5 479.5,-539.5 "/>
<text text-anchor="middle" x="426.5" y="-524.3" font-family="Times,serif" font-size="14.00" fill="#000000"> </text>
<polyline fill="none" stroke="#000000" points="479.5,-516.5 479.5,-585.5 "/>
<text text-anchor="middle" x="514.5" y="-564.8" font-family="Times,serif" font-size="14.00" fill="#000000">OUT</text>
<polyline fill="none" stroke="#000000" points="479.5,-551.5 549.5,-551.5 "/>
<text text-anchor="middle" x="514.5" y="-530.3" font-family="Times,serif" font-size="14.00" fill="#000000">out_file</text>
</g>
<!-- phdiff_wfsplit&#45;&gt;phdiff_wfphmap2rads -->
<g id="edge14" class="edge">
<title>phdiff_wfsplit:e&#45;&gt;phdiff_wfphmap2rads:w</title>
<path fill="none" stroke="#000000" d="M313.5,-657C336.8828,-657 300.2558,-566.9853 306.2921,-540.9654"/>
<polygon fill="#000000" stroke="#000000" points="308.7412,-543.466 313.5,-534 303.8768,-538.4322 308.7412,-543.466"/>
</g>
<!-- phdiff_wfsplit&#45;&gt;phdiff_wffmap_postproc_wf -->
<g id="edge15" class="edge">
<title>phdiff_wfsplit:e&#45;&gt;phdiff_wffmap_postproc_wf:w</title>
<path fill="none" stroke="#000000" d="M313.5,-634C318.8333,-634 314.1516,-627.2934 313.5,-622 311.4849,-605.6311 306.5847,-602.3601 304.5,-586 291.2972,-482.3896 302.9444,-455.4473 302.5,-351 302.3202,-308.7504 263.85,-256.8453 292.5395,-248.2361"/>
<polygon fill="#000000" stroke="#000000" points="293.0072,-251.705 302.5,-247 292.145,-244.7583 293.0072,-251.705"/>
</g>
<!-- phdiff_wfphmap2rads&#45;&gt;phdiff_wfprelude -->
<g id="edge12" class="edge">
<title>phdiff_wfphmap2rads:e&#45;&gt;phdiff_wfprelude:w</title>
<path fill="none" stroke="#000000" d="M549.5,-534C562.1498,-534 545.7494,-438.4268 549.094,-407.8135"/>
<polygon fill="#000000" stroke="#000000" points="552.3874,-409.0363 553.5,-398.5 546.0597,-406.0428 552.3874,-409.0363"/>
</g>
<!-- phdiff_wfprelude&#45;&gt;phdiff_wffmap_postproc_wf -->
<g id="edge13" class="edge">
<title>phdiff_wfprelude:e&#45;&gt;phdiff_wffmap_postproc_wf:w</title>
<path fill="none" stroke="#000000" d="M923.5,-410.5C933.9444,-410.5 930.6684,-394.596 923.5,-387 828.626,-286.4668 397.374,-451.5332 302.5,-351 294.9097,-342.957 290.2496,-328.66 293.7793,-321.0666"/>
<polygon fill="#000000" stroke="#000000" points="295.6116,-324.0499 302.5,-316 292.0951,-317.9973 295.6116,-324.0499"/>
</g>
<!-- phdiff_wfcompfmap -->
<g id="node7" class="node">
<title>phdiff_wfcompfmap</title>
<polygon fill="none" stroke="#000000" points="794.5,-129.5 794.5,-198.5 1040.5,-198.5 1040.5,-129.5 794.5,-129.5"/>
<text text-anchor="middle" x="836.5" y="-183.3" font-family="Times,serif" font-size="14.00" fill="#000000">IN</text>
<polyline fill="none" stroke="#000000" points="794.5,-175.5 878.5,-175.5 "/>
<text text-anchor="middle" x="836.5" y="-160.3" font-family="Times,serif" font-size="14.00" fill="#000000">in_file</text>
<polyline fill="none" stroke="#000000" points="794.5,-152.5 878.5,-152.5 "/>
<text text-anchor="middle" x="836.5" y="-137.3" font-family="Times,serif" font-size="14.00" fill="#000000">metadata</text>
<polyline fill="none" stroke="#000000" points="878.5,-129.5 878.5,-198.5 "/>
<text text-anchor="middle" x="924.5" y="-183.3" font-family="Times,serif" font-size="14.00" fill="#000000">compfmap</text>
<polyline fill="none" stroke="#000000" points="878.5,-175.5 970.5,-175.5 "/>
<text text-anchor="middle" x="924.5" y="-160.3" font-family="Times,serif" font-size="14.00" fill="#000000">fmap</text>
<polyline fill="none" stroke="#000000" points="878.5,-152.5 970.5,-152.5 "/>
<text text-anchor="middle" x="924.5" y="-137.3" font-family="Times,serif" font-size="14.00" fill="#000000"> </text>
<polyline fill="none" stroke="#000000" points="970.5,-129.5 970.5,-198.5 "/>
<text text-anchor="middle" x="1005.5" y="-177.8" font-family="Times,serif" font-size="14.00" fill="#000000">OUT</text>
<polyline fill="none" stroke="#000000" points="970.5,-164.5 1040.5,-164.5 "/>
<text text-anchor="middle" x="1005.5" y="-143.3" font-family="Times,serif" font-size="14.00" fill="#000000">out_file</text>
</g>
<!-- phdiff_wffmap_postproc_wf&#45;&gt;phdiff_wfcompfmap -->
<g id="edge2" class="edge">
<title>phdiff_wffmap_postproc_wf:e&#45;&gt;phdiff_wfcompfmap:w</title>
<path fill="none" stroke="#000000" d="M796.5,-294C860.5211,-294 741.9601,-158.4044 784.5849,-142.5143"/>
<polygon fill="#000000" stroke="#000000" points="785.1431,-145.9697 794.5,-141 784.0862,-139.05 785.1431,-145.9697"/>
</g>
<!-- phdiff_wffmap_postproc_wf&#45;&gt;phdiff_wfcompfmap -->
<g id="edge3" class="edge">
<title>phdiff_wffmap_postproc_wf:e&#45;&gt;phdiff_wfcompfmap:w</title>
<path fill="none" stroke="#000000" d="M796.5,-255C832.2135,-255 771.7833,-184.0784 784.9631,-167.4562"/>
<polygon fill="#000000" stroke="#000000" points="786.2909,-170.6978 794.5,-164 783.9058,-164.1167 786.2909,-170.6978"/>
</g>
<!-- phdiff_wfcompfmap&#45;&gt;phdiff_wfoutputnode -->
<g id="edge1" class="edge">
<title>phdiff_wfcompfmap:e&#45;&gt;phdiff_wfoutputnode:w</title>
<path fill="none" stroke="#000000" d="M1040.5,-147C1057.7433,-147 1051.3098,-85.157 1060.7841,-64.8647"/>
<polygon fill="#000000" stroke="#000000" points="1063.013,-67.5633 1068.5,-58.5 1058.5586,-62.1634 1063.013,-67.5633"/>
</g>
</g>
</svg>
