<?xml version="1.0" encoding="UTF-8" standalone="no"?>
<!DOCTYPE svg PUBLIC "-//W3C//DTD SVG 1.1//EN"
 "http://www.w3.org/Graphics/SVG/1.1/DTD/svg11.dtd">
<!-- Generated by graphviz version 2.40.1 (20161225.0304)
 -->
<!-- Title: structs Pages: 1 -->
<svg width="1655pt" height="912pt"
 viewBox="0.00 0.00 1654.50 912.00" xmlns="http://www.w3.org/2000/svg" xmlns:xlink="http://www.w3.org/1999/xlink">
<g id="graph0" class="graph" transform="scale(1 1) rotate(0) translate(4 908)">
<title>structs</title>
<polygon fill="#ffffff" stroke="transparent" points="-4,4 -4,-908 1650.5,-908 1650.5,4 -4,4"/>
<!-- phdiff_wfinputnode -->
<g id="node1" class="node">
<title>phdiff_wfinputnode</title>
<polygon fill="none" stroke="#000000" points="0,-834.5 0,-903.5 217,-903.5 217,-834.5 0,-834.5"/>
<text text-anchor="middle" x="17.5" y="-865.3" font-family="Times,serif" font-size="14.00" fill="#000000">IN</text>
<polyline fill="none" stroke="#000000" points="35,-834.5 35,-903.5 "/>
<text text-anchor="middle" x="79.5" y="-888.3" font-family="Times,serif" font-size="14.00" fill="#000000">inputnode</text>
<polyline fill="none" stroke="#000000" points="35,-880.5 124,-880.5 "/>
<text text-anchor="middle" x="79.5" y="-865.3" font-family="Times,serif" font-size="14.00" fill="#000000">utility</text>
<polyline fill="none" stroke="#000000" points="35,-857.5 124,-857.5 "/>
<text text-anchor="middle" x="79.5" y="-842.3" font-family="Times,serif" font-size="14.00" fill="#000000"> </text>
<polyline fill="none" stroke="#000000" points="124,-834.5 124,-903.5 "/>
<text text-anchor="middle" x="170.5" y="-888.3" font-family="Times,serif" font-size="14.00" fill="#000000">OUT</text>
<polyline fill="none" stroke="#000000" points="124,-880.5 217,-880.5 "/>
<text text-anchor="middle" x="170.5" y="-865.3" font-family="Times,serif" font-size="14.00" fill="#000000">magnitude</text>
<polyline fill="none" stroke="#000000" points="124,-857.5 217,-857.5 "/>
<text text-anchor="middle" x="170.5" y="-842.3" font-family="Times,serif" font-size="14.00" fill="#000000">phasediff</text>
</g>
<!-- phdiff_wfmagnitude_wf -->
<g id="node2" class="node">
<title>phdiff_wfmagnitude_wf</title>
<polygon fill="none" stroke="#000000" points="568,-622.5 568,-691.5 1041,-691.5 1041,-622.5 568,-622.5"/>
<text text-anchor="middle" x="653" y="-670.8" font-family="Times,serif" font-size="14.00" fill="#000000">IN</text>
<polyline fill="none" stroke="#000000" points="568,-657.5 738,-657.5 "/>
<text text-anchor="middle" x="653" y="-636.3" font-family="Times,serif" font-size="14.00" fill="#000000">inputnode.magnitude</text>
<polyline fill="none" stroke="#000000" points="738,-622.5 738,-691.5 "/>
<text text-anchor="middle" x="797" y="-676.3" font-family="Times,serif" font-size="14.00" fill="#000000">magnitude_wf</text>
<polyline fill="none" stroke="#000000" points="738,-668.5 856,-668.5 "/>
<text text-anchor="middle" x="797" y="-653.3" font-family="Times,serif" font-size="14.00" fill="#000000"> </text>
<polyline fill="none" stroke="#000000" points="738,-645.5 856,-645.5 "/>
<text text-anchor="middle" x="797" y="-630.3" font-family="Times,serif" font-size="14.00" fill="#000000"> </text>
<polyline fill="none" stroke="#000000" points="856,-622.5 856,-691.5 "/>
<text text-anchor="middle" x="948.5" y="-676.3" font-family="Times,serif" font-size="14.00" fill="#000000">OUT</text>
<polyline fill="none" stroke="#000000" points="856,-668.5 1041,-668.5 "/>
<text text-anchor="middle" x="948.5" y="-653.3" font-family="Times,serif" font-size="14.00" fill="#000000">outputnode.fmap_mask</text>
<polyline fill="none" stroke="#000000" points="856,-645.5 1041,-645.5 "/>
<text text-anchor="middle" x="948.5" y="-630.3" font-family="Times,serif" font-size="14.00" fill="#000000">outputnode.fmap_ref</text>
</g>
<!-- phdiff_wfinputnode&#45;&gt;phdiff_wfmagnitude_wf -->
<g id="edge6" class="edge">
<title>phdiff_wfinputnode:e&#45;&gt;phdiff_wfmagnitude_wf:w</title>
<path fill="none" stroke="#000000" d="M217.5,-869C388.2558,-869 457.6661,-829.8044 558.5,-692 563.4775,-685.1975 559.8909,-661.3103 561.8341,-648.4119"/>
<polygon fill="#000000" stroke="#000000" points="564.8164,-650.2493 567.5,-640 559.0105,-646.3388 564.8164,-650.2493"/>
</g>
<!-- phdiff_wfsplit -->
<g id="node3" class="node">
<title>phdiff_wfsplit</title>
<polygon fill="none" stroke="#000000" points="94,-728.5 94,-797.5 313,-797.5 313,-728.5 94,-728.5"/>
<text text-anchor="middle" x="135.5" y="-776.8" font-family="Times,serif" font-size="14.00" fill="#000000">IN</text>
<polyline fill="none" stroke="#000000" points="94,-763.5 177,-763.5 "/>
<text text-anchor="middle" x="135.5" y="-742.3" font-family="Times,serif" font-size="14.00" fill="#000000">phasediff</text>
<polyline fill="none" stroke="#000000" points="177,-728.5 177,-797.5 "/>
<text text-anchor="middle" x="206.5" y="-782.3" font-family="Times,serif" font-size="14.00" fill="#000000">split</text>
<polyline fill="none" stroke="#000000" points="177,-774.5 236,-774.5 "/>
<text text-anchor="middle" x="206.5" y="-759.3" font-family="Times,serif" font-size="14.00" fill="#000000">utility</text>
<polyline fill="none" stroke="#000000" points="177,-751.5 236,-751.5 "/>
<text text-anchor="middle" x="206.5" y="-736.3" font-family="Times,serif" font-size="14.00" fill="#000000"> </text>
<polyline fill="none" stroke="#000000" points="236,-728.5 236,-797.5 "/>
<text text-anchor="middle" x="274.5" y="-782.3" font-family="Times,serif" font-size="14.00" fill="#000000">OUT</text>
<polyline fill="none" stroke="#000000" points="236,-774.5 313,-774.5 "/>
<text text-anchor="middle" x="274.5" y="-759.3" font-family="Times,serif" font-size="14.00" fill="#000000">map_file</text>
<polyline fill="none" stroke="#000000" points="236,-751.5 313,-751.5 "/>
<text text-anchor="middle" x="274.5" y="-736.3" font-family="Times,serif" font-size="14.00" fill="#000000">meta</text>
</g>
<!-- phdiff_wfinputnode&#45;&gt;phdiff_wfsplit -->
<g id="edge7" class="edge">
<title>phdiff_wfinputnode:e&#45;&gt;phdiff_wfsplit:w</title>
<path fill="none" stroke="#000000" d="M217.5,-846C222.8333,-846 220.7026,-838.2647 217.5,-834 183.0395,-788.112 127.9605,-843.888 93.5,-798 82.224,-782.9848 74.0146,-758.0412 83.7287,-749.2152"/>
<polygon fill="#000000" stroke="#000000" points="85.095,-752.4503 93.5,-746 82.907,-745.801 85.095,-752.4503"/>
</g>
<!-- phdiff_wfprelude -->
<g id="node5" class="node">
<title>phdiff_wfprelude</title>
<polygon fill="none" stroke="#000000" points="556.5,-493.5 556.5,-585.5 926.5,-585.5 926.5,-493.5 556.5,-493.5"/>
<text text-anchor="middle" x="618" y="-570.3" font-family="Times,serif" font-size="14.00" fill="#000000">IN</text>
<polyline fill="none" stroke="#000000" points="556.5,-562.5 679.5,-562.5 "/>
<text text-anchor="middle" x="618" y="-547.3" font-family="Times,serif" font-size="14.00" fill="#000000">magnitude_file</text>
<polyline fill="none" stroke="#000000" points="556.5,-539.5 679.5,-539.5 "/>
<text text-anchor="middle" x="618" y="-524.3" font-family="Times,serif" font-size="14.00" fill="#000000">mask_file</text>
<polyline fill="none" stroke="#000000" points="556.5,-516.5 679.5,-516.5 "/>
<text text-anchor="middle" x="618" y="-501.3" font-family="Times,serif" font-size="14.00" fill="#000000">phase_file</text>
<polyline fill="none" stroke="#000000" points="679.5,-493.5 679.5,-585.5 "/>
<text text-anchor="middle" x="715" y="-566.8" font-family="Times,serif" font-size="14.00" fill="#000000">prelude</text>
<polyline fill="none" stroke="#000000" points="679.5,-555.5 750.5,-555.5 "/>
<text text-anchor="middle" x="715" y="-536.3" font-family="Times,serif" font-size="14.00" fill="#000000">fsl</text>
<polyline fill="none" stroke="#000000" points="679.5,-524.5 750.5,-524.5 "/>
<text text-anchor="middle" x="715" y="-505.3" font-family="Times,serif" font-size="14.00" fill="#000000"> </text>
<polyline fill="none" stroke="#000000" points="750.5,-493.5 750.5,-585.5 "/>
<text text-anchor="middle" x="838.5" y="-558.8" font-family="Times,serif" font-size="14.00" fill="#000000">OUT</text>
<polyline fill="none" stroke="#000000" points="750.5,-539.5 926.5,-539.5 "/>
<text text-anchor="middle" x="838.5" y="-512.8" font-family="Times,serif" font-size="14.00" fill="#000000">unwrapped_phase_file</text>
</g>
<!-- phdiff_wfmagnitude_wf&#45;&gt;phdiff_wfprelude -->
<g id="edge10" class="edge">
<title>phdiff_wfmagnitude_wf:e&#45;&gt;phdiff_wfprelude:w</title>
<path fill="none" stroke="#000000" d="M1041.5,-657C1057.0556,-657 1052.0845,-633.3993 1041.5,-622 967.9627,-542.802 630.0373,-665.198 556.5,-586 541.573,-569.924 533.3256,-539.3293 546.7303,-530.1609"/>
<polygon fill="#000000" stroke="#000000" points="547.7713,-533.505 556.5,-527.5 545.9317,-526.751 547.7713,-533.505"/>
</g>
<!-- phdiff_wfmagnitude_wf&#45;&gt;phdiff_wfprelude -->
<g id="edge13" class="edge">
<title>phdiff_wfmagnitude_wf:e&#45;&gt;phdiff_wfprelude:w</title>
<path fill="none" stroke="#000000" d="M1041.5,-634C1046.8333,-634 1045.129,-625.9083 1041.5,-622 967.9627,-542.802 630.0373,-665.198 556.5,-586 549.1641,-578.0994 544.5637,-564.2527 547.8089,-556.7276"/>
<polygon fill="#000000" stroke="#000000" points="549.7347,-559.6536 556.5,-551.5 546.1267,-553.6551 549.7347,-559.6536"/>
</g>
<!-- phdiff_wffmap_postproc_wf -->
<g id="node7" class="node">
<title>phdiff_wffmap_postproc_wf</title>
<polygon fill="none" stroke="#000000" points="756,-235.5 756,-350.5 1249,-350.5 1249,-235.5 756,-235.5"/>
<text text-anchor="middle" x="843.5" y="-335.3" font-family="Times,serif" font-size="14.00" fill="#000000">IN</text>
<polyline fill="none" stroke="#000000" points="756,-327.5 931,-327.5 "/>
<text text-anchor="middle" x="843.5" y="-312.3" font-family="Times,serif" font-size="14.00" fill="#000000">inputnode.fmap</text>
<polyline fill="none" stroke="#000000" points="756,-304.5 931,-304.5 "/>
<text text-anchor="middle" x="843.5" y="-289.3" font-family="Times,serif" font-size="14.00" fill="#000000">inputnode.fmap_mask</text>
<polyline fill="none" stroke="#000000" points="756,-281.5 931,-281.5 "/>
<text text-anchor="middle" x="843.5" y="-266.3" font-family="Times,serif" font-size="14.00" fill="#000000">inputnode.fmap_ref</text>
<polyline fill="none" stroke="#000000" points="756,-258.5 931,-258.5 "/>
<text text-anchor="middle" x="843.5" y="-243.3" font-family="Times,serif" font-size="14.00" fill="#000000">inputnode.metadata</text>
<polyline fill="none" stroke="#000000" points="931,-235.5 931,-350.5 "/>
<text text-anchor="middle" x="1005" y="-327.8" font-family="Times,serif" font-size="14.00" fill="#000000">fmap_postproc_wf</text>
<polyline fill="none" stroke="#000000" points="931,-312.5 1079,-312.5 "/>
<text text-anchor="middle" x="1005" y="-289.8" font-family="Times,serif" font-size="14.00" fill="#000000"> </text>
<polyline fill="none" stroke="#000000" points="931,-274.5 1079,-274.5 "/>
<text text-anchor="middle" x="1005" y="-251.3" font-family="Times,serif" font-size="14.00" fill="#000000"> </text>
<polyline fill="none" stroke="#000000" points="1079,-235.5 1079,-350.5 "/>
<text text-anchor="middle" x="1164" y="-327.8" font-family="Times,serif" font-size="14.00" fill="#000000">OUT</text>
<polyline fill="none" stroke="#000000" points="1079,-312.5 1249,-312.5 "/>
<text text-anchor="middle" x="1164" y="-289.8" font-family="Times,serif" font-size="14.00" fill="#000000">outputnode.metadata</text>
<polyline fill="none" stroke="#000000" points="1079,-274.5 1249,-274.5 "/>
<text text-anchor="middle" x="1164" y="-251.3" font-family="Times,serif" font-size="14.00" fill="#000000">outputnode.out_fmap</text>
</g>
<!-- phdiff_wfmagnitude_wf&#45;&gt;phdiff_wffmap_postproc_wf -->
<g id="edge8" class="edge">
<title>phdiff_wfmagnitude_wf:e&#45;&gt;phdiff_wffmap_postproc_wf:w</title>
<path fill="none" stroke="#000000" d="M1041.5,-657C1070.4125,-657 1035.6221,-591.1485 935.5,-493 862.7343,-421.6686 799.9532,-442.6893 755.5,-351 746.1871,-331.7913 734.6205,-304.6211 745.5594,-295.8488"/>
<polygon fill="#000000" stroke="#000000" points="746.8512,-299.1196 755.5,-293 744.9227,-292.3904 746.8512,-299.1196"/>
</g>
<!-- phdiff_wfmagnitude_wf&#45;&gt;phdiff_wffmap_postproc_wf -->
<g id="edge11" class="edge">
<title>phdiff_wfmagnitude_wf:e&#45;&gt;phdiff_wffmap_postproc_wf:w</title>
<path fill="none" stroke="#000000" d="M1041.5,-634C1048.2387,-634 1059.6519,-583.0826 990.5,-493 942.3267,-430.2457 916.7204,-425.3053 847.5,-387 809.0822,-365.7403 780.2525,-387.2659 755.5,-351 737.4252,-324.5179 722.9905,-280.9568 745.4815,-271.7446"/>
<polygon fill="#000000" stroke="#000000" points="746.2487,-275.1638 755.5,-270 745.0478,-268.2675 746.2487,-275.1638"/>
</g>
<!-- phdiff_wfoutputnode -->
<g id="node9" class="node">
<title>phdiff_wfoutputnode</title>
<polygon fill="none" stroke="#000000" points="1400.5,-.5 1400.5,-92.5 1646.5,-92.5 1646.5,-.5 1400.5,-.5"/>
<text text-anchor="middle" x="1449.5" y="-77.3" font-family="Times,serif" font-size="14.00" fill="#000000">IN</text>
<polyline fill="none" stroke="#000000" points="1400.5,-69.5 1498.5,-69.5 "/>
<text text-anchor="middle" x="1449.5" y="-54.3" font-family="Times,serif" font-size="14.00" fill="#000000">fmap</text>
<polyline fill="none" stroke="#000000" points="1400.5,-46.5 1498.5,-46.5 "/>
<text text-anchor="middle" x="1449.5" y="-31.3" font-family="Times,serif" font-size="14.00" fill="#000000">fmap_mask</text>
<polyline fill="none" stroke="#000000" points="1400.5,-23.5 1498.5,-23.5 "/>
<text text-anchor="middle" x="1449.5" y="-8.3" font-family="Times,serif" font-size="14.00" fill="#000000">fmap_ref</text>
<polyline fill="none" stroke="#000000" points="1498.5,-.5 1498.5,-92.5 "/>
<text text-anchor="middle" x="1547.5" y="-73.8" font-family="Times,serif" font-size="14.00" fill="#000000">outputnode</text>
<polyline fill="none" stroke="#000000" points="1498.5,-62.5 1596.5,-62.5 "/>
<text text-anchor="middle" x="1547.5" y="-43.3" font-family="Times,serif" font-size="14.00" fill="#000000">utility</text>
<polyline fill="none" stroke="#000000" points="1498.5,-31.5 1596.5,-31.5 "/>
<text text-anchor="middle" x="1547.5" y="-12.3" font-family="Times,serif" font-size="14.00" fill="#000000"> </text>
<polyline fill="none" stroke="#000000" points="1596.5,-.5 1596.5,-92.5 "/>
<text text-anchor="middle" x="1621.5" y="-42.8" font-family="Times,serif" font-size="14.00" fill="#000000">OUT</text>
</g>
<!-- phdiff_wfmagnitude_wf&#45;&gt;phdiff_wfoutputnode -->
<g id="edge9" class="edge">
<title>phdiff_wfmagnitude_wf:e&#45;&gt;phdiff_wfoutputnode:w</title>
<path fill="none" stroke="#000000" d="M1041.5,-657C1232.2003,-657 1400.5,-612.7003 1400.5,-422 1400.5,-422 1400.5,-422 1400.5,-293 1400.5,-267.3071 1377.5169,-80.7323 1393.228,-41.6625"/>
<polygon fill="#000000" stroke="#000000" points="1395.8315,-44.0108 1400.5,-34.5 1390.9194,-39.0236 1395.8315,-44.0108"/>
</g>
<!-- phdiff_wfmagnitude_wf&#45;&gt;phdiff_wfoutputnode -->
<g id="edge12" class="edge">
<title>phdiff_wfmagnitude_wf:e&#45;&gt;phdiff_wfoutputnode:w</title>
<path fill="none" stroke="#000000" d="M1041.5,-634C1116.7047,-634 1317.8264,-633.0443 1376.5,-586 1437.2949,-537.2549 1438.5,-499.9237 1438.5,-422 1438.5,-422 1438.5,-422 1438.5,-293 1438.5,-264.7056 1382.5945,-60.9051 1393.7601,-19.0152"/>
<polygon fill="#000000" stroke="#000000" points="1396.429,-21.2815 1400.5,-11.5 1391.2177,-16.6078 1396.429,-21.2815"/>
</g>
<!-- phdiff_wfphmap2rads -->
<g id="node4" class="node">
<title>phdiff_wfphmap2rads</title>
<polygon fill="none" stroke="#000000" points="313.5,-622.5 313.5,-691.5 549.5,-691.5 549.5,-622.5 313.5,-622.5"/>
<text text-anchor="middle" x="343.5" y="-670.8" font-family="Times,serif" font-size="14.00" fill="#000000">IN</text>
<polyline fill="none" stroke="#000000" points="313.5,-657.5 373.5,-657.5 "/>
<text text-anchor="middle" x="343.5" y="-636.3" font-family="Times,serif" font-size="14.00" fill="#000000">in_file</text>
<polyline fill="none" stroke="#000000" points="373.5,-622.5 373.5,-691.5 "/>
<text text-anchor="middle" x="426.5" y="-676.3" font-family="Times,serif" font-size="14.00" fill="#000000">phmap2rads</text>
<polyline fill="none" stroke="#000000" points="373.5,-668.5 479.5,-668.5 "/>
<text text-anchor="middle" x="426.5" y="-653.3" font-family="Times,serif" font-size="14.00" fill="#000000">fmap</text>
<polyline fill="none" stroke="#000000" points="373.5,-645.5 479.5,-645.5 "/>
<text text-anchor="middle" x="426.5" y="-630.3" font-family="Times,serif" font-size="14.00" fill="#000000"> </text>
<polyline fill="none" stroke="#000000" points="479.5,-622.5 479.5,-691.5 "/>
<text text-anchor="middle" x="514.5" y="-670.8" font-family="Times,serif" font-size="14.00" fill="#000000">OUT</text>
<polyline fill="none" stroke="#000000" points="479.5,-657.5 549.5,-657.5 "/>
<text text-anchor="middle" x="514.5" y="-636.3" font-family="Times,serif" font-size="14.00" fill="#000000">out_file</text>
</g>
<!-- phdiff_wfsplit&#45;&gt;phdiff_wfphmap2rads -->
<g id="edge16" class="edge">
<title>phdiff_wfsplit:e&#45;&gt;phdiff_wfphmap2rads:w</title>
<path fill="none" stroke="#000000" d="M313.5,-763C336.8828,-763 300.2558,-672.9853 306.2921,-646.9654"/>
<polygon fill="#000000" stroke="#000000" points="308.7412,-649.466 313.5,-640 303.8768,-644.4322 308.7412,-649.466"/>
</g>
<!-- phdiff_wfcalc_phdiff -->
<g id="node6" class="node">
<title>phdiff_wfcalc_phdiff</title>
<polygon fill="none" stroke="#000000" points="483.5,-387.5 483.5,-456.5 755.5,-456.5 755.5,-387.5 483.5,-387.5"/>
<text text-anchor="middle" x="527" y="-441.3" font-family="Times,serif" font-size="14.00" fill="#000000">IN</text>
<polyline fill="none" stroke="#000000" points="483.5,-433.5 570.5,-433.5 "/>
<text text-anchor="middle" x="527" y="-418.3" font-family="Times,serif" font-size="14.00" fill="#000000">in_meta</text>
<polyline fill="none" stroke="#000000" points="483.5,-410.5 570.5,-410.5 "/>
<text text-anchor="middle" x="527" y="-395.3" font-family="Times,serif" font-size="14.00" fill="#000000">in_phases</text>
<polyline fill="none" stroke="#000000" points="570.5,-387.5 570.5,-456.5 "/>
<text text-anchor="middle" x="618" y="-441.3" font-family="Times,serif" font-size="14.00" fill="#000000">calc_phdiff</text>
<polyline fill="none" stroke="#000000" points="570.5,-433.5 665.5,-433.5 "/>
<text text-anchor="middle" x="618" y="-418.3" font-family="Times,serif" font-size="14.00" fill="#000000">fmap</text>
<polyline fill="none" stroke="#000000" points="570.5,-410.5 665.5,-410.5 "/>
<text text-anchor="middle" x="618" y="-395.3" font-family="Times,serif" font-size="14.00" fill="#000000"> </text>
<polyline fill="none" stroke="#000000" points="665.5,-387.5 665.5,-456.5 "/>
<text text-anchor="middle" x="710.5" y="-441.3" font-family="Times,serif" font-size="14.00" fill="#000000">OUT</text>
<polyline fill="none" stroke="#000000" points="665.5,-433.5 755.5,-433.5 "/>
<text text-anchor="middle" x="710.5" y="-418.3" font-family="Times,serif" font-size="14.00" fill="#000000">metadata</text>
<polyline fill="none" stroke="#000000" points="665.5,-410.5 755.5,-410.5 "/>
<text text-anchor="middle" x="710.5" y="-395.3" font-family="Times,serif" font-size="14.00" fill="#000000">phase_diff</text>
</g>
<!-- phdiff_wfsplit&#45;&gt;phdiff_wfcalc_phdiff -->
<g id="edge17" class="edge">
<title>phdiff_wfsplit:e&#45;&gt;phdiff_wfcalc_phdiff:w</title>
<path fill="none" stroke="#000000" d="M313.5,-740C318.8333,-740 314.1516,-733.2934 313.5,-728 311.4849,-711.6311 306.5151,-708.3689 304.5,-692 300.6987,-661.122 293.3942,-651.0614 304.5,-622 345.8358,-513.8331 363.1838,-427.2092 473.2753,-422.2264"/>
<polygon fill="#000000" stroke="#000000" points="473.58,-425.7206 483.5,-422 473.4249,-418.7223 473.58,-425.7206"/>
</g>
<!-- phdiff_wfphmap2rads&#45;&gt;phdiff_wfprelude -->
<g id="edge14" class="edge">
<title>phdiff_wfphmap2rads:e&#45;&gt;phdiff_wfprelude:w</title>
<path fill="none" stroke="#000000" d="M549.5,-640C575.6468,-640 539.0352,-538.1021 548.5118,-511.0354"/>
<polygon fill="#000000" stroke="#000000" points="550.9765,-513.5411 556.5,-504.5 546.544,-508.1233 550.9765,-513.5411"/>
</g>
<!-- phdiff_wfprelude&#45;&gt;phdiff_wfcalc_phdiff -->
<g id="edge15" class="edge">
<title>phdiff_wfprelude:e&#45;&gt;phdiff_wfcalc_phdiff:w</title>
<path fill="none" stroke="#000000" d="M926.5,-516.5C936.9444,-516.5 933.5799,-500.6786 926.5,-493 859.5479,-420.3864 550.4521,-529.6136 483.5,-457 468.7564,-441.0097 460.5411,-410.712 473.8179,-401.6344"/>
<polygon fill="#000000" stroke="#000000" points="474.7697,-405.0027 483.5,-399 472.9319,-398.2483 474.7697,-405.0027"/>
</g>
<!-- phdiff_wfcalc_phdiff&#45;&gt;phdiff_wffmap_postproc_wf -->
<g id="edge1" class="edge">
<title>phdiff_wfcalc_phdiff:e&#45;&gt;phdiff_wffmap_postproc_wf:w</title>
<path fill="none" stroke="#000000" d="M755.5,-422C755.5,-422 755.5,-294.5144 755.5,-257.1652"/>
<polygon fill="#000000" stroke="#000000" points="759.0001,-257 755.5,-247 752.0001,-257 759.0001,-257"/>
</g>
<!-- phdiff_wfcalc_phdiff&#45;&gt;phdiff_wffmap_postproc_wf -->
<g id="edge2" class="edge">
<title>phdiff_wfcalc_phdiff:e&#45;&gt;phdiff_wffmap_postproc_wf:w</title>
<path fill="none" stroke="#000000" d="M755.5,-399C787.4896,-399 736.2563,-336.5828 746.1398,-320.0033"/>
<polygon fill="#000000" stroke="#000000" points="747.6819,-323.1504 755.5,-316 744.9293,-316.7144 747.6819,-323.1504"/>
</g>
<!-- phdiff_wfcompfmap -->
<g id="node8" class="node">
<title>phdiff_wfcompfmap</title>
<polygon fill="none" stroke="#000000" points="1126.5,-129.5 1126.5,-198.5 1372.5,-198.5 1372.5,-129.5 1126.5,-129.5"/>
<text text-anchor="middle" x="1168.5" y="-183.3" font-family="Times,serif" font-size="14.00" fill="#000000">IN</text>
<polyline fill="none" stroke="#000000" points="1126.5,-175.5 1210.5,-175.5 "/>
<text text-anchor="middle" x="1168.5" y="-160.3" font-family="Times,serif" font-size="14.00" fill="#000000">in_file</text>
<polyline fill="none" stroke="#000000" points="1126.5,-152.5 1210.5,-152.5 "/>
<text text-anchor="middle" x="1168.5" y="-137.3" font-family="Times,serif" font-size="14.00" fill="#000000">metadata</text>
<polyline fill="none" stroke="#000000" points="1210.5,-129.5 1210.5,-198.5 "/>
<text text-anchor="middle" x="1256.5" y="-183.3" font-family="Times,serif" font-size="14.00" fill="#000000">compfmap</text>
<polyline fill="none" stroke="#000000" points="1210.5,-175.5 1302.5,-175.5 "/>
<text text-anchor="middle" x="1256.5" y="-160.3" font-family="Times,serif" font-size="14.00" fill="#000000">fmap</text>
<polyline fill="none" stroke="#000000" points="1210.5,-152.5 1302.5,-152.5 "/>
<text text-anchor="middle" x="1256.5" y="-137.3" font-family="Times,serif" font-size="14.00" fill="#000000"> </text>
<polyline fill="none" stroke="#000000" points="1302.5,-129.5 1302.5,-198.5 "/>
<text text-anchor="middle" x="1337.5" y="-177.8" font-family="Times,serif" font-size="14.00" fill="#000000">OUT</text>
<polyline fill="none" stroke="#000000" points="1302.5,-164.5 1372.5,-164.5 "/>
<text text-anchor="middle" x="1337.5" y="-143.3" font-family="Times,serif" font-size="14.00" fill="#000000">out_file</text>
</g>
<!-- phdiff_wffmap_postproc_wf&#45;&gt;phdiff_wfcompfmap -->
<g id="edge4" class="edge">
<title>phdiff_wffmap_postproc_wf:e&#45;&gt;phdiff_wfcompfmap:w</title>
<path fill="none" stroke="#000000" d="M1249.5,-294C1275.7222,-294 1265.2235,-255.9851 1249.5,-235 1215.3453,-189.416 1160.6547,-244.584 1126.5,-199 1113.5789,-181.7551 1104.247,-152.8116 1116.5907,-143.7787"/>
<polygon fill="#000000" stroke="#000000" points="1117.8164,-147.0701 1126.5,-141 1115.9264,-140.33 1117.8164,-147.0701"/>
</g>
<!-- phdiff_wffmap_postproc_wf&#45;&gt;phdiff_wfcompfmap -->
<g id="edge5" class="edge">
<title>phdiff_wffmap_postproc_wf:e&#45;&gt;phdiff_wfcompfmap:w</title>
<path fill="none" stroke="#000000" d="M1249.5,-255C1258.3889,-255 1254.83,-242.1136 1249.5,-235 1215.3453,-189.416 1160.6547,-244.584 1126.5,-199 1120.0873,-190.4414 1115.1397,-177.1079 1117.7284,-169.6103"/>
<polygon fill="#000000" stroke="#000000" points="1119.9616,-172.3367 1126.5,-164 1116.1899,-166.4397 1119.9616,-172.3367"/>
</g>
<!-- phdiff_wfcompfmap&#45;&gt;phdiff_wfoutputnode -->
<g id="edge3" class="edge">
<title>phdiff_wfcompfmap:e&#45;&gt;phdiff_wfoutputnode:w</title>
<path fill="none" stroke="#000000" d="M1372.5,-147C1389.7433,-147 1383.3098,-85.157 1392.7841,-64.8647"/>
<polygon fill="#000000" stroke="#000000" points="1395.013,-67.5633 1400.5,-58.5 1390.5586,-62.1634 1395.013,-67.5633"/>
</g>
</g>
</svg>
