<?xml version="1.0" encoding="UTF-8" standalone="no"?>
<!DOCTYPE svg PUBLIC "-//W3C//DTD SVG 1.1//EN"
 "http://www.w3.org/Graphics/SVG/1.1/DTD/svg11.dtd">
<!-- Generated by graphviz version 2.40.1 (20161225.0304)
 -->
<!-- Title: structs Pages: 1 -->
<svg width="1155pt" height="608pt"
 viewBox="0.00 0.00 1154.50 608.00" xmlns="http://www.w3.org/2000/svg" xmlns:xlink="http://www.w3.org/1999/xlink">
<g id="graph0" class="graph" transform="scale(1 1) rotate(0) translate(4 604)">
<title>structs</title>
<polygon fill="#ffffff" stroke="transparent" points="-4,4 -4,-604 1150.5,-604 1150.5,4 -4,4"/>
<!-- fmap_postproc_wfinputnode -->
<g id="node1" class="node">
<title>fmap_postproc_wfinputnode</title>
<polygon fill="none" stroke="#000000" points="0,-530.5 0,-599.5 222,-599.5 222,-530.5 0,-530.5"/>
<text text-anchor="middle" x="17.5" y="-561.3" font-family="Times,serif" font-size="14.00" fill="#000000">IN</text>
<polyline fill="none" stroke="#000000" points="35,-530.5 35,-599.5 "/>
<text text-anchor="middle" x="79.5" y="-584.3" font-family="Times,serif" font-size="14.00" fill="#000000">inputnode</text>
<polyline fill="none" stroke="#000000" points="35,-576.5 124,-576.5 "/>
<text text-anchor="middle" x="79.5" y="-561.3" font-family="Times,serif" font-size="14.00" fill="#000000">utility</text>
<polyline fill="none" stroke="#000000" points="35,-553.5 124,-553.5 "/>
<text text-anchor="middle" x="79.5" y="-538.3" font-family="Times,serif" font-size="14.00" fill="#000000"> </text>
<polyline fill="none" stroke="#000000" points="124,-530.5 124,-599.5 "/>
<text text-anchor="middle" x="173" y="-584.3" font-family="Times,serif" font-size="14.00" fill="#000000">OUT</text>
<polyline fill="none" stroke="#000000" points="124,-576.5 222,-576.5 "/>
<text text-anchor="middle" x="173" y="-561.3" font-family="Times,serif" font-size="14.00" fill="#000000">fmap</text>
<polyline fill="none" stroke="#000000" points="124,-553.5 222,-553.5 "/>
<text text-anchor="middle" x="173" y="-538.3" font-family="Times,serif" font-size="14.00" fill="#000000">fmap_mask</text>
</g>
<!-- fmap_postproc_wfrecenter -->
<g id="node2" class="node">
<title>fmap_postproc_wfrecenter</title>
<polygon fill="none" stroke="#000000" points="114,-424.5 114,-493.5 302,-493.5 302,-424.5 114,-424.5"/>
<text text-anchor="middle" x="144" y="-472.8" font-family="Times,serif" font-size="14.00" fill="#000000">IN</text>
<polyline fill="none" stroke="#000000" points="114,-459.5 174,-459.5 "/>
<text text-anchor="middle" x="144" y="-438.3" font-family="Times,serif" font-size="14.00" fill="#000000">in_file</text>
<polyline fill="none" stroke="#000000" points="174,-424.5 174,-493.5 "/>
<text text-anchor="middle" x="213" y="-478.3" font-family="Times,serif" font-size="14.00" fill="#000000">recenter</text>
<polyline fill="none" stroke="#000000" points="174,-470.5 252,-470.5 "/>
<text text-anchor="middle" x="213" y="-455.3" font-family="Times,serif" font-size="14.00" fill="#000000">utility</text>
<polyline fill="none" stroke="#000000" points="174,-447.5 252,-447.5 "/>
<text text-anchor="middle" x="213" y="-432.3" font-family="Times,serif" font-size="14.00" fill="#000000"> </text>
<polyline fill="none" stroke="#000000" points="252,-424.5 252,-493.5 "/>
<text text-anchor="middle" x="277" y="-472.8" font-family="Times,serif" font-size="14.00" fill="#000000">OUT</text>
<polyline fill="none" stroke="#000000" points="252,-459.5 302,-459.5 "/>
<text text-anchor="middle" x="277" y="-438.3" font-family="Times,serif" font-size="14.00" fill="#000000">out</text>
</g>
<!-- fmap_postproc_wfinputnode&#45;&gt;fmap_postproc_wfrecenter -->
<g id="edge4" class="edge">
<title>fmap_postproc_wfinputnode:e&#45;&gt;fmap_postproc_wfrecenter:w</title>
<path fill="none" stroke="#000000" d="M222,-565C237.5556,-565 231.0955,-542.6193 222,-530 192.4157,-488.954 143.5843,-535.046 114,-494 103.0204,-478.7667 94.6257,-453.9594 104.26,-445.1922"/>
<polygon fill="#000000" stroke="#000000" points="105.5874,-448.4404 114,-442 103.4073,-441.7885 105.5874,-448.4404"/>
</g>
<!-- fmap_postproc_wfcleanup_wf -->
<g id="node5" class="node">
<title>fmap_postproc_wfcleanup_wf</title>
<polygon fill="none" stroke="#000000" points="509,-106.5 509,-175.5 915,-175.5 915,-106.5 509,-106.5"/>
<text text-anchor="middle" x="585" y="-160.3" font-family="Times,serif" font-size="14.00" fill="#000000">IN</text>
<polyline fill="none" stroke="#000000" points="509,-152.5 661,-152.5 "/>
<text text-anchor="middle" x="585" y="-137.3" font-family="Times,serif" font-size="14.00" fill="#000000">inputnode.in_file</text>
<polyline fill="none" stroke="#000000" points="509,-129.5 661,-129.5 "/>
<text text-anchor="middle" x="585" y="-114.3" font-family="Times,serif" font-size="14.00" fill="#000000">inputnode.in_mask</text>
<polyline fill="none" stroke="#000000" points="661,-106.5 661,-175.5 "/>
<text text-anchor="middle" x="710" y="-160.3" font-family="Times,serif" font-size="14.00" fill="#000000">cleanup_wf</text>
<polyline fill="none" stroke="#000000" points="661,-152.5 759,-152.5 "/>
<text text-anchor="middle" x="710" y="-137.3" font-family="Times,serif" font-size="14.00" fill="#000000"> </text>
<polyline fill="none" stroke="#000000" points="661,-129.5 759,-129.5 "/>
<text text-anchor="middle" x="710" y="-114.3" font-family="Times,serif" font-size="14.00" fill="#000000"> </text>
<polyline fill="none" stroke="#000000" points="759,-106.5 759,-175.5 "/>
<text text-anchor="middle" x="837" y="-154.8" font-family="Times,serif" font-size="14.00" fill="#000000">OUT</text>
<polyline fill="none" stroke="#000000" points="759,-141.5 915,-141.5 "/>
<text text-anchor="middle" x="837" y="-120.3" font-family="Times,serif" font-size="14.00" fill="#000000">outputnode.out_file</text>
</g>
<!-- fmap_postproc_wfinputnode&#45;&gt;fmap_postproc_wfcleanup_wf -->
<g id="edge5" class="edge">
<title>fmap_postproc_wfinputnode:e&#45;&gt;fmap_postproc_wfcleanup_wf:w</title>
<path fill="none" stroke="#000000" d="M222,-542C392.1479,-542 440.5704,-440.281 503,-282 505.8356,-274.8107 501.6242,-161.9721 505.8281,-127.7584"/>
<polygon fill="#000000" stroke="#000000" points="509.2373,-128.5922 509,-118 502.5801,-126.4283 509.2373,-128.5922"/>
</g>
<!-- fmap_postproc_wfdenoise -->
<g id="node3" class="node">
<title>fmap_postproc_wfdenoise</title>
<polygon fill="none" stroke="#000000" points="201.5,-318.5 201.5,-387.5 402.5,-387.5 402.5,-318.5 201.5,-318.5"/>
<text text-anchor="middle" x="231.5" y="-366.8" font-family="Times,serif" font-size="14.00" fill="#000000">IN</text>
<polyline fill="none" stroke="#000000" points="201.5,-353.5 261.5,-353.5 "/>
<text text-anchor="middle" x="231.5" y="-332.3" font-family="Times,serif" font-size="14.00" fill="#000000">in_file</text>
<polyline fill="none" stroke="#000000" points="261.5,-318.5 261.5,-387.5 "/>
<text text-anchor="middle" x="297" y="-372.3" font-family="Times,serif" font-size="14.00" fill="#000000">denoise</text>
<polyline fill="none" stroke="#000000" points="261.5,-364.5 332.5,-364.5 "/>
<text text-anchor="middle" x="297" y="-349.3" font-family="Times,serif" font-size="14.00" fill="#000000">fsl</text>
<polyline fill="none" stroke="#000000" points="261.5,-341.5 332.5,-341.5 "/>
<text text-anchor="middle" x="297" y="-326.3" font-family="Times,serif" font-size="14.00" fill="#000000"> </text>
<polyline fill="none" stroke="#000000" points="332.5,-318.5 332.5,-387.5 "/>
<text text-anchor="middle" x="367.5" y="-366.8" font-family="Times,serif" font-size="14.00" fill="#000000">OUT</text>
<polyline fill="none" stroke="#000000" points="332.5,-353.5 402.5,-353.5 "/>
<text text-anchor="middle" x="367.5" y="-332.3" font-family="Times,serif" font-size="14.00" fill="#000000">out_file</text>
</g>
<!-- fmap_postproc_wfrecenter&#45;&gt;fmap_postproc_wfdenoise -->
<g id="edge6" class="edge">
<title>fmap_postproc_wfrecenter:e&#45;&gt;fmap_postproc_wfdenoise:w</title>
<path fill="none" stroke="#000000" d="M302,-442C310,-442 306.6104,-430.5379 302,-424 274.5361,-385.0546 228.4639,-426.9454 201,-388 190.1783,-372.6541 181.6849,-347.9172 191.2766,-339.1803"/>
<polygon fill="#000000" stroke="#000000" points="192.5836,-342.4354 201,-336 190.4074,-335.7822 192.5836,-342.4354"/>
</g>
<!-- fmap_postproc_wfdemean -->
<g id="node4" class="node">
<title>fmap_postproc_wfdemean</title>
<polygon fill="none" stroke="#000000" points="311.5,-212.5 311.5,-281.5 494.5,-281.5 494.5,-212.5 311.5,-212.5"/>
<text text-anchor="middle" x="341.5" y="-260.8" font-family="Times,serif" font-size="14.00" fill="#000000">IN</text>
<polyline fill="none" stroke="#000000" points="311.5,-247.5 371.5,-247.5 "/>
<text text-anchor="middle" x="341.5" y="-226.3" font-family="Times,serif" font-size="14.00" fill="#000000">in_file</text>
<polyline fill="none" stroke="#000000" points="371.5,-212.5 371.5,-281.5 "/>
<text text-anchor="middle" x="408" y="-266.3" font-family="Times,serif" font-size="14.00" fill="#000000">demean</text>
<polyline fill="none" stroke="#000000" points="371.5,-258.5 444.5,-258.5 "/>
<text text-anchor="middle" x="408" y="-243.3" font-family="Times,serif" font-size="14.00" fill="#000000">utility</text>
<polyline fill="none" stroke="#000000" points="371.5,-235.5 444.5,-235.5 "/>
<text text-anchor="middle" x="408" y="-220.3" font-family="Times,serif" font-size="14.00" fill="#000000"> </text>
<polyline fill="none" stroke="#000000" points="444.5,-212.5 444.5,-281.5 "/>
<text text-anchor="middle" x="469.5" y="-260.8" font-family="Times,serif" font-size="14.00" fill="#000000">OUT</text>
<polyline fill="none" stroke="#000000" points="444.5,-247.5 494.5,-247.5 "/>
<text text-anchor="middle" x="469.5" y="-226.3" font-family="Times,serif" font-size="14.00" fill="#000000">out</text>
</g>
<!-- fmap_postproc_wfdenoise&#45;&gt;fmap_postproc_wfdemean -->
<g id="edge3" class="edge">
<title>fmap_postproc_wfdenoise:e&#45;&gt;fmap_postproc_wfdemean:w</title>
<path fill="none" stroke="#000000" d="M403,-336C411,-336 407.5099,-324.6076 403,-318 378.2475,-281.7341 335.7525,-318.2659 311,-282 300.4143,-266.4904 291.7734,-241.8558 301.3015,-233.1631"/>
<polygon fill="#000000" stroke="#000000" points="302.5781,-236.4282 311,-230 300.4076,-229.7732 302.5781,-236.4282"/>
</g>
<!-- fmap_postproc_wfdemean&#45;&gt;fmap_postproc_wfcleanup_wf -->
<g id="edge2" class="edge">
<title>fmap_postproc_wfdemean:e&#45;&gt;fmap_postproc_wfcleanup_wf:w</title>
<path fill="none" stroke="#000000" d="M495,-230C530.6624,-230 482.1443,-159.4041 499.3922,-143.9612"/>
<polygon fill="#000000" stroke="#000000" points="500.4745,-147.2902 509,-141 498.4127,-140.6007 500.4745,-147.2902"/>
</g>
<!-- fmap_postproc_wfoutputnode -->
<g id="node6" class="node">
<title>fmap_postproc_wfoutputnode</title>
<polygon fill="none" stroke="#000000" points="915.5,-.5 915.5,-69.5 1146.5,-69.5 1146.5,-.5 915.5,-.5"/>
<text text-anchor="middle" x="957" y="-48.8" font-family="Times,serif" font-size="14.00" fill="#000000">IN</text>
<polyline fill="none" stroke="#000000" points="915.5,-35.5 998.5,-35.5 "/>
<text text-anchor="middle" x="957" y="-14.3" font-family="Times,serif" font-size="14.00" fill="#000000">out_fmap</text>
<polyline fill="none" stroke="#000000" points="998.5,-.5 998.5,-69.5 "/>
<text text-anchor="middle" x="1047.5" y="-54.3" font-family="Times,serif" font-size="14.00" fill="#000000">outputnode</text>
<polyline fill="none" stroke="#000000" points="998.5,-46.5 1096.5,-46.5 "/>
<text text-anchor="middle" x="1047.5" y="-31.3" font-family="Times,serif" font-size="14.00" fill="#000000">utility</text>
<polyline fill="none" stroke="#000000" points="998.5,-23.5 1096.5,-23.5 "/>
<text text-anchor="middle" x="1047.5" y="-8.3" font-family="Times,serif" font-size="14.00" fill="#000000"> </text>
<polyline fill="none" stroke="#000000" points="1096.5,-.5 1096.5,-69.5 "/>
<text text-anchor="middle" x="1121.5" y="-31.3" font-family="Times,serif" font-size="14.00" fill="#000000">OUT</text>
</g>
<!-- fmap_postproc_wfcleanup_wf&#45;&gt;fmap_postproc_wfoutputnode -->
<g id="edge1" class="edge">
<title>fmap_postproc_wfcleanup_wf:e&#45;&gt;fmap_postproc_wfoutputnode:w</title>
<path fill="none" stroke="#000000" d="M915,-124C957.6944,-124 884.3134,-36.9434 905.2437,-20.6202"/>
<polygon fill="#000000" stroke="#000000" points="906.2501,-23.9741 915,-18 904.4344,-17.2136 906.2501,-23.9741"/>
</g>
</g>
</svg>
