<?xml version="1.0" encoding="UTF-8" standalone="no"?>
<!DOCTYPE svg PUBLIC "-//W3C//DTD SVG 1.1//EN"
 "http://www.w3.org/Graphics/SVG/1.1/DTD/svg11.dtd">
<!-- Generated by graphviz version 2.40.1 (20161225.0304)
 -->
<!-- Title: structs Pages: 1 -->
<svg width="943pt" height="594pt"
 viewBox="0.00 0.00 942.60 594.00" xmlns="http://www.w3.org/2000/svg" xmlns:xlink="http://www.w3.org/1999/xlink">
<g id="graph0" class="graph" transform="scale(1 1) rotate(0) translate(4 590)">
<title>structs</title>
<polygon fill="#ffffff" stroke="transparent" points="-4,4 -4,-590 938.5994,-590 938.5994,4 -4,4"/>
<!-- unwarp_wfinputnode -->
<g id="node1" class="node">
<title>unwarp_wfinputnode</title>
<polygon fill="none" stroke="#000000" points="104.0994,-493.5 104.0994,-585.5 323.0994,-585.5 323.0994,-493.5 104.0994,-493.5"/>
<text text-anchor="middle" x="121.5994" y="-535.8" font-family="Times,serif" font-size="14.00" fill="#000000">IN</text>
<polyline fill="none" stroke="#000000" points="139.0994,-493.5 139.0994,-585.5 "/>
<text text-anchor="middle" x="183.5994" y="-566.8" font-family="Times,serif" font-size="14.00" fill="#000000">inputnode</text>
<polyline fill="none" stroke="#000000" points="139.0994,-555.5 228.0994,-555.5 "/>
<text text-anchor="middle" x="183.5994" y="-536.3" font-family="Times,serif" font-size="14.00" fill="#000000">utility</text>
<polyline fill="none" stroke="#000000" points="139.0994,-524.5 228.0994,-524.5 "/>
<text text-anchor="middle" x="183.5994" y="-505.3" font-family="Times,serif" font-size="14.00" fill="#000000"> </text>
<polyline fill="none" stroke="#000000" points="228.0994,-493.5 228.0994,-585.5 "/>
<text text-anchor="middle" x="275.5994" y="-570.3" font-family="Times,serif" font-size="14.00" fill="#000000">OUT</text>
<polyline fill="none" stroke="#000000" points="228.0994,-562.5 323.0994,-562.5 "/>
<text text-anchor="middle" x="275.5994" y="-547.3" font-family="Times,serif" font-size="14.00" fill="#000000">distorted</text>
<polyline fill="none" stroke="#000000" points="228.0994,-539.5 323.0994,-539.5 "/>
<text text-anchor="middle" x="275.5994" y="-524.3" font-family="Times,serif" font-size="14.00" fill="#000000">fmap_coeff</text>
<polyline fill="none" stroke="#000000" points="228.0994,-516.5 323.0994,-516.5 "/>
<text text-anchor="middle" x="275.5994" y="-501.3" font-family="Times,serif" font-size="14.00" fill="#000000">metadata</text>
</g>
<!-- unwarp_wfrotime -->
<g id="node2" class="node">
<title>unwarp_wfrotime</title>
<polygon fill="none" stroke="#000000" points="16.5994,-387.5 16.5994,-456.5 276.5994,-456.5 276.5994,-387.5 16.5994,-387.5"/>
<text text-anchor="middle" x="58.5994" y="-441.3" font-family="Times,serif" font-size="14.00" fill="#000000">IN</text>
<polyline fill="none" stroke="#000000" points="16.5994,-433.5 100.5994,-433.5 "/>
<text text-anchor="middle" x="58.5994" y="-418.3" font-family="Times,serif" font-size="14.00" fill="#000000">in_file</text>
<polyline fill="none" stroke="#000000" points="16.5994,-410.5 100.5994,-410.5 "/>
<text text-anchor="middle" x="58.5994" y="-395.3" font-family="Times,serif" font-size="14.00" fill="#000000">metadata</text>
<polyline fill="none" stroke="#000000" points="100.5994,-387.5 100.5994,-456.5 "/>
<text text-anchor="middle" x="132.5994" y="-441.3" font-family="Times,serif" font-size="14.00" fill="#000000">rotime</text>
<polyline fill="none" stroke="#000000" points="100.5994,-433.5 164.5994,-433.5 "/>
<text text-anchor="middle" x="132.5994" y="-418.3" font-family="Times,serif" font-size="14.00" fill="#000000">epi</text>
<polyline fill="none" stroke="#000000" points="100.5994,-410.5 164.5994,-410.5 "/>
<text text-anchor="middle" x="132.5994" y="-395.3" font-family="Times,serif" font-size="14.00" fill="#000000"> </text>
<polyline fill="none" stroke="#000000" points="164.5994,-387.5 164.5994,-456.5 "/>
<text text-anchor="middle" x="220.5994" y="-441.3" font-family="Times,serif" font-size="14.00" fill="#000000">OUT</text>
<polyline fill="none" stroke="#000000" points="164.5994,-433.5 276.5994,-433.5 "/>
<text text-anchor="middle" x="220.5994" y="-418.3" font-family="Times,serif" font-size="14.00" fill="#000000">pe_direction</text>
<polyline fill="none" stroke="#000000" points="164.5994,-410.5 276.5994,-410.5 "/>
<text text-anchor="middle" x="220.5994" y="-395.3" font-family="Times,serif" font-size="14.00" fill="#000000">readout_time</text>
</g>
<!-- unwarp_wfinputnode&#45;&gt;unwarp_wfrotime -->
<g id="edge2" class="edge">
<title>unwarp_wfinputnode:e&#45;&gt;unwarp_wfrotime:w</title>
<path fill="none" stroke="#000000" d="M323.5994,-551.5C349.5994,-551.5 340.8804,-512.4259 323.5994,-493 232.2894,-390.357 107.9094,-559.643 16.5994,-457 9.3297,-448.828 4.5926,-434.8444 7.828,-427.2619"/>
<polygon fill="#000000" stroke="#000000" points="9.8246,-430.1457 16.5994,-422 6.2235,-424.1429 9.8246,-430.1457"/>
</g>
<!-- unwarp_wfinputnode&#45;&gt;unwarp_wfrotime -->
<g id="edge6" class="edge">
<title>unwarp_wfinputnode:e&#45;&gt;unwarp_wfrotime:w</title>
<path fill="none" stroke="#000000" d="M323.5994,-504.5C328.7105,-504.5 326.9965,-496.8188 323.5994,-493 232.2894,-390.357 107.9094,-559.643 16.5994,-457 2.1431,-440.7495 -6.2697,-410.6307 6.9383,-401.6153"/>
<polygon fill="#000000" stroke="#000000" points="7.8614,-404.9915 16.5994,-399 6.0322,-398.2347 7.8614,-404.9915"/>
</g>
<!-- unwarp_wfresample -->
<g id="node3" class="node">
<title>unwarp_wfresample</title>
<polygon fill="none" stroke="#000000" points="276.5994,-235.5 276.5994,-350.5 524.5994,-350.5 524.5994,-235.5 276.5994,-235.5"/>
<text text-anchor="middle" x="317.5994" y="-335.3" font-family="Times,serif" font-size="14.00" fill="#000000">IN</text>
<polyline fill="none" stroke="#000000" points="276.5994,-327.5 358.5994,-327.5 "/>
<text text-anchor="middle" x="317.5994" y="-312.3" font-family="Times,serif" font-size="14.00" fill="#000000">in_coeff</text>
<polyline fill="none" stroke="#000000" points="276.5994,-304.5 358.5994,-304.5 "/>
<text text-anchor="middle" x="317.5994" y="-289.3" font-family="Times,serif" font-size="14.00" fill="#000000">in_target</text>
<polyline fill="none" stroke="#000000" points="276.5994,-281.5 358.5994,-281.5 "/>
<text text-anchor="middle" x="317.5994" y="-266.3" font-family="Times,serif" font-size="14.00" fill="#000000">pe_dir</text>
<polyline fill="none" stroke="#000000" points="276.5994,-258.5 358.5994,-258.5 "/>
<text text-anchor="middle" x="317.5994" y="-243.3" font-family="Times,serif" font-size="14.00" fill="#000000">ro_time</text>
<polyline fill="none" stroke="#000000" points="358.5994,-235.5 358.5994,-350.5 "/>
<text text-anchor="middle" x="400.0994" y="-327.8" font-family="Times,serif" font-size="14.00" fill="#000000">resample</text>
<polyline fill="none" stroke="#000000" points="358.5994,-312.5 441.5994,-312.5 "/>
<text text-anchor="middle" x="400.0994" y="-289.8" font-family="Times,serif" font-size="14.00" fill="#000000">bspline</text>
<polyline fill="none" stroke="#000000" points="358.5994,-274.5 441.5994,-274.5 "/>
<text text-anchor="middle" x="400.0994" y="-251.3" font-family="Times,serif" font-size="14.00" fill="#000000"> </text>
<polyline fill="none" stroke="#000000" points="441.5994,-235.5 441.5994,-350.5 "/>
<text text-anchor="middle" x="483.0994" y="-327.8" font-family="Times,serif" font-size="14.00" fill="#000000">OUT</text>
<polyline fill="none" stroke="#000000" points="441.5994,-312.5 524.5994,-312.5 "/>
<text text-anchor="middle" x="483.0994" y="-289.8" font-family="Times,serif" font-size="14.00" fill="#000000">out_field</text>
<polyline fill="none" stroke="#000000" points="441.5994,-274.5 524.5994,-274.5 "/>
<text text-anchor="middle" x="483.0994" y="-251.3" font-family="Times,serif" font-size="14.00" fill="#000000">out_warp</text>
</g>
<!-- unwarp_wfinputnode&#45;&gt;unwarp_wfresample -->
<g id="edge1" class="edge">
<title>unwarp_wfinputnode:e&#45;&gt;unwarp_wfresample:w</title>
<path fill="none" stroke="#000000" d="M323.5994,-551.5C377.6523,-551.5 241.2994,-329.9472 267.0889,-297.0604"/>
<polygon fill="#000000" stroke="#000000" points="268.7768,-300.1455 276.5994,-293 266.0282,-293.7077 268.7768,-300.1455"/>
</g>
<!-- unwarp_wfinputnode&#45;&gt;unwarp_wfresample -->
<g id="edge5" class="edge">
<title>unwarp_wfinputnode:e&#45;&gt;unwarp_wfresample:w</title>
<path fill="none" stroke="#000000" d="M323.5994,-527.5C348.7742,-527.5 376.518,-518.3974 313.5994,-387 303.6904,-366.3063 285.5246,-372.1367 276.5994,-351 272.5338,-341.3718 266.9093,-328.8819 268.3739,-321.7221"/>
<polygon fill="#000000" stroke="#000000" points="270.3891,-324.5839 276.5994,-316 266.3916,-318.8375 270.3891,-324.5839"/>
</g>
<!-- unwarp_wfunwarp -->
<g id="node4" class="node">
<title>unwarp_wfunwarp</title>
<polygon fill="none" stroke="#000000" points="553.0994,-106.5 553.0994,-198.5 876.0994,-198.5 876.0994,-106.5 553.0994,-106.5"/>
<text text-anchor="middle" x="621.5994" y="-183.3" font-family="Times,serif" font-size="14.00" fill="#000000">IN</text>
<polyline fill="none" stroke="#000000" points="553.0994,-175.5 690.0994,-175.5 "/>
<text text-anchor="middle" x="621.5994" y="-160.3" font-family="Times,serif" font-size="14.00" fill="#000000">input_image</text>
<polyline fill="none" stroke="#000000" points="553.0994,-152.5 690.0994,-152.5 "/>
<text text-anchor="middle" x="621.5994" y="-137.3" font-family="Times,serif" font-size="14.00" fill="#000000">reference_image</text>
<polyline fill="none" stroke="#000000" points="553.0994,-129.5 690.0994,-129.5 "/>
<text text-anchor="middle" x="621.5994" y="-114.3" font-family="Times,serif" font-size="14.00" fill="#000000">transforms</text>
<polyline fill="none" stroke="#000000" points="690.0994,-106.5 690.0994,-198.5 "/>
<text text-anchor="middle" x="725.5994" y="-179.8" font-family="Times,serif" font-size="14.00" fill="#000000">unwarp</text>
<polyline fill="none" stroke="#000000" points="690.0994,-168.5 761.0994,-168.5 "/>
<text text-anchor="middle" x="725.5994" y="-149.3" font-family="Times,serif" font-size="14.00" fill="#000000">fixes</text>
<polyline fill="none" stroke="#000000" points="690.0994,-137.5 761.0994,-137.5 "/>
<text text-anchor="middle" x="725.5994" y="-118.3" font-family="Times,serif" font-size="14.00" fill="#000000"> </text>
<polyline fill="none" stroke="#000000" points="761.0994,-106.5 761.0994,-198.5 "/>
<text text-anchor="middle" x="818.5994" y="-171.8" font-family="Times,serif" font-size="14.00" fill="#000000">OUT</text>
<polyline fill="none" stroke="#000000" points="761.0994,-152.5 876.0994,-152.5 "/>
<text text-anchor="middle" x="818.5994" y="-125.8" font-family="Times,serif" font-size="14.00" fill="#000000">output_image</text>
</g>
<!-- unwarp_wfinputnode&#45;&gt;unwarp_wfunwarp -->
<g id="edge3" class="edge">
<title>unwarp_wfinputnode:e&#45;&gt;unwarp_wfunwarp:w</title>
<path fill="none" stroke="#000000" d="M323.5994,-551.5C452.6416,-551.5 476.6924,-466.8167 533.5994,-351 563.5556,-290.0333 543.1013,-266.6173 549.5994,-199 549.8295,-196.6062 549.4408,-183.7281 550.0563,-174.4061"/>
<polygon fill="#000000" stroke="#000000" points="553.5028,-175.0562 552.5994,-164.5 546.7227,-173.3156 553.5028,-175.0562"/>
</g>
<!-- unwarp_wfinputnode&#45;&gt;unwarp_wfunwarp -->
<g id="edge4" class="edge">
<title>unwarp_wfinputnode:e&#45;&gt;unwarp_wfunwarp:w</title>
<path fill="none" stroke="#000000" d="M323.5994,-551.5C459.8811,-551.5 528.9619,-484.653 555.5994,-351 565.6764,-300.4389 557.742,-286.511 555.5994,-235 554.9322,-218.9584 553.2666,-215.0416 552.5994,-199 552.4031,-194.2814 549.0608,-165.5378 549.7406,-150.1714"/>
<polygon fill="#000000" stroke="#000000" points="553.1211,-151.082 552.5994,-140.5 546.4082,-149.0977 553.1211,-151.082"/>
</g>
<!-- unwarp_wfrotime&#45;&gt;unwarp_wfresample -->
<g id="edge9" class="edge">
<title>unwarp_wfrotime:e&#45;&gt;unwarp_wfresample:w</title>
<path fill="none" stroke="#000000" d="M276.5994,-422C276.5994,-422 276.5994,-314.7887 276.5994,-280.4476"/>
<polygon fill="#000000" stroke="#000000" points="280.0995,-280 276.5994,-270 273.0995,-280 280.0995,-280"/>
</g>
<!-- unwarp_wfrotime&#45;&gt;unwarp_wfresample -->
<g id="edge10" class="edge">
<title>unwarp_wfrotime:e&#45;&gt;unwarp_wfresample:w</title>
<path fill="none" stroke="#000000" d="M276.5994,-399C276.5994,-399 276.5994,-291.7887 276.5994,-257.4476"/>
<polygon fill="#000000" stroke="#000000" points="280.0995,-257 276.5994,-247 273.0995,-257 280.0995,-257"/>
</g>
<!-- unwarp_wfresample&#45;&gt;unwarp_wfunwarp -->
<g id="edge8" class="edge">
<title>unwarp_wfresample:e&#45;&gt;unwarp_wfunwarp:w</title>
<path fill="none" stroke="#000000" d="M524.5994,-255C537.4268,-255 535.9562,-211.5521 538.5994,-199 541.6465,-184.5301 536.9559,-140.5747 544.5824,-123.9565"/>
<polygon fill="#000000" stroke="#000000" points="547.0064,-126.4983 552.5994,-117.5 542.6158,-121.0465 547.0064,-126.4983"/>
</g>
<!-- unwarp_wfoutputnode -->
<g id="node5" class="node">
<title>unwarp_wfoutputnode</title>
<polygon fill="none" stroke="#000000" points="700.5994,-.5 700.5994,-69.5 934.5994,-69.5 934.5994,-.5 700.5994,-.5"/>
<text text-anchor="middle" x="743.5994" y="-54.3" font-family="Times,serif" font-size="14.00" fill="#000000">IN</text>
<polyline fill="none" stroke="#000000" points="700.5994,-46.5 786.5994,-46.5 "/>
<text text-anchor="middle" x="743.5994" y="-31.3" font-family="Times,serif" font-size="14.00" fill="#000000">corrected</text>
<polyline fill="none" stroke="#000000" points="700.5994,-23.5 786.5994,-23.5 "/>
<text text-anchor="middle" x="743.5994" y="-8.3" font-family="Times,serif" font-size="14.00" fill="#000000">fieldmap</text>
<polyline fill="none" stroke="#000000" points="786.5994,-.5 786.5994,-69.5 "/>
<text text-anchor="middle" x="835.5994" y="-54.3" font-family="Times,serif" font-size="14.00" fill="#000000">outputnode</text>
<polyline fill="none" stroke="#000000" points="786.5994,-46.5 884.5994,-46.5 "/>
<text text-anchor="middle" x="835.5994" y="-31.3" font-family="Times,serif" font-size="14.00" fill="#000000">utility</text>
<polyline fill="none" stroke="#000000" points="786.5994,-23.5 884.5994,-23.5 "/>
<text text-anchor="middle" x="835.5994" y="-8.3" font-family="Times,serif" font-size="14.00" fill="#000000"> </text>
<polyline fill="none" stroke="#000000" points="884.5994,-.5 884.5994,-69.5 "/>
<text text-anchor="middle" x="909.5994" y="-31.3" font-family="Times,serif" font-size="14.00" fill="#000000">OUT</text>
</g>
<!-- unwarp_wfresample&#45;&gt;unwarp_wfoutputnode -->
<g id="edge7" class="edge">
<title>unwarp_wfresample:e&#45;&gt;unwarp_wfoutputnode:w</title>
<path fill="none" stroke="#000000" d="M524.5994,-294C545.6062,-294 533.3124,-123.7168 544.5994,-106 586.2241,-40.6634 616.9178,-14.2897 690.4335,-12.1438"/>
<polygon fill="#000000" stroke="#000000" points="690.65,-15.6412 700.5994,-12 690.5508,-8.6419 690.65,-15.6412"/>
</g>
<!-- unwarp_wfunwarp&#45;&gt;unwarp_wfoutputnode -->
<g id="edge11" class="edge">
<title>unwarp_wfunwarp:e&#45;&gt;unwarp_wfoutputnode:w</title>
<path fill="none" stroke="#000000" d="M876.5994,-129.5C887.0438,-129.5 883.2034,-114.0916 876.5994,-106 826.1155,-44.1446 751.0833,-131.8554 700.5994,-70 693.6836,-61.5265 688.8027,-47.6654 691.9216,-40.1822"/>
<polygon fill="#000000" stroke="#000000" points="693.8083,-43.1321 700.5994,-35 690.2193,-37.1222 693.8083,-43.1321"/>
</g>
</g>
</svg>
