<?xml version="1.0" encoding="UTF-8" standalone="no"?>
<!DOCTYPE svg PUBLIC "-//W3C//DTD SVG 1.1//EN"
 "http://www.w3.org/Graphics/SVG/1.1/DTD/svg11.dtd">
<!-- Generated by graphviz version 2.40.1 (20161225.0304)
 -->
<!-- Title: %3 Pages: 1 -->
<svg width="313pt" height="404pt"
 viewBox="0.00 0.00 313.23 404.00" xmlns="http://www.w3.org/2000/svg" xmlns:xlink="http://www.w3.org/1999/xlink">
<g id="graph0" class="graph" transform="scale(1 1) rotate(0) translate(4 400)">
<title>%3</title>
<polygon fill="#ffffff" stroke="transparent" points="-4,4 -4,-400 309.2324,-400 309.2324,4 -4,4"/>
<!-- inputnode (utility) -->
<g id="node1" class="node">
<title>inputnode (utility)</title>
<ellipse fill="none" stroke="#000000" cx="183.8414" cy="-378" rx="94.7833" ry="18"/>
<text text-anchor="middle" x="183.8414" y="-374.3" font-family="Times,serif" font-size="14.00" fill="#000000">inputnode (utility)</text>
</g>
<!-- rotime (epi) -->
<g id="node2" class="node">
<title>rotime (epi)</title>
<ellipse fill="none" stroke="#000000" cx="89.8414" cy="-306" rx="65.7887" ry="18"/>
<text text-anchor="middle" x="89.8414" y="-302.3" font-family="Times,serif" font-size="14.00" fill="#000000">rotime (epi)</text>
</g>
<!-- inputnode (utility)&#45;&gt;rotime (epi) -->
<g id="edge1" class="edge">
<title>inputnode (utility)&#45;&gt;rotime (epi)</title>
<path fill="none" stroke="#000000" d="M160.6054,-360.2022C148.4747,-350.9106 133.4779,-339.4237 120.4167,-329.4194"/>
<polygon fill="#000000" stroke="#000000" points="122.2299,-326.3994 112.1628,-323.0972 117.9733,-331.9566 122.2299,-326.3994"/>
</g>
<!-- resample (bspline) -->
<g id="node3" class="node">
<title>resample (bspline)</title>
<ellipse fill="none" stroke="#000000" cx="96.8414" cy="-234" rx="96.6831" ry="18"/>
<text text-anchor="middle" x="96.8414" y="-230.3" font-family="Times,serif" font-size="14.00" fill="#000000">resample (bspline)</text>
</g>
<!-- inputnode (utility)&#45;&gt;resample (bspline) -->
<g id="edge2" class="edge">
<title>inputnode (utility)&#45;&gt;resample (bspline)</title>
<path fill="none" stroke="#000000" d="M183.5613,-359.7622C182.4916,-340.5721 178.5324,-310.1387 164.8414,-288 157.4488,-276.0459 146.4214,-265.6366 135.3874,-257.2324"/>
<polygon fill="#000000" stroke="#000000" points="137.1699,-254.2032 127.0084,-251.2042 133.0818,-259.8854 137.1699,-254.2032"/>
</g>
<!-- unwarp (fixes) -->
<g id="node4" class="node">
<title>unwarp (fixes)</title>
<ellipse fill="none" stroke="#000000" cx="212.8414" cy="-162" rx="77.1866" ry="18"/>
<text text-anchor="middle" x="212.8414" y="-158.3" font-family="Times,serif" font-size="14.00" fill="#000000">unwarp (fixes)</text>
</g>
<!-- inputnode (utility)&#45;&gt;unwarp (fixes) -->
<g id="edge3" class="edge">
<title>inputnode (utility)&#45;&gt;unwarp (fixes)</title>
<path fill="none" stroke="#000000" d="M186.835,-359.6687C190.7829,-335.1713 197.8165,-290.3866 202.8414,-252 205.5282,-231.4748 208.0966,-208.2542 209.9576,-190.5408"/>
<polygon fill="#000000" stroke="#000000" points="213.4697,-190.6044 211.0197,-180.2967 206.507,-189.8825 213.4697,-190.6044"/>
</g>
<!-- rotime (epi)&#45;&gt;resample (bspline) -->
<g id="edge4" class="edge">
<title>rotime (epi)&#45;&gt;resample (bspline)</title>
<path fill="none" stroke="#000000" d="M91.6078,-287.8314C92.3565,-280.131 93.2467,-270.9743 94.0787,-262.4166"/>
<polygon fill="#000000" stroke="#000000" points="97.5671,-262.7051 95.0512,-252.4133 90.5999,-262.0276 97.5671,-262.7051"/>
</g>
<!-- resample (bspline)&#45;&gt;unwarp (fixes) -->
<g id="edge5" class="edge">
<title>resample (bspline)&#45;&gt;unwarp (fixes)</title>
<path fill="none" stroke="#000000" d="M124.6263,-216.7542C140.3796,-206.9763 160.2589,-194.6374 177.1565,-184.1492"/>
<polygon fill="#000000" stroke="#000000" points="179.0328,-187.1041 185.6835,-178.8566 175.3413,-181.1566 179.0328,-187.1041"/>
</g>
<!-- outputnode (utility) -->
<g id="node5" class="node">
<title>outputnode (utility)</title>
<ellipse fill="none" stroke="#000000" cx="203.8414" cy="-18" rx="101.2821" ry="18"/>
<text text-anchor="middle" x="203.8414" y="-14.3" font-family="Times,serif" font-size="14.00" fill="#000000">outputnode (utility)</text>
</g>
<!-- resample (bspline)&#45;&gt;outputnode (utility) -->
<g id="edge6" class="edge">
<title>resample (bspline)&#45;&gt;outputnode (utility)</title>
<path fill="none" stroke="#000000" d="M94.1428,-215.7865C90.4012,-183.9066 87.024,-117.1 115.8414,-72 124.5503,-58.3704 138.053,-47.64 151.8881,-39.4585"/>
<polygon fill="#000000" stroke="#000000" points="153.9134,-42.3386 160.9806,-34.4452 150.5336,-36.2086 153.9134,-42.3386"/>
</g>
<!-- unwarp (fixes)&#45;&gt;outputnode (utility) -->
<g id="edge7" class="edge">
<title>unwarp (fixes)&#45;&gt;outputnode (utility)</title>
<path fill="none" stroke="#000000" d="M250.6368,-146.0485C266.369,-137.29 283.0018,-124.7496 291.8414,-108 299.3092,-93.8497 299.6551,-85.9623 291.8414,-72 284.0862,-58.1421 271.1594,-47.4086 257.5693,-39.2965"/>
<polygon fill="#000000" stroke="#000000" points="259.0364,-36.1085 248.5906,-34.3379 255.6523,-42.2362 259.0364,-36.1085"/>
</g>
<!-- epi_mask (epi) -->
<g id="node6" class="node">
<title>epi_mask (epi)</title>
<ellipse fill="none" stroke="#000000" cx="203.8414" cy="-90" rx="78.7863" ry="18"/>
<text text-anchor="middle" x="203.8414" y="-86.3" font-family="Times,serif" font-size="14.00" fill="#000000">epi_mask (epi)</text>
</g>
<!-- unwarp (fixes)&#45;&gt;epi_mask (epi) -->
<g id="edge8" class="edge">
<title>unwarp (fixes)&#45;&gt;epi_mask (epi)</title>
<path fill="none" stroke="#000000" d="M210.5703,-143.8314C209.6078,-136.131 208.4632,-126.9743 207.3935,-118.4166"/>
<polygon fill="#000000" stroke="#000000" points="210.8565,-117.9019 206.1431,-108.4133 203.9105,-118.7702 210.8565,-117.9019"/>
</g>
<!-- epi_mask (epi)&#45;&gt;outputnode (utility) -->
<g id="edge9" class="edge">
<title>epi_mask (epi)&#45;&gt;outputnode (utility)</title>
<path fill="none" stroke="#000000" d="M203.8414,-71.8314C203.8414,-64.131 203.8414,-54.9743 203.8414,-46.4166"/>
<polygon fill="#000000" stroke="#000000" points="207.3415,-46.4132 203.8414,-36.4133 200.3415,-46.4133 207.3415,-46.4132"/>
</g>
</g>
</svg>
