<?xml version="1.0" encoding="UTF-8" standalone="no"?>
<!DOCTYPE svg PUBLIC "-//W3C//DTD SVG 1.1//EN"
 "http://www.w3.org/Graphics/SVG/1.1/DTD/svg11.dtd">
<!-- Generated by graphviz version 2.40.1 (20161225.0304)
 -->
<!-- Title: %3 Pages: 1 -->
<svg width="461pt" height="476pt"
 viewBox="0.00 0.00 461.39 476.00" xmlns="http://www.w3.org/2000/svg" xmlns:xlink="http://www.w3.org/1999/xlink">
<g id="graph0" class="graph" transform="scale(1 1) rotate(0) translate(4 472)">
<title>%3</title>
<polygon fill="#ffffff" stroke="transparent" points="-4,4 -4,-472 457.388,-472 457.388,4 -4,4"/>
<!-- inputnode (utility) -->
<g id="node1" class="node">
<title>inputnode (utility)</title>
<ellipse fill="none" stroke="#000000" cx="324.8414" cy="-450" rx="94.7833" ry="18"/>
<text text-anchor="middle" x="324.8414" y="-446.3" font-family="Times,serif" font-size="14.00" fill="#000000">inputnode (utility)</text>
</g>
<!-- flatten (utils) -->
<g id="node2" class="node">
<title>flatten (utils)</title>
<ellipse fill="none" stroke="#000000" cx="324.8414" cy="-378" rx="71.4873" ry="18"/>
<text text-anchor="middle" x="324.8414" y="-374.3" font-family="Times,serif" font-size="14.00" fill="#000000">flatten (utils)</text>
</g>
<!-- inputnode (utility)&#45;&gt;flatten (utils) -->
<g id="edge1" class="edge">
<title>inputnode (utility)&#45;&gt;flatten (utils)</title>
<path fill="none" stroke="#000000" d="M324.8414,-431.8314C324.8414,-424.131 324.8414,-414.9743 324.8414,-406.4166"/>
<polygon fill="#000000" stroke="#000000" points="328.3415,-406.4132 324.8414,-396.4133 321.3415,-406.4133 328.3415,-406.4132"/>
</g>
<!-- readout_time (epi) -->
<g id="node3" class="node">
<title>readout_time (epi)</title>
<ellipse fill="none" stroke="#000000" cx="96.8414" cy="-306" rx="96.6831" ry="18"/>
<text text-anchor="middle" x="96.8414" y="-302.3" font-family="Times,serif" font-size="14.00" fill="#000000">readout_time (epi)</text>
</g>
<!-- flatten (utils)&#45;&gt;readout_time (epi) -->
<g id="edge2" class="edge">
<title>flatten (utils)&#45;&gt;readout_time (epi)</title>
<path fill="none" stroke="#000000" d="M280.068,-363.861C244.5601,-352.648 194.6317,-336.8811 155.8599,-324.6374"/>
<polygon fill="#000000" stroke="#000000" points="156.8484,-321.2793 146.2586,-321.6054 154.7404,-327.9544 156.8484,-321.2793"/>
</g>
<!-- concat_blips (nibabel) -->
<g id="node4" class="node">
<title>concat_blips (nibabel)</title>
<ellipse fill="none" stroke="#000000" cx="324.8414" cy="-306" rx="113.18" ry="18"/>
<text text-anchor="middle" x="324.8414" y="-302.3" font-family="Times,serif" font-size="14.00" fill="#000000">concat_blips (nibabel)</text>
</g>
<!-- flatten (utils)&#45;&gt;concat_blips (nibabel) -->
<g id="edge3" class="edge">
<title>flatten (utils)&#45;&gt;concat_blips (nibabel)</title>
<path fill="none" stroke="#000000" d="M324.8414,-359.8314C324.8414,-352.131 324.8414,-342.9743 324.8414,-334.4166"/>
<polygon fill="#000000" stroke="#000000" points="328.3415,-334.4132 324.8414,-324.4133 321.3415,-334.4133 328.3415,-334.4132"/>
</g>
<!-- topup (fsl) -->
<g id="node5" class="node">
<title>topup (fsl)</title>
<ellipse fill="none" stroke="#000000" cx="324.8414" cy="-234" rx="58.4896" ry="18"/>
<text text-anchor="middle" x="324.8414" y="-230.3" font-family="Times,serif" font-size="14.00" fill="#000000">topup (fsl)</text>
</g>
<!-- flatten (utils)&#45;&gt;topup (fsl) -->
<g id="edge4" class="edge">
<title>flatten (utils)&#45;&gt;topup (fsl)</title>
<path fill="none" stroke="#000000" d="M382.1948,-367.1162C406.4411,-359.3736 432.3727,-346.2268 446.8414,-324 455.5702,-310.5908 455.5702,-301.4092 446.8414,-288 433.0756,-266.853 408.9336,-253.9252 385.7389,-246.0509"/>
<polygon fill="#000000" stroke="#000000" points="386.4781,-242.6151 375.8894,-242.9763 384.3922,-249.2971 386.4781,-242.6151"/>
</g>
<!-- readout_time (epi)&#45;&gt;topup (fsl) -->
<g id="edge5" class="edge">
<title>readout_time (epi)&#45;&gt;topup (fsl)</title>
<path fill="none" stroke="#000000" d="M146.0333,-290.4657C183.767,-278.5498 235.6858,-262.1544 273.8587,-250.0998"/>
<polygon fill="#000000" stroke="#000000" points="275.2613,-253.3273 283.7431,-246.9784 273.1533,-246.6522 275.2613,-253.3273"/>
</g>
<!-- concat_blips (nibabel)&#45;&gt;topup (fsl) -->
<g id="edge6" class="edge">
<title>concat_blips (nibabel)&#45;&gt;topup (fsl)</title>
<path fill="none" stroke="#000000" d="M324.8414,-287.8314C324.8414,-280.131 324.8414,-270.9743 324.8414,-262.4166"/>
<polygon fill="#000000" stroke="#000000" points="328.3415,-262.4132 324.8414,-252.4133 321.3415,-262.4133 328.3415,-262.4132"/>
</g>
<!-- merge_corrected (images) -->
<g id="node6" class="node">
<title>merge_corrected (images)</title>
<ellipse fill="none" stroke="#000000" cx="243.8414" cy="-162" rx="133.7763" ry="18"/>
<text text-anchor="middle" x="243.8414" y="-158.3" font-family="Times,serif" font-size="14.00" fill="#000000">merge_corrected (images)</text>
</g>
<!-- topup (fsl)&#45;&gt;merge_corrected (images) -->
<g id="edge7" class="edge">
<title>topup (fsl)&#45;&gt;merge_corrected (images)</title>
<path fill="none" stroke="#000000" d="M305.6455,-216.937C295.4586,-207.8819 282.7577,-196.5923 271.5238,-186.6066"/>
<polygon fill="#000000" stroke="#000000" points="273.8292,-183.973 264.0298,-179.9453 269.1787,-189.2049 273.8292,-183.973"/>
</g>
<!-- outputnode (utility) -->
<g id="node7" class="node">
<title>outputnode (utility)</title>
<ellipse fill="none" stroke="#000000" cx="298.8414" cy="-18" rx="101.2821" ry="18"/>
<text text-anchor="middle" x="298.8414" y="-14.3" font-family="Times,serif" font-size="14.00" fill="#000000">outputnode (utility)</text>
</g>
<!-- topup (fsl)&#45;&gt;outputnode (utility) -->
<g id="edge8" class="edge">
<title>topup (fsl)&#45;&gt;outputnode (utility)</title>
<path fill="none" stroke="#000000" d="M352.4126,-217.9022C365.4441,-208.6435 379.6864,-195.72 386.8414,-180 406.7258,-136.3123 410.2825,-113.8869 386.8414,-72 379.0862,-58.1421 366.1594,-47.4086 352.5693,-39.2965"/>
<polygon fill="#000000" stroke="#000000" points="354.0364,-36.1085 343.5906,-34.3379 350.6523,-42.2362 354.0364,-36.1085"/>
</g>
<!-- merge_corrected (images)&#45;&gt;outputnode (utility) -->
<g id="edge10" class="edge">
<title>merge_corrected (images)&#45;&gt;outputnode (utility)</title>
<path fill="none" stroke="#000000" d="M228.4355,-144.0241C214.3873,-125.3182 197.6751,-95.5269 210.8414,-72 218.5967,-58.1421 231.5234,-47.4086 245.1135,-39.2965"/>
<polygon fill="#000000" stroke="#000000" points="247.0306,-42.2362 254.0922,-34.3379 243.6464,-36.1085 247.0306,-42.2362"/>
</g>
<!-- epi_mask (epi) -->
<g id="node8" class="node">
<title>epi_mask (epi)</title>
<ellipse fill="none" stroke="#000000" cx="298.8414" cy="-90" rx="78.7863" ry="18"/>
<text text-anchor="middle" x="298.8414" y="-86.3" font-family="Times,serif" font-size="14.00" fill="#000000">epi_mask (epi)</text>
</g>
<!-- merge_corrected (images)&#45;&gt;epi_mask (epi) -->
<g id="edge9" class="edge">
<title>merge_corrected (images)&#45;&gt;epi_mask (epi)</title>
<path fill="none" stroke="#000000" d="M257.7202,-143.8314C264.1524,-135.411 271.9147,-125.2495 278.9545,-116.0338"/>
<polygon fill="#000000" stroke="#000000" points="281.8685,-117.9848 285.1576,-107.9134 276.3058,-113.7355 281.8685,-117.9848"/>
</g>
<!-- epi_mask (epi)&#45;&gt;outputnode (utility) -->
<g id="edge11" class="edge">
<title>epi_mask (epi)&#45;&gt;outputnode (utility)</title>
<path fill="none" stroke="#000000" d="M298.8414,-71.8314C298.8414,-64.131 298.8414,-54.9743 298.8414,-46.4166"/>
<polygon fill="#000000" stroke="#000000" points="302.3415,-46.4132 298.8414,-36.4133 295.3415,-46.4133 302.3415,-46.4132"/>
</g>
</g>
</svg>
