<?xml version="1.0" encoding="UTF-8" standalone="no"?>
<!DOCTYPE svg PUBLIC "-//W3C//DTD SVG 1.1//EN"
 "http://www.w3.org/Graphics/SVG/1.1/DTD/svg11.dtd">
<!-- Generated by graphviz version 2.40.1 (20161225.0304)
 -->
<!-- Title: %3 Pages: 1 -->
<svg width="434pt" height="548pt"
 viewBox="0.00 0.00 434.37 548.00" xmlns="http://www.w3.org/2000/svg" xmlns:xlink="http://www.w3.org/1999/xlink">
<g id="graph0" class="graph" transform="scale(1 1) rotate(0) translate(4 544)">
<title>%3</title>
<polygon fill="#ffffff" stroke="transparent" points="-4,4 -4,-544 430.3745,-544 430.3745,4 -4,4"/>
<!-- inputnode (utility) -->
<g id="node1" class="node">
<title>inputnode (utility)</title>
<ellipse fill="none" stroke="#000000" cx="153.4909" cy="-522" rx="94.7833" ry="18"/>
<text text-anchor="middle" x="153.4909" y="-518.3" font-family="Times,serif" font-size="14.00" fill="#000000">inputnode (utility)</text>
</g>
<!-- qwarp (afni) -->
<g id="node2" class="node">
<title>qwarp (afni)</title>
<ellipse fill="none" stroke="#000000" cx="98.4909" cy="-378" rx="67.6881" ry="18"/>
<text text-anchor="middle" x="98.4909" y="-374.3" font-family="Times,serif" font-size="14.00" fill="#000000">qwarp (afni)</text>
</g>
<!-- inputnode (utility)&#45;&gt;qwarp (afni) -->
<g id="edge1" class="edge">
<title>inputnode (utility)&#45;&gt;qwarp (afni)</title>
<path fill="none" stroke="#000000" d="M94.6401,-507.7427C58.5006,-497.6631 17.1505,-483.2718 6.4909,-468 -2.6668,-454.8799 -1.4593,-445.885 6.4909,-432 15.4146,-416.415 30.7778,-404.8889 46.422,-396.5829"/>
<polygon fill="#000000" stroke="#000000" points="48.1911,-399.6133 55.6189,-392.0583 45.1009,-393.3323 48.1911,-399.6133"/>
</g>
<!-- cphdr_warp (utils) -->
<g id="node3" class="node">
<title>cphdr_warp (utils)</title>
<ellipse fill="none" stroke="#000000" cx="110.4909" cy="-306" rx="96.6831" ry="18"/>
<text text-anchor="middle" x="110.4909" y="-302.3" font-family="Times,serif" font-size="14.00" fill="#000000">cphdr_warp (utils)</text>
</g>
<!-- inputnode (utility)&#45;&gt;cphdr_warp (utils) -->
<g id="edge2" class="edge">
<title>inputnode (utility)&#45;&gt;cphdr_warp (utils)</title>
<path fill="none" stroke="#000000" d="M169.919,-503.989C177.7935,-494.1289 186.3889,-481.2441 190.4909,-468 204.8286,-421.7088 200.468,-401.5282 175.4909,-360 168.3808,-348.1782 157.7243,-337.7555 147.086,-329.299"/>
<polygon fill="#000000" stroke="#000000" points="149.1084,-326.4406 139.0134,-323.2249 144.8997,-332.0341 149.1084,-326.4406"/>
</g>
<!-- prepare_epi_wf -->
<g id="node4" class="node">
<title>prepare_epi_wf</title>
<ellipse fill="none" stroke="#000000" cx="98.4909" cy="-450" rx="82.5854" ry="18"/>
<text text-anchor="middle" x="98.4909" y="-446.3" font-family="Times,serif" font-size="14.00" fill="#000000">prepare_epi_wf</text>
</g>
<!-- inputnode (utility)&#45;&gt;prepare_epi_wf -->
<g id="edge3" class="edge">
<title>inputnode (utility)&#45;&gt;prepare_epi_wf</title>
<path fill="none" stroke="#000000" d="M139.6121,-503.8314C133.1799,-495.411 125.4176,-485.2495 118.3779,-476.0338"/>
<polygon fill="#000000" stroke="#000000" points="121.0266,-473.7355 112.1748,-467.9134 115.4639,-477.9848 121.0266,-473.7355"/>
</g>
<!-- unwarp_reference (registration) -->
<g id="node5" class="node">
<title>unwarp_reference (registration)</title>
<ellipse fill="none" stroke="#000000" cx="247.4909" cy="-162" rx="160.5715" ry="18"/>
<text text-anchor="middle" x="247.4909" y="-158.3" font-family="Times,serif" font-size="14.00" fill="#000000">unwarp_reference (registration)</text>
</g>
<!-- inputnode (utility)&#45;&gt;unwarp_reference (registration) -->
<g id="edge4" class="edge">
<title>inputnode (utility)&#45;&gt;unwarp_reference (registration)</title>
<path fill="none" stroke="#000000" d="M174.821,-504.421C202.5549,-479.4524 247.4909,-430.8434 247.4909,-378 247.4909,-378 247.4909,-378 247.4909,-306 247.4909,-265.876 247.4909,-219.4631 247.4909,-190.4177"/>
<polygon fill="#000000" stroke="#000000" points="250.991,-190.1853 247.4909,-180.1854 243.991,-190.1854 250.991,-190.1853"/>
</g>
<!-- qwarp (afni)&#45;&gt;cphdr_warp (utils) -->
<g id="edge5" class="edge">
<title>qwarp (afni)&#45;&gt;cphdr_warp (utils)</title>
<path fill="none" stroke="#000000" d="M101.519,-359.8314C102.8024,-352.131 104.3286,-342.9743 105.7548,-334.4166"/>
<polygon fill="#000000" stroke="#000000" points="109.2304,-334.8526 107.4221,-324.4133 102.3256,-333.7018 109.2304,-334.8526"/>
</g>
<!-- to_ants (utility) -->
<g id="node6" class="node">
<title>to_ants (utility)</title>
<ellipse fill="none" stroke="#000000" cx="110.4909" cy="-234" rx="82.5854" ry="18"/>
<text text-anchor="middle" x="110.4909" y="-230.3" font-family="Times,serif" font-size="14.00" fill="#000000">to_ants (utility)</text>
</g>
<!-- cphdr_warp (utils)&#45;&gt;to_ants (utility) -->
<g id="edge6" class="edge">
<title>cphdr_warp (utils)&#45;&gt;to_ants (utility)</title>
<path fill="none" stroke="#000000" d="M110.4909,-287.8314C110.4909,-280.131 110.4909,-270.9743 110.4909,-262.4166"/>
<polygon fill="#000000" stroke="#000000" points="113.991,-262.4132 110.4909,-252.4133 106.991,-262.4133 113.991,-262.4132"/>
</g>
<!-- prepare_epi_wf&#45;&gt;qwarp (afni) -->
<g id="edge7" class="edge">
<title>prepare_epi_wf&#45;&gt;qwarp (afni)</title>
<path fill="none" stroke="#000000" d="M98.4909,-431.8314C98.4909,-424.131 98.4909,-414.9743 98.4909,-406.4166"/>
<polygon fill="#000000" stroke="#000000" points="101.991,-406.4132 98.4909,-396.4133 94.991,-406.4133 101.991,-406.4132"/>
</g>
<!-- outputnode (utility) -->
<g id="node7" class="node">
<title>outputnode (utility)</title>
<ellipse fill="none" stroke="#000000" cx="247.4909" cy="-18" rx="101.2821" ry="18"/>
<text text-anchor="middle" x="247.4909" y="-14.3" font-family="Times,serif" font-size="14.00" fill="#000000">outputnode (utility)</text>
</g>
<!-- unwarp_reference (registration)&#45;&gt;outputnode (utility) -->
<g id="edge9" class="edge">
<title>unwarp_reference (registration)&#45;&gt;outputnode (utility)</title>
<path fill="none" stroke="#000000" d="M327.4285,-146.2664C366.2775,-136.8307 407.0348,-123.6315 418.4909,-108 447.0208,-69.0719 389.4833,-45.4739 333.6017,-32.2697"/>
<polygon fill="#000000" stroke="#000000" points="334.0986,-28.7938 323.573,-30.0026 332.5551,-35.6215 334.0986,-28.7938"/>
</g>
<!-- enhance_and_skullstrip_bold_wf -->
<g id="node8" class="node">
<title>enhance_and_skullstrip_bold_wf</title>
<ellipse fill="none" stroke="#000000" cx="247.4909" cy="-90" rx="161.6714" ry="18"/>
<text text-anchor="middle" x="247.4909" y="-86.3" font-family="Times,serif" font-size="14.00" fill="#000000">enhance_and_skullstrip_bold_wf</text>
</g>
<!-- unwarp_reference (registration)&#45;&gt;enhance_and_skullstrip_bold_wf -->
<g id="edge8" class="edge">
<title>unwarp_reference (registration)&#45;&gt;enhance_and_skullstrip_bold_wf</title>
<path fill="none" stroke="#000000" d="M247.4909,-143.8314C247.4909,-136.131 247.4909,-126.9743 247.4909,-118.4166"/>
<polygon fill="#000000" stroke="#000000" points="250.991,-118.4132 247.4909,-108.4133 243.991,-118.4133 250.991,-118.4132"/>
</g>
<!-- to_ants (utility)&#45;&gt;unwarp_reference (registration) -->
<g id="edge10" class="edge">
<title>to_ants (utility)&#45;&gt;unwarp_reference (registration)</title>
<path fill="none" stroke="#000000" d="M142.2658,-217.3008C160.9107,-207.502 184.7092,-194.9948 204.9557,-184.3543"/>
<polygon fill="#000000" stroke="#000000" points="206.7532,-187.3636 213.977,-179.6132 203.4967,-181.1672 206.7532,-187.3636"/>
</g>
<!-- to_ants (utility)&#45;&gt;outputnode (utility) -->
<g id="edge11" class="edge">
<title>to_ants (utility)&#45;&gt;outputnode (utility)</title>
<path fill="none" stroke="#000000" d="M96.2335,-216.1744C89.1325,-206.1672 81.2719,-193.0887 77.4909,-180 64.1691,-133.8836 48.1155,-110.7173 76.4909,-72 88.0276,-56.2587 129.2787,-42.9839 168.3722,-33.5352"/>
<polygon fill="#000000" stroke="#000000" points="169.3105,-36.9102 178.2453,-31.2163 167.7099,-30.0956 169.3105,-36.9102"/>
</g>
<!-- enhance_and_skullstrip_bold_wf&#45;&gt;outputnode (utility) -->
<g id="edge12" class="edge">
<title>enhance_and_skullstrip_bold_wf&#45;&gt;outputnode (utility)</title>
<path fill="none" stroke="#000000" d="M247.4909,-71.8314C247.4909,-64.131 247.4909,-54.9743 247.4909,-46.4166"/>
<polygon fill="#000000" stroke="#000000" points="250.991,-46.4132 247.4909,-36.4133 243.991,-46.4133 250.991,-46.4132"/>
</g>
</g>
</svg>
