<?xml version="1.0" encoding="UTF-8" standalone="no"?>
<!DOCTYPE svg PUBLIC "-//W3C//DTD SVG 1.1//EN"
 "http://www.w3.org/Graphics/SVG/1.1/DTD/svg11.dtd">
<!-- Generated by graphviz version 2.40.1 (20161225.0304)
 -->
<!-- Title: %3 Pages: 1 -->
<svg width="600pt" height="764pt"
 viewBox="0.00 0.00 599.90 764.00" xmlns="http://www.w3.org/2000/svg" xmlns:xlink="http://www.w3.org/1999/xlink">
<g id="graph0" class="graph" transform="scale(1 1) rotate(0) translate(4 760)">
<title>%3</title>
<polygon fill="#ffffff" stroke="transparent" points="-4,4 -4,-760 595.9008,-760 595.9008,4 -4,4"/>
<!-- inputnode (utility) -->
<g id="node1" class="node">
<title>inputnode (utility)</title>
<ellipse fill="none" stroke="#000000" cx="286.6919" cy="-738" rx="94.7833" ry="18"/>
<text text-anchor="middle" x="286.6919" y="-734.3" font-family="Times,serif" font-size="14.00" fill="#000000">inputnode (utility)</text>
</g>
<!-- invert_t1w (image) -->
<g id="node2" class="node">
<title>invert_t1w (image)</title>
<ellipse fill="none" stroke="#000000" cx="286.6919" cy="-666" rx="98.5829" ry="18"/>
<text text-anchor="middle" x="286.6919" y="-662.3" font-family="Times,serif" font-size="14.00" fill="#000000">invert_t1w (image)</text>
</g>
<!-- inputnode (utility)&#45;&gt;invert_t1w (image) -->
<g id="edge1" class="edge">
<title>inputnode (utility)&#45;&gt;invert_t1w (image)</title>
<path fill="none" stroke="#000000" d="M286.6919,-719.8314C286.6919,-712.131 286.6919,-702.9743 286.6919,-694.4166"/>
<polygon fill="#000000" stroke="#000000" points="290.192,-694.4132 286.6919,-684.4133 283.192,-694.4133 290.192,-694.4132"/>
</g>
<!-- ref_2_t1 (fixes) -->
<g id="node3" class="node">
<title>ref_2_t1 (fixes)</title>
<ellipse fill="none" stroke="#000000" cx="231.6919" cy="-594" rx="81.4863" ry="18"/>
<text text-anchor="middle" x="231.6919" y="-590.3" font-family="Times,serif" font-size="14.00" fill="#000000">ref_2_t1 (fixes)</text>
</g>
<!-- inputnode (utility)&#45;&gt;ref_2_t1 (fixes) -->
<g id="edge2" class="edge">
<title>inputnode (utility)&#45;&gt;ref_2_t1 (fixes)</title>
<path fill="none" stroke="#000000" d="M230.6558,-723.4605C210.7049,-715.2911 190.319,-702.8131 178.6919,-684 170.2802,-670.3896 172.6381,-662.8105 178.6919,-648 183.2664,-636.8085 191.4024,-626.6843 199.9476,-618.3065"/>
<polygon fill="#000000" stroke="#000000" points="202.4686,-620.7438 207.4832,-611.4108 197.743,-615.5797 202.4686,-620.7438"/>
</g>
<!-- t1_2_ref (fixes) -->
<g id="node4" class="node">
<title>t1_2_ref (fixes)</title>
<ellipse fill="none" stroke="#000000" cx="342.6919" cy="-522" rx="81.4863" ry="18"/>
<text text-anchor="middle" x="342.6919" y="-518.3" font-family="Times,serif" font-size="14.00" fill="#000000">t1_2_ref (fixes)</text>
</g>
<!-- inputnode (utility)&#45;&gt;t1_2_ref (fixes) -->
<g id="edge3" class="edge">
<title>inputnode (utility)&#45;&gt;t1_2_ref (fixes)</title>
<path fill="none" stroke="#000000" d="M342.728,-723.4605C362.6788,-715.2911 383.0647,-702.8131 394.6919,-684 421.6345,-640.4059 388.1743,-581.4938 363.8087,-548.0492"/>
<polygon fill="#000000" stroke="#000000" points="366.353,-545.6092 357.5442,-539.7224 360.7593,-549.8176 366.353,-545.6092"/>
</g>
<!-- transform_list (utility) -->
<g id="node5" class="node">
<title>transform_list (utility)</title>
<ellipse fill="none" stroke="#000000" cx="128.6919" cy="-522" rx="114.2798" ry="18"/>
<text text-anchor="middle" x="128.6919" y="-518.3" font-family="Times,serif" font-size="14.00" fill="#000000">transform_list (utility)</text>
</g>
<!-- inputnode (utility)&#45;&gt;transform_list (utility) -->
<g id="edge4" class="edge">
<title>inputnode (utility)&#45;&gt;transform_list (utility)</title>
<path fill="none" stroke="#000000" d="M232.9782,-723.0643C210.9584,-714.6458 186.7028,-702.0909 169.6919,-684 135.2915,-647.4156 128.6664,-586.2417 127.9832,-550.456"/>
<polygon fill="#000000" stroke="#000000" points="131.4822,-550.2049 127.9378,-540.2205 124.4823,-550.236 131.4822,-550.2049"/>
</g>
<!-- atlas_2_ref (fixes) -->
<g id="node6" class="node">
<title>atlas_2_ref (fixes)</title>
<ellipse fill="none" stroke="#000000" cx="128.6919" cy="-450" rx="93.6835" ry="18"/>
<text text-anchor="middle" x="128.6919" y="-446.3" font-family="Times,serif" font-size="14.00" fill="#000000">atlas_2_ref (fixes)</text>
</g>
<!-- inputnode (utility)&#45;&gt;atlas_2_ref (fixes) -->
<g id="edge5" class="edge">
<title>inputnode (utility)&#45;&gt;atlas_2_ref (fixes)</title>
<path fill="none" stroke="#000000" d="M230.9933,-723.3353C203.3428,-714.5172 170.2613,-701.5548 143.6919,-684 69.7329,-635.1343 38.7415,-622.2527 5.6919,-540 -.2735,-525.1536 -3.0571,-517.3961 5.6919,-504 17.0346,-486.6325 35.3436,-474.8148 54.4088,-466.7869"/>
<polygon fill="#000000" stroke="#000000" points="55.7447,-470.0228 63.8016,-463.1426 53.2127,-463.4968 55.7447,-470.0228"/>
</g>
<!-- syn (fixes) -->
<g id="node7" class="node">
<title>syn (fixes)</title>
<ellipse fill="none" stroke="#000000" cx="356.6919" cy="-234" rx="58.4896" ry="18"/>
<text text-anchor="middle" x="356.6919" y="-230.3" font-family="Times,serif" font-size="14.00" fill="#000000">syn (fixes)</text>
</g>
<!-- inputnode (utility)&#45;&gt;syn (fixes) -->
<g id="edge6" class="edge">
<title>inputnode (utility)&#45;&gt;syn (fixes)</title>
<path fill="none" stroke="#000000" d="M344.1545,-723.5949C367.8003,-715.2704 393.9746,-702.6422 412.6919,-684 443.5794,-653.2363 451.6919,-637.5941 451.6919,-594 451.6919,-594 451.6919,-594 451.6919,-378 451.6919,-329.2699 413.318,-284.3148 385.348,-258.0201"/>
<polygon fill="#000000" stroke="#000000" points="387.5217,-255.2655 377.7754,-251.1108 382.8036,-260.4365 387.5217,-255.2655"/>
</g>
<!-- unwarp_ref (fixes) -->
<g id="node8" class="node">
<title>unwarp_ref (fixes)</title>
<ellipse fill="none" stroke="#000000" cx="486.6919" cy="-162" rx="95.5831" ry="18"/>
<text text-anchor="middle" x="486.6919" y="-158.3" font-family="Times,serif" font-size="14.00" fill="#000000">unwarp_ref (fixes)</text>
</g>
<!-- inputnode (utility)&#45;&gt;unwarp_ref (fixes) -->
<g id="edge7" class="edge">
<title>inputnode (utility)&#45;&gt;unwarp_ref (fixes)</title>
<path fill="none" stroke="#000000" d="M355.1089,-725.4771C384.0209,-717.4627 416.5191,-704.5571 440.6919,-684 475.3865,-654.4948 489.6919,-639.5442 489.6919,-594 489.6919,-594 489.6919,-594 489.6919,-306 489.6919,-265.8673 488.5127,-219.4566 487.6329,-190.414"/>
<polygon fill="#000000" stroke="#000000" points="491.1239,-190.0687 487.3135,-180.1828 484.1274,-190.2872 491.1239,-190.0687"/>
</g>
<!-- invert_t1w (image)&#45;&gt;ref_2_t1 (fixes) -->
<g id="edge8" class="edge">
<title>invert_t1w (image)&#45;&gt;ref_2_t1 (fixes)</title>
<path fill="none" stroke="#000000" d="M272.813,-647.8314C266.3809,-639.411 258.6186,-629.2495 251.5788,-620.0338"/>
<polygon fill="#000000" stroke="#000000" points="254.2275,-617.7355 245.3757,-611.9134 248.6648,-621.9848 254.2275,-617.7355"/>
</g>
<!-- invert_t1w (image)&#45;&gt;t1_2_ref (fixes) -->
<g id="edge9" class="edge">
<title>invert_t1w (image)&#45;&gt;t1_2_ref (fixes)</title>
<path fill="none" stroke="#000000" d="M300.6872,-647.9027C307.8886,-637.8159 316.2697,-624.7481 321.6919,-612 330.1437,-592.1288 335.513,-568.2763 338.7049,-550.1208"/>
<polygon fill="#000000" stroke="#000000" points="342.1734,-550.5975 340.3395,-540.1626 335.2658,-549.4636 342.1734,-550.5975"/>
</g>
<!-- ref_2_t1 (fixes)&#45;&gt;t1_2_ref (fixes) -->
<g id="edge10" class="edge">
<title>ref_2_t1 (fixes)&#45;&gt;t1_2_ref (fixes)</title>
<path fill="none" stroke="#000000" d="M257.9973,-576.937C272.8187,-567.3231 291.5233,-555.1904 307.5825,-544.7737"/>
<polygon fill="#000000" stroke="#000000" points="309.7056,-547.5684 316.1906,-539.19 305.8963,-541.6956 309.7056,-547.5684"/>
</g>
<!-- ref_2_t1 (fixes)&#45;&gt;transform_list (utility) -->
<g id="edge11" class="edge">
<title>ref_2_t1 (fixes)&#45;&gt;transform_list (utility)</title>
<path fill="none" stroke="#000000" d="M207.0208,-576.7542C193.5881,-567.3644 176.7769,-555.6128 162.1762,-545.4065"/>
<polygon fill="#000000" stroke="#000000" points="164.0785,-542.466 153.8772,-539.6053 160.068,-548.2032 164.0785,-542.466"/>
</g>
<!-- t1_2_ref (fixes)&#45;&gt;syn (fixes) -->
<g id="edge12" class="edge">
<title>t1_2_ref (fixes)&#45;&gt;syn (fixes)</title>
<path fill="none" stroke="#000000" d="M343.5676,-503.9843C345.9345,-455.2939 352.4726,-320.7961 355.328,-262.0573"/>
<polygon fill="#000000" stroke="#000000" points="358.8267,-262.1671 355.8164,-252.0089 351.8349,-261.8271 358.8267,-262.1671"/>
</g>
<!-- transform_list (utility)&#45;&gt;atlas_2_ref (fixes) -->
<g id="edge13" class="edge">
<title>transform_list (utility)&#45;&gt;atlas_2_ref (fixes)</title>
<path fill="none" stroke="#000000" d="M128.6919,-503.8314C128.6919,-496.131 128.6919,-486.9743 128.6919,-478.4166"/>
<polygon fill="#000000" stroke="#000000" points="132.192,-478.4132 128.6919,-468.4133 125.192,-478.4133 132.192,-478.4132"/>
</g>
<!-- threshold_atlas (fsl) -->
<g id="node9" class="node">
<title>threshold_atlas (fsl)</title>
<ellipse fill="none" stroke="#000000" cx="131.6919" cy="-378" rx="103.1819" ry="18"/>
<text text-anchor="middle" x="131.6919" y="-374.3" font-family="Times,serif" font-size="14.00" fill="#000000">threshold_atlas (fsl)</text>
</g>
<!-- atlas_2_ref (fixes)&#45;&gt;threshold_atlas (fsl) -->
<g id="edge14" class="edge">
<title>atlas_2_ref (fixes)&#45;&gt;threshold_atlas (fsl)</title>
<path fill="none" stroke="#000000" d="M129.4489,-431.8314C129.7697,-424.131 130.1513,-414.9743 130.5078,-406.4166"/>
<polygon fill="#000000" stroke="#000000" points="134.0052,-406.5503 130.9246,-396.4133 127.0113,-406.2589 134.0052,-406.5503"/>
</g>
<!-- syn (fixes)&#45;&gt;unwarp_ref (fixes) -->
<g id="edge16" class="edge">
<title>syn (fixes)&#45;&gt;unwarp_ref (fixes)</title>
<path fill="none" stroke="#000000" d="M385.2209,-218.1993C403.2395,-208.2198 426.7864,-195.1784 446.6607,-184.1711"/>
<polygon fill="#000000" stroke="#000000" points="448.4485,-187.1819 455.5007,-179.2751 445.057,-181.0584 448.4485,-187.1819"/>
</g>
<!-- outputnode (utility) -->
<g id="node11" class="node">
<title>outputnode (utility)</title>
<ellipse fill="none" stroke="#000000" cx="480.6919" cy="-18" rx="101.2821" ry="18"/>
<text text-anchor="middle" x="480.6919" y="-14.3" font-family="Times,serif" font-size="14.00" fill="#000000">outputnode (utility)</text>
</g>
<!-- syn (fixes)&#45;&gt;outputnode (utility) -->
<g id="edge15" class="edge">
<title>syn (fixes)&#45;&gt;outputnode (utility)</title>
<path fill="none" stroke="#000000" d="M353.6822,-215.8119C349.3952,-183.678 345.1149,-116.0985 375.6919,-72 386.1876,-56.8629 402.2522,-45.6991 418.6829,-37.5842"/>
<polygon fill="#000000" stroke="#000000" points="420.193,-40.7422 427.8157,-33.3838 417.268,-34.3826 420.193,-40.7422"/>
</g>
<!-- unwarp_ref (fixes)&#45;&gt;outputnode (utility) -->
<g id="edge18" class="edge">
<title>unwarp_ref (fixes)&#45;&gt;outputnode (utility)</title>
<path fill="none" stroke="#000000" d="M537.3966,-146.722C555.9489,-138.4027 574.9984,-126.0136 585.6919,-108 593.8593,-94.2416 594.0261,-85.658 585.6919,-72 576.3645,-56.7144 561.1766,-45.573 545.2138,-37.5273"/>
<polygon fill="#000000" stroke="#000000" points="546.3081,-34.1766 535.764,-33.1399 543.3602,-40.5256 546.3081,-34.1766"/>
</g>
<!-- skullstrip_bold_wf -->
<g id="node12" class="node">
<title>skullstrip_bold_wf</title>
<ellipse fill="none" stroke="#000000" cx="480.6919" cy="-90" rx="96.3833" ry="18"/>
<text text-anchor="middle" x="480.6919" y="-86.3" font-family="Times,serif" font-size="14.00" fill="#000000">skullstrip_bold_wf</text>
</g>
<!-- unwarp_ref (fixes)&#45;&gt;skullstrip_bold_wf -->
<g id="edge17" class="edge">
<title>unwarp_ref (fixes)&#45;&gt;skullstrip_bold_wf</title>
<path fill="none" stroke="#000000" d="M485.1778,-143.8314C484.5361,-136.131 483.7731,-126.9743 483.0599,-118.4166"/>
<polygon fill="#000000" stroke="#000000" points="486.5448,-118.088 482.2263,-108.4133 479.5689,-118.6694 486.5448,-118.088"/>
</g>
<!-- fixed_image_masks (utility) -->
<g id="node10" class="node">
<title>fixed_image_masks (utility)</title>
<ellipse fill="none" stroke="#000000" cx="166.6919" cy="-306" rx="139.1754" ry="18"/>
<text text-anchor="middle" x="166.6919" y="-302.3" font-family="Times,serif" font-size="14.00" fill="#000000">fixed_image_masks (utility)</text>
</g>
<!-- threshold_atlas (fsl)&#45;&gt;fixed_image_masks (utility) -->
<g id="edge19" class="edge">
<title>threshold_atlas (fsl)&#45;&gt;fixed_image_masks (utility)</title>
<path fill="none" stroke="#000000" d="M140.5238,-359.8314C144.3905,-351.8771 149.0125,-342.369 153.2887,-333.5723"/>
<polygon fill="#000000" stroke="#000000" points="156.5168,-334.9371 157.741,-324.4133 150.2212,-331.8768 156.5168,-334.9371"/>
</g>
<!-- fixed_image_masks (utility)&#45;&gt;syn (fixes) -->
<g id="edge20" class="edge">
<title>fixed_image_masks (utility)&#45;&gt;syn (fixes)</title>
<path fill="none" stroke="#000000" d="M211.7192,-288.937C241.4255,-277.6799 280.2452,-262.9692 310.2374,-251.6038"/>
<polygon fill="#000000" stroke="#000000" points="311.5314,-254.8564 319.6422,-248.0399 309.0508,-248.3106 311.5314,-254.8564"/>
</g>
<!-- skullstrip_bold_wf&#45;&gt;outputnode (utility) -->
<g id="edge21" class="edge">
<title>skullstrip_bold_wf&#45;&gt;outputnode (utility)</title>
<path fill="none" stroke="#000000" d="M480.6919,-71.8314C480.6919,-64.131 480.6919,-54.9743 480.6919,-46.4166"/>
<polygon fill="#000000" stroke="#000000" points="484.192,-46.4132 480.6919,-36.4133 477.192,-46.4133 484.192,-46.4132"/>
</g>
</g>
</svg>
