<?xml version="1.0" encoding="UTF-8" standalone="no"?>
<!DOCTYPE svg PUBLIC "-//W3C//DTD SVG 1.1//EN"
 "http://www.w3.org/Graphics/SVG/1.1/DTD/svg11.dtd">
<!-- Generated by graphviz version 2.40.1 (20161225.0304)
 -->
<!-- Title: %3 Pages: 1 -->
<svg width="258pt" height="404pt"
 viewBox="0.00 0.00 257.78 404.00" xmlns="http://www.w3.org/2000/svg" xmlns:xlink="http://www.w3.org/1999/xlink">
<g id="graph0" class="graph" transform="scale(1 1) rotate(0) translate(4 400)">
<title>%3</title>
<polygon fill="#ffffff" stroke="transparent" points="-4,4 -4,-400 253.7832,-400 253.7832,4 -4,4"/>
<!-- inputnode (utility) -->
<g id="node1" class="node">
<title>inputnode (utility)</title>
<ellipse fill="none" stroke="#000000" cx="103.391" cy="-378" rx="94.7833" ry="18"/>
<text text-anchor="middle" x="103.391" y="-374.3" font-family="Times,serif" font-size="14.00" fill="#000000">inputnode (utility)</text>
</g>
<!-- cleanup_wf -->
<g id="node2" class="node">
<title>cleanup_wf</title>
<ellipse fill="none" stroke="#000000" cx="101.391" cy="-90" rx="63.8893" ry="18"/>
<text text-anchor="middle" x="101.391" y="-86.3" font-family="Times,serif" font-size="14.00" fill="#000000">cleanup_wf</text>
</g>
<!-- inputnode (utility)&#45;&gt;cleanup_wf -->
<g id="edge1" class="edge">
<title>inputnode (utility)&#45;&gt;cleanup_wf</title>
<path fill="none" stroke="#000000" d="M86.0889,-360.1371C77.7926,-350.3175 68.7318,-337.4242 64.391,-324 54.763,-294.2247 28.3226,-264.9132 65.391,-144 68.4304,-134.0859 73.937,-124.3212 79.7442,-115.8796"/>
<polygon fill="#000000" stroke="#000000" points="82.7179,-117.7433 85.8138,-107.6109 77.075,-113.6011 82.7179,-117.7433"/>
</g>
<!-- recenter (utility) -->
<g id="node3" class="node">
<title>recenter (utility)</title>
<ellipse fill="none" stroke="#000000" cx="161.391" cy="-306" rx="88.2844" ry="18"/>
<text text-anchor="middle" x="161.391" y="-302.3" font-family="Times,serif" font-size="14.00" fill="#000000">recenter (utility)</text>
</g>
<!-- inputnode (utility)&#45;&gt;recenter (utility) -->
<g id="edge2" class="edge">
<title>inputnode (utility)&#45;&gt;recenter (utility)</title>
<path fill="none" stroke="#000000" d="M117.7281,-360.2022C124.6296,-351.6348 133.0347,-341.2009 140.6206,-331.7839"/>
<polygon fill="#000000" stroke="#000000" points="143.4702,-333.8258 147.0178,-323.8425 138.0189,-329.4344 143.4702,-333.8258"/>
</g>
<!-- outputnode (utility) -->
<g id="node4" class="node">
<title>outputnode (utility)</title>
<ellipse fill="none" stroke="#000000" cx="101.391" cy="-18" rx="101.2821" ry="18"/>
<text text-anchor="middle" x="101.391" y="-14.3" font-family="Times,serif" font-size="14.00" fill="#000000">outputnode (utility)</text>
</g>
<!-- cleanup_wf&#45;&gt;outputnode (utility) -->
<g id="edge3" class="edge">
<title>cleanup_wf&#45;&gt;outputnode (utility)</title>
<path fill="none" stroke="#000000" d="M101.391,-71.8314C101.391,-64.131 101.391,-54.9743 101.391,-46.4166"/>
<polygon fill="#000000" stroke="#000000" points="104.8911,-46.4132 101.391,-36.4133 97.8911,-46.4133 104.8911,-46.4132"/>
</g>
<!-- denoise (fsl) -->
<g id="node5" class="node">
<title>denoise (fsl)</title>
<ellipse fill="none" stroke="#000000" cx="160.391" cy="-234" rx="67.6881" ry="18"/>
<text text-anchor="middle" x="160.391" y="-230.3" font-family="Times,serif" font-size="14.00" fill="#000000">denoise (fsl)</text>
</g>
<!-- recenter (utility)&#45;&gt;denoise (fsl) -->
<g id="edge4" class="edge">
<title>recenter (utility)&#45;&gt;denoise (fsl)</title>
<path fill="none" stroke="#000000" d="M161.1387,-287.8314C161.0317,-280.131 160.9045,-270.9743 160.7857,-262.4166"/>
<polygon fill="#000000" stroke="#000000" points="164.2854,-262.3637 160.6467,-252.4133 157.2861,-262.4609 164.2854,-262.3637"/>
</g>
<!-- demean (utility) -->
<g id="node6" class="node">
<title>demean (utility)</title>
<ellipse fill="none" stroke="#000000" cx="159.391" cy="-162" rx="85.2851" ry="18"/>
<text text-anchor="middle" x="159.391" y="-158.3" font-family="Times,serif" font-size="14.00" fill="#000000">demean (utility)</text>
</g>
<!-- denoise (fsl)&#45;&gt;demean (utility) -->
<g id="edge5" class="edge">
<title>denoise (fsl)&#45;&gt;demean (utility)</title>
<path fill="none" stroke="#000000" d="M160.1387,-215.8314C160.0317,-208.131 159.9045,-198.9743 159.7857,-190.4166"/>
<polygon fill="#000000" stroke="#000000" points="163.2854,-190.3637 159.6467,-180.4133 156.2861,-190.4609 163.2854,-190.3637"/>
</g>
<!-- demean (utility)&#45;&gt;cleanup_wf -->
<g id="edge6" class="edge">
<title>demean (utility)&#45;&gt;cleanup_wf</title>
<path fill="none" stroke="#000000" d="M145.0539,-144.2022C138.1005,-135.5704 129.6208,-125.0439 121.9904,-115.5717"/>
<polygon fill="#000000" stroke="#000000" points="124.5621,-113.1849 115.5632,-107.593 119.1109,-117.5763 124.5621,-113.1849"/>
</g>
</g>
</svg>
