<?xml version="1.0" encoding="UTF-8" standalone="no"?>
<!DOCTYPE svg PUBLIC "-//W3C//DTD SVG 1.1//EN"
 "http://www.w3.org/Graphics/SVG/1.1/DTD/svg11.dtd">
<!-- Generated by graphviz version 2.40.1 (20161225.0304)
 -->
<!-- Title: %3 Pages: 1 -->
<svg width="398pt" height="548pt"
 viewBox="0.00 0.00 397.74 548.00" xmlns="http://www.w3.org/2000/svg" xmlns:xlink="http://www.w3.org/1999/xlink">
<g id="graph0" class="graph" transform="scale(1 1) rotate(0) translate(4 544)">
<title>%3</title>
<polygon fill="#ffffff" stroke="transparent" points="-4,4 -4,-544 393.7354,-544 393.7354,4 -4,4"/>
<!-- inputnode (utility) -->
<g id="node1" class="node">
<title>inputnode (utility)</title>
<ellipse fill="none" stroke="#000000" cx="164.0422" cy="-522" rx="94.7833" ry="18"/>
<text text-anchor="middle" x="164.0422" y="-518.3" font-family="Times,serif" font-size="14.00" fill="#000000">inputnode (utility)</text>
</g>
<!-- split (utility) -->
<g id="node2" class="node">
<title>split (utility)</title>
<ellipse fill="none" stroke="#000000" cx="116.0422" cy="-450" rx="68.7879" ry="18"/>
<text text-anchor="middle" x="116.0422" y="-446.3" font-family="Times,serif" font-size="14.00" fill="#000000">split (utility)</text>
</g>
<!-- inputnode (utility)&#45;&gt;split (utility) -->
<g id="edge1" class="edge">
<title>inputnode (utility)&#45;&gt;split (utility)</title>
<path fill="none" stroke="#000000" d="M151.9297,-503.8314C146.3735,-495.497 139.68,-485.4567 133.5863,-476.3162"/>
<polygon fill="#000000" stroke="#000000" points="136.4437,-474.2925 127.9844,-467.9134 130.6193,-478.1754 136.4437,-474.2925"/>
</g>
<!-- magnitude_wf -->
<g id="node3" class="node">
<title>magnitude_wf</title>
<ellipse fill="none" stroke="#000000" cx="313.0422" cy="-378" rx="76.8869" ry="18"/>
<text text-anchor="middle" x="313.0422" y="-374.3" font-family="Times,serif" font-size="14.00" fill="#000000">magnitude_wf</text>
</g>
<!-- inputnode (utility)&#45;&gt;magnitude_wf -->
<g id="edge2" class="edge">
<title>inputnode (utility)&#45;&gt;magnitude_wf</title>
<path fill="none" stroke="#000000" d="M182.6119,-504.0535C208.9652,-478.5844 257.3225,-431.8499 287.1756,-402.9986"/>
<polygon fill="#000000" stroke="#000000" points="289.9481,-405.1865 294.7065,-395.7204 285.0835,-400.153 289.9481,-405.1865"/>
</g>
<!-- phmap2rads (fmap) -->
<g id="node4" class="node">
<title>phmap2rads (fmap)</title>
<ellipse fill="none" stroke="#000000" cx="116.0422" cy="-378" rx="102.0819" ry="18"/>
<text text-anchor="middle" x="116.0422" y="-374.3" font-family="Times,serif" font-size="14.00" fill="#000000">phmap2rads (fmap)</text>
</g>
<!-- split (utility)&#45;&gt;phmap2rads (fmap) -->
<g id="edge3" class="edge">
<title>split (utility)&#45;&gt;phmap2rads (fmap)</title>
<path fill="none" stroke="#000000" d="M116.0422,-431.8314C116.0422,-424.131 116.0422,-414.9743 116.0422,-406.4166"/>
<polygon fill="#000000" stroke="#000000" points="119.5423,-406.4132 116.0422,-396.4133 112.5423,-406.4133 119.5423,-406.4132"/>
</g>
<!-- calc_phdiff (fmap) -->
<g id="node5" class="node">
<title>calc_phdiff (fmap)</title>
<ellipse fill="none" stroke="#000000" cx="125.0422" cy="-234" rx="94.7833" ry="18"/>
<text text-anchor="middle" x="125.0422" y="-230.3" font-family="Times,serif" font-size="14.00" fill="#000000">calc_phdiff (fmap)</text>
</g>
<!-- split (utility)&#45;&gt;calc_phdiff (fmap) -->
<g id="edge4" class="edge">
<title>split (utility)&#45;&gt;calc_phdiff (fmap)</title>
<path fill="none" stroke="#000000" d="M64.3003,-438.0196C42.0459,-430.0255 18.1693,-416.9842 5.0422,-396 -3.4434,-382.4355 .787,-375.4238 5.0422,-360 14.9547,-324.0698 22.6689,-315.3026 48.0422,-288 59.0748,-276.1284 73.1277,-265.3448 86.2002,-256.5901"/>
<polygon fill="#000000" stroke="#000000" points="88.121,-259.5161 94.6075,-251.139 84.3127,-253.6426 88.121,-259.5161"/>
</g>
<!-- prelude (fsl) -->
<g id="node6" class="node">
<title>prelude (fsl)</title>
<ellipse fill="none" stroke="#000000" cx="125.0422" cy="-306" rx="67.6881" ry="18"/>
<text text-anchor="middle" x="125.0422" y="-302.3" font-family="Times,serif" font-size="14.00" fill="#000000">prelude (fsl)</text>
</g>
<!-- magnitude_wf&#45;&gt;prelude (fsl) -->
<g id="edge5" class="edge">
<title>magnitude_wf&#45;&gt;prelude (fsl)</title>
<path fill="none" stroke="#000000" d="M272.7114,-362.5542C243.6022,-351.406 204.1664,-336.3029 173.3705,-324.5087"/>
<polygon fill="#000000" stroke="#000000" points="174.2898,-321.113 163.6995,-320.8049 171.7862,-327.65 174.2898,-321.113"/>
</g>
<!-- fmap_postproc_wf -->
<g id="node7" class="node">
<title>fmap_postproc_wf</title>
<ellipse fill="none" stroke="#000000" cx="189.0422" cy="-162" rx="96.3833" ry="18"/>
<text text-anchor="middle" x="189.0422" y="-158.3" font-family="Times,serif" font-size="14.00" fill="#000000">fmap_postproc_wf</text>
</g>
<!-- magnitude_wf&#45;&gt;fmap_postproc_wf -->
<g id="edge6" class="edge">
<title>magnitude_wf&#45;&gt;fmap_postproc_wf</title>
<path fill="none" stroke="#000000" d="M304.8607,-359.9911C290.7717,-329.5333 260.4086,-266.2588 229.0422,-216 223.2049,-206.6469 216.2266,-196.8407 209.745,-188.1904"/>
<polygon fill="#000000" stroke="#000000" points="212.3359,-185.8158 203.4898,-179.9851 206.769,-190.0597 212.3359,-185.8158"/>
</g>
<!-- outputnode (utility) -->
<g id="node8" class="node">
<title>outputnode (utility)</title>
<ellipse fill="none" stroke="#000000" cx="251.0422" cy="-18" rx="101.2821" ry="18"/>
<text text-anchor="middle" x="251.0422" y="-14.3" font-family="Times,serif" font-size="14.00" fill="#000000">outputnode (utility)</text>
</g>
<!-- magnitude_wf&#45;&gt;outputnode (utility) -->
<g id="edge7" class="edge">
<title>magnitude_wf&#45;&gt;outputnode (utility)</title>
<path fill="none" stroke="#000000" d="M313.0422,-359.8146C313.0422,-332.4983 313.0422,-279.25 313.0422,-234 313.0422,-234 313.0422,-234 313.0422,-162 313.0422,-121.0242 310.49,-109.0754 293.0422,-72 288.4148,-62.1671 281.7297,-52.4647 275.0491,-44.0556"/>
<polygon fill="#000000" stroke="#000000" points="277.533,-41.5688 268.4463,-36.1207 272.1523,-46.0463 277.533,-41.5688"/>
</g>
<!-- phmap2rads (fmap)&#45;&gt;prelude (fsl) -->
<g id="edge8" class="edge">
<title>phmap2rads (fmap)&#45;&gt;prelude (fsl)</title>
<path fill="none" stroke="#000000" d="M118.3132,-359.8314C119.2758,-352.131 120.4204,-342.9743 121.4901,-334.4166"/>
<polygon fill="#000000" stroke="#000000" points="124.973,-334.7702 122.7405,-324.4133 118.0271,-333.9019 124.973,-334.7702"/>
</g>
<!-- calc_phdiff (fmap)&#45;&gt;fmap_postproc_wf -->
<g id="edge9" class="edge">
<title>calc_phdiff (fmap)&#45;&gt;fmap_postproc_wf</title>
<path fill="none" stroke="#000000" d="M140.8624,-216.2022C148.5548,-207.5483 157.94,-196.99 166.3765,-187.4988"/>
<polygon fill="#000000" stroke="#000000" points="169.1544,-189.6419 173.1821,-179.8425 163.9225,-184.9914 169.1544,-189.6419"/>
</g>
<!-- prelude (fsl)&#45;&gt;calc_phdiff (fmap) -->
<g id="edge10" class="edge">
<title>prelude (fsl)&#45;&gt;calc_phdiff (fmap)</title>
<path fill="none" stroke="#000000" d="M125.0422,-287.8314C125.0422,-280.131 125.0422,-270.9743 125.0422,-262.4166"/>
<polygon fill="#000000" stroke="#000000" points="128.5423,-262.4132 125.0422,-252.4133 121.5423,-262.4133 128.5423,-262.4132"/>
</g>
<!-- compfmap (fmap) -->
<g id="node9" class="node">
<title>compfmap (fmap)</title>
<ellipse fill="none" stroke="#000000" cx="191.0422" cy="-90" rx="92.8835" ry="18"/>
<text text-anchor="middle" x="191.0422" y="-86.3" font-family="Times,serif" font-size="14.00" fill="#000000">compfmap (fmap)</text>
</g>
<!-- fmap_postproc_wf&#45;&gt;compfmap (fmap) -->
<g id="edge11" class="edge">
<title>fmap_postproc_wf&#45;&gt;compfmap (fmap)</title>
<path fill="none" stroke="#000000" d="M189.5468,-143.8314C189.7607,-136.131 190.0151,-126.9743 190.2528,-118.4166"/>
<polygon fill="#000000" stroke="#000000" points="193.7516,-118.5066 190.5307,-108.4133 186.7543,-118.3122 193.7516,-118.5066"/>
</g>
<!-- compfmap (fmap)&#45;&gt;outputnode (utility) -->
<g id="edge12" class="edge">
<title>compfmap (fmap)&#45;&gt;outputnode (utility)</title>
<path fill="none" stroke="#000000" d="M205.8736,-72.2022C213.0131,-63.6348 221.708,-53.2009 229.5556,-43.7839"/>
<polygon fill="#000000" stroke="#000000" points="232.4603,-45.7654 236.1734,-35.8425 227.0827,-41.2841 232.4603,-45.7654"/>
</g>
</g>
</svg>
