<?xml version="1.0" encoding="UTF-8" standalone="no"?>
<!DOCTYPE svg PUBLIC "-//W3C//DTD SVG 1.1//EN"
 "http://www.w3.org/Graphics/SVG/1.1/DTD/svg11.dtd">
<!-- Generated by graphviz version 2.40.1 (20161225.0304)
 -->
<!-- Title: %3 Pages: 1 -->
<svg width="461pt" height="260pt"
 viewBox="0.00 0.00 461.36 260.00" xmlns="http://www.w3.org/2000/svg" xmlns:xlink="http://www.w3.org/1999/xlink">
<g id="graph0" class="graph" transform="scale(1 1) rotate(0) translate(4 256)">
<title>%3</title>
<polygon fill="#ffffff" stroke="transparent" points="-4,4 -4,-256 457.3603,-256 457.3603,4 -4,4"/>
<!-- inputnode (utility) -->
<g id="node1" class="node">
<title>inputnode (utility)</title>
<ellipse fill="none" stroke="#000000" cx="341.09" cy="-234" rx="94.7833" ry="18"/>
<text text-anchor="middle" x="341.09" y="-230.3" font-family="Times,serif" font-size="14.00" fill="#000000">inputnode (utility)</text>
</g>
<!-- concat_blips (nibabel) -->
<g id="node2" class="node">
<title>concat_blips (nibabel)</title>
<ellipse fill="none" stroke="#000000" cx="113.09" cy="-162" rx="113.18" ry="18"/>
<text text-anchor="middle" x="113.09" y="-158.3" font-family="Times,serif" font-size="14.00" fill="#000000">concat_blips (nibabel)</text>
</g>
<!-- inputnode (utility)&#45;&gt;concat_blips (nibabel) -->
<g id="edge1" class="edge">
<title>inputnode (utility)&#45;&gt;concat_blips (nibabel)</title>
<path fill="none" stroke="#000000" d="M292.1782,-218.5542C257.5854,-207.6302 210.9677,-192.9088 173.9667,-181.2242"/>
<polygon fill="#000000" stroke="#000000" points="174.8829,-177.8433 164.2931,-178.1694 172.775,-184.5183 174.8829,-177.8433"/>
</g>
<!-- readout_time (epi) -->
<g id="node3" class="node">
<title>readout_time (epi)</title>
<ellipse fill="none" stroke="#000000" cx="341.09" cy="-162" rx="96.6831" ry="18"/>
<text text-anchor="middle" x="341.09" y="-158.3" font-family="Times,serif" font-size="14.00" fill="#000000">readout_time (epi)</text>
</g>
<!-- inputnode (utility)&#45;&gt;readout_time (epi) -->
<g id="edge2" class="edge">
<title>inputnode (utility)&#45;&gt;readout_time (epi)</title>
<path fill="none" stroke="#000000" d="M341.09,-215.8314C341.09,-208.131 341.09,-198.9743 341.09,-190.4166"/>
<polygon fill="#000000" stroke="#000000" points="344.5901,-190.4132 341.09,-180.4133 337.5901,-190.4133 344.5901,-190.4132"/>
</g>
<!-- topup (fsl) -->
<g id="node4" class="node">
<title>topup (fsl)</title>
<ellipse fill="none" stroke="#000000" cx="341.09" cy="-90" rx="58.4896" ry="18"/>
<text text-anchor="middle" x="341.09" y="-86.3" font-family="Times,serif" font-size="14.00" fill="#000000">topup (fsl)</text>
</g>
<!-- inputnode (utility)&#45;&gt;topup (fsl) -->
<g id="edge3" class="edge">
<title>inputnode (utility)&#45;&gt;topup (fsl)</title>
<path fill="none" stroke="#000000" d="M396.1157,-219.2165C415.7008,-211.0145 435.7045,-198.5778 447.09,-180 455.4504,-166.3581 455.4504,-157.6419 447.09,-144 435.7753,-125.5377 415.9493,-113.1405 396.4812,-104.937"/>
<polygon fill="#000000" stroke="#000000" points="397.5802,-101.6089 386.9918,-101.2386 395.0381,-108.1311 397.5802,-101.6089"/>
</g>
<!-- concat_blips (nibabel)&#45;&gt;topup (fsl) -->
<g id="edge4" class="edge">
<title>concat_blips (nibabel)&#45;&gt;topup (fsl)</title>
<path fill="none" stroke="#000000" d="M164.2576,-145.8418C201.8607,-133.9671 252.7278,-117.9039 290.2529,-106.0538"/>
<polygon fill="#000000" stroke="#000000" points="291.4923,-109.3329 299.9742,-102.9839 289.3843,-102.6578 291.4923,-109.3329"/>
</g>
<!-- readout_time (epi)&#45;&gt;topup (fsl) -->
<g id="edge5" class="edge">
<title>readout_time (epi)&#45;&gt;topup (fsl)</title>
<path fill="none" stroke="#000000" d="M341.09,-143.8314C341.09,-136.131 341.09,-126.9743 341.09,-118.4166"/>
<polygon fill="#000000" stroke="#000000" points="344.5901,-118.4132 341.09,-108.4133 337.5901,-118.4133 344.5901,-118.4132"/>
</g>
<!-- outputnode (utility) -->
<g id="node5" class="node">
<title>outputnode (utility)</title>
<ellipse fill="none" stroke="#000000" cx="341.09" cy="-18" rx="101.2821" ry="18"/>
<text text-anchor="middle" x="341.09" y="-14.3" font-family="Times,serif" font-size="14.00" fill="#000000">outputnode (utility)</text>
</g>
<!-- topup (fsl)&#45;&gt;outputnode (utility) -->
<g id="edge6" class="edge">
<title>topup (fsl)&#45;&gt;outputnode (utility)</title>
<path fill="none" stroke="#000000" d="M341.09,-71.8314C341.09,-64.131 341.09,-54.9743 341.09,-46.4166"/>
<polygon fill="#000000" stroke="#000000" points="344.5901,-46.4132 341.09,-36.4133 337.5901,-46.4133 344.5901,-46.4132"/>
</g>
</g>
</svg>
