<?xml version="1.0" encoding="UTF-8" standalone="no"?>
<!DOCTYPE svg PUBLIC "-//W3C//DTD SVG 1.1//EN"
 "http://www.w3.org/Graphics/SVG/1.1/DTD/svg11.dtd">
<!-- Generated by graphviz version 2.40.1 (20161225.0304)
 -->
<!-- Title: %3 Pages: 1 -->
<svg width="362pt" height="692pt"
 viewBox="0.00 0.00 361.94 692.00" xmlns="http://www.w3.org/2000/svg" xmlns:xlink="http://www.w3.org/1999/xlink">
<g id="graph0" class="graph" transform="scale(1 1) rotate(0) translate(4 688)">
<title>%3</title>
<polygon fill="#ffffff" stroke="transparent" points="-4,4 -4,-688 357.9418,-688 357.9418,4 -4,4"/>
<!-- inputnode (utility) -->
<g id="node1" class="node">
<title>inputnode (utility)</title>
<ellipse fill="none" stroke="#000000" cx="120" cy="-666" rx="94.7833" ry="18"/>
<text text-anchor="middle" x="120" y="-662.3" font-family="Times,serif" font-size="14.00" fill="#000000">inputnode (utility)</text>
</g>
<!-- compfmap (fmap) -->
<g id="node2" class="node">
<title>compfmap (fmap)</title>
<ellipse fill="none" stroke="#000000" cx="158" cy="-90" rx="92.8835" ry="18"/>
<text text-anchor="middle" x="158" y="-86.3" font-family="Times,serif" font-size="14.00" fill="#000000">compfmap (fmap)</text>
</g>
<!-- inputnode (utility)&#45;&gt;compfmap (fmap) -->
<g id="edge1" class="edge">
<title>inputnode (utility)&#45;&gt;compfmap (fmap)</title>
<path fill="none" stroke="#000000" d="M91.257,-648.775C55.7561,-625.0647 0,-578.787 0,-522 0,-522 0,-522 0,-234 0,-174.7995 61.3419,-133.4668 107.5827,-110.7195"/>
<polygon fill="#000000" stroke="#000000" points="109.3759,-113.7422 116.8998,-106.2829 106.3664,-107.4221 109.3759,-113.7422"/>
</g>
<!-- magmrg (images) -->
<g id="node3" class="node">
<title>magmrg (images)</title>
<ellipse fill="none" stroke="#000000" cx="261" cy="-594" rx="92.8835" ry="18"/>
<text text-anchor="middle" x="261" y="-590.3" font-family="Times,serif" font-size="14.00" fill="#000000">magmrg (images)</text>
</g>
<!-- inputnode (utility)&#45;&gt;magmrg (images) -->
<g id="edge2" class="edge">
<title>inputnode (utility)&#45;&gt;magmrg (images)</title>
<path fill="none" stroke="#000000" d="M153.0582,-649.1192C172.6279,-639.1262 197.6199,-626.3643 218.6267,-615.6374"/>
<polygon fill="#000000" stroke="#000000" points="220.346,-618.6895 227.6603,-611.0245 217.1625,-612.4552 220.346,-618.6895"/>
</g>
<!-- pha2rads (utility) -->
<g id="node4" class="node">
<title>pha2rads (utility)</title>
<ellipse fill="none" stroke="#000000" cx="120" cy="-522" rx="91.784" ry="18"/>
<text text-anchor="middle" x="120" y="-518.3" font-family="Times,serif" font-size="14.00" fill="#000000">pha2rads (utility)</text>
</g>
<!-- inputnode (utility)&#45;&gt;pha2rads (utility) -->
<g id="edge3" class="edge">
<title>inputnode (utility)&#45;&gt;pha2rads (utility)</title>
<path fill="none" stroke="#000000" d="M120,-647.7623C120,-623.201 120,-579.2474 120,-550.3541"/>
<polygon fill="#000000" stroke="#000000" points="123.5001,-550.0896 120,-540.0896 116.5001,-550.0897 123.5001,-550.0896"/>
</g>
<!-- outputnode (utility) -->
<g id="node5" class="node">
<title>outputnode (utility)</title>
<ellipse fill="none" stroke="#000000" cx="233" cy="-18" rx="101.2821" ry="18"/>
<text text-anchor="middle" x="233" y="-14.3" font-family="Times,serif" font-size="14.00" fill="#000000">outputnode (utility)</text>
</g>
<!-- compfmap (fmap)&#45;&gt;outputnode (utility) -->
<g id="edge4" class="edge">
<title>compfmap (fmap)&#45;&gt;outputnode (utility)</title>
<path fill="none" stroke="#000000" d="M176.5393,-72.2022C185.7342,-63.3752 196.9928,-52.5669 207.0305,-42.9307"/>
<polygon fill="#000000" stroke="#000000" points="209.624,-45.2928 214.414,-35.8425 204.7762,-40.243 209.624,-45.2928"/>
</g>
<!-- n4 (ants) -->
<g id="node6" class="node">
<title>n4 (ants)</title>
<ellipse fill="none" stroke="#000000" cx="282" cy="-522" rx="51.9908" ry="18"/>
<text text-anchor="middle" x="282" y="-518.3" font-family="Times,serif" font-size="14.00" fill="#000000">n4 (ants)</text>
</g>
<!-- magmrg (images)&#45;&gt;n4 (ants) -->
<g id="edge5" class="edge">
<title>magmrg (images)&#45;&gt;n4 (ants)</title>
<path fill="none" stroke="#000000" d="M266.2992,-575.8314C268.6048,-567.9266 271.3579,-558.4872 273.9102,-549.7365"/>
<polygon fill="#000000" stroke="#000000" points="277.3352,-550.4934 276.7753,-539.9134 270.6152,-548.5334 277.3352,-550.4934"/>
</g>
<!-- prelude (fsl) -->
<g id="node7" class="node">
<title>prelude (fsl)</title>
<ellipse fill="none" stroke="#000000" cx="152" cy="-378" rx="67.6881" ry="18"/>
<text text-anchor="middle" x="152" y="-374.3" font-family="Times,serif" font-size="14.00" fill="#000000">prelude (fsl)</text>
</g>
<!-- pha2rads (utility)&#45;&gt;prelude (fsl) -->
<g id="edge6" class="edge">
<title>pha2rads (utility)&#45;&gt;prelude (fsl)</title>
<path fill="none" stroke="#000000" d="M124.0528,-503.7623C129.5349,-479.0928 139.3645,-434.8598 145.7838,-405.9731"/>
<polygon fill="#000000" stroke="#000000" points="149.2274,-406.6108 147.9801,-396.0896 142.394,-405.0922 149.2274,-406.6108"/>
</g>
<!-- n4 (ants)&#45;&gt;prelude (fsl) -->
<g id="edge7" class="edge">
<title>n4 (ants)&#45;&gt;prelude (fsl)</title>
<path fill="none" stroke="#000000" d="M252.0243,-507.0931C235.1991,-497.6241 214.6991,-484.1241 200,-468 183.3389,-449.7238 170.5711,-424.6036 162.4072,-405.5458"/>
<polygon fill="#000000" stroke="#000000" points="165.6037,-404.1163 158.5614,-396.2007 159.1305,-406.7803 165.6037,-404.1163"/>
</g>
<!-- bet (masks) -->
<g id="node8" class="node">
<title>bet (masks)</title>
<ellipse fill="none" stroke="#000000" cx="275" cy="-450" rx="65.7887" ry="18"/>
<text text-anchor="middle" x="275" y="-446.3" font-family="Times,serif" font-size="14.00" fill="#000000">bet (masks)</text>
</g>
<!-- n4 (ants)&#45;&gt;bet (masks) -->
<g id="edge8" class="edge">
<title>n4 (ants)&#45;&gt;bet (masks)</title>
<path fill="none" stroke="#000000" d="M280.2336,-503.8314C279.485,-496.131 278.5947,-486.9743 277.7627,-478.4166"/>
<polygon fill="#000000" stroke="#000000" points="281.2415,-478.0276 276.7902,-468.4133 274.2744,-478.7051 281.2415,-478.0276"/>
</g>
<!-- denoise (fsl) -->
<g id="node9" class="node">
<title>denoise (fsl)</title>
<ellipse fill="none" stroke="#000000" cx="147" cy="-306" rx="67.6881" ry="18"/>
<text text-anchor="middle" x="147" y="-302.3" font-family="Times,serif" font-size="14.00" fill="#000000">denoise (fsl)</text>
</g>
<!-- prelude (fsl)&#45;&gt;denoise (fsl) -->
<g id="edge9" class="edge">
<title>prelude (fsl)&#45;&gt;denoise (fsl)</title>
<path fill="none" stroke="#000000" d="M150.7383,-359.8314C150.2035,-352.131 149.5677,-342.9743 148.9734,-334.4166"/>
<polygon fill="#000000" stroke="#000000" points="152.4632,-334.1467 148.2787,-324.4133 145.48,-334.6317 152.4632,-334.1467"/>
</g>
<!-- bet (masks)&#45;&gt;outputnode (utility) -->
<g id="edge12" class="edge">
<title>bet (masks)&#45;&gt;outputnode (utility)</title>
<path fill="none" stroke="#000000" d="M278.9368,-431.9156C284.502,-404.7281 294,-351.6422 294,-306 294,-306 294,-306 294,-162 294,-118.1465 269.7171,-72.307 251.7932,-44.4447"/>
<polygon fill="#000000" stroke="#000000" points="254.6765,-42.4595 246.2361,-36.0555 248.8407,-46.3253 254.6765,-42.4595"/>
</g>
<!-- bet (masks)&#45;&gt;prelude (fsl) -->
<g id="edge10" class="edge">
<title>bet (masks)&#45;&gt;prelude (fsl)</title>
<path fill="none" stroke="#000000" d="M247.0894,-433.6621C229.9123,-423.6072 207.6922,-410.6003 189.0515,-399.6887"/>
<polygon fill="#000000" stroke="#000000" points="190.6242,-396.5538 180.2259,-394.5225 187.0879,-402.5949 190.6242,-396.5538"/>
</g>
<!-- cleanup_wf -->
<g id="node10" class="node">
<title>cleanup_wf</title>
<ellipse fill="none" stroke="#000000" cx="158" cy="-162" rx="63.8893" ry="18"/>
<text text-anchor="middle" x="158" y="-158.3" font-family="Times,serif" font-size="14.00" fill="#000000">cleanup_wf</text>
</g>
<!-- bet (masks)&#45;&gt;cleanup_wf -->
<g id="edge11" class="edge">
<title>bet (masks)&#45;&gt;cleanup_wf</title>
<path fill="none" stroke="#000000" d="M276.6356,-431.9066C279.4908,-390.2552 281.3692,-285.8209 237,-216 228.2289,-202.1975 214.5225,-191.0254 200.973,-182.5017"/>
<polygon fill="#000000" stroke="#000000" points="202.5345,-179.3589 192.1453,-177.2818 198.9716,-185.3844 202.5345,-179.3589"/>
</g>
<!-- demean (utility) -->
<g id="node11" class="node">
<title>demean (utility)</title>
<ellipse fill="none" stroke="#000000" cx="143" cy="-234" rx="85.2851" ry="18"/>
<text text-anchor="middle" x="143" y="-230.3" font-family="Times,serif" font-size="14.00" fill="#000000">demean (utility)</text>
</g>
<!-- denoise (fsl)&#45;&gt;demean (utility) -->
<g id="edge13" class="edge">
<title>denoise (fsl)&#45;&gt;demean (utility)</title>
<path fill="none" stroke="#000000" d="M145.9906,-287.8314C145.5628,-280.131 145.0541,-270.9743 144.5787,-262.4166"/>
<polygon fill="#000000" stroke="#000000" points="148.0724,-262.2037 144.023,-252.4133 141.0831,-262.592 148.0724,-262.2037"/>
</g>
<!-- cleanup_wf&#45;&gt;compfmap (fmap) -->
<g id="edge14" class="edge">
<title>cleanup_wf&#45;&gt;compfmap (fmap)</title>
<path fill="none" stroke="#000000" d="M158,-143.8314C158,-136.131 158,-126.9743 158,-118.4166"/>
<polygon fill="#000000" stroke="#000000" points="161.5001,-118.4132 158,-108.4133 154.5001,-118.4133 161.5001,-118.4132"/>
</g>
<!-- demean (utility)&#45;&gt;cleanup_wf -->
<g id="edge15" class="edge">
<title>demean (utility)&#45;&gt;cleanup_wf</title>
<path fill="none" stroke="#000000" d="M146.7851,-215.8314C148.3894,-208.131 150.297,-198.9743 152.0799,-190.4166"/>
<polygon fill="#000000" stroke="#000000" points="155.5507,-190.9169 154.1639,-180.4133 148.6979,-189.4892 155.5507,-190.9169"/>
</g>
</g>
</svg>
