<?xml version="1.0" encoding="UTF-8" standalone="no"?>
<!DOCTYPE svg PUBLIC "-//W3C//DTD SVG 1.1//EN"
 "http://www.w3.org/Graphics/SVG/1.1/DTD/svg11.dtd">
<!-- Generated by graphviz version 2.40.1 (20161225.0304)
 -->
<!-- Title: %3 Pages: 1 -->
<svg width="1180pt" height="692pt"
 viewBox="0.00 0.00 1179.77 692.00" xmlns="http://www.w3.org/2000/svg" xmlns:xlink="http://www.w3.org/1999/xlink">
<g id="graph0" class="graph" transform="scale(1 1) rotate(0) translate(4 688)">
<title>%3</title>
<polygon fill="#ffffff" stroke="transparent" points="-4,4 -4,-688 1175.7712,-688 1175.7712,4 -4,4"/>
<!-- inputnode (utility) -->
<g id="node1" class="node">
<title>inputnode (utility)</title>
<ellipse fill="none" stroke="#000000" cx="486.8031" cy="-666" rx="94.7833" ry="18"/>
<text text-anchor="middle" x="486.8031" y="-662.3" font-family="Times,serif" font-size="14.00" fill="#000000">inputnode (utility)</text>
</g>
<!-- fmap2ref_reg (registration) -->
<g id="node2" class="node">
<title>fmap2ref_reg (registration)</title>
<ellipse fill="none" stroke="#000000" cx="652.8031" cy="-594" rx="138.3755" ry="18"/>
<text text-anchor="middle" x="652.8031" y="-590.3" font-family="Times,serif" font-size="14.00" fill="#000000">fmap2ref_reg (registration)</text>
</g>
<!-- inputnode (utility)&#45;&gt;fmap2ref_reg (registration) -->
<g id="edge1" class="edge">
<title>inputnode (utility)&#45;&gt;fmap2ref_reg (registration)</title>
<path fill="none" stroke="#000000" d="M524.8869,-649.4817C548.2281,-639.3578 578.3511,-626.2924 603.5016,-615.3838"/>
<polygon fill="#000000" stroke="#000000" points="605.0914,-618.5094 612.8729,-611.3192 602.3059,-612.0874 605.0914,-618.5094"/>
</g>
<!-- fmap2ref_apply (registration) -->
<g id="node3" class="node">
<title>fmap2ref_apply (registration)</title>
<ellipse fill="none" stroke="#000000" cx="328.8031" cy="-522" rx="148.3739" ry="18"/>
<text text-anchor="middle" x="328.8031" y="-518.3" font-family="Times,serif" font-size="14.00" fill="#000000">fmap2ref_apply (registration)</text>
</g>
<!-- inputnode (utility)&#45;&gt;fmap2ref_apply (registration) -->
<g id="edge2" class="edge">
<title>inputnode (utility)&#45;&gt;fmap2ref_apply (registration)</title>
<path fill="none" stroke="#000000" d="M467.4292,-648.3428C439.5498,-622.9337 387.9842,-575.9372 356.2096,-546.978"/>
<polygon fill="#000000" stroke="#000000" points="358.3327,-544.1775 348.5841,-540.0282 353.6175,-549.3511 358.3327,-544.1775"/>
</g>
<!-- fmap_mask2ref_apply (registration) -->
<g id="node4" class="node">
<title>fmap_mask2ref_apply (registration)</title>
<ellipse fill="none" stroke="#000000" cx="758.8031" cy="-450" rx="178.1684" ry="18"/>
<text text-anchor="middle" x="758.8031" y="-446.3" font-family="Times,serif" font-size="14.00" fill="#000000">fmap_mask2ref_apply (registration)</text>
</g>
<!-- inputnode (utility)&#45;&gt;fmap_mask2ref_apply (registration) -->
<g id="edge3" class="edge">
<title>inputnode (utility)&#45;&gt;fmap_mask2ref_apply (registration)</title>
<path fill="none" stroke="#000000" d="M485.1707,-647.9608C483.2209,-614.5205 484.2636,-542.791 523.8031,-504 540.8914,-487.2352 589.6157,-474.672 638.2979,-465.9023"/>
<polygon fill="#000000" stroke="#000000" points="639.1015,-469.315 648.3486,-464.1437 637.895,-462.4197 639.1015,-469.315"/>
</g>
<!-- get_ees (utility) -->
<g id="node5" class="node">
<title>get_ees (utility)</title>
<ellipse fill="none" stroke="#000000" cx="114.8031" cy="-594" rx="83.6854" ry="18"/>
<text text-anchor="middle" x="114.8031" y="-590.3" font-family="Times,serif" font-size="14.00" fill="#000000">get_ees (utility)</text>
</g>
<!-- inputnode (utility)&#45;&gt;get_ees (utility) -->
<g id="edge4" class="edge">
<title>inputnode (utility)&#45;&gt;get_ees (utility)</title>
<path fill="none" stroke="#000000" d="M420.297,-653.1278C354.7987,-640.4508 255.0176,-621.1383 187.4673,-608.064"/>
<polygon fill="#000000" stroke="#000000" points="187.811,-604.5657 177.3281,-606.1016 186.4808,-611.4381 187.811,-604.5657"/>
</g>
<!-- gen_vsm (fsl) -->
<g id="node6" class="node">
<title>gen_vsm (fsl)</title>
<ellipse fill="none" stroke="#000000" cx="253.8031" cy="-378" rx="72.5877" ry="18"/>
<text text-anchor="middle" x="253.8031" y="-374.3" font-family="Times,serif" font-size="14.00" fill="#000000">gen_vsm (fsl)</text>
</g>
<!-- inputnode (utility)&#45;&gt;gen_vsm (fsl) -->
<g id="edge5" class="edge">
<title>inputnode (utility)&#45;&gt;gen_vsm (fsl)</title>
<path fill="none" stroke="#000000" d="M430.2516,-651.5358C347.9841,-629.2203 201.8111,-584.3228 171.8031,-540 144.8929,-500.2528 149.0345,-474.2562 171.8031,-432 179.4307,-417.8439 192.5718,-406.7881 206.127,-398.4699"/>
<polygon fill="#000000" stroke="#000000" points="208.083,-401.3839 215.0408,-393.394 204.619,-395.301 208.083,-401.3839"/>
</g>
<!-- vsm2dfm (itk) -->
<g id="node7" class="node">
<title>vsm2dfm (itk)</title>
<ellipse fill="none" stroke="#000000" cx="449.8031" cy="-306" rx="76.0865" ry="18"/>
<text text-anchor="middle" x="449.8031" y="-302.3" font-family="Times,serif" font-size="14.00" fill="#000000">vsm2dfm (itk)</text>
</g>
<!-- inputnode (utility)&#45;&gt;vsm2dfm (itk) -->
<g id="edge6" class="edge">
<title>inputnode (utility)&#45;&gt;vsm2dfm (itk)</title>
<path fill="none" stroke="#000000" d="M395.3349,-661.0624C267.7398,-653.3256 48.8309,-636.638 21.8031,-612 -8.4094,-584.4589 2.8031,-562.8816 2.8031,-522 2.8031,-522 2.8031,-522 2.8031,-450 2.8031,-373.5949 242.3991,-331.8809 370.762,-315.0153"/>
<polygon fill="#000000" stroke="#000000" points="371.4703,-318.4529 380.939,-313.6995 370.5727,-311.5107 371.4703,-318.4529"/>
</g>
<!-- unwarp_reference (registration) -->
<g id="node8" class="node">
<title>unwarp_reference (registration)</title>
<ellipse fill="none" stroke="#000000" cx="933.8031" cy="-234" rx="160.5715" ry="18"/>
<text text-anchor="middle" x="933.8031" y="-230.3" font-family="Times,serif" font-size="14.00" fill="#000000">unwarp_reference (registration)</text>
</g>
<!-- inputnode (utility)&#45;&gt;unwarp_reference (registration) -->
<g id="edge7" class="edge">
<title>inputnode (utility)&#45;&gt;unwarp_reference (registration)</title>
<path fill="none" stroke="#000000" d="M581.8533,-665.1213C754.3589,-662.5317 1104.6769,-652.313 1141.8031,-612 1246.6645,-498.1378 1046.6902,-321.7862 965.6988,-258.0291"/>
<polygon fill="#000000" stroke="#000000" points="967.831,-255.2534 957.7924,-251.8657 963.5273,-260.7742 967.831,-255.2534"/>
</g>
<!-- fieldmap_fov_mask (images) -->
<g id="node9" class="node">
<title>fieldmap_fov_mask (images)</title>
<ellipse fill="none" stroke="#000000" cx="989.8031" cy="-594" rx="142.9746" ry="18"/>
<text text-anchor="middle" x="989.8031" y="-590.3" font-family="Times,serif" font-size="14.00" fill="#000000">fieldmap_fov_mask (images)</text>
</g>
<!-- inputnode (utility)&#45;&gt;fieldmap_fov_mask (images) -->
<g id="edge8" class="edge">
<title>inputnode (utility)&#45;&gt;fieldmap_fov_mask (images)</title>
<path fill="none" stroke="#000000" d="M562.6519,-655.1429C648.5339,-642.8497 788.9968,-622.7436 885.2419,-608.967"/>
<polygon fill="#000000" stroke="#000000" points="885.8864,-612.4105 895.2896,-607.5288 884.8945,-605.4811 885.8864,-612.4105"/>
</g>
<!-- fmap_fov2ref_apply (registration) -->
<g id="node10" class="node">
<title>fmap_fov2ref_apply (registration)</title>
<ellipse fill="none" stroke="#000000" cx="965.8031" cy="-522" rx="167.0704" ry="18"/>
<text text-anchor="middle" x="965.8031" y="-518.3" font-family="Times,serif" font-size="14.00" fill="#000000">fmap_fov2ref_apply (registration)</text>
</g>
<!-- inputnode (utility)&#45;&gt;fmap_fov2ref_apply (registration) -->
<g id="edge9" class="edge">
<title>inputnode (utility)&#45;&gt;fmap_fov2ref_apply (registration)</title>
<path fill="none" stroke="#000000" d="M569.9397,-657.1654C648.6607,-647.8177 760.4882,-631.7048 799.8031,-612 820.6015,-601.5758 818.328,-588.7261 837.8031,-576 858.1169,-562.7259 882.2343,-551.5448 904.0279,-542.8618"/>
<polygon fill="#000000" stroke="#000000" points="905.4753,-546.0545 913.5306,-539.1725 902.9418,-539.529 905.4753,-546.0545"/>
</g>
<!-- fmap2ref_reg (registration)&#45;&gt;fmap2ref_apply (registration) -->
<g id="edge10" class="edge">
<title>fmap2ref_reg (registration)&#45;&gt;fmap2ref_apply (registration)</title>
<path fill="none" stroke="#000000" d="M582.5,-578.3771C531.7945,-567.1092 463.2184,-551.8701 410.147,-540.0764"/>
<polygon fill="#000000" stroke="#000000" points="410.6091,-536.5938 400.088,-537.8411 409.0906,-543.4271 410.6091,-536.5938"/>
</g>
<!-- fmap2ref_reg (registration)&#45;&gt;fmap_mask2ref_apply (registration) -->
<g id="edge11" class="edge">
<title>fmap2ref_reg (registration)&#45;&gt;fmap_mask2ref_apply (registration)</title>
<path fill="none" stroke="#000000" d="M705.1367,-577.2079C722.854,-568.8584 740.8975,-556.8456 751.8031,-540 763.5339,-521.8798 764.6681,-497.2054 763.2124,-478.2748"/>
<polygon fill="#000000" stroke="#000000" points="766.6754,-477.7376 762.1526,-468.1566 759.7135,-478.4669 766.6754,-477.7376"/>
</g>
<!-- fmap2ref_reg (registration)&#45;&gt;fmap_fov2ref_apply (registration) -->
<g id="edge13" class="edge">
<title>fmap2ref_reg (registration)&#45;&gt;fmap_fov2ref_apply (registration)</title>
<path fill="none" stroke="#000000" d="M721.1055,-578.2883C769.335,-567.1939 834.1572,-552.2828 884.9669,-540.5949"/>
<polygon fill="#000000" stroke="#000000" points="885.9721,-543.9552 894.9329,-538.3024 884.4028,-537.1333 885.9721,-543.9552"/>
</g>
<!-- ds_report_reg (bids) -->
<g id="node11" class="node">
<title>ds_report_reg (bids)</title>
<ellipse fill="none" stroke="#000000" cx="637.8031" cy="-522" rx="105.0817" ry="18"/>
<text text-anchor="middle" x="637.8031" y="-518.3" font-family="Times,serif" font-size="14.00" fill="#000000">ds_report_reg (bids)</text>
</g>
<!-- fmap2ref_reg (registration)&#45;&gt;ds_report_reg (bids) -->
<g id="edge12" class="edge">
<title>fmap2ref_reg (registration)&#45;&gt;ds_report_reg (bids)</title>
<path fill="none" stroke="#000000" d="M649.018,-575.8314C647.4137,-568.131 645.5061,-558.9743 643.7233,-550.4166"/>
<polygon fill="#000000" stroke="#000000" points="647.1053,-549.4892 641.6392,-540.4133 640.2524,-550.9169 647.1053,-549.4892"/>
</g>
<!-- ds_report_vsm (bids) -->
<g id="node12" class="node">
<title>ds_report_vsm (bids)</title>
<ellipse fill="none" stroke="#000000" cx="453.8031" cy="-450" rx="108.5808" ry="18"/>
<text text-anchor="middle" x="453.8031" y="-446.3" font-family="Times,serif" font-size="14.00" fill="#000000">ds_report_vsm (bids)</text>
</g>
<!-- fmap2ref_apply (registration)&#45;&gt;ds_report_vsm (bids) -->
<g id="edge14" class="edge">
<title>fmap2ref_apply (registration)&#45;&gt;ds_report_vsm (bids)</title>
<path fill="none" stroke="#000000" d="M359.3816,-504.3868C375.9997,-494.8147 396.7337,-482.872 414.5357,-472.6181"/>
<polygon fill="#000000" stroke="#000000" points="416.622,-475.4555 423.5404,-467.4313 413.1281,-469.3897 416.622,-475.4555"/>
</g>
<!-- torads (fmap) -->
<g id="node13" class="node">
<title>torads (fmap)</title>
<ellipse fill="none" stroke="#000000" cx="253.8031" cy="-450" rx="73.387" ry="18"/>
<text text-anchor="middle" x="253.8031" y="-446.3" font-family="Times,serif" font-size="14.00" fill="#000000">torads (fmap)</text>
</g>
<!-- fmap2ref_apply (registration)&#45;&gt;torads (fmap) -->
<g id="edge15" class="edge">
<title>fmap2ref_apply (registration)&#45;&gt;torads (fmap)</title>
<path fill="none" stroke="#000000" d="M309.8775,-503.8314C300.6791,-495.001 289.4861,-484.2556 279.5265,-474.6944"/>
<polygon fill="#000000" stroke="#000000" points="281.842,-472.0655 272.2042,-467.665 276.9942,-477.1152 281.842,-472.0655"/>
</g>
<!-- fmap_mask2ref_apply (registration)&#45;&gt;gen_vsm (fsl) -->
<g id="edge16" class="edge">
<title>fmap_mask2ref_apply (registration)&#45;&gt;gen_vsm (fsl)</title>
<path fill="none" stroke="#000000" d="M655.6953,-435.2995C557.8804,-421.3536 413.3597,-400.7487 326.8953,-388.4211"/>
<polygon fill="#000000" stroke="#000000" points="327.2984,-384.9432 316.9045,-386.9966 326.3103,-391.8731 327.2984,-384.9432"/>
</g>
<!-- enhance_and_skullstrip_bold_wf -->
<g id="node14" class="node">
<title>enhance_and_skullstrip_bold_wf</title>
<ellipse fill="none" stroke="#000000" cx="744.8031" cy="-90" rx="161.6714" ry="18"/>
<text text-anchor="middle" x="744.8031" y="-86.3" font-family="Times,serif" font-size="14.00" fill="#000000">enhance_and_skullstrip_bold_wf</text>
</g>
<!-- fmap_mask2ref_apply (registration)&#45;&gt;enhance_and_skullstrip_bold_wf -->
<g id="edge17" class="edge">
<title>fmap_mask2ref_apply (registration)&#45;&gt;enhance_and_skullstrip_bold_wf</title>
<path fill="none" stroke="#000000" d="M755.9023,-431.8696C751.8016,-404.6233 744.8031,-351.4634 744.8031,-306 744.8031,-306 744.8031,-306 744.8031,-234 744.8031,-193.876 744.8031,-147.4631 744.8031,-118.4177"/>
<polygon fill="#000000" stroke="#000000" points="748.3032,-118.1853 744.8031,-108.1854 741.3032,-118.1854 748.3032,-118.1853"/>
</g>
<!-- get_ees (utility)&#45;&gt;gen_vsm (fsl) -->
<g id="edge18" class="edge">
<title>get_ees (utility)&#45;&gt;gen_vsm (fsl)</title>
<path fill="none" stroke="#000000" d="M112.3382,-575.8927C108.961,-543.5878 106.5667,-475.348 138.8031,-432 151.8702,-414.4288 172.0974,-402.3648 191.966,-394.1791"/>
<polygon fill="#000000" stroke="#000000" points="193.2687,-397.4281 201.349,-390.5754 190.7589,-390.8935 193.2687,-397.4281"/>
</g>
<!-- gen_vsm (fsl)&#45;&gt;vsm2dfm (itk) -->
<g id="edge19" class="edge">
<title>gen_vsm (fsl)&#45;&gt;vsm2dfm (itk)</title>
<path fill="none" stroke="#000000" d="M294.8912,-362.9064C325.1047,-351.8076 366.3629,-336.6515 398.7037,-324.7712"/>
<polygon fill="#000000" stroke="#000000" points="400.2523,-327.9311 408.4321,-321.1975 397.8385,-321.3604 400.2523,-327.9311"/>
</g>
<!-- vsm2dfm (itk)&#45;&gt;unwarp_reference (registration) -->
<g id="edge20" class="edge">
<title>vsm2dfm (itk)&#45;&gt;unwarp_reference (registration)</title>
<path fill="none" stroke="#000000" d="M514.3248,-296.4017C594.2401,-284.5135 731.5085,-264.0934 827.1715,-249.8626"/>
<polygon fill="#000000" stroke="#000000" points="827.791,-253.309 837.1671,-248.3756 826.7609,-246.3852 827.791,-253.309"/>
</g>
<!-- outputnode (utility) -->
<g id="node15" class="node">
<title>outputnode (utility)</title>
<ellipse fill="none" stroke="#000000" cx="649.8031" cy="-18" rx="101.2821" ry="18"/>
<text text-anchor="middle" x="649.8031" y="-14.3" font-family="Times,serif" font-size="14.00" fill="#000000">outputnode (utility)</text>
</g>
<!-- vsm2dfm (itk)&#45;&gt;outputnode (utility) -->
<g id="edge21" class="edge">
<title>vsm2dfm (itk)&#45;&gt;outputnode (utility)</title>
<path fill="none" stroke="#000000" d="M464.2149,-288.1542C482.7395,-264.5483 514.9895,-221.1152 535.8031,-180 558.7853,-134.6012 543.1837,-112.6409 573.8031,-72 583.062,-59.7108 595.9243,-49.1023 608.4371,-40.6209"/>
<polygon fill="#000000" stroke="#000000" points="610.4933,-43.4595 616.9955,-35.0945 606.696,-37.5789 610.4933,-43.4595"/>
</g>
<!-- jac_dfm (ants) -->
<g id="node16" class="node">
<title>jac_dfm (ants)</title>
<ellipse fill="none" stroke="#000000" cx="449.8031" cy="-162" rx="77.1866" ry="18"/>
<text text-anchor="middle" x="449.8031" y="-158.3" font-family="Times,serif" font-size="14.00" fill="#000000">jac_dfm (ants)</text>
</g>
<!-- vsm2dfm (itk)&#45;&gt;jac_dfm (ants) -->
<g id="edge22" class="edge">
<title>vsm2dfm (itk)&#45;&gt;jac_dfm (ants)</title>
<path fill="none" stroke="#000000" d="M449.8031,-287.7623C449.8031,-263.201 449.8031,-219.2474 449.8031,-190.3541"/>
<polygon fill="#000000" stroke="#000000" points="453.3032,-190.0896 449.8031,-180.0896 446.3032,-190.0897 453.3032,-190.0896"/>
</g>
<!-- apply_fov_mask (fsl) -->
<g id="node17" class="node">
<title>apply_fov_mask (fsl)</title>
<ellipse fill="none" stroke="#000000" cx="933.8031" cy="-162" rx="105.8812" ry="18"/>
<text text-anchor="middle" x="933.8031" y="-158.3" font-family="Times,serif" font-size="14.00" fill="#000000">apply_fov_mask (fsl)</text>
</g>
<!-- unwarp_reference (registration)&#45;&gt;apply_fov_mask (fsl) -->
<g id="edge23" class="edge">
<title>unwarp_reference (registration)&#45;&gt;apply_fov_mask (fsl)</title>
<path fill="none" stroke="#000000" d="M933.8031,-215.8314C933.8031,-208.131 933.8031,-198.9743 933.8031,-190.4166"/>
<polygon fill="#000000" stroke="#000000" points="937.3032,-190.4132 933.8031,-180.4133 930.3032,-190.4133 937.3032,-190.4132"/>
</g>
<!-- fieldmap_fov_mask (images)&#45;&gt;fmap_fov2ref_apply (registration) -->
<g id="edge24" class="edge">
<title>fieldmap_fov_mask (images)&#45;&gt;fmap_fov2ref_apply (registration)</title>
<path fill="none" stroke="#000000" d="M983.7469,-575.8314C981.1519,-568.0463 978.0608,-558.7729 975.1814,-550.1347"/>
<polygon fill="#000000" stroke="#000000" points="978.4236,-548.7933 971.9409,-540.4133 971.7828,-551.0069 978.4236,-548.7933"/>
</g>
<!-- fmap_fov2ref_apply (registration)&#45;&gt;apply_fov_mask (fsl) -->
<g id="edge25" class="edge">
<title>fmap_fov2ref_apply (registration)&#45;&gt;apply_fov_mask (fsl)</title>
<path fill="none" stroke="#000000" d="M1009.1197,-504.4816C1055.5907,-482.4804 1122.8031,-439.951 1122.8031,-378 1122.8031,-378 1122.8031,-378 1122.8031,-306 1122.8031,-265.1184 1131.2373,-246.3096 1103.8031,-216 1090.7282,-201.5547 1049.4321,-188.2631 1010.818,-178.4812"/>
<polygon fill="#000000" stroke="#000000" points="1011.6253,-175.0755 1001.0774,-176.0714 1009.9441,-181.8706 1011.6253,-175.0755"/>
</g>
<!-- torads (fmap)&#45;&gt;gen_vsm (fsl) -->
<g id="edge26" class="edge">
<title>torads (fmap)&#45;&gt;gen_vsm (fsl)</title>
<path fill="none" stroke="#000000" d="M253.8031,-431.8314C253.8031,-424.131 253.8031,-414.9743 253.8031,-406.4166"/>
<polygon fill="#000000" stroke="#000000" points="257.3032,-406.4132 253.8031,-396.4133 250.3032,-406.4133 257.3032,-406.4132"/>
</g>
<!-- enhance_and_skullstrip_bold_wf&#45;&gt;outputnode (utility) -->
<g id="edge27" class="edge">
<title>enhance_and_skullstrip_bold_wf&#45;&gt;outputnode (utility)</title>
<path fill="none" stroke="#000000" d="M720.8306,-71.8314C708.8367,-62.7412 694.1653,-51.6219 681.277,-41.8539"/>
<polygon fill="#000000" stroke="#000000" points="683.195,-38.9159 673.1112,-35.665 678.9668,-44.4947 683.195,-38.9159"/>
</g>
<!-- jac_dfm (ants)&#45;&gt;outputnode (utility) -->
<g id="edge28" class="edge">
<title>jac_dfm (ants)&#45;&gt;outputnode (utility)</title>
<path fill="none" stroke="#000000" d="M464.8121,-144.0427C481.7847,-124.5311 510.962,-93.3004 540.8031,-72 558.8985,-59.0837 580.5438,-47.6587 599.7595,-38.6827"/>
<polygon fill="#000000" stroke="#000000" points="601.3279,-41.8142 608.9712,-34.4772 598.4208,-35.4464 601.3279,-41.8142"/>
</g>
<!-- apply_fov_mask (fsl)&#45;&gt;enhance_and_skullstrip_bold_wf -->
<g id="edge29" class="edge">
<title>apply_fov_mask (fsl)&#45;&gt;enhance_and_skullstrip_bold_wf</title>
<path fill="none" stroke="#000000" d="M890.4427,-145.4817C863.5163,-135.2241 828.6629,-121.9466 799.8032,-110.9524"/>
<polygon fill="#000000" stroke="#000000" points="800.8568,-107.6085 790.2659,-107.3192 798.3648,-114.1499 800.8568,-107.6085"/>
</g>
<!-- apply_fov_mask (fsl)&#45;&gt;outputnode (utility) -->
<g id="edge30" class="edge">
<title>apply_fov_mask (fsl)&#45;&gt;outputnode (utility)</title>
<path fill="none" stroke="#000000" d="M935.602,-143.7626C936.5275,-123.4019 934.5924,-90.8436 915.8031,-72 892.7476,-48.8778 816.7001,-34.9647 751.7918,-27.0663"/>
<polygon fill="#000000" stroke="#000000" points="751.8211,-23.5456 741.4799,-25.8498 751.0009,-30.4974 751.8211,-23.5456"/>
</g>
</g>
</svg>
