<?xml version="1.0" encoding="UTF-8" standalone="no"?>
<!DOCTYPE svg PUBLIC "-//W3C//DTD SVG 1.1//EN"
 "http://www.w3.org/Graphics/SVG/1.1/DTD/svg11.dtd">
<!-- Generated by graphviz version 2.40.1 (20161225.0304)
 -->
<!-- Title: structs Pages: 1 -->
<svg width="1864pt" height="1299pt"
 viewBox="0.00 0.00 1863.50 1299.00" xmlns="http://www.w3.org/2000/svg" xmlns:xlink="http://www.w3.org/1999/xlink">
<g id="graph0" class="graph" transform="scale(1 1) rotate(0) translate(4 1295)">
<title>structs</title>
<polygon fill="#ffffff" stroke="transparent" points="-4,4 -4,-1295 1859.5,-1295 1859.5,4 -4,4"/>
<!-- syn_sdc_wfinputnode -->
<g id="node1" class="node">
<title>syn_sdc_wfinputnode</title>
<polygon fill="none" stroke="#000000" points="0,-1175.5 0,-1290.5 276,-1290.5 276,-1175.5 0,-1175.5"/>
<text text-anchor="middle" x="17.5" y="-1229.3" font-family="Times,serif" font-size="14.00" fill="#000000">IN</text>
<polyline fill="none" stroke="#000000" points="35,-1175.5 35,-1290.5 "/>
<text text-anchor="middle" x="79.5" y="-1267.8" font-family="Times,serif" font-size="14.00" fill="#000000">inputnode</text>
<polyline fill="none" stroke="#000000" points="35,-1252.5 124,-1252.5 "/>
<text text-anchor="middle" x="79.5" y="-1229.8" font-family="Times,serif" font-size="14.00" fill="#000000">utility</text>
<polyline fill="none" stroke="#000000" points="35,-1214.5 124,-1214.5 "/>
<text text-anchor="middle" x="79.5" y="-1191.3" font-family="Times,serif" font-size="14.00" fill="#000000"> </text>
<polyline fill="none" stroke="#000000" points="124,-1175.5 124,-1290.5 "/>
<text text-anchor="middle" x="200" y="-1275.3" font-family="Times,serif" font-size="14.00" fill="#000000">OUT</text>
<polyline fill="none" stroke="#000000" points="124,-1267.5 276,-1267.5 "/>
<text text-anchor="middle" x="200" y="-1252.3" font-family="Times,serif" font-size="14.00" fill="#000000">in_reference</text>
<polyline fill="none" stroke="#000000" points="124,-1244.5 276,-1244.5 "/>
<text text-anchor="middle" x="200" y="-1229.3" font-family="Times,serif" font-size="14.00" fill="#000000">in_reference_brain</text>
<polyline fill="none" stroke="#000000" points="124,-1221.5 276,-1221.5 "/>
<text text-anchor="middle" x="200" y="-1206.3" font-family="Times,serif" font-size="14.00" fill="#000000">std2anat_xfm</text>
<polyline fill="none" stroke="#000000" points="124,-1198.5 276,-1198.5 "/>
<text text-anchor="middle" x="200" y="-1183.3" font-family="Times,serif" font-size="14.00" fill="#000000">t1w_brain</text>
</g>
<!-- syn_sdc_wfinvert_t1w -->
<g id="node2" class="node">
<title>syn_sdc_wfinvert_t1w</title>
<polygon fill="none" stroke="#000000" points="276.5,-1069.5 276.5,-1138.5 507.5,-1138.5 507.5,-1069.5 276.5,-1069.5"/>
<text text-anchor="middle" x="310" y="-1123.3" font-family="Times,serif" font-size="14.00" fill="#000000">IN</text>
<polyline fill="none" stroke="#000000" points="276.5,-1115.5 343.5,-1115.5 "/>
<text text-anchor="middle" x="310" y="-1100.3" font-family="Times,serif" font-size="14.00" fill="#000000">in_file</text>
<polyline fill="none" stroke="#000000" points="276.5,-1092.5 343.5,-1092.5 "/>
<text text-anchor="middle" x="310" y="-1077.3" font-family="Times,serif" font-size="14.00" fill="#000000">ref_file</text>
<polyline fill="none" stroke="#000000" points="343.5,-1069.5 343.5,-1138.5 "/>
<text text-anchor="middle" x="390.5" y="-1123.3" font-family="Times,serif" font-size="14.00" fill="#000000">invert_t1w</text>
<polyline fill="none" stroke="#000000" points="343.5,-1115.5 437.5,-1115.5 "/>
<text text-anchor="middle" x="390.5" y="-1100.3" font-family="Times,serif" font-size="14.00" fill="#000000">image</text>
<polyline fill="none" stroke="#000000" points="343.5,-1092.5 437.5,-1092.5 "/>
<text text-anchor="middle" x="390.5" y="-1077.3" font-family="Times,serif" font-size="14.00" fill="#000000"> </text>
<polyline fill="none" stroke="#000000" points="437.5,-1069.5 437.5,-1138.5 "/>
<text text-anchor="middle" x="472.5" y="-1117.8" font-family="Times,serif" font-size="14.00" fill="#000000">OUT</text>
<polyline fill="none" stroke="#000000" points="437.5,-1104.5 507.5,-1104.5 "/>
<text text-anchor="middle" x="472.5" y="-1083.3" font-family="Times,serif" font-size="14.00" fill="#000000">out_file</text>
</g>
<!-- syn_sdc_wfinputnode&#45;&gt;syn_sdc_wfinvert_t1w -->
<g id="edge4" class="edge">
<title>syn_sdc_wfinputnode:e&#45;&gt;syn_sdc_wfinvert_t1w:w</title>
<path fill="none" stroke="#000000" d="M276,-1256C310.7873,-1256 252.2196,-1115.9674 267.3148,-1086.4293"/>
<polygon fill="#000000" stroke="#000000" points="269.3758,-1089.2686 276,-1081 265.6652,-1083.333 269.3758,-1089.2686"/>
</g>
<!-- syn_sdc_wfinputnode&#45;&gt;syn_sdc_wfinvert_t1w -->
<g id="edge11" class="edge">
<title>syn_sdc_wfinputnode:e&#45;&gt;syn_sdc_wfinvert_t1w:w</title>
<path fill="none" stroke="#000000" d="M276,-1187C307.9896,-1187 256.7563,-1124.5828 266.6398,-1108.0033"/>
<polygon fill="#000000" stroke="#000000" points="268.1819,-1111.1504 276,-1104 265.4293,-1104.7144 268.1819,-1111.1504"/>
</g>
<!-- syn_sdc_wfref_2_t1 -->
<g id="node3" class="node">
<title>syn_sdc_wfref_2_t1</title>
<polygon fill="none" stroke="#000000" points="238.5,-963.5 238.5,-1032.5 593.5,-1032.5 593.5,-963.5 238.5,-963.5"/>
<text text-anchor="middle" x="298.5" y="-1017.3" font-family="Times,serif" font-size="14.00" fill="#000000">IN</text>
<polyline fill="none" stroke="#000000" points="238.5,-1009.5 358.5,-1009.5 "/>
<text text-anchor="middle" x="298.5" y="-994.3" font-family="Times,serif" font-size="14.00" fill="#000000">fixed_image</text>
<polyline fill="none" stroke="#000000" points="238.5,-986.5 358.5,-986.5 "/>
<text text-anchor="middle" x="298.5" y="-971.3" font-family="Times,serif" font-size="14.00" fill="#000000">moving_image</text>
<polyline fill="none" stroke="#000000" points="358.5,-963.5 358.5,-1032.5 "/>
<text text-anchor="middle" x="396.5" y="-1017.3" font-family="Times,serif" font-size="14.00" fill="#000000">ref_2_t1</text>
<polyline fill="none" stroke="#000000" points="358.5,-1009.5 434.5,-1009.5 "/>
<text text-anchor="middle" x="396.5" y="-994.3" font-family="Times,serif" font-size="14.00" fill="#000000">fixes</text>
<polyline fill="none" stroke="#000000" points="358.5,-986.5 434.5,-986.5 "/>
<text text-anchor="middle" x="396.5" y="-971.3" font-family="Times,serif" font-size="14.00" fill="#000000"> </text>
<polyline fill="none" stroke="#000000" points="434.5,-963.5 434.5,-1032.5 "/>
<text text-anchor="middle" x="514" y="-1011.8" font-family="Times,serif" font-size="14.00" fill="#000000">OUT</text>
<polyline fill="none" stroke="#000000" points="434.5,-998.5 593.5,-998.5 "/>
<text text-anchor="middle" x="514" y="-977.3" font-family="Times,serif" font-size="14.00" fill="#000000">forward_transforms</text>
</g>
<!-- syn_sdc_wfinputnode&#45;&gt;syn_sdc_wfref_2_t1 -->
<g id="edge8" class="edge">
<title>syn_sdc_wfinputnode:e&#45;&gt;syn_sdc_wfref_2_t1:w</title>
<path fill="none" stroke="#000000" d="M276,-1233C301.7778,-1233 279.3606,-1200.5578 276,-1175 271.7414,-1142.6129 242.2586,-1065.3871 238,-1033 235.2433,-1012.0346 219.6631,-986.4366 228.3823,-977.9143"/>
<polygon fill="#000000" stroke="#000000" points="229.4447,-981.2496 238,-975 227.4147,-974.5504 229.4447,-981.2496"/>
</g>
<!-- syn_sdc_wftransform_list -->
<g id="node4" class="node">
<title>syn_sdc_wftransform_list</title>
<polygon fill="none" stroke="#000000" points="210.5,-846 210.5,-915 417.5,-915 417.5,-846 210.5,-846"/>
<text text-anchor="middle" x="230" y="-899.8" font-family="Times,serif" font-size="14.00" fill="#000000">IN</text>
<polyline fill="none" stroke="#000000" points="210.5,-892 249.5,-892 "/>
<text text-anchor="middle" x="230" y="-876.8" font-family="Times,serif" font-size="14.00" fill="#000000">in1</text>
<polyline fill="none" stroke="#000000" points="210.5,-869 249.5,-869 "/>
<text text-anchor="middle" x="230" y="-853.8" font-family="Times,serif" font-size="14.00" fill="#000000">in2</text>
<polyline fill="none" stroke="#000000" points="249.5,-846 249.5,-915 "/>
<text text-anchor="middle" x="308.5" y="-899.8" font-family="Times,serif" font-size="14.00" fill="#000000">transform_list</text>
<polyline fill="none" stroke="#000000" points="249.5,-892 367.5,-892 "/>
<text text-anchor="middle" x="308.5" y="-876.8" font-family="Times,serif" font-size="14.00" fill="#000000">utility</text>
<polyline fill="none" stroke="#000000" points="249.5,-869 367.5,-869 "/>
<text text-anchor="middle" x="308.5" y="-853.8" font-family="Times,serif" font-size="14.00" fill="#000000"> </text>
<polyline fill="none" stroke="#000000" points="367.5,-846 367.5,-915 "/>
<text text-anchor="middle" x="392.5" y="-894.3" font-family="Times,serif" font-size="14.00" fill="#000000">OUT</text>
<polyline fill="none" stroke="#000000" points="367.5,-881 417.5,-881 "/>
<text text-anchor="middle" x="392.5" y="-859.8" font-family="Times,serif" font-size="14.00" fill="#000000">out</text>
</g>
<!-- syn_sdc_wfinputnode&#45;&gt;syn_sdc_wftransform_list -->
<g id="edge10" class="edge">
<title>syn_sdc_wfinputnode:e&#45;&gt;syn_sdc_wftransform_list:w</title>
<path fill="none" stroke="#000000" d="M276,-1210C291.5556,-1210 281.6392,-1189.4974 276,-1175 268.1314,-1154.7714 252.3288,-1158.5981 243,-1139 230.8395,-1113.453 188.4726,-906.5868 202.8306,-864.8306"/>
<polygon fill="#000000" stroke="#000000" points="205.5102,-867.0965 210,-857.5 200.5057,-862.202 205.5102,-867.0965"/>
</g>
<!-- syn_sdc_wfatlas_2_ref -->
<g id="node5" class="node">
<title>syn_sdc_wfatlas_2_ref</title>
<polygon fill="none" stroke="#000000" points="172.5,-728.5 172.5,-797.5 519.5,-797.5 519.5,-728.5 172.5,-728.5"/>
<text text-anchor="middle" x="241" y="-782.3" font-family="Times,serif" font-size="14.00" fill="#000000">IN</text>
<polyline fill="none" stroke="#000000" points="172.5,-774.5 309.5,-774.5 "/>
<text text-anchor="middle" x="241" y="-759.3" font-family="Times,serif" font-size="14.00" fill="#000000">reference_image</text>
<polyline fill="none" stroke="#000000" points="172.5,-751.5 309.5,-751.5 "/>
<text text-anchor="middle" x="241" y="-736.3" font-family="Times,serif" font-size="14.00" fill="#000000">transforms</text>
<polyline fill="none" stroke="#000000" points="309.5,-728.5 309.5,-797.5 "/>
<text text-anchor="middle" x="357" y="-782.3" font-family="Times,serif" font-size="14.00" fill="#000000">atlas_2_ref</text>
<polyline fill="none" stroke="#000000" points="309.5,-774.5 404.5,-774.5 "/>
<text text-anchor="middle" x="357" y="-759.3" font-family="Times,serif" font-size="14.00" fill="#000000">fixes</text>
<polyline fill="none" stroke="#000000" points="309.5,-751.5 404.5,-751.5 "/>
<text text-anchor="middle" x="357" y="-736.3" font-family="Times,serif" font-size="14.00" fill="#000000"> </text>
<polyline fill="none" stroke="#000000" points="404.5,-728.5 404.5,-797.5 "/>
<text text-anchor="middle" x="462" y="-776.8" font-family="Times,serif" font-size="14.00" fill="#000000">OUT</text>
<polyline fill="none" stroke="#000000" points="404.5,-763.5 519.5,-763.5 "/>
<text text-anchor="middle" x="462" y="-742.3" font-family="Times,serif" font-size="14.00" fill="#000000">output_image</text>
</g>
<!-- syn_sdc_wfinputnode&#45;&gt;syn_sdc_wfatlas_2_ref -->
<g id="edge3" class="edge">
<title>syn_sdc_wfinputnode:e&#45;&gt;syn_sdc_wfatlas_2_ref:w</title>
<path fill="none" stroke="#000000" d="M276,-1256C312,-1256 293.2508,-1206.5976 276,-1175 261.8217,-1149.0301 236.3097,-1163.687 220,-1139 170.4061,-1063.9328 150.3418,-818.1901 165.7451,-770.9094"/>
<polygon fill="#000000" stroke="#000000" points="168.5423,-773.0148 172,-763 163.0517,-768.6727 168.5423,-773.0148"/>
</g>
<!-- syn_sdc_wft1_2_ref -->
<g id="node8" class="node">
<title>syn_sdc_wft1_2_ref</title>
<polygon fill="none" stroke="#000000" points="594,-834.5 594,-926.5 922,-926.5 922,-834.5 594,-834.5"/>
<text text-anchor="middle" x="662.5" y="-911.3" font-family="Times,serif" font-size="14.00" fill="#000000">IN</text>
<polyline fill="none" stroke="#000000" points="594,-903.5 731,-903.5 "/>
<text text-anchor="middle" x="662.5" y="-888.3" font-family="Times,serif" font-size="14.00" fill="#000000">input_image</text>
<polyline fill="none" stroke="#000000" points="594,-880.5 731,-880.5 "/>
<text text-anchor="middle" x="662.5" y="-865.3" font-family="Times,serif" font-size="14.00" fill="#000000">reference_image</text>
<polyline fill="none" stroke="#000000" points="594,-857.5 731,-857.5 "/>
<text text-anchor="middle" x="662.5" y="-842.3" font-family="Times,serif" font-size="14.00" fill="#000000">transforms</text>
<polyline fill="none" stroke="#000000" points="731,-834.5 731,-926.5 "/>
<text text-anchor="middle" x="769" y="-907.8" font-family="Times,serif" font-size="14.00" fill="#000000">t1_2_ref</text>
<polyline fill="none" stroke="#000000" points="731,-896.5 807,-896.5 "/>
<text text-anchor="middle" x="769" y="-877.3" font-family="Times,serif" font-size="14.00" fill="#000000">fixes</text>
<polyline fill="none" stroke="#000000" points="731,-865.5 807,-865.5 "/>
<text text-anchor="middle" x="769" y="-846.3" font-family="Times,serif" font-size="14.00" fill="#000000"> </text>
<polyline fill="none" stroke="#000000" points="807,-834.5 807,-926.5 "/>
<text text-anchor="middle" x="864.5" y="-899.8" font-family="Times,serif" font-size="14.00" fill="#000000">OUT</text>
<polyline fill="none" stroke="#000000" points="807,-880.5 922,-880.5 "/>
<text text-anchor="middle" x="864.5" y="-853.8" font-family="Times,serif" font-size="14.00" fill="#000000">output_image</text>
</g>
<!-- syn_sdc_wfinputnode&#45;&gt;syn_sdc_wft1_2_ref -->
<g id="edge5" class="edge">
<title>syn_sdc_wfinputnode:e&#45;&gt;syn_sdc_wft1_2_ref:w</title>
<path fill="none" stroke="#000000" d="M276,-1256C458.5763,-1256 551.9351,-1202.0093 621,-1033 632.7687,-1004.2007 630.8382,-992.5146 621,-963 614.6754,-944.0263 600.3246,-945.9737 594,-927 587.1912,-906.5737 573.8289,-879.8597 584.2027,-871.2802"/>
<polygon fill="#000000" stroke="#000000" points="585.3353,-874.597 594,-868.5 583.4243,-867.8629 585.3353,-874.597"/>
</g>
<!-- syn_sdc_wfsyn -->
<g id="node9" class="node">
<title>syn_sdc_wfsyn</title>
<polygon fill="none" stroke="#000000" points="557.5,-387.5 557.5,-479.5 922.5,-479.5 922.5,-387.5 557.5,-387.5"/>
<text text-anchor="middle" x="635.5" y="-464.3" font-family="Times,serif" font-size="14.00" fill="#000000">IN</text>
<polyline fill="none" stroke="#000000" points="557.5,-456.5 713.5,-456.5 "/>
<text text-anchor="middle" x="635.5" y="-441.3" font-family="Times,serif" font-size="14.00" fill="#000000">fixed_image</text>
<polyline fill="none" stroke="#000000" points="557.5,-433.5 713.5,-433.5 "/>
<text text-anchor="middle" x="635.5" y="-418.3" font-family="Times,serif" font-size="14.00" fill="#000000">fixed_image_masks</text>
<polyline fill="none" stroke="#000000" points="557.5,-410.5 713.5,-410.5 "/>
<text text-anchor="middle" x="635.5" y="-395.3" font-family="Times,serif" font-size="14.00" fill="#000000">moving_image</text>
<polyline fill="none" stroke="#000000" points="713.5,-387.5 713.5,-479.5 "/>
<text text-anchor="middle" x="738.5" y="-460.8" font-family="Times,serif" font-size="14.00" fill="#000000">syn</text>
<polyline fill="none" stroke="#000000" points="713.5,-449.5 763.5,-449.5 "/>
<text text-anchor="middle" x="738.5" y="-430.3" font-family="Times,serif" font-size="14.00" fill="#000000">fixes</text>
<polyline fill="none" stroke="#000000" points="713.5,-418.5 763.5,-418.5 "/>
<text text-anchor="middle" x="738.5" y="-399.3" font-family="Times,serif" font-size="14.00" fill="#000000"> </text>
<polyline fill="none" stroke="#000000" points="763.5,-387.5 763.5,-479.5 "/>
<text text-anchor="middle" x="843" y="-452.8" font-family="Times,serif" font-size="14.00" fill="#000000">OUT</text>
<polyline fill="none" stroke="#000000" points="763.5,-433.5 922.5,-433.5 "/>
<text text-anchor="middle" x="843" y="-406.8" font-family="Times,serif" font-size="14.00" fill="#000000">forward_transforms</text>
</g>
<!-- syn_sdc_wfinputnode&#45;&gt;syn_sdc_wfsyn -->
<g id="edge9" class="edge">
<title>syn_sdc_wfinputnode:e&#45;&gt;syn_sdc_wfsyn:w</title>
<path fill="none" stroke="#000000" d="M276,-1233C301.7778,-1233 290.3252,-1196.4309 276,-1175 252.7452,-1140.2103 218.2861,-1168.8904 189,-1139 141.9243,-1090.9529 134,-1065.2655 134,-998 134,-998 134,-998 134,-657 134,-440.1168 330.3901,-399.7374 546.6859,-398.5285"/>
<polygon fill="#000000" stroke="#000000" points="547.0097,-402.0277 557,-398.5 546.9903,-395.0278 547.0097,-402.0277"/>
</g>
<!-- syn_sdc_wfunwarp_ref -->
<g id="node10" class="node">
<title>syn_sdc_wfunwarp_ref</title>
<polygon fill="none" stroke="#000000" points="950,-258.5 950,-350.5 1300,-350.5 1300,-258.5 950,-258.5"/>
<text text-anchor="middle" x="1018.5" y="-335.3" font-family="Times,serif" font-size="14.00" fill="#000000">IN</text>
<polyline fill="none" stroke="#000000" points="950,-327.5 1087,-327.5 "/>
<text text-anchor="middle" x="1018.5" y="-312.3" font-family="Times,serif" font-size="14.00" fill="#000000">input_image</text>
<polyline fill="none" stroke="#000000" points="950,-304.5 1087,-304.5 "/>
<text text-anchor="middle" x="1018.5" y="-289.3" font-family="Times,serif" font-size="14.00" fill="#000000">reference_image</text>
<polyline fill="none" stroke="#000000" points="950,-281.5 1087,-281.5 "/>
<text text-anchor="middle" x="1018.5" y="-266.3" font-family="Times,serif" font-size="14.00" fill="#000000">transforms</text>
<polyline fill="none" stroke="#000000" points="1087,-258.5 1087,-350.5 "/>
<text text-anchor="middle" x="1136" y="-331.8" font-family="Times,serif" font-size="14.00" fill="#000000">unwarp_ref</text>
<polyline fill="none" stroke="#000000" points="1087,-320.5 1185,-320.5 "/>
<text text-anchor="middle" x="1136" y="-301.3" font-family="Times,serif" font-size="14.00" fill="#000000">fixes</text>
<polyline fill="none" stroke="#000000" points="1087,-289.5 1185,-289.5 "/>
<text text-anchor="middle" x="1136" y="-270.3" font-family="Times,serif" font-size="14.00" fill="#000000"> </text>
<polyline fill="none" stroke="#000000" points="1185,-258.5 1185,-350.5 "/>
<text text-anchor="middle" x="1242.5" y="-323.8" font-family="Times,serif" font-size="14.00" fill="#000000">OUT</text>
<polyline fill="none" stroke="#000000" points="1185,-304.5 1300,-304.5 "/>
<text text-anchor="middle" x="1242.5" y="-277.8" font-family="Times,serif" font-size="14.00" fill="#000000">output_image</text>
</g>
<!-- syn_sdc_wfinputnode&#45;&gt;syn_sdc_wfunwarp_ref -->
<g id="edge6" class="edge">
<title>syn_sdc_wfinputnode:e&#45;&gt;syn_sdc_wfunwarp_ref:w</title>
<path fill="none" stroke="#000000" d="M276,-1256C436.3761,-1256 950,-1158.3761 950,-998 950,-998 950,-998 950,-551 950,-545.3131 945.035,-370.8176 948.109,-326.6038"/>
<polygon fill="#000000" stroke="#000000" points="951.6006,-326.9732 950,-316.5 944.7201,-325.6855 951.6006,-326.9732"/>
</g>
<!-- syn_sdc_wfinputnode&#45;&gt;syn_sdc_wfunwarp_ref -->
<g id="edge7" class="edge">
<title>syn_sdc_wfinputnode:e&#45;&gt;syn_sdc_wfunwarp_ref:w</title>
<path fill="none" stroke="#000000" d="M276,-1256C411.4085,-1256 757.7456,-1208.4289 874,-1139 943.1874,-1097.6802 988,-1078.5867 988,-998 988,-998 988,-998 988,-551 988,-477.1299 977.8305,-458.9272 961,-387 957.1882,-370.7098 952.4716,-367.5467 950,-351 949.3023,-346.3292 946.1872,-317.5639 947.0288,-302.1821"/>
<polygon fill="#000000" stroke="#000000" points="950.4122,-303.0868 950,-292.5 943.7202,-301.0331 950.4122,-303.0868"/>
</g>
<!-- syn_sdc_wfinvert_t1w&#45;&gt;syn_sdc_wfref_2_t1 -->
<g id="edge12" class="edge">
<title>syn_sdc_wfinvert_t1w:e&#45;&gt;syn_sdc_wfref_2_t1:w</title>
<path fill="none" stroke="#000000" d="M508,-1087C516,-1087 513.2698,-1075.0191 508,-1069 428.2535,-977.9149 317.7465,-1124.0851 238,-1033 230.7952,-1024.7708 226.0317,-1010.8104 229.2457,-1003.2468"/>
<polygon fill="#000000" stroke="#000000" points="231.2218,-1006.1429 238,-998 227.6233,-1000.1387 231.2218,-1006.1429"/>
</g>
<!-- syn_sdc_wfinvert_t1w&#45;&gt;syn_sdc_wft1_2_ref -->
<g id="edge13" class="edge">
<title>syn_sdc_wfinvert_t1w:e&#45;&gt;syn_sdc_wft1_2_ref:w</title>
<path fill="none" stroke="#000000" d="M508,-1087C556.5666,-1087 578.5754,-1074.9781 603,-1033 626.7778,-992.1335 599.7769,-973.9264 594,-927 592.8437,-917.6074 587.2739,-906.667 586.7839,-899.6672"/>
<polygon fill="#000000" stroke="#000000" points="589.3714,-902.0303 594,-892.5 584.4385,-897.0638 589.3714,-902.0303"/>
</g>
<!-- syn_sdc_wfref_2_t1&#45;&gt;syn_sdc_wftransform_list -->
<g id="edge15" class="edge">
<title>syn_sdc_wfref_2_t1:e&#45;&gt;syn_sdc_wftransform_list:w</title>
<path fill="none" stroke="#000000" d="M594,-981C602,-981 599.2983,-968.994 594,-963 480.1089,-834.1528 323.8911,-1044.3472 210,-915.5 202.7563,-907.305 198.0086,-893.3308 201.2354,-885.7558"/>
<polygon fill="#000000" stroke="#000000" points="203.2238,-888.6446 210,-880.5 199.6238,-882.6412 203.2238,-888.6446"/>
</g>
<!-- syn_sdc_wfref_2_t1&#45;&gt;syn_sdc_wft1_2_ref -->
<g id="edge14" class="edge">
<title>syn_sdc_wfref_2_t1:e&#45;&gt;syn_sdc_wft1_2_ref:w</title>
<path fill="none" stroke="#000000" d="M594,-981C594,-981 594,-887.1966 594,-855.6845"/>
<polygon fill="#000000" stroke="#000000" points="597.5001,-855.5 594,-845.5 590.5001,-855.5 597.5001,-855.5"/>
</g>
<!-- syn_sdc_wftransform_list&#45;&gt;syn_sdc_wfatlas_2_ref -->
<g id="edge22" class="edge">
<title>syn_sdc_wftransform_list:e&#45;&gt;syn_sdc_wfatlas_2_ref:w</title>
<path fill="none" stroke="#000000" d="M418,-863.5C426,-863.5 423.0925,-851.6698 418,-845.5 347.1174,-759.6215 242.8826,-883.8785 172,-798 158.2831,-781.3811 149.4858,-752.017 162.0264,-742.8292"/>
<polygon fill="#000000" stroke="#000000" points="163.3348,-746.0963 172,-740 161.4244,-739.362 163.3348,-746.0963"/>
</g>
<!-- syn_sdc_wfthreshold_atlas -->
<g id="node6" class="node">
<title>syn_sdc_wfthreshold_atlas</title>
<polygon fill="none" stroke="#000000" points="257.5,-622.5 257.5,-691.5 514.5,-691.5 514.5,-622.5 257.5,-622.5"/>
<text text-anchor="middle" x="287.5" y="-670.8" font-family="Times,serif" font-size="14.00" fill="#000000">IN</text>
<polyline fill="none" stroke="#000000" points="257.5,-657.5 317.5,-657.5 "/>
<text text-anchor="middle" x="287.5" y="-636.3" font-family="Times,serif" font-size="14.00" fill="#000000">in_file</text>
<polyline fill="none" stroke="#000000" points="317.5,-622.5 317.5,-691.5 "/>
<text text-anchor="middle" x="381" y="-676.3" font-family="Times,serif" font-size="14.00" fill="#000000">threshold_atlas</text>
<polyline fill="none" stroke="#000000" points="317.5,-668.5 444.5,-668.5 "/>
<text text-anchor="middle" x="381" y="-653.3" font-family="Times,serif" font-size="14.00" fill="#000000">fsl</text>
<polyline fill="none" stroke="#000000" points="317.5,-645.5 444.5,-645.5 "/>
<text text-anchor="middle" x="381" y="-630.3" font-family="Times,serif" font-size="14.00" fill="#000000"> </text>
<polyline fill="none" stroke="#000000" points="444.5,-622.5 444.5,-691.5 "/>
<text text-anchor="middle" x="479.5" y="-670.8" font-family="Times,serif" font-size="14.00" fill="#000000">OUT</text>
<polyline fill="none" stroke="#000000" points="444.5,-657.5 514.5,-657.5 "/>
<text text-anchor="middle" x="479.5" y="-636.3" font-family="Times,serif" font-size="14.00" fill="#000000">out_file</text>
</g>
<!-- syn_sdc_wfatlas_2_ref&#45;&gt;syn_sdc_wfthreshold_atlas -->
<g id="edge1" class="edge">
<title>syn_sdc_wfatlas_2_ref:e&#45;&gt;syn_sdc_wfthreshold_atlas:w</title>
<path fill="none" stroke="#000000" d="M520,-746C528,-746 525.2593,-734.0282 520,-728 442.4392,-639.0993 334.5608,-780.9007 257,-692 244.5366,-677.7143 236.9692,-651.8746 247.4094,-643.0497"/>
<polygon fill="#000000" stroke="#000000" points="248.5309,-646.3659 257,-640 246.4096,-639.695 248.5309,-646.3659"/>
</g>
<!-- syn_sdc_wffixed_image_masks -->
<g id="node7" class="node">
<title>syn_sdc_wffixed_image_masks</title>
<polygon fill="none" stroke="#000000" points="365.5,-516.5 365.5,-585.5 610.5,-585.5 610.5,-516.5 365.5,-516.5"/>
<text text-anchor="middle" x="385" y="-564.8" font-family="Times,serif" font-size="14.00" fill="#000000">IN</text>
<polyline fill="none" stroke="#000000" points="365.5,-551.5 404.5,-551.5 "/>
<text text-anchor="middle" x="385" y="-530.3" font-family="Times,serif" font-size="14.00" fill="#000000">in2</text>
<polyline fill="none" stroke="#000000" points="404.5,-516.5 404.5,-585.5 "/>
<text text-anchor="middle" x="482.5" y="-570.3" font-family="Times,serif" font-size="14.00" fill="#000000">fixed_image_masks</text>
<polyline fill="none" stroke="#000000" points="404.5,-562.5 560.5,-562.5 "/>
<text text-anchor="middle" x="482.5" y="-547.3" font-family="Times,serif" font-size="14.00" fill="#000000">utility</text>
<polyline fill="none" stroke="#000000" points="404.5,-539.5 560.5,-539.5 "/>
<text text-anchor="middle" x="482.5" y="-524.3" font-family="Times,serif" font-size="14.00" fill="#000000"> </text>
<polyline fill="none" stroke="#000000" points="560.5,-516.5 560.5,-585.5 "/>
<text text-anchor="middle" x="585.5" y="-564.8" font-family="Times,serif" font-size="14.00" fill="#000000">OUT</text>
<polyline fill="none" stroke="#000000" points="560.5,-551.5 610.5,-551.5 "/>
<text text-anchor="middle" x="585.5" y="-530.3" font-family="Times,serif" font-size="14.00" fill="#000000">out</text>
</g>
<!-- syn_sdc_wfthreshold_atlas&#45;&gt;syn_sdc_wffixed_image_masks -->
<g id="edge21" class="edge">
<title>syn_sdc_wfthreshold_atlas:e&#45;&gt;syn_sdc_wffixed_image_masks:w</title>
<path fill="none" stroke="#000000" d="M515,-640C523,-640 519.953,-628.2824 515,-622 472.553,-568.1604 407.447,-639.8396 365,-586 353.3742,-571.2539 345.3834,-546.1421 355.1918,-537.2436"/>
<polygon fill="#000000" stroke="#000000" points="356.6046,-540.4629 365,-534 354.4067,-533.8168 356.6046,-540.4629"/>
</g>
<!-- syn_sdc_wffixed_image_masks&#45;&gt;syn_sdc_wfsyn -->
<g id="edge2" class="edge">
<title>syn_sdc_wffixed_image_masks:e&#45;&gt;syn_sdc_wfsyn:w</title>
<path fill="none" stroke="#000000" d="M611,-534C619,-534 614.7749,-523.0534 611,-516 597.3895,-490.5686 570.6105,-505.4314 557,-480 546.7445,-460.8374 535.4663,-432.833 547.2295,-424.1598"/>
<polygon fill="#000000" stroke="#000000" points="548.2705,-427.5039 557,-421.5 546.4318,-420.7497 548.2705,-427.5039"/>
</g>
<!-- syn_sdc_wft1_2_ref&#45;&gt;syn_sdc_wfsyn -->
<g id="edge20" class="edge">
<title>syn_sdc_wft1_2_ref:e&#45;&gt;syn_sdc_wfsyn:w</title>
<path fill="none" stroke="#000000" d="M922,-857.5C932.4444,-857.5 925.8721,-843.7002 922,-834 849.7396,-652.9775 773.3588,-636.2987 620,-516 594.6261,-496.0961 573.1867,-507.8925 557,-480 551.769,-470.986 546.5653,-458.2873 548.583,-451.077"/>
<polygon fill="#000000" stroke="#000000" points="550.597,-453.9411 557,-445.5 546.7306,-448.1058 550.597,-453.9411"/>
</g>
<!-- syn_sdc_wfsyn&#45;&gt;syn_sdc_wfunwarp_ref -->
<g id="edge19" class="edge">
<title>syn_sdc_wfsyn:e&#45;&gt;syn_sdc_wfunwarp_ref:w</title>
<path fill="none" stroke="#000000" d="M923,-410.5C936.5341,-410.5 933.4092,-364.2839 936,-351 938.8306,-336.4862 934.2719,-292.5575 941.9582,-275.9515"/>
<polygon fill="#000000" stroke="#000000" points="944.3901,-278.4877 950,-269.5 940.0097,-273.0277 944.3901,-278.4877"/>
</g>
<!-- syn_sdc_wfoutputnode -->
<g id="node12" class="node">
<title>syn_sdc_wfoutputnode</title>
<polygon fill="none" stroke="#000000" points="1546.5,-.5 1546.5,-115.5 1855.5,-115.5 1855.5,-.5 1546.5,-.5"/>
<text text-anchor="middle" x="1627" y="-100.3" font-family="Times,serif" font-size="14.00" fill="#000000">IN</text>
<polyline fill="none" stroke="#000000" points="1546.5,-92.5 1707.5,-92.5 "/>
<text text-anchor="middle" x="1627" y="-77.3" font-family="Times,serif" font-size="14.00" fill="#000000">out_mask</text>
<polyline fill="none" stroke="#000000" points="1546.5,-69.5 1707.5,-69.5 "/>
<text text-anchor="middle" x="1627" y="-54.3" font-family="Times,serif" font-size="14.00" fill="#000000">out_reference</text>
<polyline fill="none" stroke="#000000" points="1546.5,-46.5 1707.5,-46.5 "/>
<text text-anchor="middle" x="1627" y="-31.3" font-family="Times,serif" font-size="14.00" fill="#000000">out_reference_brain</text>
<polyline fill="none" stroke="#000000" points="1546.5,-23.5 1707.5,-23.5 "/>
<text text-anchor="middle" x="1627" y="-8.3" font-family="Times,serif" font-size="14.00" fill="#000000">out_warp</text>
<polyline fill="none" stroke="#000000" points="1707.5,-.5 1707.5,-115.5 "/>
<text text-anchor="middle" x="1756.5" y="-92.8" font-family="Times,serif" font-size="14.00" fill="#000000">outputnode</text>
<polyline fill="none" stroke="#000000" points="1707.5,-77.5 1805.5,-77.5 "/>
<text text-anchor="middle" x="1756.5" y="-54.8" font-family="Times,serif" font-size="14.00" fill="#000000">utility</text>
<polyline fill="none" stroke="#000000" points="1707.5,-39.5 1805.5,-39.5 "/>
<text text-anchor="middle" x="1756.5" y="-16.3" font-family="Times,serif" font-size="14.00" fill="#000000"> </text>
<polyline fill="none" stroke="#000000" points="1805.5,-.5 1805.5,-115.5 "/>
<text text-anchor="middle" x="1830.5" y="-54.3" font-family="Times,serif" font-size="14.00" fill="#000000">OUT</text>
</g>
<!-- syn_sdc_wfsyn&#45;&gt;syn_sdc_wfoutputnode -->
<g id="edge18" class="edge">
<title>syn_sdc_wfsyn:e&#45;&gt;syn_sdc_wfoutputnode:w</title>
<path fill="none" stroke="#000000" d="M923,-410.5C940.0621,-410.5 930.6601,-271.572 941,-258 1114.846,-29.8127 1252.474,-12.3837 1535.8574,-12.0065"/>
<polygon fill="#000000" stroke="#000000" points="1536.0023,-15.5066 1546,-12 1535.9977,-8.5066 1536.0023,-15.5066"/>
</g>
<!-- syn_sdc_wfskullstrip_bold_wf -->
<g id="node11" class="node">
<title>syn_sdc_wfskullstrip_bold_wf</title>
<polygon fill="none" stroke="#000000" points="1300,-152.5 1300,-221.5 1820,-221.5 1820,-152.5 1300,-152.5"/>
<text text-anchor="middle" x="1368.5" y="-200.8" font-family="Times,serif" font-size="14.00" fill="#000000">IN</text>
<polyline fill="none" stroke="#000000" points="1300,-187.5 1437,-187.5 "/>
<text text-anchor="middle" x="1368.5" y="-166.3" font-family="Times,serif" font-size="14.00" fill="#000000">inputnode.in_file</text>
<polyline fill="none" stroke="#000000" points="1437,-152.5 1437,-221.5 "/>
<text text-anchor="middle" x="1511" y="-206.3" font-family="Times,serif" font-size="14.00" fill="#000000">skullstrip_bold_wf</text>
<polyline fill="none" stroke="#000000" points="1437,-198.5 1585,-198.5 "/>
<text text-anchor="middle" x="1511" y="-183.3" font-family="Times,serif" font-size="14.00" fill="#000000"> </text>
<polyline fill="none" stroke="#000000" points="1437,-175.5 1585,-175.5 "/>
<text text-anchor="middle" x="1511" y="-160.3" font-family="Times,serif" font-size="14.00" fill="#000000"> </text>
<polyline fill="none" stroke="#000000" points="1585,-152.5 1585,-221.5 "/>
<text text-anchor="middle" x="1702.5" y="-206.3" font-family="Times,serif" font-size="14.00" fill="#000000">OUT</text>
<polyline fill="none" stroke="#000000" points="1585,-198.5 1820,-198.5 "/>
<text text-anchor="middle" x="1702.5" y="-183.3" font-family="Times,serif" font-size="14.00" fill="#000000">outputnode.mask_file</text>
<polyline fill="none" stroke="#000000" points="1585,-175.5 1820,-175.5 "/>
<text text-anchor="middle" x="1702.5" y="-160.3" font-family="Times,serif" font-size="14.00" fill="#000000">outputnode.skull_stripped_file</text>
</g>
<!-- syn_sdc_wfunwarp_ref&#45;&gt;syn_sdc_wfskullstrip_bold_wf -->
<g id="edge24" class="edge">
<title>syn_sdc_wfunwarp_ref:e&#45;&gt;syn_sdc_wfskullstrip_bold_wf:w</title>
<path fill="none" stroke="#000000" d="M1300,-281.5C1320.8095,-281.5 1289.1888,-202.8549 1293.2043,-177.6638"/>
<polygon fill="#000000" stroke="#000000" points="1295.9841,-179.8043 1300,-170 1290.7466,-175.16 1295.9841,-179.8043"/>
</g>
<!-- syn_sdc_wfunwarp_ref&#45;&gt;syn_sdc_wfoutputnode -->
<g id="edge23" class="edge">
<title>syn_sdc_wfunwarp_ref:e&#45;&gt;syn_sdc_wfoutputnode:w</title>
<path fill="none" stroke="#000000" d="M1300,-281.5C1310.4444,-281.5 1301.2761,-268.3662 1300,-258 1294.2231,-211.0736 1263.9605,-190.7856 1291,-152 1323.7176,-105.0696 1469.0729,-62.703 1535.6469,-58.3651"/>
<polygon fill="#000000" stroke="#000000" points="1536.1296,-61.8504 1546,-58 1535.8828,-54.8547 1536.1296,-61.8504"/>
</g>
<!-- syn_sdc_wfskullstrip_bold_wf&#45;&gt;syn_sdc_wfoutputnode -->
<g id="edge16" class="edge">
<title>syn_sdc_wfskullstrip_bold_wf:e&#45;&gt;syn_sdc_wfoutputnode:w</title>
<path fill="none" stroke="#000000" d="M1820,-187C1835.5556,-187 1830.258,-163.6939 1820,-152 1739.0042,-59.6663 1626.9958,-208.3337 1546,-116 1538.7873,-107.7777 1534.027,-93.8145 1537.2437,-86.2486"/>
<polygon fill="#000000" stroke="#000000" points="1539.2222,-89.1433 1546,-81 1535.6234,-83.1392 1539.2222,-89.1433"/>
</g>
<!-- syn_sdc_wfskullstrip_bold_wf&#45;&gt;syn_sdc_wfoutputnode -->
<g id="edge17" class="edge">
<title>syn_sdc_wfskullstrip_bold_wf:e&#45;&gt;syn_sdc_wfoutputnode:w</title>
<path fill="none" stroke="#000000" d="M1820,-164C1825.3333,-164 1823.517,-156.0094 1820,-152 1739.0042,-59.6663 1626.9958,-208.3337 1546,-116 1524.8566,-91.8969 1512.8192,-46.4772 1535.8714,-36.83"/>
<polygon fill="#000000" stroke="#000000" points="1536.7816,-40.2223 1546,-35 1535.537,-33.3338 1536.7816,-40.2223"/>
</g>
</g>
</svg>
