<?xml version="1.0" encoding="UTF-8" standalone="no"?>
<!DOCTYPE svg PUBLIC "-//W3C//DTD SVG 1.1//EN"
 "http://www.w3.org/Graphics/SVG/1.1/DTD/svg11.dtd">
<!-- Generated by graphviz version 2.40.1 (20161225.0304)
 -->
<!-- Title: structs Pages: 1 -->
<svg width="1056pt" height="594pt"
 viewBox="0.00 0.00 1056.00 594.00" xmlns="http://www.w3.org/2000/svg" xmlns:xlink="http://www.w3.org/1999/xlink">
<g id="graph0" class="graph" transform="scale(1 1) rotate(0) translate(4 590)">
<title>structs</title>
<polygon fill="#ffffff" stroke="transparent" points="-4,4 -4,-590 1052,-590 1052,4 -4,4"/>
<!-- fmap_unwarp_report_wfinputnode -->
<g id="node1" class="node">
<title>fmap_unwarp_report_wfinputnode</title>
<polygon fill="none" stroke="#000000" points="0,-470.5 0,-585.5 192,-585.5 192,-470.5 0,-470.5"/>
<text text-anchor="middle" x="17.5" y="-524.3" font-family="Times,serif" font-size="14.00" fill="#000000">IN</text>
<polyline fill="none" stroke="#000000" points="35,-470.5 35,-585.5 "/>
<text text-anchor="middle" x="79.5" y="-562.8" font-family="Times,serif" font-size="14.00" fill="#000000">inputnode</text>
<polyline fill="none" stroke="#000000" points="35,-547.5 124,-547.5 "/>
<text text-anchor="middle" x="79.5" y="-524.8" font-family="Times,serif" font-size="14.00" fill="#000000">utility</text>
<polyline fill="none" stroke="#000000" points="35,-509.5 124,-509.5 "/>
<text text-anchor="middle" x="79.5" y="-486.3" font-family="Times,serif" font-size="14.00" fill="#000000"> </text>
<polyline fill="none" stroke="#000000" points="124,-470.5 124,-585.5 "/>
<text text-anchor="middle" x="158" y="-570.3" font-family="Times,serif" font-size="14.00" fill="#000000">OUT</text>
<polyline fill="none" stroke="#000000" points="124,-562.5 192,-562.5 "/>
<text text-anchor="middle" x="158" y="-547.3" font-family="Times,serif" font-size="14.00" fill="#000000">in_post</text>
<polyline fill="none" stroke="#000000" points="124,-539.5 192,-539.5 "/>
<text text-anchor="middle" x="158" y="-524.3" font-family="Times,serif" font-size="14.00" fill="#000000">in_pre</text>
<polyline fill="none" stroke="#000000" points="124,-516.5 192,-516.5 "/>
<text text-anchor="middle" x="158" y="-501.3" font-family="Times,serif" font-size="14.00" fill="#000000">in_seg</text>
<polyline fill="none" stroke="#000000" points="124,-493.5 192,-493.5 "/>
<text text-anchor="middle" x="158" y="-478.3" font-family="Times,serif" font-size="14.00" fill="#000000">in_xfm</text>
</g>
<!-- fmap_unwarp_report_wfmap_seg -->
<g id="node2" class="node">
<title>fmap_unwarp_report_wfmap_seg</title>
<polygon fill="none" stroke="#000000" points="192,-341.5 192,-433.5 524,-433.5 524,-341.5 192,-341.5"/>
<text text-anchor="middle" x="260.5" y="-418.3" font-family="Times,serif" font-size="14.00" fill="#000000">IN</text>
<polyline fill="none" stroke="#000000" points="192,-410.5 329,-410.5 "/>
<text text-anchor="middle" x="260.5" y="-395.3" font-family="Times,serif" font-size="14.00" fill="#000000">input_image</text>
<polyline fill="none" stroke="#000000" points="192,-387.5 329,-387.5 "/>
<text text-anchor="middle" x="260.5" y="-372.3" font-family="Times,serif" font-size="14.00" fill="#000000">reference_image</text>
<polyline fill="none" stroke="#000000" points="192,-364.5 329,-364.5 "/>
<text text-anchor="middle" x="260.5" y="-349.3" font-family="Times,serif" font-size="14.00" fill="#000000">transforms</text>
<polyline fill="none" stroke="#000000" points="329,-341.5 329,-433.5 "/>
<text text-anchor="middle" x="369" y="-414.8" font-family="Times,serif" font-size="14.00" fill="#000000">map_seg</text>
<polyline fill="none" stroke="#000000" points="329,-403.5 409,-403.5 "/>
<text text-anchor="middle" x="369" y="-384.3" font-family="Times,serif" font-size="14.00" fill="#000000">fixes</text>
<polyline fill="none" stroke="#000000" points="329,-372.5 409,-372.5 "/>
<text text-anchor="middle" x="369" y="-353.3" font-family="Times,serif" font-size="14.00" fill="#000000"> </text>
<polyline fill="none" stroke="#000000" points="409,-341.5 409,-433.5 "/>
<text text-anchor="middle" x="466.5" y="-406.8" font-family="Times,serif" font-size="14.00" fill="#000000">OUT</text>
<polyline fill="none" stroke="#000000" points="409,-387.5 524,-387.5 "/>
<text text-anchor="middle" x="466.5" y="-360.8" font-family="Times,serif" font-size="14.00" fill="#000000">output_image</text>
</g>
<!-- fmap_unwarp_report_wfinputnode&#45;&gt;fmap_unwarp_report_wfmap_seg -->
<g id="edge3" class="edge">
<title>fmap_unwarp_report_wfinputnode:e&#45;&gt;fmap_unwarp_report_wfmap_seg:w</title>
<path fill="none" stroke="#000000" d="M192,-551C266.0391,-551 129.2403,-392.8717 181.8662,-376.8117"/>
<polygon fill="#000000" stroke="#000000" points="182.5321,-380.2548 192,-375.5 181.6334,-373.3128 182.5321,-380.2548"/>
</g>
<!-- fmap_unwarp_report_wfinputnode&#45;&gt;fmap_unwarp_report_wfmap_seg -->
<g id="edge5" class="edge">
<title>fmap_unwarp_report_wfinputnode:e&#45;&gt;fmap_unwarp_report_wfmap_seg:w</title>
<path fill="none" stroke="#000000" d="M192,-505C234.4931,-505 161.4581,-418.354 182.2897,-402.1079"/>
<polygon fill="#000000" stroke="#000000" points="183.2501,-405.4741 192,-399.5 181.4344,-398.7136 183.2501,-405.4741"/>
</g>
<!-- fmap_unwarp_report_wfinputnode&#45;&gt;fmap_unwarp_report_wfmap_seg -->
<g id="edge6" class="edge">
<title>fmap_unwarp_report_wfinputnode:e&#45;&gt;fmap_unwarp_report_wfmap_seg:w</title>
<path fill="none" stroke="#000000" d="M192,-482C192,-482 192,-393.1901 192,-362.6616"/>
<polygon fill="#000000" stroke="#000000" points="195.5001,-362.5 192,-352.5 188.5001,-362.5 195.5001,-362.5"/>
</g>
<!-- fmap_unwarp_report_wfbold_rpt -->
<g id="node4" class="node">
<title>fmap_unwarp_report_wfbold_rpt</title>
<polygon fill="none" stroke="#000000" points="552.5,-106.5 552.5,-198.5 819.5,-198.5 819.5,-106.5 552.5,-106.5"/>
<text text-anchor="middle" x="589.5" y="-183.3" font-family="Times,serif" font-size="14.00" fill="#000000">IN</text>
<polyline fill="none" stroke="#000000" points="552.5,-175.5 626.5,-175.5 "/>
<text text-anchor="middle" x="589.5" y="-160.3" font-family="Times,serif" font-size="14.00" fill="#000000">after</text>
<polyline fill="none" stroke="#000000" points="552.5,-152.5 626.5,-152.5 "/>
<text text-anchor="middle" x="589.5" y="-137.3" font-family="Times,serif" font-size="14.00" fill="#000000">before</text>
<polyline fill="none" stroke="#000000" points="552.5,-129.5 626.5,-129.5 "/>
<text text-anchor="middle" x="589.5" y="-114.3" font-family="Times,serif" font-size="14.00" fill="#000000">wm_seg</text>
<polyline fill="none" stroke="#000000" points="626.5,-106.5 626.5,-198.5 "/>
<text text-anchor="middle" x="677" y="-179.8" font-family="Times,serif" font-size="14.00" fill="#000000">bold_rpt</text>
<polyline fill="none" stroke="#000000" points="626.5,-168.5 727.5,-168.5 "/>
<text text-anchor="middle" x="677" y="-149.3" font-family="Times,serif" font-size="14.00" fill="#000000">registration</text>
<polyline fill="none" stroke="#000000" points="626.5,-137.5 727.5,-137.5 "/>
<text text-anchor="middle" x="677" y="-118.3" font-family="Times,serif" font-size="14.00" fill="#000000"> </text>
<polyline fill="none" stroke="#000000" points="727.5,-106.5 727.5,-198.5 "/>
<text text-anchor="middle" x="773.5" y="-171.8" font-family="Times,serif" font-size="14.00" fill="#000000">OUT</text>
<polyline fill="none" stroke="#000000" points="727.5,-152.5 819.5,-152.5 "/>
<text text-anchor="middle" x="773.5" y="-125.8" font-family="Times,serif" font-size="14.00" fill="#000000">out_report</text>
</g>
<!-- fmap_unwarp_report_wfinputnode&#45;&gt;fmap_unwarp_report_wfbold_rpt -->
<g id="edge2" class="edge">
<title>fmap_unwarp_report_wfinputnode:e&#45;&gt;fmap_unwarp_report_wfbold_rpt:w</title>
<path fill="none" stroke="#000000" d="M192,-551C272.1141,-551 484.1768,-497.5183 533,-434 549.4718,-412.5704 527.3485,-211.2463 544.6899,-171.3514"/>
<polygon fill="#000000" stroke="#000000" points="547.0972,-173.8922 552,-164.5 542.3102,-168.7848 547.0972,-173.8922"/>
</g>
<!-- fmap_unwarp_report_wfinputnode&#45;&gt;fmap_unwarp_report_wfbold_rpt -->
<g id="edge4" class="edge">
<title>fmap_unwarp_report_wfinputnode:e&#45;&gt;fmap_unwarp_report_wfbold_rpt:w</title>
<path fill="none" stroke="#000000" d="M192,-528C274.4672,-528 500.3579,-499.0862 551,-434 586.2087,-388.749 551.7778,-362.3346 552,-305 552,-305 552,-186.8033 552,-150.7902"/>
<polygon fill="#000000" stroke="#000000" points="555.5001,-150.5 552,-140.5 548.5001,-150.5 555.5001,-150.5"/>
</g>
<!-- fmap_unwarp_report_wfsel_wm -->
<g id="node3" class="node">
<title>fmap_unwarp_report_wfsel_wm</title>
<polygon fill="none" stroke="#000000" points="342,-235.5 342,-304.5 524,-304.5 524,-235.5 342,-235.5"/>
<text text-anchor="middle" x="373" y="-283.8" font-family="Times,serif" font-size="14.00" fill="#000000">IN</text>
<polyline fill="none" stroke="#000000" points="342,-270.5 404,-270.5 "/>
<text text-anchor="middle" x="373" y="-249.3" font-family="Times,serif" font-size="14.00" fill="#000000">in_seg</text>
<polyline fill="none" stroke="#000000" points="404,-235.5 404,-304.5 "/>
<text text-anchor="middle" x="439" y="-289.3" font-family="Times,serif" font-size="14.00" fill="#000000">sel_wm</text>
<polyline fill="none" stroke="#000000" points="404,-281.5 474,-281.5 "/>
<text text-anchor="middle" x="439" y="-266.3" font-family="Times,serif" font-size="14.00" fill="#000000">utility</text>
<polyline fill="none" stroke="#000000" points="404,-258.5 474,-258.5 "/>
<text text-anchor="middle" x="439" y="-243.3" font-family="Times,serif" font-size="14.00" fill="#000000"> </text>
<polyline fill="none" stroke="#000000" points="474,-235.5 474,-304.5 "/>
<text text-anchor="middle" x="499" y="-283.8" font-family="Times,serif" font-size="14.00" fill="#000000">OUT</text>
<polyline fill="none" stroke="#000000" points="474,-270.5 524,-270.5 "/>
<text text-anchor="middle" x="499" y="-249.3" font-family="Times,serif" font-size="14.00" fill="#000000">out</text>
</g>
<!-- fmap_unwarp_report_wfmap_seg&#45;&gt;fmap_unwarp_report_wfsel_wm -->
<g id="edge7" class="edge">
<title>fmap_unwarp_report_wfmap_seg:e&#45;&gt;fmap_unwarp_report_wfsel_wm:w</title>
<path fill="none" stroke="#000000" d="M524,-364.5C534.4444,-364.5 530.6302,-349.0701 524,-341 471.6564,-277.2885 394.3436,-368.7115 342,-305 329.9651,-290.3514 322.1232,-264.7442 332.4509,-256.0146"/>
<polygon fill="#000000" stroke="#000000" points="333.5176,-259.3482 342,-253 331.4102,-252.6729 333.5176,-259.3482"/>
</g>
<!-- fmap_unwarp_report_wfsel_wm&#45;&gt;fmap_unwarp_report_wfbold_rpt -->
<g id="edge8" class="edge">
<title>fmap_unwarp_report_wfsel_wm:e&#45;&gt;fmap_unwarp_report_wfbold_rpt:w</title>
<path fill="none" stroke="#000000" d="M524,-253C551.024,-253 528.4227,-148.3295 543.428,-122.9796"/>
<polygon fill="#000000" stroke="#000000" points="545.4595,-125.835 552,-117.5 541.6893,-119.9371 545.4595,-125.835"/>
</g>
<!-- fmap_unwarp_report_wfds_report_sdc -->
<g id="node5" class="node">
<title>fmap_unwarp_report_wfds_report_sdc</title>
<polygon fill="none" stroke="#000000" points="820,-.5 820,-69.5 1048,-69.5 1048,-.5 820,-.5"/>
<text text-anchor="middle" x="850" y="-48.8" font-family="Times,serif" font-size="14.00" fill="#000000">IN</text>
<polyline fill="none" stroke="#000000" points="820,-35.5 880,-35.5 "/>
<text text-anchor="middle" x="850" y="-14.3" font-family="Times,serif" font-size="14.00" fill="#000000">in_file</text>
<polyline fill="none" stroke="#000000" points="880,-.5 880,-69.5 "/>
<text text-anchor="middle" x="939" y="-54.3" font-family="Times,serif" font-size="14.00" fill="#000000">ds_report_sdc</text>
<polyline fill="none" stroke="#000000" points="880,-46.5 998,-46.5 "/>
<text text-anchor="middle" x="939" y="-31.3" font-family="Times,serif" font-size="14.00" fill="#000000">bids</text>
<polyline fill="none" stroke="#000000" points="880,-23.5 998,-23.5 "/>
<text text-anchor="middle" x="939" y="-8.3" font-family="Times,serif" font-size="14.00" fill="#000000"> </text>
<polyline fill="none" stroke="#000000" points="998,-.5 998,-69.5 "/>
<text text-anchor="middle" x="1023" y="-31.3" font-family="Times,serif" font-size="14.00" fill="#000000">OUT</text>
</g>
<!-- fmap_unwarp_report_wfbold_rpt&#45;&gt;fmap_unwarp_report_wfds_report_sdc -->
<g id="edge1" class="edge">
<title>fmap_unwarp_report_wfbold_rpt:e&#45;&gt;fmap_unwarp_report_wfds_report_sdc:w</title>
<path fill="none" stroke="#000000" d="M820,-129.5C865.1033,-129.5 787.0534,-37.1351 810.0277,-20.5383"/>
<polygon fill="#000000" stroke="#000000" points="811.1724,-23.8586 820,-18 809.4456,-17.0749 811.1724,-23.8586"/>
</g>
</g>
</svg>
