<?xml version="1.0" encoding="UTF-8" standalone="no"?>
<!DOCTYPE svg PUBLIC "-//W3C//DTD SVG 1.1//EN"
 "http://www.w3.org/Graphics/SVG/1.1/DTD/svg11.dtd">
<!-- Generated by graphviz version 2.40.1 (20161225.0304)
 -->
<!-- Title: structs Pages: 1 -->
<svg width="1056pt" height="631pt"
 viewBox="0.00 0.00 1055.95 631.00" xmlns="http://www.w3.org/2000/svg" xmlns:xlink="http://www.w3.org/1999/xlink">
<g id="graph0" class="graph" transform="scale(1 1) rotate(0) translate(4 627)">
<title>structs</title>
<polygon fill="#ffffff" stroke="transparent" points="-4,4 -4,-627 1051.9545,-627 1051.9545,4 -4,4"/>
<!-- fmap_postproc_wfinputnode -->
<g id="node1" class="node">
<title>fmap_postproc_wfinputnode</title>
<polygon fill="none" stroke="#000000" points="201.9545,-530.5 201.9545,-622.5 423.9545,-622.5 423.9545,-530.5 201.9545,-530.5"/>
<text text-anchor="middle" x="219.4545" y="-572.8" font-family="Times,serif" font-size="14.00" fill="#000000">IN</text>
<polyline fill="none" stroke="#000000" points="236.9545,-530.5 236.9545,-622.5 "/>
<text text-anchor="middle" x="281.4545" y="-603.8" font-family="Times,serif" font-size="14.00" fill="#000000">inputnode</text>
<polyline fill="none" stroke="#000000" points="236.9545,-592.5 325.9545,-592.5 "/>
<text text-anchor="middle" x="281.4545" y="-573.3" font-family="Times,serif" font-size="14.00" fill="#000000">utility</text>
<polyline fill="none" stroke="#000000" points="236.9545,-561.5 325.9545,-561.5 "/>
<text text-anchor="middle" x="281.4545" y="-542.3" font-family="Times,serif" font-size="14.00" fill="#000000"> </text>
<polyline fill="none" stroke="#000000" points="325.9545,-530.5 325.9545,-622.5 "/>
<text text-anchor="middle" x="374.9545" y="-607.3" font-family="Times,serif" font-size="14.00" fill="#000000">OUT</text>
<polyline fill="none" stroke="#000000" points="325.9545,-599.5 423.9545,-599.5 "/>
<text text-anchor="middle" x="374.9545" y="-584.3" font-family="Times,serif" font-size="14.00" fill="#000000">fmap</text>
<polyline fill="none" stroke="#000000" points="325.9545,-576.5 423.9545,-576.5 "/>
<text text-anchor="middle" x="374.9545" y="-561.3" font-family="Times,serif" font-size="14.00" fill="#000000">fmap_mask</text>
<polyline fill="none" stroke="#000000" points="325.9545,-553.5 423.9545,-553.5 "/>
<text text-anchor="middle" x="374.9545" y="-538.3" font-family="Times,serif" font-size="14.00" fill="#000000">metadata</text>
</g>
<!-- fmap_postproc_wfrecenter -->
<g id="node2" class="node">
<title>fmap_postproc_wfrecenter</title>
<polygon fill="none" stroke="#000000" points="14.9545,-424.5 14.9545,-493.5 202.9545,-493.5 202.9545,-424.5 14.9545,-424.5"/>
<text text-anchor="middle" x="44.9545" y="-472.8" font-family="Times,serif" font-size="14.00" fill="#000000">IN</text>
<polyline fill="none" stroke="#000000" points="14.9545,-459.5 74.9545,-459.5 "/>
<text text-anchor="middle" x="44.9545" y="-438.3" font-family="Times,serif" font-size="14.00" fill="#000000">in_file</text>
<polyline fill="none" stroke="#000000" points="74.9545,-424.5 74.9545,-493.5 "/>
<text text-anchor="middle" x="113.9545" y="-478.3" font-family="Times,serif" font-size="14.00" fill="#000000">recenter</text>
<polyline fill="none" stroke="#000000" points="74.9545,-470.5 152.9545,-470.5 "/>
<text text-anchor="middle" x="113.9545" y="-455.3" font-family="Times,serif" font-size="14.00" fill="#000000">utility</text>
<polyline fill="none" stroke="#000000" points="74.9545,-447.5 152.9545,-447.5 "/>
<text text-anchor="middle" x="113.9545" y="-432.3" font-family="Times,serif" font-size="14.00" fill="#000000"> </text>
<polyline fill="none" stroke="#000000" points="152.9545,-424.5 152.9545,-493.5 "/>
<text text-anchor="middle" x="177.9545" y="-472.8" font-family="Times,serif" font-size="14.00" fill="#000000">OUT</text>
<polyline fill="none" stroke="#000000" points="152.9545,-459.5 202.9545,-459.5 "/>
<text text-anchor="middle" x="177.9545" y="-438.3" font-family="Times,serif" font-size="14.00" fill="#000000">out</text>
</g>
<!-- fmap_postproc_wfinputnode&#45;&gt;fmap_postproc_wfrecenter -->
<g id="edge4" class="edge">
<title>fmap_postproc_wfinputnode:e&#45;&gt;fmap_postproc_wfrecenter:w</title>
<path fill="none" stroke="#000000" d="M423.9545,-588.5C449.9545,-588.5 441.5148,-549.1738 423.9545,-530 362.3312,-462.7144 76.5778,-561.2856 14.9545,-494 2.1501,-480.0191 -5.1989,-453.9842 5.3308,-445.0793"/>
<polygon fill="#000000" stroke="#000000" points="6.4968,-448.3811 14.9545,-442 4.3635,-441.714 6.4968,-448.3811"/>
</g>
<!-- fmap_postproc_wfcleanup_wf -->
<g id="node5" class="node">
<title>fmap_postproc_wfcleanup_wf</title>
<polygon fill="none" stroke="#000000" points="395.9545,-106.5 395.9545,-175.5 801.9545,-175.5 801.9545,-106.5 395.9545,-106.5"/>
<text text-anchor="middle" x="471.9545" y="-160.3" font-family="Times,serif" font-size="14.00" fill="#000000">IN</text>
<polyline fill="none" stroke="#000000" points="395.9545,-152.5 547.9545,-152.5 "/>
<text text-anchor="middle" x="471.9545" y="-137.3" font-family="Times,serif" font-size="14.00" fill="#000000">inputnode.in_file</text>
<polyline fill="none" stroke="#000000" points="395.9545,-129.5 547.9545,-129.5 "/>
<text text-anchor="middle" x="471.9545" y="-114.3" font-family="Times,serif" font-size="14.00" fill="#000000">inputnode.in_mask</text>
<polyline fill="none" stroke="#000000" points="547.9545,-106.5 547.9545,-175.5 "/>
<text text-anchor="middle" x="596.9545" y="-160.3" font-family="Times,serif" font-size="14.00" fill="#000000">cleanup_wf</text>
<polyline fill="none" stroke="#000000" points="547.9545,-152.5 645.9545,-152.5 "/>
<text text-anchor="middle" x="596.9545" y="-137.3" font-family="Times,serif" font-size="14.00" fill="#000000"> </text>
<polyline fill="none" stroke="#000000" points="547.9545,-129.5 645.9545,-129.5 "/>
<text text-anchor="middle" x="596.9545" y="-114.3" font-family="Times,serif" font-size="14.00" fill="#000000"> </text>
<polyline fill="none" stroke="#000000" points="645.9545,-106.5 645.9545,-175.5 "/>
<text text-anchor="middle" x="723.9545" y="-154.8" font-family="Times,serif" font-size="14.00" fill="#000000">OUT</text>
<polyline fill="none" stroke="#000000" points="645.9545,-141.5 801.9545,-141.5 "/>
<text text-anchor="middle" x="723.9545" y="-120.3" font-family="Times,serif" font-size="14.00" fill="#000000">outputnode.out_file</text>
</g>
<!-- fmap_postproc_wfinputnode&#45;&gt;fmap_postproc_wfcleanup_wf -->
<g id="edge5" class="edge">
<title>fmap_postproc_wfinputnode:e&#45;&gt;fmap_postproc_wfcleanup_wf:w</title>
<path fill="none" stroke="#000000" d="M423.9545,-564.5C429.6627,-564.5 449.766,-535.3531 403.9545,-212 398.6473,-174.5399 362.2647,-128.1465 386.0148,-119.4425"/>
<polygon fill="#000000" stroke="#000000" points="386.5609,-122.9 395.9545,-118 385.5554,-115.9726 386.5609,-122.9"/>
</g>
<!-- fmap_postproc_wfoutputnode -->
<g id="node6" class="node">
<title>fmap_postproc_wfoutputnode</title>
<polygon fill="none" stroke="#000000" points="815.9545,-.5 815.9545,-69.5 1047.9545,-69.5 1047.9545,-.5 815.9545,-.5"/>
<text text-anchor="middle" x="857.9545" y="-54.3" font-family="Times,serif" font-size="14.00" fill="#000000">IN</text>
<polyline fill="none" stroke="#000000" points="815.9545,-46.5 899.9545,-46.5 "/>
<text text-anchor="middle" x="857.9545" y="-31.3" font-family="Times,serif" font-size="14.00" fill="#000000">metadata</text>
<polyline fill="none" stroke="#000000" points="815.9545,-23.5 899.9545,-23.5 "/>
<text text-anchor="middle" x="857.9545" y="-8.3" font-family="Times,serif" font-size="14.00" fill="#000000">out_fmap</text>
<polyline fill="none" stroke="#000000" points="899.9545,-.5 899.9545,-69.5 "/>
<text text-anchor="middle" x="948.9545" y="-54.3" font-family="Times,serif" font-size="14.00" fill="#000000">outputnode</text>
<polyline fill="none" stroke="#000000" points="899.9545,-46.5 997.9545,-46.5 "/>
<text text-anchor="middle" x="948.9545" y="-31.3" font-family="Times,serif" font-size="14.00" fill="#000000">utility</text>
<polyline fill="none" stroke="#000000" points="899.9545,-23.5 997.9545,-23.5 "/>
<text text-anchor="middle" x="948.9545" y="-8.3" font-family="Times,serif" font-size="14.00" fill="#000000"> </text>
<polyline fill="none" stroke="#000000" points="997.9545,-.5 997.9545,-69.5 "/>
<text text-anchor="middle" x="1022.9545" y="-31.3" font-family="Times,serif" font-size="14.00" fill="#000000">OUT</text>
</g>
<!-- fmap_postproc_wfinputnode&#45;&gt;fmap_postproc_wfoutputnode -->
<g id="edge6" class="edge">
<title>fmap_postproc_wfinputnode:e&#45;&gt;fmap_postproc_wfoutputnode:w</title>
<path fill="none" stroke="#000000" d="M423.9545,-541.5C523.4267,-541.5 829.9545,-452.4722 829.9545,-353 829.9545,-353 829.9545,-353 829.9545,-247 829.9545,-226.344 801.1617,-79.5235 809.7783,-43.1411"/>
<polygon fill="#000000" stroke="#000000" points="812.6989,-45.0823 815.9545,-35 807.1221,-40.8515 812.6989,-45.0823"/>
</g>
<!-- fmap_postproc_wfdenoise -->
<g id="node3" class="node">
<title>fmap_postproc_wfdenoise</title>
<polygon fill="none" stroke="#000000" points="102.4545,-318.5 102.4545,-387.5 303.4545,-387.5 303.4545,-318.5 102.4545,-318.5"/>
<text text-anchor="middle" x="132.4545" y="-366.8" font-family="Times,serif" font-size="14.00" fill="#000000">IN</text>
<polyline fill="none" stroke="#000000" points="102.4545,-353.5 162.4545,-353.5 "/>
<text text-anchor="middle" x="132.4545" y="-332.3" font-family="Times,serif" font-size="14.00" fill="#000000">in_file</text>
<polyline fill="none" stroke="#000000" points="162.4545,-318.5 162.4545,-387.5 "/>
<text text-anchor="middle" x="197.9545" y="-372.3" font-family="Times,serif" font-size="14.00" fill="#000000">denoise</text>
<polyline fill="none" stroke="#000000" points="162.4545,-364.5 233.4545,-364.5 "/>
<text text-anchor="middle" x="197.9545" y="-349.3" font-family="Times,serif" font-size="14.00" fill="#000000">fsl</text>
<polyline fill="none" stroke="#000000" points="162.4545,-341.5 233.4545,-341.5 "/>
<text text-anchor="middle" x="197.9545" y="-326.3" font-family="Times,serif" font-size="14.00" fill="#000000"> </text>
<polyline fill="none" stroke="#000000" points="233.4545,-318.5 233.4545,-387.5 "/>
<text text-anchor="middle" x="268.4545" y="-366.8" font-family="Times,serif" font-size="14.00" fill="#000000">OUT</text>
<polyline fill="none" stroke="#000000" points="233.4545,-353.5 303.4545,-353.5 "/>
<text text-anchor="middle" x="268.4545" y="-332.3" font-family="Times,serif" font-size="14.00" fill="#000000">out_file</text>
</g>
<!-- fmap_postproc_wfrecenter&#45;&gt;fmap_postproc_wfdenoise -->
<g id="edge7" class="edge">
<title>fmap_postproc_wfrecenter:e&#45;&gt;fmap_postproc_wfdenoise:w</title>
<path fill="none" stroke="#000000" d="M202.9545,-442C210.9545,-442 207.5649,-430.5379 202.9545,-424 175.4906,-385.0546 129.4184,-426.9454 101.9545,-388 91.1328,-372.6541 82.6394,-347.9172 92.2311,-339.1803"/>
<polygon fill="#000000" stroke="#000000" points="93.538,-342.4354 101.9545,-336 91.3619,-335.7822 93.538,-342.4354"/>
</g>
<!-- fmap_postproc_wfdemean -->
<g id="node4" class="node">
<title>fmap_postproc_wfdemean</title>
<polygon fill="none" stroke="#000000" points="212.4545,-212.5 212.4545,-281.5 395.4545,-281.5 395.4545,-212.5 212.4545,-212.5"/>
<text text-anchor="middle" x="242.4545" y="-260.8" font-family="Times,serif" font-size="14.00" fill="#000000">IN</text>
<polyline fill="none" stroke="#000000" points="212.4545,-247.5 272.4545,-247.5 "/>
<text text-anchor="middle" x="242.4545" y="-226.3" font-family="Times,serif" font-size="14.00" fill="#000000">in_file</text>
<polyline fill="none" stroke="#000000" points="272.4545,-212.5 272.4545,-281.5 "/>
<text text-anchor="middle" x="308.9545" y="-266.3" font-family="Times,serif" font-size="14.00" fill="#000000">demean</text>
<polyline fill="none" stroke="#000000" points="272.4545,-258.5 345.4545,-258.5 "/>
<text text-anchor="middle" x="308.9545" y="-243.3" font-family="Times,serif" font-size="14.00" fill="#000000">utility</text>
<polyline fill="none" stroke="#000000" points="272.4545,-235.5 345.4545,-235.5 "/>
<text text-anchor="middle" x="308.9545" y="-220.3" font-family="Times,serif" font-size="14.00" fill="#000000"> </text>
<polyline fill="none" stroke="#000000" points="345.4545,-212.5 345.4545,-281.5 "/>
<text text-anchor="middle" x="370.4545" y="-260.8" font-family="Times,serif" font-size="14.00" fill="#000000">OUT</text>
<polyline fill="none" stroke="#000000" points="345.4545,-247.5 395.4545,-247.5 "/>
<text text-anchor="middle" x="370.4545" y="-226.3" font-family="Times,serif" font-size="14.00" fill="#000000">out</text>
</g>
<!-- fmap_postproc_wfdenoise&#45;&gt;fmap_postproc_wfdemean -->
<g id="edge3" class="edge">
<title>fmap_postproc_wfdenoise:e&#45;&gt;fmap_postproc_wfdemean:w</title>
<path fill="none" stroke="#000000" d="M303.9545,-336C311.9545,-336 308.4644,-324.6076 303.9545,-318 279.202,-281.7341 236.707,-318.2659 211.9545,-282 201.3687,-266.4904 192.7279,-241.8558 202.256,-233.1631"/>
<polygon fill="#000000" stroke="#000000" points="203.5326,-236.4282 211.9545,-230 201.3621,-229.7732 203.5326,-236.4282"/>
</g>
<!-- fmap_postproc_wfdemean&#45;&gt;fmap_postproc_wfcleanup_wf -->
<g id="edge2" class="edge">
<title>fmap_postproc_wfdemean:e&#45;&gt;fmap_postproc_wfcleanup_wf:w</title>
<path fill="none" stroke="#000000" d="M395.9545,-230C430.5656,-230 374.3225,-161.8594 386.2201,-144.8242"/>
<polygon fill="#000000" stroke="#000000" points="387.9268,-147.9142 395.9545,-141 385.3672,-141.399 387.9268,-147.9142"/>
</g>
<!-- fmap_postproc_wfcleanup_wf&#45;&gt;fmap_postproc_wfoutputnode -->
<g id="edge1" class="edge">
<title>fmap_postproc_wfcleanup_wf:e&#45;&gt;fmap_postproc_wfoutputnode:w</title>
<path fill="none" stroke="#000000" d="M801.9545,-124C823.3139,-124 800.2589,-42.7822 808.4328,-18.6707"/>
<polygon fill="#000000" stroke="#000000" points="810.7952,-21.2538 815.9545,-12 806.1505,-16.0166 810.7952,-21.2538"/>
</g>
</g>
</svg>
