<?xml version="1.0" encoding="UTF-8" standalone="no"?>
<!DOCTYPE svg PUBLIC "-//W3C//DTD SVG 1.1//EN"
 "http://www.w3.org/Graphics/SVG/1.1/DTD/svg11.dtd">
<!-- Generated by graphviz version 2.40.1 (20161225.0304)
 -->
<!-- Title: structs Pages: 1 -->
<svg width="1644pt" height="1147pt"
 viewBox="0.00 0.00 1643.50 1147.00" xmlns="http://www.w3.org/2000/svg" xmlns:xlink="http://www.w3.org/1999/xlink">
<g id="graph0" class="graph" transform="scale(1 1) rotate(0) translate(4 1143)">
<title>structs</title>
<polygon fill="#ffffff" stroke="transparent" points="-4,4 -4,-1143 1639.5,-1143 1639.5,4 -4,4"/>
<!-- syn_sdc_wfinputnode -->
<g id="node1" class="node">
<title>syn_sdc_wfinputnode</title>
<polygon fill="none" stroke="#000000" points="0,-1023.5 0,-1138.5 276,-1138.5 276,-1023.5 0,-1023.5"/>
<text text-anchor="middle" x="17.5" y="-1077.3" font-family="Times,serif" font-size="14.00" fill="#000000">IN</text>
<polyline fill="none" stroke="#000000" points="35,-1023.5 35,-1138.5 "/>
<text text-anchor="middle" x="79.5" y="-1115.8" font-family="Times,serif" font-size="14.00" fill="#000000">inputnode</text>
<polyline fill="none" stroke="#000000" points="35,-1100.5 124,-1100.5 "/>
<text text-anchor="middle" x="79.5" y="-1077.8" font-family="Times,serif" font-size="14.00" fill="#000000">utility</text>
<polyline fill="none" stroke="#000000" points="35,-1062.5 124,-1062.5 "/>
<text text-anchor="middle" x="79.5" y="-1039.3" font-family="Times,serif" font-size="14.00" fill="#000000"> </text>
<polyline fill="none" stroke="#000000" points="124,-1023.5 124,-1138.5 "/>
<text text-anchor="middle" x="200" y="-1123.3" font-family="Times,serif" font-size="14.00" fill="#000000">OUT</text>
<polyline fill="none" stroke="#000000" points="124,-1115.5 276,-1115.5 "/>
<text text-anchor="middle" x="200" y="-1100.3" font-family="Times,serif" font-size="14.00" fill="#000000">in_reference</text>
<polyline fill="none" stroke="#000000" points="124,-1092.5 276,-1092.5 "/>
<text text-anchor="middle" x="200" y="-1077.3" font-family="Times,serif" font-size="14.00" fill="#000000">in_reference_brain</text>
<polyline fill="none" stroke="#000000" points="124,-1069.5 276,-1069.5 "/>
<text text-anchor="middle" x="200" y="-1054.3" font-family="Times,serif" font-size="14.00" fill="#000000">std2anat_xfm</text>
<polyline fill="none" stroke="#000000" points="124,-1046.5 276,-1046.5 "/>
<text text-anchor="middle" x="200" y="-1031.3" font-family="Times,serif" font-size="14.00" fill="#000000">t1w_brain</text>
</g>
<!-- syn_sdc_wfinvert_t1w -->
<g id="node2" class="node">
<title>syn_sdc_wfinvert_t1w</title>
<polygon fill="none" stroke="#000000" points="276.5,-917.5 276.5,-986.5 507.5,-986.5 507.5,-917.5 276.5,-917.5"/>
<text text-anchor="middle" x="310" y="-971.3" font-family="Times,serif" font-size="14.00" fill="#000000">IN</text>
<polyline fill="none" stroke="#000000" points="276.5,-963.5 343.5,-963.5 "/>
<text text-anchor="middle" x="310" y="-948.3" font-family="Times,serif" font-size="14.00" fill="#000000">in_file</text>
<polyline fill="none" stroke="#000000" points="276.5,-940.5 343.5,-940.5 "/>
<text text-anchor="middle" x="310" y="-925.3" font-family="Times,serif" font-size="14.00" fill="#000000">ref_file</text>
<polyline fill="none" stroke="#000000" points="343.5,-917.5 343.5,-986.5 "/>
<text text-anchor="middle" x="390.5" y="-971.3" font-family="Times,serif" font-size="14.00" fill="#000000">invert_t1w</text>
<polyline fill="none" stroke="#000000" points="343.5,-963.5 437.5,-963.5 "/>
<text text-anchor="middle" x="390.5" y="-948.3" font-family="Times,serif" font-size="14.00" fill="#000000">image</text>
<polyline fill="none" stroke="#000000" points="343.5,-940.5 437.5,-940.5 "/>
<text text-anchor="middle" x="390.5" y="-925.3" font-family="Times,serif" font-size="14.00" fill="#000000"> </text>
<polyline fill="none" stroke="#000000" points="437.5,-917.5 437.5,-986.5 "/>
<text text-anchor="middle" x="472.5" y="-965.8" font-family="Times,serif" font-size="14.00" fill="#000000">OUT</text>
<polyline fill="none" stroke="#000000" points="437.5,-952.5 507.5,-952.5 "/>
<text text-anchor="middle" x="472.5" y="-931.3" font-family="Times,serif" font-size="14.00" fill="#000000">out_file</text>
</g>
<!-- syn_sdc_wfinputnode&#45;&gt;syn_sdc_wfinvert_t1w -->
<g id="edge4" class="edge">
<title>syn_sdc_wfinputnode:e&#45;&gt;syn_sdc_wfinvert_t1w:w</title>
<path fill="none" stroke="#000000" d="M276,-1104C310.7873,-1104 252.2196,-963.9674 267.3148,-934.4293"/>
<polygon fill="#000000" stroke="#000000" points="269.3758,-937.2686 276,-929 265.6652,-931.333 269.3758,-937.2686"/>
</g>
<!-- syn_sdc_wfinputnode&#45;&gt;syn_sdc_wfinvert_t1w -->
<g id="edge11" class="edge">
<title>syn_sdc_wfinputnode:e&#45;&gt;syn_sdc_wfinvert_t1w:w</title>
<path fill="none" stroke="#000000" d="M276,-1035C307.9896,-1035 256.7563,-972.5828 266.6398,-956.0033"/>
<polygon fill="#000000" stroke="#000000" points="268.1819,-959.1504 276,-952 265.4293,-952.7144 268.1819,-959.1504"/>
</g>
<!-- syn_sdc_wfref_2_t1 -->
<g id="node3" class="node">
<title>syn_sdc_wfref_2_t1</title>
<polygon fill="none" stroke="#000000" points="238.5,-811.5 238.5,-880.5 593.5,-880.5 593.5,-811.5 238.5,-811.5"/>
<text text-anchor="middle" x="298.5" y="-865.3" font-family="Times,serif" font-size="14.00" fill="#000000">IN</text>
<polyline fill="none" stroke="#000000" points="238.5,-857.5 358.5,-857.5 "/>
<text text-anchor="middle" x="298.5" y="-842.3" font-family="Times,serif" font-size="14.00" fill="#000000">fixed_image</text>
<polyline fill="none" stroke="#000000" points="238.5,-834.5 358.5,-834.5 "/>
<text text-anchor="middle" x="298.5" y="-819.3" font-family="Times,serif" font-size="14.00" fill="#000000">moving_image</text>
<polyline fill="none" stroke="#000000" points="358.5,-811.5 358.5,-880.5 "/>
<text text-anchor="middle" x="396.5" y="-865.3" font-family="Times,serif" font-size="14.00" fill="#000000">ref_2_t1</text>
<polyline fill="none" stroke="#000000" points="358.5,-857.5 434.5,-857.5 "/>
<text text-anchor="middle" x="396.5" y="-842.3" font-family="Times,serif" font-size="14.00" fill="#000000">fixes</text>
<polyline fill="none" stroke="#000000" points="358.5,-834.5 434.5,-834.5 "/>
<text text-anchor="middle" x="396.5" y="-819.3" font-family="Times,serif" font-size="14.00" fill="#000000"> </text>
<polyline fill="none" stroke="#000000" points="434.5,-811.5 434.5,-880.5 "/>
<text text-anchor="middle" x="514" y="-859.8" font-family="Times,serif" font-size="14.00" fill="#000000">OUT</text>
<polyline fill="none" stroke="#000000" points="434.5,-846.5 593.5,-846.5 "/>
<text text-anchor="middle" x="514" y="-825.3" font-family="Times,serif" font-size="14.00" fill="#000000">forward_transforms</text>
</g>
<!-- syn_sdc_wfinputnode&#45;&gt;syn_sdc_wfref_2_t1 -->
<g id="edge8" class="edge">
<title>syn_sdc_wfinputnode:e&#45;&gt;syn_sdc_wfref_2_t1:w</title>
<path fill="none" stroke="#000000" d="M276,-1081C301.7778,-1081 279.3606,-1048.5578 276,-1023 271.7414,-990.6129 242.2586,-913.3871 238,-881 235.2433,-860.0346 219.6631,-834.4366 228.3823,-825.9143"/>
<polygon fill="#000000" stroke="#000000" points="229.4447,-829.2496 238,-823 227.4147,-822.5504 229.4447,-829.2496"/>
</g>
<!-- syn_sdc_wftransform_list -->
<g id="node4" class="node">
<title>syn_sdc_wftransform_list</title>
<polygon fill="none" stroke="#000000" points="210.5,-694 210.5,-763 417.5,-763 417.5,-694 210.5,-694"/>
<text text-anchor="middle" x="230" y="-747.8" font-family="Times,serif" font-size="14.00" fill="#000000">IN</text>
<polyline fill="none" stroke="#000000" points="210.5,-740 249.5,-740 "/>
<text text-anchor="middle" x="230" y="-724.8" font-family="Times,serif" font-size="14.00" fill="#000000">in1</text>
<polyline fill="none" stroke="#000000" points="210.5,-717 249.5,-717 "/>
<text text-anchor="middle" x="230" y="-701.8" font-family="Times,serif" font-size="14.00" fill="#000000">in2</text>
<polyline fill="none" stroke="#000000" points="249.5,-694 249.5,-763 "/>
<text text-anchor="middle" x="308.5" y="-747.8" font-family="Times,serif" font-size="14.00" fill="#000000">transform_list</text>
<polyline fill="none" stroke="#000000" points="249.5,-740 367.5,-740 "/>
<text text-anchor="middle" x="308.5" y="-724.8" font-family="Times,serif" font-size="14.00" fill="#000000">utility</text>
<polyline fill="none" stroke="#000000" points="249.5,-717 367.5,-717 "/>
<text text-anchor="middle" x="308.5" y="-701.8" font-family="Times,serif" font-size="14.00" fill="#000000"> </text>
<polyline fill="none" stroke="#000000" points="367.5,-694 367.5,-763 "/>
<text text-anchor="middle" x="392.5" y="-742.3" font-family="Times,serif" font-size="14.00" fill="#000000">OUT</text>
<polyline fill="none" stroke="#000000" points="367.5,-729 417.5,-729 "/>
<text text-anchor="middle" x="392.5" y="-707.8" font-family="Times,serif" font-size="14.00" fill="#000000">out</text>
</g>
<!-- syn_sdc_wfinputnode&#45;&gt;syn_sdc_wftransform_list -->
<g id="edge10" class="edge">
<title>syn_sdc_wfinputnode:e&#45;&gt;syn_sdc_wftransform_list:w</title>
<path fill="none" stroke="#000000" d="M276,-1058C291.5556,-1058 281.6392,-1037.4974 276,-1023 268.1314,-1002.7714 252.3288,-1006.5981 243,-987 230.8395,-961.453 188.4726,-754.5868 202.8306,-712.8306"/>
<polygon fill="#000000" stroke="#000000" points="205.5102,-715.0965 210,-705.5 200.5057,-710.202 205.5102,-715.0965"/>
</g>
<!-- syn_sdc_wfatlas_2_ref -->
<g id="node5" class="node">
<title>syn_sdc_wfatlas_2_ref</title>
<polygon fill="none" stroke="#000000" points="172.5,-576.5 172.5,-645.5 519.5,-645.5 519.5,-576.5 172.5,-576.5"/>
<text text-anchor="middle" x="241" y="-630.3" font-family="Times,serif" font-size="14.00" fill="#000000">IN</text>
<polyline fill="none" stroke="#000000" points="172.5,-622.5 309.5,-622.5 "/>
<text text-anchor="middle" x="241" y="-607.3" font-family="Times,serif" font-size="14.00" fill="#000000">reference_image</text>
<polyline fill="none" stroke="#000000" points="172.5,-599.5 309.5,-599.5 "/>
<text text-anchor="middle" x="241" y="-584.3" font-family="Times,serif" font-size="14.00" fill="#000000">transforms</text>
<polyline fill="none" stroke="#000000" points="309.5,-576.5 309.5,-645.5 "/>
<text text-anchor="middle" x="357" y="-630.3" font-family="Times,serif" font-size="14.00" fill="#000000">atlas_2_ref</text>
<polyline fill="none" stroke="#000000" points="309.5,-622.5 404.5,-622.5 "/>
<text text-anchor="middle" x="357" y="-607.3" font-family="Times,serif" font-size="14.00" fill="#000000">fixes</text>
<polyline fill="none" stroke="#000000" points="309.5,-599.5 404.5,-599.5 "/>
<text text-anchor="middle" x="357" y="-584.3" font-family="Times,serif" font-size="14.00" fill="#000000"> </text>
<polyline fill="none" stroke="#000000" points="404.5,-576.5 404.5,-645.5 "/>
<text text-anchor="middle" x="462" y="-624.8" font-family="Times,serif" font-size="14.00" fill="#000000">OUT</text>
<polyline fill="none" stroke="#000000" points="404.5,-611.5 519.5,-611.5 "/>
<text text-anchor="middle" x="462" y="-590.3" font-family="Times,serif" font-size="14.00" fill="#000000">output_image</text>
</g>
<!-- syn_sdc_wfinputnode&#45;&gt;syn_sdc_wfatlas_2_ref -->
<g id="edge3" class="edge">
<title>syn_sdc_wfinputnode:e&#45;&gt;syn_sdc_wfatlas_2_ref:w</title>
<path fill="none" stroke="#000000" d="M276,-1104C312,-1104 293.2508,-1054.5976 276,-1023 261.8217,-997.0301 236.3097,-1011.687 220,-987 170.4061,-911.9328 150.3418,-666.1901 165.7451,-618.9094"/>
<polygon fill="#000000" stroke="#000000" points="168.5423,-621.0148 172,-611 163.0517,-616.6727 168.5423,-621.0148"/>
</g>
<!-- syn_sdc_wft1_2_ref -->
<g id="node8" class="node">
<title>syn_sdc_wft1_2_ref</title>
<polygon fill="none" stroke="#000000" points="594,-682.5 594,-774.5 922,-774.5 922,-682.5 594,-682.5"/>
<text text-anchor="middle" x="662.5" y="-759.3" font-family="Times,serif" font-size="14.00" fill="#000000">IN</text>
<polyline fill="none" stroke="#000000" points="594,-751.5 731,-751.5 "/>
<text text-anchor="middle" x="662.5" y="-736.3" font-family="Times,serif" font-size="14.00" fill="#000000">input_image</text>
<polyline fill="none" stroke="#000000" points="594,-728.5 731,-728.5 "/>
<text text-anchor="middle" x="662.5" y="-713.3" font-family="Times,serif" font-size="14.00" fill="#000000">reference_image</text>
<polyline fill="none" stroke="#000000" points="594,-705.5 731,-705.5 "/>
<text text-anchor="middle" x="662.5" y="-690.3" font-family="Times,serif" font-size="14.00" fill="#000000">transforms</text>
<polyline fill="none" stroke="#000000" points="731,-682.5 731,-774.5 "/>
<text text-anchor="middle" x="769" y="-755.8" font-family="Times,serif" font-size="14.00" fill="#000000">t1_2_ref</text>
<polyline fill="none" stroke="#000000" points="731,-744.5 807,-744.5 "/>
<text text-anchor="middle" x="769" y="-725.3" font-family="Times,serif" font-size="14.00" fill="#000000">fixes</text>
<polyline fill="none" stroke="#000000" points="731,-713.5 807,-713.5 "/>
<text text-anchor="middle" x="769" y="-694.3" font-family="Times,serif" font-size="14.00" fill="#000000"> </text>
<polyline fill="none" stroke="#000000" points="807,-682.5 807,-774.5 "/>
<text text-anchor="middle" x="864.5" y="-747.8" font-family="Times,serif" font-size="14.00" fill="#000000">OUT</text>
<polyline fill="none" stroke="#000000" points="807,-728.5 922,-728.5 "/>
<text text-anchor="middle" x="864.5" y="-701.8" font-family="Times,serif" font-size="14.00" fill="#000000">output_image</text>
</g>
<!-- syn_sdc_wfinputnode&#45;&gt;syn_sdc_wft1_2_ref -->
<g id="edge5" class="edge">
<title>syn_sdc_wfinputnode:e&#45;&gt;syn_sdc_wft1_2_ref:w</title>
<path fill="none" stroke="#000000" d="M276,-1104C458.5763,-1104 551.9351,-1050.0093 621,-881 632.7687,-852.2007 630.8382,-840.5146 621,-811 614.6754,-792.0263 600.3246,-793.9737 594,-775 587.1912,-754.5737 573.8289,-727.8597 584.2027,-719.2802"/>
<polygon fill="#000000" stroke="#000000" points="585.3353,-722.597 594,-716.5 583.4243,-715.8629 585.3353,-722.597"/>
</g>
<!-- syn_sdc_wfsyn -->
<g id="node9" class="node">
<title>syn_sdc_wfsyn</title>
<polygon fill="none" stroke="#000000" points="557.5,-235.5 557.5,-327.5 922.5,-327.5 922.5,-235.5 557.5,-235.5"/>
<text text-anchor="middle" x="635.5" y="-312.3" font-family="Times,serif" font-size="14.00" fill="#000000">IN</text>
<polyline fill="none" stroke="#000000" points="557.5,-304.5 713.5,-304.5 "/>
<text text-anchor="middle" x="635.5" y="-289.3" font-family="Times,serif" font-size="14.00" fill="#000000">fixed_image</text>
<polyline fill="none" stroke="#000000" points="557.5,-281.5 713.5,-281.5 "/>
<text text-anchor="middle" x="635.5" y="-266.3" font-family="Times,serif" font-size="14.00" fill="#000000">fixed_image_masks</text>
<polyline fill="none" stroke="#000000" points="557.5,-258.5 713.5,-258.5 "/>
<text text-anchor="middle" x="635.5" y="-243.3" font-family="Times,serif" font-size="14.00" fill="#000000">moving_image</text>
<polyline fill="none" stroke="#000000" points="713.5,-235.5 713.5,-327.5 "/>
<text text-anchor="middle" x="738.5" y="-308.8" font-family="Times,serif" font-size="14.00" fill="#000000">syn</text>
<polyline fill="none" stroke="#000000" points="713.5,-297.5 763.5,-297.5 "/>
<text text-anchor="middle" x="738.5" y="-278.3" font-family="Times,serif" font-size="14.00" fill="#000000">fixes</text>
<polyline fill="none" stroke="#000000" points="713.5,-266.5 763.5,-266.5 "/>
<text text-anchor="middle" x="738.5" y="-247.3" font-family="Times,serif" font-size="14.00" fill="#000000"> </text>
<polyline fill="none" stroke="#000000" points="763.5,-235.5 763.5,-327.5 "/>
<text text-anchor="middle" x="843" y="-300.8" font-family="Times,serif" font-size="14.00" fill="#000000">OUT</text>
<polyline fill="none" stroke="#000000" points="763.5,-281.5 922.5,-281.5 "/>
<text text-anchor="middle" x="843" y="-254.8" font-family="Times,serif" font-size="14.00" fill="#000000">forward_transforms</text>
</g>
<!-- syn_sdc_wfinputnode&#45;&gt;syn_sdc_wfsyn -->
<g id="edge9" class="edge">
<title>syn_sdc_wfinputnode:e&#45;&gt;syn_sdc_wfsyn:w</title>
<path fill="none" stroke="#000000" d="M276,-1081C301.7778,-1081 290.3252,-1044.4309 276,-1023 252.7452,-988.2103 218.2861,-1016.8904 189,-987 141.9243,-938.9529 134,-913.2655 134,-846 134,-846 134,-846 134,-505 134,-288.1168 330.3901,-247.7374 546.6859,-246.5285"/>
<polygon fill="#000000" stroke="#000000" points="547.0097,-250.0277 557,-246.5 546.9903,-243.0278 547.0097,-250.0277"/>
</g>
<!-- syn_sdc_wfunwarp_ref -->
<g id="node10" class="node">
<title>syn_sdc_wfunwarp_ref</title>
<polygon fill="none" stroke="#000000" points="950,-106.5 950,-198.5 1300,-198.5 1300,-106.5 950,-106.5"/>
<text text-anchor="middle" x="1018.5" y="-183.3" font-family="Times,serif" font-size="14.00" fill="#000000">IN</text>
<polyline fill="none" stroke="#000000" points="950,-175.5 1087,-175.5 "/>
<text text-anchor="middle" x="1018.5" y="-160.3" font-family="Times,serif" font-size="14.00" fill="#000000">input_image</text>
<polyline fill="none" stroke="#000000" points="950,-152.5 1087,-152.5 "/>
<text text-anchor="middle" x="1018.5" y="-137.3" font-family="Times,serif" font-size="14.00" fill="#000000">reference_image</text>
<polyline fill="none" stroke="#000000" points="950,-129.5 1087,-129.5 "/>
<text text-anchor="middle" x="1018.5" y="-114.3" font-family="Times,serif" font-size="14.00" fill="#000000">transforms</text>
<polyline fill="none" stroke="#000000" points="1087,-106.5 1087,-198.5 "/>
<text text-anchor="middle" x="1136" y="-179.8" font-family="Times,serif" font-size="14.00" fill="#000000">unwarp_ref</text>
<polyline fill="none" stroke="#000000" points="1087,-168.5 1185,-168.5 "/>
<text text-anchor="middle" x="1136" y="-149.3" font-family="Times,serif" font-size="14.00" fill="#000000">fixes</text>
<polyline fill="none" stroke="#000000" points="1087,-137.5 1185,-137.5 "/>
<text text-anchor="middle" x="1136" y="-118.3" font-family="Times,serif" font-size="14.00" fill="#000000"> </text>
<polyline fill="none" stroke="#000000" points="1185,-106.5 1185,-198.5 "/>
<text text-anchor="middle" x="1242.5" y="-171.8" font-family="Times,serif" font-size="14.00" fill="#000000">OUT</text>
<polyline fill="none" stroke="#000000" points="1185,-152.5 1300,-152.5 "/>
<text text-anchor="middle" x="1242.5" y="-125.8" font-family="Times,serif" font-size="14.00" fill="#000000">output_image</text>
</g>
<!-- syn_sdc_wfinputnode&#45;&gt;syn_sdc_wfunwarp_ref -->
<g id="edge6" class="edge">
<title>syn_sdc_wfinputnode:e&#45;&gt;syn_sdc_wfunwarp_ref:w</title>
<path fill="none" stroke="#000000" d="M276,-1104C436.3761,-1104 950,-1006.3761 950,-846 950,-846 950,-846 950,-399 950,-393.3131 945.035,-218.8176 948.109,-174.6038"/>
<polygon fill="#000000" stroke="#000000" points="951.6006,-174.9732 950,-164.5 944.7201,-173.6855 951.6006,-174.9732"/>
</g>
<!-- syn_sdc_wfinputnode&#45;&gt;syn_sdc_wfunwarp_ref -->
<g id="edge7" class="edge">
<title>syn_sdc_wfinputnode:e&#45;&gt;syn_sdc_wfunwarp_ref:w</title>
<path fill="none" stroke="#000000" d="M276,-1104C411.4085,-1104 757.7456,-1056.4289 874,-987 943.1874,-945.6802 988,-926.5867 988,-846 988,-846 988,-846 988,-399 988,-325.1299 977.8305,-306.9272 961,-235 957.1882,-218.7098 952.4716,-215.5467 950,-199 949.3023,-194.3292 946.1872,-165.5639 947.0288,-150.1821"/>
<polygon fill="#000000" stroke="#000000" points="950.4122,-151.0868 950,-140.5 943.7202,-149.0331 950.4122,-151.0868"/>
</g>
<!-- syn_sdc_wfinvert_t1w&#45;&gt;syn_sdc_wfref_2_t1 -->
<g id="edge12" class="edge">
<title>syn_sdc_wfinvert_t1w:e&#45;&gt;syn_sdc_wfref_2_t1:w</title>
<path fill="none" stroke="#000000" d="M508,-935C516,-935 513.2698,-923.0191 508,-917 428.2535,-825.9149 317.7465,-972.0851 238,-881 230.7952,-872.7708 226.0317,-858.8104 229.2457,-851.2468"/>
<polygon fill="#000000" stroke="#000000" points="231.2218,-854.1429 238,-846 227.6233,-848.1387 231.2218,-854.1429"/>
</g>
<!-- syn_sdc_wfinvert_t1w&#45;&gt;syn_sdc_wft1_2_ref -->
<g id="edge13" class="edge">
<title>syn_sdc_wfinvert_t1w:e&#45;&gt;syn_sdc_wft1_2_ref:w</title>
<path fill="none" stroke="#000000" d="M508,-935C556.5666,-935 578.5754,-922.9781 603,-881 626.7778,-840.1335 599.7769,-821.9264 594,-775 592.8437,-765.6074 587.2739,-754.667 586.7839,-747.6672"/>
<polygon fill="#000000" stroke="#000000" points="589.3714,-750.0303 594,-740.5 584.4385,-745.0638 589.3714,-750.0303"/>
</g>
<!-- syn_sdc_wfref_2_t1&#45;&gt;syn_sdc_wftransform_list -->
<g id="edge15" class="edge">
<title>syn_sdc_wfref_2_t1:e&#45;&gt;syn_sdc_wftransform_list:w</title>
<path fill="none" stroke="#000000" d="M594,-829C602,-829 599.2983,-816.994 594,-811 480.1089,-682.1528 323.8911,-892.3472 210,-763.5 202.7563,-755.305 198.0086,-741.3308 201.2354,-733.7558"/>
<polygon fill="#000000" stroke="#000000" points="203.2238,-736.6446 210,-728.5 199.6238,-730.6412 203.2238,-736.6446"/>
</g>
<!-- syn_sdc_wfref_2_t1&#45;&gt;syn_sdc_wft1_2_ref -->
<g id="edge14" class="edge">
<title>syn_sdc_wfref_2_t1:e&#45;&gt;syn_sdc_wft1_2_ref:w</title>
<path fill="none" stroke="#000000" d="M594,-829C594,-829 594,-735.1966 594,-703.6845"/>
<polygon fill="#000000" stroke="#000000" points="597.5001,-703.5 594,-693.5 590.5001,-703.5 597.5001,-703.5"/>
</g>
<!-- syn_sdc_wftransform_list&#45;&gt;syn_sdc_wfatlas_2_ref -->
<g id="edge20" class="edge">
<title>syn_sdc_wftransform_list:e&#45;&gt;syn_sdc_wfatlas_2_ref:w</title>
<path fill="none" stroke="#000000" d="M418,-711.5C426,-711.5 423.0925,-699.6698 418,-693.5 347.1174,-607.6215 242.8826,-731.8785 172,-646 158.2831,-629.3811 149.4858,-600.017 162.0264,-590.8292"/>
<polygon fill="#000000" stroke="#000000" points="163.3348,-594.0963 172,-588 161.4244,-587.362 163.3348,-594.0963"/>
</g>
<!-- syn_sdc_wfthreshold_atlas -->
<g id="node6" class="node">
<title>syn_sdc_wfthreshold_atlas</title>
<polygon fill="none" stroke="#000000" points="257.5,-470.5 257.5,-539.5 514.5,-539.5 514.5,-470.5 257.5,-470.5"/>
<text text-anchor="middle" x="287.5" y="-518.8" font-family="Times,serif" font-size="14.00" fill="#000000">IN</text>
<polyline fill="none" stroke="#000000" points="257.5,-505.5 317.5,-505.5 "/>
<text text-anchor="middle" x="287.5" y="-484.3" font-family="Times,serif" font-size="14.00" fill="#000000">in_file</text>
<polyline fill="none" stroke="#000000" points="317.5,-470.5 317.5,-539.5 "/>
<text text-anchor="middle" x="381" y="-524.3" font-family="Times,serif" font-size="14.00" fill="#000000">threshold_atlas</text>
<polyline fill="none" stroke="#000000" points="317.5,-516.5 444.5,-516.5 "/>
<text text-anchor="middle" x="381" y="-501.3" font-family="Times,serif" font-size="14.00" fill="#000000">fsl</text>
<polyline fill="none" stroke="#000000" points="317.5,-493.5 444.5,-493.5 "/>
<text text-anchor="middle" x="381" y="-478.3" font-family="Times,serif" font-size="14.00" fill="#000000"> </text>
<polyline fill="none" stroke="#000000" points="444.5,-470.5 444.5,-539.5 "/>
<text text-anchor="middle" x="479.5" y="-518.8" font-family="Times,serif" font-size="14.00" fill="#000000">OUT</text>
<polyline fill="none" stroke="#000000" points="444.5,-505.5 514.5,-505.5 "/>
<text text-anchor="middle" x="479.5" y="-484.3" font-family="Times,serif" font-size="14.00" fill="#000000">out_file</text>
</g>
<!-- syn_sdc_wfatlas_2_ref&#45;&gt;syn_sdc_wfthreshold_atlas -->
<g id="edge1" class="edge">
<title>syn_sdc_wfatlas_2_ref:e&#45;&gt;syn_sdc_wfthreshold_atlas:w</title>
<path fill="none" stroke="#000000" d="M520,-594C528,-594 525.2593,-582.0282 520,-576 442.4392,-487.0993 334.5608,-628.9007 257,-540 244.5366,-525.7143 236.9692,-499.8746 247.4094,-491.0497"/>
<polygon fill="#000000" stroke="#000000" points="248.5309,-494.3659 257,-488 246.4096,-487.695 248.5309,-494.3659"/>
</g>
<!-- syn_sdc_wffixed_image_masks -->
<g id="node7" class="node">
<title>syn_sdc_wffixed_image_masks</title>
<polygon fill="none" stroke="#000000" points="365.5,-364.5 365.5,-433.5 610.5,-433.5 610.5,-364.5 365.5,-364.5"/>
<text text-anchor="middle" x="385" y="-412.8" font-family="Times,serif" font-size="14.00" fill="#000000">IN</text>
<polyline fill="none" stroke="#000000" points="365.5,-399.5 404.5,-399.5 "/>
<text text-anchor="middle" x="385" y="-378.3" font-family="Times,serif" font-size="14.00" fill="#000000">in2</text>
<polyline fill="none" stroke="#000000" points="404.5,-364.5 404.5,-433.5 "/>
<text text-anchor="middle" x="482.5" y="-418.3" font-family="Times,serif" font-size="14.00" fill="#000000">fixed_image_masks</text>
<polyline fill="none" stroke="#000000" points="404.5,-410.5 560.5,-410.5 "/>
<text text-anchor="middle" x="482.5" y="-395.3" font-family="Times,serif" font-size="14.00" fill="#000000">utility</text>
<polyline fill="none" stroke="#000000" points="404.5,-387.5 560.5,-387.5 "/>
<text text-anchor="middle" x="482.5" y="-372.3" font-family="Times,serif" font-size="14.00" fill="#000000"> </text>
<polyline fill="none" stroke="#000000" points="560.5,-364.5 560.5,-433.5 "/>
<text text-anchor="middle" x="585.5" y="-412.8" font-family="Times,serif" font-size="14.00" fill="#000000">OUT</text>
<polyline fill="none" stroke="#000000" points="560.5,-399.5 610.5,-399.5 "/>
<text text-anchor="middle" x="585.5" y="-378.3" font-family="Times,serif" font-size="14.00" fill="#000000">out</text>
</g>
<!-- syn_sdc_wfthreshold_atlas&#45;&gt;syn_sdc_wffixed_image_masks -->
<g id="edge19" class="edge">
<title>syn_sdc_wfthreshold_atlas:e&#45;&gt;syn_sdc_wffixed_image_masks:w</title>
<path fill="none" stroke="#000000" d="M515,-488C523,-488 519.953,-476.2824 515,-470 472.553,-416.1604 407.447,-487.8396 365,-434 353.3742,-419.2539 345.3834,-394.1421 355.1918,-385.2436"/>
<polygon fill="#000000" stroke="#000000" points="356.6046,-388.4629 365,-382 354.4067,-381.8168 356.6046,-388.4629"/>
</g>
<!-- syn_sdc_wffixed_image_masks&#45;&gt;syn_sdc_wfsyn -->
<g id="edge2" class="edge">
<title>syn_sdc_wffixed_image_masks:e&#45;&gt;syn_sdc_wfsyn:w</title>
<path fill="none" stroke="#000000" d="M611,-382C619,-382 614.7749,-371.0534 611,-364 597.3895,-338.5686 570.6105,-353.4314 557,-328 546.7445,-308.8374 535.4663,-280.833 547.2295,-272.1598"/>
<polygon fill="#000000" stroke="#000000" points="548.2705,-275.5039 557,-269.5 546.4318,-268.7497 548.2705,-275.5039"/>
</g>
<!-- syn_sdc_wft1_2_ref&#45;&gt;syn_sdc_wfsyn -->
<g id="edge18" class="edge">
<title>syn_sdc_wft1_2_ref:e&#45;&gt;syn_sdc_wfsyn:w</title>
<path fill="none" stroke="#000000" d="M922,-705.5C932.4444,-705.5 925.8721,-691.7002 922,-682 849.7396,-500.9775 773.3588,-484.2987 620,-364 594.6261,-344.0961 573.1867,-355.8925 557,-328 551.769,-318.986 546.5653,-306.2873 548.583,-299.077"/>
<polygon fill="#000000" stroke="#000000" points="550.597,-301.9411 557,-293.5 546.7306,-296.1058 550.597,-301.9411"/>
</g>
<!-- syn_sdc_wfsyn&#45;&gt;syn_sdc_wfunwarp_ref -->
<g id="edge17" class="edge">
<title>syn_sdc_wfsyn:e&#45;&gt;syn_sdc_wfunwarp_ref:w</title>
<path fill="none" stroke="#000000" d="M923,-258.5C936.5341,-258.5 933.4092,-212.2839 936,-199 938.8306,-184.4862 934.2719,-140.5575 941.9582,-123.9515"/>
<polygon fill="#000000" stroke="#000000" points="944.3901,-126.4877 950,-117.5 940.0097,-121.0277 944.3901,-126.4877"/>
</g>
<!-- syn_sdc_wfoutputnode -->
<g id="node11" class="node">
<title>syn_sdc_wfoutputnode</title>
<polygon fill="none" stroke="#000000" points="988,-.5 988,-69.5 1216,-69.5 1216,-.5 988,-.5"/>
<text text-anchor="middle" x="1028" y="-54.3" font-family="Times,serif" font-size="14.00" fill="#000000">IN</text>
<polyline fill="none" stroke="#000000" points="988,-46.5 1068,-46.5 "/>
<text text-anchor="middle" x="1028" y="-31.3" font-family="Times,serif" font-size="14.00" fill="#000000">fmap</text>
<polyline fill="none" stroke="#000000" points="988,-23.5 1068,-23.5 "/>
<text text-anchor="middle" x="1028" y="-8.3" font-family="Times,serif" font-size="14.00" fill="#000000">fmap_ref</text>
<polyline fill="none" stroke="#000000" points="1068,-.5 1068,-69.5 "/>
<text text-anchor="middle" x="1117" y="-54.3" font-family="Times,serif" font-size="14.00" fill="#000000">outputnode</text>
<polyline fill="none" stroke="#000000" points="1068,-46.5 1166,-46.5 "/>
<text text-anchor="middle" x="1117" y="-31.3" font-family="Times,serif" font-size="14.00" fill="#000000">utility</text>
<polyline fill="none" stroke="#000000" points="1068,-23.5 1166,-23.5 "/>
<text text-anchor="middle" x="1117" y="-8.3" font-family="Times,serif" font-size="14.00" fill="#000000"> </text>
<polyline fill="none" stroke="#000000" points="1166,-.5 1166,-69.5 "/>
<text text-anchor="middle" x="1191" y="-31.3" font-family="Times,serif" font-size="14.00" fill="#000000">OUT</text>
</g>
<!-- syn_sdc_wfsyn&#45;&gt;syn_sdc_wfoutputnode -->
<g id="edge16" class="edge">
<title>syn_sdc_wfsyn:e&#45;&gt;syn_sdc_wfoutputnode:w</title>
<path fill="none" stroke="#000000" d="M923,-258.5C940.0621,-258.5 935.1316,-122.0211 941,-106 952.6941,-74.0747 950.7667,-42.2047 977.6988,-36.0604"/>
<polygon fill="#000000" stroke="#000000" points="978.411,-39.5057 988,-35 977.6941,-32.5425 978.411,-39.5057"/>
</g>
<!-- syn_sdc_wfunwarp_ref&#45;&gt;syn_sdc_wfoutputnode -->
<g id="edge21" class="edge">
<title>syn_sdc_wfunwarp_ref:e&#45;&gt;syn_sdc_wfoutputnode:w</title>
<path fill="none" stroke="#000000" d="M1300,-129.5C1310.4444,-129.5 1306.9492,-113.7971 1300,-106 1207.1263,-1.7939 1080.8737,-174.2061 988,-70 973.5287,-53.7629 965.1262,-23.6349 978.3378,-14.6163"/>
<polygon fill="#000000" stroke="#000000" points="979.2624,-17.9921 988,-12 977.4328,-11.2354 979.2624,-17.9921"/>
</g>
<!-- syn_sdc_wfskullstrip_bold_wf -->
<g id="node12" class="node">
<title>syn_sdc_wfskullstrip_bold_wf</title>
<polygon fill="none" stroke="#000000" points="1300.5,-.5 1300.5,-69.5 1635.5,-69.5 1635.5,-.5 1300.5,-.5"/>
<text text-anchor="middle" x="1369" y="-48.8" font-family="Times,serif" font-size="14.00" fill="#000000">IN</text>
<polyline fill="none" stroke="#000000" points="1300.5,-35.5 1437.5,-35.5 "/>
<text text-anchor="middle" x="1369" y="-14.3" font-family="Times,serif" font-size="14.00" fill="#000000">inputnode.in_file</text>
<polyline fill="none" stroke="#000000" points="1437.5,-.5 1437.5,-69.5 "/>
<text text-anchor="middle" x="1511.5" y="-54.3" font-family="Times,serif" font-size="14.00" fill="#000000">skullstrip_bold_wf</text>
<polyline fill="none" stroke="#000000" points="1437.5,-46.5 1585.5,-46.5 "/>
<text text-anchor="middle" x="1511.5" y="-31.3" font-family="Times,serif" font-size="14.00" fill="#000000"> </text>
<polyline fill="none" stroke="#000000" points="1437.5,-23.5 1585.5,-23.5 "/>
<text text-anchor="middle" x="1511.5" y="-8.3" font-family="Times,serif" font-size="14.00" fill="#000000"> </text>
<polyline fill="none" stroke="#000000" points="1585.5,-.5 1585.5,-69.5 "/>
<text text-anchor="middle" x="1610.5" y="-31.3" font-family="Times,serif" font-size="14.00" fill="#000000">OUT</text>
</g>
<!-- syn_sdc_wfunwarp_ref&#45;&gt;syn_sdc_wfskullstrip_bold_wf -->
<g id="edge22" class="edge">
<title>syn_sdc_wfunwarp_ref:e&#45;&gt;syn_sdc_wfskullstrip_bold_wf:w</title>
<path fill="none" stroke="#000000" d="M1300,-129.5C1345.1033,-129.5 1267.0534,-37.1351 1290.0277,-20.5383"/>
<polygon fill="#000000" stroke="#000000" points="1291.1724,-23.8586 1300,-18 1289.4456,-17.0749 1291.1724,-23.8586"/>
</g>
</g>
</svg>
