<?xml version="1.0" encoding="UTF-8" standalone="no"?>
<!DOCTYPE svg PUBLIC "-//W3C//DTD SVG 1.1//EN"
 "http://www.w3.org/Graphics/SVG/1.1/DTD/svg11.dtd">
<!-- Generated by graphviz version 2.40.1 (20161225.0304)
 -->
<!-- Title: %3 Pages: 1 -->
<svg width="277pt" height="332pt"
 viewBox="0.00 0.00 276.88 332.00" xmlns="http://www.w3.org/2000/svg" xmlns:xlink="http://www.w3.org/1999/xlink">
<g id="graph0" class="graph" transform="scale(1 1) rotate(0) translate(4 328)">
<title>%3</title>
<polygon fill="#ffffff" stroke="transparent" points="-4,4 -4,-328 272.8847,-328 272.8847,4 -4,4"/>
<!-- inputnode (utility) -->
<g id="node1" class="node">
<title>inputnode (utility)</title>
<ellipse fill="none" stroke="#000000" cx="139.1915" cy="-306" rx="94.7833" ry="18"/>
<text text-anchor="middle" x="139.1915" y="-302.3" font-family="Times,serif" font-size="14.00" fill="#000000">inputnode (utility)</text>
</g>
<!-- magnitude_wf -->
<g id="node2" class="node">
<title>magnitude_wf</title>
<ellipse fill="none" stroke="#000000" cx="192.1915" cy="-234" rx="76.8869" ry="18"/>
<text text-anchor="middle" x="192.1915" y="-230.3" font-family="Times,serif" font-size="14.00" fill="#000000">magnitude_wf</text>
</g>
<!-- inputnode (utility)&#45;&gt;magnitude_wf -->
<g id="edge1" class="edge">
<title>inputnode (utility)&#45;&gt;magnitude_wf</title>
<path fill="none" stroke="#000000" d="M152.5656,-287.8314C158.7639,-279.411 166.2439,-269.2495 173.0277,-260.0338"/>
<polygon fill="#000000" stroke="#000000" points="175.8957,-262.0417 179.0052,-251.9134 170.2583,-257.8919 175.8957,-262.0417"/>
</g>
<!-- phdiff_wf -->
<g id="node3" class="node">
<title>phdiff_wf</title>
<ellipse fill="none" stroke="#000000" cx="96.1915" cy="-162" rx="53.8905" ry="18"/>
<text text-anchor="middle" x="96.1915" y="-158.3" font-family="Times,serif" font-size="14.00" fill="#000000">phdiff_wf</text>
</g>
<!-- inputnode (utility)&#45;&gt;phdiff_wf -->
<g id="edge2" class="edge">
<title>inputnode (utility)&#45;&gt;phdiff_wf</title>
<path fill="none" stroke="#000000" d="M125.4354,-288.0164C118.4813,-277.9628 110.6011,-264.8905 106.1915,-252 99.3752,-232.074 96.9543,-208.3584 96.1952,-190.275"/>
<polygon fill="#000000" stroke="#000000" points="99.6888,-189.9897 95.9162,-180.0893 92.6914,-190.1814 99.6888,-189.9897"/>
</g>
<!-- magnitude_wf&#45;&gt;phdiff_wf -->
<g id="edge5" class="edge">
<title>magnitude_wf&#45;&gt;phdiff_wf</title>
<path fill="none" stroke="#000000" d="M168.9525,-216.5708C156.1774,-206.9895 140.1799,-194.9914 126.4408,-184.687"/>
<polygon fill="#000000" stroke="#000000" points="128.3271,-181.7268 118.2271,-178.5267 124.1271,-187.3268 128.3271,-181.7268"/>
</g>
<!-- fmap_postproc_wf -->
<g id="node4" class="node">
<title>fmap_postproc_wf</title>
<ellipse fill="none" stroke="#000000" cx="96.1915" cy="-90" rx="96.3833" ry="18"/>
<text text-anchor="middle" x="96.1915" y="-86.3" font-family="Times,serif" font-size="14.00" fill="#000000">fmap_postproc_wf</text>
</g>
<!-- magnitude_wf&#45;&gt;fmap_postproc_wf -->
<g id="edge3" class="edge">
<title>magnitude_wf&#45;&gt;fmap_postproc_wf</title>
<path fill="none" stroke="#000000" d="M188.4149,-215.8197C183.8092,-196.6777 174.6605,-166.284 159.1915,-144 151.4131,-132.7949 140.77,-122.4912 130.4455,-113.955"/>
<polygon fill="#000000" stroke="#000000" points="132.3081,-110.9657 122.2945,-107.5047 127.9642,-116.4548 132.3081,-110.9657"/>
</g>
<!-- outputnode (utility) -->
<g id="node5" class="node">
<title>outputnode (utility)</title>
<ellipse fill="none" stroke="#000000" cx="158.1915" cy="-18" rx="101.2821" ry="18"/>
<text text-anchor="middle" x="158.1915" y="-14.3" font-family="Times,serif" font-size="14.00" fill="#000000">outputnode (utility)</text>
</g>
<!-- magnitude_wf&#45;&gt;outputnode (utility) -->
<g id="edge4" class="edge">
<title>magnitude_wf&#45;&gt;outputnode (utility)</title>
<path fill="none" stroke="#000000" d="M197.5882,-215.8748C205.7578,-185.2457 218.571,-121.7252 201.1915,-72 197.5957,-61.7121 191.1287,-51.9193 184.2839,-43.568"/>
<polygon fill="#000000" stroke="#000000" points="186.9079,-41.2517 177.6871,-36.0337 181.6413,-45.863 186.9079,-41.2517"/>
</g>
<!-- phdiff_wf&#45;&gt;fmap_postproc_wf -->
<g id="edge6" class="edge">
<title>phdiff_wf&#45;&gt;fmap_postproc_wf</title>
<path fill="none" stroke="#000000" d="M96.1915,-143.8314C96.1915,-136.131 96.1915,-126.9743 96.1915,-118.4166"/>
<polygon fill="#000000" stroke="#000000" points="99.6916,-118.4132 96.1915,-108.4133 92.6916,-118.4133 99.6916,-118.4132"/>
</g>
<!-- fmap_postproc_wf&#45;&gt;outputnode (utility) -->
<g id="edge7" class="edge">
<title>fmap_postproc_wf&#45;&gt;outputnode (utility)</title>
<path fill="none" stroke="#000000" d="M111.5173,-72.2022C118.9693,-63.5483 128.0612,-52.99 136.2341,-43.4988"/>
<polygon fill="#000000" stroke="#000000" points="138.954,-45.7041 142.827,-35.8425 133.6496,-41.1364 138.954,-45.7041"/>
</g>
</g>
</svg>
