<?xml version="1.0" encoding="UTF-8" standalone="no"?>
<!DOCTYPE svg PUBLIC "-//W3C//DTD SVG 1.1//EN"
 "http://www.w3.org/Graphics/SVG/1.1/DTD/svg11.dtd">
<!-- Generated by graphviz version 2.40.1 (20161225.0304)
 -->
<!-- Title: %3 Pages: 1 -->
<svg width="462pt" height="764pt"
 viewBox="0.00 0.00 462.32 764.00" xmlns="http://www.w3.org/2000/svg" xmlns:xlink="http://www.w3.org/1999/xlink">
<g id="graph0" class="graph" transform="scale(1 1) rotate(0) translate(4 760)">
<title>%3</title>
<polygon fill="#ffffff" stroke="transparent" points="-4,4 -4,-760 458.3208,-760 458.3208,4 -4,4"/>
<!-- inputnode (utility) -->
<g id="node1" class="node">
<title>inputnode (utility)</title>
<ellipse fill="none" stroke="#000000" cx="288.9321" cy="-738" rx="94.7833" ry="18"/>
<text text-anchor="middle" x="288.9321" y="-734.3" font-family="Times,serif" font-size="14.00" fill="#000000">inputnode (utility)</text>
</g>
<!-- flatten (utils) -->
<g id="node2" class="node">
<title>flatten (utils)</title>
<ellipse fill="none" stroke="#000000" cx="166.9321" cy="-666" rx="71.4873" ry="18"/>
<text text-anchor="middle" x="166.9321" y="-662.3" font-family="Times,serif" font-size="14.00" fill="#000000">flatten (utils)</text>
</g>
<!-- inputnode (utility)&#45;&gt;flatten (utils) -->
<g id="edge1" class="edge">
<title>inputnode (utility)&#45;&gt;flatten (utils)</title>
<path fill="none" stroke="#000000" d="M259.71,-720.7542C243.0218,-710.9054 221.9312,-698.4585 204.0769,-687.9215"/>
<polygon fill="#000000" stroke="#000000" points="205.4667,-684.6777 195.0757,-682.6094 201.9089,-690.7062 205.4667,-684.6777"/>
</g>
<!-- cphdr_warp (utils) -->
<g id="node3" class="node">
<title>cphdr_warp (utils)</title>
<ellipse fill="none" stroke="#000000" cx="179.9321" cy="-234" rx="96.6831" ry="18"/>
<text text-anchor="middle" x="179.9321" y="-230.3" font-family="Times,serif" font-size="14.00" fill="#000000">cphdr_warp (utils)</text>
</g>
<!-- inputnode (utility)&#45;&gt;cphdr_warp (utils) -->
<g id="edge2" class="edge">
<title>inputnode (utility)&#45;&gt;cphdr_warp (utils)</title>
<path fill="none" stroke="#000000" d="M288.9321,-719.8146C288.9321,-692.4983 288.9321,-639.25 288.9321,-594 288.9321,-594 288.9321,-594 288.9321,-378 288.9321,-327.4868 245.7646,-283.522 213.7612,-257.8685"/>
<polygon fill="#000000" stroke="#000000" points="215.5313,-254.8114 205.4877,-251.4382 211.2356,-260.3384 215.5313,-254.8114"/>
</g>
<!-- unwarp_reference (fixes) -->
<g id="node4" class="node">
<title>unwarp_reference (fixes)</title>
<ellipse fill="none" stroke="#000000" cx="326.9321" cy="-90" rx="127.2775" ry="18"/>
<text text-anchor="middle" x="326.9321" y="-86.3" font-family="Times,serif" font-size="14.00" fill="#000000">unwarp_reference (fixes)</text>
</g>
<!-- inputnode (utility)&#45;&gt;unwarp_reference (fixes) -->
<g id="edge3" class="edge">
<title>inputnode (utility)&#45;&gt;unwarp_reference (fixes)</title>
<path fill="none" stroke="#000000" d="M296.9909,-719.7668C308.1455,-692.8248 326.9321,-640.5405 326.9321,-594 326.9321,-594 326.9321,-594 326.9321,-234 326.9321,-193.876 326.9321,-147.4631 326.9321,-118.4177"/>
<polygon fill="#000000" stroke="#000000" points="330.4322,-118.1853 326.9321,-108.1854 323.4322,-118.1854 330.4322,-118.1853"/>
</g>
<!-- sort_pe (utility) -->
<g id="node5" class="node">
<title>sort_pe (utility)</title>
<ellipse fill="none" stroke="#000000" cx="142.9321" cy="-594" rx="83.3857" ry="18"/>
<text text-anchor="middle" x="142.9321" y="-590.3" font-family="Times,serif" font-size="14.00" fill="#000000">sort_pe (utility)</text>
</g>
<!-- flatten (utils)&#45;&gt;sort_pe (utility) -->
<g id="edge4" class="edge">
<title>flatten (utils)&#45;&gt;sort_pe (utility)</title>
<path fill="none" stroke="#000000" d="M160.8759,-647.8314C158.2809,-640.0463 155.1897,-630.7729 152.3103,-622.1347"/>
<polygon fill="#000000" stroke="#000000" points="155.5526,-620.7933 149.0698,-612.4133 148.9118,-623.0069 155.5526,-620.7933"/>
</g>
<!-- to_ants (utility) -->
<g id="node11" class="node">
<title>to_ants (utility)</title>
<ellipse fill="none" stroke="#000000" cx="179.9321" cy="-162" rx="82.5854" ry="18"/>
<text text-anchor="middle" x="179.9321" y="-158.3" font-family="Times,serif" font-size="14.00" fill="#000000">to_ants (utility)</text>
</g>
<!-- cphdr_warp (utils)&#45;&gt;to_ants (utility) -->
<g id="edge5" class="edge">
<title>cphdr_warp (utils)&#45;&gt;to_ants (utility)</title>
<path fill="none" stroke="#000000" d="M179.9321,-215.8314C179.9321,-208.131 179.9321,-198.9743 179.9321,-190.4166"/>
<polygon fill="#000000" stroke="#000000" points="183.4322,-190.4132 179.9321,-180.4133 176.4322,-190.4133 183.4322,-190.4132"/>
</g>
<!-- outputnode (utility) -->
<g id="node12" class="node">
<title>outputnode (utility)</title>
<ellipse fill="none" stroke="#000000" cx="248.9321" cy="-18" rx="101.2821" ry="18"/>
<text text-anchor="middle" x="248.9321" y="-14.3" font-family="Times,serif" font-size="14.00" fill="#000000">outputnode (utility)</text>
</g>
<!-- unwarp_reference (fixes)&#45;&gt;outputnode (utility) -->
<g id="edge6" class="edge">
<title>unwarp_reference (fixes)&#45;&gt;outputnode (utility)</title>
<path fill="none" stroke="#000000" d="M307.6512,-72.2022C297.9948,-63.2887 286.1497,-52.3548 275.6337,-42.6476"/>
<polygon fill="#000000" stroke="#000000" points="277.9836,-40.0536 268.2615,-35.8425 273.2356,-45.1972 277.9836,-40.0536"/>
</g>
<!-- qwarp (afni) -->
<g id="node6" class="node">
<title>qwarp (afni)</title>
<ellipse fill="none" stroke="#000000" cx="166.9321" cy="-306" rx="67.6881" ry="18"/>
<text text-anchor="middle" x="166.9321" y="-302.3" font-family="Times,serif" font-size="14.00" fill="#000000">qwarp (afni)</text>
</g>
<!-- sort_pe (utility)&#45;&gt;qwarp (afni) -->
<g id="edge7" class="edge">
<title>sort_pe (utility)&#45;&gt;qwarp (afni)</title>
<path fill="none" stroke="#000000" d="M78.9839,-582.3631C55.041,-574.5647 30.2072,-561.5817 15.9321,-540 -10.5487,-499.9654 2.0224,-477.9404 15.9321,-432 27.077,-395.191 35.3461,-385.7284 63.9321,-360 79.8514,-345.672 100.263,-333.9463 118.7106,-325.1264"/>
<polygon fill="#000000" stroke="#000000" points="120.2463,-328.2725 127.8614,-320.9063 117.3148,-321.9159 120.2463,-328.2725"/>
</g>
<!-- merge_pes (freesurfer) -->
<g id="node7" class="node">
<title>merge_pes (freesurfer)</title>
<ellipse fill="none" stroke="#000000" cx="142.9321" cy="-522" rx="118.0794" ry="18"/>
<text text-anchor="middle" x="142.9321" y="-518.3" font-family="Times,serif" font-size="14.00" fill="#000000">merge_pes (freesurfer)</text>
</g>
<!-- sort_pe (utility)&#45;&gt;merge_pes (freesurfer) -->
<g id="edge8" class="edge">
<title>sort_pe (utility)&#45;&gt;merge_pes (freesurfer)</title>
<path fill="none" stroke="#000000" d="M142.9321,-575.8314C142.9321,-568.131 142.9321,-558.9743 142.9321,-550.4166"/>
<polygon fill="#000000" stroke="#000000" points="146.4322,-550.4132 142.9321,-540.4133 139.4322,-550.4133 146.4322,-550.4132"/>
</g>
<!-- qwarp (afni)&#45;&gt;cphdr_warp (utils) -->
<g id="edge9" class="edge">
<title>qwarp (afni)&#45;&gt;cphdr_warp (utils)</title>
<path fill="none" stroke="#000000" d="M170.2125,-287.8314C171.6029,-280.131 173.2562,-270.9743 174.8013,-262.4166"/>
<polygon fill="#000000" stroke="#000000" points="178.2749,-262.8761 176.6075,-252.4133 171.3863,-261.6322 178.2749,-262.8761"/>
</g>
<!-- pe0_wf -->
<g id="node8" class="node">
<title>pe0_wf</title>
<ellipse fill="none" stroke="#000000" cx="68.9321" cy="-450" rx="44.393" ry="18"/>
<text text-anchor="middle" x="68.9321" y="-446.3" font-family="Times,serif" font-size="14.00" fill="#000000">pe0_wf</text>
</g>
<!-- merge_pes (freesurfer)&#45;&gt;pe0_wf -->
<g id="edge10" class="edge">
<title>merge_pes (freesurfer)&#45;&gt;pe0_wf</title>
<path fill="none" stroke="#000000" d="M124.6399,-504.2022C115.2267,-495.0434 103.621,-483.7514 93.4436,-473.849"/>
<polygon fill="#000000" stroke="#000000" points="95.6072,-471.0709 85.9992,-466.6058 90.7257,-476.088 95.6072,-471.0709"/>
</g>
<!-- pe1_wf -->
<g id="node9" class="node">
<title>pe1_wf</title>
<ellipse fill="none" stroke="#000000" cx="174.9321" cy="-450" rx="44.393" ry="18"/>
<text text-anchor="middle" x="174.9321" y="-446.3" font-family="Times,serif" font-size="14.00" fill="#000000">pe1_wf</text>
</g>
<!-- merge_pes (freesurfer)&#45;&gt;pe1_wf -->
<g id="edge11" class="edge">
<title>merge_pes (freesurfer)&#45;&gt;pe1_wf</title>
<path fill="none" stroke="#000000" d="M151.007,-503.8314C154.5967,-495.7547 158.8983,-486.0761 162.8579,-477.1668"/>
<polygon fill="#000000" stroke="#000000" points="166.1075,-478.473 166.9706,-467.9134 159.7108,-475.63 166.1075,-478.473"/>
</g>
<!-- pe0_wf&#45;&gt;qwarp (afni) -->
<g id="edge13" class="edge">
<title>pe0_wf&#45;&gt;qwarp (afni)</title>
<path fill="none" stroke="#000000" d="M66.7883,-431.9131C65.4288,-412.5729 66.0346,-381.7557 79.9321,-360 89.2046,-345.4845 103.9206,-334.2213 118.6314,-325.8279"/>
<polygon fill="#000000" stroke="#000000" points="120.5651,-328.7633 127.7416,-320.9692 117.2709,-322.5868 120.5651,-328.7633"/>
</g>
<!-- align_pes (fixes) -->
<g id="node10" class="node">
<title>align_pes (fixes)</title>
<ellipse fill="none" stroke="#000000" cx="174.9321" cy="-378" rx="86.3847" ry="18"/>
<text text-anchor="middle" x="174.9321" y="-374.3" font-family="Times,serif" font-size="14.00" fill="#000000">align_pes (fixes)</text>
</g>
<!-- pe0_wf&#45;&gt;align_pes (fixes) -->
<g id="edge12" class="edge">
<title>pe0_wf&#45;&gt;align_pes (fixes)</title>
<path fill="none" stroke="#000000" d="M91.6717,-434.5542C105.9408,-424.862 124.6106,-412.1806 140.6541,-401.2831"/>
<polygon fill="#000000" stroke="#000000" points="142.9468,-403.957 149.2524,-395.4428 139.0136,-398.1664 142.9468,-403.957"/>
</g>
<!-- pe1_wf&#45;&gt;align_pes (fixes) -->
<g id="edge14" class="edge">
<title>pe1_wf&#45;&gt;align_pes (fixes)</title>
<path fill="none" stroke="#000000" d="M174.9321,-431.8314C174.9321,-424.131 174.9321,-414.9743 174.9321,-406.4166"/>
<polygon fill="#000000" stroke="#000000" points="178.4322,-406.4132 174.9321,-396.4133 171.4322,-406.4133 178.4322,-406.4132"/>
</g>
<!-- align_pes (fixes)&#45;&gt;qwarp (afni) -->
<g id="edge15" class="edge">
<title>align_pes (fixes)&#45;&gt;qwarp (afni)</title>
<path fill="none" stroke="#000000" d="M172.9133,-359.8314C172.0577,-352.131 171.0403,-342.9743 170.0895,-334.4166"/>
<polygon fill="#000000" stroke="#000000" points="173.561,-333.9656 168.978,-324.4133 166.6038,-334.7386 173.561,-333.9656"/>
</g>
<!-- to_ants (utility)&#45;&gt;unwarp_reference (fixes) -->
<g id="edge16" class="edge">
<title>to_ants (utility)&#45;&gt;unwarp_reference (fixes)</title>
<path fill="none" stroke="#000000" d="M213.6569,-145.4817C234.0533,-135.4916 260.2977,-122.6373 282.3882,-111.8174"/>
<polygon fill="#000000" stroke="#000000" points="284.1311,-114.8611 291.5721,-107.3192 281.052,-108.5747 284.1311,-114.8611"/>
</g>
<!-- to_ants (utility)&#45;&gt;outputnode (utility) -->
<g id="edge17" class="edge">
<title>to_ants (utility)&#45;&gt;outputnode (utility)</title>
<path fill="none" stroke="#000000" d="M178.6084,-143.6978C178.0232,-124.7257 179.3522,-94.7201 190.9321,-72 196.6915,-60.6999 205.8242,-50.5357 215.1538,-42.1547"/>
<polygon fill="#000000" stroke="#000000" points="217.5908,-44.6776 222.9672,-35.5483 213.0711,-39.3322 217.5908,-44.6776"/>
</g>
</g>
</svg>
