<?xml version="1.0" encoding="UTF-8" standalone="no"?>
<!DOCTYPE svg PUBLIC "-//W3C//DTD SVG 1.1//EN"
 "http://www.w3.org/Graphics/SVG/1.1/DTD/svg11.dtd">
<!-- Generated by graphviz version 2.40.1 (20161225.0304)
 -->
<!-- Title: %3 Pages: 1 -->
<svg width="677pt" height="692pt"
 viewBox="0.00 0.00 676.88 692.00" xmlns="http://www.w3.org/2000/svg" xmlns:xlink="http://www.w3.org/1999/xlink">
<g id="graph0" class="graph" transform="scale(1 1) rotate(0) translate(4 688)">
<title>%3</title>
<polygon fill="#ffffff" stroke="transparent" points="-4,4 -4,-688 672.8833,-688 672.8833,4 -4,4"/>
<!-- inputnode (utility) -->
<g id="node1" class="node">
<title>inputnode (utility)</title>
<ellipse fill="none" stroke="#000000" cx="286.6919" cy="-666" rx="94.7833" ry="18"/>
<text text-anchor="middle" x="286.6919" y="-662.3" font-family="Times,serif" font-size="14.00" fill="#000000">inputnode (utility)</text>
</g>
<!-- invert_t1w (image) -->
<g id="node2" class="node">
<title>invert_t1w (image)</title>
<ellipse fill="none" stroke="#000000" cx="286.6919" cy="-594" rx="98.5829" ry="18"/>
<text text-anchor="middle" x="286.6919" y="-590.3" font-family="Times,serif" font-size="14.00" fill="#000000">invert_t1w (image)</text>
</g>
<!-- inputnode (utility)&#45;&gt;invert_t1w (image) -->
<g id="edge1" class="edge">
<title>inputnode (utility)&#45;&gt;invert_t1w (image)</title>
<path fill="none" stroke="#000000" d="M286.6919,-647.8314C286.6919,-640.131 286.6919,-630.9743 286.6919,-622.4166"/>
<polygon fill="#000000" stroke="#000000" points="290.192,-622.4132 286.6919,-612.4133 283.192,-622.4133 290.192,-622.4132"/>
</g>
<!-- ref_2_t1 (fixes) -->
<g id="node3" class="node">
<title>ref_2_t1 (fixes)</title>
<ellipse fill="none" stroke="#000000" cx="231.6919" cy="-522" rx="81.4863" ry="18"/>
<text text-anchor="middle" x="231.6919" y="-518.3" font-family="Times,serif" font-size="14.00" fill="#000000">ref_2_t1 (fixes)</text>
</g>
<!-- inputnode (utility)&#45;&gt;ref_2_t1 (fixes) -->
<g id="edge2" class="edge">
<title>inputnode (utility)&#45;&gt;ref_2_t1 (fixes)</title>
<path fill="none" stroke="#000000" d="M230.6558,-651.4605C210.7049,-643.2911 190.319,-630.8131 178.6919,-612 170.2802,-598.3896 172.6381,-590.8105 178.6919,-576 183.2664,-564.8085 191.4024,-554.6843 199.9476,-546.3065"/>
<polygon fill="#000000" stroke="#000000" points="202.4686,-548.7438 207.4832,-539.4108 197.743,-543.5797 202.4686,-548.7438"/>
</g>
<!-- t1_2_ref (fixes) -->
<g id="node4" class="node">
<title>t1_2_ref (fixes)</title>
<ellipse fill="none" stroke="#000000" cx="342.6919" cy="-450" rx="81.4863" ry="18"/>
<text text-anchor="middle" x="342.6919" y="-446.3" font-family="Times,serif" font-size="14.00" fill="#000000">t1_2_ref (fixes)</text>
</g>
<!-- inputnode (utility)&#45;&gt;t1_2_ref (fixes) -->
<g id="edge3" class="edge">
<title>inputnode (utility)&#45;&gt;t1_2_ref (fixes)</title>
<path fill="none" stroke="#000000" d="M342.728,-651.4605C362.6788,-643.2911 383.0647,-630.8131 394.6919,-612 421.6345,-568.4059 388.1743,-509.4938 363.8087,-476.0492"/>
<polygon fill="#000000" stroke="#000000" points="366.353,-473.6092 357.5442,-467.7224 360.7593,-477.8176 366.353,-473.6092"/>
</g>
<!-- transform_list (utility) -->
<g id="node5" class="node">
<title>transform_list (utility)</title>
<ellipse fill="none" stroke="#000000" cx="128.6919" cy="-450" rx="114.2798" ry="18"/>
<text text-anchor="middle" x="128.6919" y="-446.3" font-family="Times,serif" font-size="14.00" fill="#000000">transform_list (utility)</text>
</g>
<!-- inputnode (utility)&#45;&gt;transform_list (utility) -->
<g id="edge4" class="edge">
<title>inputnode (utility)&#45;&gt;transform_list (utility)</title>
<path fill="none" stroke="#000000" d="M232.9782,-651.0643C210.9584,-642.6458 186.7028,-630.0909 169.6919,-612 135.2915,-575.4156 128.6664,-514.2417 127.9832,-478.456"/>
<polygon fill="#000000" stroke="#000000" points="131.4822,-478.2049 127.9378,-468.2205 124.4823,-478.236 131.4822,-478.2049"/>
</g>
<!-- atlas_2_ref (fixes) -->
<g id="node6" class="node">
<title>atlas_2_ref (fixes)</title>
<ellipse fill="none" stroke="#000000" cx="128.6919" cy="-378" rx="93.6835" ry="18"/>
<text text-anchor="middle" x="128.6919" y="-374.3" font-family="Times,serif" font-size="14.00" fill="#000000">atlas_2_ref (fixes)</text>
</g>
<!-- inputnode (utility)&#45;&gt;atlas_2_ref (fixes) -->
<g id="edge5" class="edge">
<title>inputnode (utility)&#45;&gt;atlas_2_ref (fixes)</title>
<path fill="none" stroke="#000000" d="M230.9933,-651.3353C203.3428,-642.5172 170.2613,-629.5548 143.6919,-612 69.7329,-563.1343 38.7415,-550.2527 5.6919,-468 -.2735,-453.1536 -3.0571,-445.3961 5.6919,-432 17.0346,-414.6325 35.3436,-402.8148 54.4088,-394.7869"/>
<polygon fill="#000000" stroke="#000000" points="55.7447,-398.0228 63.8016,-391.1426 53.2127,-391.4968 55.7447,-398.0228"/>
</g>
<!-- syn (fixes) -->
<g id="node7" class="node">
<title>syn (fixes)</title>
<ellipse fill="none" stroke="#000000" cx="356.6919" cy="-162" rx="58.4896" ry="18"/>
<text text-anchor="middle" x="356.6919" y="-158.3" font-family="Times,serif" font-size="14.00" fill="#000000">syn (fixes)</text>
</g>
<!-- inputnode (utility)&#45;&gt;syn (fixes) -->
<g id="edge6" class="edge">
<title>inputnode (utility)&#45;&gt;syn (fixes)</title>
<path fill="none" stroke="#000000" d="M344.1545,-651.5949C367.8003,-643.2704 393.9746,-630.6422 412.6919,-612 443.5794,-581.2363 451.6919,-565.5941 451.6919,-522 451.6919,-522 451.6919,-522 451.6919,-306 451.6919,-257.2699 413.318,-212.3148 385.348,-186.0201"/>
<polygon fill="#000000" stroke="#000000" points="387.5217,-183.2655 377.7754,-179.1108 382.8036,-188.4365 387.5217,-183.2655"/>
</g>
<!-- unwarp_ref (fixes) -->
<g id="node8" class="node">
<title>unwarp_ref (fixes)</title>
<ellipse fill="none" stroke="#000000" cx="486.6919" cy="-90" rx="95.5831" ry="18"/>
<text text-anchor="middle" x="486.6919" y="-86.3" font-family="Times,serif" font-size="14.00" fill="#000000">unwarp_ref (fixes)</text>
</g>
<!-- inputnode (utility)&#45;&gt;unwarp_ref (fixes) -->
<g id="edge7" class="edge">
<title>inputnode (utility)&#45;&gt;unwarp_ref (fixes)</title>
<path fill="none" stroke="#000000" d="M355.1089,-653.4771C384.0209,-645.4627 416.5191,-632.5571 440.6919,-612 475.3865,-582.4948 489.6919,-567.5442 489.6919,-522 489.6919,-522 489.6919,-522 489.6919,-234 489.6919,-193.8673 488.5127,-147.4566 487.6329,-118.414"/>
<polygon fill="#000000" stroke="#000000" points="491.1239,-118.0687 487.3135,-108.1828 484.1274,-118.2872 491.1239,-118.0687"/>
</g>
<!-- invert_t1w (image)&#45;&gt;ref_2_t1 (fixes) -->
<g id="edge8" class="edge">
<title>invert_t1w (image)&#45;&gt;ref_2_t1 (fixes)</title>
<path fill="none" stroke="#000000" d="M272.813,-575.8314C266.3809,-567.411 258.6186,-557.2495 251.5788,-548.0338"/>
<polygon fill="#000000" stroke="#000000" points="254.2275,-545.7355 245.3757,-539.9134 248.6648,-549.9848 254.2275,-545.7355"/>
</g>
<!-- invert_t1w (image)&#45;&gt;t1_2_ref (fixes) -->
<g id="edge9" class="edge">
<title>invert_t1w (image)&#45;&gt;t1_2_ref (fixes)</title>
<path fill="none" stroke="#000000" d="M300.6872,-575.9027C307.8886,-565.8159 316.2697,-552.7481 321.6919,-540 330.1437,-520.1288 335.513,-496.2763 338.7049,-478.1208"/>
<polygon fill="#000000" stroke="#000000" points="342.1734,-478.5975 340.3395,-468.1626 335.2658,-477.4636 342.1734,-478.5975"/>
</g>
<!-- ref_2_t1 (fixes)&#45;&gt;t1_2_ref (fixes) -->
<g id="edge10" class="edge">
<title>ref_2_t1 (fixes)&#45;&gt;t1_2_ref (fixes)</title>
<path fill="none" stroke="#000000" d="M257.9973,-504.937C272.8187,-495.3231 291.5233,-483.1904 307.5825,-472.7737"/>
<polygon fill="#000000" stroke="#000000" points="309.7056,-475.5684 316.1906,-467.19 305.8963,-469.6956 309.7056,-475.5684"/>
</g>
<!-- ref_2_t1 (fixes)&#45;&gt;transform_list (utility) -->
<g id="edge11" class="edge">
<title>ref_2_t1 (fixes)&#45;&gt;transform_list (utility)</title>
<path fill="none" stroke="#000000" d="M207.0208,-504.7542C193.5881,-495.3644 176.7769,-483.6128 162.1762,-473.4065"/>
<polygon fill="#000000" stroke="#000000" points="164.0785,-470.466 153.8772,-467.6053 160.068,-476.2032 164.0785,-470.466"/>
</g>
<!-- t1_2_ref (fixes)&#45;&gt;syn (fixes) -->
<g id="edge12" class="edge">
<title>t1_2_ref (fixes)&#45;&gt;syn (fixes)</title>
<path fill="none" stroke="#000000" d="M343.5676,-431.9843C345.9345,-383.2939 352.4726,-248.7961 355.328,-190.0573"/>
<polygon fill="#000000" stroke="#000000" points="358.8267,-190.1671 355.8164,-180.0089 351.8349,-189.8271 358.8267,-190.1671"/>
</g>
<!-- transform_list (utility)&#45;&gt;atlas_2_ref (fixes) -->
<g id="edge13" class="edge">
<title>transform_list (utility)&#45;&gt;atlas_2_ref (fixes)</title>
<path fill="none" stroke="#000000" d="M128.6919,-431.8314C128.6919,-424.131 128.6919,-414.9743 128.6919,-406.4166"/>
<polygon fill="#000000" stroke="#000000" points="132.192,-406.4132 128.6919,-396.4133 125.192,-406.4133 132.192,-406.4132"/>
</g>
<!-- threshold_atlas (fsl) -->
<g id="node9" class="node">
<title>threshold_atlas (fsl)</title>
<ellipse fill="none" stroke="#000000" cx="134.6919" cy="-306" rx="103.1819" ry="18"/>
<text text-anchor="middle" x="134.6919" y="-302.3" font-family="Times,serif" font-size="14.00" fill="#000000">threshold_atlas (fsl)</text>
</g>
<!-- atlas_2_ref (fixes)&#45;&gt;threshold_atlas (fsl) -->
<g id="edge14" class="edge">
<title>atlas_2_ref (fixes)&#45;&gt;threshold_atlas (fsl)</title>
<path fill="none" stroke="#000000" d="M130.2059,-359.8314C130.8476,-352.131 131.6107,-342.9743 132.3238,-334.4166"/>
<polygon fill="#000000" stroke="#000000" points="135.8148,-334.6694 133.1574,-324.4133 128.839,-334.088 135.8148,-334.6694"/>
</g>
<!-- syn (fixes)&#45;&gt;unwarp_ref (fixes) -->
<g id="edge16" class="edge">
<title>syn (fixes)&#45;&gt;unwarp_ref (fixes)</title>
<path fill="none" stroke="#000000" d="M385.2209,-146.1993C403.2395,-136.2198 426.7864,-123.1784 446.6607,-112.1711"/>
<polygon fill="#000000" stroke="#000000" points="448.4485,-115.1819 455.5007,-107.2751 445.057,-109.0584 448.4485,-115.1819"/>
</g>
<!-- outputnode (utility) -->
<g id="node11" class="node">
<title>outputnode (utility)</title>
<ellipse fill="none" stroke="#000000" cx="356.6919" cy="-18" rx="101.2821" ry="18"/>
<text text-anchor="middle" x="356.6919" y="-14.3" font-family="Times,serif" font-size="14.00" fill="#000000">outputnode (utility)</text>
</g>
<!-- syn (fixes)&#45;&gt;outputnode (utility) -->
<g id="edge15" class="edge">
<title>syn (fixes)&#45;&gt;outputnode (utility)</title>
<path fill="none" stroke="#000000" d="M356.6919,-143.7623C356.6919,-119.201 356.6919,-75.2474 356.6919,-46.3541"/>
<polygon fill="#000000" stroke="#000000" points="360.192,-46.0896 356.6919,-36.0896 353.192,-46.0897 360.192,-46.0896"/>
</g>
<!-- unwarp_ref (fixes)&#45;&gt;outputnode (utility) -->
<g id="edge18" class="edge">
<title>unwarp_ref (fixes)&#45;&gt;outputnode (utility)</title>
<path fill="none" stroke="#000000" d="M455.8837,-72.937C438.1235,-63.1006 415.6024,-50.6274 396.51,-40.0531"/>
<polygon fill="#000000" stroke="#000000" points="398.1731,-36.9733 387.7294,-35.19 394.7816,-43.0969 398.1731,-36.9733"/>
</g>
<!-- skullstrip_bold_wf -->
<g id="node12" class="node">
<title>skullstrip_bold_wf</title>
<ellipse fill="none" stroke="#000000" cx="572.6919" cy="-18" rx="96.3833" ry="18"/>
<text text-anchor="middle" x="572.6919" y="-14.3" font-family="Times,serif" font-size="14.00" fill="#000000">skullstrip_bold_wf</text>
</g>
<!-- unwarp_ref (fixes)&#45;&gt;skullstrip_bold_wf -->
<g id="edge17" class="edge">
<title>unwarp_ref (fixes)&#45;&gt;skullstrip_bold_wf</title>
<path fill="none" stroke="#000000" d="M507.9503,-72.2022C518.7813,-63.1345 532.1096,-51.9758 543.8521,-42.1449"/>
<polygon fill="#000000" stroke="#000000" points="546.2572,-44.6961 551.678,-35.593 541.7636,-39.3288 546.2572,-44.6961"/>
</g>
<!-- fixed_image_masks (utility) -->
<g id="node10" class="node">
<title>fixed_image_masks (utility)</title>
<ellipse fill="none" stroke="#000000" cx="169.6919" cy="-234" rx="139.1754" ry="18"/>
<text text-anchor="middle" x="169.6919" y="-230.3" font-family="Times,serif" font-size="14.00" fill="#000000">fixed_image_masks (utility)</text>
</g>
<!-- threshold_atlas (fsl)&#45;&gt;fixed_image_masks (utility) -->
<g id="edge19" class="edge">
<title>threshold_atlas (fsl)&#45;&gt;fixed_image_masks (utility)</title>
<path fill="none" stroke="#000000" d="M143.5238,-287.8314C147.3905,-279.8771 152.0125,-270.369 156.2887,-261.5723"/>
<polygon fill="#000000" stroke="#000000" points="159.5168,-262.9371 160.741,-252.4133 153.2212,-259.8768 159.5168,-262.9371"/>
</g>
<!-- fixed_image_masks (utility)&#45;&gt;syn (fixes) -->
<g id="edge20" class="edge">
<title>fixed_image_masks (utility)&#45;&gt;syn (fixes)</title>
<path fill="none" stroke="#000000" d="M214.0083,-216.937C243.0219,-205.766 280.8684,-191.1941 310.2921,-179.8651"/>
<polygon fill="#000000" stroke="#000000" points="311.8482,-183.0165 319.9228,-176.1571 309.333,-176.484 311.8482,-183.0165"/>
</g>
</g>
</svg>
