<?xml version="1.0" encoding="UTF-8" standalone="no"?>
<!DOCTYPE svg PUBLIC "-//W3C//DTD SVG 1.1//EN"
 "http://www.w3.org/Graphics/SVG/1.1/DTD/svg11.dtd">
<!-- Generated by graphviz version 2.40.1 (20161225.0304)
 -->
<!-- Title: structs Pages: 1 -->
<svg width="969pt" height="981pt"
 viewBox="0.00 0.00 968.54 981.00" xmlns="http://www.w3.org/2000/svg" xmlns:xlink="http://www.w3.org/1999/xlink">
<g id="graph0" class="graph" transform="scale(1 1) rotate(0) translate(4 977)">
<title>structs</title>
<polygon fill="#ffffff" stroke="transparent" points="-4,4 -4,-977 964.5449,-977 964.5449,4 -4,4"/>
<!-- pepolar_unwarp_wfinputnode -->
<g id="node1" class="node">
<title>pepolar_unwarp_wfinputnode</title>
<polygon fill="none" stroke="#000000" points="53.0449,-857.5 53.0449,-972.5 329.0449,-972.5 329.0449,-857.5 53.0449,-857.5"/>
<text text-anchor="middle" x="70.5449" y="-911.3" font-family="Times,serif" font-size="14.00" fill="#000000">IN</text>
<polyline fill="none" stroke="#000000" points="88.0449,-857.5 88.0449,-972.5 "/>
<text text-anchor="middle" x="132.5449" y="-949.8" font-family="Times,serif" font-size="14.00" fill="#000000">inputnode</text>
<polyline fill="none" stroke="#000000" points="88.0449,-934.5 177.0449,-934.5 "/>
<text text-anchor="middle" x="132.5449" y="-911.8" font-family="Times,serif" font-size="14.00" fill="#000000">utility</text>
<polyline fill="none" stroke="#000000" points="88.0449,-896.5 177.0449,-896.5 "/>
<text text-anchor="middle" x="132.5449" y="-873.3" font-family="Times,serif" font-size="14.00" fill="#000000"> </text>
<polyline fill="none" stroke="#000000" points="177.0449,-857.5 177.0449,-972.5 "/>
<text text-anchor="middle" x="253.0449" y="-957.3" font-family="Times,serif" font-size="14.00" fill="#000000">OUT</text>
<polyline fill="none" stroke="#000000" points="177.0449,-949.5 329.0449,-949.5 "/>
<text text-anchor="middle" x="253.0449" y="-934.3" font-family="Times,serif" font-size="14.00" fill="#000000">bold_pe_dir</text>
<polyline fill="none" stroke="#000000" points="177.0449,-926.5 329.0449,-926.5 "/>
<text text-anchor="middle" x="253.0449" y="-911.3" font-family="Times,serif" font-size="14.00" fill="#000000">fmaps_epi</text>
<polyline fill="none" stroke="#000000" points="177.0449,-903.5 329.0449,-903.5 "/>
<text text-anchor="middle" x="253.0449" y="-888.3" font-family="Times,serif" font-size="14.00" fill="#000000">in_reference</text>
<polyline fill="none" stroke="#000000" points="177.0449,-880.5 329.0449,-880.5 "/>
<text text-anchor="middle" x="253.0449" y="-865.3" font-family="Times,serif" font-size="14.00" fill="#000000">in_reference_brain</text>
</g>
<!-- pepolar_unwarp_wfprepare_epi_wf -->
<g id="node2" class="node">
<title>pepolar_unwarp_wfprepare_epi_wf</title>
<polygon fill="none" stroke="#000000" points="357.5449,-728.5 357.5449,-820.5 832.5449,-820.5 832.5449,-728.5 357.5449,-728.5"/>
<text text-anchor="middle" x="436.5449" y="-805.3" font-family="Times,serif" font-size="14.00" fill="#000000">IN</text>
<polyline fill="none" stroke="#000000" points="357.5449,-797.5 515.5449,-797.5 "/>
<text text-anchor="middle" x="436.5449" y="-782.3" font-family="Times,serif" font-size="14.00" fill="#000000">inputnode.epi_pe</text>
<polyline fill="none" stroke="#000000" points="357.5449,-774.5 515.5449,-774.5 "/>
<text text-anchor="middle" x="436.5449" y="-759.3" font-family="Times,serif" font-size="14.00" fill="#000000">inputnode.maps_pe</text>
<polyline fill="none" stroke="#000000" points="357.5449,-751.5 515.5449,-751.5 "/>
<text text-anchor="middle" x="436.5449" y="-736.3" font-family="Times,serif" font-size="14.00" fill="#000000">inputnode.ref_brain</text>
<polyline fill="none" stroke="#000000" points="515.5449,-728.5 515.5449,-820.5 "/>
<text text-anchor="middle" x="579.0449" y="-801.8" font-family="Times,serif" font-size="14.00" fill="#000000">prepare_epi_wf</text>
<polyline fill="none" stroke="#000000" points="515.5449,-790.5 642.5449,-790.5 "/>
<text text-anchor="middle" x="579.0449" y="-771.3" font-family="Times,serif" font-size="14.00" fill="#000000"> </text>
<polyline fill="none" stroke="#000000" points="515.5449,-759.5 642.5449,-759.5 "/>
<text text-anchor="middle" x="579.0449" y="-740.3" font-family="Times,serif" font-size="14.00" fill="#000000"> </text>
<polyline fill="none" stroke="#000000" points="642.5449,-728.5 642.5449,-820.5 "/>
<text text-anchor="middle" x="737.5449" y="-801.8" font-family="Times,serif" font-size="14.00" fill="#000000">OUT</text>
<polyline fill="none" stroke="#000000" points="642.5449,-790.5 832.5449,-790.5 "/>
<text text-anchor="middle" x="737.5449" y="-771.3" font-family="Times,serif" font-size="14.00" fill="#000000">outputnode.matched_pe</text>
<polyline fill="none" stroke="#000000" points="642.5449,-759.5 832.5449,-759.5 "/>
<text text-anchor="middle" x="737.5449" y="-740.3" font-family="Times,serif" font-size="14.00" fill="#000000">outputnode.opposed_pe</text>
</g>
<!-- pepolar_unwarp_wfinputnode&#45;&gt;pepolar_unwarp_wfprepare_epi_wf -->
<g id="edge4" class="edge">
<title>pepolar_unwarp_wfinputnode:e&#45;&gt;pepolar_unwarp_wfprepare_epi_wf:w</title>
<path fill="none" stroke="#000000" d="M329.0449,-938C343.756,-938 341.2187,-826.1134 351.0787,-794.6453"/>
<polygon fill="#000000" stroke="#000000" points="353.9593,-796.6356 357.0449,-786.5 348.3122,-792.4992 353.9593,-796.6356"/>
</g>
<!-- pepolar_unwarp_wfinputnode&#45;&gt;pepolar_unwarp_wfprepare_epi_wf -->
<g id="edge6" class="edge">
<title>pepolar_unwarp_wfinputnode:e&#45;&gt;pepolar_unwarp_wfprepare_epi_wf:w</title>
<path fill="none" stroke="#000000" d="M329.0449,-915C343.8499,-915 341.1644,-802.3749 351.0502,-770.6991"/>
<polygon fill="#000000" stroke="#000000" points="353.9681,-772.6383 357.0449,-762.5 348.3174,-768.5068 353.9681,-772.6383"/>
</g>
<!-- pepolar_unwarp_wfinputnode&#45;&gt;pepolar_unwarp_wfprepare_epi_wf -->
<g id="edge10" class="edge">
<title>pepolar_unwarp_wfinputnode:e&#45;&gt;pepolar_unwarp_wfprepare_epi_wf:w</title>
<path fill="none" stroke="#000000" d="M329.0449,-869C351.2671,-869 338.0446,-842.6523 343.0449,-821 346.3722,-806.592 341.5108,-762.5988 349.06,-745.9636"/>
<polygon fill="#000000" stroke="#000000" points="351.4744,-748.5122 357.0449,-739.5 347.0701,-743.0714 351.4744,-748.5122"/>
</g>
<!-- pepolar_unwarp_wfqwarp -->
<g id="node3" class="node">
<title>pepolar_unwarp_wfqwarp</title>
<polygon fill="none" stroke="#000000" points="581.0449,-599.5 581.0449,-691.5 831.0449,-691.5 831.0449,-599.5 581.0449,-599.5"/>
<text text-anchor="middle" x="621.0449" y="-676.3" font-family="Times,serif" font-size="14.00" fill="#000000">IN</text>
<polyline fill="none" stroke="#000000" points="581.0449,-668.5 661.0449,-668.5 "/>
<text text-anchor="middle" x="621.0449" y="-653.3" font-family="Times,serif" font-size="14.00" fill="#000000">args</text>
<polyline fill="none" stroke="#000000" points="581.0449,-645.5 661.0449,-645.5 "/>
<text text-anchor="middle" x="621.0449" y="-630.3" font-family="Times,serif" font-size="14.00" fill="#000000">base_file</text>
<polyline fill="none" stroke="#000000" points="581.0449,-622.5 661.0449,-622.5 "/>
<text text-anchor="middle" x="621.0449" y="-607.3" font-family="Times,serif" font-size="14.00" fill="#000000">in_file</text>
<polyline fill="none" stroke="#000000" points="661.0449,-599.5 661.0449,-691.5 "/>
<text text-anchor="middle" x="692.0449" y="-672.8" font-family="Times,serif" font-size="14.00" fill="#000000">qwarp</text>
<polyline fill="none" stroke="#000000" points="661.0449,-661.5 723.0449,-661.5 "/>
<text text-anchor="middle" x="692.0449" y="-642.3" font-family="Times,serif" font-size="14.00" fill="#000000">afni</text>
<polyline fill="none" stroke="#000000" points="661.0449,-630.5 723.0449,-630.5 "/>
<text text-anchor="middle" x="692.0449" y="-611.3" font-family="Times,serif" font-size="14.00" fill="#000000"> </text>
<polyline fill="none" stroke="#000000" points="723.0449,-599.5 723.0449,-691.5 "/>
<text text-anchor="middle" x="777.0449" y="-664.8" font-family="Times,serif" font-size="14.00" fill="#000000">OUT</text>
<polyline fill="none" stroke="#000000" points="723.0449,-645.5 831.0449,-645.5 "/>
<text text-anchor="middle" x="777.0449" y="-618.8" font-family="Times,serif" font-size="14.00" fill="#000000">source_warp</text>
</g>
<!-- pepolar_unwarp_wfinputnode&#45;&gt;pepolar_unwarp_wfqwarp -->
<g id="edge5" class="edge">
<title>pepolar_unwarp_wfinputnode:e&#45;&gt;pepolar_unwarp_wfqwarp:w</title>
<path fill="none" stroke="#000000" d="M329.0449,-938C422.8005,-938 289.7015,-800.5843 349.0449,-728 381.1524,-688.7285 510.6626,-660.9175 570.6851,-657.7933"/>
<polygon fill="#000000" stroke="#000000" points="571.148,-661.2817 581.0449,-657.5 570.9498,-654.2845 571.148,-661.2817"/>
</g>
<!-- pepolar_unwarp_wfcphdr_warp -->
<g id="node4" class="node">
<title>pepolar_unwarp_wfcphdr_warp</title>
<polygon fill="none" stroke="#000000" points="291.5449,-493.5 291.5449,-562.5 534.5449,-562.5 534.5449,-493.5 291.5449,-493.5"/>
<text text-anchor="middle" x="327.0449" y="-547.3" font-family="Times,serif" font-size="14.00" fill="#000000">IN</text>
<polyline fill="none" stroke="#000000" points="291.5449,-539.5 362.5449,-539.5 "/>
<text text-anchor="middle" x="327.0449" y="-524.3" font-family="Times,serif" font-size="14.00" fill="#000000">hdr_file</text>
<polyline fill="none" stroke="#000000" points="291.5449,-516.5 362.5449,-516.5 "/>
<text text-anchor="middle" x="327.0449" y="-501.3" font-family="Times,serif" font-size="14.00" fill="#000000">in_file</text>
<polyline fill="none" stroke="#000000" points="362.5449,-493.5 362.5449,-562.5 "/>
<text text-anchor="middle" x="413.5449" y="-547.3" font-family="Times,serif" font-size="14.00" fill="#000000">cphdr_warp</text>
<polyline fill="none" stroke="#000000" points="362.5449,-539.5 464.5449,-539.5 "/>
<text text-anchor="middle" x="413.5449" y="-524.3" font-family="Times,serif" font-size="14.00" fill="#000000">utils</text>
<polyline fill="none" stroke="#000000" points="362.5449,-516.5 464.5449,-516.5 "/>
<text text-anchor="middle" x="413.5449" y="-501.3" font-family="Times,serif" font-size="14.00" fill="#000000"> </text>
<polyline fill="none" stroke="#000000" points="464.5449,-493.5 464.5449,-562.5 "/>
<text text-anchor="middle" x="499.5449" y="-541.8" font-family="Times,serif" font-size="14.00" fill="#000000">OUT</text>
<polyline fill="none" stroke="#000000" points="464.5449,-528.5 534.5449,-528.5 "/>
<text text-anchor="middle" x="499.5449" y="-507.3" font-family="Times,serif" font-size="14.00" fill="#000000">out_file</text>
</g>
<!-- pepolar_unwarp_wfinputnode&#45;&gt;pepolar_unwarp_wfcphdr_warp -->
<g id="edge7" class="edge">
<title>pepolar_unwarp_wfinputnode:e&#45;&gt;pepolar_unwarp_wfcphdr_warp:w</title>
<path fill="none" stroke="#000000" d="M329.0449,-892C347.3914,-892 285.1328,-595.6224 287.7361,-537.7361"/>
<polygon fill="#000000" stroke="#000000" points="291.141,-538.5944 291.0449,-528 284.5132,-536.342 291.141,-538.5944"/>
</g>
<!-- pepolar_unwarp_wfunwarp_reference -->
<g id="node6" class="node">
<title>pepolar_unwarp_wfunwarp_reference</title>
<polygon fill="none" stroke="#000000" points="253.5449,-258.5 253.5449,-350.5 652.5449,-350.5 652.5449,-258.5 253.5449,-258.5"/>
<text text-anchor="middle" x="322.0449" y="-335.3" font-family="Times,serif" font-size="14.00" fill="#000000">IN</text>
<polyline fill="none" stroke="#000000" points="253.5449,-327.5 390.5449,-327.5 "/>
<text text-anchor="middle" x="322.0449" y="-312.3" font-family="Times,serif" font-size="14.00" fill="#000000">input_image</text>
<polyline fill="none" stroke="#000000" points="253.5449,-304.5 390.5449,-304.5 "/>
<text text-anchor="middle" x="322.0449" y="-289.3" font-family="Times,serif" font-size="14.00" fill="#000000">reference_image</text>
<polyline fill="none" stroke="#000000" points="253.5449,-281.5 390.5449,-281.5 "/>
<text text-anchor="middle" x="322.0449" y="-266.3" font-family="Times,serif" font-size="14.00" fill="#000000">transforms</text>
<polyline fill="none" stroke="#000000" points="390.5449,-258.5 390.5449,-350.5 "/>
<text text-anchor="middle" x="464.0449" y="-331.8" font-family="Times,serif" font-size="14.00" fill="#000000">unwarp_reference</text>
<polyline fill="none" stroke="#000000" points="390.5449,-320.5 537.5449,-320.5 "/>
<text text-anchor="middle" x="464.0449" y="-301.3" font-family="Times,serif" font-size="14.00" fill="#000000">registration</text>
<polyline fill="none" stroke="#000000" points="390.5449,-289.5 537.5449,-289.5 "/>
<text text-anchor="middle" x="464.0449" y="-270.3" font-family="Times,serif" font-size="14.00" fill="#000000"> </text>
<polyline fill="none" stroke="#000000" points="537.5449,-258.5 537.5449,-350.5 "/>
<text text-anchor="middle" x="595.0449" y="-323.8" font-family="Times,serif" font-size="14.00" fill="#000000">OUT</text>
<polyline fill="none" stroke="#000000" points="537.5449,-304.5 652.5449,-304.5 "/>
<text text-anchor="middle" x="595.0449" y="-277.8" font-family="Times,serif" font-size="14.00" fill="#000000">output_image</text>
</g>
<!-- pepolar_unwarp_wfinputnode&#45;&gt;pepolar_unwarp_wfunwarp_reference -->
<g id="edge8" class="edge">
<title>pepolar_unwarp_wfinputnode:e&#45;&gt;pepolar_unwarp_wfunwarp_reference:w</title>
<path fill="none" stroke="#000000" d="M329.0449,-892C344.6004,-892 337.7658,-869.881 329.0449,-857 304.8922,-821.3258 265.5641,-854.9519 239.0449,-821 190.5841,-758.957 215.0449,-724.226 215.0449,-645.5 215.0449,-645.5 215.0449,-645.5 215.0449,-528 215.0449,-436.039 161.7285,-325.0808 243.0338,-316.9722"/>
<polygon fill="#000000" stroke="#000000" points="243.2209,-320.4674 253.0449,-316.5 242.891,-313.4752 243.2209,-320.4674"/>
</g>
<!-- pepolar_unwarp_wfinputnode&#45;&gt;pepolar_unwarp_wfunwarp_reference -->
<g id="edge9" class="edge">
<title>pepolar_unwarp_wfinputnode:e&#45;&gt;pepolar_unwarp_wfunwarp_reference:w</title>
<path fill="none" stroke="#000000" d="M329.0449,-892C363.5832,-892 315.463,-835.8485 309.0449,-821 276.5601,-745.8455 253.0449,-727.3746 253.0449,-645.5 253.0449,-645.5 253.0449,-645.5 253.0449,-528 253.0449,-426.9108 155.4109,-301.4131 243.0336,-292.9523"/>
<polygon fill="#000000" stroke="#000000" points="243.213,-296.4478 253.0449,-292.5 242.8971,-289.455 243.213,-296.4478"/>
</g>
<!-- pepolar_unwarp_wfprepare_epi_wf&#45;&gt;pepolar_unwarp_wfqwarp -->
<g id="edge11" class="edge">
<title>pepolar_unwarp_wfprepare_epi_wf:e&#45;&gt;pepolar_unwarp_wfqwarp:w</title>
<path fill="none" stroke="#000000" d="M833.0449,-775.5C854.156,-775.5 846.8769,-743.9485 833.0449,-728 758.9173,-642.5301 655.1725,-777.4699 581.0449,-692 559.8151,-667.5218 547.5822,-621.6215 571.1655,-612.2116"/>
<polygon fill="#000000" stroke="#000000" points="571.7892,-615.6558 581.0449,-610.5 570.5941,-608.7586 571.7892,-615.6558"/>
</g>
<!-- pepolar_unwarp_wfprepare_epi_wf&#45;&gt;pepolar_unwarp_wfqwarp -->
<g id="edge12" class="edge">
<title>pepolar_unwarp_wfprepare_epi_wf:e&#45;&gt;pepolar_unwarp_wfqwarp:w</title>
<path fill="none" stroke="#000000" d="M833.0449,-743.5C839.9338,-743.5 837.5585,-733.2042 833.0449,-728 758.9173,-642.5301 655.1725,-777.4699 581.0449,-692 566.6714,-675.4272 558.0434,-645.174 571.3157,-636.1245"/>
<polygon fill="#000000" stroke="#000000" points="572.3016,-639.4838 581.0449,-633.5 570.4784,-632.7253 572.3016,-639.4838"/>
</g>
<!-- pepolar_unwarp_wfqwarp&#45;&gt;pepolar_unwarp_wfcphdr_warp -->
<g id="edge13" class="edge">
<title>pepolar_unwarp_wfqwarp:e&#45;&gt;pepolar_unwarp_wfcphdr_warp:w</title>
<path fill="none" stroke="#000000" d="M831.0449,-622.5C841.4893,-622.5 838.1804,-606.627 831.0449,-599 748.8808,-511.1759 373.2089,-650.8241 291.0449,-563 276.1856,-547.1171 268.0498,-516.7456 281.3543,-507.6422"/>
<polygon fill="#000000" stroke="#000000" points="282.3178,-511.0074 291.0449,-505 280.4763,-504.2539 282.3178,-511.0074"/>
</g>
<!-- pepolar_unwarp_wfto_ants -->
<g id="node5" class="node">
<title>pepolar_unwarp_wfto_ants</title>
<polygon fill="none" stroke="#000000" points="523.5449,-387.5 523.5449,-456.5 702.5449,-456.5 702.5449,-387.5 523.5449,-387.5"/>
<text text-anchor="middle" x="553.5449" y="-435.8" font-family="Times,serif" font-size="14.00" fill="#000000">IN</text>
<polyline fill="none" stroke="#000000" points="523.5449,-422.5 583.5449,-422.5 "/>
<text text-anchor="middle" x="553.5449" y="-401.3" font-family="Times,serif" font-size="14.00" fill="#000000">in_file</text>
<polyline fill="none" stroke="#000000" points="583.5449,-387.5 583.5449,-456.5 "/>
<text text-anchor="middle" x="618.0449" y="-441.3" font-family="Times,serif" font-size="14.00" fill="#000000">to_ants</text>
<polyline fill="none" stroke="#000000" points="583.5449,-433.5 652.5449,-433.5 "/>
<text text-anchor="middle" x="618.0449" y="-418.3" font-family="Times,serif" font-size="14.00" fill="#000000">utility</text>
<polyline fill="none" stroke="#000000" points="583.5449,-410.5 652.5449,-410.5 "/>
<text text-anchor="middle" x="618.0449" y="-395.3" font-family="Times,serif" font-size="14.00" fill="#000000"> </text>
<polyline fill="none" stroke="#000000" points="652.5449,-387.5 652.5449,-456.5 "/>
<text text-anchor="middle" x="677.5449" y="-435.8" font-family="Times,serif" font-size="14.00" fill="#000000">OUT</text>
<polyline fill="none" stroke="#000000" points="652.5449,-422.5 702.5449,-422.5 "/>
<text text-anchor="middle" x="677.5449" y="-401.3" font-family="Times,serif" font-size="14.00" fill="#000000">out</text>
</g>
<!-- pepolar_unwarp_wfcphdr_warp&#45;&gt;pepolar_unwarp_wfto_ants -->
<g id="edge1" class="edge">
<title>pepolar_unwarp_wfcphdr_warp:e&#45;&gt;pepolar_unwarp_wfto_ants:w</title>
<path fill="none" stroke="#000000" d="M535.0449,-511C543.0449,-511 536.3263,-500.8967 535.0449,-493 529.4136,-458.2982 492.9839,-415.6063 512.9683,-406.6825"/>
<polygon fill="#000000" stroke="#000000" points="513.7579,-410.0992 523.0449,-405 512.605,-403.1948 513.7579,-410.0992"/>
</g>
<!-- pepolar_unwarp_wfto_ants&#45;&gt;pepolar_unwarp_wfunwarp_reference -->
<g id="edge15" class="edge">
<title>pepolar_unwarp_wfto_ants:e&#45;&gt;pepolar_unwarp_wfunwarp_reference:w</title>
<path fill="none" stroke="#000000" d="M703.0449,-405C711.0449,-405 708.4715,-392.8781 703.0449,-387 634.9955,-313.2892 321.0943,-424.7108 253.0449,-351 231.0658,-327.1924 219.4241,-280.7629 243.1405,-271.234"/>
<polygon fill="#000000" stroke="#000000" points="243.7983,-274.6722 253.0449,-269.5 242.5911,-267.7771 243.7983,-274.6722"/>
</g>
<!-- pepolar_unwarp_wfoutputnode -->
<g id="node8" class="node">
<title>pepolar_unwarp_wfoutputnode</title>
<polygon fill="none" stroke="#000000" points="651.5449,-.5 651.5449,-115.5 960.5449,-115.5 960.5449,-.5 651.5449,-.5"/>
<text text-anchor="middle" x="732.0449" y="-100.3" font-family="Times,serif" font-size="14.00" fill="#000000">IN</text>
<polyline fill="none" stroke="#000000" points="651.5449,-92.5 812.5449,-92.5 "/>
<text text-anchor="middle" x="732.0449" y="-77.3" font-family="Times,serif" font-size="14.00" fill="#000000">out_mask</text>
<polyline fill="none" stroke="#000000" points="651.5449,-69.5 812.5449,-69.5 "/>
<text text-anchor="middle" x="732.0449" y="-54.3" font-family="Times,serif" font-size="14.00" fill="#000000">out_reference</text>
<polyline fill="none" stroke="#000000" points="651.5449,-46.5 812.5449,-46.5 "/>
<text text-anchor="middle" x="732.0449" y="-31.3" font-family="Times,serif" font-size="14.00" fill="#000000">out_reference_brain</text>
<polyline fill="none" stroke="#000000" points="651.5449,-23.5 812.5449,-23.5 "/>
<text text-anchor="middle" x="732.0449" y="-8.3" font-family="Times,serif" font-size="14.00" fill="#000000">out_warp</text>
<polyline fill="none" stroke="#000000" points="812.5449,-.5 812.5449,-115.5 "/>
<text text-anchor="middle" x="861.5449" y="-92.8" font-family="Times,serif" font-size="14.00" fill="#000000">outputnode</text>
<polyline fill="none" stroke="#000000" points="812.5449,-77.5 910.5449,-77.5 "/>
<text text-anchor="middle" x="861.5449" y="-54.8" font-family="Times,serif" font-size="14.00" fill="#000000">utility</text>
<polyline fill="none" stroke="#000000" points="812.5449,-39.5 910.5449,-39.5 "/>
<text text-anchor="middle" x="861.5449" y="-16.3" font-family="Times,serif" font-size="14.00" fill="#000000"> </text>
<polyline fill="none" stroke="#000000" points="910.5449,-.5 910.5449,-115.5 "/>
<text text-anchor="middle" x="935.5449" y="-54.3" font-family="Times,serif" font-size="14.00" fill="#000000">OUT</text>
</g>
<!-- pepolar_unwarp_wfto_ants&#45;&gt;pepolar_unwarp_wfoutputnode -->
<g id="edge14" class="edge">
<title>pepolar_unwarp_wfto_ants:e&#45;&gt;pepolar_unwarp_wfoutputnode:w</title>
<path fill="none" stroke="#000000" d="M703.0449,-405C707.7182,-405 726.0172,-325.2026 670.0449,-152 664.4816,-134.7849 655.3947,-133.561 651.0449,-116 640.8866,-74.9894 610.6798,-22.0582 640.8633,-13.2636"/>
<polygon fill="#000000" stroke="#000000" points="641.5521,-16.705 651.0449,-12 640.6899,-9.7583 641.5521,-16.705"/>
</g>
<!-- pepolar_unwarp_wfenhance_and_skullstrip_bold_wf -->
<g id="node7" class="node">
<title>pepolar_unwarp_wfenhance_and_skullstrip_bold_wf</title>
<polygon fill="none" stroke="#000000" points="15.5449,-152.5 15.5449,-221.5 636.5449,-221.5 636.5449,-152.5 15.5449,-152.5"/>
<text text-anchor="middle" x="84.0449" y="-200.8" font-family="Times,serif" font-size="14.00" fill="#000000">IN</text>
<polyline fill="none" stroke="#000000" points="15.5449,-187.5 152.5449,-187.5 "/>
<text text-anchor="middle" x="84.0449" y="-166.3" font-family="Times,serif" font-size="14.00" fill="#000000">inputnode.in_file</text>
<polyline fill="none" stroke="#000000" points="152.5449,-152.5 152.5449,-221.5 "/>
<text text-anchor="middle" x="277.0449" y="-206.3" font-family="Times,serif" font-size="14.00" fill="#000000">enhance_and_skullstrip_bold_wf</text>
<polyline fill="none" stroke="#000000" points="152.5449,-198.5 401.5449,-198.5 "/>
<text text-anchor="middle" x="277.0449" y="-183.3" font-family="Times,serif" font-size="14.00" fill="#000000"> </text>
<polyline fill="none" stroke="#000000" points="152.5449,-175.5 401.5449,-175.5 "/>
<text text-anchor="middle" x="277.0449" y="-160.3" font-family="Times,serif" font-size="14.00" fill="#000000"> </text>
<polyline fill="none" stroke="#000000" points="401.5449,-152.5 401.5449,-221.5 "/>
<text text-anchor="middle" x="519.0449" y="-206.3" font-family="Times,serif" font-size="14.00" fill="#000000">OUT</text>
<polyline fill="none" stroke="#000000" points="401.5449,-198.5 636.5449,-198.5 "/>
<text text-anchor="middle" x="519.0449" y="-183.3" font-family="Times,serif" font-size="14.00" fill="#000000">outputnode.mask_file</text>
<polyline fill="none" stroke="#000000" points="401.5449,-175.5 636.5449,-175.5 "/>
<text text-anchor="middle" x="519.0449" y="-160.3" font-family="Times,serif" font-size="14.00" fill="#000000">outputnode.skull_stripped_file</text>
</g>
<!-- pepolar_unwarp_wfunwarp_reference&#45;&gt;pepolar_unwarp_wfenhance_and_skullstrip_bold_wf -->
<g id="edge16" class="edge">
<title>pepolar_unwarp_wfunwarp_reference:e&#45;&gt;pepolar_unwarp_wfenhance_and_skullstrip_bold_wf:w</title>
<path fill="none" stroke="#000000" d="M653.0449,-281.5C663.4893,-281.5 660.2192,-265.5905 653.0449,-258 555.5028,-154.7988 112.5869,-325.2012 15.0449,-222 2.0224,-208.222 -5.1868,-182.0571 5.4001,-173.0989"/>
<polygon fill="#000000" stroke="#000000" points="6.5949,-176.3913 15.0449,-170 4.4536,-169.7269 6.5949,-176.3913"/>
</g>
<!-- pepolar_unwarp_wfunwarp_reference&#45;&gt;pepolar_unwarp_wfoutputnode -->
<g id="edge17" class="edge">
<title>pepolar_unwarp_wfunwarp_reference:e&#45;&gt;pepolar_unwarp_wfoutputnode:w</title>
<path fill="none" stroke="#000000" d="M653.0449,-281.5C698.6391,-281.5 616.9857,-93.164 641.7034,-62.2651"/>
<polygon fill="#000000" stroke="#000000" points="643.4019,-65.3373 651.0449,-58 640.4945,-58.9696 643.4019,-65.3373"/>
</g>
<!-- pepolar_unwarp_wfenhance_and_skullstrip_bold_wf&#45;&gt;pepolar_unwarp_wfoutputnode -->
<g id="edge2" class="edge">
<title>pepolar_unwarp_wfenhance_and_skullstrip_bold_wf:e&#45;&gt;pepolar_unwarp_wfoutputnode:w</title>
<path fill="none" stroke="#000000" d="M637.0449,-187C657.0925,-187 636.3614,-111.5371 643.6656,-87.955"/>
<polygon fill="#000000" stroke="#000000" points="646.1682,-90.4058 651.0449,-81 641.3671,-85.3118 646.1682,-90.4058"/>
</g>
<!-- pepolar_unwarp_wfenhance_and_skullstrip_bold_wf&#45;&gt;pepolar_unwarp_wfoutputnode -->
<g id="edge3" class="edge">
<title>pepolar_unwarp_wfenhance_and_skullstrip_bold_wf:e&#45;&gt;pepolar_unwarp_wfoutputnode:w</title>
<path fill="none" stroke="#000000" d="M637.0449,-164C662.0502,-164 632.5308,-66.9902 643.053,-41.2219"/>
<polygon fill="#000000" stroke="#000000" points="645.3043,-43.9049 651.0449,-35 641.0041,-38.3814 645.3043,-43.9049"/>
</g>
</g>
</svg>
