<?xml version="1.0" encoding="UTF-8" standalone="no"?>
<!DOCTYPE svg PUBLIC "-//W3C//DTD SVG 1.1//EN"
 "http://www.w3.org/Graphics/SVG/1.1/DTD/svg11.dtd">
<!-- Generated by graphviz version 2.40.1 (20161225.0304)
 -->
<!-- Title: structs Pages: 1 -->
<svg width="1242pt" height="488pt"
 viewBox="0.00 0.00 1241.87 488.00" xmlns="http://www.w3.org/2000/svg" xmlns:xlink="http://www.w3.org/1999/xlink">
<g id="graph0" class="graph" transform="scale(1 1) rotate(0) translate(4 484)">
<title>structs</title>
<polygon fill="#ffffff" stroke="transparent" points="-4,4 -4,-484 1237.87,-484 1237.87,4 -4,4"/>
<!-- sdc_unwarp_wfinputnode -->
<g id="node1" class="node">
<title>sdc_unwarp_wfinputnode</title>
<polygon fill="none" stroke="#000000" points="133.37,-387.5 133.37,-479.5 409.37,-479.5 409.37,-387.5 133.37,-387.5"/>
<text text-anchor="middle" x="150.87" y="-429.8" font-family="Times,serif" font-size="14.00" fill="#000000">IN</text>
<polyline fill="none" stroke="#000000" points="168.37,-387.5 168.37,-479.5 "/>
<text text-anchor="middle" x="212.87" y="-460.8" font-family="Times,serif" font-size="14.00" fill="#000000">inputnode</text>
<polyline fill="none" stroke="#000000" points="168.37,-449.5 257.37,-449.5 "/>
<text text-anchor="middle" x="212.87" y="-430.3" font-family="Times,serif" font-size="14.00" fill="#000000">utility</text>
<polyline fill="none" stroke="#000000" points="168.37,-418.5 257.37,-418.5 "/>
<text text-anchor="middle" x="212.87" y="-399.3" font-family="Times,serif" font-size="14.00" fill="#000000"> </text>
<polyline fill="none" stroke="#000000" points="257.37,-387.5 257.37,-479.5 "/>
<text text-anchor="middle" x="333.37" y="-464.3" font-family="Times,serif" font-size="14.00" fill="#000000">OUT</text>
<polyline fill="none" stroke="#000000" points="257.37,-456.5 409.37,-456.5 "/>
<text text-anchor="middle" x="333.37" y="-441.3" font-family="Times,serif" font-size="14.00" fill="#000000">in_reference</text>
<polyline fill="none" stroke="#000000" points="257.37,-433.5 409.37,-433.5 "/>
<text text-anchor="middle" x="333.37" y="-418.3" font-family="Times,serif" font-size="14.00" fill="#000000">in_reference_mask</text>
<polyline fill="none" stroke="#000000" points="257.37,-410.5 409.37,-410.5 "/>
<text text-anchor="middle" x="333.37" y="-395.3" font-family="Times,serif" font-size="14.00" fill="#000000">in_warp</text>
</g>
<!-- sdc_unwarp_wfunwarp_mask -->
<g id="node2" class="node">
<title>sdc_unwarp_wfunwarp_mask</title>
<polygon fill="none" stroke="#000000" points="23.37,-258.5 23.37,-350.5 391.37,-350.5 391.37,-258.5 23.37,-258.5"/>
<text text-anchor="middle" x="91.87" y="-335.3" font-family="Times,serif" font-size="14.00" fill="#000000">IN</text>
<polyline fill="none" stroke="#000000" points="23.37,-327.5 160.37,-327.5 "/>
<text text-anchor="middle" x="91.87" y="-312.3" font-family="Times,serif" font-size="14.00" fill="#000000">input_image</text>
<polyline fill="none" stroke="#000000" points="23.37,-304.5 160.37,-304.5 "/>
<text text-anchor="middle" x="91.87" y="-289.3" font-family="Times,serif" font-size="14.00" fill="#000000">reference_image</text>
<polyline fill="none" stroke="#000000" points="23.37,-281.5 160.37,-281.5 "/>
<text text-anchor="middle" x="91.87" y="-266.3" font-family="Times,serif" font-size="14.00" fill="#000000">transforms</text>
<polyline fill="none" stroke="#000000" points="160.37,-258.5 160.37,-350.5 "/>
<text text-anchor="middle" x="218.37" y="-331.8" font-family="Times,serif" font-size="14.00" fill="#000000">unwarp_mask</text>
<polyline fill="none" stroke="#000000" points="160.37,-320.5 276.37,-320.5 "/>
<text text-anchor="middle" x="218.37" y="-301.3" font-family="Times,serif" font-size="14.00" fill="#000000">registration</text>
<polyline fill="none" stroke="#000000" points="160.37,-289.5 276.37,-289.5 "/>
<text text-anchor="middle" x="218.37" y="-270.3" font-family="Times,serif" font-size="14.00" fill="#000000"> </text>
<polyline fill="none" stroke="#000000" points="276.37,-258.5 276.37,-350.5 "/>
<text text-anchor="middle" x="333.87" y="-323.8" font-family="Times,serif" font-size="14.00" fill="#000000">OUT</text>
<polyline fill="none" stroke="#000000" points="276.37,-304.5 391.37,-304.5 "/>
<text text-anchor="middle" x="333.87" y="-277.8" font-family="Times,serif" font-size="14.00" fill="#000000">output_image</text>
</g>
<!-- sdc_unwarp_wfinputnode&#45;&gt;sdc_unwarp_wfunwarp_mask -->
<g id="edge5" class="edge">
<title>sdc_unwarp_wfinputnode:e&#45;&gt;sdc_unwarp_wfunwarp_mask:w</title>
<path fill="none" stroke="#000000" d="M409.37,-421.5C424.7033,-421.5 419.6966,-398.3345 409.37,-387 351.35,-323.3171 81.3899,-414.6829 23.37,-351 16.1091,-343.0304 11.4783,-329.2118 14.6987,-321.7094"/>
<polygon fill="#000000" stroke="#000000" points="16.6004,-324.65 23.37,-316.5 12.9955,-318.6496 16.6004,-324.65"/>
</g>
<!-- sdc_unwarp_wfinputnode&#45;&gt;sdc_unwarp_wfunwarp_mask -->
<g id="edge6" class="edge">
<title>sdc_unwarp_wfinputnode:e&#45;&gt;sdc_unwarp_wfunwarp_mask:w</title>
<path fill="none" stroke="#000000" d="M409.37,-421.5C424.7033,-421.5 419.6966,-398.3345 409.37,-387 351.35,-323.3171 81.3899,-414.6829 23.37,-351 8.5956,-334.7836 .2432,-304.2854 13.6114,-295.1506"/>
<polygon fill="#000000" stroke="#000000" points="14.6371,-298.4989 23.37,-292.5 12.8022,-291.7437 14.6371,-298.4989"/>
</g>
<!-- sdc_unwarp_wfinputnode&#45;&gt;sdc_unwarp_wfunwarp_mask -->
<g id="edge8" class="edge">
<title>sdc_unwarp_wfinputnode:e&#45;&gt;sdc_unwarp_wfunwarp_mask:w</title>
<path fill="none" stroke="#000000" d="M409.37,-398.5C414.4811,-398.5 412.8122,-390.7782 409.37,-387 351.35,-323.3171 81.3899,-414.6829 23.37,-351 1.5481,-327.0482 -10.2176,-280.7325 13.4709,-271.2292"/>
<polygon fill="#000000" stroke="#000000" points="14.1215,-274.6687 23.37,-269.5 12.9169,-267.7731 14.1215,-274.6687"/>
</g>
<!-- sdc_unwarp_wfunwarp_reference -->
<g id="node3" class="node">
<title>sdc_unwarp_wfunwarp_reference</title>
<polygon fill="none" stroke="#000000" points="409.87,-258.5 409.87,-350.5 808.87,-350.5 808.87,-258.5 409.87,-258.5"/>
<text text-anchor="middle" x="478.37" y="-335.3" font-family="Times,serif" font-size="14.00" fill="#000000">IN</text>
<polyline fill="none" stroke="#000000" points="409.87,-327.5 546.87,-327.5 "/>
<text text-anchor="middle" x="478.37" y="-312.3" font-family="Times,serif" font-size="14.00" fill="#000000">input_image</text>
<polyline fill="none" stroke="#000000" points="409.87,-304.5 546.87,-304.5 "/>
<text text-anchor="middle" x="478.37" y="-289.3" font-family="Times,serif" font-size="14.00" fill="#000000">reference_image</text>
<polyline fill="none" stroke="#000000" points="409.87,-281.5 546.87,-281.5 "/>
<text text-anchor="middle" x="478.37" y="-266.3" font-family="Times,serif" font-size="14.00" fill="#000000">transforms</text>
<polyline fill="none" stroke="#000000" points="546.87,-258.5 546.87,-350.5 "/>
<text text-anchor="middle" x="620.37" y="-331.8" font-family="Times,serif" font-size="14.00" fill="#000000">unwarp_reference</text>
<polyline fill="none" stroke="#000000" points="546.87,-320.5 693.87,-320.5 "/>
<text text-anchor="middle" x="620.37" y="-301.3" font-family="Times,serif" font-size="14.00" fill="#000000">registration</text>
<polyline fill="none" stroke="#000000" points="546.87,-289.5 693.87,-289.5 "/>
<text text-anchor="middle" x="620.37" y="-270.3" font-family="Times,serif" font-size="14.00" fill="#000000"> </text>
<polyline fill="none" stroke="#000000" points="693.87,-258.5 693.87,-350.5 "/>
<text text-anchor="middle" x="751.37" y="-323.8" font-family="Times,serif" font-size="14.00" fill="#000000">OUT</text>
<polyline fill="none" stroke="#000000" points="693.87,-304.5 808.87,-304.5 "/>
<text text-anchor="middle" x="751.37" y="-277.8" font-family="Times,serif" font-size="14.00" fill="#000000">output_image</text>
</g>
<!-- sdc_unwarp_wfinputnode&#45;&gt;sdc_unwarp_wfunwarp_reference -->
<g id="edge3" class="edge">
<title>sdc_unwarp_wfinputnode:e&#45;&gt;sdc_unwarp_wfunwarp_reference:w</title>
<path fill="none" stroke="#000000" d="M409.37,-445.5C434.0054,-445.5 395.1276,-350.2302 401.9,-323.4356"/>
<polygon fill="#000000" stroke="#000000" points="404.423,-325.869 409.37,-316.5 399.6602,-320.7392 404.423,-325.869"/>
</g>
<!-- sdc_unwarp_wfinputnode&#45;&gt;sdc_unwarp_wfunwarp_reference -->
<g id="edge4" class="edge">
<title>sdc_unwarp_wfinputnode:e&#45;&gt;sdc_unwarp_wfunwarp_reference:w</title>
<path fill="none" stroke="#000000" d="M409.37,-445.5C423.8466,-445.5 401.34,-334.5507 404.8372,-301.6127"/>
<polygon fill="#000000" stroke="#000000" points="408.0501,-303.0123 409.37,-292.5 401.7826,-299.8947 408.0501,-303.0123"/>
</g>
<!-- sdc_unwarp_wfinputnode&#45;&gt;sdc_unwarp_wfunwarp_reference -->
<g id="edge9" class="edge">
<title>sdc_unwarp_wfinputnode:e&#45;&gt;sdc_unwarp_wfunwarp_reference:w</title>
<path fill="none" stroke="#000000" d="M409.37,-398.5C409.37,-398.5 409.37,-310.033 409.37,-279.6224"/>
<polygon fill="#000000" stroke="#000000" points="412.8701,-279.5 409.37,-269.5 405.8701,-279.5 412.8701,-279.5"/>
</g>
<!-- sdc_unwarp_wfoutputnode -->
<g id="node5" class="node">
<title>sdc_unwarp_wfoutputnode</title>
<polygon fill="none" stroke="#000000" points="924.87,-.5 924.87,-115.5 1233.87,-115.5 1233.87,-.5 924.87,-.5"/>
<text text-anchor="middle" x="1005.37" y="-100.3" font-family="Times,serif" font-size="14.00" fill="#000000">IN</text>
<polyline fill="none" stroke="#000000" points="924.87,-92.5 1085.87,-92.5 "/>
<text text-anchor="middle" x="1005.37" y="-77.3" font-family="Times,serif" font-size="14.00" fill="#000000">out_mask</text>
<polyline fill="none" stroke="#000000" points="924.87,-69.5 1085.87,-69.5 "/>
<text text-anchor="middle" x="1005.37" y="-54.3" font-family="Times,serif" font-size="14.00" fill="#000000">out_reference</text>
<polyline fill="none" stroke="#000000" points="924.87,-46.5 1085.87,-46.5 "/>
<text text-anchor="middle" x="1005.37" y="-31.3" font-family="Times,serif" font-size="14.00" fill="#000000">out_reference_brain</text>
<polyline fill="none" stroke="#000000" points="924.87,-23.5 1085.87,-23.5 "/>
<text text-anchor="middle" x="1005.37" y="-8.3" font-family="Times,serif" font-size="14.00" fill="#000000">out_warp</text>
<polyline fill="none" stroke="#000000" points="1085.87,-.5 1085.87,-115.5 "/>
<text text-anchor="middle" x="1134.87" y="-92.8" font-family="Times,serif" font-size="14.00" fill="#000000">outputnode</text>
<polyline fill="none" stroke="#000000" points="1085.87,-77.5 1183.87,-77.5 "/>
<text text-anchor="middle" x="1134.87" y="-54.8" font-family="Times,serif" font-size="14.00" fill="#000000">utility</text>
<polyline fill="none" stroke="#000000" points="1085.87,-39.5 1183.87,-39.5 "/>
<text text-anchor="middle" x="1134.87" y="-16.3" font-family="Times,serif" font-size="14.00" fill="#000000"> </text>
<polyline fill="none" stroke="#000000" points="1183.87,-.5 1183.87,-115.5 "/>
<text text-anchor="middle" x="1208.87" y="-54.3" font-family="Times,serif" font-size="14.00" fill="#000000">OUT</text>
</g>
<!-- sdc_unwarp_wfinputnode&#45;&gt;sdc_unwarp_wfoutputnode -->
<g id="edge7" class="edge">
<title>sdc_unwarp_wfinputnode:e&#45;&gt;sdc_unwarp_wfoutputnode:w</title>
<path fill="none" stroke="#000000" d="M409.37,-398.5C500.8698,-398.5 736.819,-392.4927 818.37,-351 887.891,-315.628 908.9779,-294.6515 937.37,-222 948.6941,-193.023 942.7337,-182.6453 937.37,-152 934.4372,-135.2435 927.3028,-132.7565 924.37,-116 917.0859,-74.3826 884.4989,-21.9539 914.2521,-13.2501"/>
<polygon fill="#000000" stroke="#000000" points="914.8747,-16.6999 924.37,-12 914.0162,-9.7527 914.8747,-16.6999"/>
</g>
<!-- sdc_unwarp_wfenhance_and_skullstrip_bold_wf -->
<g id="node4" class="node">
<title>sdc_unwarp_wfenhance_and_skullstrip_bold_wf</title>
<polygon fill="none" stroke="#000000" points="262.87,-152.5 262.87,-221.5 909.87,-221.5 909.87,-152.5 262.87,-152.5"/>
<text text-anchor="middle" x="344.37" y="-206.3" font-family="Times,serif" font-size="14.00" fill="#000000">IN</text>
<polyline fill="none" stroke="#000000" points="262.87,-198.5 425.87,-198.5 "/>
<text text-anchor="middle" x="344.37" y="-183.3" font-family="Times,serif" font-size="14.00" fill="#000000">inputnode.in_file</text>
<polyline fill="none" stroke="#000000" points="262.87,-175.5 425.87,-175.5 "/>
<text text-anchor="middle" x="344.37" y="-160.3" font-family="Times,serif" font-size="14.00" fill="#000000">inputnode.pre_mask</text>
<polyline fill="none" stroke="#000000" points="425.87,-152.5 425.87,-221.5 "/>
<text text-anchor="middle" x="550.37" y="-206.3" font-family="Times,serif" font-size="14.00" fill="#000000">enhance_and_skullstrip_bold_wf</text>
<polyline fill="none" stroke="#000000" points="425.87,-198.5 674.87,-198.5 "/>
<text text-anchor="middle" x="550.37" y="-183.3" font-family="Times,serif" font-size="14.00" fill="#000000"> </text>
<polyline fill="none" stroke="#000000" points="425.87,-175.5 674.87,-175.5 "/>
<text text-anchor="middle" x="550.37" y="-160.3" font-family="Times,serif" font-size="14.00" fill="#000000"> </text>
<polyline fill="none" stroke="#000000" points="674.87,-152.5 674.87,-221.5 "/>
<text text-anchor="middle" x="792.37" y="-206.3" font-family="Times,serif" font-size="14.00" fill="#000000">OUT</text>
<polyline fill="none" stroke="#000000" points="674.87,-198.5 909.87,-198.5 "/>
<text text-anchor="middle" x="792.37" y="-183.3" font-family="Times,serif" font-size="14.00" fill="#000000">outputnode.mask_file</text>
<polyline fill="none" stroke="#000000" points="674.87,-175.5 909.87,-175.5 "/>
<text text-anchor="middle" x="792.37" y="-160.3" font-family="Times,serif" font-size="14.00" fill="#000000">outputnode.skull_stripped_file</text>
</g>
<!-- sdc_unwarp_wfunwarp_mask&#45;&gt;sdc_unwarp_wfenhance_and_skullstrip_bold_wf -->
<g id="edge10" class="edge">
<title>sdc_unwarp_wfunwarp_mask:e&#45;&gt;sdc_unwarp_wfenhance_and_skullstrip_bold_wf:w</title>
<path fill="none" stroke="#000000" d="M391.37,-281.5C401.8144,-281.5 397.6852,-266.3189 391.37,-258 355.3788,-210.5896 298.3611,-269.4104 262.37,-222 249.3406,-204.8367 240.0814,-175.8384 252.452,-166.7853"/>
<polygon fill="#000000" stroke="#000000" points="253.6888,-170.0734 262.37,-164 251.7961,-163.3341 253.6888,-170.0734"/>
</g>
<!-- sdc_unwarp_wfunwarp_reference&#45;&gt;sdc_unwarp_wfenhance_and_skullstrip_bold_wf -->
<g id="edge11" class="edge">
<title>sdc_unwarp_wfunwarp_reference:e&#45;&gt;sdc_unwarp_wfenhance_and_skullstrip_bold_wf:w</title>
<path fill="none" stroke="#000000" d="M809.37,-281.5C819.8144,-281.5 816.5087,-265.624 809.37,-258 726.1077,-169.0778 345.6322,-310.9222 262.37,-222 254.8943,-214.0161 250.2409,-199.9561 253.5441,-192.3116"/>
<polygon fill="#000000" stroke="#000000" points="255.6067,-195.1553 262.37,-187 251.9972,-189.1577 255.6067,-195.1553"/>
</g>
<!-- sdc_unwarp_wfunwarp_reference&#45;&gt;sdc_unwarp_wfoutputnode -->
<g id="edge12" class="edge">
<title>sdc_unwarp_wfunwarp_reference:e&#45;&gt;sdc_unwarp_wfoutputnode:w</title>
<path fill="none" stroke="#000000" d="M809.37,-281.5C864.9526,-281.5 890.1889,-269.3064 919.37,-222 955.6358,-163.2084 862.247,-68.6401 914.2804,-58.8296"/>
<polygon fill="#000000" stroke="#000000" points="914.6905,-62.3078 924.37,-58 914.1168,-55.3314 914.6905,-62.3078"/>
</g>
<!-- sdc_unwarp_wfenhance_and_skullstrip_bold_wf&#45;&gt;sdc_unwarp_wfoutputnode -->
<g id="edge1" class="edge">
<title>sdc_unwarp_wfenhance_and_skullstrip_bold_wf:e&#45;&gt;sdc_unwarp_wfoutputnode:w</title>
<path fill="none" stroke="#000000" d="M910.37,-187C930.4176,-187 909.6865,-111.5371 916.9908,-87.955"/>
<polygon fill="#000000" stroke="#000000" points="919.4934,-90.4058 924.37,-81 914.6922,-85.3118 919.4934,-90.4058"/>
</g>
<!-- sdc_unwarp_wfenhance_and_skullstrip_bold_wf&#45;&gt;sdc_unwarp_wfoutputnode -->
<g id="edge2" class="edge">
<title>sdc_unwarp_wfenhance_and_skullstrip_bold_wf:e&#45;&gt;sdc_unwarp_wfoutputnode:w</title>
<path fill="none" stroke="#000000" d="M910.37,-164C935.3753,-164 905.8559,-66.9902 916.3781,-41.2219"/>
<polygon fill="#000000" stroke="#000000" points="918.6294,-43.9049 924.37,-35 914.3292,-38.3814 918.6294,-43.9049"/>
</g>
</g>
</svg>
