<?xml version="1.0" encoding="UTF-8" standalone="no"?>
<!DOCTYPE svg PUBLIC "-//W3C//DTD SVG 1.1//EN"
 "http://www.w3.org/Graphics/SVG/1.1/DTD/svg11.dtd">
<!-- Generated by graphviz version 2.40.1 (20161225.0304)
 -->
<!-- Title: structs Pages: 1 -->
<svg width="1383pt" height="548pt"
 viewBox="0.00 0.00 1382.50 548.00" xmlns="http://www.w3.org/2000/svg" xmlns:xlink="http://www.w3.org/1999/xlink">
<g id="graph0" class="graph" transform="scale(1 1) rotate(0) translate(4 544)">
<title>structs</title>
<polygon fill="#ffffff" stroke="transparent" points="-4,4 -4,-544 1378.5,-544 1378.5,4 -4,4"/>
<!-- fmap_wfinputnode -->
<g id="node1" class="node">
<title>fmap_wfinputnode</title>
<polygon fill="none" stroke="#000000" points="0,-470.5 0,-539.5 217,-539.5 217,-470.5 0,-470.5"/>
<text text-anchor="middle" x="17.5" y="-501.3" font-family="Times,serif" font-size="14.00" fill="#000000">IN</text>
<polyline fill="none" stroke="#000000" points="35,-470.5 35,-539.5 "/>
<text text-anchor="middle" x="79.5" y="-524.3" font-family="Times,serif" font-size="14.00" fill="#000000">inputnode</text>
<polyline fill="none" stroke="#000000" points="35,-516.5 124,-516.5 "/>
<text text-anchor="middle" x="79.5" y="-501.3" font-family="Times,serif" font-size="14.00" fill="#000000">utility</text>
<polyline fill="none" stroke="#000000" points="35,-493.5 124,-493.5 "/>
<text text-anchor="middle" x="79.5" y="-478.3" font-family="Times,serif" font-size="14.00" fill="#000000"> </text>
<polyline fill="none" stroke="#000000" points="124,-470.5 124,-539.5 "/>
<text text-anchor="middle" x="170.5" y="-524.3" font-family="Times,serif" font-size="14.00" fill="#000000">OUT</text>
<polyline fill="none" stroke="#000000" points="124,-516.5 217,-516.5 "/>
<text text-anchor="middle" x="170.5" y="-501.3" font-family="Times,serif" font-size="14.00" fill="#000000">fieldmap</text>
<polyline fill="none" stroke="#000000" points="124,-493.5 217,-493.5 "/>
<text text-anchor="middle" x="170.5" y="-478.3" font-family="Times,serif" font-size="14.00" fill="#000000">magnitude</text>
</g>
<!-- fmap_wffmapmrg -->
<g id="node2" class="node">
<title>fmap_wffmapmrg</title>
<polygon fill="none" stroke="#000000" points="98.5,-364.5 98.5,-433.5 318.5,-433.5 318.5,-364.5 98.5,-364.5"/>
<text text-anchor="middle" x="132.5" y="-412.8" font-family="Times,serif" font-size="14.00" fill="#000000">IN</text>
<polyline fill="none" stroke="#000000" points="98.5,-399.5 166.5,-399.5 "/>
<text text-anchor="middle" x="132.5" y="-378.3" font-family="Times,serif" font-size="14.00" fill="#000000">in_files</text>
<polyline fill="none" stroke="#000000" points="166.5,-364.5 166.5,-433.5 "/>
<text text-anchor="middle" x="207.5" y="-418.3" font-family="Times,serif" font-size="14.00" fill="#000000">fmapmrg</text>
<polyline fill="none" stroke="#000000" points="166.5,-410.5 248.5,-410.5 "/>
<text text-anchor="middle" x="207.5" y="-395.3" font-family="Times,serif" font-size="14.00" fill="#000000">images</text>
<polyline fill="none" stroke="#000000" points="166.5,-387.5 248.5,-387.5 "/>
<text text-anchor="middle" x="207.5" y="-372.3" font-family="Times,serif" font-size="14.00" fill="#000000"> </text>
<polyline fill="none" stroke="#000000" points="248.5,-364.5 248.5,-433.5 "/>
<text text-anchor="middle" x="283.5" y="-412.8" font-family="Times,serif" font-size="14.00" fill="#000000">OUT</text>
<polyline fill="none" stroke="#000000" points="248.5,-399.5 318.5,-399.5 "/>
<text text-anchor="middle" x="283.5" y="-378.3" font-family="Times,serif" font-size="14.00" fill="#000000">out_file</text>
</g>
<!-- fmap_wfinputnode&#45;&gt;fmap_wffmapmrg -->
<g id="edge4" class="edge">
<title>fmap_wfinputnode:e&#45;&gt;fmap_wffmapmrg:w</title>
<path fill="none" stroke="#000000" d="M217.5,-505C233.0556,-505 226.7712,-482.4908 217.5,-470 184.5672,-425.6303 131.4328,-478.3697 98.5,-434 87.3084,-418.9218 79.0462,-394.0175 88.7376,-385.2085"/>
<polygon fill="#000000" stroke="#000000" points="90.0928,-388.4474 98.5,-382 87.9071,-381.7974 90.0928,-388.4474"/>
</g>
<!-- fmap_wfmagnitude_wf -->
<g id="node3" class="node">
<title>fmap_wfmagnitude_wf</title>
<polygon fill="none" stroke="#000000" points="337,-364.5 337,-433.5 810,-433.5 810,-364.5 337,-364.5"/>
<text text-anchor="middle" x="422" y="-412.8" font-family="Times,serif" font-size="14.00" fill="#000000">IN</text>
<polyline fill="none" stroke="#000000" points="337,-399.5 507,-399.5 "/>
<text text-anchor="middle" x="422" y="-378.3" font-family="Times,serif" font-size="14.00" fill="#000000">inputnode.magnitude</text>
<polyline fill="none" stroke="#000000" points="507,-364.5 507,-433.5 "/>
<text text-anchor="middle" x="566" y="-418.3" font-family="Times,serif" font-size="14.00" fill="#000000">magnitude_wf</text>
<polyline fill="none" stroke="#000000" points="507,-410.5 625,-410.5 "/>
<text text-anchor="middle" x="566" y="-395.3" font-family="Times,serif" font-size="14.00" fill="#000000"> </text>
<polyline fill="none" stroke="#000000" points="507,-387.5 625,-387.5 "/>
<text text-anchor="middle" x="566" y="-372.3" font-family="Times,serif" font-size="14.00" fill="#000000"> </text>
<polyline fill="none" stroke="#000000" points="625,-364.5 625,-433.5 "/>
<text text-anchor="middle" x="717.5" y="-418.3" font-family="Times,serif" font-size="14.00" fill="#000000">OUT</text>
<polyline fill="none" stroke="#000000" points="625,-410.5 810,-410.5 "/>
<text text-anchor="middle" x="717.5" y="-395.3" font-family="Times,serif" font-size="14.00" fill="#000000">outputnode.fmap_mask</text>
<polyline fill="none" stroke="#000000" points="625,-387.5 810,-387.5 "/>
<text text-anchor="middle" x="717.5" y="-372.3" font-family="Times,serif" font-size="14.00" fill="#000000">outputnode.fmap_ref</text>
</g>
<!-- fmap_wfinputnode&#45;&gt;fmap_wfmagnitude_wf -->
<g id="edge5" class="edge">
<title>fmap_wfinputnode:e&#45;&gt;fmap_wfmagnitude_wf:w</title>
<path fill="none" stroke="#000000" d="M217.5,-482C270.8407,-482 294.5705,-475.9629 327.5,-434 332.7036,-427.3689 329.0181,-403.4067 330.8878,-390.4525"/>
<polygon fill="#000000" stroke="#000000" points="333.8843,-392.2669 336.5,-382 328.0527,-388.3949 333.8843,-392.2669"/>
</g>
<!-- fmap_wfapplymsk -->
<g id="node4" class="node">
<title>fmap_wfapplymsk</title>
<polygon fill="none" stroke="#000000" points="365,-258.5 365,-327.5 606,-327.5 606,-258.5 365,-258.5"/>
<text text-anchor="middle" x="407.5" y="-312.3" font-family="Times,serif" font-size="14.00" fill="#000000">IN</text>
<polyline fill="none" stroke="#000000" points="365,-304.5 450,-304.5 "/>
<text text-anchor="middle" x="407.5" y="-289.3" font-family="Times,serif" font-size="14.00" fill="#000000">in_file</text>
<polyline fill="none" stroke="#000000" points="365,-281.5 450,-281.5 "/>
<text text-anchor="middle" x="407.5" y="-266.3" font-family="Times,serif" font-size="14.00" fill="#000000">mask_file</text>
<polyline fill="none" stroke="#000000" points="450,-258.5 450,-327.5 "/>
<text text-anchor="middle" x="493" y="-312.3" font-family="Times,serif" font-size="14.00" fill="#000000">applymsk</text>
<polyline fill="none" stroke="#000000" points="450,-304.5 536,-304.5 "/>
<text text-anchor="middle" x="493" y="-289.3" font-family="Times,serif" font-size="14.00" fill="#000000">fsl</text>
<polyline fill="none" stroke="#000000" points="450,-281.5 536,-281.5 "/>
<text text-anchor="middle" x="493" y="-266.3" font-family="Times,serif" font-size="14.00" fill="#000000"> </text>
<polyline fill="none" stroke="#000000" points="536,-258.5 536,-327.5 "/>
<text text-anchor="middle" x="571" y="-306.8" font-family="Times,serif" font-size="14.00" fill="#000000">OUT</text>
<polyline fill="none" stroke="#000000" points="536,-293.5 606,-293.5 "/>
<text text-anchor="middle" x="571" y="-272.3" font-family="Times,serif" font-size="14.00" fill="#000000">out_file</text>
</g>
<!-- fmap_wffmapmrg&#45;&gt;fmap_wfapplymsk -->
<g id="edge3" class="edge">
<title>fmap_wffmapmrg:e&#45;&gt;fmap_wfapplymsk:w</title>
<path fill="none" stroke="#000000" d="M318.5,-382C327.4443,-382 323.4331,-371.9662 327.5,-364 341.9098,-335.7741 331.7759,-301.5075 354.5247,-294.3493"/>
<polygon fill="#000000" stroke="#000000" points="355.0594,-297.8089 364.5,-293 354.1211,-290.8721 355.0594,-297.8089"/>
</g>
<!-- fmap_wfmagnitude_wf&#45;&gt;fmap_wfapplymsk -->
<g id="edge6" class="edge">
<title>fmap_wfmagnitude_wf:e&#45;&gt;fmap_wfapplymsk:w</title>
<path fill="none" stroke="#000000" d="M810.5,-399C826.0556,-399 821.0477,-375.4334 810.5,-364 743.0777,-290.9162 431.9223,-401.0838 364.5,-328 349.7521,-312.0137 341.5397,-281.7133 354.8175,-272.6347"/>
<polygon fill="#000000" stroke="#000000" points="355.7698,-276.0029 364.5,-270 353.9319,-269.2485 355.7698,-276.0029"/>
</g>
<!-- fmap_wffmap_postproc_wf -->
<g id="node5" class="node">
<title>fmap_wffmap_postproc_wf</title>
<polygon fill="none" stroke="#000000" points="607,-129.5 607,-221.5 1100,-221.5 1100,-129.5 607,-129.5"/>
<text text-anchor="middle" x="694.5" y="-206.3" font-family="Times,serif" font-size="14.00" fill="#000000">IN</text>
<polyline fill="none" stroke="#000000" points="607,-198.5 782,-198.5 "/>
<text text-anchor="middle" x="694.5" y="-183.3" font-family="Times,serif" font-size="14.00" fill="#000000">inputnode.fmap</text>
<polyline fill="none" stroke="#000000" points="607,-175.5 782,-175.5 "/>
<text text-anchor="middle" x="694.5" y="-160.3" font-family="Times,serif" font-size="14.00" fill="#000000">inputnode.fmap_mask</text>
<polyline fill="none" stroke="#000000" points="607,-152.5 782,-152.5 "/>
<text text-anchor="middle" x="694.5" y="-137.3" font-family="Times,serif" font-size="14.00" fill="#000000">inputnode.fmap_ref</text>
<polyline fill="none" stroke="#000000" points="782,-129.5 782,-221.5 "/>
<text text-anchor="middle" x="856" y="-202.8" font-family="Times,serif" font-size="14.00" fill="#000000">fmap_postproc_wf</text>
<polyline fill="none" stroke="#000000" points="782,-191.5 930,-191.5 "/>
<text text-anchor="middle" x="856" y="-172.3" font-family="Times,serif" font-size="14.00" fill="#000000"> </text>
<polyline fill="none" stroke="#000000" points="782,-160.5 930,-160.5 "/>
<text text-anchor="middle" x="856" y="-141.3" font-family="Times,serif" font-size="14.00" fill="#000000"> </text>
<polyline fill="none" stroke="#000000" points="930,-129.5 930,-221.5 "/>
<text text-anchor="middle" x="1015" y="-194.8" font-family="Times,serif" font-size="14.00" fill="#000000">OUT</text>
<polyline fill="none" stroke="#000000" points="930,-175.5 1100,-175.5 "/>
<text text-anchor="middle" x="1015" y="-148.8" font-family="Times,serif" font-size="14.00" fill="#000000">outputnode.out_fmap</text>
</g>
<!-- fmap_wfmagnitude_wf&#45;&gt;fmap_wffmap_postproc_wf -->
<g id="edge7" class="edge">
<title>fmap_wfmagnitude_wf:e&#45;&gt;fmap_wffmap_postproc_wf:w</title>
<path fill="none" stroke="#000000" d="M810.5,-399C826.0556,-399 817.7019,-377.788 810.5,-364 784.9275,-315.0417 632.0725,-270.9583 606.5,-222 596.4374,-202.7353 585.0296,-174.7995 596.7451,-166.1516"/>
<polygon fill="#000000" stroke="#000000" points="597.7682,-169.5005 606.5,-163.5 595.9321,-162.7456 597.7682,-169.5005"/>
</g>
<!-- fmap_wfmagnitude_wf&#45;&gt;fmap_wffmap_postproc_wf -->
<g id="edge9" class="edge">
<title>fmap_wfmagnitude_wf:e&#45;&gt;fmap_wffmap_postproc_wf:w</title>
<path fill="none" stroke="#000000" d="M810.5,-376C823.883,-376 861.0527,-350.6521 722.5,-258 677.6273,-227.993 638.5178,-265.4608 606.5,-222 587.3655,-196.0269 573.5824,-151.6715 596.3856,-142.2795"/>
<polygon fill="#000000" stroke="#000000" points="597.2578,-145.6799 606.5,-140.5 596.0448,-138.7858 597.2578,-145.6799"/>
</g>
<!-- fmap_wfoutputnode -->
<g id="node6" class="node">
<title>fmap_wfoutputnode</title>
<polygon fill="none" stroke="#000000" points="1128.5,-.5 1128.5,-92.5 1374.5,-92.5 1374.5,-.5 1128.5,-.5"/>
<text text-anchor="middle" x="1177.5" y="-77.3" font-family="Times,serif" font-size="14.00" fill="#000000">IN</text>
<polyline fill="none" stroke="#000000" points="1128.5,-69.5 1226.5,-69.5 "/>
<text text-anchor="middle" x="1177.5" y="-54.3" font-family="Times,serif" font-size="14.00" fill="#000000">fmap</text>
<polyline fill="none" stroke="#000000" points="1128.5,-46.5 1226.5,-46.5 "/>
<text text-anchor="middle" x="1177.5" y="-31.3" font-family="Times,serif" font-size="14.00" fill="#000000">fmap_mask</text>
<polyline fill="none" stroke="#000000" points="1128.5,-23.5 1226.5,-23.5 "/>
<text text-anchor="middle" x="1177.5" y="-8.3" font-family="Times,serif" font-size="14.00" fill="#000000">fmap_ref</text>
<polyline fill="none" stroke="#000000" points="1226.5,-.5 1226.5,-92.5 "/>
<text text-anchor="middle" x="1275.5" y="-73.8" font-family="Times,serif" font-size="14.00" fill="#000000">outputnode</text>
<polyline fill="none" stroke="#000000" points="1226.5,-62.5 1324.5,-62.5 "/>
<text text-anchor="middle" x="1275.5" y="-43.3" font-family="Times,serif" font-size="14.00" fill="#000000">utility</text>
<polyline fill="none" stroke="#000000" points="1226.5,-31.5 1324.5,-31.5 "/>
<text text-anchor="middle" x="1275.5" y="-12.3" font-family="Times,serif" font-size="14.00" fill="#000000"> </text>
<polyline fill="none" stroke="#000000" points="1324.5,-.5 1324.5,-92.5 "/>
<text text-anchor="middle" x="1349.5" y="-42.8" font-family="Times,serif" font-size="14.00" fill="#000000">OUT</text>
</g>
<!-- fmap_wfmagnitude_wf&#45;&gt;fmap_wfoutputnode -->
<g id="edge8" class="edge">
<title>fmap_wfmagnitude_wf:e&#45;&gt;fmap_wfoutputnode:w</title>
<path fill="none" stroke="#000000" d="M810.5,-399C964.5454,-399 1025.3012,-351.6454 1108.5,-222 1151.7298,-154.6368 1054.1817,-44.9152 1118.342,-35.1933"/>
<polygon fill="#000000" stroke="#000000" points="1118.7616,-38.6729 1128.5,-34.5 1118.2849,-31.6892 1118.7616,-38.6729"/>
</g>
<!-- fmap_wfmagnitude_wf&#45;&gt;fmap_wfoutputnode -->
<g id="edge10" class="edge">
<title>fmap_wfmagnitude_wf:e&#45;&gt;fmap_wfoutputnode:w</title>
<path fill="none" stroke="#000000" d="M810.5,-376C869.0356,-376 1021.9639,-362.1575 1069.5,-328 1113.2855,-296.5375 1114.9545,-274.1879 1128.5,-222 1128.5,-222 1128.5,-63.701 1128.5,-21.6529"/>
<polygon fill="#000000" stroke="#000000" points="1132.0001,-21.5 1128.5,-11.5 1125.0001,-21.5 1132.0001,-21.5"/>
</g>
<!-- fmap_wfapplymsk&#45;&gt;fmap_wffmap_postproc_wf -->
<g id="edge1" class="edge">
<title>fmap_wfapplymsk:e&#45;&gt;fmap_wffmap_postproc_wf:w</title>
<path fill="none" stroke="#000000" d="M606.5,-276C640.9167,-276 584.9896,-208.2422 596.8203,-191.3027"/>
<polygon fill="#000000" stroke="#000000" points="598.4723,-194.4142 606.5,-187.5 595.9127,-187.899 598.4723,-194.4142"/>
</g>
<!-- fmap_wffmap_postproc_wf&#45;&gt;fmap_wfoutputnode -->
<g id="edge2" class="edge">
<title>fmap_wffmap_postproc_wf:e&#45;&gt;fmap_wfoutputnode:w</title>
<path fill="none" stroke="#000000" d="M1100.5,-152.5C1118.8052,-152.5 1110.7393,-86.1983 1120.5976,-64.961"/>
<polygon fill="#000000" stroke="#000000" points="1122.9736,-67.5393 1128.5,-58.5 1118.5428,-62.1201 1122.9736,-67.5393"/>
</g>
</g>
</svg>
