<?xml version="1.0" encoding="UTF-8" standalone="no"?>
<!DOCTYPE svg PUBLIC "-//W3C//DTD SVG 1.1//EN"
 "http://www.w3.org/Graphics/SVG/1.1/DTD/svg11.dtd">
<!-- Generated by graphviz version 2.40.1 (20161225.0304)
 -->
<!-- Title: %3 Pages: 1 -->
<svg width="287pt" height="332pt"
 viewBox="0.00 0.00 287.18 332.00" xmlns="http://www.w3.org/2000/svg" xmlns:xlink="http://www.w3.org/1999/xlink">
<g id="graph0" class="graph" transform="scale(1 1) rotate(0) translate(4 328)">
<title>%3</title>
<polygon fill="#ffffff" stroke="transparent" points="-4,4 -4,-328 283.1845,-328 283.1845,4 -4,4"/>
<!-- inputnode (utility) -->
<g id="node1" class="node">
<title>inputnode (utility)</title>
<ellipse fill="none" stroke="#000000" cx="183.8414" cy="-306" rx="94.7833" ry="18"/>
<text text-anchor="middle" x="183.8414" y="-302.3" font-family="Times,serif" font-size="14.00" fill="#000000">inputnode (utility)</text>
</g>
<!-- rotime (epi) -->
<g id="node2" class="node">
<title>rotime (epi)</title>
<ellipse fill="none" stroke="#000000" cx="89.8414" cy="-234" rx="65.7887" ry="18"/>
<text text-anchor="middle" x="89.8414" y="-230.3" font-family="Times,serif" font-size="14.00" fill="#000000">rotime (epi)</text>
</g>
<!-- inputnode (utility)&#45;&gt;rotime (epi) -->
<g id="edge1" class="edge">
<title>inputnode (utility)&#45;&gt;rotime (epi)</title>
<path fill="none" stroke="#000000" d="M160.6054,-288.2022C148.4747,-278.9106 133.4779,-267.4237 120.4167,-257.4194"/>
<polygon fill="#000000" stroke="#000000" points="122.2299,-254.3994 112.1628,-251.0972 117.9733,-259.9566 122.2299,-254.3994"/>
</g>
<!-- resample (bspline) -->
<g id="node3" class="node">
<title>resample (bspline)</title>
<ellipse fill="none" stroke="#000000" cx="96.8414" cy="-162" rx="96.6831" ry="18"/>
<text text-anchor="middle" x="96.8414" y="-158.3" font-family="Times,serif" font-size="14.00" fill="#000000">resample (bspline)</text>
</g>
<!-- inputnode (utility)&#45;&gt;resample (bspline) -->
<g id="edge2" class="edge">
<title>inputnode (utility)&#45;&gt;resample (bspline)</title>
<path fill="none" stroke="#000000" d="M183.5613,-287.7622C182.4916,-268.5721 178.5324,-238.1387 164.8414,-216 157.4488,-204.0459 146.4214,-193.6366 135.3874,-185.2324"/>
<polygon fill="#000000" stroke="#000000" points="137.1699,-182.2032 127.0084,-179.2042 133.0818,-187.8854 137.1699,-182.2032"/>
</g>
<!-- unwarp (fixes) -->
<g id="node4" class="node">
<title>unwarp (fixes)</title>
<ellipse fill="none" stroke="#000000" cx="201.8414" cy="-90" rx="77.1866" ry="18"/>
<text text-anchor="middle" x="201.8414" y="-86.3" font-family="Times,serif" font-size="14.00" fill="#000000">unwarp (fixes)</text>
</g>
<!-- inputnode (utility)&#45;&gt;unwarp (fixes) -->
<g id="edge3" class="edge">
<title>inputnode (utility)&#45;&gt;unwarp (fixes)</title>
<path fill="none" stroke="#000000" d="M187.4748,-287.7345C192.1311,-263.31 199.947,-218.6057 202.8414,-180 204.0376,-164.0448 202.9895,-159.9993 202.8414,-144 202.7654,-135.7856 202.6242,-126.8691 202.4715,-118.6933"/>
<polygon fill="#000000" stroke="#000000" points="205.9669,-118.4215 202.2685,-108.4932 198.9683,-118.5609 205.9669,-118.4215"/>
</g>
<!-- rotime (epi)&#45;&gt;resample (bspline) -->
<g id="edge4" class="edge">
<title>rotime (epi)&#45;&gt;resample (bspline)</title>
<path fill="none" stroke="#000000" d="M91.6078,-215.8314C92.3565,-208.131 93.2467,-198.9743 94.0787,-190.4166"/>
<polygon fill="#000000" stroke="#000000" points="97.5671,-190.7051 95.0512,-180.4133 90.5999,-190.0276 97.5671,-190.7051"/>
</g>
<!-- resample (bspline)&#45;&gt;unwarp (fixes) -->
<g id="edge5" class="edge">
<title>resample (bspline)&#45;&gt;unwarp (fixes)</title>
<path fill="none" stroke="#000000" d="M122.259,-144.5708C136.0592,-135.1078 153.2973,-123.2874 168.1982,-113.0696"/>
<polygon fill="#000000" stroke="#000000" points="170.39,-115.8106 176.6579,-107.2687 166.4312,-110.0375 170.39,-115.8106"/>
</g>
<!-- outputnode (utility) -->
<g id="node5" class="node">
<title>outputnode (utility)</title>
<ellipse fill="none" stroke="#000000" cx="148.8414" cy="-18" rx="101.2821" ry="18"/>
<text text-anchor="middle" x="148.8414" y="-14.3" font-family="Times,serif" font-size="14.00" fill="#000000">outputnode (utility)</text>
</g>
<!-- resample (bspline)&#45;&gt;outputnode (utility) -->
<g id="edge6" class="edge">
<title>resample (bspline)&#45;&gt;outputnode (utility)</title>
<path fill="none" stroke="#000000" d="M98.8258,-143.8877C101.2786,-125.33 106.3453,-95.8928 115.8414,-72 119.5367,-62.7024 124.7786,-53.1866 129.9993,-44.7844"/>
<polygon fill="#000000" stroke="#000000" points="133.0822,-46.4628 135.5817,-36.1671 127.2072,-42.6569 133.0822,-46.4628"/>
</g>
<!-- unwarp (fixes)&#45;&gt;outputnode (utility) -->
<g id="edge7" class="edge">
<title>unwarp (fixes)&#45;&gt;outputnode (utility)</title>
<path fill="none" stroke="#000000" d="M188.7403,-72.2022C182.5444,-63.7851 175.0223,-53.5665 168.1867,-44.2805"/>
<polygon fill="#000000" stroke="#000000" points="170.9069,-42.0716 162.16,-36.0931 165.2695,-46.2214 170.9069,-42.0716"/>
</g>
</g>
</svg>
